<?xml version="1.0" encoding="utf-8" standalone="no"?>
<!DOCTYPE svg PUBLIC "-//W3C//DTD SVG 1.1//EN"
  "http://www.w3.org/Graphics/SVG/1.1/DTD/svg11.dtd">
<!-- Created with matplotlib (https://matplotlib.org/) -->
<svg height="319.078125pt" version="1.1" viewBox="0 0 469.303125 319.078125" width="469.303125pt" xmlns="http://www.w3.org/2000/svg" xmlns:xlink="http://www.w3.org/1999/xlink">
 <defs>
  <style type="text/css">
*{stroke-linecap:butt;stroke-linejoin:round;}
  </style>
 </defs>
 <g id="figure_1">
  <g id="patch_1">
   <path d="M 0 319.078125 
L 469.303125 319.078125 
L 469.303125 0 
L 0 0 
z
" style="fill:#ffffff;"/>
  </g>
  <g id="axes_1">
   <g id="LineCollection_1">
    <path clip-path="url(#p052359af31)" d="M 53.268406 235.391289 
L 53.268406 151.2 
" style="fill:none;"/>
    <path clip-path="url(#p052359af31)" d="M 53.268406 235.391289 
L 53.268406 67.008711 
" style="fill:none;"/>
    <path clip-path="url(#p052359af31)" d="M 53.268406 235.391289 
L 438.937844 277.486934 
" style="fill:none;stroke:#000000;stroke-width:2.8;"/>
    <path clip-path="url(#p052359af31)" d="M 53.268406 235.391289 
L 438.937844 193.295645 
" style="fill:none;stroke:#000000;stroke-width:0.7;"/>
    <path clip-path="url(#p052359af31)" d="M 53.268406 235.391289 
L 438.937844 109.104355 
" style="fill:none;"/>
    <path clip-path="url(#p052359af31)" d="M 53.268406 235.391289 
L 438.937844 24.913066 
" style="fill:none;"/>
    <path clip-path="url(#p052359af31)" d="M 53.268406 151.2 
L 53.268406 67.008711 
" style="fill:none;"/>
    <path clip-path="url(#p052359af31)" d="M 53.268406 151.2 
L 438.937844 277.486934 
" style="fill:none;"/>
    <path clip-path="url(#p052359af31)" d="M 53.268406 151.2 
L 438.937844 193.295645 
" style="fill:none;"/>
    <path clip-path="url(#p052359af31)" d="M 53.268406 151.2 
L 438.937844 109.104355 
" style="fill:none;stroke:#000000;stroke-width:3.1;"/>
    <path clip-path="url(#p052359af31)" d="M 53.268406 151.2 
L 438.937844 24.913066 
" style="fill:none;stroke:#000000;stroke-width:0.5;"/>
    <path clip-path="url(#p052359af31)" d="M 53.268406 67.008711 
L 438.937844 277.486934 
" style="fill:none;"/>
    <path clip-path="url(#p052359af31)" d="M 53.268406 67.008711 
L 438.937844 193.295645 
" style="fill:none;stroke:#000000;stroke-width:2.2;"/>
    <path clip-path="url(#p052359af31)" d="M 53.268406 67.008711 
L 438.937844 109.104355 
" style="fill:none;"/>
    <path clip-path="url(#p052359af31)" d="M 53.268406 67.008711 
L 438.937844 24.913066 
" style="fill:none;stroke:#000000;stroke-width:2;"/>
    <path clip-path="url(#p052359af31)" d="M 438.937844 277.486934 
L 438.937844 193.295645 
" style="fill:none;"/>
    <path clip-path="url(#p052359af31)" d="M 438.937844 277.486934 
L 438.937844 109.104355 
" style="fill:none;"/>
    <path clip-path="url(#p052359af31)" d="M 438.937844 277.486934 
L 438.937844 24.913066 
" style="fill:none;"/>
    <path clip-path="url(#p052359af31)" d="M 438.937844 193.295645 
L 438.937844 109.104355 
" style="fill:none;"/>
    <path clip-path="url(#p052359af31)" d="M 438.937844 193.295645 
L 438.937844 24.913066 
" style="fill:none;"/>
    <path clip-path="url(#p052359af31)" d="M 438.937844 109.104355 
L 438.937844 24.913066 
" style="fill:none;"/>
   </g>
   <g id="PathCollection_1">
    <defs>
     <path d="M 0 15.811388 
C 4.193229 15.811388 8.215279 14.145401 11.18034 11.18034 
C 14.145401 8.215279 15.811388 4.193229 15.811388 0 
C 15.811388 -4.193229 14.145401 -8.215279 11.18034 -11.18034 
C 8.215279 -14.145401 4.193229 -15.811388 0 -15.811388 
C -4.193229 -15.811388 -8.215279 -14.145401 -11.18034 -11.18034 
C -14.145401 -8.215279 -15.811388 -4.193229 -15.811388 0 
C -15.811388 4.193229 -14.145401 8.215279 -11.18034 11.18034 
C -8.215279 14.145401 -4.193229 15.811388 0 15.811388 
z
" id="mf120644698" style="stroke:#000000;"/>
    </defs>
    <g clip-path="url(#p052359af31)">
     <use style="stroke:#000000;" x="53.268406" xlink:href="#mf120644698" y="235.391289"/>
     <use style="stroke:#000000;" x="53.268406" xlink:href="#mf120644698" y="151.2"/>
     <use style="stroke:#000000;" x="53.268406" xlink:href="#mf120644698" y="67.008711"/>
     <use style="stroke:#000000;" x="438.937844" xlink:href="#mf120644698" y="277.486934"/>
     <use style="stroke:#000000;" x="438.937844" xlink:href="#mf120644698" y="193.295645"/>
     <use style="stroke:#000000;" x="438.937844" xlink:href="#mf120644698" y="109.104355"/>
     <use style="stroke:#000000;" x="438.937844" xlink:href="#mf120644698" y="24.913066"/>
    </g>
   </g>
   <g id="text_1">
    <g clip-path="url(#p052359af31)">
     <!-- W1 -->
     <defs>
      <path d="M 3.328125 72.90625 
L 13.28125 72.90625 
L 28.609375 11.28125 
L 43.890625 72.90625 
L 54.984375 72.90625 
L 70.3125 11.28125 
L 85.59375 72.90625 
L 95.609375 72.90625 
L 77.296875 0 
L 64.890625 0 
L 49.515625 63.28125 
L 33.984375 0 
L 21.578125 0 
z
" id="DejaVuSans-87"/>
      <path d="M 12.40625 8.296875 
L 28.515625 8.296875 
L 28.515625 63.921875 
L 10.984375 60.40625 
L 10.984375 69.390625 
L 28.421875 72.90625 
L 38.28125 72.90625 
L 38.28125 8.296875 
L 54.390625 8.296875 
L 54.390625 0 
L 12.40625 0 
z
" id="DejaVuSans-49"/>
     </defs>
     <g style="fill:#ffffff;" transform="translate(40.268406 239.806289)scale(0.16 -0.16)">
      <use xlink:href="#DejaVuSans-87"/>
      <use x="98.876953" xlink:href="#DejaVuSans-49"/>
     </g>
    </g>
   </g>
   <g id="text_2">
    <g clip-path="url(#p052359af31)">
     <!-- W2 -->
     <defs>
      <path d="M 19.1875 8.296875 
L 53.609375 8.296875 
L 53.609375 0 
L 7.328125 0 
L 7.328125 8.296875 
Q 12.9375 14.109375 22.625 23.890625 
Q 32.328125 33.6875 34.8125 36.53125 
Q 39.546875 41.84375 41.421875 45.53125 
Q 43.3125 49.21875 43.3125 52.78125 
Q 43.3125 58.59375 39.234375 62.25 
Q 35.15625 65.921875 28.609375 65.921875 
Q 23.96875 65.921875 18.8125 64.3125 
Q 13.671875 62.703125 7.8125 59.421875 
L 7.8125 69.390625 
Q 13.765625 71.78125 18.9375 73 
Q 24.125 74.21875 28.421875 74.21875 
Q 39.75 74.21875 46.484375 68.546875 
Q 53.21875 62.890625 53.21875 53.421875 
Q 53.21875 48.921875 51.53125 44.890625 
Q 49.859375 40.875 45.40625 35.40625 
Q 44.1875 33.984375 37.640625 27.21875 
Q 31.109375 20.453125 19.1875 8.296875 
z
" id="DejaVuSans-50"/>
     </defs>
     <g style="fill:#ffffff;" transform="translate(40.268406 155.615)scale(0.16 -0.16)">
      <use xlink:href="#DejaVuSans-87"/>
      <use x="98.876953" xlink:href="#DejaVuSans-50"/>
     </g>
    </g>
   </g>
   <g id="text_3">
    <g clip-path="url(#p052359af31)">
     <!-- W3 -->
     <defs>
      <path d="M 40.578125 39.3125 
Q 47.65625 37.796875 51.625 33 
Q 55.609375 28.21875 55.609375 21.1875 
Q 55.609375 10.40625 48.1875 4.484375 
Q 40.765625 -1.421875 27.09375 -1.421875 
Q 22.515625 -1.421875 17.65625 -0.515625 
Q 12.796875 0.390625 7.625 2.203125 
L 7.625 11.71875 
Q 11.71875 9.328125 16.59375 8.109375 
Q 21.484375 6.890625 26.8125 6.890625 
Q 36.078125 6.890625 40.9375 10.546875 
Q 45.796875 14.203125 45.796875 21.1875 
Q 45.796875 27.640625 41.28125 31.265625 
Q 36.765625 34.90625 28.71875 34.90625 
L 20.21875 34.90625 
L 20.21875 43.015625 
L 29.109375 43.015625 
Q 36.375 43.015625 40.234375 45.921875 
Q 44.09375 48.828125 44.09375 54.296875 
Q 44.09375 59.90625 40.109375 62.90625 
Q 36.140625 65.921875 28.71875 65.921875 
Q 24.65625 65.921875 20.015625 65.03125 
Q 15.375 64.15625 9.8125 62.3125 
L 9.8125 71.09375 
Q 15.4375 72.65625 20.34375 73.4375 
Q 25.25 74.21875 29.59375 74.21875 
Q 40.828125 74.21875 47.359375 69.109375 
Q 53.90625 64.015625 53.90625 55.328125 
Q 53.90625 49.265625 50.4375 45.09375 
Q 46.96875 40.921875 40.578125 39.3125 
z
" id="DejaVuSans-51"/>
     </defs>
     <g style="fill:#ffffff;" transform="translate(40.268406 71.423711)scale(0.16 -0.16)">
      <use xlink:href="#DejaVuSans-87"/>
      <use x="98.876953" xlink:href="#DejaVuSans-51"/>
     </g>
    </g>
   </g>
   <g id="text_4">
    <g clip-path="url(#p052359af31)">
     <!-- F1 -->
     <defs>
      <path d="M 9.8125 72.90625 
L 51.703125 72.90625 
L 51.703125 64.59375 
L 19.671875 64.59375 
L 19.671875 43.109375 
L 48.578125 43.109375 
L 48.578125 34.8125 
L 19.671875 34.8125 
L 19.671875 0 
L 9.8125 0 
z
" id="DejaVuSans-70"/>
     </defs>
     <g style="fill:#ffffff;" transform="translate(429.246594 281.901934)scale(0.16 -0.16)">
      <use xlink:href="#DejaVuSans-70"/>
      <use x="57.519531" xlink:href="#DejaVuSans-49"/>
     </g>
    </g>
   </g>
   <g id="text_5">
    <g clip-path="url(#p052359af31)">
     <!-- F2 -->
     <g style="fill:#ffffff;" transform="translate(429.246594 197.710645)scale(0.16 -0.16)">
      <use xlink:href="#DejaVuSans-70"/>
      <use x="57.519531" xlink:href="#DejaVuSans-50"/>
     </g>
    </g>
   </g>
   <g id="text_6">
    <g clip-path="url(#p052359af31)">
     <!-- F3 -->
     <g style="fill:#ffffff;" transform="translate(429.246594 113.519355)scale(0.16 -0.16)">
      <use xlink:href="#DejaVuSans-70"/>
      <use x="57.519531" xlink:href="#DejaVuSans-51"/>
     </g>
    </g>
   </g>
   <g id="text_7">
    <g clip-path="url(#p052359af31)">
     <!-- F4 -->
     <defs>
      <path d="M 37.796875 64.3125 
L 12.890625 25.390625 
L 37.796875 25.390625 
z
M 35.203125 72.90625 
L 47.609375 72.90625 
L 47.609375 25.390625 
L 58.015625 25.390625 
L 58.015625 17.1875 
L 47.609375 17.1875 
L 47.609375 0 
L 37.796875 0 
L 37.796875 17.1875 
L 4.890625 17.1875 
L 4.890625 26.703125 
z
" id="DejaVuSans-52"/>
     </defs>
     <g style="fill:#ffffff;" transform="translate(429.246594 29.328066)scale(0.16 -0.16)">
      <use xlink:href="#DejaVuSans-70"/>
      <use x="57.519531" xlink:href="#DejaVuSans-52"/>
     </g>
    </g>
   </g>
  </g>
 </g>
 <defs>
  <clipPath id="p052359af31">
   <rect height="288" width="432" x="30.103125" y="7.2"/>
  </clipPath>
 </defs>
</svg>
