<?xml version="1.0" encoding="utf-8" standalone="no"?>
<!DOCTYPE svg PUBLIC "-//W3C//DTD SVG 1.1//EN"
  "http://www.w3.org/Graphics/SVG/1.1/DTD/svg11.dtd">
<!-- Created with matplotlib (http://matplotlib.org/) -->
<svg height="251.730625pt" version="1.1" viewBox="0 0 372.296875 251.730625" width="372.296875pt" xmlns="http://www.w3.org/2000/svg" xmlns:xlink="http://www.w3.org/1999/xlink">
 <defs>
  <style type="text/css">
*{stroke-linecap:butt;stroke-linejoin:round;}
  </style>
 </defs>
 <g id="figure_1">
  <g id="patch_1">
   <path d="M 0 251.730625 
L 372.296875 251.730625 
L 372.296875 0 
L 0 0 
z
" style="fill:none;"/>
  </g>
  <g id="axes_1">
   <g id="patch_2">
    <path d="M 26.796875 228.14 
L 361.596875 228.14 
L 361.596875 10.7 
L 26.796875 10.7 
z
" style="fill:#ffffff;"/>
   </g>
   <g id="patch_3">
    <path clip-path="url(#p648d50d536)" d="M 42.015057 228.14 
L 66.861068 228.14 
L 66.861068 21.054286 
L 42.015057 21.054286 
z
" style="fill:#1f77b4;"/>
   </g>
   <g id="patch_4">
    <path clip-path="url(#p648d50d536)" d="M 73.072571 228.14 
L 97.918582 228.14 
L 97.918582 21.054286 
L 73.072571 21.054286 
z
" style="fill:#1f77b4;"/>
   </g>
   <g id="patch_5">
    <path clip-path="url(#p648d50d536)" d="M 104.130085 228.14 
L 128.976096 228.14 
L 128.976096 38.028525 
L 104.130085 38.028525 
z
" style="fill:#1f77b4;"/>
   </g>
   <g id="patch_6">
    <path clip-path="url(#p648d50d536)" d="M 135.187599 228.14 
L 160.03361 228.14 
L 160.03361 92.346089 
L 135.187599 92.346089 
z
" style="fill:#1f77b4;"/>
   </g>
   <g id="patch_7">
    <path clip-path="url(#p648d50d536)" d="M 166.245112 228.14 
L 191.091124 228.14 
L 191.091124 95.740937 
L 166.245112 95.740937 
z
" style="fill:#1f77b4;"/>
   </g>
   <g id="patch_8">
    <path clip-path="url(#p648d50d536)" d="M 197.302626 228.14 
L 222.148638 228.14 
L 222.148638 109.320328 
L 197.302626 109.320328 
z
" style="fill:#1f77b4;"/>
   </g>
   <g id="patch_9">
    <path clip-path="url(#p648d50d536)" d="M 228.36014 228.14 
L 253.206151 228.14 
L 253.206151 146.663653 
L 228.36014 146.663653 
z
" style="fill:#1f77b4;"/>
   </g>
   <g id="patch_10">
    <path clip-path="url(#p648d50d536)" d="M 259.417654 228.14 
L 284.263665 228.14 
L 284.263665 153.453349 
L 259.417654 153.453349 
z
" style="fill:#1f77b4;"/>
   </g>
   <g id="patch_11">
    <path clip-path="url(#p648d50d536)" d="M 290.475168 228.14 
L 315.321179 228.14 
L 315.321179 163.637892 
L 290.475168 163.637892 
z
" style="fill:#1f77b4;"/>
   </g>
   <g id="patch_12">
    <path clip-path="url(#p648d50d536)" d="M 321.532682 228.14 
L 346.378693 228.14 
L 346.378693 170.427588 
L 321.532682 170.427588 
z
" style="fill:#1f77b4;"/>
   </g>
   <g id="matplotlib.axis_1">
    <g id="xtick_1">
     <g id="line2d_1">
      <defs>
       <path d="M 0 0 
L 0 3.5 
" id="m91b53450ee" style="stroke:#000000;stroke-width:0.8;"/>
      </defs>
      <g>
       <use style="stroke:#000000;stroke-width:0.8;" x="54.438062" xlink:href="#m91b53450ee" y="228.14"/>
      </g>
     </g>
     <g id="text_1">
      <!-- 事 -->
      <defs>
       <path d="M 46.09375 61.28125 
L 46.09375 67.09375 
L 7.46875 67.09375 
L 7.46875 72.796875 
L 46.09375 72.796875 
L 46.09375 83.015625 
L 53.171875 83.015625 
L 53.171875 72.796875 
L 92.484375 72.796875 
L 92.484375 67.09375 
L 53.171875 67.09375 
L 53.171875 61.28125 
L 81.78125 61.28125 
L 81.78125 44.09375 
L 53.171875 44.09375 
L 53.171875 38.28125 
L 83.203125 38.28125 
L 83.203125 27.484375 
L 95.015625 27.484375 
L 95.015625 21.578125 
L 83.203125 21.578125 
L 83.203125 6.203125 
L 76.265625 6.203125 
L 76.265625 10.5 
L 53.171875 10.5 
L 53.171875 0.09375 
Q 53.171875 -4.109375 51.078125 -5.5625 
Q 49.21875 -6.890625 44.390625 -6.890625 
Q 39.015625 -6.890625 33.0625 -6.296875 
L 31.890625 0.875 
Q 38.28125 -0.390625 42.671875 -0.390625 
Q 46.09375 -0.390625 46.09375 2.484375 
L 46.09375 10.5 
L 13.1875 10.5 
L 13.1875 16.015625 
L 46.09375 16.015625 
L 46.09375 21.78125 
L 4.984375 21.78125 
L 4.984375 27.296875 
L 46.09375 27.296875 
L 46.09375 32.765625 
L 13.09375 32.765625 
L 13.09375 38.28125 
L 46.09375 38.28125 
L 46.09375 44.09375 
L 18.0625 44.09375 
L 18.0625 61.28125 
z
M 46.09375 56.109375 
L 24.75 56.109375 
L 24.75 49.421875 
L 46.09375 49.421875 
z
M 53.171875 56.109375 
L 53.171875 49.421875 
L 75.09375 49.421875 
L 75.09375 56.109375 
z
M 53.171875 16.015625 
L 76.265625 16.015625 
L 76.265625 21.78125 
L 53.171875 21.78125 
z
M 53.171875 27.296875 
L 76.265625 27.296875 
L 76.265625 32.765625 
L 53.171875 32.765625 
z
" id="IPAexGothic-4e8b"/>
      </defs>
      <g transform="translate(49.438062 242.630625)scale(0.1 -0.1)">
       <use xlink:href="#IPAexGothic-4e8b"/>
      </g>
     </g>
    </g>
    <g id="xtick_2">
     <g id="line2d_2">
      <g>
       <use style="stroke:#000000;stroke-width:0.8;" x="85.495576" xlink:href="#m91b53450ee" y="228.14"/>
      </g>
     </g>
     <g id="text_2">
      <!-- 吾輩 -->
      <defs>
       <path d="M 45.5625 71.6875 
L 42.96875 60.59375 
L 76.8125 60.59375 
L 76.8125 40.484375 
L 93.890625 40.484375 
L 93.890625 34.28125 
L 6 34.28125 
L 6 40.484375 
L 30.671875 40.484375 
L 34.078125 54.59375 
L 15.96875 54.59375 
L 15.96875 60.59375 
L 35.5 60.59375 
L 38.09375 71.6875 
L 11.375 71.6875 
L 11.375 77.875 
L 88.53125 77.875 
L 88.53125 71.6875 
z
M 69.484375 54.59375 
L 41.609375 54.59375 
L 38.28125 40.484375 
L 69.484375 40.484375 
z
M 81.59375 25.296875 
L 81.59375 -6.984375 
L 74.171875 -6.984375 
L 74.171875 -1.90625 
L 25.53125 -1.90625 
L 25.53125 -6.984375 
L 18.015625 -6.984375 
L 18.015625 25.296875 
z
M 25.53125 19.28125 
L 25.53125 4.203125 
L 74.171875 4.203125 
L 74.171875 19.28125 
z
" id="IPAexGothic-543e"/>
       <path d="M 46.390625 33.203125 
L 46.390625 37.40625 
L 7.5625 37.40625 
L 7.5625 42.828125 
L 46.390625 42.828125 
L 46.390625 48.96875 
L 52.875 48.96875 
L 52.875 42.828125 
L 92.484375 42.828125 
L 92.484375 37.40625 
L 52.875 37.40625 
L 52.875 33.203125 
L 83.890625 33.203125 
L 83.890625 11.1875 
L 52.875 11.1875 
L 52.875 6.84375 
L 94.96875 6.84375 
L 94.96875 1.421875 
L 52.875 1.421875 
L 52.875 -6.984375 
L 46.390625 -6.984375 
L 46.390625 1.421875 
L 4.984375 1.421875 
L 4.984375 6.84375 
L 46.390625 6.84375 
L 46.390625 11.1875 
L 15.875 11.1875 
L 15.875 33.203125 
z
M 46.390625 28.71875 
L 22.46875 28.71875 
L 22.46875 24.703125 
L 46.390625 24.703125 
z
M 52.875 28.71875 
L 52.875 24.703125 
L 77.296875 24.703125 
L 77.296875 28.71875 
z
M 46.390625 20.21875 
L 22.46875 20.21875 
L 22.46875 15.765625 
L 46.390625 15.765625 
z
M 52.875 20.21875 
L 52.875 15.765625 
L 77.296875 15.765625 
L 77.296875 20.21875 
z
M 34.578125 54.109375 
Q 22.125 51.3125 8.203125 49.703125 
L 5.90625 55.421875 
Q 24.609375 57.125 37.3125 59.515625 
Q 37.5 60.359375 37.703125 62.40625 
L 10.40625 62.40625 
L 10.40625 67.484375 
L 37.796875 67.484375 
L 37.796875 71.78125 
L 7.90625 71.78125 
L 7.90625 77.09375 
L 37.796875 77.09375 
L 37.796875 82.421875 
L 44.390625 82.421875 
L 44.390625 64.5 
Q 44.390625 48.578125 27.875 43.21875 
L 23.390625 47.703125 
Q 31.296875 50.203125 34.578125 54.109375 
z
M 63.484375 77.09375 
L 92.390625 77.09375 
L 92.390625 71.78125 
L 63.484375 71.78125 
L 63.484375 67.09375 
L 89.796875 67.09375 
L 89.796875 62.015625 
L 63.484375 62.015625 
L 63.484375 57.078125 
L 94.78125 57.078125 
L 94.78125 51.765625 
L 63.484375 51.765625 
L 63.484375 45.453125 
L 56.890625 45.453125 
L 56.890625 83.015625 
L 63.484375 83.015625 
z
" id="IPAexGothic-8f29"/>
      </defs>
      <g transform="translate(75.495576 242.630625)scale(0.1 -0.1)">
       <use xlink:href="#IPAexGothic-543e"/>
       <use x="100" xlink:href="#IPAexGothic-8f29"/>
      </g>
     </g>
    </g>
    <g id="xtick_3">
     <g id="line2d_3">
      <g>
       <use style="stroke:#000000;stroke-width:0.8;" x="116.55309" xlink:href="#m91b53450ee" y="228.14"/>
      </g>
     </g>
     <g id="text_3">
      <!-- の -->
      <defs>
       <path d="M 48.734375 7.328125 
Q 82.421875 11.96875 82.421875 37.890625 
Q 82.421875 53.953125 68.953125 61.328125 
Q 63.140625 64.3125 55.421875 64.984375 
Q 53.03125 39.453125 44.53125 21.875 
Q 36.28125 4.78125 26.90625 4.78125 
Q 21.625 4.78125 16.9375 10.40625 
Q 9.515625 19.4375 9.515625 31.296875 
Q 9.515625 47.265625 21.828125 59.28125 
Q 34.125 71.296875 53.609375 71.296875 
Q 67.28125 71.296875 77 64.40625 
Q 90.828125 54.78125 90.828125 37.890625 
Q 90.828125 6.84375 53.609375 0.09375 
z
M 47.703125 64.796875 
Q 37.15625 63.1875 29.546875 56.890625 
Q 17.140625 46.578125 17.140625 31.109375 
Q 17.140625 21.34375 22.40625 15.28125 
Q 24.703125 12.703125 26.859375 12.703125 
Q 31.59375 12.703125 37.75 25.390625 
Q 45.453125 41.21875 47.703125 64.796875 
z
" id="IPAexGothic-306e"/>
      </defs>
      <g transform="translate(111.55309 242.630625)scale(0.1 -0.1)">
       <use xlink:href="#IPAexGothic-306e"/>
      </g>
     </g>
    </g>
    <g id="xtick_4">
     <g id="line2d_4">
      <g>
       <use style="stroke:#000000;stroke-width:0.8;" x="147.610604" xlink:href="#m91b53450ee" y="228.14"/>
      </g>
     </g>
     <g id="text_4">
      <!-- 人間 -->
      <defs>
       <path d="M 53.65625 79.390625 
L 53.65625 72.796875 
Q 53.65625 48.921875 63.28125 32.328125 
Q 72.953125 15.53125 94.09375 4.296875 
L 88.1875 -3.078125 
Q 68.109375 9.1875 56.890625 29.109375 
Q 53.03125 35.9375 50.390625 47.015625 
Q 44.09375 11.96875 12.796875 -5.078125 
L 6.890625 1.515625 
Q 29 11.859375 38.09375 30.8125 
Q 45.609375 46.234375 45.609375 72.40625 
L 45.609375 79.390625 
z
" id="IPAexGothic-4eba"/>
       <path d="M 69.53125 40.09375 
L 69.53125 5.515625 
L 37.109375 5.515625 
L 37.109375 -0.390625 
L 30.515625 -0.390625 
L 30.515625 40.09375 
z
M 62.9375 34.375 
L 37.109375 34.375 
L 37.109375 25.828125 
L 62.9375 25.828125 
z
M 62.9375 20.3125 
L 37.109375 20.3125 
L 37.109375 11.234375 
L 62.9375 11.234375 
z
M 45.515625 78.421875 
L 45.515625 47.796875 
L 16.5 47.796875 
L 16.5 -6.984375 
L 9.515625 -6.984375 
L 9.515625 78.421875 
z
M 16.5 72.796875 
L 16.5 65.71875 
L 39.015625 65.71875 
L 39.015625 72.796875 
z
M 16.5 60.640625 
L 16.5 53.328125 
L 39.015625 53.328125 
L 39.015625 60.640625 
z
M 90.4375 78.421875 
L 90.4375 1.421875 
Q 90.4375 -3.515625 88.140625 -5.171875 
Q 86.328125 -6.390625 81.734375 -6.390625 
Q 75.046875 -6.390625 70.015625 -5.71875 
L 69.046875 1.515625 
Q 75.828125 0.59375 80.125 0.59375 
Q 83.453125 0.59375 83.453125 3.8125 
L 83.453125 47.796875 
L 53.71875 47.796875 
L 53.71875 78.421875 
z
M 60.203125 72.796875 
L 60.203125 65.71875 
L 83.453125 65.71875 
L 83.453125 72.796875 
z
M 60.203125 60.640625 
L 60.203125 53.328125 
L 83.453125 53.328125 
L 83.453125 60.640625 
z
" id="IPAexGothic-9593"/>
      </defs>
      <g transform="translate(137.610604 242.630625)scale(0.1 -0.1)">
       <use xlink:href="#IPAexGothic-4eba"/>
       <use x="100" xlink:href="#IPAexGothic-9593"/>
      </g>
     </g>
    </g>
    <g id="xtick_5">
     <g id="line2d_5">
      <g>
       <use style="stroke:#000000;stroke-width:0.8;" x="178.668118" xlink:href="#m91b53450ee" y="228.14"/>
      </g>
     </g>
     <g id="text_5">
      <!-- もの -->
      <defs>
       <path d="M 15.578125 61.71875 
Q 25.34375 60.0625 35.984375 59.625 
L 38.921875 79 
L 46.6875 77.875 
Q 44.875 68.171875 43.703125 59.625 
Q 54.296875 59.71875 66.3125 61.53125 
L 66.3125 54.59375 
Q 57.171875 53.03125 42.671875 52.6875 
Q 42.1875 48.921875 40.671875 37.203125 
Q 50.984375 37.203125 62.984375 39.203125 
L 62.984375 32.171875 
Q 52.484375 30.421875 39.59375 30.421875 
Q 38.625 22.609375 38.625 19 
Q 38.625 2.984375 56.390625 2.984375 
Q 75.484375 2.984375 75.484375 18.171875 
Q 75.484375 24.953125 70.3125 33.296875 
L 78.171875 34.078125 
Q 83.40625 25.59375 83.40625 18.015625 
Q 83.40625 7.375 75.296875 1.171875 
Q 68.3125 -4 56.390625 -4 
Q 31.296875 -4 31.296875 18.015625 
Q 31.296875 24.3125 32.171875 30.609375 
Q 21.4375 31.59375 15.828125 32.71875 
L 16.5 39.703125 
Q 24.703125 37.984375 33.203125 37.5 
L 35.109375 52.78125 
Q 24.21875 53.21875 14.703125 54.984375 
z
" id="IPAexGothic-3082"/>
      </defs>
      <g transform="translate(168.668118 242.630625)scale(0.1 -0.1)">
       <use xlink:href="#IPAexGothic-3082"/>
       <use x="100" xlink:href="#IPAexGothic-306e"/>
      </g>
     </g>
    </g>
    <g id="xtick_6">
     <g id="line2d_6">
      <g>
       <use style="stroke:#000000;stroke-width:0.8;" x="209.725632" xlink:href="#m91b53450ee" y="228.14"/>
      </g>
     </g>
     <g id="text_6">
      <!-- よう -->
      <defs>
       <path d="M 43.5 78.421875 
L 51.125 78.421875 
Q 50.734375 68.40625 51.125 56.984375 
Q 65.375 58.109375 75.78125 60.984375 
L 78.078125 53.609375 
Q 68.265625 51.421875 51.125 50 
Q 51.375 36.96875 52.78125 24.21875 
Q 64.59375 21.140625 83.5 10.109375 
L 78.609375 3.328125 
Q 66.3125 11.859375 53.21875 16.3125 
L 53.328125 13.921875 
Q 53.65625 5.609375 48.78125 1.3125 
Q 44.734375 -2.203125 35.5 -2.203125 
Q 25.640625 -2.203125 19.875 1.8125 
Q 14.59375 5.46875 14.59375 11.53125 
Q 14.59375 20.21875 23.4375 23.96875 
Q 28.765625 26.21875 35.59375 26.21875 
Q 40.328125 26.21875 45.40625 25.484375 
Q 43.953125 39.984375 43.5 78.421875 
z
M 45.796875 18.40625 
Q 40.828125 19.4375 37.015625 19.4375 
Q 22.21875 19.4375 22.21875 12.40625 
Q 22.21875 4.6875 35.59375 4.6875 
Q 46.1875 4.6875 45.90625 14.59375 
z
" id="IPAexGothic-3088"/>
       <path d="M 60.890625 62.890625 
Q 50.046875 69.625 33.5 73.875 
L 37.203125 80.71875 
Q 52.390625 77 65.09375 70.015625 
z
M 18.3125 47.65625 
Q 44.875 56.6875 55.71875 56.6875 
Q 66.703125 56.6875 71.921875 49.703125 
Q 75.734375 44.53125 75.734375 35.203125 
Q 75.734375 5.8125 40.921875 -4.296875 
L 35.59375 2.484375 
Q 52.4375 6.203125 60.640625 15.53125 
Q 67.625 23.484375 67.625 34.8125 
Q 67.625 49.703125 55.21875 49.703125 
Q 45.453125 49.703125 21.828125 39.890625 
z
" id="IPAexGothic-3046"/>
      </defs>
      <g transform="translate(199.725632 242.630625)scale(0.1 -0.1)">
       <use xlink:href="#IPAexGothic-3088"/>
       <use x="100" xlink:href="#IPAexGothic-3046"/>
      </g>
     </g>
    </g>
    <g id="xtick_7">
     <g id="line2d_7">
      <g>
       <use style="stroke:#000000;stroke-width:0.8;" x="240.783146" xlink:href="#m91b53450ee" y="228.14"/>
      </g>
     </g>
     <g id="text_7">
      <!-- 主人 -->
      <defs>
       <path d="M 53.421875 54.390625 
L 53.421875 34.1875 
L 84.515625 34.1875 
L 84.515625 27.59375 
L 53.421875 27.59375 
L 53.421875 3.609375 
L 92.53125 3.609375 
L 92.53125 -3.078125 
L 7.421875 -3.078125 
L 7.421875 3.609375 
L 45.796875 3.609375 
L 45.796875 27.59375 
L 15.375 27.59375 
L 15.375 34.1875 
L 45.796875 34.1875 
L 45.796875 54.390625 
L 10.984375 54.390625 
L 10.984375 61.078125 
L 89.015625 61.078125 
L 89.015625 54.390625 
z
M 52.25 62.984375 
Q 43.5625 70.21875 30.515625 77.09375 
L 36.921875 81.984375 
Q 47.90625 76.421875 58.640625 68.109375 
z
" id="IPAexGothic-4e3b"/>
      </defs>
      <g transform="translate(230.783146 242.630625)scale(0.1 -0.1)">
       <use xlink:href="#IPAexGothic-4e3b"/>
       <use x="100" xlink:href="#IPAexGothic-4eba"/>
      </g>
     </g>
    </g>
    <g id="xtick_8">
     <g id="line2d_8">
      <g>
       <use style="stroke:#000000;stroke-width:0.8;" x="271.84066" xlink:href="#m91b53450ee" y="228.14"/>
      </g>
     </g>
     <g id="text_8">
      <!-- 一 -->
      <defs>
       <path d="M 8.015625 44.484375 
L 91.890625 44.484375 
L 91.890625 36.375 
L 8.015625 36.375 
z
" id="IPAexGothic-4e00"/>
      </defs>
      <g transform="translate(266.84066 242.630625)scale(0.1 -0.1)">
       <use xlink:href="#IPAexGothic-4e00"/>
      </g>
     </g>
    </g>
    <g id="xtick_9">
     <g id="line2d_9">
      <g>
       <use style="stroke:#000000;stroke-width:0.8;" x="302.898174" xlink:href="#m91b53450ee" y="228.14"/>
      </g>
     </g>
     <g id="text_9">
      <!-- 人 -->
      <g transform="translate(297.898174 242.630625)scale(0.1 -0.1)">
       <use xlink:href="#IPAexGothic-4eba"/>
      </g>
     </g>
    </g>
    <g id="xtick_10">
     <g id="line2d_10">
      <g>
       <use style="stroke:#000000;stroke-width:0.8;" x="333.955688" xlink:href="#m91b53450ee" y="228.14"/>
      </g>
     </g>
     <g id="text_10">
      <!-- 二 -->
      <defs>
       <path d="M 15.53125 67.671875 
L 84.421875 67.671875 
L 84.421875 59.96875 
L 15.53125 59.96875 
z
M 8.015625 13.421875 
L 91.890625 13.421875 
L 91.890625 5.609375 
L 8.015625 5.609375 
z
" id="IPAexGothic-4e8c"/>
      </defs>
      <g transform="translate(328.955688 242.630625)scale(0.1 -0.1)">
       <use xlink:href="#IPAexGothic-4e8c"/>
      </g>
     </g>
    </g>
   </g>
   <g id="matplotlib.axis_2">
    <g id="ytick_1">
     <g id="line2d_11">
      <defs>
       <path d="M 0 0 
L -3.5 0 
" id="me4f4776ed6" style="stroke:#000000;stroke-width:0.8;"/>
      </defs>
      <g>
       <use style="stroke:#000000;stroke-width:0.8;" x="26.796875" xlink:href="#me4f4776ed6" y="228.14"/>
      </g>
     </g>
     <g id="text_11">
      <!-- 0 -->
      <defs>
       <path d="M 31.84375 73.828125 
Q 45.015625 73.828125 52.09375 61.625 
Q 57.71875 51.953125 57.71875 36.625 
Q 57.71875 21.4375 52.09375 11.578125 
Q 45.125 -0.484375 31.5 -0.484375 
Q 17.921875 -0.484375 10.9375 11.578125 
Q 5.328125 21.4375 5.328125 36.71875 
Q 5.328125 58.015625 15.625 67.71875 
Q 22.171875 73.828125 31.84375 73.828125 
z
M 31.5 66.65625 
Q 23.6875 66.65625 19.1875 58.734375 
Q 14.59375 50.734375 14.59375 36.625 
Q 14.59375 22.75 19.09375 14.796875 
Q 23.640625 6.984375 31.5 6.984375 
Q 40.921875 6.984375 45.453125 18.015625 
Q 48.4375 25.34375 48.4375 37.109375 
Q 48.4375 50.875 43.84375 58.734375 
Q 39.203125 66.65625 31.5 66.65625 
z
" id="IPAexGothic-30"/>
      </defs>
      <g transform="translate(13.498437 231.885312)scale(0.1 -0.1)">
       <use xlink:href="#IPAexGothic-30"/>
      </g>
     </g>
    </g>
    <g id="ytick_2">
     <g id="line2d_12">
      <g>
       <use style="stroke:#000000;stroke-width:0.8;" x="26.796875" xlink:href="#me4f4776ed6" y="194.191522"/>
      </g>
     </g>
     <g id="text_12">
      <!-- 10 -->
      <defs>
       <path d="M 38.484375 0.984375 
L 29.6875 0.984375 
L 29.6875 64.109375 
Q 21.4375 61.28125 12.3125 59.328125 
L 10.6875 66.109375 
Q 23.734375 69.390625 32.90625 73.921875 
L 38.484375 73.921875 
z
" id="IPAexGothic-31"/>
      </defs>
      <g transform="translate(7.2 197.936835)scale(0.1 -0.1)">
       <use xlink:href="#IPAexGothic-31"/>
       <use x="62.988281" xlink:href="#IPAexGothic-30"/>
      </g>
     </g>
    </g>
    <g id="ytick_3">
     <g id="line2d_13">
      <g>
       <use style="stroke:#000000;stroke-width:0.8;" x="26.796875" xlink:href="#me4f4776ed6" y="160.243044"/>
      </g>
     </g>
     <g id="text_13">
      <!-- 20 -->
      <defs>
       <path d="M 57.171875 0.984375 
L 6.984375 0.984375 
L 6.984375 9.28125 
Q 12.890625 23.046875 29.59375 34.421875 
L 32.375 36.28125 
Q 40.921875 42.140625 43.609375 45.40625 
Q 46.6875 49.265625 46.6875 53.8125 
Q 46.6875 58.9375 43.0625 62.546875 
Q 39.0625 66.546875 32.5625 66.546875 
Q 19.53125 66.546875 15.484375 52 
L 7.765625 54.78125 
Q 13.328125 73.828125 33.0625 73.828125 
Q 43.84375 73.828125 50.25 67.4375 
Q 55.859375 61.671875 55.859375 53.515625 
Q 55.859375 47.46875 52.25 42.53125 
Q 48.921875 37.75 36.96875 30.28125 
L 34.859375 29 
Q 19.625 19.578125 15.28125 8.890625 
L 57.171875 8.890625 
z
" id="IPAexGothic-32"/>
      </defs>
      <g transform="translate(7.2 163.988357)scale(0.1 -0.1)">
       <use xlink:href="#IPAexGothic-32"/>
       <use x="62.988281" xlink:href="#IPAexGothic-30"/>
      </g>
     </g>
    </g>
    <g id="ytick_4">
     <g id="line2d_14">
      <g>
       <use style="stroke:#000000;stroke-width:0.8;" x="26.796875" xlink:href="#me4f4776ed6" y="126.294567"/>
      </g>
     </g>
     <g id="text_14">
      <!-- 30 -->
      <defs>
       <path d="M 37.203125 37.796875 
Q 54.78125 34.625 54.78125 19.96875 
Q 54.78125 11.1875 48.875 5.5625 
Q 42.328125 -0.484375 30.375 -0.484375 
Q 12.453125 -0.484375 4.5 13.765625 
L 11.8125 17.671875 
Q 17.328125 6.890625 30.28125 6.890625 
Q 37.890625 6.890625 42.09375 10.796875 
Q 46.09375 14.5 46.09375 20.171875 
Q 46.09375 26.859375 40.09375 30.90625 
Q 34.625 34.578125 25.6875 34.578125 
L 21.296875 34.578125 
L 21.296875 41.703125 
L 25.875 41.703125 
Q 34.859375 41.703125 39.59375 45.125 
Q 44.671875 48.734375 44.671875 54.828125 
Q 44.671875 61.46875 38.96875 64.65625 
Q 35.296875 66.84375 30.171875 66.84375 
Q 19.34375 66.84375 14.109375 55.90625 
L 6.78125 59.421875 
Q 14.015625 73.828125 30.28125 73.828125 
Q 40.578125 73.828125 46.96875 68.65625 
Q 53.375 63.578125 53.375 55.21875 
Q 53.375 47.3125 47.171875 42.28125 
Q 43.171875 39.0625 37.203125 38.1875 
z
" id="IPAexGothic-33"/>
      </defs>
      <g transform="translate(7.2 130.039879)scale(0.1 -0.1)">
       <use xlink:href="#IPAexGothic-33"/>
       <use x="62.988281" xlink:href="#IPAexGothic-30"/>
      </g>
     </g>
    </g>
    <g id="ytick_5">
     <g id="line2d_15">
      <g>
       <use style="stroke:#000000;stroke-width:0.8;" x="26.796875" xlink:href="#me4f4776ed6" y="92.346089"/>
      </g>
     </g>
     <g id="text_15">
      <!-- 40 -->
      <defs>
       <path d="M 59.578125 18.109375 
L 47.796875 18.109375 
L 47.796875 0.984375 
L 39.796875 0.984375 
L 39.796875 18.109375 
L 3.078125 18.109375 
L 3.078125 26.125 
L 38.375 73.09375 
L 47.796875 73.09375 
L 47.796875 25.53125 
L 59.578125 25.53125 
z
M 40.28125 64.203125 
L 39.984375 64.203125 
Q 35.59375 57.125 31.296875 51.3125 
L 11.859375 25.53125 
L 39.796875 25.53125 
L 39.796875 49.125 
Q 39.796875 54.390625 40.28125 64.203125 
z
" id="IPAexGothic-34"/>
      </defs>
      <g transform="translate(7.2 96.091401)scale(0.1 -0.1)">
       <use xlink:href="#IPAexGothic-34"/>
       <use x="62.988281" xlink:href="#IPAexGothic-30"/>
      </g>
     </g>
    </g>
    <g id="ytick_6">
     <g id="line2d_16">
      <g>
       <use style="stroke:#000000;stroke-width:0.8;" x="26.796875" xlink:href="#me4f4776ed6" y="58.397611"/>
      </g>
     </g>
     <g id="text_16">
      <!-- 50 -->
      <defs>
       <path d="M 18.40625 40.671875 
Q 25.53125 46.296875 33.9375 46.296875 
Q 44 46.296875 50.640625 39.5 
Q 56.84375 33.015625 56.84375 23.390625 
Q 56.84375 14.65625 51.515625 8.015625 
Q 44.828125 -0.484375 31.734375 -0.484375 
Q 14.984375 -0.484375 7.328125 12.25 
L 14.65625 16.0625 
Q 20.453125 6.78125 31.453125 6.78125 
Q 38.53125 6.78125 43.265625 11.1875 
Q 48.140625 15.828125 48.140625 23.484375 
Q 48.140625 30.71875 43.84375 35.015625 
Q 39.359375 39.5 32.125 39.5 
Q 21.96875 39.5 16.75 31.6875 
L 9.234375 32.671875 
L 13.8125 72.40625 
L 53.21875 72.40625 
L 53.21875 64.890625 
L 20.953125 64.890625 
L 17.71875 40.671875 
z
" id="IPAexGothic-35"/>
      </defs>
      <g transform="translate(7.2 62.142924)scale(0.1 -0.1)">
       <use xlink:href="#IPAexGothic-35"/>
       <use x="62.988281" xlink:href="#IPAexGothic-30"/>
      </g>
     </g>
    </g>
    <g id="ytick_7">
     <g id="line2d_17">
      <g>
       <use style="stroke:#000000;stroke-width:0.8;" x="26.796875" xlink:href="#me4f4776ed6" y="24.449133"/>
      </g>
     </g>
     <g id="text_17">
      <!-- 60 -->
      <defs>
       <path d="M 16.5 36.375 
Q 23.578125 46.578125 34.90625 46.578125 
Q 45.40625 46.578125 51.8125 39.265625 
Q 57.421875 32.90625 57.421875 23.78125 
Q 57.421875 13.8125 51.125 6.78125 
Q 44.578125 -0.484375 34.03125 -0.484375 
Q 21.484375 -0.484375 14.40625 9.078125 
Q 7.515625 18.40625 7.515625 34.8125 
Q 7.515625 53.515625 15.828125 64.203125 
Q 23.34375 73.828125 35.5 73.828125 
Q 49.859375 73.828125 56.390625 62.890625 
L 49.21875 58.984375 
Q 45.21875 66.65625 35.9375 66.65625 
Q 17.484375 66.65625 16.109375 36.375 
z
M 33.453125 39.796875 
Q 26.3125 39.796875 21.625 34.46875 
Q 17.4375 29.6875 17.4375 24.078125 
Q 17.4375 18.0625 21.140625 13.1875 
Q 26.125 6.6875 33.734375 6.6875 
Q 41.703125 6.6875 45.953125 13.1875 
Q 48.828125 17.625 48.828125 23.484375 
Q 48.828125 30.375 45.015625 34.8125 
Q 40.625 39.796875 33.453125 39.796875 
z
" id="IPAexGothic-36"/>
      </defs>
      <g transform="translate(7.2 28.194446)scale(0.1 -0.1)">
       <use xlink:href="#IPAexGothic-36"/>
       <use x="62.988281" xlink:href="#IPAexGothic-30"/>
      </g>
     </g>
    </g>
   </g>
   <g id="patch_13">
    <path d="M 26.796875 228.14 
L 26.796875 10.7 
" style="fill:none;stroke:#000000;stroke-linecap:square;stroke-linejoin:miter;stroke-width:0.8;"/>
   </g>
   <g id="patch_14">
    <path d="M 361.596875 228.14 
L 361.596875 10.7 
" style="fill:none;stroke:#000000;stroke-linecap:square;stroke-linejoin:miter;stroke-width:0.8;"/>
   </g>
   <g id="patch_15">
    <path d="M 26.796875 228.14 
L 361.596875 228.14 
" style="fill:none;stroke:#000000;stroke-linecap:square;stroke-linejoin:miter;stroke-width:0.8;"/>
   </g>
   <g id="patch_16">
    <path d="M 26.796875 10.7 
L 361.596875 10.7 
" style="fill:none;stroke:#000000;stroke-linecap:square;stroke-linejoin:miter;stroke-width:0.8;"/>
   </g>
  </g>
 </g>
 <defs>
  <clipPath id="p648d50d536">
   <rect height="217.44" width="334.8" x="26.796875" y="10.7"/>
  </clipPath>
 </defs>
</svg>
