<?xml version="1.0" encoding="utf-8" standalone="no"?>
<!DOCTYPE svg PUBLIC "-//W3C//DTD SVG 1.1//EN"
  "http://www.w3.org/Graphics/SVG/1.1/DTD/svg11.dtd">
<!-- Created with matplotlib (http://matplotlib.org/) -->
<svg height="251.730625pt" version="1.1" viewBox="0 0 384.89375 251.730625" width="384.89375pt" xmlns="http://www.w3.org/2000/svg" xmlns:xlink="http://www.w3.org/1999/xlink">
 <defs>
  <style type="text/css">
*{stroke-linecap:butt;stroke-linejoin:round;}
  </style>
 </defs>
 <g id="figure_1">
  <g id="patch_1">
   <path d="M 0 251.730625 
L 384.89375 251.730625 
L 384.89375 0 
L 0 0 
z
" style="fill:none;"/>
  </g>
  <g id="axes_1">
   <g id="patch_2">
    <path d="M 39.39375 228.14 
L 374.19375 228.14 
L 374.19375 10.7 
L 39.39375 10.7 
z
" style="fill:#ffffff;"/>
   </g>
   <g id="patch_3">
    <path clip-path="url(#p867a51a8d8)" d="M 54.611932 228.14 
L 79.457943 228.14 
L 79.457943 21.054286 
L 54.611932 21.054286 
z
" style="fill:#1f77b4;"/>
   </g>
   <g id="patch_4">
    <path clip-path="url(#p867a51a8d8)" d="M 85.669446 228.14 
L 110.515457 228.14 
L 110.515457 80.848571 
L 85.669446 80.848571 
z
" style="fill:#1f77b4;"/>
   </g>
   <g id="patch_5">
    <path clip-path="url(#p867a51a8d8)" d="M 116.72696 228.14 
L 141.572971 228.14 
L 141.572971 113.762857 
L 116.72696 113.762857 
z
" style="fill:#1f77b4;"/>
   </g>
   <g id="patch_6">
    <path clip-path="url(#p867a51a8d8)" d="M 147.784474 228.14 
L 172.630485 228.14 
L 172.630485 117.785714 
L 147.784474 117.785714 
z
" style="fill:#1f77b4;"/>
   </g>
   <g id="patch_7">
    <path clip-path="url(#p867a51a8d8)" d="M 178.841987 228.14 
L 203.687999 228.14 
L 203.687999 136.894286 
L 178.841987 136.894286 
z
" style="fill:#1f77b4;"/>
   </g>
   <g id="patch_8">
    <path clip-path="url(#p867a51a8d8)" d="M 209.899501 228.14 
L 234.745513 228.14 
L 234.745513 138.448571 
L 209.899501 138.448571 
z
" style="fill:#1f77b4;"/>
   </g>
   <g id="patch_9">
    <path clip-path="url(#p867a51a8d8)" d="M 240.957015 228.14 
L 265.803026 228.14 
L 265.803026 139.18 
L 240.957015 139.18 
z
" style="fill:#1f77b4;"/>
   </g>
   <g id="patch_10">
    <path clip-path="url(#p867a51a8d8)" d="M 272.014529 228.14 
L 296.86054 228.14 
L 296.86054 142.471429 
L 272.014529 142.471429 
z
" style="fill:#1f77b4;"/>
   </g>
   <g id="patch_11">
    <path clip-path="url(#p867a51a8d8)" d="M 303.072043 228.14 
L 327.918054 228.14 
L 327.918054 142.928571 
L 303.072043 142.928571 
z
" style="fill:#1f77b4;"/>
   </g>
   <g id="patch_12">
    <path clip-path="url(#p867a51a8d8)" d="M 334.129557 228.14 
L 358.975568 228.14 
L 358.975568 158.197143 
L 334.129557 158.197143 
z
" style="fill:#1f77b4;"/>
   </g>
   <g id="matplotlib.axis_1">
    <g id="xtick_1">
     <g id="line2d_1">
      <defs>
       <path d="M 0 0 
L 0 3.5 
" id="ma91772d236" style="stroke:#000000;stroke-width:0.8;"/>
      </defs>
      <g>
       <use style="stroke:#000000;stroke-width:0.8;" x="67.034937" xlink:href="#ma91772d236" y="228.14"/>
      </g>
     </g>
     <g id="text_1">
      <!-- し -->
      <defs>
       <path d="M 27.34375 76.3125 
L 35.640625 76.3125 
L 34.96875 20.609375 
Q 34.8125 12.640625 37.359375 8.890625 
Q 40.53125 4.390625 48.875 4.390625 
Q 58.9375 4.390625 67.875 11.625 
Q 75.34375 17.671875 80.5625 27.484375 
L 86.46875 21.390625 
Q 79.59375 10.203125 70.84375 4.109375 
Q 60.59375 -3.21875 48.96875 -3.21875 
Q 36.578125 -3.21875 31.15625 3.328125 
Q 26.515625 8.984375 26.65625 19.828125 
z
" id="IPAexGothic-3057"/>
      </defs>
      <g transform="translate(62.034937 242.630625)scale(0.1 -0.1)">
       <use xlink:href="#IPAexGothic-3057"/>
      </g>
     </g>
    </g>
    <g id="xtick_2">
     <g id="line2d_2">
      <g>
       <use style="stroke:#000000;stroke-width:0.8;" x="98.092451" xlink:href="#ma91772d236" y="228.14"/>
      </g>
     </g>
     <g id="text_2">
      <!-- の -->
      <defs>
       <path d="M 48.734375 7.328125 
Q 82.421875 11.96875 82.421875 37.890625 
Q 82.421875 53.953125 68.953125 61.328125 
Q 63.140625 64.3125 55.421875 64.984375 
Q 53.03125 39.453125 44.53125 21.875 
Q 36.28125 4.78125 26.90625 4.78125 
Q 21.625 4.78125 16.9375 10.40625 
Q 9.515625 19.4375 9.515625 31.296875 
Q 9.515625 47.265625 21.828125 59.28125 
Q 34.125 71.296875 53.609375 71.296875 
Q 67.28125 71.296875 77 64.40625 
Q 90.828125 54.78125 90.828125 37.890625 
Q 90.828125 6.84375 53.609375 0.09375 
z
M 47.703125 64.796875 
Q 37.15625 63.1875 29.546875 56.890625 
Q 17.140625 46.578125 17.140625 31.109375 
Q 17.140625 21.34375 22.40625 15.28125 
Q 24.703125 12.703125 26.859375 12.703125 
Q 31.59375 12.703125 37.75 25.390625 
Q 45.453125 41.21875 47.703125 64.796875 
z
" id="IPAexGothic-306e"/>
      </defs>
      <g transform="translate(93.092451 242.630625)scale(0.1 -0.1)">
       <use xlink:href="#IPAexGothic-306e"/>
      </g>
     </g>
    </g>
    <g id="xtick_3">
     <g id="line2d_3">
      <g>
       <use style="stroke:#000000;stroke-width:0.8;" x="129.149965" xlink:href="#ma91772d236" y="228.14"/>
      </g>
     </g>
     <g id="text_3">
      <!-- いる -->
      <defs>
       <path d="M 52.640625 22.609375 
Q 45.40625 1.90625 35.59375 1.90625 
Q 30.71875 1.90625 25.734375 7.515625 
Q 18.890625 15.09375 16.3125 30.71875 
Q 13.921875 45.125 13.921875 67.390625 
L 22.21875 67.390625 
Q 22.078125 38.1875 26.03125 24.21875 
Q 29.890625 10.59375 35.59375 10.59375 
Q 40.921875 10.59375 45.703125 27.984375 
z
M 84.03125 20.21875 
Q 77 43.703125 63.03125 59.515625 
L 70.125 62.984375 
Q 83.984375 46.875 91.890625 24.421875 
z
" id="IPAexGothic-3044"/>
       <path d="M 68.609375 68.703125 
L 40.828125 40.4375 
Q 50.390625 43.890625 58.734375 43.890625 
Q 66.609375 43.890625 72.796875 41.015625 
Q 84.234375 35.453125 84.234375 23.1875 
Q 84.234375 11.8125 73.53125 4.296875 
Q 63.625 -2.59375 47.703125 -2.59375 
Q 39.984375 -2.59375 35.109375 0.296875 
Q 29.109375 3.90625 29.109375 10.40625 
Q 29.109375 14.59375 32.328125 17.828125 
Q 36.421875 21.921875 42.828125 21.921875 
Q 54.828125 21.921875 62.796875 6.6875 
Q 76.125 12.25 76.125 23.296875 
Q 76.125 30.953125 69.828125 34.71875 
Q 65.09375 37.59375 57.515625 37.59375 
Q 37.890625 37.59375 19.34375 18.890625 
L 13.921875 24.703125 
Q 38.09375 45.84375 55.90625 66.890625 
Q 40.53125 64.453125 24.8125 63.53125 
L 23.09375 71.09375 
Q 40.53125 71.578125 64.203125 74.421875 
z
M 56.109375 4.734375 
Q 50.6875 16.015625 42.671875 16.015625 
Q 39.890625 16.015625 38.03125 14.59375 
Q 36.1875 13.1875 36.1875 10.9375 
Q 36.1875 3.90625 47.40625 3.90625 
Q 51.171875 3.90625 56.109375 4.734375 
z
" id="IPAexGothic-308b"/>
      </defs>
      <g transform="translate(119.149965 242.630625)scale(0.1 -0.1)">
       <use xlink:href="#IPAexGothic-3044"/>
       <use x="100" xlink:href="#IPAexGothic-308b"/>
      </g>
     </g>
    </g>
    <g id="xtick_4">
     <g id="line2d_4">
      <g>
       <use style="stroke:#000000;stroke-width:0.8;" x="160.207479" xlink:href="#ma91772d236" y="228.14"/>
      </g>
     </g>
     <g id="text_4">
      <!-- 事 -->
      <defs>
       <path d="M 46.09375 61.28125 
L 46.09375 67.09375 
L 7.46875 67.09375 
L 7.46875 72.796875 
L 46.09375 72.796875 
L 46.09375 83.015625 
L 53.171875 83.015625 
L 53.171875 72.796875 
L 92.484375 72.796875 
L 92.484375 67.09375 
L 53.171875 67.09375 
L 53.171875 61.28125 
L 81.78125 61.28125 
L 81.78125 44.09375 
L 53.171875 44.09375 
L 53.171875 38.28125 
L 83.203125 38.28125 
L 83.203125 27.484375 
L 95.015625 27.484375 
L 95.015625 21.578125 
L 83.203125 21.578125 
L 83.203125 6.203125 
L 76.265625 6.203125 
L 76.265625 10.5 
L 53.171875 10.5 
L 53.171875 0.09375 
Q 53.171875 -4.109375 51.078125 -5.5625 
Q 49.21875 -6.890625 44.390625 -6.890625 
Q 39.015625 -6.890625 33.0625 -6.296875 
L 31.890625 0.875 
Q 38.28125 -0.390625 42.671875 -0.390625 
Q 46.09375 -0.390625 46.09375 2.484375 
L 46.09375 10.5 
L 13.1875 10.5 
L 13.1875 16.015625 
L 46.09375 16.015625 
L 46.09375 21.78125 
L 4.984375 21.78125 
L 4.984375 27.296875 
L 46.09375 27.296875 
L 46.09375 32.765625 
L 13.09375 32.765625 
L 13.09375 38.28125 
L 46.09375 38.28125 
L 46.09375 44.09375 
L 18.0625 44.09375 
L 18.0625 61.28125 
z
M 46.09375 56.109375 
L 24.75 56.109375 
L 24.75 49.421875 
L 46.09375 49.421875 
z
M 53.171875 56.109375 
L 53.171875 49.421875 
L 75.09375 49.421875 
L 75.09375 56.109375 
z
M 53.171875 16.015625 
L 76.265625 16.015625 
L 76.265625 21.78125 
L 53.171875 21.78125 
z
M 53.171875 27.296875 
L 76.265625 27.296875 
L 76.265625 32.765625 
L 53.171875 32.765625 
z
" id="IPAexGothic-4e8b"/>
      </defs>
      <g transform="translate(155.207479 242.630625)scale(0.1 -0.1)">
       <use xlink:href="#IPAexGothic-4e8b"/>
      </g>
     </g>
    </g>
    <g id="xtick_5">
     <g id="line2d_5">
      <g>
       <use style="stroke:#000000;stroke-width:0.8;" x="191.264993" xlink:href="#ma91772d236" y="228.14"/>
      </g>
     </g>
     <g id="text_5">
      <!-- する -->
      <defs>
       <path d="M 51.90625 79.296875 
L 59.625 79.296875 
L 59.625 63.484375 
Q 64.546875 63.671875 89.9375 64.3125 
L 89.9375 57.328125 
Q 84.859375 57.375 59.625 57.078125 
L 59.625 38.484375 
Q 61.8125 33.203125 61.8125 27.203125 
Q 61.8125 14.40625 54.984375 6.203125 
Q 48.875 -1.125 36.078125 -6.390625 
L 30.328125 -0.484375 
Q 50.984375 7.078125 54.5 21.296875 
Q 50.78125 16.109375 43.890625 16.109375 
Q 38.140625 16.109375 33.59375 20.515625 
Q 29.296875 24.8125 29.296875 32.03125 
Q 29.296875 38.671875 33.84375 43.265625 
Q 37.984375 47.515625 44.09375 47.515625 
Q 48.25 47.515625 51.90625 45.015625 
L 51.90625 56.890625 
Q 46.875 56.78125 9.515625 55.421875 
L 9.515625 62.3125 
Q 18.703125 62.5 32.90625 62.84375 
Q 47.90625 63.234375 51.90625 63.28125 
z
M 52.6875 31.9375 
Q 52.6875 35.9375 49.90625 38.71875 
Q 47.65625 40.828125 44.828125 40.828125 
Q 40.96875 40.828125 38.484375 37.59375 
Q 36.625 35.15625 36.625 32.625 
Q 36.625 28.078125 38.8125 25.34375 
Q 41.015625 22.703125 44.671875 22.703125 
Q 52.6875 22.703125 52.6875 31.9375 
z
" id="IPAexGothic-3059"/>
      </defs>
      <g transform="translate(181.264993 242.630625)scale(0.1 -0.1)">
       <use xlink:href="#IPAexGothic-3059"/>
       <use x="100" xlink:href="#IPAexGothic-308b"/>
      </g>
     </g>
    </g>
    <g id="xtick_6">
     <g id="line2d_6">
      <g>
       <use style="stroke:#000000;stroke-width:0.8;" x="222.322507" xlink:href="#ma91772d236" y="228.14"/>
      </g>
     </g>
     <g id="text_6">
      <!-- もの -->
      <defs>
       <path d="M 15.578125 61.71875 
Q 25.34375 60.0625 35.984375 59.625 
L 38.921875 79 
L 46.6875 77.875 
Q 44.875 68.171875 43.703125 59.625 
Q 54.296875 59.71875 66.3125 61.53125 
L 66.3125 54.59375 
Q 57.171875 53.03125 42.671875 52.6875 
Q 42.1875 48.921875 40.671875 37.203125 
Q 50.984375 37.203125 62.984375 39.203125 
L 62.984375 32.171875 
Q 52.484375 30.421875 39.59375 30.421875 
Q 38.625 22.609375 38.625 19 
Q 38.625 2.984375 56.390625 2.984375 
Q 75.484375 2.984375 75.484375 18.171875 
Q 75.484375 24.953125 70.3125 33.296875 
L 78.171875 34.078125 
Q 83.40625 25.59375 83.40625 18.015625 
Q 83.40625 7.375 75.296875 1.171875 
Q 68.3125 -4 56.390625 -4 
Q 31.296875 -4 31.296875 18.015625 
Q 31.296875 24.3125 32.171875 30.609375 
Q 21.4375 31.59375 15.828125 32.71875 
L 16.5 39.703125 
Q 24.703125 37.984375 33.203125 37.5 
L 35.109375 52.78125 
Q 24.21875 53.21875 14.703125 54.984375 
z
" id="IPAexGothic-3082"/>
      </defs>
      <g transform="translate(212.322507 242.630625)scale(0.1 -0.1)">
       <use xlink:href="#IPAexGothic-3082"/>
       <use x="100" xlink:href="#IPAexGothic-306e"/>
      </g>
     </g>
    </g>
    <g id="xtick_7">
     <g id="line2d_7">
      <g>
       <use style="stroke:#000000;stroke-width:0.8;" x="253.380021" xlink:href="#ma91772d236" y="228.14"/>
      </g>
     </g>
     <g id="text_7">
      <!-- 君 -->
      <defs>
       <path d="M 35.296875 28.90625 
L 85.015625 28.90625 
L 85.015625 -7.03125 
L 77.6875 -7.03125 
L 77.6875 -1.515625 
L 37.5 -1.515625 
L 37.5 -7.03125 
L 30.328125 -7.03125 
L 30.328125 23 
Q 21.6875 14.0625 10.40625 7.90625 
L 5.609375 13.765625 
Q 25.140625 23.046875 33.984375 39.109375 
L 17.140625 39.109375 
L 17.140625 44.921875 
L 36.71875 44.921875 
Q 38.328125 49.03125 39.890625 55.515625 
L 7.03125 55.515625 
L 7.03125 61.53125 
L 41.21875 61.53125 
Q 42.09375 66.3125 42.71875 72.078125 
L 17.625 72.078125 
L 17.625 77.875 
L 79.9375 77.875 
L 79.9375 61.53125 
L 95.015625 61.53125 
L 95.015625 55.515625 
L 79.9375 55.515625 
L 79.9375 39.109375 
L 41.609375 39.109375 
Q 39.0625 33.6875 35.296875 28.90625 
z
M 37.5 22.703125 
L 37.5 4.6875 
L 77.6875 4.6875 
L 77.6875 22.703125 
z
M 72.859375 72.078125 
L 49.90625 72.078125 
Q 49.171875 66.15625 48.296875 61.53125 
L 72.859375 61.53125 
z
M 72.859375 55.515625 
L 47.015625 55.515625 
Q 45.75 50.09375 43.890625 44.921875 
L 72.859375 44.921875 
z
" id="IPAexGothic-541b"/>
      </defs>
      <g transform="translate(248.380021 242.630625)scale(0.1 -0.1)">
       <use xlink:href="#IPAexGothic-541b"/>
      </g>
     </g>
    </g>
    <g id="xtick_8">
     <g id="line2d_8">
      <g>
       <use style="stroke:#000000;stroke-width:0.8;" x="284.437535" xlink:href="#ma91772d236" y="228.14"/>
      </g>
     </g>
     <g id="text_8">
      <!-- 云う -->
      <defs>
       <path d="M 46.484375 40.53125 
L 46.1875 39.75 
Q 38.53125 18.3125 31.109375 5.609375 
L 39.5 6.25 
Q 58.6875 7.46875 73.390625 9.625 
Q 67.09375 19.140625 59.375 27.734375 
L 65.875 31.453125 
Q 77.875 17.828125 90.765625 -1.078125 
L 83.6875 -5.859375 
Q 83.40625 -5.46875 81.6875 -2.78125 
Q 79.4375 0.6875 77.203125 3.8125 
L 76.171875 3.71875 
Q 51.859375 -0.484375 12.796875 -3.171875 
L 10.203125 4.546875 
Q 14.796875 4.734375 17.1875 4.828125 
L 22.5625 5.125 
Q 31.6875 21.734375 38.09375 40.53125 
L 6.984375 40.53125 
L 6.984375 47.40625 
L 92.96875 47.40625 
L 92.96875 40.53125 
z
M 17 75 
L 82.859375 75 
L 82.859375 68.109375 
L 17 68.109375 
z
" id="IPAexGothic-4e91"/>
       <path d="M 60.890625 62.890625 
Q 50.046875 69.625 33.5 73.875 
L 37.203125 80.71875 
Q 52.390625 77 65.09375 70.015625 
z
M 18.3125 47.65625 
Q 44.875 56.6875 55.71875 56.6875 
Q 66.703125 56.6875 71.921875 49.703125 
Q 75.734375 44.53125 75.734375 35.203125 
Q 75.734375 5.8125 40.921875 -4.296875 
L 35.59375 2.484375 
Q 52.4375 6.203125 60.640625 15.53125 
Q 67.625 23.484375 67.625 34.8125 
Q 67.625 49.703125 55.21875 49.703125 
Q 45.453125 49.703125 21.828125 39.890625 
z
" id="IPAexGothic-3046"/>
      </defs>
      <g transform="translate(274.437535 242.630625)scale(0.1 -0.1)">
       <use xlink:href="#IPAexGothic-4e91"/>
       <use x="100" xlink:href="#IPAexGothic-3046"/>
      </g>
     </g>
    </g>
    <g id="xtick_9">
     <g id="line2d_9">
      <g>
       <use style="stroke:#000000;stroke-width:0.8;" x="315.495049" xlink:href="#ma91772d236" y="228.14"/>
      </g>
     </g>
     <g id="text_9">
      <!-- 主人 -->
      <defs>
       <path d="M 53.421875 54.390625 
L 53.421875 34.1875 
L 84.515625 34.1875 
L 84.515625 27.59375 
L 53.421875 27.59375 
L 53.421875 3.609375 
L 92.53125 3.609375 
L 92.53125 -3.078125 
L 7.421875 -3.078125 
L 7.421875 3.609375 
L 45.796875 3.609375 
L 45.796875 27.59375 
L 15.375 27.59375 
L 15.375 34.1875 
L 45.796875 34.1875 
L 45.796875 54.390625 
L 10.984375 54.390625 
L 10.984375 61.078125 
L 89.015625 61.078125 
L 89.015625 54.390625 
z
M 52.25 62.984375 
Q 43.5625 70.21875 30.515625 77.09375 
L 36.921875 81.984375 
Q 47.90625 76.421875 58.640625 68.109375 
z
" id="IPAexGothic-4e3b"/>
       <path d="M 53.65625 79.390625 
L 53.65625 72.796875 
Q 53.65625 48.921875 63.28125 32.328125 
Q 72.953125 15.53125 94.09375 4.296875 
L 88.1875 -3.078125 
Q 68.109375 9.1875 56.890625 29.109375 
Q 53.03125 35.9375 50.390625 47.015625 
Q 44.09375 11.96875 12.796875 -5.078125 
L 6.890625 1.515625 
Q 29 11.859375 38.09375 30.8125 
Q 45.609375 46.234375 45.609375 72.40625 
L 45.609375 79.390625 
z
" id="IPAexGothic-4eba"/>
      </defs>
      <g transform="translate(305.495049 242.630625)scale(0.1 -0.1)">
       <use xlink:href="#IPAexGothic-4e3b"/>
       <use x="100" xlink:href="#IPAexGothic-4eba"/>
      </g>
     </g>
    </g>
    <g id="xtick_10">
     <g id="line2d_10">
      <g>
       <use style="stroke:#000000;stroke-width:0.8;" x="346.552563" xlink:href="#ma91772d236" y="228.14"/>
      </g>
     </g>
     <g id="text_10">
      <!-- ない -->
      <defs>
       <path d="M 61.03125 49.171875 
L 68.3125 49.171875 
Q 68.453125 35.59375 69.4375 19.875 
Q 81.9375 15.671875 91.21875 9.859375 
L 86.8125 3.46875 
Q 77.390625 9.375 69.734375 12.703125 
Q 69.96875 4.109375 66.15625 0.34375 
Q 62.25 -3.515625 53.421875 -3.515625 
Q 45.265625 -3.515625 40.046875 0 
Q 34.625 3.609375 34.625 10.109375 
Q 34.625 16.890625 41.5 20.609375 
Q 46.234375 23.1875 51.515625 23.1875 
Q 56.84375 23.1875 62.015625 22.078125 
Q 61.1875 34.671875 61.03125 49.171875 
z
M 62.109375 15.375 
Q 56.734375 16.890625 51.515625 16.890625 
Q 47.359375 16.890625 44.625 15.28125 
Q 41.609375 13.484375 41.609375 10.203125 
Q 41.609375 3.078125 53.125 3.078125 
Q 58.59375 3.078125 60.546875 5.90625 
Q 62.453125 8.6875 62.109375 15.375 
z
M 11.53125 61.375 
Q 22.703125 60.6875 31.203125 61.53125 
Q 33.5 68.453125 35.84375 80.078125 
L 43.5 78.90625 
Q 41.9375 71.234375 39.3125 62.3125 
Q 46.390625 62.984375 55.609375 65.1875 
L 55.90625 58.015625 
Q 45.609375 55.859375 37.109375 55.171875 
Q 28.953125 31.6875 16.3125 12.984375 
L 9.421875 17.390625 
Q 20.703125 32.234375 29 54.5 
Q 16.609375 54.046875 11.921875 54.296875 
z
M 86.53125 43.109375 
Q 78.125 52.390625 66.609375 60.203125 
L 71.734375 65.484375 
Q 83.40625 58.25 92.140625 48.875 
z
" id="IPAexGothic-306a"/>
      </defs>
      <g transform="translate(336.552563 242.630625)scale(0.1 -0.1)">
       <use xlink:href="#IPAexGothic-306a"/>
       <use x="100" xlink:href="#IPAexGothic-3044"/>
      </g>
     </g>
    </g>
   </g>
   <g id="matplotlib.axis_2">
    <g id="ytick_1">
     <g id="line2d_11">
      <defs>
       <path d="M 0 0 
L -3.5 0 
" id="m32f1586769" style="stroke:#000000;stroke-width:0.8;"/>
      </defs>
      <g>
       <use style="stroke:#000000;stroke-width:0.8;" x="39.39375" xlink:href="#m32f1586769" y="228.14"/>
      </g>
     </g>
     <g id="text_11">
      <!-- 0 -->
      <defs>
       <path d="M 31.84375 73.828125 
Q 45.015625 73.828125 52.09375 61.625 
Q 57.71875 51.953125 57.71875 36.625 
Q 57.71875 21.4375 52.09375 11.578125 
Q 45.125 -0.484375 31.5 -0.484375 
Q 17.921875 -0.484375 10.9375 11.578125 
Q 5.328125 21.4375 5.328125 36.71875 
Q 5.328125 58.015625 15.625 67.71875 
Q 22.171875 73.828125 31.84375 73.828125 
z
M 31.5 66.65625 
Q 23.6875 66.65625 19.1875 58.734375 
Q 14.59375 50.734375 14.59375 36.625 
Q 14.59375 22.75 19.09375 14.796875 
Q 23.640625 6.984375 31.5 6.984375 
Q 40.921875 6.984375 45.453125 18.015625 
Q 48.4375 25.34375 48.4375 37.109375 
Q 48.4375 50.875 43.84375 58.734375 
Q 39.203125 66.65625 31.5 66.65625 
z
" id="IPAexGothic-30"/>
      </defs>
      <g transform="translate(26.095313 231.885312)scale(0.1 -0.1)">
       <use xlink:href="#IPAexGothic-30"/>
      </g>
     </g>
    </g>
    <g id="ytick_2">
     <g id="line2d_12">
      <g>
       <use style="stroke:#000000;stroke-width:0.8;" x="39.39375" xlink:href="#m32f1586769" y="182.425714"/>
      </g>
     </g>
     <g id="text_12">
      <!-- 500 -->
      <defs>
       <path d="M 18.40625 40.671875 
Q 25.53125 46.296875 33.9375 46.296875 
Q 44 46.296875 50.640625 39.5 
Q 56.84375 33.015625 56.84375 23.390625 
Q 56.84375 14.65625 51.515625 8.015625 
Q 44.828125 -0.484375 31.734375 -0.484375 
Q 14.984375 -0.484375 7.328125 12.25 
L 14.65625 16.0625 
Q 20.453125 6.78125 31.453125 6.78125 
Q 38.53125 6.78125 43.265625 11.1875 
Q 48.140625 15.828125 48.140625 23.484375 
Q 48.140625 30.71875 43.84375 35.015625 
Q 39.359375 39.5 32.125 39.5 
Q 21.96875 39.5 16.75 31.6875 
L 9.234375 32.671875 
L 13.8125 72.40625 
L 53.21875 72.40625 
L 53.21875 64.890625 
L 20.953125 64.890625 
L 17.71875 40.671875 
z
" id="IPAexGothic-35"/>
      </defs>
      <g transform="translate(13.498438 186.171027)scale(0.1 -0.1)">
       <use xlink:href="#IPAexGothic-35"/>
       <use x="62.988281" xlink:href="#IPAexGothic-30"/>
       <use x="125.976562" xlink:href="#IPAexGothic-30"/>
      </g>
     </g>
    </g>
    <g id="ytick_3">
     <g id="line2d_13">
      <g>
       <use style="stroke:#000000;stroke-width:0.8;" x="39.39375" xlink:href="#m32f1586769" y="136.711429"/>
      </g>
     </g>
     <g id="text_13">
      <!-- 1000 -->
      <defs>
       <path d="M 38.484375 0.984375 
L 29.6875 0.984375 
L 29.6875 64.109375 
Q 21.4375 61.28125 12.3125 59.328125 
L 10.6875 66.109375 
Q 23.734375 69.390625 32.90625 73.921875 
L 38.484375 73.921875 
z
" id="IPAexGothic-31"/>
      </defs>
      <g transform="translate(7.2 140.456741)scale(0.1 -0.1)">
       <use xlink:href="#IPAexGothic-31"/>
       <use x="62.988281" xlink:href="#IPAexGothic-30"/>
       <use x="125.976562" xlink:href="#IPAexGothic-30"/>
       <use x="188.964844" xlink:href="#IPAexGothic-30"/>
      </g>
     </g>
    </g>
    <g id="ytick_4">
     <g id="line2d_14">
      <g>
       <use style="stroke:#000000;stroke-width:0.8;" x="39.39375" xlink:href="#m32f1586769" y="90.997143"/>
      </g>
     </g>
     <g id="text_14">
      <!-- 1500 -->
      <g transform="translate(7.2 94.742455)scale(0.1 -0.1)">
       <use xlink:href="#IPAexGothic-31"/>
       <use x="62.988281" xlink:href="#IPAexGothic-35"/>
       <use x="125.976562" xlink:href="#IPAexGothic-30"/>
       <use x="188.964844" xlink:href="#IPAexGothic-30"/>
      </g>
     </g>
    </g>
    <g id="ytick_5">
     <g id="line2d_15">
      <g>
       <use style="stroke:#000000;stroke-width:0.8;" x="39.39375" xlink:href="#m32f1586769" y="45.282857"/>
      </g>
     </g>
     <g id="text_15">
      <!-- 2000 -->
      <defs>
       <path d="M 57.171875 0.984375 
L 6.984375 0.984375 
L 6.984375 9.28125 
Q 12.890625 23.046875 29.59375 34.421875 
L 32.375 36.28125 
Q 40.921875 42.140625 43.609375 45.40625 
Q 46.6875 49.265625 46.6875 53.8125 
Q 46.6875 58.9375 43.0625 62.546875 
Q 39.0625 66.546875 32.5625 66.546875 
Q 19.53125 66.546875 15.484375 52 
L 7.765625 54.78125 
Q 13.328125 73.828125 33.0625 73.828125 
Q 43.84375 73.828125 50.25 67.4375 
Q 55.859375 61.671875 55.859375 53.515625 
Q 55.859375 47.46875 52.25 42.53125 
Q 48.921875 37.75 36.96875 30.28125 
L 34.859375 29 
Q 19.625 19.578125 15.28125 8.890625 
L 57.171875 8.890625 
z
" id="IPAexGothic-32"/>
      </defs>
      <g transform="translate(7.2 49.02817)scale(0.1 -0.1)">
       <use xlink:href="#IPAexGothic-32"/>
       <use x="62.988281" xlink:href="#IPAexGothic-30"/>
       <use x="125.976562" xlink:href="#IPAexGothic-30"/>
       <use x="188.964844" xlink:href="#IPAexGothic-30"/>
      </g>
     </g>
    </g>
   </g>
   <g id="patch_13">
    <path d="M 39.39375 228.14 
L 39.39375 10.7 
" style="fill:none;stroke:#000000;stroke-linecap:square;stroke-linejoin:miter;stroke-width:0.8;"/>
   </g>
   <g id="patch_14">
    <path d="M 374.19375 228.14 
L 374.19375 10.7 
" style="fill:none;stroke:#000000;stroke-linecap:square;stroke-linejoin:miter;stroke-width:0.8;"/>
   </g>
   <g id="patch_15">
    <path d="M 39.39375 228.14 
L 374.19375 228.14 
" style="fill:none;stroke:#000000;stroke-linecap:square;stroke-linejoin:miter;stroke-width:0.8;"/>
   </g>
   <g id="patch_16">
    <path d="M 39.39375 10.7 
L 374.19375 10.7 
" style="fill:none;stroke:#000000;stroke-linecap:square;stroke-linejoin:miter;stroke-width:0.8;"/>
   </g>
  </g>
 </g>
 <defs>
  <clipPath id="p867a51a8d8">
   <rect height="217.44" width="334.8" x="39.39375" y="10.7"/>
  </clipPath>
 </defs>
</svg>
