<?xml version="1.0" encoding="utf-8" standalone="no"?>
<!DOCTYPE svg PUBLIC "-//W3C//DTD SVG 1.1//EN"
  "http://www.w3.org/Graphics/SVG/1.1/DTD/svg11.dtd">
<!-- Created with matplotlib (https://matplotlib.org/) -->
<svg height="420.539844pt" version="1.1" viewBox="0 0 417.521719 420.539844" width="417.521719pt" xmlns="http://www.w3.org/2000/svg" xmlns:xlink="http://www.w3.org/1999/xlink">
 <defs>
  <style type="text/css">
*{stroke-linecap:butt;stroke-linejoin:round;}
  </style>
 </defs>
 <g id="figure_1">
  <g id="patch_1">
   <path d="M 0 420.539844 
L 417.521719 420.539844 
L 417.521719 0 
L 0 0 
z
" style="fill:#ffffff;"/>
  </g>
  <g id="axes_1">
   <g id="patch_2">
    <path d="M 29.241719 393.78 
L 340.02229 393.78 
L 340.02229 78.442286 
L 29.241719 78.442286 
z
" style="fill:#eaeaf2;"/>
   </g>
   <g id="matplotlib.axis_1">
    <g id="xtick_1">
     <g id="line2d_1">
      <path clip-path="url(#pe65175c039)" d="M 59.061746 393.78 
L 59.061746 78.442286 
" style="fill:none;stroke:#ffffff;stroke-linecap:round;"/>
     </g>
     <g id="text_1">
      <!-- −4 -->
      <defs>
       <path d="M 52.828125 31.203125 
L 5.5625 31.203125 
L 5.5625 39.40625 
L 52.828125 39.40625 
z
" id="ArialMT-8722"/>
       <path d="M 32.328125 0 
L 32.328125 17.140625 
L 1.265625 17.140625 
L 1.265625 25.203125 
L 33.9375 71.578125 
L 41.109375 71.578125 
L 41.109375 25.203125 
L 50.78125 25.203125 
L 50.78125 17.140625 
L 41.109375 17.140625 
L 41.109375 0 
z
M 32.328125 25.203125 
L 32.328125 57.46875 
L 9.90625 25.203125 
z
" id="ArialMT-52"/>
      </defs>
      <g style="fill:#262626;" transform="translate(52.790887 411.153594)scale(0.11 -0.11)">
       <use xlink:href="#ArialMT-8722"/>
       <use x="58.398438" xlink:href="#ArialMT-52"/>
      </g>
     </g>
    </g>
    <g id="xtick_2">
     <g id="line2d_2">
      <path clip-path="url(#pe65175c039)" d="M 125.001997 393.78 
L 125.001997 78.442286 
" style="fill:none;stroke:#ffffff;stroke-linecap:round;"/>
     </g>
     <g id="text_2">
      <!-- −2 -->
      <defs>
       <path d="M 50.34375 8.453125 
L 50.34375 0 
L 3.03125 0 
Q 2.9375 3.171875 4.046875 6.109375 
Q 5.859375 10.9375 9.828125 15.625 
Q 13.8125 20.3125 21.34375 26.46875 
Q 33.015625 36.03125 37.109375 41.625 
Q 41.21875 47.21875 41.21875 52.203125 
Q 41.21875 57.421875 37.46875 61 
Q 33.734375 64.59375 27.734375 64.59375 
Q 21.390625 64.59375 17.578125 60.78125 
Q 13.765625 56.984375 13.71875 50.25 
L 4.6875 51.171875 
Q 5.609375 61.28125 11.65625 66.578125 
Q 17.71875 71.875 27.9375 71.875 
Q 38.234375 71.875 44.234375 66.15625 
Q 50.25 60.453125 50.25 52 
Q 50.25 47.703125 48.484375 43.546875 
Q 46.734375 39.40625 42.65625 34.8125 
Q 38.578125 30.21875 29.109375 22.21875 
Q 21.1875 15.578125 18.9375 13.203125 
Q 16.703125 10.84375 15.234375 8.453125 
z
" id="ArialMT-50"/>
      </defs>
      <g style="fill:#262626;" transform="translate(118.731138 411.153594)scale(0.11 -0.11)">
       <use xlink:href="#ArialMT-8722"/>
       <use x="58.398438" xlink:href="#ArialMT-50"/>
      </g>
     </g>
    </g>
    <g id="xtick_3">
     <g id="line2d_3">
      <path clip-path="url(#pe65175c039)" d="M 190.942249 393.78 
L 190.942249 78.442286 
" style="fill:none;stroke:#ffffff;stroke-linecap:round;"/>
     </g>
     <g id="text_3">
      <!-- 0 -->
      <defs>
       <path d="M 4.15625 35.296875 
Q 4.15625 48 6.765625 55.734375 
Q 9.375 63.484375 14.515625 67.671875 
Q 19.671875 71.875 27.484375 71.875 
Q 33.25 71.875 37.59375 69.546875 
Q 41.9375 67.234375 44.765625 62.859375 
Q 47.609375 58.5 49.21875 52.21875 
Q 50.828125 45.953125 50.828125 35.296875 
Q 50.828125 22.703125 48.234375 14.96875 
Q 45.65625 7.234375 40.5 3 
Q 35.359375 -1.21875 27.484375 -1.21875 
Q 17.140625 -1.21875 11.234375 6.203125 
Q 4.15625 15.140625 4.15625 35.296875 
z
M 13.1875 35.296875 
Q 13.1875 17.671875 17.3125 11.828125 
Q 21.4375 6 27.484375 6 
Q 33.546875 6 37.671875 11.859375 
Q 41.796875 17.71875 41.796875 35.296875 
Q 41.796875 52.984375 37.671875 58.78125 
Q 33.546875 64.59375 27.390625 64.59375 
Q 21.34375 64.59375 17.71875 59.46875 
Q 13.1875 52.9375 13.1875 35.296875 
z
" id="ArialMT-48"/>
      </defs>
      <g style="fill:#262626;" transform="translate(187.883733 411.153594)scale(0.11 -0.11)">
       <use xlink:href="#ArialMT-48"/>
      </g>
     </g>
    </g>
    <g id="xtick_4">
     <g id="line2d_4">
      <path clip-path="url(#pe65175c039)" d="M 256.8825 393.78 
L 256.8825 78.442286 
" style="fill:none;stroke:#ffffff;stroke-linecap:round;"/>
     </g>
     <g id="text_4">
      <!-- 2 -->
      <g style="fill:#262626;" transform="translate(253.823984 411.153594)scale(0.11 -0.11)">
       <use xlink:href="#ArialMT-50"/>
      </g>
     </g>
    </g>
    <g id="xtick_5">
     <g id="line2d_5">
      <path clip-path="url(#pe65175c039)" d="M 322.822751 393.78 
L 322.822751 78.442286 
" style="fill:none;stroke:#ffffff;stroke-linecap:round;"/>
     </g>
     <g id="text_5">
      <!-- 4 -->
      <g style="fill:#262626;" transform="translate(319.764235 411.153594)scale(0.11 -0.11)">
       <use xlink:href="#ArialMT-52"/>
      </g>
     </g>
    </g>
   </g>
   <g id="matplotlib.axis_2">
    <g id="ytick_1">
     <g id="line2d_6">
      <path clip-path="url(#pe65175c039)" d="M 29.241719 387.52579 
L 340.02229 387.52579 
" style="fill:none;stroke:#ffffff;stroke-linecap:round;"/>
     </g>
     <g id="text_6">
      <!-- −4 -->
      <g style="fill:#262626;" transform="translate(7.2 391.462587)scale(0.11 -0.11)">
       <use xlink:href="#ArialMT-8722"/>
       <use x="58.398438" xlink:href="#ArialMT-52"/>
      </g>
     </g>
    </g>
    <g id="ytick_2">
     <g id="line2d_7">
      <path clip-path="url(#pe65175c039)" d="M 29.241719 351.090208 
L 340.02229 351.090208 
" style="fill:none;stroke:#ffffff;stroke-linecap:round;"/>
     </g>
     <g id="text_7">
      <!-- −3 -->
      <defs>
       <path d="M 4.203125 18.890625 
L 12.984375 20.0625 
Q 14.5 12.59375 18.140625 9.296875 
Q 21.78125 6 27 6 
Q 33.203125 6 37.46875 10.296875 
Q 41.75 14.59375 41.75 20.953125 
Q 41.75 27 37.796875 30.921875 
Q 33.84375 34.859375 27.734375 34.859375 
Q 25.25 34.859375 21.53125 33.890625 
L 22.515625 41.609375 
Q 23.390625 41.5 23.921875 41.5 
Q 29.546875 41.5 34.03125 44.421875 
Q 38.53125 47.359375 38.53125 53.46875 
Q 38.53125 58.296875 35.25 61.46875 
Q 31.984375 64.65625 26.8125 64.65625 
Q 21.6875 64.65625 18.265625 61.421875 
Q 14.84375 58.203125 13.875 51.765625 
L 5.078125 53.328125 
Q 6.6875 62.15625 12.390625 67.015625 
Q 18.109375 71.875 26.609375 71.875 
Q 32.46875 71.875 37.390625 69.359375 
Q 42.328125 66.84375 44.9375 62.5 
Q 47.5625 58.15625 47.5625 53.265625 
Q 47.5625 48.640625 45.0625 44.828125 
Q 42.578125 41.015625 37.703125 38.765625 
Q 44.046875 37.3125 47.5625 32.6875 
Q 51.078125 28.078125 51.078125 21.140625 
Q 51.078125 11.765625 44.234375 5.25 
Q 37.40625 -1.265625 26.953125 -1.265625 
Q 17.53125 -1.265625 11.296875 4.34375 
Q 5.078125 9.96875 4.203125 18.890625 
z
" id="ArialMT-51"/>
      </defs>
      <g style="fill:#262626;" transform="translate(7.2 355.027005)scale(0.11 -0.11)">
       <use xlink:href="#ArialMT-8722"/>
       <use x="58.398438" xlink:href="#ArialMT-51"/>
      </g>
     </g>
    </g>
    <g id="ytick_3">
     <g id="line2d_8">
      <path clip-path="url(#pe65175c039)" d="M 29.241719 314.654627 
L 340.02229 314.654627 
" style="fill:none;stroke:#ffffff;stroke-linecap:round;"/>
     </g>
     <g id="text_8">
      <!-- −2 -->
      <g style="fill:#262626;" transform="translate(7.2 318.591424)scale(0.11 -0.11)">
       <use xlink:href="#ArialMT-8722"/>
       <use x="58.398438" xlink:href="#ArialMT-50"/>
      </g>
     </g>
    </g>
    <g id="ytick_4">
     <g id="line2d_9">
      <path clip-path="url(#pe65175c039)" d="M 29.241719 278.219046 
L 340.02229 278.219046 
" style="fill:none;stroke:#ffffff;stroke-linecap:round;"/>
     </g>
     <g id="text_9">
      <!-- −1 -->
      <defs>
       <path d="M 37.25 0 
L 28.46875 0 
L 28.46875 56 
Q 25.296875 52.984375 20.140625 49.953125 
Q 14.984375 46.921875 10.890625 45.40625 
L 10.890625 53.90625 
Q 18.265625 57.375 23.78125 62.296875 
Q 29.296875 67.234375 31.59375 71.875 
L 37.25 71.875 
z
" id="ArialMT-49"/>
      </defs>
      <g style="fill:#262626;" transform="translate(7.2 282.155842)scale(0.11 -0.11)">
       <use xlink:href="#ArialMT-8722"/>
       <use x="58.398438" xlink:href="#ArialMT-49"/>
      </g>
     </g>
    </g>
    <g id="ytick_5">
     <g id="line2d_10">
      <path clip-path="url(#pe65175c039)" d="M 29.241719 241.783464 
L 340.02229 241.783464 
" style="fill:none;stroke:#ffffff;stroke-linecap:round;"/>
     </g>
     <g id="text_10">
      <!-- 0 -->
      <g style="fill:#262626;" transform="translate(13.624688 245.720261)scale(0.11 -0.11)">
       <use xlink:href="#ArialMT-48"/>
      </g>
     </g>
    </g>
    <g id="ytick_6">
     <g id="line2d_11">
      <path clip-path="url(#pe65175c039)" d="M 29.241719 205.347883 
L 340.02229 205.347883 
" style="fill:none;stroke:#ffffff;stroke-linecap:round;"/>
     </g>
     <g id="text_11">
      <!-- 1 -->
      <g style="fill:#262626;" transform="translate(13.624688 209.28468)scale(0.11 -0.11)">
       <use xlink:href="#ArialMT-49"/>
      </g>
     </g>
    </g>
    <g id="ytick_7">
     <g id="line2d_12">
      <path clip-path="url(#pe65175c039)" d="M 29.241719 168.912301 
L 340.02229 168.912301 
" style="fill:none;stroke:#ffffff;stroke-linecap:round;"/>
     </g>
     <g id="text_12">
      <!-- 2 -->
      <g style="fill:#262626;" transform="translate(13.624688 172.849098)scale(0.11 -0.11)">
       <use xlink:href="#ArialMT-50"/>
      </g>
     </g>
    </g>
    <g id="ytick_8">
     <g id="line2d_13">
      <path clip-path="url(#pe65175c039)" d="M 29.241719 132.47672 
L 340.02229 132.47672 
" style="fill:none;stroke:#ffffff;stroke-linecap:round;"/>
     </g>
     <g id="text_13">
      <!-- 3 -->
      <g style="fill:#262626;" transform="translate(13.624688 136.413517)scale(0.11 -0.11)">
       <use xlink:href="#ArialMT-51"/>
      </g>
     </g>
    </g>
    <g id="ytick_9">
     <g id="line2d_14">
      <path clip-path="url(#pe65175c039)" d="M 29.241719 96.041138 
L 340.02229 96.041138 
" style="fill:none;stroke:#ffffff;stroke-linecap:round;"/>
     </g>
     <g id="text_14">
      <!-- 4 -->
      <g style="fill:#262626;" transform="translate(13.624688 99.977935)scale(0.11 -0.11)">
       <use xlink:href="#ArialMT-52"/>
      </g>
     </g>
    </g>
   </g>
   <g id="PathCollection_1">
    <path clip-path="url(#pe65175c039)" d="M 46.221924 379.446468 
L 49.075741 379.446468 
L 51.929557 379.446468 
L 54.783373 379.446468 
L 57.637189 379.446468 
L 60.491005 379.446468 
L 63.344821 379.446468 
L 66.198637 379.446468 
L 69.052453 379.446468 
L 71.906269 379.446468 
L 74.760085 379.446468 
L 77.613901 379.446468 
L 80.467717 379.446468 
L 83.321534 379.446468 
L 86.17535 379.446468 
L 89.029166 379.446468 
L 91.882982 379.446468 
L 94.736798 379.446468 
L 97.590614 379.446468 
L 100.44443 379.446468 
L 103.298246 379.446468 
L 106.152062 379.446468 
L 109.005878 379.446468 
L 111.859694 379.446468 
L 114.71351 379.446468 
L 117.567327 379.446468 
L 120.421143 379.446468 
L 123.274959 379.446468 
L 126.128775 379.446468 
L 128.982591 379.446468 
L 131.836407 379.446468 
L 134.690223 379.446468 
L 137.544039 379.446468 
L 140.397855 379.446468 
L 143.251671 379.446468 
L 146.105487 379.446468 
L 148.959303 379.446468 
L 151.81312 379.446468 
L 154.666936 379.446468 
L 157.520752 379.446468 
L 160.374568 379.446468 
L 163.228384 379.446468 
L 166.0822 379.446468 
L 168.936016 379.446468 
L 171.789832 379.446468 
L 174.643648 379.446468 
L 177.497464 379.446468 
L 180.35128 379.446468 
L 183.205096 379.446468 
L 186.058913 379.446468 
L 188.912729 379.446468 
L 191.766545 379.446468 
L 194.620361 379.446468 
L 197.474177 379.446468 
L 200.327993 379.446468 
L 203.181809 379.446468 
L 206.035625 379.446468 
L 208.889441 379.446468 
L 211.743257 379.446468 
L 214.597073 379.446468 
L 217.450889 379.446468 
L 220.304706 379.446468 
L 223.158522 379.446468 
L 226.012338 379.446468 
L 228.866154 379.446468 
L 231.71997 379.446468 
L 234.573786 379.446468 
L 237.427602 379.446468 
L 240.281418 379.446468 
L 243.135234 379.446468 
L 245.98905 379.446468 
L 248.842866 379.446468 
L 251.696682 379.446468 
L 254.550498 379.446468 
L 257.404315 379.446468 
L 260.258131 379.446468 
L 263.111947 379.446468 
L 265.965763 379.446468 
L 268.819579 379.446468 
L 271.673395 379.446468 
L 274.527211 379.446468 
L 277.381027 379.446468 
L 280.234843 379.446468 
L 283.088659 379.446468 
L 285.942475 379.446468 
L 288.796291 379.446468 
L 291.650108 379.446468 
L 294.503924 379.446468 
L 297.35774 379.446468 
L 300.211556 379.446468 
L 303.065372 379.446468 
L 305.919188 379.446468 
L 308.773004 379.446468 
L 311.62682 379.446468 
L 314.480636 379.446468 
L 317.334452 379.446468 
L 320.188268 379.446468 
L 323.042084 379.446468 
L 325.895901 379.446468 
L 325.895901 376.550804 
L 325.895901 373.655141 
L 325.895901 370.759478 
L 325.895901 367.863815 
L 325.895901 364.968152 
L 325.895901 362.072489 
L 325.895901 359.176826 
L 325.895901 356.281163 
L 325.895901 353.385499 
L 325.895901 350.489836 
L 325.895901 347.594173 
L 325.895901 344.69851 
L 325.895901 341.802847 
L 325.895901 338.907184 
L 325.895901 336.011521 
L 325.895901 333.115858 
L 325.895901 330.220194 
L 325.895901 327.324531 
L 325.895901 324.428868 
L 325.895901 321.533205 
L 325.895901 318.637542 
L 325.895901 315.741879 
L 325.895901 312.846216 
L 325.895901 309.950553 
L 325.895901 307.054889 
L 325.895901 304.159226 
L 325.895901 301.263563 
L 325.895901 298.3679 
L 325.895901 295.472237 
L 325.895901 292.576574 
L 325.895901 289.680911 
L 325.895901 286.785248 
L 325.895901 283.889584 
L 325.895901 280.993921 
L 325.895901 278.098258 
L 325.895901 275.202595 
L 325.895901 272.306932 
L 325.895901 269.411269 
L 325.895901 266.515606 
L 325.895901 263.619943 
L 325.895901 260.724279 
L 325.895901 257.828616 
L 325.895901 254.932953 
L 325.895901 252.03729 
L 325.895901 249.141627 
L 325.895901 246.245964 
L 325.895901 243.350301 
L 325.895901 240.454638 
L 325.895901 237.558974 
L 325.895901 234.663311 
L 325.895901 231.767648 
L 325.895901 228.871985 
L 325.895901 225.976322 
L 325.895901 223.080659 
L 325.895901 220.184996 
L 325.895901 217.289333 
L 325.895901 214.393669 
L 325.895901 211.498006 
L 325.895901 208.602343 
L 325.895901 205.70668 
L 325.895901 202.811017 
L 325.895901 199.915354 
L 325.895901 197.019691 
L 325.895901 194.124028 
L 325.895901 191.228364 
L 325.895901 188.332701 
L 325.895901 185.437038 
L 325.895901 182.541375 
L 325.895901 179.645712 
L 325.895901 176.750049 
L 325.895901 173.854386 
L 325.895901 170.958723 
L 325.895901 168.063059 
L 325.895901 165.167396 
L 325.895901 162.271733 
L 325.895901 159.37607 
L 325.895901 156.480407 
L 325.895901 153.584744 
L 325.895901 150.689081 
L 325.895901 147.793418 
L 325.895901 144.897754 
L 325.895901 142.002091 
L 325.895901 139.106428 
L 325.895901 136.210765 
L 325.895901 133.315102 
L 325.895901 130.419439 
L 325.895901 127.523776 
L 325.895901 124.628113 
L 325.895901 121.732449 
L 325.895901 118.836786 
L 325.895901 115.941123 
L 325.895901 113.04546 
L 325.895901 110.149797 
L 325.895901 107.254134 
L 325.895901 104.358471 
L 325.895901 101.462808 
L 325.895901 98.567144 
L 325.895901 95.671481 
L 325.895901 92.775818 
L 323.042084 92.775818 
L 320.188268 92.775818 
L 317.334452 92.775818 
L 314.480636 92.775818 
L 311.62682 92.775818 
L 308.773004 92.775818 
L 305.919188 92.775818 
L 303.065372 92.775818 
L 300.211556 92.775818 
L 297.35774 92.775818 
L 294.503924 92.775818 
L 291.650108 92.775818 
L 288.796291 92.775818 
L 285.942475 92.775818 
L 283.088659 92.775818 
L 280.234843 92.775818 
L 277.381027 92.775818 
L 274.527211 92.775818 
L 271.673395 92.775818 
L 268.819579 92.775818 
L 265.965763 92.775818 
L 263.111947 92.775818 
L 260.258131 92.775818 
L 257.404315 92.775818 
L 254.550498 92.775818 
L 251.696682 92.775818 
L 248.842866 92.775818 
L 245.98905 92.775818 
L 243.135234 92.775818 
L 240.281418 92.775818 
L 237.427602 92.775818 
L 234.573786 92.775818 
L 231.71997 92.775818 
L 228.866154 92.775818 
L 226.012338 92.775818 
L 223.158522 92.775818 
L 220.304706 92.775818 
L 217.450889 92.775818 
L 214.597073 92.775818 
L 211.743257 92.775818 
L 208.889441 92.775818 
L 206.035625 92.775818 
L 203.181809 92.775818 
L 200.327993 92.775818 
L 197.474177 92.775818 
L 194.620361 92.775818 
L 191.766545 92.775818 
L 188.912729 92.775818 
L 186.058913 92.775818 
L 183.205096 92.775818 
L 180.35128 92.775818 
L 177.497464 92.775818 
L 174.643648 92.775818 
L 171.789832 92.775818 
L 168.936016 92.775818 
L 166.0822 92.775818 
L 163.228384 92.775818 
L 160.374568 92.775818 
L 157.520752 92.775818 
L 154.666936 92.775818 
L 151.81312 92.775818 
L 148.959303 92.775818 
L 146.105487 92.775818 
L 143.251671 92.775818 
L 140.397855 92.775818 
L 137.544039 92.775818 
L 134.690223 92.775818 
L 131.836407 92.775818 
L 128.982591 92.775818 
L 126.128775 92.775818 
L 123.274959 92.775818 
L 120.421143 92.775818 
L 117.567327 92.775818 
L 114.71351 92.775818 
L 111.859694 92.775818 
L 109.005878 92.775818 
L 106.152062 92.775818 
L 103.298246 92.775818 
L 100.44443 92.775818 
L 97.590614 92.775818 
L 94.736798 92.775818 
L 91.882982 92.775818 
L 89.029166 92.775818 
L 86.17535 92.775818 
L 83.321534 92.775818 
L 80.467717 92.775818 
L 77.613901 92.775818 
L 74.760085 92.775818 
L 71.906269 92.775818 
L 69.052453 92.775818 
L 66.198637 92.775818 
L 63.344821 92.775818 
L 60.491005 92.775818 
L 57.637189 92.775818 
L 54.783373 92.775818 
L 51.929557 92.775818 
L 49.075741 92.775818 
L 46.221924 92.775818 
L 43.368108 92.775818 
L 43.368108 95.671481 
L 43.368108 98.567144 
L 43.368108 101.462808 
L 43.368108 104.358471 
L 43.368108 107.254134 
L 43.368108 110.149797 
L 43.368108 113.04546 
L 43.368108 115.941123 
L 43.368108 118.836786 
L 43.368108 121.732449 
L 43.368108 124.628113 
L 43.368108 127.523776 
L 43.368108 130.419439 
L 43.368108 133.315102 
L 43.368108 136.210765 
L 43.368108 139.106428 
L 43.368108 142.002091 
L 43.368108 144.897754 
L 43.368108 147.793418 
L 43.368108 150.689081 
L 43.368108 153.584744 
L 43.368108 156.480407 
L 43.368108 159.37607 
L 43.368108 162.271733 
L 43.368108 165.167396 
L 43.368108 168.063059 
L 43.368108 170.958723 
L 43.368108 173.854386 
L 43.368108 176.750049 
L 43.368108 179.645712 
L 43.368108 182.541375 
L 43.368108 185.437038 
L 43.368108 188.332701 
L 43.368108 191.228364 
L 43.368108 194.124028 
L 43.368108 197.019691 
L 43.368108 199.915354 
L 43.368108 202.811017 
L 43.368108 205.70668 
L 43.368108 208.602343 
L 43.368108 211.498006 
L 43.368108 214.393669 
L 43.368108 217.289333 
L 43.368108 220.184996 
L 43.368108 223.080659 
L 43.368108 225.976322 
L 43.368108 228.871985 
L 43.368108 231.767648 
L 43.368108 234.663311 
L 43.368108 237.558974 
L 43.368108 240.454638 
L 43.368108 243.350301 
L 43.368108 246.245964 
L 43.368108 249.141627 
L 43.368108 252.03729 
L 43.368108 254.932953 
L 43.368108 257.828616 
L 43.368108 260.724279 
L 43.368108 263.619943 
L 43.368108 266.515606 
L 43.368108 269.411269 
L 43.368108 272.306932 
L 43.368108 275.202595 
L 43.368108 278.098258 
L 43.368108 280.993921 
L 43.368108 283.889584 
L 43.368108 286.785248 
L 43.368108 289.680911 
L 43.368108 292.576574 
L 43.368108 295.472237 
L 43.368108 298.3679 
L 43.368108 301.263563 
L 43.368108 304.159226 
L 43.368108 307.054889 
L 43.368108 309.950553 
L 43.368108 312.846216 
L 43.368108 315.741879 
L 43.368108 318.637542 
L 43.368108 321.533205 
L 43.368108 324.428868 
L 43.368108 327.324531 
L 43.368108 330.220194 
L 43.368108 333.115858 
L 43.368108 336.011521 
L 43.368108 338.907184 
L 43.368108 341.802847 
L 43.368108 344.69851 
L 43.368108 347.594173 
L 43.368108 350.489836 
L 43.368108 353.385499 
L 43.368108 356.281163 
L 43.368108 359.176826 
L 43.368108 362.072489 
L 43.368108 364.968152 
L 43.368108 367.863815 
L 43.368108 370.759478 
L 43.368108 373.655141 
L 43.368108 376.550804 
L 43.368108 379.446468 
z
M 147.523267 318.637542 
L 146.105487 318.259538 
L 143.251671 317.331545 
L 140.397855 316.127252 
L 139.608597 315.741879 
L 137.544039 314.338659 
L 135.801304 312.846216 
L 134.690223 311.459144 
L 133.594535 309.950553 
L 131.836407 307.130253 
L 131.789647 307.054889 
L 129.570057 304.159226 
L 128.982591 303.563685 
L 126.906191 301.263563 
L 126.128775 300.483837 
L 124.483836 298.3679 
L 123.274959 296.520188 
L 122.737277 295.472237 
L 121.66437 292.576574 
L 121.096917 289.680911 
L 120.899898 286.785248 
L 120.947901 283.889584 
L 121.141899 280.993921 
L 121.406214 278.098258 
L 121.677803 275.202595 
L 121.893847 272.306932 
L 121.983374 269.411269 
L 121.873712 266.515606 
L 121.526677 263.619943 
L 121.001549 260.724279 
L 120.490308 257.828616 
L 120.421143 256.954124 
L 120.233341 254.932953 
L 120.421143 253.033321 
L 120.508219 252.03729 
L 121.337144 249.141627 
L 122.748005 246.245964 
L 123.274959 245.471149 
L 124.625823 243.350301 
L 126.128775 241.489004 
L 126.921256 240.454638 
L 128.982591 238.192554 
L 129.529113 237.558974 
L 131.836407 235.207073 
L 132.332899 234.663311 
L 134.690223 232.313196 
L 135.186008 231.767648 
L 137.544039 229.331274 
L 137.93511 228.871985 
L 140.397855 226.074896 
L 140.472454 225.976322 
L 142.654686 223.080659 
L 143.251671 222.286966 
L 144.586296 220.184996 
L 146.105487 217.815987 
L 146.393596 217.289333 
L 147.980711 214.393669 
L 148.959303 212.718808 
L 149.586444 211.498006 
L 151.19624 208.602343 
L 151.81312 207.589746 
L 152.871299 205.70668 
L 154.666936 202.920117 
L 154.735012 202.811017 
L 156.62495 199.915354 
L 157.520752 198.656995 
L 158.703864 197.019691 
L 160.374568 194.811477 
L 160.926466 194.124028 
L 163.228384 191.252591 
L 163.249852 191.228364 
L 165.649369 188.332701 
L 166.0822 187.789263 
L 168.190652 185.437038 
L 168.936016 184.563255 
L 170.934709 182.541375 
L 171.789832 181.63534 
L 174.017996 179.645712 
L 174.643648 179.065865 
L 177.497464 176.870768 
L 177.69605 176.750049 
L 180.35128 175.020552 
L 182.719823 173.854386 
L 183.205096 173.595637 
L 186.058913 172.594845 
L 188.912729 172.108224 
L 191.766545 172.037922 
L 194.620361 172.018032 
L 197.474177 171.694856 
L 200.327993 171.008242 
L 200.454619 170.958723 
L 203.181809 169.809104 
L 206.035625 168.504967 
L 206.923372 168.063059 
L 208.889441 167.009025 
L 211.743257 165.569004 
L 212.591746 165.167396 
L 214.597073 164.133157 
L 217.450889 162.884332 
L 219.133502 162.271733 
L 220.304706 161.797028 
L 223.158522 160.870811 
L 226.012338 160.167957 
L 228.866154 159.63963 
L 230.862772 159.37607 
L 231.71997 159.246984 
L 234.573786 159.005717 
L 237.427602 158.98182 
L 240.281418 159.252854 
L 240.858167 159.37607 
L 243.135234 159.951957 
L 245.98905 161.276952 
L 247.441566 162.271733 
L 248.842866 163.654439 
L 250.075767 165.167396 
L 251.683343 168.063059 
L 251.696682 168.089537 
L 253.154269 170.958723 
L 254.550498 173.236353 
L 254.912587 173.854386 
L 256.950066 176.750049 
L 257.404315 177.378952 
L 258.692001 179.645712 
L 259.925696 182.541375 
L 260.258131 183.766369 
L 260.669845 185.437038 
L 261.053466 188.332701 
L 261.164435 191.228364 
L 261.071874 194.124028 
L 260.829457 197.019691 
L 260.484711 199.915354 
L 260.258131 201.601991 
L 260.116139 202.811017 
L 259.776615 205.70668 
L 259.453863 208.602343 
L 259.166219 211.498006 
L 258.920509 214.393669 
L 258.715666 217.289333 
L 258.547726 220.184996 
L 258.409622 223.080659 
L 258.283388 225.976322 
L 258.12754 228.871985 
L 257.866956 231.767648 
L 257.404315 234.59843 
L 257.39481 234.663311 
L 256.696878 237.558974 
L 255.631228 240.454638 
L 254.550498 242.54049 
L 254.173055 243.350301 
L 252.452046 246.245964 
L 251.696682 247.292586 
L 250.475127 249.141627 
L 248.842866 251.267049 
L 248.29229 252.03729 
L 245.98905 254.915879 
L 245.976145 254.932953 
L 243.642382 257.828616 
L 243.135234 258.426615 
L 241.243589 260.724279 
L 240.281418 261.861926 
L 238.810536 263.619943 
L 237.427602 265.272502 
L 236.38033 266.515606 
L 234.573786 268.724404 
L 234.000961 269.411269 
L 231.728211 272.306932 
L 231.71997 272.319053 
L 229.71287 275.202595 
L 228.866154 276.550434 
L 227.869635 278.098258 
L 226.165769 280.993921 
L 226.012338 281.284786 
L 224.59929 283.889584 
L 223.158522 286.334737 
L 222.879482 286.785248 
L 220.879518 289.680911 
L 220.304706 290.380341 
L 218.331047 292.576574 
L 217.450889 293.404217 
L 214.961121 295.472237 
L 214.597073 295.739431 
L 211.743257 297.620719 
L 210.438483 298.3679 
L 208.889441 299.206108 
L 206.035625 300.603013 
L 204.596564 301.263563 
L 203.181809 301.911315 
L 200.327993 303.208163 
L 198.23659 304.159226 
L 197.474177 304.519278 
L 194.620361 305.958029 
L 192.518118 307.054889 
L 191.766545 307.472409 
L 188.912729 309.169758 
L 187.649264 309.950553 
L 186.058913 311.004543 
L 183.259064 312.846216 
L 183.205096 312.88448 
L 180.35128 314.886394 
L 178.987098 315.741879 
L 177.497464 316.755142 
L 174.643648 318.375564 
L 174.042193 318.637542 
L 171.789832 319.739557 
L 168.936016 320.65442 
L 166.0822 321.096518 
L 163.228384 321.14492 
L 160.374568 320.925805 
L 157.520752 320.559184 
L 154.666936 320.11276 
L 151.81312 319.59696 
L 148.959303 318.988748 
z
" style="fill:#ebf0f7;"/>
   </g>
   <g id="PathCollection_2">
    <path clip-path="url(#pe65175c039)" d="M 148.959303 318.988748 
L 151.81312 319.59696 
L 154.666936 320.11276 
L 157.520752 320.559184 
L 160.374568 320.925805 
L 163.228384 321.14492 
L 166.0822 321.096518 
L 168.936016 320.65442 
L 171.789832 319.739557 
L 174.042193 318.637542 
L 174.643648 318.375564 
L 177.497464 316.755142 
L 178.987098 315.741879 
L 180.35128 314.886394 
L 183.205096 312.88448 
L 183.259064 312.846216 
L 186.058913 311.004543 
L 187.649264 309.950553 
L 188.912729 309.169758 
L 191.766545 307.472409 
L 192.518118 307.054889 
L 194.620361 305.958029 
L 197.474177 304.519278 
L 198.23659 304.159226 
L 200.327993 303.208163 
L 203.181809 301.911315 
L 204.596564 301.263563 
L 206.035625 300.603013 
L 208.889441 299.206108 
L 210.438483 298.3679 
L 211.743257 297.620719 
L 214.597073 295.739431 
L 214.961121 295.472237 
L 217.450889 293.404217 
L 218.331047 292.576574 
L 220.304706 290.380341 
L 220.879518 289.680911 
L 222.879482 286.785248 
L 223.158522 286.334737 
L 224.59929 283.889584 
L 226.012338 281.284786 
L 226.165769 280.993921 
L 227.869635 278.098258 
L 228.866154 276.550434 
L 229.71287 275.202595 
L 231.71997 272.319053 
L 231.728211 272.306932 
L 234.000961 269.411269 
L 234.573786 268.724404 
L 236.38033 266.515606 
L 237.427602 265.272502 
L 238.810536 263.619943 
L 240.281418 261.861926 
L 241.243589 260.724279 
L 243.135234 258.426615 
L 243.642382 257.828616 
L 245.976145 254.932953 
L 245.98905 254.915879 
L 248.29229 252.03729 
L 248.842866 251.267049 
L 250.475127 249.141627 
L 251.696682 247.292586 
L 252.452046 246.245964 
L 254.173055 243.350301 
L 254.550498 242.54049 
L 255.631228 240.454638 
L 256.696878 237.558974 
L 257.39481 234.663311 
L 257.404315 234.59843 
L 257.866956 231.767648 
L 258.12754 228.871985 
L 258.283388 225.976322 
L 258.409622 223.080659 
L 258.547726 220.184996 
L 258.715666 217.289333 
L 258.920509 214.393669 
L 259.166219 211.498006 
L 259.453863 208.602343 
L 259.776615 205.70668 
L 260.116139 202.811017 
L 260.258131 201.601991 
L 260.484711 199.915354 
L 260.829457 197.019691 
L 261.071874 194.124028 
L 261.164435 191.228364 
L 261.053466 188.332701 
L 260.669845 185.437038 
L 260.258131 183.766369 
L 259.925696 182.541375 
L 258.692001 179.645712 
L 257.404315 177.378952 
L 256.950066 176.750049 
L 254.912587 173.854386 
L 254.550498 173.236353 
L 253.154269 170.958723 
L 251.696682 168.089537 
L 251.683343 168.063059 
L 250.075767 165.167396 
L 248.842866 163.654439 
L 247.441566 162.271733 
L 245.98905 161.276952 
L 243.135234 159.951957 
L 240.858167 159.37607 
L 240.281418 159.252854 
L 237.427602 158.98182 
L 234.573786 159.005717 
L 231.71997 159.246984 
L 230.862772 159.37607 
L 228.866154 159.63963 
L 226.012338 160.167957 
L 223.158522 160.870811 
L 220.304706 161.797028 
L 219.133502 162.271733 
L 217.450889 162.884332 
L 214.597073 164.133157 
L 212.591746 165.167396 
L 211.743257 165.569004 
L 208.889441 167.009025 
L 206.923372 168.063059 
L 206.035625 168.504967 
L 203.181809 169.809104 
L 200.454619 170.958723 
L 200.327993 171.008242 
L 197.474177 171.694856 
L 194.620361 172.018032 
L 191.766545 172.037922 
L 188.912729 172.108224 
L 186.058913 172.594845 
L 183.205096 173.595637 
L 182.719823 173.854386 
L 180.35128 175.020552 
L 177.69605 176.750049 
L 177.497464 176.870768 
L 174.643648 179.065865 
L 174.017996 179.645712 
L 171.789832 181.63534 
L 170.934709 182.541375 
L 168.936016 184.563255 
L 168.190652 185.437038 
L 166.0822 187.789263 
L 165.649369 188.332701 
L 163.249852 191.228364 
L 163.228384 191.252591 
L 160.926466 194.124028 
L 160.374568 194.811477 
L 158.703864 197.019691 
L 157.520752 198.656995 
L 156.62495 199.915354 
L 154.735012 202.811017 
L 154.666936 202.920117 
L 152.871299 205.70668 
L 151.81312 207.589746 
L 151.19624 208.602343 
L 149.586444 211.498006 
L 148.959303 212.718808 
L 147.980711 214.393669 
L 146.393596 217.289333 
L 146.105487 217.815987 
L 144.586296 220.184996 
L 143.251671 222.286966 
L 142.654686 223.080659 
L 140.472454 225.976322 
L 140.397855 226.074896 
L 137.93511 228.871985 
L 137.544039 229.331274 
L 135.186008 231.767648 
L 134.690223 232.313196 
L 132.332899 234.663311 
L 131.836407 235.207073 
L 129.529113 237.558974 
L 128.982591 238.192554 
L 126.921256 240.454638 
L 126.128775 241.489004 
L 124.625823 243.350301 
L 123.274959 245.471149 
L 122.748005 246.245964 
L 121.337144 249.141627 
L 120.508219 252.03729 
L 120.421143 253.033321 
L 120.233341 254.932953 
L 120.421143 256.954124 
L 120.490308 257.828616 
L 121.001549 260.724279 
L 121.526677 263.619943 
L 121.873712 266.515606 
L 121.983374 269.411269 
L 121.893847 272.306932 
L 121.677803 275.202595 
L 121.406214 278.098258 
L 121.141899 280.993921 
L 120.947901 283.889584 
L 120.899898 286.785248 
L 121.096917 289.680911 
L 121.66437 292.576574 
L 122.737277 295.472237 
L 123.274959 296.520188 
L 124.483836 298.3679 
L 126.128775 300.483837 
L 126.906191 301.263563 
L 128.982591 303.563685 
L 129.570057 304.159226 
L 131.789647 307.054889 
L 131.836407 307.130253 
L 133.594535 309.950553 
L 134.690223 311.459144 
L 135.801304 312.846216 
L 137.544039 314.338659 
L 139.608597 315.741879 
L 140.397855 316.127252 
L 143.251671 317.331545 
L 146.105487 318.259538 
L 147.523267 318.637542 
z
M 160.96446 309.950553 
L 160.374568 309.913903 
L 157.520752 309.28689 
L 154.666936 308.032808 
L 153.208074 307.054889 
L 151.81312 305.84366 
L 150.278959 304.159226 
L 148.959303 302.202142 
L 148.347322 301.263563 
L 146.735085 298.3679 
L 146.105487 297.183406 
L 144.970979 295.472237 
L 143.251671 293.31232 
L 142.428397 292.576574 
L 140.397855 291.115697 
L 137.920667 289.680911 
L 137.544039 289.4776 
L 134.690223 287.619918 
L 133.813368 286.785248 
L 131.836407 284.127945 
L 131.716675 283.889584 
L 130.80041 280.993921 
L 130.433453 278.098258 
L 130.432487 275.202595 
L 130.687581 272.306932 
L 131.140415 269.411269 
L 131.767418 266.515606 
L 131.836407 266.241739 
L 132.484105 263.619943 
L 133.313263 260.724279 
L 134.281022 257.828616 
L 134.690223 256.670337 
L 135.312908 254.932953 
L 136.424515 252.03729 
L 137.544039 249.422791 
L 137.663812 249.141627 
L 138.919164 246.245964 
L 140.332037 243.350301 
L 140.397855 243.230141 
L 141.781874 240.454638 
L 143.251671 237.804269 
L 143.373385 237.558974 
L 144.965075 234.663311 
L 146.105487 232.723369 
L 146.594971 231.767648 
L 148.152338 228.871985 
L 148.959303 227.403179 
L 149.642109 225.976322 
L 151.037015 223.080659 
L 151.81312 221.488054 
L 152.380355 220.184996 
L 153.685104 217.289333 
L 154.666936 215.255903 
L 155.056675 214.393669 
L 156.499935 211.498006 
L 157.520752 209.693827 
L 158.13513 208.602343 
L 159.98402 205.70668 
L 160.374568 205.151175 
L 162.120636 202.811017 
L 163.228384 201.444637 
L 164.61735 199.915354 
L 166.0822 198.355527 
L 167.562222 197.019691 
L 168.936016 195.754254 
L 171.123575 194.124028 
L 171.789832 193.590782 
L 174.643648 191.782528 
L 175.786027 191.228364 
L 177.497464 190.292499 
L 180.35128 189.098936 
L 182.646039 188.332701 
L 183.205096 188.121401 
L 186.058913 187.116172 
L 188.912729 186.146333 
L 190.863521 185.437038 
L 191.766545 185.084712 
L 194.620361 183.863732 
L 197.474177 182.619613 
L 197.641882 182.541375 
L 200.327993 181.21089 
L 203.181809 179.801417 
L 203.496666 179.645712 
L 206.035625 178.315995 
L 208.889441 176.862014 
L 209.12608 176.750049 
L 211.743257 175.462581 
L 214.597073 174.19155 
L 215.503048 173.854386 
L 217.450889 173.117721 
L 220.304706 172.302774 
L 223.158522 171.766829 
L 226.012338 171.56373 
L 228.866154 171.771014 
L 231.71997 172.52005 
L 234.238644 173.854386 
L 234.573786 174.063245 
L 237.375052 176.750049 
L 237.427602 176.803104 
L 239.716146 179.645712 
L 240.281418 180.286674 
L 242.24194 182.541375 
L 243.135234 183.451623 
L 245.198492 185.437038 
L 245.98905 186.235538 
L 247.890242 188.332701 
L 248.842866 189.925821 
L 249.469437 191.228364 
L 250.124833 194.124028 
L 250.226986 197.019691 
L 250.011772 199.915354 
L 249.627995 202.811017 
L 249.171888 205.70668 
L 248.842866 207.768383 
L 248.723895 208.602343 
L 248.347561 211.498006 
L 248.005801 214.393669 
L 247.681525 217.289333 
L 247.351961 220.184996 
L 246.997095 223.080659 
L 246.602776 225.976322 
L 246.157683 228.871985 
L 245.98905 229.862605 
L 245.686163 231.767648 
L 245.139149 234.663311 
L 244.44763 237.558974 
L 243.559738 240.454638 
L 243.135234 241.551713 
L 242.485039 243.350301 
L 241.17388 246.245964 
L 240.281418 247.868848 
L 239.627019 249.141627 
L 237.857795 252.03729 
L 237.427602 252.64765 
L 235.891932 254.932953 
L 234.573786 256.661213 
L 233.70895 257.828616 
L 231.71997 260.246953 
L 231.330977 260.724279 
L 228.866154 263.530922 
L 228.787258 263.619943 
L 226.127335 266.515606 
L 226.012338 266.641381 
L 223.405568 269.411269 
L 223.158522 269.683616 
L 220.677207 272.306932 
L 220.304706 272.725536 
L 217.967795 275.202595 
L 217.450889 275.789098 
L 215.248632 278.098258 
L 214.597073 278.820052 
L 212.42927 280.993921 
L 211.743257 281.700812 
L 209.362506 283.889584 
L 208.889441 284.323164 
L 206.035625 286.662045 
L 205.871774 286.785248 
L 203.181809 288.772285 
L 201.847009 289.680911 
L 200.327993 290.688524 
L 197.474177 292.486046 
L 197.331364 292.576574 
L 194.620361 294.254927 
L 192.673312 295.472237 
L 191.766545 296.028374 
L 188.912729 297.86466 
L 188.175926 298.3679 
L 186.058913 299.788813 
L 183.906031 301.263563 
L 183.205096 301.741721 
L 180.35128 303.679312 
L 179.597426 304.159226 
L 177.497464 305.514637 
L 174.667223 307.054889 
L 174.643648 307.068259 
L 171.789832 308.405248 
L 168.936016 309.330515 
L 166.0822 309.88054 
L 165.074072 309.950553 
L 163.228384 310.093961 
z
" style="fill:#c4d1e6;"/>
   </g>
   <g id="PathCollection_3">
    <path clip-path="url(#pe65175c039)" d="M 163.228384 310.093961 
L 165.074072 309.950553 
L 166.0822 309.88054 
L 168.936016 309.330515 
L 171.789832 308.405248 
L 174.643648 307.068259 
L 174.667223 307.054889 
L 177.497464 305.514637 
L 179.597426 304.159226 
L 180.35128 303.679312 
L 183.205096 301.741721 
L 183.906031 301.263563 
L 186.058913 299.788813 
L 188.175926 298.3679 
L 188.912729 297.86466 
L 191.766545 296.028374 
L 192.673312 295.472237 
L 194.620361 294.254927 
L 197.331364 292.576574 
L 197.474177 292.486046 
L 200.327993 290.688524 
L 201.847009 289.680911 
L 203.181809 288.772285 
L 205.871774 286.785248 
L 206.035625 286.662045 
L 208.889441 284.323164 
L 209.362506 283.889584 
L 211.743257 281.700812 
L 212.42927 280.993921 
L 214.597073 278.820052 
L 215.248632 278.098258 
L 217.450889 275.789098 
L 217.967795 275.202595 
L 220.304706 272.725536 
L 220.677207 272.306932 
L 223.158522 269.683616 
L 223.405568 269.411269 
L 226.012338 266.641381 
L 226.127335 266.515606 
L 228.787258 263.619943 
L 228.866154 263.530922 
L 231.330977 260.724279 
L 231.71997 260.246953 
L 233.70895 257.828616 
L 234.573786 256.661213 
L 235.891932 254.932953 
L 237.427602 252.64765 
L 237.857795 252.03729 
L 239.627019 249.141627 
L 240.281418 247.868848 
L 241.17388 246.245964 
L 242.485039 243.350301 
L 243.135234 241.551713 
L 243.559738 240.454638 
L 244.44763 237.558974 
L 245.139149 234.663311 
L 245.686163 231.767648 
L 245.98905 229.862605 
L 246.157683 228.871985 
L 246.602776 225.976322 
L 246.997095 223.080659 
L 247.351961 220.184996 
L 247.681525 217.289333 
L 248.005801 214.393669 
L 248.347561 211.498006 
L 248.723895 208.602343 
L 248.842866 207.768383 
L 249.171888 205.70668 
L 249.627995 202.811017 
L 250.011772 199.915354 
L 250.226986 197.019691 
L 250.124833 194.124028 
L 249.469437 191.228364 
L 248.842866 189.925821 
L 247.890242 188.332701 
L 245.98905 186.235538 
L 245.198492 185.437038 
L 243.135234 183.451623 
L 242.24194 182.541375 
L 240.281418 180.286674 
L 239.716146 179.645712 
L 237.427602 176.803104 
L 237.375052 176.750049 
L 234.573786 174.063245 
L 234.238644 173.854386 
L 231.71997 172.52005 
L 228.866154 171.771014 
L 226.012338 171.56373 
L 223.158522 171.766829 
L 220.304706 172.302774 
L 217.450889 173.117721 
L 215.503048 173.854386 
L 214.597073 174.19155 
L 211.743257 175.462581 
L 209.12608 176.750049 
L 208.889441 176.862014 
L 206.035625 178.315995 
L 203.496666 179.645712 
L 203.181809 179.801417 
L 200.327993 181.21089 
L 197.641882 182.541375 
L 197.474177 182.619613 
L 194.620361 183.863732 
L 191.766545 185.084712 
L 190.863521 185.437038 
L 188.912729 186.146333 
L 186.058913 187.116172 
L 183.205096 188.121401 
L 182.646039 188.332701 
L 180.35128 189.098936 
L 177.497464 190.292499 
L 175.786027 191.228364 
L 174.643648 191.782528 
L 171.789832 193.590782 
L 171.123575 194.124028 
L 168.936016 195.754254 
L 167.562222 197.019691 
L 166.0822 198.355527 
L 164.61735 199.915354 
L 163.228384 201.444637 
L 162.120636 202.811017 
L 160.374568 205.151175 
L 159.98402 205.70668 
L 158.13513 208.602343 
L 157.520752 209.693827 
L 156.499935 211.498006 
L 155.056675 214.393669 
L 154.666936 215.255903 
L 153.685104 217.289333 
L 152.380355 220.184996 
L 151.81312 221.488054 
L 151.037015 223.080659 
L 149.642109 225.976322 
L 148.959303 227.403179 
L 148.152338 228.871985 
L 146.594971 231.767648 
L 146.105487 232.723369 
L 144.965075 234.663311 
L 143.373385 237.558974 
L 143.251671 237.804269 
L 141.781874 240.454638 
L 140.397855 243.230141 
L 140.332037 243.350301 
L 138.919164 246.245964 
L 137.663812 249.141627 
L 137.544039 249.422791 
L 136.424515 252.03729 
L 135.312908 254.932953 
L 134.690223 256.670337 
L 134.281022 257.828616 
L 133.313263 260.724279 
L 132.484105 263.619943 
L 131.836407 266.241739 
L 131.767418 266.515606 
L 131.140415 269.411269 
L 130.687581 272.306932 
L 130.432487 275.202595 
L 130.433453 278.098258 
L 130.80041 280.993921 
L 131.716675 283.889584 
L 131.836407 284.127945 
L 133.813368 286.785248 
L 134.690223 287.619918 
L 137.544039 289.4776 
L 137.920667 289.680911 
L 140.397855 291.115697 
L 142.428397 292.576574 
L 143.251671 293.31232 
L 144.970979 295.472237 
L 146.105487 297.183406 
L 146.735085 298.3679 
L 148.347322 301.263563 
L 148.959303 302.202142 
L 150.278959 304.159226 
L 151.81312 305.84366 
L 153.208074 307.054889 
L 154.666936 308.032808 
L 157.520752 309.28689 
L 160.374568 309.913903 
L 160.96446 309.950553 
z
M 160.611878 301.263563 
L 160.374568 301.164314 
L 157.520752 298.841253 
L 157.122144 298.3679 
L 155.320005 295.472237 
L 154.666936 293.971201 
L 154.069161 292.576574 
L 153.021557 289.680911 
L 151.975782 286.785248 
L 151.81312 286.393505 
L 150.266479 283.889584 
L 148.959303 282.368444 
L 146.983581 280.993921 
L 146.105487 280.473211 
L 143.251671 279.017083 
L 141.872941 278.098258 
L 140.397855 276.731568 
L 139.418127 275.202595 
L 138.601141 272.306932 
L 138.582991 269.411269 
L 139.08318 266.515606 
L 139.963938 263.619943 
L 140.397855 262.56944 
L 141.192926 260.724279 
L 142.670989 257.828616 
L 143.251671 256.796375 
L 144.349201 254.932953 
L 146.105487 252.072662 
L 146.127973 252.03729 
L 147.860284 249.141627 
L 148.959303 247.163192 
L 149.465617 246.245964 
L 150.827995 243.350301 
L 151.81312 240.896585 
L 151.978483 240.454638 
L 152.913962 237.558974 
L 153.781761 234.663311 
L 154.649248 231.767648 
L 154.666936 231.714508 
L 155.507916 228.871985 
L 156.417364 225.976322 
L 157.38608 223.080659 
L 157.520752 222.717577 
L 158.407101 220.184996 
L 159.534549 217.289333 
L 160.374568 215.403263 
L 160.828438 214.393669 
L 162.354001 211.498006 
L 163.228384 210.08093 
L 164.218542 208.602343 
L 166.0822 206.204679 
L 166.527573 205.70668 
L 168.936016 203.295842 
L 169.523205 202.811017 
L 171.789832 201.049391 
L 173.626061 199.915354 
L 174.643648 199.291991 
L 177.497464 197.882795 
L 179.576269 197.019691 
L 180.35128 196.68784 
L 183.205096 195.55703 
L 186.058913 194.452957 
L 186.870494 194.124028 
L 188.912729 193.271533 
L 191.766545 192.070708 
L 193.773418 191.228364 
L 194.620361 190.857736 
L 197.474177 189.682401 
L 200.327993 188.578438 
L 201.078848 188.332701 
L 203.181809 187.59226 
L 206.035625 186.749347 
L 208.889441 186.054344 
L 211.743257 185.530943 
L 212.524314 185.437038 
L 214.597073 185.171263 
L 217.450889 184.879153 
L 220.304706 184.626634 
L 223.158522 184.488934 
L 226.012338 184.619281 
L 228.866154 185.213883 
L 229.375035 185.437038 
L 231.71997 186.37649 
L 234.573786 188.288685 
L 234.624427 188.332701 
L 237.427602 190.865967 
L 237.77642 191.228364 
L 240.055158 194.124028 
L 240.281418 194.548801 
L 241.425848 197.019691 
L 242.041547 199.915354 
L 242.164557 202.811017 
L 242.005606 205.70668 
L 241.704933 208.602343 
L 241.342419 211.498006 
L 240.95093 214.393669 
L 240.529263 217.289333 
L 240.281418 218.820794 
L 240.05793 220.184996 
L 239.527063 223.080659 
L 238.925764 225.976322 
L 238.244143 228.871985 
L 237.472761 231.767648 
L 237.427602 231.924749 
L 236.655348 234.663311 
L 235.765446 237.558974 
L 234.769314 240.454638 
L 234.573786 240.969129 
L 233.701239 243.350301 
L 232.485358 246.245964 
L 231.71997 247.815503 
L 231.089592 249.141627 
L 229.480127 252.03729 
L 228.866154 252.985861 
L 227.608988 254.932953 
L 226.012338 257.08051 
L 225.443371 257.828616 
L 223.158522 260.523487 
L 222.980417 260.724279 
L 220.304706 263.539988 
L 220.223855 263.619943 
L 217.450889 266.287812 
L 217.196348 266.515606 
L 214.597073 268.862167 
L 213.940583 269.411269 
L 211.743257 271.311706 
L 210.502028 272.306932 
L 208.889441 273.656528 
L 206.903704 275.202595 
L 206.035625 275.904451 
L 203.181809 278.065427 
L 203.137587 278.098258 
L 200.327993 280.199873 
L 199.245606 280.993921 
L 197.474177 282.288257 
L 195.28378 283.889584 
L 194.620361 284.36815 
L 191.766545 286.509292 
L 191.422633 286.785248 
L 188.912729 288.752853 
L 187.787708 289.680911 
L 186.058913 291.065046 
L 184.232531 292.576574 
L 183.205096 293.398174 
L 180.589037 295.472237 
L 180.35128 295.654815 
L 177.497464 297.746203 
L 176.513897 298.3679 
L 174.643648 299.541913 
L 171.789832 300.93713 
L 170.801038 301.263563 
L 168.936016 301.902777 
L 166.0822 302.344184 
L 163.228384 302.162386 
z
" style="fill:#9cb1d4;"/>
   </g>
   <g id="PathCollection_4">
    <path clip-path="url(#pe65175c039)" d="M 163.228384 302.162386 
L 166.0822 302.344184 
L 168.936016 301.902777 
L 170.801038 301.263563 
L 171.789832 300.93713 
L 174.643648 299.541913 
L 176.513897 298.3679 
L 177.497464 297.746203 
L 180.35128 295.654815 
L 180.589037 295.472237 
L 183.205096 293.398174 
L 184.232531 292.576574 
L 186.058913 291.065046 
L 187.787708 289.680911 
L 188.912729 288.752853 
L 191.422633 286.785248 
L 191.766545 286.509292 
L 194.620361 284.36815 
L 195.28378 283.889584 
L 197.474177 282.288257 
L 199.245606 280.993921 
L 200.327993 280.199873 
L 203.137587 278.098258 
L 203.181809 278.065427 
L 206.035625 275.904451 
L 206.903704 275.202595 
L 208.889441 273.656528 
L 210.502028 272.306932 
L 211.743257 271.311706 
L 213.940583 269.411269 
L 214.597073 268.862167 
L 217.196348 266.515606 
L 217.450889 266.287812 
L 220.223855 263.619943 
L 220.304706 263.539988 
L 222.980417 260.724279 
L 223.158522 260.523487 
L 225.443371 257.828616 
L 226.012338 257.08051 
L 227.608988 254.932953 
L 228.866154 252.985861 
L 229.480127 252.03729 
L 231.089592 249.141627 
L 231.71997 247.815503 
L 232.485358 246.245964 
L 233.701239 243.350301 
L 234.573786 240.969129 
L 234.769314 240.454638 
L 235.765446 237.558974 
L 236.655348 234.663311 
L 237.427602 231.924749 
L 237.472761 231.767648 
L 238.244143 228.871985 
L 238.925764 225.976322 
L 239.527063 223.080659 
L 240.05793 220.184996 
L 240.281418 218.820794 
L 240.529263 217.289333 
L 240.95093 214.393669 
L 241.342419 211.498006 
L 241.704933 208.602343 
L 242.005606 205.70668 
L 242.164557 202.811017 
L 242.041547 199.915354 
L 241.425848 197.019691 
L 240.281418 194.548801 
L 240.055158 194.124028 
L 237.77642 191.228364 
L 237.427602 190.865967 
L 234.624427 188.332701 
L 234.573786 188.288685 
L 231.71997 186.37649 
L 229.375035 185.437038 
L 228.866154 185.213883 
L 226.012338 184.619281 
L 223.158522 184.488934 
L 220.304706 184.626634 
L 217.450889 184.879153 
L 214.597073 185.171263 
L 212.524314 185.437038 
L 211.743257 185.530943 
L 208.889441 186.054344 
L 206.035625 186.749347 
L 203.181809 187.59226 
L 201.078848 188.332701 
L 200.327993 188.578438 
L 197.474177 189.682401 
L 194.620361 190.857736 
L 193.773418 191.228364 
L 191.766545 192.070708 
L 188.912729 193.271533 
L 186.870494 194.124028 
L 186.058913 194.452957 
L 183.205096 195.55703 
L 180.35128 196.68784 
L 179.576269 197.019691 
L 177.497464 197.882795 
L 174.643648 199.291991 
L 173.626061 199.915354 
L 171.789832 201.049391 
L 169.523205 202.811017 
L 168.936016 203.295842 
L 166.527573 205.70668 
L 166.0822 206.204679 
L 164.218542 208.602343 
L 163.228384 210.08093 
L 162.354001 211.498006 
L 160.828438 214.393669 
L 160.374568 215.403263 
L 159.534549 217.289333 
L 158.407101 220.184996 
L 157.520752 222.717577 
L 157.38608 223.080659 
L 156.417364 225.976322 
L 155.507916 228.871985 
L 154.666936 231.714508 
L 154.649248 231.767648 
L 153.781761 234.663311 
L 152.913962 237.558974 
L 151.978483 240.454638 
L 151.81312 240.896585 
L 150.827995 243.350301 
L 149.465617 246.245964 
L 148.959303 247.163192 
L 147.860284 249.141627 
L 146.127973 252.03729 
L 146.105487 252.072662 
L 144.349201 254.932953 
L 143.251671 256.796375 
L 142.670989 257.828616 
L 141.192926 260.724279 
L 140.397855 262.56944 
L 139.963938 263.619943 
L 139.08318 266.515606 
L 138.582991 269.411269 
L 138.601141 272.306932 
L 139.418127 275.202595 
L 140.397855 276.731568 
L 141.872941 278.098258 
L 143.251671 279.017083 
L 146.105487 280.473211 
L 146.983581 280.993921 
L 148.959303 282.368444 
L 150.266479 283.889584 
L 151.81312 286.393505 
L 151.975782 286.785248 
L 153.021557 289.680911 
L 154.069161 292.576574 
L 154.666936 293.971201 
L 155.320005 295.472237 
L 157.122144 298.3679 
L 157.520752 298.841253 
L 160.374568 301.164314 
L 160.611878 301.263563 
z
M 162.202799 292.576574 
L 160.402587 289.680911 
L 160.374568 289.611596 
L 159.422732 286.785248 
L 158.705288 283.889584 
L 158.048864 280.993921 
L 157.520752 278.95605 
L 157.225813 278.098258 
L 155.876057 275.202595 
L 154.666936 273.257374 
L 153.70812 272.306932 
L 151.81312 270.409204 
L 150.657357 269.411269 
L 148.959303 266.6238 
L 148.913344 266.515606 
L 148.851826 263.619943 
L 148.959303 263.274383 
L 149.740154 260.724279 
L 151.143402 257.828616 
L 151.81312 256.715623 
L 152.855607 254.932953 
L 154.666936 252.045454 
L 154.671786 252.03729 
L 156.412952 249.141627 
L 157.520752 247.088533 
L 157.954269 246.245964 
L 159.18936 243.350301 
L 160.116531 240.454638 
L 160.374568 239.316256 
L 160.756929 237.558974 
L 161.216127 234.663311 
L 161.619011 231.767648 
L 162.066404 228.871985 
L 162.620229 225.976322 
L 163.228384 223.448281 
L 163.318028 223.080659 
L 164.223889 220.184996 
L 165.339374 217.289333 
L 166.0822 215.726225 
L 166.784954 214.393669 
L 168.665628 211.498006 
L 168.936016 211.150381 
L 171.287449 208.602343 
L 171.789832 208.13425 
L 174.643648 205.96748 
L 175.062967 205.70668 
L 177.497464 204.339997 
L 180.35128 202.971742 
L 180.714601 202.811017 
L 183.205096 201.771947 
L 186.058913 200.608569 
L 187.768786 199.915354 
L 188.912729 199.462044 
L 191.766545 198.395129 
L 194.620361 197.431604 
L 196.224322 197.019691 
L 197.474177 196.689148 
L 200.327993 196.244003 
L 203.181809 196.103504 
L 206.035625 196.184011 
L 208.889441 196.271569 
L 211.743257 196.15603 
L 214.597073 195.775391 
L 217.450889 195.212885 
L 220.304706 194.62412 
L 223.158522 194.210064 
L 226.012338 194.244064 
L 228.866154 195.094226 
L 231.555779 197.019691 
L 231.71997 197.194819 
L 233.457055 199.915354 
L 234.373248 202.811017 
L 234.573786 204.788968 
L 234.654598 205.70668 
L 234.573786 208.385924 
L 234.566936 208.602343 
L 234.253938 211.498006 
L 233.8211 214.393669 
L 233.322659 217.289333 
L 232.783552 220.184996 
L 232.210605 223.080659 
L 231.71997 225.393163 
L 231.580331 225.976322 
L 230.831348 228.871985 
L 230.060212 231.767648 
L 229.258046 234.663311 
L 228.866154 235.951061 
L 228.350483 237.558974 
L 227.353337 240.454638 
L 226.263432 243.350301 
L 226.012338 243.930139 
L 224.96669 246.245964 
L 223.485069 249.141627 
L 223.158522 249.693219 
L 221.679609 252.03729 
L 220.304706 253.949631 
L 219.533576 254.932953 
L 217.450889 257.313767 
L 216.955396 257.828616 
L 214.597073 260.091308 
L 213.881054 260.724279 
L 211.743257 262.522273 
L 210.374248 263.619943 
L 208.889441 264.778681 
L 206.646945 266.515606 
L 206.035625 266.981702 
L 203.181809 269.213093 
L 202.946477 269.411269 
L 200.327993 271.52503 
L 199.414155 272.306932 
L 197.474177 273.89881 
L 195.956786 275.202595 
L 194.620361 276.309855 
L 192.543774 278.098258 
L 191.766545 278.75008 
L 189.187479 280.993921 
L 188.912729 281.229049 
L 186.058913 283.762921 
L 185.917414 283.889584 
L 183.205096 286.322375 
L 182.670887 286.785248 
L 180.35128 288.800712 
L 179.240788 289.680911 
L 177.497464 291.062968 
L 175.223211 292.576574 
L 174.643648 292.96263 
L 171.789832 294.358693 
L 168.936016 295.121385 
L 166.0822 295.031013 
L 163.228384 293.6383 
z
" style="fill:#7593c3;"/>
   </g>
   <g id="PathCollection_5">
    <path clip-path="url(#pe65175c039)" d="M 163.228384 293.6383 
L 166.0822 295.031013 
L 168.936016 295.121385 
L 171.789832 294.358693 
L 174.643648 292.96263 
L 175.223211 292.576574 
L 177.497464 291.062968 
L 179.240788 289.680911 
L 180.35128 288.800712 
L 182.670887 286.785248 
L 183.205096 286.322375 
L 185.917414 283.889584 
L 186.058913 283.762921 
L 188.912729 281.229049 
L 189.187479 280.993921 
L 191.766545 278.75008 
L 192.543774 278.098258 
L 194.620361 276.309855 
L 195.956786 275.202595 
L 197.474177 273.89881 
L 199.414155 272.306932 
L 200.327993 271.52503 
L 202.946477 269.411269 
L 203.181809 269.213093 
L 206.035625 266.981702 
L 206.646945 266.515606 
L 208.889441 264.778681 
L 210.374248 263.619943 
L 211.743257 262.522273 
L 213.881054 260.724279 
L 214.597073 260.091308 
L 216.955396 257.828616 
L 217.450889 257.313767 
L 219.533576 254.932953 
L 220.304706 253.949631 
L 221.679609 252.03729 
L 223.158522 249.693219 
L 223.485069 249.141627 
L 224.96669 246.245964 
L 226.012338 243.930139 
L 226.263432 243.350301 
L 227.353337 240.454638 
L 228.350483 237.558974 
L 228.866154 235.951061 
L 229.258046 234.663311 
L 230.060212 231.767648 
L 230.831348 228.871985 
L 231.580331 225.976322 
L 231.71997 225.393163 
L 232.210605 223.080659 
L 232.783552 220.184996 
L 233.322659 217.289333 
L 233.8211 214.393669 
L 234.253938 211.498006 
L 234.566936 208.602343 
L 234.573786 208.385924 
L 234.654598 205.70668 
L 234.573786 204.788968 
L 234.373248 202.811017 
L 233.457055 199.915354 
L 231.71997 197.194819 
L 231.555779 197.019691 
L 228.866154 195.094226 
L 226.012338 194.244064 
L 223.158522 194.210064 
L 220.304706 194.62412 
L 217.450889 195.212885 
L 214.597073 195.775391 
L 211.743257 196.15603 
L 208.889441 196.271569 
L 206.035625 196.184011 
L 203.181809 196.103504 
L 200.327993 196.244003 
L 197.474177 196.689148 
L 196.224322 197.019691 
L 194.620361 197.431604 
L 191.766545 198.395129 
L 188.912729 199.462044 
L 187.768786 199.915354 
L 186.058913 200.608569 
L 183.205096 201.771947 
L 180.714601 202.811017 
L 180.35128 202.971742 
L 177.497464 204.339997 
L 175.062967 205.70668 
L 174.643648 205.96748 
L 171.789832 208.13425 
L 171.287449 208.602343 
L 168.936016 211.150381 
L 168.665628 211.498006 
L 166.784954 214.393669 
L 166.0822 215.726225 
L 165.339374 217.289333 
L 164.223889 220.184996 
L 163.318028 223.080659 
L 163.228384 223.448281 
L 162.620229 225.976322 
L 162.066404 228.871985 
L 161.619011 231.767648 
L 161.216127 234.663311 
L 160.756929 237.558974 
L 160.374568 239.316256 
L 160.116531 240.454638 
L 159.18936 243.350301 
L 157.954269 246.245964 
L 157.520752 247.088533 
L 156.412952 249.141627 
L 154.671786 252.03729 
L 154.666936 252.045454 
L 152.855607 254.932953 
L 151.81312 256.715623 
L 151.143402 257.828616 
L 149.740154 260.724279 
L 148.959303 263.274383 
L 148.851826 263.619943 
L 148.913344 266.515606 
L 148.959303 266.6238 
L 150.657357 269.411269 
L 151.81312 270.409204 
L 153.70812 272.306932 
L 154.666936 273.257374 
L 155.876057 275.202595 
L 157.225813 278.098258 
L 157.520752 278.95605 
L 158.048864 280.993921 
L 158.705288 283.889584 
L 159.422732 286.785248 
L 160.374568 289.611596 
L 160.402587 289.680911 
L 162.202799 292.576574 
z
M 167.971133 286.785248 
L 166.0822 285.080723 
L 165.435103 283.889584 
L 164.39123 280.993921 
L 163.670677 278.098258 
L 163.228384 275.997744 
L 163.06019 275.202595 
L 162.400358 272.306932 
L 161.671346 269.411269 
L 160.948041 266.515606 
L 160.399383 263.619943 
L 160.374568 263.170944 
L 160.200983 260.724279 
L 160.374568 259.608245 
L 160.598833 257.828616 
L 161.482008 254.932953 
L 162.741656 252.03729 
L 163.228384 251.055642 
L 164.101827 249.141627 
L 165.46934 246.245964 
L 166.0822 244.787936 
L 166.690618 243.350301 
L 167.67942 240.454638 
L 168.363029 237.558974 
L 168.746107 234.663311 
L 168.936016 231.967005 
L 168.951955 231.767648 
L 169.179377 228.871985 
L 169.564662 225.976322 
L 170.208418 223.080659 
L 171.168071 220.184996 
L 171.789832 218.840418 
L 172.664484 217.289333 
L 174.643648 214.611497 
L 174.84516 214.393669 
L 177.497464 212.114309 
L 178.371072 211.498006 
L 180.35128 210.333949 
L 183.205096 208.857543 
L 183.754215 208.602343 
L 186.058913 207.664106 
L 188.912729 206.583223 
L 191.569521 205.70668 
L 191.766545 205.64693 
L 194.620361 205.013139 
L 197.474177 204.61749 
L 200.327993 204.433262 
L 203.181809 204.349374 
L 206.035625 204.244546 
L 208.889441 204.046683 
L 211.743257 203.740161 
L 214.597073 203.358968 
L 217.450889 203.007144 
L 220.304706 202.950746 
L 223.158522 203.877135 
L 224.87395 205.70668 
L 225.656007 208.602343 
L 225.517604 211.498006 
L 224.946417 214.393669 
L 224.117089 217.289333 
L 223.158522 220.041919 
L 223.110499 220.184996 
L 222.111716 223.080659 
L 221.099508 225.976322 
L 220.304706 228.484666 
L 220.192569 228.871985 
L 219.541775 231.767648 
L 218.998557 234.663311 
L 218.485693 237.558974 
L 217.871058 240.454638 
L 217.450889 241.87131 
L 217.014545 243.350301 
L 215.750279 246.245964 
L 214.597073 248.239697 
L 214.074891 249.141627 
L 211.879154 252.03729 
L 211.743257 252.185792 
L 209.265139 254.932953 
L 208.889441 255.288296 
L 206.39436 257.828616 
L 206.035625 258.149847 
L 203.458421 260.724279 
L 203.181809 260.973021 
L 200.551651 263.619943 
L 200.327993 263.825623 
L 197.661586 266.515606 
L 197.474177 266.690255 
L 194.735563 269.411269 
L 194.620361 269.518326 
L 191.766545 272.275565 
L 191.734325 272.306932 
L 188.912729 274.961046 
L 188.651491 275.202595 
L 186.058913 277.579754 
L 185.469314 278.098258 
L 183.205096 280.121297 
L 182.148574 280.993921 
L 180.35128 282.528568 
L 178.52137 283.889584 
L 177.497464 284.682623 
L 174.643648 286.401557 
L 173.528986 286.785248 
L 171.789832 287.419836 
L 168.936016 287.34133 
z
" style="fill:#5174ad;"/>
   </g>
   <g id="PathCollection_6">
    <path clip-path="url(#pe65175c039)" d="M 168.936016 287.34133 
L 171.789832 287.419836 
L 173.528986 286.785248 
L 174.643648 286.401557 
L 177.497464 284.682623 
L 178.52137 283.889584 
L 180.35128 282.528568 
L 182.148574 280.993921 
L 183.205096 280.121297 
L 185.469314 278.098258 
L 186.058913 277.579754 
L 188.651491 275.202595 
L 188.912729 274.961046 
L 191.734325 272.306932 
L 191.766545 272.275565 
L 194.620361 269.518326 
L 194.735563 269.411269 
L 197.474177 266.690255 
L 197.661586 266.515606 
L 200.327993 263.825623 
L 200.551651 263.619943 
L 203.181809 260.973021 
L 203.458421 260.724279 
L 206.035625 258.149847 
L 206.39436 257.828616 
L 208.889441 255.288296 
L 209.265139 254.932953 
L 211.743257 252.185792 
L 211.879154 252.03729 
L 214.074891 249.141627 
L 214.597073 248.239697 
L 215.750279 246.245964 
L 217.014545 243.350301 
L 217.450889 241.87131 
L 217.871058 240.454638 
L 218.485693 237.558974 
L 218.998557 234.663311 
L 219.541775 231.767648 
L 220.192569 228.871985 
L 220.304706 228.484666 
L 221.099508 225.976322 
L 222.111716 223.080659 
L 223.110499 220.184996 
L 223.158522 220.041919 
L 224.117089 217.289333 
L 224.946417 214.393669 
L 225.517604 211.498006 
L 225.656007 208.602343 
L 224.87395 205.70668 
L 223.158522 203.877135 
L 220.304706 202.950746 
L 217.450889 203.007144 
L 214.597073 203.358968 
L 211.743257 203.740161 
L 208.889441 204.046683 
L 206.035625 204.244546 
L 203.181809 204.349374 
L 200.327993 204.433262 
L 197.474177 204.61749 
L 194.620361 205.013139 
L 191.766545 205.64693 
L 191.569521 205.70668 
L 188.912729 206.583223 
L 186.058913 207.664106 
L 183.754215 208.602343 
L 183.205096 208.857543 
L 180.35128 210.333949 
L 178.371072 211.498006 
L 177.497464 212.114309 
L 174.84516 214.393669 
L 174.643648 214.611497 
L 172.664484 217.289333 
L 171.789832 218.840418 
L 171.168071 220.184996 
L 170.208418 223.080659 
L 169.564662 225.976322 
L 169.179377 228.871985 
L 168.951955 231.767648 
L 168.936016 231.967005 
L 168.746107 234.663311 
L 168.363029 237.558974 
L 167.67942 240.454638 
L 166.690618 243.350301 
L 166.0822 244.787936 
L 165.46934 246.245964 
L 164.101827 249.141627 
L 163.228384 251.055642 
L 162.741656 252.03729 
L 161.482008 254.932953 
L 160.598833 257.828616 
L 160.374568 259.608245 
L 160.200983 260.724279 
L 160.374568 263.170944 
L 160.399383 263.619943 
L 160.948041 266.515606 
L 161.671346 269.411269 
L 162.400358 272.306932 
L 163.06019 275.202595 
L 163.228384 275.997744 
L 163.670677 278.098258 
L 164.39123 280.993921 
L 165.435103 283.889584 
L 166.0822 285.080723 
L 167.971133 286.785248 
z
M 171.301075 278.098258 
L 169.233227 275.202595 
L 168.936016 274.561343 
L 168.234832 272.306932 
L 167.545639 269.411269 
L 167.050635 266.515606 
L 166.780914 263.619943 
L 166.799396 260.724279 
L 167.170573 257.828616 
L 167.934625 254.932953 
L 168.936016 252.403055 
L 169.072668 252.03729 
L 170.411563 249.141627 
L 171.789832 246.592725 
L 171.979328 246.245964 
L 173.590384 243.350301 
L 174.643648 241.44919 
L 175.234037 240.454638 
L 176.809008 237.558974 
L 177.497464 236.104032 
L 178.252886 234.663311 
L 179.579228 231.767648 
L 180.35128 229.88864 
L 180.812391 228.871985 
L 182.11626 225.976322 
L 183.205096 224.062735 
L 183.802878 223.080659 
L 186.058913 220.410316 
L 186.257162 220.184996 
L 188.912729 217.91752 
L 189.707785 217.289333 
L 191.766545 216.006612 
L 194.620361 214.493529 
L 194.836314 214.393669 
L 197.474177 213.340327 
L 200.327993 212.481374 
L 203.181809 211.874076 
L 205.95581 211.498006 
L 206.035625 211.487684 
L 208.889441 211.387729 
L 209.948819 211.498006 
L 211.743257 211.789929 
L 214.597073 213.903247 
L 214.884444 214.393669 
L 215.232794 217.289333 
L 214.826223 220.184996 
L 214.597073 221.004898 
L 214.084779 223.080659 
L 213.24308 225.976322 
L 212.3516 228.871985 
L 211.743257 230.78516 
L 211.466401 231.767648 
L 210.685118 234.663311 
L 209.874087 237.558974 
L 208.926202 240.454638 
L 208.889441 240.552515 
L 207.969429 243.350301 
L 206.698514 246.245964 
L 206.035625 247.419639 
L 205.168267 249.141627 
L 203.299601 252.03729 
L 203.181809 252.192294 
L 201.302105 254.932953 
L 200.327993 256.14676 
L 199.071683 257.828616 
L 197.474177 259.742737 
L 196.684479 260.724279 
L 194.620361 263.093225 
L 194.161674 263.619943 
L 191.766545 266.218564 
L 191.483094 266.515606 
L 188.912729 269.117575 
L 188.601629 269.411269 
L 186.058913 271.791232 
L 185.444402 272.306932 
L 183.205096 274.227554 
L 181.868057 275.202595 
L 180.35128 276.368765 
L 177.497464 278.081464 
L 177.439514 278.098258 
L 174.643648 279.010533 
L 171.789832 278.542832 
z
" style="fill:#3c5a8a;"/>
   </g>
   <g id="PathCollection_7">
    <path clip-path="url(#pe65175c039)" d="M 171.789832 278.542832 
L 174.643648 279.010533 
L 177.439514 278.098258 
L 177.497464 278.081464 
L 180.35128 276.368765 
L 181.868057 275.202595 
L 183.205096 274.227554 
L 185.444402 272.306932 
L 186.058913 271.791232 
L 188.601629 269.411269 
L 188.912729 269.117575 
L 191.483094 266.515606 
L 191.766545 266.218564 
L 194.161674 263.619943 
L 194.620361 263.093225 
L 196.684479 260.724279 
L 197.474177 259.742737 
L 199.071683 257.828616 
L 200.327993 256.14676 
L 201.302105 254.932953 
L 203.181809 252.192294 
L 203.299601 252.03729 
L 205.168267 249.141627 
L 206.035625 247.419639 
L 206.698514 246.245964 
L 207.969429 243.350301 
L 208.889441 240.552515 
L 208.926202 240.454638 
L 209.874087 237.558974 
L 210.685118 234.663311 
L 211.466401 231.767648 
L 211.743257 230.78516 
L 212.3516 228.871985 
L 213.24308 225.976322 
L 214.084779 223.080659 
L 214.597073 221.004898 
L 214.826223 220.184996 
L 215.232794 217.289333 
L 214.884444 214.393669 
L 214.597073 213.903247 
L 211.743257 211.789929 
L 209.948819 211.498006 
L 208.889441 211.387729 
L 206.035625 211.487684 
L 205.95581 211.498006 
L 203.181809 211.874076 
L 200.327993 212.481374 
L 197.474177 213.340327 
L 194.836314 214.393669 
L 194.620361 214.493529 
L 191.766545 216.006612 
L 189.707785 217.289333 
L 188.912729 217.91752 
L 186.257162 220.184996 
L 186.058913 220.410316 
L 183.802878 223.080659 
L 183.205096 224.062735 
L 182.11626 225.976322 
L 180.812391 228.871985 
L 180.35128 229.88864 
L 179.579228 231.767648 
L 178.252886 234.663311 
L 177.497464 236.104032 
L 176.809008 237.558974 
L 175.234037 240.454638 
L 174.643648 241.44919 
L 173.590384 243.350301 
L 171.979328 246.245964 
L 171.789832 246.592725 
L 170.411563 249.141627 
L 169.072668 252.03729 
L 168.936016 252.403055 
L 167.934625 254.932953 
L 167.170573 257.828616 
L 166.799396 260.724279 
L 166.780914 263.619943 
L 167.050635 266.515606 
L 167.545639 269.411269 
L 168.234832 272.306932 
L 168.936016 274.561343 
L 169.233227 275.202595 
L 171.301075 278.098258 
z
M 174.542744 269.411269 
L 172.918824 266.515606 
L 172.164223 263.619943 
L 172.011079 260.724279 
L 172.339037 257.828616 
L 173.087026 254.932953 
L 174.228328 252.03729 
L 174.643648 251.227322 
L 175.741841 249.141627 
L 177.497464 246.300875 
L 177.533117 246.245964 
L 179.535984 243.350301 
L 180.35128 242.211216 
L 181.674048 240.454638 
L 183.205096 238.403117 
L 183.869763 237.558974 
L 186.058913 234.673029 
L 186.066827 234.663311 
L 188.25672 231.767648 
L 188.912729 230.887729 
L 190.561212 228.871985 
L 191.766545 227.407434 
L 193.1491 225.976322 
L 194.620361 224.494011 
L 196.438293 223.080659 
L 197.474177 222.308649 
L 200.327993 220.918027 
L 203.181809 220.413336 
L 206.035625 221.99332 
L 206.545616 223.080659 
L 206.818582 225.976322 
L 206.547487 228.871985 
L 206.035625 231.736409 
L 206.029839 231.767648 
L 205.320414 234.663311 
L 204.549918 237.558974 
L 203.649892 240.454638 
L 203.181809 241.678297 
L 202.546548 243.350301 
L 201.252065 246.245964 
L 200.327993 247.957166 
L 199.68761 249.141627 
L 197.905505 252.03729 
L 197.474177 252.658032 
L 195.881654 254.932953 
L 194.620361 256.593393 
L 193.640805 257.828616 
L 191.766545 260.080519 
L 191.184029 260.724279 
L 188.912729 263.175685 
L 188.442058 263.619943 
L 186.058913 265.868997 
L 185.219348 266.515606 
L 183.205096 268.111302 
L 180.964159 269.411269 
L 180.35128 269.790086 
L 177.497464 270.522179 
L 174.643648 269.531083 
z
" style="fill:#2b4063;"/>
   </g>
   <g id="PathCollection_8">
    <path clip-path="url(#pe65175c039)" d="M 174.643648 269.531083 
L 177.497464 270.522179 
L 180.35128 269.790086 
L 180.964159 269.411269 
L 183.205096 268.111302 
L 185.219348 266.515606 
L 186.058913 265.868997 
L 188.442058 263.619943 
L 188.912729 263.175685 
L 191.184029 260.724279 
L 191.766545 260.080519 
L 193.640805 257.828616 
L 194.620361 256.593393 
L 195.881654 254.932953 
L 197.474177 252.658032 
L 197.905505 252.03729 
L 199.68761 249.141627 
L 200.327993 247.957166 
L 201.252065 246.245964 
L 202.546548 243.350301 
L 203.181809 241.678297 
L 203.649892 240.454638 
L 204.549918 237.558974 
L 205.320414 234.663311 
L 206.029839 231.767648 
L 206.035625 231.736409 
L 206.547487 228.871985 
L 206.818582 225.976322 
L 206.545616 223.080659 
L 206.035625 221.99332 
L 203.181809 220.413336 
L 200.327993 220.918027 
L 197.474177 222.308649 
L 196.438293 223.080659 
L 194.620361 224.494011 
L 193.1491 225.976322 
L 191.766545 227.407434 
L 190.561212 228.871985 
L 188.912729 230.887729 
L 188.25672 231.767648 
L 186.066827 234.663311 
L 186.058913 234.673029 
L 183.869763 237.558974 
L 183.205096 238.403117 
L 181.674048 240.454638 
L 180.35128 242.211216 
L 179.535984 243.350301 
L 177.533117 246.245964 
L 177.497464 246.300875 
L 175.741841 249.141627 
L 174.643648 251.227322 
L 174.228328 252.03729 
L 173.087026 254.932953 
L 172.339037 257.828616 
L 172.011079 260.724279 
L 172.164223 263.619943 
L 172.918824 266.515606 
L 174.542744 269.411269 
z
M 179.845881 260.724279 
L 178.520256 257.828616 
L 178.794948 254.932953 
L 179.760294 252.03729 
L 180.35128 250.883302 
L 181.360877 249.141627 
L 183.205096 246.303574 
L 183.248417 246.245964 
L 185.58474 243.350301 
L 186.058913 242.759335 
L 188.156795 240.454638 
L 188.912729 239.570489 
L 191.001769 237.558974 
L 191.766545 236.740732 
L 194.469291 234.663311 
L 194.620361 234.530065 
L 197.474177 234.134271 
L 197.852553 234.663311 
L 198.362445 237.558974 
L 198.024469 240.454638 
L 197.474177 242.473751 
L 197.182379 243.350301 
L 195.878825 246.245964 
L 194.620361 248.731689 
L 194.376182 249.141627 
L 192.426506 252.03729 
L 191.766545 252.948259 
L 190.09564 254.932953 
L 188.912729 256.30169 
L 187.267767 257.828616 
L 186.058913 258.943708 
L 183.317398 260.724279 
L 183.205096 260.798393 
L 180.35128 261.101596 
z
" style="fill:#19263b;"/>
   </g>
   <g id="PathCollection_9">
    <path clip-path="url(#pe65175c039)" d="M 180.35128 261.101596 
L 183.205096 260.798393 
L 183.317398 260.724279 
L 186.058913 258.943708 
L 187.267767 257.828616 
L 188.912729 256.30169 
L 190.09564 254.932953 
L 191.766545 252.948259 
L 192.426506 252.03729 
L 194.376182 249.141627 
L 194.620361 248.731689 
L 195.878825 246.245964 
L 197.182379 243.350301 
L 197.474177 242.473751 
L 198.024469 240.454638 
L 198.362445 237.558974 
L 197.852553 234.663311 
L 197.474177 234.134271 
L 194.620361 234.530065 
L 194.469291 234.663311 
L 191.766545 236.740732 
L 191.001769 237.558974 
L 188.912729 239.570489 
L 188.156795 240.454638 
L 186.058913 242.759335 
L 185.58474 243.350301 
L 183.248417 246.245964 
L 183.205096 246.303574 
L 181.360877 249.141627 
L 180.35128 250.883302 
L 179.760294 252.03729 
L 178.794948 254.932953 
L 178.520256 257.828616 
L 179.845881 260.724279 
z
" style="fill:#080d14;"/>
   </g>
   <g id="patch_3">
    <path d="M 29.241719 393.78 
L 29.241719 78.442286 
" style="fill:none;stroke:#ffffff;stroke-linecap:square;stroke-linejoin:miter;stroke-width:1.25;"/>
   </g>
   <g id="patch_4">
    <path d="M 29.241719 393.78 
L 340.02229 393.78 
" style="fill:none;stroke:#ffffff;stroke-linecap:square;stroke-linejoin:miter;stroke-width:1.25;"/>
   </g>
  </g>
  <g id="axes_2">
   <g id="patch_5">
    <path d="M 29.241719 67.568571 
L 340.02229 67.568571 
L 340.02229 13.2 
L 29.241719 13.2 
z
" style="fill:#eaeaf2;"/>
   </g>
   <g id="matplotlib.axis_3">
    <g id="xtick_6">
     <g id="line2d_15">
      <path clip-path="url(#p3f117026e9)" d="M 59.061746 67.568571 
L 59.061746 13.2 
" style="fill:none;stroke:#ffffff;stroke-linecap:round;"/>
     </g>
    </g>
    <g id="xtick_7">
     <g id="line2d_16">
      <path clip-path="url(#p3f117026e9)" d="M 125.001997 67.568571 
L 125.001997 13.2 
" style="fill:none;stroke:#ffffff;stroke-linecap:round;"/>
     </g>
    </g>
    <g id="xtick_8">
     <g id="line2d_17">
      <path clip-path="url(#p3f117026e9)" d="M 190.942249 67.568571 
L 190.942249 13.2 
" style="fill:none;stroke:#ffffff;stroke-linecap:round;"/>
     </g>
    </g>
    <g id="xtick_9">
     <g id="line2d_18">
      <path clip-path="url(#p3f117026e9)" d="M 256.8825 67.568571 
L 256.8825 13.2 
" style="fill:none;stroke:#ffffff;stroke-linecap:round;"/>
     </g>
    </g>
    <g id="xtick_10">
     <g id="line2d_19">
      <path clip-path="url(#p3f117026e9)" d="M 322.822751 67.568571 
L 322.822751 13.2 
" style="fill:none;stroke:#ffffff;stroke-linecap:round;"/>
     </g>
    </g>
   </g>
   <g id="matplotlib.axis_4">
    <g id="ytick_10"/>
    <g id="ytick_11"/>
   </g>
   <g id="PolyCollection_1">
    <defs>
     <path d="M 49.904635 -352.974479 
L 49.904635 -352.971272 
L 52.6264 -352.971272 
L 55.348165 -352.971272 
L 58.06993 -352.971272 
L 60.791695 -352.971272 
L 63.51346 -352.971272 
L 66.235225 -352.971272 
L 68.95699 -352.971272 
L 71.678755 -352.971272 
L 74.40052 -352.971272 
L 77.122285 -352.971272 
L 79.84405 -352.971272 
L 82.565815 -352.971272 
L 85.28758 -352.971272 
L 88.009345 -352.971272 
L 90.73111 -352.971272 
L 93.452875 -352.971272 
L 96.17464 -352.971272 
L 98.896406 -352.971272 
L 101.618171 -352.971272 
L 104.339936 -352.971272 
L 107.061701 -352.971272 
L 109.783466 -352.971272 
L 112.505231 -352.971272 
L 115.226996 -352.971272 
L 117.948761 -352.971272 
L 120.670526 -352.971272 
L 123.392291 -352.971272 
L 126.114056 -352.971272 
L 128.835821 -352.971272 
L 131.557586 -352.971272 
L 134.279351 -352.971272 
L 137.001116 -352.971272 
L 139.722881 -352.971272 
L 142.444646 -352.971272 
L 145.166411 -352.971272 
L 147.888176 -352.971272 
L 150.609941 -352.971272 
L 153.331706 -352.971272 
L 156.053471 -352.971272 
L 158.775237 -352.971272 
L 161.497002 -352.971272 
L 164.218767 -352.971272 
L 166.940532 -352.971272 
L 169.662297 -352.971272 
L 172.384062 -352.971272 
L 175.105827 -352.971272 
L 177.827592 -352.971272 
L 180.549357 -352.971272 
L 183.271122 -352.971272 
L 185.992887 -352.971272 
L 188.714652 -352.971272 
L 191.436417 -352.971272 
L 194.158182 -352.971272 
L 196.879947 -352.971272 
L 199.601712 -352.971272 
L 202.323477 -352.971272 
L 205.045242 -352.971272 
L 207.767007 -352.971272 
L 210.488772 -352.971272 
L 213.210537 -352.971272 
L 215.932302 -352.971272 
L 218.654068 -352.971272 
L 221.375833 -352.971272 
L 224.097598 -352.971272 
L 226.819363 -352.971272 
L 229.541128 -352.971272 
L 232.262893 -352.971272 
L 234.984658 -352.971272 
L 237.706423 -352.971272 
L 240.428188 -352.971272 
L 243.149953 -352.971272 
L 245.871718 -352.971272 
L 248.593483 -352.971272 
L 251.315248 -352.971272 
L 254.037013 -352.971272 
L 256.758778 -352.971272 
L 259.480543 -352.971272 
L 262.202308 -352.971272 
L 264.924073 -352.971272 
L 267.645838 -352.971272 
L 270.367603 -352.971272 
L 273.089368 -352.971272 
L 275.811133 -352.971272 
L 278.532899 -352.971272 
L 281.254664 -352.971272 
L 283.976429 -352.971272 
L 286.698194 -352.971272 
L 289.419959 -352.971272 
L 292.141724 -352.971272 
L 294.863489 -352.971272 
L 297.585254 -352.971272 
L 300.307019 -352.971272 
L 303.028784 -352.971272 
L 305.750549 -352.971272 
L 308.472314 -352.971272 
L 311.194079 -352.971272 
L 313.915844 -352.971272 
L 316.637609 -352.971272 
L 319.359374 -352.971272 
L 319.359374 -352.973949 
L 319.359374 -352.973949 
L 316.637609 -352.978209 
L 313.915844 -352.987594 
L 311.194079 -353.006228 
L 308.472314 -353.039608 
L 305.750549 -353.093639 
L 303.028784 -353.172842 
L 300.307019 -353.278261 
L 297.585254 -353.406118 
L 294.863489 -353.54817 
L 292.141724 -353.694175 
L 289.419959 -353.836075 
L 286.698194 -353.972829 
L 283.976429 -354.114448 
L 281.254664 -354.283589 
L 278.532899 -354.513464 
L 275.811133 -354.842061 
L 273.089368 -355.304177 
L 270.367603 -355.923678 
L 267.645838 -356.708125 
L 264.924073 -357.647182 
L 262.202308 -358.71589 
L 259.480543 -359.883814 
L 256.758778 -361.129735 
L 254.037013 -362.458131 
L 251.315248 -363.909223 
L 248.593483 -365.553154 
L 245.871718 -367.46462 
L 243.149953 -369.685907 
L 240.428188 -372.19612 
L 237.706423 -374.903653 
L 234.984658 -377.666792 
L 232.262893 -380.332354 
L 229.541128 -382.774611 
L 226.819363 -384.919915 
L 224.097598 -386.752195 
L 221.375833 -388.304857 
L 218.654068 -389.649849 
L 215.932302 -390.890831 
L 213.210537 -392.155797 
L 210.488772 -393.574999 
L 207.767007 -395.235671 
L 205.045242 -397.127403 
L 202.323477 -399.113993 
L 199.601712 -400.965121 
L 196.879947 -402.447596 
L 194.158182 -403.432669 
L 191.436417 -403.957043 
L 188.714652 -404.197063 
L 185.992887 -404.36404 
L 183.271122 -404.572678 
L 180.549357 -404.750864 
L 177.827592 -404.641303 
L 175.105827 -403.901661 
L 172.384062 -402.258277 
L 169.662297 -399.636409 
L 166.940532 -396.200567 
L 164.218767 -392.289639 
L 161.497002 -388.290163 
L 158.775237 -384.517256 
L 156.053471 -381.153332 
L 153.331706 -378.251806 
L 150.609941 -375.779604 
L 147.888176 -373.6649 
L 145.166411 -371.828819 
L 142.444646 -370.197079 
L 139.722881 -368.699893 
L 137.001116 -367.272357 
L 134.279351 -365.862853 
L 131.557586 -364.446978 
L 128.835821 -363.036541 
L 126.114056 -361.674367 
L 123.392291 -360.415326 
L 120.670526 -359.303784 
L 117.948761 -358.359168 
L 115.226996 -357.574423 
L 112.505231 -356.923934 
L 109.783466 -356.374444 
L 107.061701 -355.894652 
L 104.339936 -355.462089 
L 101.618171 -355.066673 
L 98.896406 -354.710057 
L 96.17464 -354.400861 
L 93.452875 -354.147932 
L 90.73111 -353.95484 
L 88.009345 -353.817522 
L 85.28758 -353.724782 
L 82.565815 -353.660347 
L 79.84405 -353.605934 
L 77.122285 -353.545408 
L 74.40052 -353.469305 
L 71.678755 -353.377605 
L 68.95699 -353.278743 
L 66.235225 -353.185005 
L 63.51346 -353.106898 
L 60.791695 -353.049513 
L 58.06993 -353.012197 
L 55.348165 -352.990648 
L 52.6264 -352.979566 
L 49.904635 -352.974479 
z
" id="ma0b35e71ed" style="stroke:#ffffff;stroke-opacity:0.25;"/>
    </defs>
    <g clip-path="url(#p3f117026e9)">
     <use style="fill:#4c72b0;fill-opacity:0.25;stroke:#ffffff;stroke-opacity:0.25;" x="0" xlink:href="#ma0b35e71ed" y="420.539844"/>
    </g>
   </g>
   <g id="line2d_20">
    <path clip-path="url(#p3f117026e9)" d="M 49.904635 67.565365 
L 52.6264 67.560278 
L 55.348165 67.549196 
L 58.06993 67.527647 
L 60.791695 67.490331 
L 63.51346 67.432945 
L 66.235225 67.354838 
L 68.95699 67.261101 
L 71.678755 67.162239 
L 74.40052 67.070539 
L 77.122285 66.994435 
L 79.84405 66.933909 
L 82.565815 66.879497 
L 85.28758 66.815062 
L 88.009345 66.722322 
L 90.73111 66.585004 
L 93.452875 66.391912 
L 96.17464 66.138983 
L 98.896406 65.829787 
L 101.618171 65.47317 
L 104.339936 65.077754 
L 107.061701 64.645192 
L 109.783466 64.1654 
L 112.505231 63.61591 
L 115.226996 62.96542 
L 117.948761 62.180676 
L 120.670526 61.23606 
L 123.392291 60.124518 
L 126.114056 58.865477 
L 128.835821 57.503303 
L 131.557586 56.092865 
L 134.279351 54.67699 
L 137.001116 53.267487 
L 139.722881 51.839951 
L 142.444646 50.342765 
L 145.166411 48.711025 
L 147.888176 46.874944 
L 150.609941 44.76024 
L 153.331706 42.288038 
L 156.053471 39.386512 
L 158.775237 36.022588 
L 161.497002 32.249681 
L 164.218767 28.250205 
L 166.940532 24.339277 
L 169.662297 20.903434 
L 172.384062 18.281567 
L 175.105827 16.638183 
L 177.827592 15.898541 
L 180.549357 15.78898 
L 183.271122 15.967166 
L 185.992887 16.175804 
L 188.714652 16.34278 
L 191.436417 16.582801 
L 194.158182 17.107175 
L 196.879947 18.092248 
L 199.601712 19.574722 
L 202.323477 21.425851 
L 205.045242 23.412441 
L 207.767007 25.304173 
L 210.488772 26.964844 
L 213.210537 28.384047 
L 215.932302 29.649013 
L 218.654068 30.889995 
L 221.375833 32.234986 
L 224.097598 33.787649 
L 226.819363 35.619929 
L 229.541128 37.765233 
L 232.262893 40.20749 
L 234.984658 42.873051 
L 237.706423 45.636191 
L 240.428188 48.343723 
L 243.149953 50.853937 
L 245.871718 53.075224 
L 248.593483 54.98669 
L 251.315248 56.630621 
L 254.037013 58.081712 
L 256.758778 59.410109 
L 259.480543 60.65603 
L 262.202308 61.823953 
L 264.924073 62.892662 
L 267.645838 63.831719 
L 270.367603 64.616166 
L 273.089368 65.235667 
L 275.811133 65.697783 
L 278.532899 66.02638 
L 281.254664 66.256255 
L 283.976429 66.425395 
L 286.698194 66.567015 
L 289.419959 66.703769 
L 292.141724 66.845668 
L 294.863489 66.991674 
L 297.585254 67.133726 
L 300.307019 67.261582 
L 303.028784 67.367002 
L 305.750549 67.446204 
L 308.472314 67.500236 
L 311.194079 67.533616 
L 313.915844 67.55225 
L 316.637609 67.561635 
L 319.359374 67.565895 
" style="fill:none;stroke:#4c72b0;stroke-linecap:round;stroke-width:1.5;"/>
   </g>
   <g id="patch_6">
    <path d="M 29.241719 67.568571 
L 340.02229 67.568571 
" style="fill:none;stroke:#ffffff;stroke-linecap:square;stroke-linejoin:miter;stroke-width:1.25;"/>
   </g>
  </g>
  <g id="axes_3">
   <g id="patch_7">
    <path d="M 350.738862 393.78 
L 404.321719 393.78 
L 404.321719 78.442286 
L 350.738862 78.442286 
z
" style="fill:#eaeaf2;"/>
   </g>
   <g id="matplotlib.axis_5">
    <g id="xtick_11"/>
    <g id="xtick_12"/>
   </g>
   <g id="matplotlib.axis_6">
    <g id="ytick_12">
     <g id="line2d_21">
      <path clip-path="url(#p2019342d8b)" d="M 350.738862 387.52579 
L 404.321719 387.52579 
" style="fill:none;stroke:#ffffff;stroke-linecap:round;"/>
     </g>
    </g>
    <g id="ytick_13">
     <g id="line2d_22">
      <path clip-path="url(#p2019342d8b)" d="M 350.738862 351.090208 
L 404.321719 351.090208 
" style="fill:none;stroke:#ffffff;stroke-linecap:round;"/>
     </g>
    </g>
    <g id="ytick_14">
     <g id="line2d_23">
      <path clip-path="url(#p2019342d8b)" d="M 350.738862 314.654627 
L 404.321719 314.654627 
" style="fill:none;stroke:#ffffff;stroke-linecap:round;"/>
     </g>
    </g>
    <g id="ytick_15">
     <g id="line2d_24">
      <path clip-path="url(#p2019342d8b)" d="M 350.738862 278.219046 
L 404.321719 278.219046 
" style="fill:none;stroke:#ffffff;stroke-linecap:round;"/>
     </g>
    </g>
    <g id="ytick_16">
     <g id="line2d_25">
      <path clip-path="url(#p2019342d8b)" d="M 350.738862 241.783464 
L 404.321719 241.783464 
" style="fill:none;stroke:#ffffff;stroke-linecap:round;"/>
     </g>
    </g>
    <g id="ytick_17">
     <g id="line2d_26">
      <path clip-path="url(#p2019342d8b)" d="M 350.738862 205.347883 
L 404.321719 205.347883 
" style="fill:none;stroke:#ffffff;stroke-linecap:round;"/>
     </g>
    </g>
    <g id="ytick_18">
     <g id="line2d_27">
      <path clip-path="url(#p2019342d8b)" d="M 350.738862 168.912301 
L 404.321719 168.912301 
" style="fill:none;stroke:#ffffff;stroke-linecap:round;"/>
     </g>
    </g>
    <g id="ytick_19">
     <g id="line2d_28">
      <path clip-path="url(#p2019342d8b)" d="M 350.738862 132.47672 
L 404.321719 132.47672 
" style="fill:none;stroke:#ffffff;stroke-linecap:round;"/>
     </g>
    </g>
    <g id="ytick_20">
     <g id="line2d_29">
      <path clip-path="url(#p2019342d8b)" d="M 350.738862 96.041138 
L 404.321719 96.041138 
" style="fill:none;stroke:#ffffff;stroke-linecap:round;"/>
     </g>
    </g>
   </g>
   <g id="PolyCollection_2">
    <defs>
     <path d="M 350.742215 -48.321047 
L 350.738862 -48.321047 
L 350.738862 -51.070696 
L 350.738862 -53.820346 
L 350.738862 -56.569996 
L 350.738862 -59.319645 
L 350.738862 -62.069295 
L 350.738862 -64.818944 
L 350.738862 -67.568594 
L 350.738862 -70.318243 
L 350.738862 -73.067893 
L 350.738862 -75.817543 
L 350.738862 -78.567192 
L 350.738862 -81.316842 
L 350.738862 -84.066491 
L 350.738862 -86.816141 
L 350.738862 -89.56579 
L 350.738862 -92.31544 
L 350.738862 -95.06509 
L 350.738862 -97.814739 
L 350.738862 -100.564389 
L 350.738862 -103.314038 
L 350.738862 -106.063688 
L 350.738862 -108.813338 
L 350.738862 -111.562987 
L 350.738862 -114.312637 
L 350.738862 -117.062286 
L 350.738862 -119.811936 
L 350.738862 -122.561585 
L 350.738862 -125.311235 
L 350.738862 -128.060885 
L 350.738862 -130.810534 
L 350.738862 -133.560184 
L 350.738862 -136.309833 
L 350.738862 -139.059483 
L 350.738862 -141.809132 
L 350.738862 -144.558782 
L 350.738862 -147.308432 
L 350.738862 -150.058081 
L 350.738862 -152.807731 
L 350.738862 -155.55738 
L 350.738862 -158.30703 
L 350.738862 -161.056679 
L 350.738862 -163.806329 
L 350.738862 -166.555979 
L 350.738862 -169.305628 
L 350.738862 -172.055278 
L 350.738862 -174.804927 
L 350.738862 -177.554577 
L 350.738862 -180.304227 
L 350.738862 -183.053876 
L 350.738862 -185.803526 
L 350.738862 -188.553175 
L 350.738862 -191.302825 
L 350.738862 -194.052474 
L 350.738862 -196.802124 
L 350.738862 -199.551774 
L 350.738862 -202.301423 
L 350.738862 -205.051073 
L 350.738862 -207.800722 
L 350.738862 -210.550372 
L 350.738862 -213.300021 
L 350.738862 -216.049671 
L 350.738862 -218.799321 
L 350.738862 -221.54897 
L 350.738862 -224.29862 
L 350.738862 -227.048269 
L 350.738862 -229.797919 
L 350.738862 -232.547568 
L 350.738862 -235.297218 
L 350.738862 -238.046868 
L 350.738862 -240.796517 
L 350.738862 -243.546167 
L 350.738862 -246.295816 
L 350.738862 -249.045466 
L 350.738862 -251.795116 
L 350.738862 -254.544765 
L 350.738862 -257.294415 
L 350.738862 -260.044064 
L 350.738862 -262.793714 
L 350.738862 -265.543363 
L 350.738862 -268.293013 
L 350.738862 -271.042663 
L 350.738862 -273.792312 
L 350.738862 -276.541962 
L 350.738862 -279.291611 
L 350.738862 -282.041261 
L 350.738862 -284.79091 
L 350.738862 -287.54056 
L 350.738862 -290.29021 
L 350.738862 -293.039859 
L 350.738862 -295.789509 
L 350.738862 -298.539158 
L 350.738862 -301.288808 
L 350.738862 -304.038457 
L 350.738862 -306.788107 
L 350.738862 -309.537757 
L 350.738862 -312.287406 
L 350.738862 -315.037056 
L 350.738862 -317.786705 
L 350.738862 -320.536355 
L 350.74131 -320.536355 
L 350.74131 -320.536355 
L 350.744581 -317.786705 
L 350.751129 -315.037056 
L 350.763048 -312.287406 
L 350.782767 -309.537757 
L 350.812447 -306.788107 
L 350.853192 -304.038457 
L 350.904575 -301.288808 
L 350.965045 -298.539158 
L 351.033483 -295.789509 
L 351.111528 -293.039859 
L 351.205609 -290.29021 
L 351.327548 -287.54056 
L 351.493168 -284.79091 
L 351.719351 -282.041261 
L 352.020669 -279.291611 
L 352.406904 -276.541962 
L 352.882303 -273.792312 
L 353.446788 -271.042663 
L 354.098681 -268.293013 
L 354.838044 -265.543363 
L 355.669215 -262.793714 
L 356.60094 -260.044064 
L 357.643006 -257.294415 
L 358.800132 -254.544765 
L 360.066511 -251.795116 
L 361.425866 -249.045466 
L 362.85982 -246.295816 
L 364.362012 -243.546167 
L 365.950073 -240.796517 
L 367.666778 -238.046868 
L 369.566852 -235.297218 
L 371.693957 -232.547568 
L 374.057881 -229.797919 
L 376.621749 -227.048269 
L 379.303949 -224.29862 
L 381.993207 -221.54897 
L 384.571153 -218.799321 
L 386.935759 -216.049671 
L 389.019588 -213.300021 
L 390.797984 -210.550372 
L 392.28473 -207.800722 
L 393.517651 -205.051073 
L 394.542246 -202.301423 
L 395.40274 -199.551774 
L 396.143732 -196.802124 
L 396.815823 -194.052474 
L 397.474075 -191.302825 
L 398.164394 -188.553175 
L 398.904831 -185.803526 
L 399.675006 -183.053876 
L 400.420948 -180.304227 
L 401.07024 -177.554577 
L 401.545619 -174.804927 
L 401.770154 -172.055278 
L 401.667926 -169.305628 
L 401.169241 -166.555979 
L 400.224245 -163.806329 
L 398.81938 -161.056679 
L 396.98721 -158.30703 
L 394.80478 -155.55738 
L 392.383005 -152.807731 
L 389.852098 -150.058081 
L 387.344672 -147.308432 
L 384.974622 -144.558782 
L 382.812178 -141.809132 
L 380.862895 -139.059483 
L 379.06356 -136.309833 
L 377.303907 -133.560184 
L 375.469922 -130.810534 
L 373.490735 -128.060885 
L 371.367034 -125.311235 
L 369.168372 -122.561585 
L 367.003319 -119.811936 
L 364.979117 -117.062286 
L 363.169376 -114.312637 
L 361.600607 -111.562987 
L 360.257955 -108.813338 
L 359.102909 -106.063688 
L 358.093154 -103.314038 
L 357.196211 -100.564389 
L 356.392892 -97.814739 
L 355.672261 -95.06509 
L 355.023948 -92.31544 
L 354.433984 -89.56579 
L 353.886618 -86.816141 
L 353.369901 -84.066491 
L 352.880481 -81.316842 
L 352.424356 -78.567192 
L 352.013409 -75.817543 
L 351.659986 -73.067893 
L 351.372178 -70.318243 
L 351.151401 -67.568594 
L 350.992471 -64.818944 
L 350.885454 -62.069295 
L 350.818255 -59.319645 
L 350.779019 -56.569996 
L 350.757776 -53.820346 
L 350.747135 -51.070696 
L 350.742215 -48.321047 
z
" id="m287567537b" style="stroke:#ffffff;stroke-opacity:0.25;"/>
    </defs>
    <g clip-path="url(#p2019342d8b)">
     <use style="fill:#4c72b0;fill-opacity:0.25;stroke:#ffffff;stroke-opacity:0.25;" x="0" xlink:href="#m287567537b" y="420.539844"/>
    </g>
   </g>
   <g id="line2d_30">
    <path clip-path="url(#p2019342d8b)" d="M 350.742215 372.218797 
L 350.747135 369.469147 
L 350.757776 366.719498 
L 350.779019 363.969848 
L 350.818255 361.220199 
L 350.885454 358.470549 
L 350.992471 355.720899 
L 351.151401 352.97125 
L 351.372178 350.2216 
L 351.659986 347.471951 
L 352.013409 344.722301 
L 352.424356 341.972652 
L 352.880481 339.223002 
L 353.369901 336.473352 
L 353.886618 333.723703 
L 354.433984 330.974053 
L 355.023948 328.224404 
L 355.672261 325.474754 
L 356.392892 322.725105 
L 357.196211 319.975455 
L 358.093154 317.225805 
L 359.102909 314.476156 
L 360.257955 311.726506 
L 361.600607 308.976857 
L 363.169376 306.227207 
L 364.979117 303.477557 
L 367.003319 300.727908 
L 369.168372 297.978258 
L 371.367034 295.228609 
L 373.490735 292.478959 
L 375.469922 289.72931 
L 377.303907 286.97966 
L 379.06356 284.23001 
L 380.862895 281.480361 
L 382.812178 278.730711 
L 384.974622 275.981062 
L 387.344672 273.231412 
L 389.852098 270.481763 
L 392.383005 267.732113 
L 394.80478 264.982463 
L 396.98721 262.232814 
L 398.81938 259.483164 
L 400.224245 256.733515 
L 401.169241 253.983865 
L 401.667926 251.234216 
L 401.770154 248.484566 
L 401.545619 245.734916 
L 401.07024 242.985267 
L 400.420948 240.235617 
L 399.675006 237.485968 
L 398.904831 234.736318 
L 398.164394 231.986668 
L 397.474075 229.237019 
L 396.815823 226.487369 
L 396.143732 223.73772 
L 395.40274 220.98807 
L 394.542246 218.238421 
L 393.517651 215.488771 
L 392.28473 212.739121 
L 390.797984 209.989472 
L 389.019588 207.239822 
L 386.935759 204.490173 
L 384.571153 201.740523 
L 381.993207 198.990874 
L 379.303949 196.241224 
L 376.621749 193.491574 
L 374.057881 190.741925 
L 371.693957 187.992275 
L 369.566852 185.242626 
L 367.666778 182.492976 
L 365.950073 179.743327 
L 364.362012 176.993677 
L 362.85982 174.244027 
L 361.425866 171.494378 
L 360.066511 168.744728 
L 358.800132 165.995079 
L 357.643006 163.245429 
L 356.60094 160.495779 
L 355.669215 157.74613 
L 354.838044 154.99648 
L 354.098681 152.246831 
L 353.446788 149.497181 
L 352.882303 146.747532 
L 352.406904 143.997882 
L 352.020669 141.248232 
L 351.719351 138.498583 
L 351.493168 135.748933 
L 351.327548 132.999284 
L 351.205609 130.249634 
L 351.111528 127.499985 
L 351.033483 124.750335 
L 350.965045 122.000685 
L 350.904575 119.251036 
L 350.853192 116.501386 
L 350.812447 113.751737 
L 350.782767 111.002087 
L 350.763048 108.252438 
L 350.751129 105.502788 
L 350.744581 102.753138 
L 350.74131 100.003489 
" style="fill:none;stroke:#4c72b0;stroke-linecap:round;stroke-width:1.5;"/>
   </g>
   <g id="patch_8">
    <path d="M 350.738862 393.78 
L 350.738862 78.442286 
" style="fill:none;stroke:#ffffff;stroke-linecap:square;stroke-linejoin:miter;stroke-width:1.25;"/>
   </g>
  </g>
 </g>
 <defs>
  <clipPath id="pe65175c039">
   <rect height="315.337714" width="310.780571" x="29.241719" y="78.442286"/>
  </clipPath>
  <clipPath id="p3f117026e9">
   <rect height="54.368571" width="310.780571" x="29.241719" y="13.2"/>
  </clipPath>
  <clipPath id="p2019342d8b">
   <rect height="315.337714" width="53.582857" x="350.738862" y="78.442286"/>
  </clipPath>
 </defs>
</svg>
