<?xml version="1.0" encoding="utf-8" standalone="no"?>
<!DOCTYPE svg PUBLIC "-//W3C//DTD SVG 1.1//EN"
  "http://www.w3.org/Graphics/SVG/1.1/DTD/svg11.dtd">
<!-- Created with matplotlib (https://matplotlib.org/) -->
<svg height="420.539844pt" version="1.1" viewBox="0 0 417.521719 420.539844" width="417.521719pt" xmlns="http://www.w3.org/2000/svg" xmlns:xlink="http://www.w3.org/1999/xlink">
 <defs>
  <style type="text/css">
*{stroke-linecap:butt;stroke-linejoin:round;}
  </style>
 </defs>
 <g id="figure_1">
  <g id="patch_1">
   <path d="M 0 420.539844 
L 417.521719 420.539844 
L 417.521719 0 
L 0 0 
z
" style="fill:#ffffff;"/>
  </g>
  <g id="axes_1">
   <g id="patch_2">
    <path d="M 29.241719 393.78 
L 340.02229 393.78 
L 340.02229 78.442286 
L 29.241719 78.442286 
z
" style="fill:#eaeaf2;"/>
   </g>
   <g id="matplotlib.axis_1">
    <g id="xtick_1">
     <g id="line2d_1">
      <path clip-path="url(#pc6f723671d)" d="M 59.229001 393.78 
L 59.229001 78.442286 
" style="fill:none;stroke:#ffffff;stroke-linecap:round;"/>
     </g>
     <g id="text_1">
      <!-- −4 -->
      <defs>
       <path d="M 52.828125 31.203125 
L 5.5625 31.203125 
L 5.5625 39.40625 
L 52.828125 39.40625 
z
" id="ArialMT-8722"/>
       <path d="M 32.328125 0 
L 32.328125 17.140625 
L 1.265625 17.140625 
L 1.265625 25.203125 
L 33.9375 71.578125 
L 41.109375 71.578125 
L 41.109375 25.203125 
L 50.78125 25.203125 
L 50.78125 17.140625 
L 41.109375 17.140625 
L 41.109375 0 
z
M 32.328125 25.203125 
L 32.328125 57.46875 
L 9.90625 25.203125 
z
" id="ArialMT-52"/>
      </defs>
      <g style="fill:#262626;" transform="translate(52.958141 411.153594)scale(0.11 -0.11)">
       <use xlink:href="#ArialMT-8722"/>
       <use x="58.398438" xlink:href="#ArialMT-52"/>
      </g>
     </g>
    </g>
    <g id="xtick_2">
     <g id="line2d_2">
      <path clip-path="url(#pc6f723671d)" d="M 118.327933 393.78 
L 118.327933 78.442286 
" style="fill:none;stroke:#ffffff;stroke-linecap:round;"/>
     </g>
     <g id="text_2">
      <!-- −2 -->
      <defs>
       <path d="M 50.34375 8.453125 
L 50.34375 0 
L 3.03125 0 
Q 2.9375 3.171875 4.046875 6.109375 
Q 5.859375 10.9375 9.828125 15.625 
Q 13.8125 20.3125 21.34375 26.46875 
Q 33.015625 36.03125 37.109375 41.625 
Q 41.21875 47.21875 41.21875 52.203125 
Q 41.21875 57.421875 37.46875 61 
Q 33.734375 64.59375 27.734375 64.59375 
Q 21.390625 64.59375 17.578125 60.78125 
Q 13.765625 56.984375 13.71875 50.25 
L 4.6875 51.171875 
Q 5.609375 61.28125 11.65625 66.578125 
Q 17.71875 71.875 27.9375 71.875 
Q 38.234375 71.875 44.234375 66.15625 
Q 50.25 60.453125 50.25 52 
Q 50.25 47.703125 48.484375 43.546875 
Q 46.734375 39.40625 42.65625 34.8125 
Q 38.578125 30.21875 29.109375 22.21875 
Q 21.1875 15.578125 18.9375 13.203125 
Q 16.703125 10.84375 15.234375 8.453125 
z
" id="ArialMT-50"/>
      </defs>
      <g style="fill:#262626;" transform="translate(112.057073 411.153594)scale(0.11 -0.11)">
       <use xlink:href="#ArialMT-8722"/>
       <use x="58.398438" xlink:href="#ArialMT-50"/>
      </g>
     </g>
    </g>
    <g id="xtick_3">
     <g id="line2d_3">
      <path clip-path="url(#pc6f723671d)" d="M 177.426865 393.78 
L 177.426865 78.442286 
" style="fill:none;stroke:#ffffff;stroke-linecap:round;"/>
     </g>
     <g id="text_3">
      <!-- 0 -->
      <defs>
       <path d="M 4.15625 35.296875 
Q 4.15625 48 6.765625 55.734375 
Q 9.375 63.484375 14.515625 67.671875 
Q 19.671875 71.875 27.484375 71.875 
Q 33.25 71.875 37.59375 69.546875 
Q 41.9375 67.234375 44.765625 62.859375 
Q 47.609375 58.5 49.21875 52.21875 
Q 50.828125 45.953125 50.828125 35.296875 
Q 50.828125 22.703125 48.234375 14.96875 
Q 45.65625 7.234375 40.5 3 
Q 35.359375 -1.21875 27.484375 -1.21875 
Q 17.140625 -1.21875 11.234375 6.203125 
Q 4.15625 15.140625 4.15625 35.296875 
z
M 13.1875 35.296875 
Q 13.1875 17.671875 17.3125 11.828125 
Q 21.4375 6 27.484375 6 
Q 33.546875 6 37.671875 11.859375 
Q 41.796875 17.71875 41.796875 35.296875 
Q 41.796875 52.984375 37.671875 58.78125 
Q 33.546875 64.59375 27.390625 64.59375 
Q 21.34375 64.59375 17.71875 59.46875 
Q 13.1875 52.9375 13.1875 35.296875 
z
" id="ArialMT-48"/>
      </defs>
      <g style="fill:#262626;" transform="translate(174.368349 411.153594)scale(0.11 -0.11)">
       <use xlink:href="#ArialMT-48"/>
      </g>
     </g>
    </g>
    <g id="xtick_4">
     <g id="line2d_4">
      <path clip-path="url(#pc6f723671d)" d="M 236.525797 393.78 
L 236.525797 78.442286 
" style="fill:none;stroke:#ffffff;stroke-linecap:round;"/>
     </g>
     <g id="text_4">
      <!-- 2 -->
      <g style="fill:#262626;" transform="translate(233.467282 411.153594)scale(0.11 -0.11)">
       <use xlink:href="#ArialMT-50"/>
      </g>
     </g>
    </g>
    <g id="xtick_5">
     <g id="line2d_5">
      <path clip-path="url(#pc6f723671d)" d="M 295.62473 393.78 
L 295.62473 78.442286 
" style="fill:none;stroke:#ffffff;stroke-linecap:round;"/>
     </g>
     <g id="text_5">
      <!-- 4 -->
      <g style="fill:#262626;" transform="translate(292.566214 411.153594)scale(0.11 -0.11)">
       <use xlink:href="#ArialMT-52"/>
      </g>
     </g>
    </g>
   </g>
   <g id="matplotlib.axis_2">
    <g id="ytick_1">
     <g id="line2d_6">
      <path clip-path="url(#pc6f723671d)" d="M 29.241719 375.137997 
L 340.02229 375.137997 
" style="fill:none;stroke:#ffffff;stroke-linecap:round;"/>
     </g>
     <g id="text_6">
      <!-- −4 -->
      <g style="fill:#262626;" transform="translate(7.2 379.074794)scale(0.11 -0.11)">
       <use xlink:href="#ArialMT-8722"/>
       <use x="58.398438" xlink:href="#ArialMT-52"/>
      </g>
     </g>
    </g>
    <g id="ytick_2">
     <g id="line2d_7">
      <path clip-path="url(#pc6f723671d)" d="M 29.241719 338.411356 
L 340.02229 338.411356 
" style="fill:none;stroke:#ffffff;stroke-linecap:round;"/>
     </g>
     <g id="text_7">
      <!-- −3 -->
      <defs>
       <path d="M 4.203125 18.890625 
L 12.984375 20.0625 
Q 14.5 12.59375 18.140625 9.296875 
Q 21.78125 6 27 6 
Q 33.203125 6 37.46875 10.296875 
Q 41.75 14.59375 41.75 20.953125 
Q 41.75 27 37.796875 30.921875 
Q 33.84375 34.859375 27.734375 34.859375 
Q 25.25 34.859375 21.53125 33.890625 
L 22.515625 41.609375 
Q 23.390625 41.5 23.921875 41.5 
Q 29.546875 41.5 34.03125 44.421875 
Q 38.53125 47.359375 38.53125 53.46875 
Q 38.53125 58.296875 35.25 61.46875 
Q 31.984375 64.65625 26.8125 64.65625 
Q 21.6875 64.65625 18.265625 61.421875 
Q 14.84375 58.203125 13.875 51.765625 
L 5.078125 53.328125 
Q 6.6875 62.15625 12.390625 67.015625 
Q 18.109375 71.875 26.609375 71.875 
Q 32.46875 71.875 37.390625 69.359375 
Q 42.328125 66.84375 44.9375 62.5 
Q 47.5625 58.15625 47.5625 53.265625 
Q 47.5625 48.640625 45.0625 44.828125 
Q 42.578125 41.015625 37.703125 38.765625 
Q 44.046875 37.3125 47.5625 32.6875 
Q 51.078125 28.078125 51.078125 21.140625 
Q 51.078125 11.765625 44.234375 5.25 
Q 37.40625 -1.265625 26.953125 -1.265625 
Q 17.53125 -1.265625 11.296875 4.34375 
Q 5.078125 9.96875 4.203125 18.890625 
z
" id="ArialMT-51"/>
      </defs>
      <g style="fill:#262626;" transform="translate(7.2 342.348153)scale(0.11 -0.11)">
       <use xlink:href="#ArialMT-8722"/>
       <use x="58.398438" xlink:href="#ArialMT-51"/>
      </g>
     </g>
    </g>
    <g id="ytick_3">
     <g id="line2d_8">
      <path clip-path="url(#pc6f723671d)" d="M 29.241719 301.684714 
L 340.02229 301.684714 
" style="fill:none;stroke:#ffffff;stroke-linecap:round;"/>
     </g>
     <g id="text_8">
      <!-- −2 -->
      <g style="fill:#262626;" transform="translate(7.2 305.621511)scale(0.11 -0.11)">
       <use xlink:href="#ArialMT-8722"/>
       <use x="58.398438" xlink:href="#ArialMT-50"/>
      </g>
     </g>
    </g>
    <g id="ytick_4">
     <g id="line2d_9">
      <path clip-path="url(#pc6f723671d)" d="M 29.241719 264.958073 
L 340.02229 264.958073 
" style="fill:none;stroke:#ffffff;stroke-linecap:round;"/>
     </g>
     <g id="text_9">
      <!-- −1 -->
      <defs>
       <path d="M 37.25 0 
L 28.46875 0 
L 28.46875 56 
Q 25.296875 52.984375 20.140625 49.953125 
Q 14.984375 46.921875 10.890625 45.40625 
L 10.890625 53.90625 
Q 18.265625 57.375 23.78125 62.296875 
Q 29.296875 67.234375 31.59375 71.875 
L 37.25 71.875 
z
" id="ArialMT-49"/>
      </defs>
      <g style="fill:#262626;" transform="translate(7.2 268.89487)scale(0.11 -0.11)">
       <use xlink:href="#ArialMT-8722"/>
       <use x="58.398438" xlink:href="#ArialMT-49"/>
      </g>
     </g>
    </g>
    <g id="ytick_5">
     <g id="line2d_10">
      <path clip-path="url(#pc6f723671d)" d="M 29.241719 228.231432 
L 340.02229 228.231432 
" style="fill:none;stroke:#ffffff;stroke-linecap:round;"/>
     </g>
     <g id="text_10">
      <!-- 0 -->
      <g style="fill:#262626;" transform="translate(13.624688 232.168228)scale(0.11 -0.11)">
       <use xlink:href="#ArialMT-48"/>
      </g>
     </g>
    </g>
    <g id="ytick_6">
     <g id="line2d_11">
      <path clip-path="url(#pc6f723671d)" d="M 29.241719 191.50479 
L 340.02229 191.50479 
" style="fill:none;stroke:#ffffff;stroke-linecap:round;"/>
     </g>
     <g id="text_11">
      <!-- 1 -->
      <g style="fill:#262626;" transform="translate(13.624688 195.441587)scale(0.11 -0.11)">
       <use xlink:href="#ArialMT-49"/>
      </g>
     </g>
    </g>
    <g id="ytick_7">
     <g id="line2d_12">
      <path clip-path="url(#pc6f723671d)" d="M 29.241719 154.778149 
L 340.02229 154.778149 
" style="fill:none;stroke:#ffffff;stroke-linecap:round;"/>
     </g>
     <g id="text_12">
      <!-- 2 -->
      <g style="fill:#262626;" transform="translate(13.624688 158.714946)scale(0.11 -0.11)">
       <use xlink:href="#ArialMT-50"/>
      </g>
     </g>
    </g>
    <g id="ytick_8">
     <g id="line2d_13">
      <path clip-path="url(#pc6f723671d)" d="M 29.241719 118.051507 
L 340.02229 118.051507 
" style="fill:none;stroke:#ffffff;stroke-linecap:round;"/>
     </g>
     <g id="text_13">
      <!-- 3 -->
      <g style="fill:#262626;" transform="translate(13.624688 121.988304)scale(0.11 -0.11)">
       <use xlink:href="#ArialMT-51"/>
      </g>
     </g>
    </g>
    <g id="ytick_9">
     <g id="line2d_14">
      <path clip-path="url(#pc6f723671d)" d="M 29.241719 81.324866 
L 340.02229 81.324866 
" style="fill:none;stroke:#ffffff;stroke-linecap:round;"/>
     </g>
     <g id="text_14">
      <!-- 4 -->
      <g style="fill:#262626;" transform="translate(13.624688 85.261663)scale(0.11 -0.11)">
       <use xlink:href="#ArialMT-52"/>
      </g>
     </g>
    </g>
   </g>
   <g id="PathCollection_1">
    <path clip-path="url(#pc6f723671d)" d="M 46.221924 379.446468 
L 49.075741 379.446468 
L 51.929557 379.446468 
L 54.783373 379.446468 
L 57.637189 379.446468 
L 60.491005 379.446468 
L 63.344821 379.446468 
L 66.198637 379.446468 
L 69.052453 379.446468 
L 71.906269 379.446468 
L 74.760085 379.446468 
L 77.613901 379.446468 
L 80.467717 379.446468 
L 83.321534 379.446468 
L 86.17535 379.446468 
L 89.029166 379.446468 
L 91.882982 379.446468 
L 94.736798 379.446468 
L 97.590614 379.446468 
L 100.44443 379.446468 
L 103.298246 379.446468 
L 106.152062 379.446468 
L 109.005878 379.446468 
L 111.859694 379.446468 
L 114.71351 379.446468 
L 117.567327 379.446468 
L 120.421143 379.446468 
L 123.274959 379.446468 
L 126.128775 379.446468 
L 128.982591 379.446468 
L 131.836407 379.446468 
L 134.690223 379.446468 
L 137.544039 379.446468 
L 140.397855 379.446468 
L 143.251671 379.446468 
L 146.105487 379.446468 
L 148.959303 379.446468 
L 151.81312 379.446468 
L 154.666936 379.446468 
L 157.520752 379.446468 
L 160.374568 379.446468 
L 163.228384 379.446468 
L 166.0822 379.446468 
L 168.936016 379.446468 
L 171.789832 379.446468 
L 174.643648 379.446468 
L 177.497464 379.446468 
L 180.35128 379.446468 
L 183.205096 379.446468 
L 186.058913 379.446468 
L 188.912729 379.446468 
L 191.766545 379.446468 
L 194.620361 379.446468 
L 197.474177 379.446468 
L 200.327993 379.446468 
L 203.181809 379.446468 
L 206.035625 379.446468 
L 208.889441 379.446468 
L 211.743257 379.446468 
L 214.597073 379.446468 
L 217.450889 379.446468 
L 220.304706 379.446468 
L 223.158522 379.446468 
L 226.012338 379.446468 
L 228.866154 379.446468 
L 231.71997 379.446468 
L 234.573786 379.446468 
L 237.427602 379.446468 
L 240.281418 379.446468 
L 243.135234 379.446468 
L 245.98905 379.446468 
L 248.842866 379.446468 
L 251.696682 379.446468 
L 254.550498 379.446468 
L 257.404315 379.446468 
L 260.258131 379.446468 
L 263.111947 379.446468 
L 265.965763 379.446468 
L 268.819579 379.446468 
L 271.673395 379.446468 
L 274.527211 379.446468 
L 277.381027 379.446468 
L 280.234843 379.446468 
L 283.088659 379.446468 
L 285.942475 379.446468 
L 288.796291 379.446468 
L 291.650108 379.446468 
L 294.503924 379.446468 
L 297.35774 379.446468 
L 300.211556 379.446468 
L 303.065372 379.446468 
L 305.919188 379.446468 
L 308.773004 379.446468 
L 311.62682 379.446468 
L 314.480636 379.446468 
L 317.334452 379.446468 
L 320.188268 379.446468 
L 323.042084 379.446468 
L 325.895901 379.446468 
L 325.895901 376.550804 
L 325.895901 373.655141 
L 325.895901 370.759478 
L 325.895901 367.863815 
L 325.895901 364.968152 
L 325.895901 362.072489 
L 325.895901 359.176826 
L 325.895901 356.281163 
L 325.895901 353.385499 
L 325.895901 350.489836 
L 325.895901 347.594173 
L 325.895901 344.69851 
L 325.895901 341.802847 
L 325.895901 338.907184 
L 325.895901 336.011521 
L 325.895901 333.115858 
L 325.895901 330.220194 
L 325.895901 327.324531 
L 325.895901 324.428868 
L 325.895901 321.533205 
L 325.895901 318.637542 
L 325.895901 315.741879 
L 325.895901 312.846216 
L 325.895901 309.950553 
L 325.895901 307.054889 
L 325.895901 304.159226 
L 325.895901 301.263563 
L 325.895901 298.3679 
L 325.895901 295.472237 
L 325.895901 292.576574 
L 325.895901 289.680911 
L 325.895901 286.785248 
L 325.895901 283.889584 
L 325.895901 280.993921 
L 325.895901 278.098258 
L 325.895901 275.202595 
L 325.895901 272.306932 
L 325.895901 269.411269 
L 325.895901 266.515606 
L 325.895901 263.619943 
L 325.895901 260.724279 
L 325.895901 257.828616 
L 325.895901 254.932953 
L 325.895901 252.03729 
L 325.895901 249.141627 
L 325.895901 246.245964 
L 325.895901 243.350301 
L 325.895901 240.454638 
L 325.895901 237.558974 
L 325.895901 234.663311 
L 325.895901 231.767648 
L 325.895901 228.871985 
L 325.895901 225.976322 
L 325.895901 223.080659 
L 325.895901 220.184996 
L 325.895901 217.289333 
L 325.895901 214.393669 
L 325.895901 211.498006 
L 325.895901 208.602343 
L 325.895901 205.70668 
L 325.895901 202.811017 
L 325.895901 199.915354 
L 325.895901 197.019691 
L 325.895901 194.124028 
L 325.895901 191.228364 
L 325.895901 188.332701 
L 325.895901 185.437038 
L 325.895901 182.541375 
L 325.895901 179.645712 
L 325.895901 176.750049 
L 325.895901 173.854386 
L 325.895901 170.958723 
L 325.895901 168.063059 
L 325.895901 165.167396 
L 325.895901 162.271733 
L 325.895901 159.37607 
L 325.895901 156.480407 
L 325.895901 153.584744 
L 325.895901 150.689081 
L 325.895901 147.793418 
L 325.895901 144.897754 
L 325.895901 142.002091 
L 325.895901 139.106428 
L 325.895901 136.210765 
L 325.895901 133.315102 
L 325.895901 130.419439 
L 325.895901 127.523776 
L 325.895901 124.628113 
L 325.895901 121.732449 
L 325.895901 118.836786 
L 325.895901 115.941123 
L 325.895901 113.04546 
L 325.895901 110.149797 
L 325.895901 107.254134 
L 325.895901 104.358471 
L 325.895901 101.462808 
L 325.895901 98.567144 
L 325.895901 95.671481 
L 325.895901 92.775818 
L 323.042084 92.775818 
L 320.188268 92.775818 
L 317.334452 92.775818 
L 314.480636 92.775818 
L 311.62682 92.775818 
L 308.773004 92.775818 
L 305.919188 92.775818 
L 303.065372 92.775818 
L 300.211556 92.775818 
L 297.35774 92.775818 
L 294.503924 92.775818 
L 291.650108 92.775818 
L 288.796291 92.775818 
L 285.942475 92.775818 
L 283.088659 92.775818 
L 280.234843 92.775818 
L 277.381027 92.775818 
L 274.527211 92.775818 
L 271.673395 92.775818 
L 268.819579 92.775818 
L 265.965763 92.775818 
L 263.111947 92.775818 
L 260.258131 92.775818 
L 257.404315 92.775818 
L 254.550498 92.775818 
L 251.696682 92.775818 
L 248.842866 92.775818 
L 245.98905 92.775818 
L 243.135234 92.775818 
L 240.281418 92.775818 
L 237.427602 92.775818 
L 234.573786 92.775818 
L 231.71997 92.775818 
L 228.866154 92.775818 
L 226.012338 92.775818 
L 223.158522 92.775818 
L 220.304706 92.775818 
L 217.450889 92.775818 
L 214.597073 92.775818 
L 211.743257 92.775818 
L 208.889441 92.775818 
L 206.035625 92.775818 
L 203.181809 92.775818 
L 200.327993 92.775818 
L 197.474177 92.775818 
L 194.620361 92.775818 
L 191.766545 92.775818 
L 188.912729 92.775818 
L 186.058913 92.775818 
L 183.205096 92.775818 
L 180.35128 92.775818 
L 177.497464 92.775818 
L 174.643648 92.775818 
L 171.789832 92.775818 
L 168.936016 92.775818 
L 166.0822 92.775818 
L 163.228384 92.775818 
L 160.374568 92.775818 
L 157.520752 92.775818 
L 154.666936 92.775818 
L 151.81312 92.775818 
L 148.959303 92.775818 
L 146.105487 92.775818 
L 143.251671 92.775818 
L 140.397855 92.775818 
L 137.544039 92.775818 
L 134.690223 92.775818 
L 131.836407 92.775818 
L 128.982591 92.775818 
L 126.128775 92.775818 
L 123.274959 92.775818 
L 120.421143 92.775818 
L 117.567327 92.775818 
L 114.71351 92.775818 
L 111.859694 92.775818 
L 109.005878 92.775818 
L 106.152062 92.775818 
L 103.298246 92.775818 
L 100.44443 92.775818 
L 97.590614 92.775818 
L 94.736798 92.775818 
L 91.882982 92.775818 
L 89.029166 92.775818 
L 86.17535 92.775818 
L 83.321534 92.775818 
L 80.467717 92.775818 
L 77.613901 92.775818 
L 74.760085 92.775818 
L 71.906269 92.775818 
L 69.052453 92.775818 
L 66.198637 92.775818 
L 63.344821 92.775818 
L 60.491005 92.775818 
L 57.637189 92.775818 
L 54.783373 92.775818 
L 51.929557 92.775818 
L 49.075741 92.775818 
L 46.221924 92.775818 
L 43.368108 92.775818 
L 43.368108 95.671481 
L 43.368108 98.567144 
L 43.368108 101.462808 
L 43.368108 104.358471 
L 43.368108 107.254134 
L 43.368108 110.149797 
L 43.368108 113.04546 
L 43.368108 115.941123 
L 43.368108 118.836786 
L 43.368108 121.732449 
L 43.368108 124.628113 
L 43.368108 127.523776 
L 43.368108 130.419439 
L 43.368108 133.315102 
L 43.368108 136.210765 
L 43.368108 139.106428 
L 43.368108 142.002091 
L 43.368108 144.897754 
L 43.368108 147.793418 
L 43.368108 150.689081 
L 43.368108 153.584744 
L 43.368108 156.480407 
L 43.368108 159.37607 
L 43.368108 162.271733 
L 43.368108 165.167396 
L 43.368108 168.063059 
L 43.368108 170.958723 
L 43.368108 173.854386 
L 43.368108 176.750049 
L 43.368108 179.645712 
L 43.368108 182.541375 
L 43.368108 185.437038 
L 43.368108 188.332701 
L 43.368108 191.228364 
L 43.368108 194.124028 
L 43.368108 197.019691 
L 43.368108 199.915354 
L 43.368108 202.811017 
L 43.368108 205.70668 
L 43.368108 208.602343 
L 43.368108 211.498006 
L 43.368108 214.393669 
L 43.368108 217.289333 
L 43.368108 220.184996 
L 43.368108 223.080659 
L 43.368108 225.976322 
L 43.368108 228.871985 
L 43.368108 231.767648 
L 43.368108 234.663311 
L 43.368108 237.558974 
L 43.368108 240.454638 
L 43.368108 243.350301 
L 43.368108 246.245964 
L 43.368108 249.141627 
L 43.368108 252.03729 
L 43.368108 254.932953 
L 43.368108 257.828616 
L 43.368108 260.724279 
L 43.368108 263.619943 
L 43.368108 266.515606 
L 43.368108 269.411269 
L 43.368108 272.306932 
L 43.368108 275.202595 
L 43.368108 278.098258 
L 43.368108 280.993921 
L 43.368108 283.889584 
L 43.368108 286.785248 
L 43.368108 289.680911 
L 43.368108 292.576574 
L 43.368108 295.472237 
L 43.368108 298.3679 
L 43.368108 301.263563 
L 43.368108 304.159226 
L 43.368108 307.054889 
L 43.368108 309.950553 
L 43.368108 312.846216 
L 43.368108 315.741879 
L 43.368108 318.637542 
L 43.368108 321.533205 
L 43.368108 324.428868 
L 43.368108 327.324531 
L 43.368108 330.220194 
L 43.368108 333.115858 
L 43.368108 336.011521 
L 43.368108 338.907184 
L 43.368108 341.802847 
L 43.368108 344.69851 
L 43.368108 347.594173 
L 43.368108 350.489836 
L 43.368108 353.385499 
L 43.368108 356.281163 
L 43.368108 359.176826 
L 43.368108 362.072489 
L 43.368108 364.968152 
L 43.368108 367.863815 
L 43.368108 370.759478 
L 43.368108 373.655141 
L 43.368108 376.550804 
L 43.368108 379.446468 
z
M 228.10512 309.950553 
L 226.012338 308.843398 
L 223.158522 307.437425 
L 222.265597 307.054889 
L 220.304706 306.293357 
L 217.450889 305.369352 
L 214.597073 304.343873 
L 214.217493 304.159226 
L 211.743257 303.188053 
L 208.889441 301.690598 
L 208.230805 301.263563 
L 206.035625 300.05487 
L 203.566463 298.3679 
L 203.181809 298.135832 
L 200.327993 296.216529 
L 199.332642 295.472237 
L 197.474177 294.172047 
L 195.412362 292.576574 
L 194.620361 291.987038 
L 191.766545 289.761964 
L 191.652124 289.680911 
L 188.912729 287.774424 
L 187.434156 286.785248 
L 186.058913 285.869398 
L 183.205096 284.138395 
L 182.7205 283.889584 
L 180.35128 282.707071 
L 177.497464 281.154443 
L 177.242553 280.993921 
L 174.643648 279.414775 
L 172.897761 278.098258 
L 171.789832 277.266035 
L 169.462106 275.202595 
L 168.936016 274.724255 
L 166.526908 272.306932 
L 166.0822 271.838493 
L 163.83227 269.411269 
L 163.228384 268.716596 
L 161.208374 266.515606 
L 160.374568 265.53807 
L 158.508779 263.619943 
L 157.520752 262.520683 
L 155.556543 260.724279 
L 154.666936 259.838176 
L 152.154806 257.828616 
L 151.81312 257.52851 
L 148.959303 255.343366 
L 148.470443 254.932953 
L 146.105487 252.886221 
L 145.297135 252.03729 
L 143.251671 249.818148 
L 142.751654 249.141627 
L 140.743893 246.245964 
L 140.397855 245.690406 
L 139.229713 243.350301 
L 137.838777 240.454638 
L 137.544039 239.811532 
L 136.680342 237.558974 
L 135.446804 234.663311 
L 134.690223 233.057079 
L 134.146971 231.767648 
L 132.709188 228.871985 
L 131.836407 227.21051 
L 131.216221 225.976322 
L 129.6615 223.080659 
L 128.982591 221.827171 
L 128.082425 220.184996 
L 126.557861 217.289333 
L 126.128775 216.435599 
L 125.042864 214.393669 
L 123.682214 211.498006 
L 123.274959 210.503371 
L 122.422235 208.602343 
L 121.356936 205.70668 
L 120.484863 202.811017 
L 120.421143 202.566426 
L 119.655657 199.915354 
L 118.85102 197.019691 
L 117.989062 194.124028 
L 117.567327 192.887745 
L 116.948197 191.228364 
L 115.792933 188.332701 
L 114.71351 185.673963 
L 114.607538 185.437038 
L 113.393531 182.541375 
L 112.346241 179.645712 
L 111.859694 177.920665 
L 111.497042 176.750049 
L 110.978064 173.854386 
L 110.877798 170.958723 
L 111.283135 168.063059 
L 111.859694 166.231924 
L 112.207606 165.167396 
L 113.637383 162.271733 
L 114.71351 160.816864 
L 116.083907 159.37607 
L 117.567327 158.170646 
L 119.729204 156.480407 
L 120.421143 155.90418 
L 122.550249 153.584744 
L 123.274959 152.840391 
L 125.745371 150.689081 
L 126.128775 150.416372 
L 128.982591 149.324082 
L 131.836407 149.308795 
L 134.690223 150.133106 
L 135.728201 150.689081 
L 137.544039 151.507215 
L 140.397855 153.314998 
L 140.757029 153.584744 
L 143.251671 155.228337 
L 144.944282 156.480407 
L 146.105487 157.232469 
L 148.959303 159.148777 
L 149.327875 159.37607 
L 151.81312 160.715209 
L 154.666936 162.178526 
L 154.901825 162.271733 
L 157.520752 163.168842 
L 160.374568 163.981593 
L 163.228384 164.736426 
L 164.683697 165.167396 
L 166.0822 165.508782 
L 168.936016 166.568185 
L 171.378881 168.063059 
L 171.789832 168.271804 
L 174.643648 170.264603 
L 175.436357 170.958723 
L 177.497464 172.52589 
L 178.981627 173.854386 
L 180.35128 174.952273 
L 182.342525 176.750049 
L 183.205096 177.46724 
L 185.586233 179.645712 
L 186.058913 180.053795 
L 188.707174 182.541375 
L 188.912729 182.727407 
L 191.682901 185.437038 
L 191.766545 185.517318 
L 194.501768 188.332701 
L 194.620361 188.454569 
L 197.169454 191.228364 
L 197.474177 191.565259 
L 199.70283 194.124028 
L 200.327993 194.866432 
L 202.120339 197.019691 
L 203.181809 198.361593 
L 204.434963 199.915354 
L 206.035625 202.035633 
L 206.652131 202.811017 
L 208.799613 205.70668 
L 208.889441 205.832116 
L 211.035645 208.602343 
L 211.743257 209.606338 
L 213.222545 211.498006 
L 214.597073 213.452745 
L 215.344541 214.393669 
L 217.39968 217.289333 
L 217.450889 217.368396 
L 219.549811 220.184996 
L 220.304706 221.36013 
L 221.583708 223.080659 
L 223.158522 225.563246 
L 223.461328 225.976322 
L 225.297687 228.871985 
L 226.012338 230.228685 
L 226.946679 231.767648 
L 228.376758 234.663311 
L 228.866154 235.891257 
L 229.62013 237.558974 
L 230.663935 240.454638 
L 231.500924 243.350301 
L 231.71997 244.228132 
L 232.287444 246.245964 
L 233.043204 249.141627 
L 233.764684 252.03729 
L 234.471268 254.932953 
L 234.573786 255.329994 
L 235.32476 257.828616 
L 236.211739 260.724279 
L 237.081252 263.619943 
L 237.427602 264.812134 
L 238.007681 266.515606 
L 238.90801 269.411269 
L 239.635815 272.306932 
L 240.170166 275.202595 
L 240.281418 276.013669 
L 240.626898 278.098258 
L 240.984426 280.993921 
L 241.274752 283.889584 
L 241.539648 286.785248 
L 241.778738 289.680911 
L 241.932722 292.576574 
L 241.834793 295.472237 
L 241.116919 298.3679 
L 240.281418 299.924034 
L 239.391841 301.263563 
L 237.791601 304.159226 
L 237.427602 305.42217 
L 236.98842 307.054889 
L 236.127223 309.950553 
L 234.573786 311.699187 
L 231.71997 311.546449 
L 228.866154 310.368278 
z
" style="fill:#ebf0f7;"/>
   </g>
   <g id="PathCollection_2">
    <path clip-path="url(#pc6f723671d)" d="M 228.866154 310.368278 
L 231.71997 311.546449 
L 234.573786 311.699187 
L 236.127223 309.950553 
L 236.98842 307.054889 
L 237.427602 305.42217 
L 237.791601 304.159226 
L 239.391841 301.263563 
L 240.281418 299.924034 
L 241.116919 298.3679 
L 241.834793 295.472237 
L 241.932722 292.576574 
L 241.778738 289.680911 
L 241.539648 286.785248 
L 241.274752 283.889584 
L 240.984426 280.993921 
L 240.626898 278.098258 
L 240.281418 276.013669 
L 240.170166 275.202595 
L 239.635815 272.306932 
L 238.90801 269.411269 
L 238.007681 266.515606 
L 237.427602 264.812134 
L 237.081252 263.619943 
L 236.211739 260.724279 
L 235.32476 257.828616 
L 234.573786 255.329994 
L 234.471268 254.932953 
L 233.764684 252.03729 
L 233.043204 249.141627 
L 232.287444 246.245964 
L 231.71997 244.228132 
L 231.500924 243.350301 
L 230.663935 240.454638 
L 229.62013 237.558974 
L 228.866154 235.891257 
L 228.376758 234.663311 
L 226.946679 231.767648 
L 226.012338 230.228685 
L 225.297687 228.871985 
L 223.461328 225.976322 
L 223.158522 225.563246 
L 221.583708 223.080659 
L 220.304706 221.36013 
L 219.549811 220.184996 
L 217.450889 217.368396 
L 217.39968 217.289333 
L 215.344541 214.393669 
L 214.597073 213.452745 
L 213.222545 211.498006 
L 211.743257 209.606338 
L 211.035645 208.602343 
L 208.889441 205.832116 
L 208.799613 205.70668 
L 206.652131 202.811017 
L 206.035625 202.035633 
L 204.434963 199.915354 
L 203.181809 198.361593 
L 202.120339 197.019691 
L 200.327993 194.866432 
L 199.70283 194.124028 
L 197.474177 191.565259 
L 197.169454 191.228364 
L 194.620361 188.454569 
L 194.501768 188.332701 
L 191.766545 185.517318 
L 191.682901 185.437038 
L 188.912729 182.727407 
L 188.707174 182.541375 
L 186.058913 180.053795 
L 185.586233 179.645712 
L 183.205096 177.46724 
L 182.342525 176.750049 
L 180.35128 174.952273 
L 178.981627 173.854386 
L 177.497464 172.52589 
L 175.436357 170.958723 
L 174.643648 170.264603 
L 171.789832 168.271804 
L 171.378881 168.063059 
L 168.936016 166.568185 
L 166.0822 165.508782 
L 164.683697 165.167396 
L 163.228384 164.736426 
L 160.374568 163.981593 
L 157.520752 163.168842 
L 154.901825 162.271733 
L 154.666936 162.178526 
L 151.81312 160.715209 
L 149.327875 159.37607 
L 148.959303 159.148777 
L 146.105487 157.232469 
L 144.944282 156.480407 
L 143.251671 155.228337 
L 140.757029 153.584744 
L 140.397855 153.314998 
L 137.544039 151.507215 
L 135.728201 150.689081 
L 134.690223 150.133106 
L 131.836407 149.308795 
L 128.982591 149.324082 
L 126.128775 150.416372 
L 125.745371 150.689081 
L 123.274959 152.840391 
L 122.550249 153.584744 
L 120.421143 155.90418 
L 119.729204 156.480407 
L 117.567327 158.170646 
L 116.083907 159.37607 
L 114.71351 160.816864 
L 113.637383 162.271733 
L 112.207606 165.167396 
L 111.859694 166.231924 
L 111.283135 168.063059 
L 110.877798 170.958723 
L 110.978064 173.854386 
L 111.497042 176.750049 
L 111.859694 177.920665 
L 112.346241 179.645712 
L 113.393531 182.541375 
L 114.607538 185.437038 
L 114.71351 185.673963 
L 115.792933 188.332701 
L 116.948197 191.228364 
L 117.567327 192.887745 
L 117.989062 194.124028 
L 118.85102 197.019691 
L 119.655657 199.915354 
L 120.421143 202.566426 
L 120.484863 202.811017 
L 121.356936 205.70668 
L 122.422235 208.602343 
L 123.274959 210.503371 
L 123.682214 211.498006 
L 125.042864 214.393669 
L 126.128775 216.435599 
L 126.557861 217.289333 
L 128.082425 220.184996 
L 128.982591 221.827171 
L 129.6615 223.080659 
L 131.216221 225.976322 
L 131.836407 227.21051 
L 132.709188 228.871985 
L 134.146971 231.767648 
L 134.690223 233.057079 
L 135.446804 234.663311 
L 136.680342 237.558974 
L 137.544039 239.811532 
L 137.838777 240.454638 
L 139.229713 243.350301 
L 140.397855 245.690406 
L 140.743893 246.245964 
L 142.751654 249.141627 
L 143.251671 249.818148 
L 145.297135 252.03729 
L 146.105487 252.886221 
L 148.470443 254.932953 
L 148.959303 255.343366 
L 151.81312 257.52851 
L 152.154806 257.828616 
L 154.666936 259.838176 
L 155.556543 260.724279 
L 157.520752 262.520683 
L 158.508779 263.619943 
L 160.374568 265.53807 
L 161.208374 266.515606 
L 163.228384 268.716596 
L 163.83227 269.411269 
L 166.0822 271.838493 
L 166.526908 272.306932 
L 168.936016 274.724255 
L 169.462106 275.202595 
L 171.789832 277.266035 
L 172.897761 278.098258 
L 174.643648 279.414775 
L 177.242553 280.993921 
L 177.497464 281.154443 
L 180.35128 282.707071 
L 182.7205 283.889584 
L 183.205096 284.138395 
L 186.058913 285.869398 
L 187.434156 286.785248 
L 188.912729 287.774424 
L 191.652124 289.680911 
L 191.766545 289.761964 
L 194.620361 291.987038 
L 195.412362 292.576574 
L 197.474177 294.172047 
L 199.332642 295.472237 
L 200.327993 296.216529 
L 203.181809 298.135832 
L 203.566463 298.3679 
L 206.035625 300.05487 
L 208.230805 301.263563 
L 208.889441 301.690598 
L 211.743257 303.188053 
L 214.217493 304.159226 
L 214.597073 304.343873 
L 217.450889 305.369352 
L 220.304706 306.293357 
L 222.265597 307.054889 
L 223.158522 307.437425 
L 226.012338 308.843398 
L 228.10512 309.950553 
z
M 208.151676 292.576574 
L 206.035625 291.875231 
L 203.181809 290.425212 
L 202.070316 289.680911 
L 200.327993 288.590006 
L 197.926545 286.785248 
L 197.474177 286.45946 
L 194.620361 284.136583 
L 194.332573 283.889584 
L 191.766545 281.696517 
L 190.964532 280.993921 
L 188.912729 279.186357 
L 187.667806 278.098258 
L 186.058913 276.676946 
L 184.343538 275.202595 
L 183.205096 274.212019 
L 180.951057 272.306932 
L 180.35128 271.794022 
L 177.532441 269.411269 
L 177.497464 269.381382 
L 174.643648 266.988349 
L 174.116122 266.515606 
L 171.789832 264.417564 
L 170.975765 263.619943 
L 168.936016 261.592796 
L 168.122206 260.724279 
L 166.0822 258.484869 
L 165.508207 257.828616 
L 163.228384 255.099907 
L 163.088862 254.932953 
L 160.741452 252.03729 
L 160.374568 251.562008 
L 158.441308 249.141627 
L 157.520752 247.912673 
L 156.189183 246.245964 
L 154.666936 244.216184 
L 153.961469 243.350301 
L 151.81312 240.558579 
L 151.726144 240.454638 
L 149.34664 237.558974 
L 148.959303 237.066074 
L 146.935944 234.663311 
L 146.105487 233.623854 
L 144.554093 231.767648 
L 143.251671 230.115402 
L 142.254671 228.871985 
L 140.397855 226.395958 
L 140.084637 225.976322 
L 138.060395 223.080659 
L 137.544039 222.262477 
L 136.226184 220.184996 
L 134.690223 217.462177 
L 134.592116 217.289333 
L 133.167544 214.393669 
L 131.956755 211.498006 
L 131.836407 211.149879 
L 130.92782 208.602343 
L 130.036373 205.70668 
L 129.249108 202.811017 
L 128.982591 201.798798 
L 128.452827 199.915354 
L 127.625781 197.019691 
L 126.804391 194.124028 
L 126.128775 191.685509 
L 125.988067 191.228364 
L 125.169352 188.332701 
L 124.474769 185.437038 
L 123.97272 182.541375 
L 123.744996 179.645712 
L 123.939452 176.750049 
L 124.876903 173.854386 
L 126.128775 172.005267 
L 126.984158 170.958723 
L 128.982591 168.352199 
L 129.11477 168.063059 
L 130.27172 165.167396 
L 131.776418 162.271733 
L 131.836407 162.19824 
L 134.690223 160.463855 
L 137.544039 160.551824 
L 140.397855 161.463274 
L 141.993187 162.271733 
L 143.251671 162.8211 
L 146.105487 164.345918 
L 147.495802 165.167396 
L 148.959303 165.944537 
L 151.81312 167.499967 
L 152.877516 168.063059 
L 154.666936 168.945994 
L 157.520752 170.291404 
L 159.006983 170.958723 
L 160.374568 171.546203 
L 163.228384 172.736535 
L 165.694639 173.854386 
L 166.0822 174.024067 
L 168.936016 175.345376 
L 171.475576 176.750049 
L 171.789832 176.916439 
L 174.643648 178.607102 
L 176.140094 179.645712 
L 177.497464 180.533694 
L 180.190426 182.541375 
L 180.35128 182.655648 
L 183.205096 184.889648 
L 183.838408 185.437038 
L 186.058913 187.290503 
L 187.202086 188.332701 
L 188.912729 189.865164 
L 190.322311 191.228364 
L 191.766545 192.624373 
L 193.220913 194.124028 
L 194.620361 195.590124 
L 195.917651 197.019691 
L 197.474177 198.789169 
L 198.43285 199.915354 
L 200.327993 202.244673 
L 200.783989 202.811017 
L 203.000154 205.70668 
L 203.181809 205.955458 
L 205.144726 208.602343 
L 206.035625 209.905698 
L 207.173718 211.498006 
L 208.889441 214.151817 
L 209.058 214.393669 
L 210.892119 217.289333 
L 211.743257 218.825691 
L 212.579505 220.184996 
L 214.105628 223.080659 
L 214.597073 224.176049 
L 215.51523 225.976322 
L 216.747886 228.871985 
L 217.450889 230.807809 
L 217.849024 231.767648 
L 218.895591 234.663311 
L 219.848277 237.558974 
L 220.304706 238.990642 
L 220.819177 240.454638 
L 221.817355 243.350301 
L 222.754058 246.245964 
L 223.158522 247.52555 
L 223.722167 249.141627 
L 224.701548 252.03729 
L 225.610667 254.932953 
L 226.012338 256.21836 
L 226.581074 257.828616 
L 227.571522 260.724279 
L 228.487248 263.619943 
L 228.866154 264.885424 
L 229.423668 266.515606 
L 230.27362 269.411269 
L 230.956965 272.306932 
L 231.467011 275.202595 
L 231.71997 277.789192 
L 231.753146 278.098258 
L 231.71997 279.473825 
L 231.671431 280.993921 
L 230.858244 283.889584 
L 228.866154 286.612253 
L 228.627504 286.785248 
L 226.012338 288.443799 
L 223.231762 289.680911 
L 223.158522 289.715381 
L 220.304706 290.77336 
L 217.450889 291.736737 
L 215.015157 292.576574 
L 214.597073 292.694854 
L 211.743257 293.140384 
L 208.889441 292.851527 
z
" style="fill:#c4d1e6;"/>
   </g>
   <g id="PathCollection_3">
    <path clip-path="url(#pc6f723671d)" d="M 208.889441 292.851527 
L 211.743257 293.140384 
L 214.597073 292.694854 
L 215.015157 292.576574 
L 217.450889 291.736737 
L 220.304706 290.77336 
L 223.158522 289.715381 
L 223.231762 289.680911 
L 226.012338 288.443799 
L 228.627504 286.785248 
L 228.866154 286.612253 
L 230.858244 283.889584 
L 231.671431 280.993921 
L 231.71997 279.473825 
L 231.753146 278.098258 
L 231.71997 277.789192 
L 231.467011 275.202595 
L 230.956965 272.306932 
L 230.27362 269.411269 
L 229.423668 266.515606 
L 228.866154 264.885424 
L 228.487248 263.619943 
L 227.571522 260.724279 
L 226.581074 257.828616 
L 226.012338 256.21836 
L 225.610667 254.932953 
L 224.701548 252.03729 
L 223.722167 249.141627 
L 223.158522 247.52555 
L 222.754058 246.245964 
L 221.817355 243.350301 
L 220.819177 240.454638 
L 220.304706 238.990642 
L 219.848277 237.558974 
L 218.895591 234.663311 
L 217.849024 231.767648 
L 217.450889 230.807809 
L 216.747886 228.871985 
L 215.51523 225.976322 
L 214.597073 224.176049 
L 214.105628 223.080659 
L 212.579505 220.184996 
L 211.743257 218.825691 
L 210.892119 217.289333 
L 209.058 214.393669 
L 208.889441 214.151817 
L 207.173718 211.498006 
L 206.035625 209.905698 
L 205.144726 208.602343 
L 203.181809 205.955458 
L 203.000154 205.70668 
L 200.783989 202.811017 
L 200.327993 202.244673 
L 198.43285 199.915354 
L 197.474177 198.789169 
L 195.917651 197.019691 
L 194.620361 195.590124 
L 193.220913 194.124028 
L 191.766545 192.624373 
L 190.322311 191.228364 
L 188.912729 189.865164 
L 187.202086 188.332701 
L 186.058913 187.290503 
L 183.838408 185.437038 
L 183.205096 184.889648 
L 180.35128 182.655648 
L 180.190426 182.541375 
L 177.497464 180.533694 
L 176.140094 179.645712 
L 174.643648 178.607102 
L 171.789832 176.916439 
L 171.475576 176.750049 
L 168.936016 175.345376 
L 166.0822 174.024067 
L 165.694639 173.854386 
L 163.228384 172.736535 
L 160.374568 171.546203 
L 159.006983 170.958723 
L 157.520752 170.291404 
L 154.666936 168.945994 
L 152.877516 168.063059 
L 151.81312 167.499967 
L 148.959303 165.944537 
L 147.495802 165.167396 
L 146.105487 164.345918 
L 143.251671 162.8211 
L 141.993187 162.271733 
L 140.397855 161.463274 
L 137.544039 160.551824 
L 134.690223 160.463855 
L 131.836407 162.19824 
L 131.776418 162.271733 
L 130.27172 165.167396 
L 129.11477 168.063059 
L 128.982591 168.352199 
L 126.984158 170.958723 
L 126.128775 172.005267 
L 124.876903 173.854386 
L 123.939452 176.750049 
L 123.744996 179.645712 
L 123.97272 182.541375 
L 124.474769 185.437038 
L 125.169352 188.332701 
L 125.988067 191.228364 
L 126.128775 191.685509 
L 126.804391 194.124028 
L 127.625781 197.019691 
L 128.452827 199.915354 
L 128.982591 201.798798 
L 129.249108 202.811017 
L 130.036373 205.70668 
L 130.92782 208.602343 
L 131.836407 211.149879 
L 131.956755 211.498006 
L 133.167544 214.393669 
L 134.592116 217.289333 
L 134.690223 217.462177 
L 136.226184 220.184996 
L 137.544039 222.262477 
L 138.060395 223.080659 
L 140.084637 225.976322 
L 140.397855 226.395958 
L 142.254671 228.871985 
L 143.251671 230.115402 
L 144.554093 231.767648 
L 146.105487 233.623854 
L 146.935944 234.663311 
L 148.959303 237.066074 
L 149.34664 237.558974 
L 151.726144 240.454638 
L 151.81312 240.558579 
L 153.961469 243.350301 
L 154.666936 244.216184 
L 156.189183 246.245964 
L 157.520752 247.912673 
L 158.441308 249.141627 
L 160.374568 251.562008 
L 160.741452 252.03729 
L 163.088862 254.932953 
L 163.228384 255.099907 
L 165.508207 257.828616 
L 166.0822 258.484869 
L 168.122206 260.724279 
L 168.936016 261.592796 
L 170.975765 263.619943 
L 171.789832 264.417564 
L 174.116122 266.515606 
L 174.643648 266.988349 
L 177.497464 269.381382 
L 177.532441 269.411269 
L 180.35128 271.794022 
L 180.951057 272.306932 
L 183.205096 274.212019 
L 184.343538 275.202595 
L 186.058913 276.676946 
L 187.667806 278.098258 
L 188.912729 279.186357 
L 190.964532 280.993921 
L 191.766545 281.696517 
L 194.332573 283.889584 
L 194.620361 284.136583 
L 197.474177 286.45946 
L 197.926545 286.785248 
L 200.327993 288.590006 
L 202.070316 289.680911 
L 203.181809 290.425212 
L 206.035625 291.875231 
L 208.151676 292.576574 
z
M 198.235686 280.993921 
L 197.474177 280.55151 
L 194.620361 278.397194 
L 194.27393 278.098258 
L 191.766545 275.998547 
L 190.880567 275.202595 
L 188.912729 273.464669 
L 187.640487 272.306932 
L 186.058913 270.872981 
L 184.445774 269.411269 
L 183.205096 268.277893 
L 181.243275 266.515606 
L 180.35128 265.701298 
L 178.037923 263.619943 
L 177.497464 263.123934 
L 174.89627 260.724279 
L 174.643648 260.486319 
L 171.912675 257.828616 
L 171.789832 257.706426 
L 169.144858 254.932953 
L 168.936016 254.708414 
L 166.585116 252.03729 
L 166.0822 251.44806 
L 164.189143 249.141627 
L 163.228384 247.926116 
L 161.914011 246.245964 
L 160.374568 244.18878 
L 159.732409 243.350301 
L 157.616479 240.454638 
L 157.520752 240.319434 
L 155.465232 237.558974 
L 154.666936 236.419634 
L 153.339176 234.663311 
L 151.81312 232.492605 
L 151.256283 231.767648 
L 149.205718 228.871985 
L 148.959303 228.49285 
L 147.181461 225.976322 
L 146.105487 224.270943 
L 145.298664 223.080659 
L 143.55992 220.184996 
L 143.251671 219.617126 
L 141.927077 217.289333 
L 140.506987 214.393669 
L 140.397855 214.155037 
L 139.136963 211.498006 
L 137.95803 208.602343 
L 137.544039 207.482626 
L 136.853275 205.70668 
L 135.87835 202.811017 
L 135.052421 199.915354 
L 134.690223 198.376983 
L 134.346227 197.019691 
L 133.850686 194.124028 
L 133.640342 191.228364 
L 133.867458 188.332701 
L 134.690223 185.743096 
L 134.836584 185.437038 
L 136.375761 182.541375 
L 137.191948 179.645712 
L 137.394027 176.750049 
L 137.512623 173.854386 
L 137.544039 173.666703 
L 138.131506 170.958723 
L 140.397855 168.761292 
L 143.251671 168.810727 
L 146.105487 169.715333 
L 148.923888 170.958723 
L 148.959303 170.973408 
L 151.81312 172.404152 
L 154.595172 173.854386 
L 154.666936 173.89159 
L 157.520752 175.357256 
L 160.232185 176.750049 
L 160.374568 176.825598 
L 163.228384 178.262362 
L 165.900323 179.645712 
L 166.0822 179.744098 
L 168.936016 181.277062 
L 171.165963 182.541375 
L 171.789832 182.905416 
L 174.643648 184.626999 
L 175.896506 185.437038 
L 177.497464 186.466333 
L 180.211556 188.332701 
L 180.35128 188.427631 
L 183.205096 190.557369 
L 184.016975 191.228364 
L 186.058913 192.883557 
L 187.44303 194.124028 
L 188.912729 195.430955 
L 190.540118 197.019691 
L 191.766545 198.226244 
L 193.353143 199.915354 
L 194.620361 201.298662 
L 195.926033 202.811017 
L 197.474177 204.682014 
L 198.291678 205.70668 
L 200.327993 208.415466 
L 200.466875 208.602343 
L 202.465276 211.498006 
L 203.181809 212.638165 
L 204.30168 214.393669 
L 205.944702 217.289333 
L 206.035625 217.476499 
L 207.404586 220.184996 
L 208.657195 223.080659 
L 208.889441 223.727581 
L 209.742268 225.976322 
L 210.692156 228.871985 
L 211.584156 231.767648 
L 211.743257 232.261355 
L 212.54563 234.663311 
L 213.580585 237.558974 
L 214.597073 240.297666 
L 214.657836 240.454638 
L 215.861022 243.350301 
L 217.006368 246.245964 
L 217.450889 247.386818 
L 218.165618 249.141627 
L 219.266922 252.03729 
L 220.295969 254.932953 
L 220.304706 254.958874 
L 221.311019 257.828616 
L 222.221133 260.724279 
L 223.054759 263.619943 
L 223.158522 264.083412 
L 223.716991 266.515606 
L 224.101835 269.411269 
L 224.037813 272.306932 
L 223.158522 275.069321 
L 223.074174 275.202595 
L 220.304706 277.406133 
L 218.744006 278.098258 
L 217.450889 278.62025 
L 214.597073 279.732029 
L 211.825938 280.993921 
L 211.743257 281.035673 
L 208.889441 282.707814 
L 206.035625 283.761178 
L 203.181809 283.509091 
L 200.327993 282.31112 
z
" style="fill:#9cb1d4;"/>
   </g>
   <g id="PathCollection_4">
    <path clip-path="url(#pc6f723671d)" d="M 200.327993 282.31112 
L 203.181809 283.509091 
L 206.035625 283.761178 
L 208.889441 282.707814 
L 211.743257 281.035673 
L 211.825938 280.993921 
L 214.597073 279.732029 
L 217.450889 278.62025 
L 218.744006 278.098258 
L 220.304706 277.406133 
L 223.074174 275.202595 
L 223.158522 275.069321 
L 224.037813 272.306932 
L 224.101835 269.411269 
L 223.716991 266.515606 
L 223.158522 264.083412 
L 223.054759 263.619943 
L 222.221133 260.724279 
L 221.311019 257.828616 
L 220.304706 254.958874 
L 220.295969 254.932953 
L 219.266922 252.03729 
L 218.165618 249.141627 
L 217.450889 247.386818 
L 217.006368 246.245964 
L 215.861022 243.350301 
L 214.657836 240.454638 
L 214.597073 240.297666 
L 213.580585 237.558974 
L 212.54563 234.663311 
L 211.743257 232.261355 
L 211.584156 231.767648 
L 210.692156 228.871985 
L 209.742268 225.976322 
L 208.889441 223.727581 
L 208.657195 223.080659 
L 207.404586 220.184996 
L 206.035625 217.476499 
L 205.944702 217.289333 
L 204.30168 214.393669 
L 203.181809 212.638165 
L 202.465276 211.498006 
L 200.466875 208.602343 
L 200.327993 208.415466 
L 198.291678 205.70668 
L 197.474177 204.682014 
L 195.926033 202.811017 
L 194.620361 201.298662 
L 193.353143 199.915354 
L 191.766545 198.226244 
L 190.540118 197.019691 
L 188.912729 195.430955 
L 187.44303 194.124028 
L 186.058913 192.883557 
L 184.016975 191.228364 
L 183.205096 190.557369 
L 180.35128 188.427631 
L 180.211556 188.332701 
L 177.497464 186.466333 
L 175.896506 185.437038 
L 174.643648 184.626999 
L 171.789832 182.905416 
L 171.165963 182.541375 
L 168.936016 181.277062 
L 166.0822 179.744098 
L 165.900323 179.645712 
L 163.228384 178.262362 
L 160.374568 176.825598 
L 160.232185 176.750049 
L 157.520752 175.357256 
L 154.666936 173.89159 
L 154.595172 173.854386 
L 151.81312 172.404152 
L 148.959303 170.973408 
L 148.923888 170.958723 
L 146.105487 169.715333 
L 143.251671 168.810727 
L 140.397855 168.761292 
L 138.131506 170.958723 
L 137.544039 173.666703 
L 137.512623 173.854386 
L 137.394027 176.750049 
L 137.191948 179.645712 
L 136.375761 182.541375 
L 134.836584 185.437038 
L 134.690223 185.743096 
L 133.867458 188.332701 
L 133.640342 191.228364 
L 133.850686 194.124028 
L 134.346227 197.019691 
L 134.690223 198.376983 
L 135.052421 199.915354 
L 135.87835 202.811017 
L 136.853275 205.70668 
L 137.544039 207.482626 
L 137.95803 208.602343 
L 139.136963 211.498006 
L 140.397855 214.155037 
L 140.506987 214.393669 
L 141.927077 217.289333 
L 143.251671 219.617126 
L 143.55992 220.184996 
L 145.298664 223.080659 
L 146.105487 224.270943 
L 147.181461 225.976322 
L 148.959303 228.49285 
L 149.205718 228.871985 
L 151.256283 231.767648 
L 151.81312 232.492605 
L 153.339176 234.663311 
L 154.666936 236.419634 
L 155.465232 237.558974 
L 157.520752 240.319434 
L 157.616479 240.454638 
L 159.732409 243.350301 
L 160.374568 244.18878 
L 161.914011 246.245964 
L 163.228384 247.926116 
L 164.189143 249.141627 
L 166.0822 251.44806 
L 166.585116 252.03729 
L 168.936016 254.708414 
L 169.144858 254.932953 
L 171.789832 257.706426 
L 171.912675 257.828616 
L 174.643648 260.486319 
L 174.89627 260.724279 
L 177.497464 263.123934 
L 178.037923 263.619943 
L 180.35128 265.701298 
L 181.243275 266.515606 
L 183.205096 268.277893 
L 184.445774 269.411269 
L 186.058913 270.872981 
L 187.640487 272.306932 
L 188.912729 273.464669 
L 190.880567 275.202595 
L 191.766545 275.998547 
L 194.27393 278.098258 
L 194.620361 278.397194 
L 197.474177 280.55151 
L 198.235686 280.993921 
z
M 194.170137 272.306932 
L 191.766545 270.570212 
L 190.405756 269.411269 
L 188.912729 268.175408 
L 187.074506 266.515606 
L 186.058913 265.594696 
L 183.933887 263.619943 
L 183.205096 262.923927 
L 180.860335 260.724279 
L 180.35128 260.228844 
L 177.805626 257.828616 
L 177.497464 257.528277 
L 174.800514 254.932953 
L 174.643648 254.778645 
L 171.934667 252.03729 
L 171.789832 251.889057 
L 169.277195 249.141627 
L 168.936016 248.765891 
L 166.82322 246.245964 
L 166.0822 245.352224 
L 164.527969 243.350301 
L 163.228384 241.639716 
L 162.357441 240.454638 
L 160.374568 237.658644 
L 160.303435 237.558974 
L 158.346345 234.663311 
L 157.520752 233.378947 
L 156.450661 231.767648 
L 154.666936 228.91122 
L 154.640964 228.871985 
L 152.850707 225.976322 
L 151.81312 224.209315 
L 151.117882 223.080659 
L 149.427935 220.184996 
L 148.959303 219.356296 
L 147.766164 217.289333 
L 146.202682 214.393669 
L 146.105487 214.202096 
L 144.72803 211.498006 
L 143.42314 208.602343 
L 143.251671 208.142246 
L 142.335577 205.70668 
L 141.544184 202.811017 
L 141.14052 199.915354 
L 141.401147 197.019691 
L 142.683752 194.124028 
L 143.251671 193.204479 
L 144.26553 191.228364 
L 144.923084 188.332701 
L 144.898068 185.437038 
L 144.651523 182.541375 
L 144.596262 179.645712 
L 145.684731 176.750049 
L 146.105487 176.435258 
L 148.959303 176.337125 
L 150.182017 176.750049 
L 151.81312 177.300683 
L 154.666936 178.640961 
L 156.589646 179.645712 
L 157.520752 180.158667 
L 160.374568 181.791777 
L 161.680601 182.541375 
L 163.228384 183.504398 
L 166.0822 185.246792 
L 166.400435 185.437038 
L 168.936016 187.077822 
L 170.939585 188.332701 
L 171.789832 188.908767 
L 174.643648 190.736843 
L 175.433527 191.228364 
L 177.497464 192.56684 
L 179.967819 194.124028 
L 180.35128 194.37326 
L 183.205096 196.338774 
L 184.091077 197.019691 
L 186.058913 198.528036 
L 187.658116 199.915354 
L 188.912729 201.010038 
L 190.726864 202.811017 
L 191.766545 203.865788 
L 193.386362 205.70668 
L 194.620361 207.170029 
L 195.72898 208.602343 
L 197.474177 211.010608 
L 197.809001 211.498006 
L 199.556782 214.393669 
L 200.327993 215.837003 
L 201.07429 217.289333 
L 202.311873 220.184996 
L 203.181809 222.557283 
L 203.367498 223.080659 
L 204.238256 225.976322 
L 205.134315 228.871985 
L 206.035625 231.46927 
L 206.134126 231.767648 
L 207.27235 234.663311 
L 208.509888 237.558974 
L 208.889441 238.381339 
L 209.825012 240.454638 
L 211.126267 243.350301 
L 211.743257 244.754073 
L 212.397958 246.245964 
L 213.570985 249.141627 
L 214.597073 251.867169 
L 214.661502 252.03729 
L 215.575586 254.932953 
L 216.326708 257.828616 
L 216.859591 260.724279 
L 216.98145 263.619943 
L 216.24252 266.515606 
L 214.597073 268.643442 
L 213.719997 269.411269 
L 211.743257 270.65901 
L 208.889441 272.225451 
L 208.728912 272.306932 
L 206.035625 273.656321 
L 203.181809 274.7588 
L 200.327993 275.023096 
L 197.474177 274.227906 
L 194.620361 272.653798 
z
" style="fill:#7593c3;"/>
   </g>
   <g id="PathCollection_5">
    <path clip-path="url(#pc6f723671d)" d="M 194.620361 272.653798 
L 197.474177 274.227906 
L 200.327993 275.023096 
L 203.181809 274.7588 
L 206.035625 273.656321 
L 208.728912 272.306932 
L 208.889441 272.225451 
L 211.743257 270.65901 
L 213.719997 269.411269 
L 214.597073 268.643442 
L 216.24252 266.515606 
L 216.98145 263.619943 
L 216.859591 260.724279 
L 216.326708 257.828616 
L 215.575586 254.932953 
L 214.661502 252.03729 
L 214.597073 251.867169 
L 213.570985 249.141627 
L 212.397958 246.245964 
L 211.743257 244.754073 
L 211.126267 243.350301 
L 209.825012 240.454638 
L 208.889441 238.381339 
L 208.509888 237.558974 
L 207.27235 234.663311 
L 206.134126 231.767648 
L 206.035625 231.46927 
L 205.134315 228.871985 
L 204.238256 225.976322 
L 203.367498 223.080659 
L 203.181809 222.557283 
L 202.311873 220.184996 
L 201.07429 217.289333 
L 200.327993 215.837003 
L 199.556782 214.393669 
L 197.809001 211.498006 
L 197.474177 211.010608 
L 195.72898 208.602343 
L 194.620361 207.170029 
L 193.386362 205.70668 
L 191.766545 203.865788 
L 190.726864 202.811017 
L 188.912729 201.010038 
L 187.658116 199.915354 
L 186.058913 198.528036 
L 184.091077 197.019691 
L 183.205096 196.338774 
L 180.35128 194.37326 
L 179.967819 194.124028 
L 177.497464 192.56684 
L 175.433527 191.228364 
L 174.643648 190.736843 
L 171.789832 188.908767 
L 170.939585 188.332701 
L 168.936016 187.077822 
L 166.400435 185.437038 
L 166.0822 185.246792 
L 163.228384 183.504398 
L 161.680601 182.541375 
L 160.374568 181.791777 
L 157.520752 180.158667 
L 156.589646 179.645712 
L 154.666936 178.640961 
L 151.81312 177.300683 
L 150.182017 176.750049 
L 148.959303 176.337125 
L 146.105487 176.435258 
L 145.684731 176.750049 
L 144.596262 179.645712 
L 144.651523 182.541375 
L 144.898068 185.437038 
L 144.923084 188.332701 
L 144.26553 191.228364 
L 143.251671 193.204479 
L 142.683752 194.124028 
L 141.401147 197.019691 
L 141.14052 199.915354 
L 141.544184 202.811017 
L 142.335577 205.70668 
L 143.251671 208.142246 
L 143.42314 208.602343 
L 144.72803 211.498006 
L 146.105487 214.202096 
L 146.202682 214.393669 
L 147.766164 217.289333 
L 148.959303 219.356296 
L 149.427935 220.184996 
L 151.117882 223.080659 
L 151.81312 224.209315 
L 152.850707 225.976322 
L 154.640964 228.871985 
L 154.666936 228.91122 
L 156.450661 231.767648 
L 157.520752 233.378947 
L 158.346345 234.663311 
L 160.303435 237.558974 
L 160.374568 237.658644 
L 162.357441 240.454638 
L 163.228384 241.639716 
L 164.527969 243.350301 
L 166.0822 245.352224 
L 166.82322 246.245964 
L 168.936016 248.765891 
L 169.277195 249.141627 
L 171.789832 251.889057 
L 171.934667 252.03729 
L 174.643648 254.778645 
L 174.800514 254.932953 
L 177.497464 257.528277 
L 177.805626 257.828616 
L 180.35128 260.228844 
L 180.860335 260.724279 
L 183.205096 262.923927 
L 183.933887 263.619943 
L 186.058913 265.594696 
L 187.074506 266.515606 
L 188.912729 268.175408 
L 190.405756 269.411269 
L 191.766545 270.570212 
L 194.170137 272.306932 
z
M 194.38022 266.515606 
L 191.766545 264.979736 
L 190.051839 263.619943 
L 188.912729 262.733016 
L 186.722704 260.724279 
L 186.058913 260.106617 
L 183.761135 257.828616 
L 183.205096 257.258719 
L 180.917819 254.932953 
L 180.35128 254.334271 
L 178.078762 252.03729 
L 177.497464 251.429129 
L 175.223432 249.141627 
L 174.643648 248.54195 
L 172.42673 246.245964 
L 171.789832 245.570221 
L 169.799594 243.350301 
L 168.936016 242.361985 
L 167.392667 240.454638 
L 166.0822 238.783396 
L 165.188829 237.558974 
L 163.228384 234.766592 
L 163.159038 234.663311 
L 161.293954 231.767648 
L 160.374568 230.254961 
L 159.535382 228.871985 
L 157.847768 225.976322 
L 157.520752 225.39247 
L 156.183834 223.080659 
L 154.666936 220.365151 
L 154.562839 220.184996 
L 152.941099 217.289333 
L 151.81312 215.124413 
L 151.418154 214.393669 
L 150.049482 211.498006 
L 148.959303 208.622548 
L 148.951294 208.602343 
L 148.331401 205.70668 
L 148.394424 202.811017 
L 148.959303 201.027405 
L 149.343267 199.915354 
L 150.683195 197.019691 
L 151.631217 194.124028 
L 151.81312 192.6916 
L 152.035505 191.228364 
L 152.305816 188.332701 
L 154.542119 185.437038 
L 154.666936 185.398648 
L 154.788896 185.437038 
L 157.520752 186.314511 
L 160.374568 187.784699 
L 161.253055 188.332701 
L 163.228384 189.64329 
L 165.514951 191.228364 
L 166.0822 191.640689 
L 168.936016 193.800658 
L 169.376587 194.124028 
L 171.789832 196.03818 
L 173.11447 197.019691 
L 174.643648 198.250302 
L 176.933626 199.915354 
L 177.497464 200.368327 
L 180.35128 202.38025 
L 181.039107 202.811017 
L 183.205096 204.34552 
L 185.176314 205.70668 
L 186.058913 206.404711 
L 188.580523 208.602343 
L 188.912729 208.934709 
L 191.039963 211.498006 
L 191.766545 212.489718 
L 192.894726 214.393669 
L 194.439281 217.289333 
L 194.620361 217.678967 
L 195.564424 220.184996 
L 196.74072 223.080659 
L 197.474177 224.698141 
L 197.968297 225.976322 
L 199.336129 228.871985 
L 200.327993 230.796667 
L 200.781213 231.767648 
L 202.283599 234.663311 
L 203.181809 236.365342 
L 203.780483 237.558974 
L 205.227185 240.454638 
L 206.035625 242.166808 
L 206.583376 243.350301 
L 207.784467 246.245964 
L 208.834608 249.141627 
L 208.889441 249.356869 
L 209.582811 252.03729 
L 210.022091 254.932953 
L 210.002584 257.828616 
L 209.267627 260.724279 
L 208.889441 261.40891 
L 207.417765 263.619943 
L 206.035625 264.894542 
L 203.589074 266.515606 
L 203.181809 266.732564 
L 200.327993 267.616784 
L 197.474177 267.600513 
L 194.620361 266.665599 
z
" style="fill:#5174ad;"/>
   </g>
   <g id="PathCollection_6">
    <path clip-path="url(#pc6f723671d)" d="M 194.620361 266.665599 
L 197.474177 267.600513 
L 200.327993 267.616784 
L 203.181809 266.732564 
L 203.589074 266.515606 
L 206.035625 264.894542 
L 207.417765 263.619943 
L 208.889441 261.40891 
L 209.267627 260.724279 
L 210.002584 257.828616 
L 210.022091 254.932953 
L 209.582811 252.03729 
L 208.889441 249.356869 
L 208.834608 249.141627 
L 207.784467 246.245964 
L 206.583376 243.350301 
L 206.035625 242.166808 
L 205.227185 240.454638 
L 203.780483 237.558974 
L 203.181809 236.365342 
L 202.283599 234.663311 
L 200.781213 231.767648 
L 200.327993 230.796667 
L 199.336129 228.871985 
L 197.968297 225.976322 
L 197.474177 224.698141 
L 196.74072 223.080659 
L 195.564424 220.184996 
L 194.620361 217.678967 
L 194.439281 217.289333 
L 192.894726 214.393669 
L 191.766545 212.489718 
L 191.039963 211.498006 
L 188.912729 208.934709 
L 188.580523 208.602343 
L 186.058913 206.404711 
L 185.176314 205.70668 
L 183.205096 204.34552 
L 181.039107 202.811017 
L 180.35128 202.38025 
L 177.497464 200.368327 
L 176.933626 199.915354 
L 174.643648 198.250302 
L 173.11447 197.019691 
L 171.789832 196.03818 
L 169.376587 194.124028 
L 168.936016 193.800658 
L 166.0822 191.640689 
L 165.514951 191.228364 
L 163.228384 189.64329 
L 161.253055 188.332701 
L 160.374568 187.784699 
L 157.520752 186.314511 
L 154.788896 185.437038 
L 154.666936 185.398648 
L 154.542119 185.437038 
L 152.305816 188.332701 
L 152.035505 191.228364 
L 151.81312 192.6916 
L 151.631217 194.124028 
L 150.683195 197.019691 
L 149.343267 199.915354 
L 148.959303 201.027405 
L 148.394424 202.811017 
L 148.331401 205.70668 
L 148.951294 208.602343 
L 148.959303 208.622548 
L 150.049482 211.498006 
L 151.418154 214.393669 
L 151.81312 215.124413 
L 152.941099 217.289333 
L 154.562839 220.184996 
L 154.666936 220.365151 
L 156.183834 223.080659 
L 157.520752 225.39247 
L 157.847768 225.976322 
L 159.535382 228.871985 
L 160.374568 230.254961 
L 161.293954 231.767648 
L 163.159038 234.663311 
L 163.228384 234.766592 
L 165.188829 237.558974 
L 166.0822 238.783396 
L 167.392667 240.454638 
L 168.936016 242.361985 
L 169.799594 243.350301 
L 171.789832 245.570221 
L 172.42673 246.245964 
L 174.643648 248.54195 
L 175.223432 249.141627 
L 177.497464 251.429129 
L 178.078762 252.03729 
L 180.35128 254.334271 
L 180.917819 254.932953 
L 183.205096 257.258719 
L 183.761135 257.828616 
L 186.058913 260.106617 
L 186.722704 260.724279 
L 188.912729 262.733016 
L 190.051839 263.619943 
L 191.766545 264.979736 
L 194.38022 266.515606 
z
M 194.545922 260.724279 
L 191.766545 259.380755 
L 189.705519 257.828616 
L 188.912729 257.257072 
L 186.419654 254.932953 
L 186.058913 254.607894 
L 183.570995 252.03729 
L 183.205096 251.668123 
L 180.834752 249.141627 
L 180.35128 248.630788 
L 178.1056 246.245964 
L 177.497464 245.591838 
L 175.383229 243.350301 
L 174.643648 242.534977 
L 172.738461 240.454638 
L 171.789832 239.348287 
L 170.264953 237.558974 
L 168.936016 235.856704 
L 168.01992 234.663311 
L 166.0822 231.87763 
L 166.006768 231.767648 
L 164.108032 228.871985 
L 163.228384 227.376174 
L 162.380019 225.976322 
L 160.758143 223.080659 
L 160.374568 222.336203 
L 159.185088 220.184996 
L 157.751858 217.289333 
L 157.520752 216.733114 
L 156.441462 214.393669 
L 155.438299 211.498006 
L 154.898996 208.602343 
L 155.050093 205.70668 
L 156.101516 202.811017 
L 157.520752 200.491819 
L 158.190425 199.915354 
L 160.374568 198.319516 
L 163.228384 198.449591 
L 166.0822 199.760129 
L 166.298736 199.915354 
L 168.936016 201.570345 
L 170.48247 202.811017 
L 171.789832 203.76392 
L 174.014376 205.70668 
L 174.643648 206.226383 
L 177.177296 208.602343 
L 177.497464 208.897819 
L 180.095324 211.498006 
L 180.35128 211.759675 
L 182.817418 214.393669 
L 183.205096 214.830239 
L 185.352934 217.289333 
L 186.058913 218.161232 
L 187.695443 220.184996 
L 188.912729 221.825508 
L 189.844803 223.080659 
L 191.766545 225.888052 
L 191.826394 225.976322 
L 193.82616 228.871985 
L 194.620361 230.130519 
L 195.67459 231.767648 
L 197.38988 234.663311 
L 197.474177 234.819138 
L 199.021949 237.558974 
L 200.327993 240.200758 
L 200.457129 240.454638 
L 201.702703 243.350301 
L 202.687681 246.245964 
L 203.181809 248.425441 
L 203.35566 249.141627 
L 203.647636 252.03729 
L 203.441353 254.932953 
L 203.181809 255.810759 
L 202.413411 257.828616 
L 200.327993 260.159687 
L 198.963397 260.724279 
L 197.474177 261.145715 
L 194.620361 260.762391 
z
" style="fill:#3c5a8a;"/>
   </g>
   <g id="PathCollection_7">
    <path clip-path="url(#pc6f723671d)" d="M 194.620361 260.762391 
L 197.474177 261.145715 
L 198.963397 260.724279 
L 200.327993 260.159687 
L 202.413411 257.828616 
L 203.181809 255.810759 
L 203.441353 254.932953 
L 203.647636 252.03729 
L 203.35566 249.141627 
L 203.181809 248.425441 
L 202.687681 246.245964 
L 201.702703 243.350301 
L 200.457129 240.454638 
L 200.327993 240.200758 
L 199.021949 237.558974 
L 197.474177 234.819138 
L 197.38988 234.663311 
L 195.67459 231.767648 
L 194.620361 230.130519 
L 193.82616 228.871985 
L 191.826394 225.976322 
L 191.766545 225.888052 
L 189.844803 223.080659 
L 188.912729 221.825508 
L 187.695443 220.184996 
L 186.058913 218.161232 
L 185.352934 217.289333 
L 183.205096 214.830239 
L 182.817418 214.393669 
L 180.35128 211.759675 
L 180.095324 211.498006 
L 177.497464 208.897819 
L 177.177296 208.602343 
L 174.643648 206.226383 
L 174.014376 205.70668 
L 171.789832 203.76392 
L 170.48247 202.811017 
L 168.936016 201.570345 
L 166.298736 199.915354 
L 166.0822 199.760129 
L 163.228384 198.449591 
L 160.374568 198.319516 
L 158.190425 199.915354 
L 157.520752 200.491819 
L 156.101516 202.811017 
L 155.050093 205.70668 
L 154.898996 208.602343 
L 155.438299 211.498006 
L 156.441462 214.393669 
L 157.520752 216.733114 
L 157.751858 217.289333 
L 159.185088 220.184996 
L 160.374568 222.336203 
L 160.758143 223.080659 
L 162.380019 225.976322 
L 163.228384 227.376174 
L 164.108032 228.871985 
L 166.006768 231.767648 
L 166.0822 231.87763 
L 168.01992 234.663311 
L 168.936016 235.856704 
L 170.264953 237.558974 
L 171.789832 239.348287 
L 172.738461 240.454638 
L 174.643648 242.534977 
L 175.383229 243.350301 
L 177.497464 245.591838 
L 178.1056 246.245964 
L 180.35128 248.630788 
L 180.834752 249.141627 
L 183.205096 251.668123 
L 183.570995 252.03729 
L 186.058913 254.607894 
L 186.419654 254.932953 
L 188.912729 257.257072 
L 189.705519 257.828616 
L 191.766545 259.380755 
L 194.545922 260.724279 
z
M 189.131786 252.03729 
L 188.912729 251.922588 
L 186.058913 249.549796 
L 185.65438 249.141627 
L 183.205096 246.807179 
L 182.67276 246.245964 
L 180.35128 243.877054 
L 179.858824 243.350301 
L 177.497464 240.821762 
L 177.160918 240.454638 
L 174.643648 237.599105 
L 174.608533 237.558974 
L 172.221554 234.663311 
L 171.789832 234.099471 
L 170.035164 231.767648 
L 168.936016 230.144546 
L 168.070948 228.871985 
L 166.320153 225.976322 
L 166.0822 225.539748 
L 164.704539 223.080659 
L 163.28119 220.184996 
L 163.228384 220.053365 
L 162.052696 217.289333 
L 161.148423 214.393669 
L 160.730507 211.498006 
L 161.394685 208.602343 
L 163.228384 206.785449 
L 166.0822 206.629064 
L 168.936016 207.701634 
L 170.300229 208.602343 
L 171.789832 209.485393 
L 174.313433 211.498006 
L 174.643648 211.745183 
L 177.497464 214.367548 
L 177.523053 214.393669 
L 180.330621 217.289333 
L 180.35128 217.310863 
L 182.888934 220.184996 
L 183.205096 220.558945 
L 185.259716 223.080659 
L 186.058913 224.134271 
L 187.457726 225.976322 
L 188.912729 228.083427 
L 189.473726 228.871985 
L 191.327904 231.767648 
L 191.766545 232.538384 
L 193.038583 234.663311 
L 194.523906 237.558974 
L 194.620361 237.789289 
L 195.801937 240.454638 
L 196.785498 243.350301 
L 197.46729 246.245964 
L 197.474177 246.341001 
L 197.679218 249.141627 
L 197.474177 250.485574 
L 197.030117 252.03729 
L 194.620361 254.014659 
L 191.766545 253.565511 
z
" style="fill:#2b4063;"/>
   </g>
   <g id="PathCollection_8">
    <path clip-path="url(#pc6f723671d)" d="M 191.766545 253.565511 
L 194.620361 254.014659 
L 197.030117 252.03729 
L 197.474177 250.485574 
L 197.679218 249.141627 
L 197.474177 246.341001 
L 197.46729 246.245964 
L 196.785498 243.350301 
L 195.801937 240.454638 
L 194.620361 237.789289 
L 194.523906 237.558974 
L 193.038583 234.663311 
L 191.766545 232.538384 
L 191.327904 231.767648 
L 189.473726 228.871985 
L 188.912729 228.083427 
L 187.457726 225.976322 
L 186.058913 224.134271 
L 185.259716 223.080659 
L 183.205096 220.558945 
L 182.888934 220.184996 
L 180.35128 217.310863 
L 180.330621 217.289333 
L 177.523053 214.393669 
L 177.497464 214.367548 
L 174.643648 211.745183 
L 174.313433 211.498006 
L 171.789832 209.485393 
L 170.300229 208.602343 
L 168.936016 207.701634 
L 166.0822 206.629064 
L 163.228384 206.785449 
L 161.394685 208.602343 
L 160.730507 211.498006 
L 161.148423 214.393669 
L 162.052696 217.289333 
L 163.228384 220.053365 
L 163.28119 220.184996 
L 164.704539 223.080659 
L 166.0822 225.539748 
L 166.320153 225.976322 
L 168.070948 228.871985 
L 168.936016 230.144546 
L 170.035164 231.767648 
L 171.789832 234.099471 
L 172.221554 234.663311 
L 174.608533 237.558974 
L 174.643648 237.599105 
L 177.160918 240.454638 
L 177.497464 240.821762 
L 179.858824 243.350301 
L 180.35128 243.877054 
L 182.67276 246.245964 
L 183.205096 246.807179 
L 185.65438 249.141627 
L 186.058913 249.549796 
L 188.912729 251.922588 
L 189.131786 252.03729 
z
M 185.196511 243.350301 
L 183.205096 241.878625 
L 181.719873 240.454638 
L 180.35128 239.233249 
L 178.779299 237.558974 
L 177.497464 236.224587 
L 176.171382 234.663311 
L 174.643648 232.818544 
L 173.842037 231.767648 
L 171.789832 228.890949 
L 171.776903 228.871985 
L 170.090482 225.976322 
L 168.936016 223.811931 
L 168.559722 223.080659 
L 167.4762 220.184996 
L 166.831828 217.289333 
L 167.813346 214.393669 
L 168.936016 213.842593 
L 170.825595 214.393669 
L 171.789832 214.653378 
L 174.643648 216.532168 
L 175.495265 217.289333 
L 177.497464 219.033041 
L 178.601717 220.184996 
L 180.35128 222.033994 
L 181.235347 223.080659 
L 183.205096 225.519915 
L 183.552864 225.976322 
L 185.547141 228.871985 
L 186.058913 229.685978 
L 187.312027 231.767648 
L 188.883968 234.663311 
L 188.912729 234.732782 
L 190.026068 237.558974 
L 190.808386 240.454638 
L 190.876226 243.350301 
L 188.912729 245.195935 
L 186.058913 244.064335 
z
" style="fill:#19263b;"/>
   </g>
   <g id="PathCollection_9">
    <path clip-path="url(#pc6f723671d)" d="M 186.058913 244.064335 
L 188.912729 245.195935 
L 190.876226 243.350301 
L 190.808386 240.454638 
L 190.026068 237.558974 
L 188.912729 234.732782 
L 188.883968 234.663311 
L 187.312027 231.767648 
L 186.058913 229.685978 
L 185.547141 228.871985 
L 183.552864 225.976322 
L 183.205096 225.519915 
L 181.235347 223.080659 
L 180.35128 222.033994 
L 178.601717 220.184996 
L 177.497464 219.033041 
L 175.495265 217.289333 
L 174.643648 216.532168 
L 171.789832 214.653378 
L 170.825595 214.393669 
L 168.936016 213.842593 
L 167.813346 214.393669 
L 166.831828 217.289333 
L 167.4762 220.184996 
L 168.559722 223.080659 
L 168.936016 223.811931 
L 170.090482 225.976322 
L 171.776903 228.871985 
L 171.789832 228.890949 
L 173.842037 231.767648 
L 174.643648 232.818544 
L 176.171382 234.663311 
L 177.497464 236.224587 
L 178.779299 237.558974 
L 180.35128 239.233249 
L 181.719873 240.454638 
L 183.205096 241.878625 
L 185.196511 243.350301 
z
" style="fill:#080d14;"/>
   </g>
   <g id="patch_3">
    <path d="M 29.241719 393.78 
L 29.241719 78.442286 
" style="fill:none;stroke:#ffffff;stroke-linecap:square;stroke-linejoin:miter;stroke-width:1.25;"/>
   </g>
   <g id="patch_4">
    <path d="M 29.241719 393.78 
L 340.02229 393.78 
" style="fill:none;stroke:#ffffff;stroke-linecap:square;stroke-linejoin:miter;stroke-width:1.25;"/>
   </g>
  </g>
  <g id="axes_2">
   <g id="patch_5">
    <path d="M 29.241719 67.568571 
L 340.02229 67.568571 
L 340.02229 13.2 
L 29.241719 13.2 
z
" style="fill:#eaeaf2;"/>
   </g>
   <g id="matplotlib.axis_3">
    <g id="xtick_6">
     <g id="line2d_15">
      <path clip-path="url(#p1c788fb402)" d="M 59.229001 67.568571 
L 59.229001 13.2 
" style="fill:none;stroke:#ffffff;stroke-linecap:round;"/>
     </g>
    </g>
    <g id="xtick_7">
     <g id="line2d_16">
      <path clip-path="url(#p1c788fb402)" d="M 118.327933 67.568571 
L 118.327933 13.2 
" style="fill:none;stroke:#ffffff;stroke-linecap:round;"/>
     </g>
    </g>
    <g id="xtick_8">
     <g id="line2d_17">
      <path clip-path="url(#p1c788fb402)" d="M 177.426865 67.568571 
L 177.426865 13.2 
" style="fill:none;stroke:#ffffff;stroke-linecap:round;"/>
     </g>
    </g>
    <g id="xtick_9">
     <g id="line2d_18">
      <path clip-path="url(#p1c788fb402)" d="M 236.525797 67.568571 
L 236.525797 13.2 
" style="fill:none;stroke:#ffffff;stroke-linecap:round;"/>
     </g>
    </g>
    <g id="xtick_10">
     <g id="line2d_19">
      <path clip-path="url(#p1c788fb402)" d="M 295.62473 67.568571 
L 295.62473 13.2 
" style="fill:none;stroke:#ffffff;stroke-linecap:round;"/>
     </g>
    </g>
   </g>
   <g id="matplotlib.axis_4">
    <g id="ytick_10"/>
    <g id="ytick_11"/>
    <g id="ytick_12"/>
   </g>
   <g id="PolyCollection_1">
    <defs>
     <path d="M 49.270579 -352.973781 
L 49.270579 -352.971272 
L 52.005153 -352.971272 
L 54.739728 -352.971272 
L 57.474302 -352.971272 
L 60.208876 -352.971272 
L 62.94345 -352.971272 
L 65.678025 -352.971272 
L 68.412599 -352.971272 
L 71.147173 -352.971272 
L 73.881747 -352.971272 
L 76.616322 -352.971272 
L 79.350896 -352.971272 
L 82.08547 -352.971272 
L 84.820044 -352.971272 
L 87.554619 -352.971272 
L 90.289193 -352.971272 
L 93.023767 -352.971272 
L 95.758341 -352.971272 
L 98.492916 -352.971272 
L 101.22749 -352.971272 
L 103.962064 -352.971272 
L 106.696638 -352.971272 
L 109.431213 -352.971272 
L 112.165787 -352.971272 
L 114.900361 -352.971272 
L 117.634935 -352.971272 
L 120.36951 -352.971272 
L 123.104084 -352.971272 
L 125.838658 -352.971272 
L 128.573232 -352.971272 
L 131.307807 -352.971272 
L 134.042381 -352.971272 
L 136.776955 -352.971272 
L 139.511529 -352.971272 
L 142.246104 -352.971272 
L 144.980678 -352.971272 
L 147.715252 -352.971272 
L 150.449826 -352.971272 
L 153.184401 -352.971272 
L 155.918975 -352.971272 
L 158.653549 -352.971272 
L 161.388123 -352.971272 
L 164.122698 -352.971272 
L 166.857272 -352.971272 
L 169.591846 -352.971272 
L 172.32642 -352.971272 
L 175.060995 -352.971272 
L 177.795569 -352.971272 
L 180.530143 -352.971272 
L 183.264717 -352.971272 
L 185.999292 -352.971272 
L 188.733866 -352.971272 
L 191.46844 -352.971272 
L 194.203014 -352.971272 
L 196.937589 -352.971272 
L 199.672163 -352.971272 
L 202.406737 -352.971272 
L 205.141311 -352.971272 
L 207.875886 -352.971272 
L 210.61046 -352.971272 
L 213.345034 -352.971272 
L 216.079608 -352.971272 
L 218.814183 -352.971272 
L 221.548757 -352.971272 
L 224.283331 -352.971272 
L 227.017905 -352.971272 
L 229.75248 -352.971272 
L 232.487054 -352.971272 
L 235.221628 -352.971272 
L 237.956202 -352.971272 
L 240.690777 -352.971272 
L 243.425351 -352.971272 
L 246.159925 -352.971272 
L 248.894499 -352.971272 
L 251.629074 -352.971272 
L 254.363648 -352.971272 
L 257.098222 -352.971272 
L 259.832796 -352.971272 
L 262.567371 -352.971272 
L 265.301945 -352.971272 
L 268.036519 -352.971272 
L 270.771093 -352.971272 
L 273.505668 -352.971272 
L 276.240242 -352.971272 
L 278.974816 -352.971272 
L 281.70939 -352.971272 
L 284.443965 -352.971272 
L 287.178539 -352.971272 
L 289.913113 -352.971272 
L 292.647687 -352.971272 
L 295.382262 -352.971272 
L 298.116836 -352.971272 
L 300.85141 -352.971272 
L 303.585984 -352.971272 
L 306.320559 -352.971272 
L 309.055133 -352.971272 
L 311.789707 -352.971272 
L 314.524281 -352.971272 
L 317.258856 -352.971272 
L 319.99343 -352.971272 
L 319.99343 -352.973645 
L 319.99343 -352.973645 
L 317.258856 -352.977828 
L 314.524281 -352.987174 
L 311.789707 -353.005145 
L 309.055133 -353.034627 
L 306.320559 -353.075328 
L 303.585984 -353.121359 
L 300.85141 -353.16144 
L 298.116836 -353.183141 
L 295.382262 -353.179496 
L 292.647687 -353.153706 
L 289.913113 -353.118568 
L 287.178539 -353.09109 
L 284.443965 -353.085958 
L 281.70939 -353.111328 
L 278.974816 -353.168204 
L 276.240242 -353.25301 
L 273.505668 -353.362138 
L 270.771093 -353.496177 
L 268.036519 -353.660871 
L 265.301945 -353.863881 
L 262.567371 -354.111024 
L 259.832796 -354.407949 
L 257.098222 -354.768665 
L 254.363648 -355.223409 
L 251.629074 -355.81487 
L 248.894499 -356.58068 
L 246.159925 -357.534339 
L 243.425351 -358.660592 
L 240.690777 -359.928803 
L 237.956202 -361.312321 
L 235.221628 -362.800027 
L 232.487054 -364.396956 
L 229.75248 -366.118582 
L 227.017905 -367.982117 
L 224.283331 -369.997663 
L 221.548757 -372.167083 
L 218.814183 -374.496899 
L 216.079608 -377.015585 
L 213.345034 -379.771968 
L 210.61046 -382.803111 
L 207.875886 -386.090348 
L 205.141311 -389.536366 
L 202.406737 -392.977057 
L 199.672163 -396.213929 
L 196.937589 -399.049104 
L 194.203014 -401.321087 
L 191.46844 -402.94501 
L 188.733866 -403.945638 
L 185.999292 -404.457111 
L 183.264717 -404.671945 
L 180.530143 -404.750864 
L 177.795569 -404.735853 
L 175.060995 -404.519329 
L 172.32642 -403.897148 
L 169.591846 -402.681988 
L 166.857272 -400.813677 
L 164.122698 -398.405358 
L 161.388123 -395.702994 
L 158.653549 -392.982376 
L 155.918975 -390.440613 
L 153.184401 -388.14211 
L 150.449826 -386.041094 
L 147.715252 -384.045226 
L 144.980678 -382.062213 
L 142.246104 -380.008942 
L 139.511529 -377.813566 
L 136.776955 -375.441422 
L 134.042381 -372.929697 
L 131.307807 -370.387597 
L 128.573232 -367.946555 
L 125.838658 -365.695967 
L 123.104084 -363.656172 
L 120.36951 -361.805797 
L 117.634935 -360.132408 
L 114.900361 -358.660101 
L 112.165787 -357.43499 
L 109.431213 -356.487879 
L 106.696638 -355.806989 
L 103.962064 -355.337794 
L 101.22749 -355.004181 
L 98.492916 -354.73541 
L 95.758341 -354.486514 
L 93.023767 -354.245884 
L 90.289193 -354.028246 
L 87.554619 -353.856477 
L 84.820044 -353.741873 
L 82.08547 -353.674414 
L 79.350896 -353.628028 
L 76.616322 -353.575261 
L 73.881747 -353.50036 
L 71.147173 -353.403497 
L 68.412599 -353.296458 
L 65.678025 -353.194719 
L 62.94345 -353.110557 
L 60.208876 -353.049553 
L 57.474302 -353.010719 
L 54.739728 -352.989008 
L 52.005153 -352.978359 
L 49.270579 -352.973781 
z
" id="m35b91279ed" style="stroke:#ffffff;stroke-opacity:0.25;"/>
    </defs>
    <g clip-path="url(#p1c788fb402)">
     <use style="fill:#4c72b0;fill-opacity:0.25;stroke:#ffffff;stroke-opacity:0.25;" x="0" xlink:href="#m35b91279ed" y="420.539844"/>
    </g>
   </g>
   <g id="line2d_20">
    <path clip-path="url(#p1c788fb402)" d="M 49.270579 67.566063 
L 52.005153 67.561485 
L 54.739728 67.550836 
L 57.474302 67.529125 
L 60.208876 67.490291 
L 62.94345 67.429287 
L 65.678025 67.345125 
L 68.412599 67.243386 
L 71.147173 67.136347 
L 73.881747 67.039483 
L 76.616322 66.964583 
L 79.350896 66.911816 
L 82.08547 66.86543 
L 84.820044 66.797971 
L 87.554619 66.683367 
L 90.289193 66.511598 
L 93.023767 66.29396 
L 95.758341 66.05333 
L 98.492916 65.804434 
L 101.22749 65.535663 
L 103.962064 65.202049 
L 106.696638 64.732854 
L 109.431213 64.051965 
L 112.165787 63.104853 
L 114.900361 61.879743 
L 117.634935 60.407436 
L 120.36951 58.734047 
L 123.104084 56.883672 
L 125.838658 54.843876 
L 128.573232 52.593289 
L 131.307807 50.152247 
L 134.042381 47.610147 
L 136.776955 45.098422 
L 139.511529 42.726278 
L 142.246104 40.530901 
L 144.980678 38.47763 
L 147.715252 36.494618 
L 150.449826 34.49875 
L 153.184401 32.397733 
L 155.918975 30.099231 
L 158.653549 27.557468 
L 161.388123 24.83685 
L 164.122698 22.134486 
L 166.857272 19.726167 
L 169.591846 17.857856 
L 172.32642 16.642696 
L 175.060995 16.020515 
L 177.795569 15.803991 
L 180.530143 15.78898 
L 183.264717 15.867899 
L 185.999292 16.082733 
L 188.733866 16.594205 
L 191.46844 17.594834 
L 194.203014 19.218757 
L 196.937589 21.490739 
L 199.672163 24.325915 
L 202.406737 27.562787 
L 205.141311 31.003478 
L 207.875886 34.449496 
L 210.61046 37.736733 
L 213.345034 40.767876 
L 216.079608 43.524259 
L 218.814183 46.042945 
L 221.548757 48.372761 
L 224.283331 50.54218 
L 227.017905 52.557727 
L 229.75248 54.421262 
L 232.487054 56.142888 
L 235.221628 57.739816 
L 237.956202 59.227522 
L 240.690777 60.61104 
L 243.425351 61.879252 
L 246.159925 63.005504 
L 248.894499 63.959164 
L 251.629074 64.724974 
L 254.363648 65.316435 
L 257.098222 65.771178 
L 259.832796 66.131895 
L 262.567371 66.428819 
L 265.301945 66.675963 
L 268.036519 66.878973 
L 270.771093 67.043667 
L 273.505668 67.177706 
L 276.240242 67.286834 
L 278.974816 67.37164 
L 281.70939 67.428516 
L 284.443965 67.453886 
L 287.178539 67.448754 
L 289.913113 67.421275 
L 292.647687 67.386137 
L 295.382262 67.360348 
L 298.116836 67.356702 
L 300.85141 67.378404 
L 303.585984 67.418485 
L 306.320559 67.464516 
L 309.055133 67.505217 
L 311.789707 67.534699 
L 314.524281 67.552669 
L 317.258856 67.562016 
L 319.99343 67.566198 
" style="fill:none;stroke:#4c72b0;stroke-linecap:round;stroke-width:1.5;"/>
   </g>
   <g id="patch_6">
    <path d="M 29.241719 67.568571 
L 340.02229 67.568571 
" style="fill:none;stroke:#ffffff;stroke-linecap:square;stroke-linejoin:miter;stroke-width:1.25;"/>
   </g>
  </g>
  <g id="axes_3">
   <g id="patch_7">
    <path d="M 350.738862 393.78 
L 404.321719 393.78 
L 404.321719 78.442286 
L 350.738862 78.442286 
z
" style="fill:#eaeaf2;"/>
   </g>
   <g id="matplotlib.axis_5">
    <g id="xtick_11"/>
    <g id="xtick_12"/>
   </g>
   <g id="matplotlib.axis_6">
    <g id="ytick_13">
     <g id="line2d_21">
      <path clip-path="url(#p44259e48ef)" d="M 350.738862 375.137997 
L 404.321719 375.137997 
" style="fill:none;stroke:#ffffff;stroke-linecap:round;"/>
     </g>
    </g>
    <g id="ytick_14">
     <g id="line2d_22">
      <path clip-path="url(#p44259e48ef)" d="M 350.738862 338.411356 
L 404.321719 338.411356 
" style="fill:none;stroke:#ffffff;stroke-linecap:round;"/>
     </g>
    </g>
    <g id="ytick_15">
     <g id="line2d_23">
      <path clip-path="url(#p44259e48ef)" d="M 350.738862 301.684714 
L 404.321719 301.684714 
" style="fill:none;stroke:#ffffff;stroke-linecap:round;"/>
     </g>
    </g>
    <g id="ytick_16">
     <g id="line2d_24">
      <path clip-path="url(#p44259e48ef)" d="M 350.738862 264.958073 
L 404.321719 264.958073 
" style="fill:none;stroke:#ffffff;stroke-linecap:round;"/>
     </g>
    </g>
    <g id="ytick_17">
     <g id="line2d_25">
      <path clip-path="url(#p44259e48ef)" d="M 350.738862 228.231432 
L 404.321719 228.231432 
" style="fill:none;stroke:#ffffff;stroke-linecap:round;"/>
     </g>
    </g>
    <g id="ytick_18">
     <g id="line2d_26">
      <path clip-path="url(#p44259e48ef)" d="M 350.738862 191.50479 
L 404.321719 191.50479 
" style="fill:none;stroke:#ffffff;stroke-linecap:round;"/>
     </g>
    </g>
    <g id="ytick_19">
     <g id="line2d_27">
      <path clip-path="url(#p44259e48ef)" d="M 350.738862 154.778149 
L 404.321719 154.778149 
" style="fill:none;stroke:#ffffff;stroke-linecap:round;"/>
     </g>
    </g>
    <g id="ytick_20">
     <g id="line2d_28">
      <path clip-path="url(#p44259e48ef)" d="M 350.738862 118.051507 
L 404.321719 118.051507 
" style="fill:none;stroke:#ffffff;stroke-linecap:round;"/>
     </g>
    </g>
    <g id="ytick_21">
     <g id="line2d_29">
      <path clip-path="url(#p44259e48ef)" d="M 350.738862 81.324866 
L 404.321719 81.324866 
" style="fill:none;stroke:#ffffff;stroke-linecap:round;"/>
     </g>
    </g>
   </g>
   <g id="PolyCollection_2">
    <defs>
     <path d="M 350.741261 -48.190981 
L 350.738862 -48.190981 
L 350.738862 -50.943258 
L 350.738862 -53.695535 
L 350.738862 -56.447812 
L 350.738862 -59.200089 
L 350.738862 -61.952366 
L 350.738862 -64.704644 
L 350.738862 -67.456921 
L 350.738862 -70.209198 
L 350.738862 -72.961475 
L 350.738862 -75.713752 
L 350.738862 -78.46603 
L 350.738862 -81.218307 
L 350.738862 -83.970584 
L 350.738862 -86.722861 
L 350.738862 -89.475138 
L 350.738862 -92.227415 
L 350.738862 -94.979693 
L 350.738862 -97.73197 
L 350.738862 -100.484247 
L 350.738862 -103.236524 
L 350.738862 -105.988801 
L 350.738862 -108.741078 
L 350.738862 -111.493356 
L 350.738862 -114.245633 
L 350.738862 -116.99791 
L 350.738862 -119.750187 
L 350.738862 -122.502464 
L 350.738862 -125.254742 
L 350.738862 -128.007019 
L 350.738862 -130.759296 
L 350.738862 -133.511573 
L 350.738862 -136.26385 
L 350.738862 -139.016127 
L 350.738862 -141.768405 
L 350.738862 -144.520682 
L 350.738862 -147.272959 
L 350.738862 -150.025236 
L 350.738862 -152.777513 
L 350.738862 -155.529791 
L 350.738862 -158.282068 
L 350.738862 -161.034345 
L 350.738862 -163.786622 
L 350.738862 -166.538899 
L 350.738862 -169.291176 
L 350.738862 -172.043454 
L 350.738862 -174.795731 
L 350.738862 -177.548008 
L 350.738862 -180.300285 
L 350.738862 -183.052562 
L 350.738862 -185.804839 
L 350.738862 -188.557117 
L 350.738862 -191.309394 
L 350.738862 -194.061671 
L 350.738862 -196.813948 
L 350.738862 -199.566225 
L 350.738862 -202.318503 
L 350.738862 -205.07078 
L 350.738862 -207.823057 
L 350.738862 -210.575334 
L 350.738862 -213.327611 
L 350.738862 -216.079888 
L 350.738862 -218.832166 
L 350.738862 -221.584443 
L 350.738862 -224.33672 
L 350.738862 -227.088997 
L 350.738862 -229.841274 
L 350.738862 -232.593552 
L 350.738862 -235.345829 
L 350.738862 -238.098106 
L 350.738862 -240.850383 
L 350.738862 -243.60266 
L 350.738862 -246.354937 
L 350.738862 -249.107215 
L 350.738862 -251.859492 
L 350.738862 -254.611769 
L 350.738862 -257.364046 
L 350.738862 -260.116323 
L 350.738862 -262.8686 
L 350.738862 -265.620878 
L 350.738862 -268.373155 
L 350.738862 -271.125432 
L 350.738862 -273.877709 
L 350.738862 -276.629986 
L 350.738862 -279.382264 
L 350.738862 -282.134541 
L 350.738862 -284.886818 
L 350.738862 -287.639095 
L 350.738862 -290.391372 
L 350.738862 -293.143649 
L 350.738862 -295.895927 
L 350.738862 -298.648204 
L 350.738862 -301.400481 
L 350.738862 -304.152758 
L 350.738862 -306.905035 
L 350.738862 -309.657313 
L 350.738862 -312.40959 
L 350.738862 -315.161867 
L 350.738862 -317.914144 
L 350.738862 -320.666421 
L 350.744984 -320.666421 
L 350.744984 -320.666421 
L 350.753831 -317.914144 
L 350.772492 -315.161867 
L 350.808392 -312.40959 
L 350.871402 -309.657313 
L 350.972348 -306.905035 
L 351.120063 -304.152758 
L 351.317682 -301.400481 
L 351.559801 -298.648204 
L 351.832436 -295.895927 
L 352.116995 -293.143649 
L 352.397838 -290.391372 
L 352.67105 -287.639095 
L 352.950679 -284.886818 
L 353.268745 -282.134541 
L 353.667253 -279.382264 
L 354.184329 -276.629986 
L 354.840696 -273.877709 
L 355.634578 -271.125432 
L 356.550286 -268.373155 
L 357.578376 -265.620878 
L 358.736976 -262.8686 
L 360.079941 -260.116323 
L 361.682039 -257.364046 
L 363.603566 -254.611769 
L 365.850142 -251.859492 
L 368.34928 -249.107215 
L 370.958605 -246.354937 
L 373.504846 -243.60266 
L 375.837861 -240.850383 
L 377.878544 -238.098106 
L 379.643929 -235.345829 
L 381.241706 -232.593552 
L 382.83483 -229.841274 
L 384.584973 -227.088997 
L 386.592101 -224.33672 
L 388.85289 -221.584443 
L 391.256919 -218.832166 
L 393.624603 -216.079888 
L 395.771265 -213.327611 
L 397.568574 -210.575334 
L 398.975885 -207.823057 
L 400.029571 -205.07078 
L 400.800315 -202.318503 
L 401.34439 -199.566225 
L 401.675689 -196.813948 
L 401.770154 -194.061671 
L 401.593252 -191.309394 
L 401.128748 -188.557117 
L 400.39106 -185.804839 
L 399.418556 -183.052562 
L 398.258085 -180.300285 
L 396.952185 -177.548008 
L 395.532455 -174.795731 
L 394.015666 -172.043454 
L 392.400274 -169.291176 
L 390.666773 -166.538899 
L 388.787292 -163.786622 
L 386.744097 -161.034345 
L 384.548025 -158.282068 
L 382.244897 -155.529791 
L 379.904062 -152.777513 
L 377.594231 -150.025236 
L 375.359618 -147.272959 
L 373.209285 -144.520682 
L 371.125005 -141.768405 
L 369.083002 -139.016127 
L 367.077914 -136.26385 
L 365.136635 -133.511573 
L 363.315086 -130.759296 
L 361.679734 -128.007019 
L 360.283172 -125.254742 
L 359.14547 -122.502464 
L 358.248847 -119.750187 
L 357.545508 -116.99791 
L 356.972272 -114.245633 
L 356.464871 -111.493356 
L 355.968605 -108.741078 
L 355.445935 -105.988801 
L 354.881854 -103.236524 
L 354.285547 -100.484247 
L 353.685716 -97.73197 
L 353.119583 -94.979693 
L 352.619738 -92.227415 
L 352.20474 -89.475138 
L 351.876851 -86.722861 
L 351.625903 -83.970584 
L 351.435599 -81.218307 
L 351.288994 -78.46603 
L 351.171869 -75.713752 
L 351.074288 -72.961475 
L 350.990845 -70.209198 
L 350.919827 -67.456921 
L 350.861575 -64.704644 
L 350.816668 -61.952366 
L 350.784653 -59.200089 
L 350.763746 -56.447812 
L 350.751303 -53.695535 
L 350.74457 -50.943258 
L 350.741261 -48.190981 
z
" id="ma9e3e86f23" style="stroke:#ffffff;stroke-opacity:0.25;"/>
    </defs>
    <g clip-path="url(#p44259e48ef)">
     <use style="fill:#4c72b0;fill-opacity:0.25;stroke:#ffffff;stroke-opacity:0.25;" x="0" xlink:href="#ma9e3e86f23" y="420.539844"/>
    </g>
   </g>
   <g id="line2d_30">
    <path clip-path="url(#p44259e48ef)" d="M 350.741261 372.348863 
L 350.74457 369.596586 
L 350.751303 366.844309 
L 350.763746 364.092032 
L 350.784653 361.339754 
L 350.816668 358.587477 
L 350.861575 355.8352 
L 350.919827 353.082923 
L 350.990845 350.330646 
L 351.074288 347.578369 
L 351.171869 344.826091 
L 351.288994 342.073814 
L 351.435599 339.321537 
L 351.625903 336.56926 
L 351.876851 333.816983 
L 352.20474 331.064706 
L 352.619738 328.312428 
L 353.119583 325.560151 
L 353.685716 322.807874 
L 354.285547 320.055597 
L 354.881854 317.30332 
L 355.445935 314.551042 
L 355.968605 311.798765 
L 356.464871 309.046488 
L 356.972272 306.294211 
L 357.545508 303.541934 
L 358.248847 300.789657 
L 359.14547 298.037379 
L 360.283172 295.285102 
L 361.679734 292.532825 
L 363.315086 289.780548 
L 365.136635 287.028271 
L 367.077914 284.275993 
L 369.083002 281.523716 
L 371.125005 278.771439 
L 373.209285 276.019162 
L 375.359618 273.266885 
L 377.594231 270.514608 
L 379.904062 267.76233 
L 382.244897 265.010053 
L 384.548025 262.257776 
L 386.744097 259.505499 
L 388.787292 256.753222 
L 390.666773 254.000945 
L 392.400274 251.248667 
L 394.015666 248.49639 
L 395.532455 245.744113 
L 396.952185 242.991836 
L 398.258085 240.239559 
L 399.418556 237.487281 
L 400.39106 234.735004 
L 401.128748 231.982727 
L 401.593252 229.23045 
L 401.770154 226.478173 
L 401.675689 223.725896 
L 401.34439 220.973618 
L 400.800315 218.221341 
L 400.029571 215.469064 
L 398.975885 212.716787 
L 397.568574 209.96451 
L 395.771265 207.212232 
L 393.624603 204.459955 
L 391.256919 201.707678 
L 388.85289 198.955401 
L 386.592101 196.203124 
L 384.584973 193.450847 
L 382.83483 190.698569 
L 381.241706 187.946292 
L 379.643929 185.194015 
L 377.878544 182.441738 
L 375.837861 179.689461 
L 373.504846 176.937184 
L 370.958605 174.184906 
L 368.34928 171.432629 
L 365.850142 168.680352 
L 363.603566 165.928075 
L 361.682039 163.175798 
L 360.079941 160.42352 
L 358.736976 157.671243 
L 357.578376 154.918966 
L 356.550286 152.166689 
L 355.634578 149.414412 
L 354.840696 146.662135 
L 354.184329 143.909857 
L 353.667253 141.15758 
L 353.268745 138.405303 
L 352.950679 135.653026 
L 352.67105 132.900749 
L 352.397838 130.148471 
L 352.116995 127.396194 
L 351.832436 124.643917 
L 351.559801 121.89164 
L 351.317682 119.139363 
L 351.120063 116.387086 
L 350.972348 113.634808 
L 350.871402 110.882531 
L 350.808392 108.130254 
L 350.772492 105.377977 
L 350.753831 102.6257 
L 350.744984 99.873423 
" style="fill:none;stroke:#4c72b0;stroke-linecap:round;stroke-width:1.5;"/>
   </g>
   <g id="patch_8">
    <path d="M 350.738862 393.78 
L 350.738862 78.442286 
" style="fill:none;stroke:#ffffff;stroke-linecap:square;stroke-linejoin:miter;stroke-width:1.25;"/>
   </g>
  </g>
 </g>
 <defs>
  <clipPath id="pc6f723671d">
   <rect height="315.337714" width="310.780571" x="29.241719" y="78.442286"/>
  </clipPath>
  <clipPath id="p1c788fb402">
   <rect height="54.368571" width="310.780571" x="29.241719" y="13.2"/>
  </clipPath>
  <clipPath id="p44259e48ef">
   <rect height="315.337714" width="53.582857" x="350.738862" y="78.442286"/>
  </clipPath>
 </defs>
</svg>
