<?xml version="1.0" encoding="utf-8" standalone="no"?>
<!DOCTYPE svg PUBLIC "-//W3C//DTD SVG 1.1//EN"
  "http://www.w3.org/Graphics/SVG/1.1/DTD/svg11.dtd">
<!-- Created with matplotlib (https://matplotlib.org/) -->
<svg height="420.539844pt" version="1.1" viewBox="0 0 417.521719 420.539844" width="417.521719pt" xmlns="http://www.w3.org/2000/svg" xmlns:xlink="http://www.w3.org/1999/xlink">
 <defs>
  <style type="text/css">
*{stroke-linecap:butt;stroke-linejoin:round;}
  </style>
 </defs>
 <g id="figure_1">
  <g id="patch_1">
   <path d="M 0 420.539844 
L 417.521719 420.539844 
L 417.521719 0 
L 0 0 
z
" style="fill:#ffffff;"/>
  </g>
  <g id="axes_1">
   <g id="patch_2">
    <path d="M 29.241719 393.78 
L 340.02229 393.78 
L 340.02229 78.442286 
L 29.241719 78.442286 
z
" style="fill:#eaeaf2;"/>
   </g>
   <g id="matplotlib.axis_1">
    <g id="xtick_1">
     <g id="line2d_1">
      <path clip-path="url(#p383e7a7110)" d="M 44.446767 393.78 
L 44.446767 78.442286 
" style="fill:none;stroke:#ffffff;stroke-linecap:round;"/>
     </g>
     <g id="text_1">
      <!-- −4 -->
      <defs>
       <path d="M 52.828125 31.203125 
L 5.5625 31.203125 
L 5.5625 39.40625 
L 52.828125 39.40625 
z
" id="ArialMT-8722"/>
       <path d="M 32.328125 0 
L 32.328125 17.140625 
L 1.265625 17.140625 
L 1.265625 25.203125 
L 33.9375 71.578125 
L 41.109375 71.578125 
L 41.109375 25.203125 
L 50.78125 25.203125 
L 50.78125 17.140625 
L 41.109375 17.140625 
L 41.109375 0 
z
M 32.328125 25.203125 
L 32.328125 57.46875 
L 9.90625 25.203125 
z
" id="ArialMT-52"/>
      </defs>
      <g style="fill:#262626;" transform="translate(38.175907 411.153594)scale(0.11 -0.11)">
       <use xlink:href="#ArialMT-8722"/>
       <use x="58.398438" xlink:href="#ArialMT-52"/>
      </g>
     </g>
    </g>
    <g id="xtick_2">
     <g id="line2d_2">
      <path clip-path="url(#p383e7a7110)" d="M 111.457419 393.78 
L 111.457419 78.442286 
" style="fill:none;stroke:#ffffff;stroke-linecap:round;"/>
     </g>
     <g id="text_2">
      <!-- −2 -->
      <defs>
       <path d="M 50.34375 8.453125 
L 50.34375 0 
L 3.03125 0 
Q 2.9375 3.171875 4.046875 6.109375 
Q 5.859375 10.9375 9.828125 15.625 
Q 13.8125 20.3125 21.34375 26.46875 
Q 33.015625 36.03125 37.109375 41.625 
Q 41.21875 47.21875 41.21875 52.203125 
Q 41.21875 57.421875 37.46875 61 
Q 33.734375 64.59375 27.734375 64.59375 
Q 21.390625 64.59375 17.578125 60.78125 
Q 13.765625 56.984375 13.71875 50.25 
L 4.6875 51.171875 
Q 5.609375 61.28125 11.65625 66.578125 
Q 17.71875 71.875 27.9375 71.875 
Q 38.234375 71.875 44.234375 66.15625 
Q 50.25 60.453125 50.25 52 
Q 50.25 47.703125 48.484375 43.546875 
Q 46.734375 39.40625 42.65625 34.8125 
Q 38.578125 30.21875 29.109375 22.21875 
Q 21.1875 15.578125 18.9375 13.203125 
Q 16.703125 10.84375 15.234375 8.453125 
z
" id="ArialMT-50"/>
      </defs>
      <g style="fill:#262626;" transform="translate(105.186559 411.153594)scale(0.11 -0.11)">
       <use xlink:href="#ArialMT-8722"/>
       <use x="58.398438" xlink:href="#ArialMT-50"/>
      </g>
     </g>
    </g>
    <g id="xtick_3">
     <g id="line2d_3">
      <path clip-path="url(#p383e7a7110)" d="M 178.46807 393.78 
L 178.46807 78.442286 
" style="fill:none;stroke:#ffffff;stroke-linecap:round;"/>
     </g>
     <g id="text_3">
      <!-- 0 -->
      <defs>
       <path d="M 4.15625 35.296875 
Q 4.15625 48 6.765625 55.734375 
Q 9.375 63.484375 14.515625 67.671875 
Q 19.671875 71.875 27.484375 71.875 
Q 33.25 71.875 37.59375 69.546875 
Q 41.9375 67.234375 44.765625 62.859375 
Q 47.609375 58.5 49.21875 52.21875 
Q 50.828125 45.953125 50.828125 35.296875 
Q 50.828125 22.703125 48.234375 14.96875 
Q 45.65625 7.234375 40.5 3 
Q 35.359375 -1.21875 27.484375 -1.21875 
Q 17.140625 -1.21875 11.234375 6.203125 
Q 4.15625 15.140625 4.15625 35.296875 
z
M 13.1875 35.296875 
Q 13.1875 17.671875 17.3125 11.828125 
Q 21.4375 6 27.484375 6 
Q 33.546875 6 37.671875 11.859375 
Q 41.796875 17.71875 41.796875 35.296875 
Q 41.796875 52.984375 37.671875 58.78125 
Q 33.546875 64.59375 27.390625 64.59375 
Q 21.34375 64.59375 17.71875 59.46875 
Q 13.1875 52.9375 13.1875 35.296875 
z
" id="ArialMT-48"/>
      </defs>
      <g style="fill:#262626;" transform="translate(175.409555 411.153594)scale(0.11 -0.11)">
       <use xlink:href="#ArialMT-48"/>
      </g>
     </g>
    </g>
    <g id="xtick_4">
     <g id="line2d_4">
      <path clip-path="url(#p383e7a7110)" d="M 245.478722 393.78 
L 245.478722 78.442286 
" style="fill:none;stroke:#ffffff;stroke-linecap:round;"/>
     </g>
     <g id="text_4">
      <!-- 2 -->
      <g style="fill:#262626;" transform="translate(242.420207 411.153594)scale(0.11 -0.11)">
       <use xlink:href="#ArialMT-50"/>
      </g>
     </g>
    </g>
    <g id="xtick_5">
     <g id="line2d_5">
      <path clip-path="url(#p383e7a7110)" d="M 312.489374 393.78 
L 312.489374 78.442286 
" style="fill:none;stroke:#ffffff;stroke-linecap:round;"/>
     </g>
     <g id="text_5">
      <!-- 4 -->
      <g style="fill:#262626;" transform="translate(309.430858 411.153594)scale(0.11 -0.11)">
       <use xlink:href="#ArialMT-52"/>
      </g>
     </g>
    </g>
   </g>
   <g id="matplotlib.axis_2">
    <g id="ytick_1">
     <g id="line2d_6">
      <path clip-path="url(#p383e7a7110)" d="M 29.241719 384.386475 
L 340.02229 384.386475 
" style="fill:none;stroke:#ffffff;stroke-linecap:round;"/>
     </g>
     <g id="text_6">
      <!-- −4 -->
      <g style="fill:#262626;" transform="translate(7.2 388.323272)scale(0.11 -0.11)">
       <use xlink:href="#ArialMT-8722"/>
       <use x="58.398438" xlink:href="#ArialMT-52"/>
      </g>
     </g>
    </g>
    <g id="ytick_2">
     <g id="line2d_7">
      <path clip-path="url(#p383e7a7110)" d="M 29.241719 318.005764 
L 340.02229 318.005764 
" style="fill:none;stroke:#ffffff;stroke-linecap:round;"/>
     </g>
     <g id="text_7">
      <!-- −2 -->
      <g style="fill:#262626;" transform="translate(7.2 321.942561)scale(0.11 -0.11)">
       <use xlink:href="#ArialMT-8722"/>
       <use x="58.398438" xlink:href="#ArialMT-50"/>
      </g>
     </g>
    </g>
    <g id="ytick_3">
     <g id="line2d_8">
      <path clip-path="url(#p383e7a7110)" d="M 29.241719 251.625054 
L 340.02229 251.625054 
" style="fill:none;stroke:#ffffff;stroke-linecap:round;"/>
     </g>
     <g id="text_8">
      <!-- 0 -->
      <g style="fill:#262626;" transform="translate(13.624688 255.561851)scale(0.11 -0.11)">
       <use xlink:href="#ArialMT-48"/>
      </g>
     </g>
    </g>
    <g id="ytick_4">
     <g id="line2d_9">
      <path clip-path="url(#p383e7a7110)" d="M 29.241719 185.244344 
L 340.02229 185.244344 
" style="fill:none;stroke:#ffffff;stroke-linecap:round;"/>
     </g>
     <g id="text_9">
      <!-- 2 -->
      <g style="fill:#262626;" transform="translate(13.624688 189.18114)scale(0.11 -0.11)">
       <use xlink:href="#ArialMT-50"/>
      </g>
     </g>
    </g>
    <g id="ytick_5">
     <g id="line2d_10">
      <path clip-path="url(#p383e7a7110)" d="M 29.241719 118.863633 
L 340.02229 118.863633 
" style="fill:none;stroke:#ffffff;stroke-linecap:round;"/>
     </g>
     <g id="text_10">
      <!-- 4 -->
      <g style="fill:#262626;" transform="translate(13.624688 122.80043)scale(0.11 -0.11)">
       <use xlink:href="#ArialMT-52"/>
      </g>
     </g>
    </g>
   </g>
   <g id="PathCollection_1">
    <path clip-path="url(#p383e7a7110)" d="M 46.221924 379.446468 
L 49.075741 379.446468 
L 51.929557 379.446468 
L 54.783373 379.446468 
L 57.637189 379.446468 
L 60.491005 379.446468 
L 63.344821 379.446468 
L 66.198637 379.446468 
L 69.052453 379.446468 
L 71.906269 379.446468 
L 74.760085 379.446468 
L 77.613901 379.446468 
L 80.467717 379.446468 
L 83.321534 379.446468 
L 86.17535 379.446468 
L 89.029166 379.446468 
L 91.882982 379.446468 
L 94.736798 379.446468 
L 97.590614 379.446468 
L 100.44443 379.446468 
L 103.298246 379.446468 
L 106.152062 379.446468 
L 109.005878 379.446468 
L 111.859694 379.446468 
L 114.71351 379.446468 
L 117.567327 379.446468 
L 120.421143 379.446468 
L 123.274959 379.446468 
L 126.128775 379.446468 
L 128.982591 379.446468 
L 131.836407 379.446468 
L 134.690223 379.446468 
L 137.544039 379.446468 
L 140.397855 379.446468 
L 143.251671 379.446468 
L 146.105487 379.446468 
L 148.959303 379.446468 
L 151.81312 379.446468 
L 154.666936 379.446468 
L 157.520752 379.446468 
L 160.374568 379.446468 
L 163.228384 379.446468 
L 166.0822 379.446468 
L 168.936016 379.446468 
L 171.789832 379.446468 
L 174.643648 379.446468 
L 177.497464 379.446468 
L 180.35128 379.446468 
L 183.205096 379.446468 
L 186.058913 379.446468 
L 188.912729 379.446468 
L 191.766545 379.446468 
L 194.620361 379.446468 
L 197.474177 379.446468 
L 200.327993 379.446468 
L 203.181809 379.446468 
L 206.035625 379.446468 
L 208.889441 379.446468 
L 211.743257 379.446468 
L 214.597073 379.446468 
L 217.450889 379.446468 
L 220.304706 379.446468 
L 223.158522 379.446468 
L 226.012338 379.446468 
L 228.866154 379.446468 
L 231.71997 379.446468 
L 234.573786 379.446468 
L 237.427602 379.446468 
L 240.281418 379.446468 
L 243.135234 379.446468 
L 245.98905 379.446468 
L 248.842866 379.446468 
L 251.696682 379.446468 
L 254.550498 379.446468 
L 257.404315 379.446468 
L 260.258131 379.446468 
L 263.111947 379.446468 
L 265.965763 379.446468 
L 268.819579 379.446468 
L 271.673395 379.446468 
L 274.527211 379.446468 
L 277.381027 379.446468 
L 280.234843 379.446468 
L 283.088659 379.446468 
L 285.942475 379.446468 
L 288.796291 379.446468 
L 291.650108 379.446468 
L 294.503924 379.446468 
L 297.35774 379.446468 
L 300.211556 379.446468 
L 303.065372 379.446468 
L 305.919188 379.446468 
L 308.773004 379.446468 
L 311.62682 379.446468 
L 314.480636 379.446468 
L 317.334452 379.446468 
L 320.188268 379.446468 
L 323.042084 379.446468 
L 325.895901 379.446468 
L 325.895901 376.550804 
L 325.895901 373.655141 
L 325.895901 370.759478 
L 325.895901 367.863815 
L 325.895901 364.968152 
L 325.895901 362.072489 
L 325.895901 359.176826 
L 325.895901 356.281163 
L 325.895901 353.385499 
L 325.895901 350.489836 
L 325.895901 347.594173 
L 325.895901 344.69851 
L 325.895901 341.802847 
L 325.895901 338.907184 
L 325.895901 336.011521 
L 325.895901 333.115858 
L 325.895901 330.220194 
L 325.895901 327.324531 
L 325.895901 324.428868 
L 325.895901 321.533205 
L 325.895901 318.637542 
L 325.895901 315.741879 
L 325.895901 312.846216 
L 325.895901 309.950553 
L 325.895901 307.054889 
L 325.895901 304.159226 
L 325.895901 301.263563 
L 325.895901 298.3679 
L 325.895901 295.472237 
L 325.895901 292.576574 
L 325.895901 289.680911 
L 325.895901 286.785248 
L 325.895901 283.889584 
L 325.895901 280.993921 
L 325.895901 278.098258 
L 325.895901 275.202595 
L 325.895901 272.306932 
L 325.895901 269.411269 
L 325.895901 266.515606 
L 325.895901 263.619943 
L 325.895901 260.724279 
L 325.895901 257.828616 
L 325.895901 254.932953 
L 325.895901 252.03729 
L 325.895901 249.141627 
L 325.895901 246.245964 
L 325.895901 243.350301 
L 325.895901 240.454638 
L 325.895901 237.558974 
L 325.895901 234.663311 
L 325.895901 231.767648 
L 325.895901 228.871985 
L 325.895901 225.976322 
L 325.895901 223.080659 
L 325.895901 220.184996 
L 325.895901 217.289333 
L 325.895901 214.393669 
L 325.895901 211.498006 
L 325.895901 208.602343 
L 325.895901 205.70668 
L 325.895901 202.811017 
L 325.895901 199.915354 
L 325.895901 197.019691 
L 325.895901 194.124028 
L 325.895901 191.228364 
L 325.895901 188.332701 
L 325.895901 185.437038 
L 325.895901 182.541375 
L 325.895901 179.645712 
L 325.895901 176.750049 
L 325.895901 173.854386 
L 325.895901 170.958723 
L 325.895901 168.063059 
L 325.895901 165.167396 
L 325.895901 162.271733 
L 325.895901 159.37607 
L 325.895901 156.480407 
L 325.895901 153.584744 
L 325.895901 150.689081 
L 325.895901 147.793418 
L 325.895901 144.897754 
L 325.895901 142.002091 
L 325.895901 139.106428 
L 325.895901 136.210765 
L 325.895901 133.315102 
L 325.895901 130.419439 
L 325.895901 127.523776 
L 325.895901 124.628113 
L 325.895901 121.732449 
L 325.895901 118.836786 
L 325.895901 115.941123 
L 325.895901 113.04546 
L 325.895901 110.149797 
L 325.895901 107.254134 
L 325.895901 104.358471 
L 325.895901 101.462808 
L 325.895901 98.567144 
L 325.895901 95.671481 
L 325.895901 92.775818 
L 323.042084 92.775818 
L 320.188268 92.775818 
L 317.334452 92.775818 
L 314.480636 92.775818 
L 311.62682 92.775818 
L 308.773004 92.775818 
L 305.919188 92.775818 
L 303.065372 92.775818 
L 300.211556 92.775818 
L 297.35774 92.775818 
L 294.503924 92.775818 
L 291.650108 92.775818 
L 288.796291 92.775818 
L 285.942475 92.775818 
L 283.088659 92.775818 
L 280.234843 92.775818 
L 277.381027 92.775818 
L 274.527211 92.775818 
L 271.673395 92.775818 
L 268.819579 92.775818 
L 265.965763 92.775818 
L 263.111947 92.775818 
L 260.258131 92.775818 
L 257.404315 92.775818 
L 254.550498 92.775818 
L 251.696682 92.775818 
L 248.842866 92.775818 
L 245.98905 92.775818 
L 243.135234 92.775818 
L 240.281418 92.775818 
L 237.427602 92.775818 
L 234.573786 92.775818 
L 231.71997 92.775818 
L 228.866154 92.775818 
L 226.012338 92.775818 
L 223.158522 92.775818 
L 220.304706 92.775818 
L 217.450889 92.775818 
L 214.597073 92.775818 
L 211.743257 92.775818 
L 208.889441 92.775818 
L 206.035625 92.775818 
L 203.181809 92.775818 
L 200.327993 92.775818 
L 197.474177 92.775818 
L 194.620361 92.775818 
L 191.766545 92.775818 
L 188.912729 92.775818 
L 186.058913 92.775818 
L 183.205096 92.775818 
L 180.35128 92.775818 
L 177.497464 92.775818 
L 174.643648 92.775818 
L 171.789832 92.775818 
L 168.936016 92.775818 
L 166.0822 92.775818 
L 163.228384 92.775818 
L 160.374568 92.775818 
L 157.520752 92.775818 
L 154.666936 92.775818 
L 151.81312 92.775818 
L 148.959303 92.775818 
L 146.105487 92.775818 
L 143.251671 92.775818 
L 140.397855 92.775818 
L 137.544039 92.775818 
L 134.690223 92.775818 
L 131.836407 92.775818 
L 128.982591 92.775818 
L 126.128775 92.775818 
L 123.274959 92.775818 
L 120.421143 92.775818 
L 117.567327 92.775818 
L 114.71351 92.775818 
L 111.859694 92.775818 
L 109.005878 92.775818 
L 106.152062 92.775818 
L 103.298246 92.775818 
L 100.44443 92.775818 
L 97.590614 92.775818 
L 94.736798 92.775818 
L 91.882982 92.775818 
L 89.029166 92.775818 
L 86.17535 92.775818 
L 83.321534 92.775818 
L 80.467717 92.775818 
L 77.613901 92.775818 
L 74.760085 92.775818 
L 71.906269 92.775818 
L 69.052453 92.775818 
L 66.198637 92.775818 
L 63.344821 92.775818 
L 60.491005 92.775818 
L 57.637189 92.775818 
L 54.783373 92.775818 
L 51.929557 92.775818 
L 49.075741 92.775818 
L 46.221924 92.775818 
L 43.368108 92.775818 
L 43.368108 95.671481 
L 43.368108 98.567144 
L 43.368108 101.462808 
L 43.368108 104.358471 
L 43.368108 107.254134 
L 43.368108 110.149797 
L 43.368108 113.04546 
L 43.368108 115.941123 
L 43.368108 118.836786 
L 43.368108 121.732449 
L 43.368108 124.628113 
L 43.368108 127.523776 
L 43.368108 130.419439 
L 43.368108 133.315102 
L 43.368108 136.210765 
L 43.368108 139.106428 
L 43.368108 142.002091 
L 43.368108 144.897754 
L 43.368108 147.793418 
L 43.368108 150.689081 
L 43.368108 153.584744 
L 43.368108 156.480407 
L 43.368108 159.37607 
L 43.368108 162.271733 
L 43.368108 165.167396 
L 43.368108 168.063059 
L 43.368108 170.958723 
L 43.368108 173.854386 
L 43.368108 176.750049 
L 43.368108 179.645712 
L 43.368108 182.541375 
L 43.368108 185.437038 
L 43.368108 188.332701 
L 43.368108 191.228364 
L 43.368108 194.124028 
L 43.368108 197.019691 
L 43.368108 199.915354 
L 43.368108 202.811017 
L 43.368108 205.70668 
L 43.368108 208.602343 
L 43.368108 211.498006 
L 43.368108 214.393669 
L 43.368108 217.289333 
L 43.368108 220.184996 
L 43.368108 223.080659 
L 43.368108 225.976322 
L 43.368108 228.871985 
L 43.368108 231.767648 
L 43.368108 234.663311 
L 43.368108 237.558974 
L 43.368108 240.454638 
L 43.368108 243.350301 
L 43.368108 246.245964 
L 43.368108 249.141627 
L 43.368108 252.03729 
L 43.368108 254.932953 
L 43.368108 257.828616 
L 43.368108 260.724279 
L 43.368108 263.619943 
L 43.368108 266.515606 
L 43.368108 269.411269 
L 43.368108 272.306932 
L 43.368108 275.202595 
L 43.368108 278.098258 
L 43.368108 280.993921 
L 43.368108 283.889584 
L 43.368108 286.785248 
L 43.368108 289.680911 
L 43.368108 292.576574 
L 43.368108 295.472237 
L 43.368108 298.3679 
L 43.368108 301.263563 
L 43.368108 304.159226 
L 43.368108 307.054889 
L 43.368108 309.950553 
L 43.368108 312.846216 
L 43.368108 315.741879 
L 43.368108 318.637542 
L 43.368108 321.533205 
L 43.368108 324.428868 
L 43.368108 327.324531 
L 43.368108 330.220194 
L 43.368108 333.115858 
L 43.368108 336.011521 
L 43.368108 338.907184 
L 43.368108 341.802847 
L 43.368108 344.69851 
L 43.368108 347.594173 
L 43.368108 350.489836 
L 43.368108 353.385499 
L 43.368108 356.281163 
L 43.368108 359.176826 
L 43.368108 362.072489 
L 43.368108 364.968152 
L 43.368108 367.863815 
L 43.368108 370.759478 
L 43.368108 373.655141 
L 43.368108 376.550804 
L 43.368108 379.446468 
z
M 108.381995 327.324531 
L 106.61312 324.428868 
L 106.557141 321.533205 
L 106.579314 318.637542 
L 106.396495 315.741879 
L 106.152062 314.149258 
L 105.949359 312.846216 
L 105.500843 309.950553 
L 105.333278 307.054889 
L 105.540783 304.159226 
L 106.119538 301.263563 
L 106.152062 301.158944 
L 106.910652 298.3679 
L 107.880941 295.472237 
L 109.005878 292.586835 
L 109.009564 292.576574 
L 109.997658 289.680911 
L 110.998663 286.785248 
L 111.859694 284.322035 
L 112.004627 283.889584 
L 113.041378 280.993921 
L 114.366291 278.098258 
L 114.71351 277.499987 
L 115.951118 275.202595 
L 117.567327 272.672299 
L 117.78984 272.306932 
L 119.72641 269.411269 
L 120.421143 268.435585 
L 121.731324 266.515606 
L 123.274959 264.314724 
L 123.751347 263.619943 
L 125.753544 260.724279 
L 126.128775 260.198381 
L 127.800906 257.828616 
L 128.982591 256.2528 
L 129.986455 254.932953 
L 131.836407 252.666832 
L 132.369278 252.03729 
L 134.690223 249.473359 
L 135.006203 249.141627 
L 137.544039 246.607866 
L 137.927307 246.245964 
L 140.397855 243.971006 
L 141.107526 243.350301 
L 143.251671 241.470818 
L 144.461157 240.454638 
L 146.105487 239.036019 
L 147.877193 237.558974 
L 148.959303 236.616315 
L 151.271401 234.663311 
L 151.81312 234.181246 
L 154.614929 231.767648 
L 154.666936 231.720541 
L 157.520752 229.114653 
L 157.789285 228.871985 
L 160.374568 226.495982 
L 160.95241 225.976322 
L 163.228384 223.910941 
L 164.1652 223.080659 
L 166.0822 221.383829 
L 167.470302 220.184996 
L 168.936016 218.930352 
L 170.906059 217.289333 
L 171.789832 216.56009 
L 174.502535 214.393669 
L 174.643648 214.281087 
L 177.497464 211.908795 
L 178.000197 211.498006 
L 180.35128 209.552208 
L 181.544 208.602343 
L 183.205096 207.237872 
L 185.157661 205.70668 
L 186.058913 204.962054 
L 188.815231 202.811017 
L 188.912729 202.729041 
L 191.766545 200.343335 
L 192.311981 199.915354 
L 194.620361 197.952957 
L 195.819513 197.019691 
L 197.474177 195.601017 
L 199.380206 194.124028 
L 200.327993 193.304476 
L 203.000634 191.228364 
L 203.181809 191.070216 
L 206.035625 188.698621 
L 206.500625 188.332701 
L 208.889441 186.277328 
L 209.943083 185.437038 
L 211.743257 183.865727 
L 213.400307 182.541375 
L 214.597073 181.49388 
L 216.953487 179.645712 
L 217.450889 179.217644 
L 220.304706 177.029571 
L 220.735697 176.750049 
L 223.158522 174.966664 
L 225.080948 173.854386 
L 226.012338 173.233292 
L 228.866154 171.895648 
L 231.71997 171.177222 
L 234.573786 171.910636 
L 236.514952 173.854386 
L 237.427602 174.694433 
L 240.281418 176.676417 
L 240.439667 176.750049 
L 243.135234 177.928556 
L 245.941056 179.645712 
L 245.98905 179.702579 
L 247.438241 182.541375 
L 247.673657 185.437038 
L 247.538908 188.332701 
L 247.339814 191.228364 
L 247.204939 194.124028 
L 247.239484 197.019691 
L 247.484402 199.915354 
L 247.76562 202.811017 
L 247.901739 205.70668 
L 247.96534 208.602343 
L 248.129018 211.498006 
L 248.370146 214.393669 
L 248.292106 217.289333 
L 247.572551 220.184996 
L 246.196699 223.080659 
L 245.98905 223.380065 
L 244.38591 225.976322 
L 243.135234 227.56336 
L 242.192301 228.871985 
L 240.281418 231.125285 
L 239.770295 231.767648 
L 237.427602 234.439227 
L 237.239014 234.663311 
L 234.70535 237.558974 
L 234.573786 237.710135 
L 232.239267 240.454638 
L 231.71997 241.065553 
L 229.824295 243.350301 
L 228.866154 244.497388 
L 227.450238 246.245964 
L 226.012338 247.983312 
L 225.090537 249.141627 
L 223.158522 251.484479 
L 222.722184 252.03729 
L 220.343852 254.932953 
L 220.304706 254.978369 
L 218.019919 257.828616 
L 217.450889 258.490444 
L 215.637464 260.724279 
L 214.597073 261.930708 
L 213.19113 263.619943 
L 211.743257 265.268504 
L 210.659051 266.515606 
L 208.889441 268.453374 
L 208.001256 269.411269 
L 206.035625 271.441011 
L 205.164985 272.306932 
L 203.181809 274.215765 
L 202.099646 275.202595 
L 200.327993 276.794595 
L 198.783315 278.098258 
L 197.474177 279.215264 
L 195.253335 280.993921 
L 194.620361 281.522652 
L 191.766545 283.787723 
L 191.637851 283.889584 
L 188.912729 286.172666 
L 188.150983 286.785248 
L 186.058913 288.625414 
L 184.788239 289.680911 
L 183.205096 291.156264 
L 181.551088 292.576574 
L 180.35128 293.746918 
L 178.368878 295.472237 
L 177.497464 296.331062 
L 175.089534 298.3679 
L 174.643648 298.788557 
L 171.789832 301.051942 
L 171.475489 301.263563 
L 168.936016 303.129716 
L 167.184973 304.159226 
L 166.0822 304.858908 
L 163.228384 306.520611 
L 162.325546 307.054889 
L 160.374568 308.26143 
L 157.520752 309.922053 
L 157.479668 309.950553 
L 154.666936 311.957511 
L 153.395703 312.846216 
L 151.81312 313.991795 
L 149.310538 315.741879 
L 148.959303 315.999885 
L 146.105487 318.105162 
L 145.325371 318.637542 
L 143.251671 320.170794 
L 141.112476 321.533205 
L 140.397855 322.045032 
L 137.544039 323.726522 
L 135.980454 324.428868 
L 134.690223 325.118947 
L 131.836407 325.998106 
L 128.982591 326.154053 
L 126.128775 325.404085 
L 123.274959 324.550321 
L 120.421143 324.672477 
L 117.567327 325.443756 
L 114.71351 326.346017 
L 111.859694 327.198018 
L 110.723803 327.324531 
L 109.005878 327.564892 
z
" style="fill:#eef2f8;"/>
   </g>
   <g id="PathCollection_2">
    <path clip-path="url(#p383e7a7110)" d="M 109.005878 327.564892 
L 110.723803 327.324531 
L 111.859694 327.198018 
L 114.71351 326.346017 
L 117.567327 325.443756 
L 120.421143 324.672477 
L 123.274959 324.550321 
L 126.128775 325.404085 
L 128.982591 326.154053 
L 131.836407 325.998106 
L 134.690223 325.118947 
L 135.980454 324.428868 
L 137.544039 323.726522 
L 140.397855 322.045032 
L 141.112476 321.533205 
L 143.251671 320.170794 
L 145.325371 318.637542 
L 146.105487 318.105162 
L 148.959303 315.999885 
L 149.310538 315.741879 
L 151.81312 313.991795 
L 153.395703 312.846216 
L 154.666936 311.957511 
L 157.479668 309.950553 
L 157.520752 309.922053 
L 160.374568 308.26143 
L 162.325546 307.054889 
L 163.228384 306.520611 
L 166.0822 304.858908 
L 167.184973 304.159226 
L 168.936016 303.129716 
L 171.475489 301.263563 
L 171.789832 301.051942 
L 174.643648 298.788557 
L 175.089534 298.3679 
L 177.497464 296.331062 
L 178.368878 295.472237 
L 180.35128 293.746918 
L 181.551088 292.576574 
L 183.205096 291.156264 
L 184.788239 289.680911 
L 186.058913 288.625414 
L 188.150983 286.785248 
L 188.912729 286.172666 
L 191.637851 283.889584 
L 191.766545 283.787723 
L 194.620361 281.522652 
L 195.253335 280.993921 
L 197.474177 279.215264 
L 198.783315 278.098258 
L 200.327993 276.794595 
L 202.099646 275.202595 
L 203.181809 274.215765 
L 205.164985 272.306932 
L 206.035625 271.441011 
L 208.001256 269.411269 
L 208.889441 268.453374 
L 210.659051 266.515606 
L 211.743257 265.268504 
L 213.19113 263.619943 
L 214.597073 261.930708 
L 215.637464 260.724279 
L 217.450889 258.490444 
L 218.019919 257.828616 
L 220.304706 254.978369 
L 220.343852 254.932953 
L 222.722184 252.03729 
L 223.158522 251.484479 
L 225.090537 249.141627 
L 226.012338 247.983312 
L 227.450238 246.245964 
L 228.866154 244.497388 
L 229.824295 243.350301 
L 231.71997 241.065553 
L 232.239267 240.454638 
L 234.573786 237.710135 
L 234.70535 237.558974 
L 237.239014 234.663311 
L 237.427602 234.439227 
L 239.770295 231.767648 
L 240.281418 231.125285 
L 242.192301 228.871985 
L 243.135234 227.56336 
L 244.38591 225.976322 
L 245.98905 223.380065 
L 246.196699 223.080659 
L 247.572551 220.184996 
L 248.292106 217.289333 
L 248.370146 214.393669 
L 248.129018 211.498006 
L 247.96534 208.602343 
L 247.901739 205.70668 
L 247.76562 202.811017 
L 247.484402 199.915354 
L 247.239484 197.019691 
L 247.204939 194.124028 
L 247.339814 191.228364 
L 247.538908 188.332701 
L 247.673657 185.437038 
L 247.438241 182.541375 
L 245.98905 179.702579 
L 245.941056 179.645712 
L 243.135234 177.928556 
L 240.439667 176.750049 
L 240.281418 176.676417 
L 237.427602 174.694433 
L 236.514952 173.854386 
L 234.573786 171.910636 
L 231.71997 171.177222 
L 228.866154 171.895648 
L 226.012338 173.233292 
L 225.080948 173.854386 
L 223.158522 174.966664 
L 220.735697 176.750049 
L 220.304706 177.029571 
L 217.450889 179.217644 
L 216.953487 179.645712 
L 214.597073 181.49388 
L 213.400307 182.541375 
L 211.743257 183.865727 
L 209.943083 185.437038 
L 208.889441 186.277328 
L 206.500625 188.332701 
L 206.035625 188.698621 
L 203.181809 191.070216 
L 203.000634 191.228364 
L 200.327993 193.304476 
L 199.380206 194.124028 
L 197.474177 195.601017 
L 195.819513 197.019691 
L 194.620361 197.952957 
L 192.311981 199.915354 
L 191.766545 200.343335 
L 188.912729 202.729041 
L 188.815231 202.811017 
L 186.058913 204.962054 
L 185.157661 205.70668 
L 183.205096 207.237872 
L 181.544 208.602343 
L 180.35128 209.552208 
L 178.000197 211.498006 
L 177.497464 211.908795 
L 174.643648 214.281087 
L 174.502535 214.393669 
L 171.789832 216.56009 
L 170.906059 217.289333 
L 168.936016 218.930352 
L 167.470302 220.184996 
L 166.0822 221.383829 
L 164.1652 223.080659 
L 163.228384 223.910941 
L 160.95241 225.976322 
L 160.374568 226.495982 
L 157.789285 228.871985 
L 157.520752 229.114653 
L 154.666936 231.720541 
L 154.614929 231.767648 
L 151.81312 234.181246 
L 151.271401 234.663311 
L 148.959303 236.616315 
L 147.877193 237.558974 
L 146.105487 239.036019 
L 144.461157 240.454638 
L 143.251671 241.470818 
L 141.107526 243.350301 
L 140.397855 243.971006 
L 137.927307 246.245964 
L 137.544039 246.607866 
L 135.006203 249.141627 
L 134.690223 249.473359 
L 132.369278 252.03729 
L 131.836407 252.666832 
L 129.986455 254.932953 
L 128.982591 256.2528 
L 127.800906 257.828616 
L 126.128775 260.198381 
L 125.753544 260.724279 
L 123.751347 263.619943 
L 123.274959 264.314724 
L 121.731324 266.515606 
L 120.421143 268.435585 
L 119.72641 269.411269 
L 117.78984 272.306932 
L 117.567327 272.672299 
L 115.951118 275.202595 
L 114.71351 277.499987 
L 114.366291 278.098258 
L 113.041378 280.993921 
L 112.004627 283.889584 
L 111.859694 284.322035 
L 110.998663 286.785248 
L 109.997658 289.680911 
L 109.009564 292.576574 
L 109.005878 292.586835 
L 107.880941 295.472237 
L 106.910652 298.3679 
L 106.152062 301.158944 
L 106.119538 301.263563 
L 105.540783 304.159226 
L 105.333278 307.054889 
L 105.500843 309.950553 
L 105.949359 312.846216 
L 106.152062 314.149258 
L 106.396495 315.741879 
L 106.579314 318.637542 
L 106.557141 321.533205 
L 106.61312 324.428868 
L 108.381995 327.324531 
z
M 137.380884 315.741879 
L 134.690223 314.345877 
L 131.836407 313.363624 
L 128.982591 313.663198 
L 126.128775 314.326062 
L 123.274959 314.952454 
L 120.421143 315.167539 
L 117.567327 313.317438 
L 117.320389 312.846216 
L 116.666547 309.950553 
L 116.199636 307.054889 
L 115.546971 304.159226 
L 114.949946 301.263563 
L 114.910064 298.3679 
L 115.452456 295.472237 
L 116.370385 292.576574 
L 117.567327 289.71509 
L 117.580932 289.680911 
L 118.94889 286.785248 
L 120.421143 284.077469 
L 120.519436 283.889584 
L 122.104151 280.993921 
L 123.274959 279.067261 
L 123.844626 278.098258 
L 125.654893 275.202595 
L 126.128775 274.462878 
L 127.450882 272.306932 
L 128.982591 270.025356 
L 129.365363 269.411269 
L 131.258001 266.515606 
L 131.836407 265.662535 
L 133.117168 263.619943 
L 134.690223 261.369309 
L 135.095879 260.724279 
L 137.154258 257.828616 
L 137.544039 257.336705 
L 139.283582 254.932953 
L 140.397855 253.636785 
L 141.627316 252.03729 
L 143.251671 250.269253 
L 144.172937 249.141627 
L 146.105487 247.13373 
L 146.873783 246.245964 
L 148.959303 244.144044 
L 149.683699 243.350301 
L 151.81312 241.247247 
L 152.571859 240.454638 
L 154.666936 238.41529 
L 155.520569 237.558974 
L 157.520752 235.632793 
L 158.517664 234.663311 
L 160.374568 232.888791 
L 161.551192 231.767648 
L 163.228384 230.173603 
L 164.610056 228.871985 
L 166.0822 227.480198 
L 167.690095 225.976322 
L 168.936016 224.808032 
L 170.800238 223.080659 
L 171.789832 222.165481 
L 173.962471 220.184996 
L 174.643648 219.567545 
L 177.204255 217.289333 
L 177.497464 217.029831 
L 180.35128 214.535688 
L 180.515609 214.393669 
L 183.205096 212.059907 
L 183.874396 211.498006 
L 186.058913 209.640361 
L 187.327128 208.602343 
L 188.912729 207.273616 
L 190.868167 205.70668 
L 191.766545 204.960862 
L 194.497027 202.811017 
L 194.620361 202.709162 
L 197.474177 200.450007 
L 198.175675 199.915354 
L 200.327993 198.209046 
L 201.888846 197.019691 
L 203.181809 195.988138 
L 205.613806 194.124028 
L 206.035625 193.782802 
L 208.889441 191.575668 
L 209.358708 191.228364 
L 211.743257 189.369568 
L 213.181678 188.332701 
L 214.597073 187.237934 
L 217.231049 185.437038 
L 217.450889 185.272207 
L 220.304706 183.649442 
L 223.072938 182.541375 
L 223.158522 182.502093 
L 226.012338 182.41039 
L 226.364689 182.541375 
L 228.866154 183.746758 
L 231.463708 185.437038 
L 231.71997 185.604901 
L 234.573786 187.614958 
L 235.322739 188.332701 
L 237.337049 191.228364 
L 237.427602 191.407532 
L 238.413881 194.124028 
L 239.021075 197.019691 
L 239.295245 199.915354 
L 239.456711 202.811017 
L 239.68083 205.70668 
L 239.910156 208.602343 
L 239.916958 211.498006 
L 239.646088 214.393669 
L 239.159226 217.289333 
L 238.421805 220.184996 
L 237.427602 222.805343 
L 237.334719 223.080659 
L 236.009455 225.976322 
L 234.573786 228.224074 
L 234.189129 228.871985 
L 232.053979 231.767648 
L 231.71997 232.171763 
L 229.722582 234.663311 
L 228.866154 235.661219 
L 227.270191 237.558974 
L 226.012338 239.019202 
L 224.798937 240.454638 
L 223.158522 242.395605 
L 222.370501 243.350301 
L 220.304706 245.863866 
L 220.0001 246.245964 
L 217.691113 249.141627 
L 217.450889 249.443122 
L 215.427843 252.03729 
L 214.597073 253.077407 
L 213.139823 254.932953 
L 211.743257 256.652566 
L 210.796818 257.828616 
L 208.889441 260.107916 
L 208.374152 260.724279 
L 206.035625 263.40273 
L 205.845057 263.619943 
L 203.181809 266.511088 
L 203.177619 266.515606 
L 200.342047 269.411269 
L 200.327993 269.424824 
L 197.474177 272.155454 
L 197.315412 272.306932 
L 194.620361 274.739081 
L 194.105306 275.202595 
L 191.766545 277.216082 
L 190.73589 278.098258 
L 188.912729 279.620635 
L 187.246236 280.993921 
L 186.058913 281.972645 
L 183.674314 283.889584 
L 183.205096 284.277013 
L 180.35128 286.561154 
L 180.06873 286.785248 
L 177.497464 288.870426 
L 176.464255 289.680911 
L 174.643648 291.150997 
L 172.796861 292.576574 
L 171.789832 293.379014 
L 169.010087 295.472237 
L 168.936016 295.529817 
L 166.0822 297.736203 
L 165.248928 298.3679 
L 163.228384 299.911668 
L 161.416534 301.263563 
L 160.374568 302.05167 
L 157.533529 304.159226 
L 157.520752 304.168879 
L 154.666936 306.333354 
L 153.688665 307.054889 
L 151.81312 308.476823 
L 149.781699 309.950553 
L 148.959303 310.567216 
L 146.105487 312.509394 
L 145.501367 312.846216 
L 143.251671 314.164609 
L 140.397855 315.446356 
L 137.947738 315.741879 
L 137.544039 315.793092 
z
" style="fill:#cad5e8;"/>
   </g>
   <g id="PathCollection_3">
    <path clip-path="url(#p383e7a7110)" d="M 137.544039 315.793092 
L 137.947738 315.741879 
L 140.397855 315.446356 
L 143.251671 314.164609 
L 145.501367 312.846216 
L 146.105487 312.509394 
L 148.959303 310.567216 
L 149.781699 309.950553 
L 151.81312 308.476823 
L 153.688665 307.054889 
L 154.666936 306.333354 
L 157.520752 304.168879 
L 157.533529 304.159226 
L 160.374568 302.05167 
L 161.416534 301.263563 
L 163.228384 299.911668 
L 165.248928 298.3679 
L 166.0822 297.736203 
L 168.936016 295.529817 
L 169.010087 295.472237 
L 171.789832 293.379014 
L 172.796861 292.576574 
L 174.643648 291.150997 
L 176.464255 289.680911 
L 177.497464 288.870426 
L 180.06873 286.785248 
L 180.35128 286.561154 
L 183.205096 284.277013 
L 183.674314 283.889584 
L 186.058913 281.972645 
L 187.246236 280.993921 
L 188.912729 279.620635 
L 190.73589 278.098258 
L 191.766545 277.216082 
L 194.105306 275.202595 
L 194.620361 274.739081 
L 197.315412 272.306932 
L 197.474177 272.155454 
L 200.327993 269.424824 
L 200.342047 269.411269 
L 203.177619 266.515606 
L 203.181809 266.511088 
L 205.845057 263.619943 
L 206.035625 263.40273 
L 208.374152 260.724279 
L 208.889441 260.107916 
L 210.796818 257.828616 
L 211.743257 256.652566 
L 213.139823 254.932953 
L 214.597073 253.077407 
L 215.427843 252.03729 
L 217.450889 249.443122 
L 217.691113 249.141627 
L 220.0001 246.245964 
L 220.304706 245.863866 
L 222.370501 243.350301 
L 223.158522 242.395605 
L 224.798937 240.454638 
L 226.012338 239.019202 
L 227.270191 237.558974 
L 228.866154 235.661219 
L 229.722582 234.663311 
L 231.71997 232.171763 
L 232.053979 231.767648 
L 234.189129 228.871985 
L 234.573786 228.224074 
L 236.009455 225.976322 
L 237.334719 223.080659 
L 237.427602 222.805343 
L 238.421805 220.184996 
L 239.159226 217.289333 
L 239.646088 214.393669 
L 239.916958 211.498006 
L 239.910156 208.602343 
L 239.68083 205.70668 
L 239.456711 202.811017 
L 239.295245 199.915354 
L 239.021075 197.019691 
L 238.413881 194.124028 
L 237.427602 191.407532 
L 237.337049 191.228364 
L 235.322739 188.332701 
L 234.573786 187.614958 
L 231.71997 185.604901 
L 231.463708 185.437038 
L 228.866154 183.746758 
L 226.364689 182.541375 
L 226.012338 182.41039 
L 223.158522 182.502093 
L 223.072938 182.541375 
L 220.304706 183.649442 
L 217.450889 185.272207 
L 217.231049 185.437038 
L 214.597073 187.237934 
L 213.181678 188.332701 
L 211.743257 189.369568 
L 209.358708 191.228364 
L 208.889441 191.575668 
L 206.035625 193.782802 
L 205.613806 194.124028 
L 203.181809 195.988138 
L 201.888846 197.019691 
L 200.327993 198.209046 
L 198.175675 199.915354 
L 197.474177 200.450007 
L 194.620361 202.709162 
L 194.497027 202.811017 
L 191.766545 204.960862 
L 190.868167 205.70668 
L 188.912729 207.273616 
L 187.327128 208.602343 
L 186.058913 209.640361 
L 183.874396 211.498006 
L 183.205096 212.059907 
L 180.515609 214.393669 
L 180.35128 214.535688 
L 177.497464 217.029831 
L 177.204255 217.289333 
L 174.643648 219.567545 
L 173.962471 220.184996 
L 171.789832 222.165481 
L 170.800238 223.080659 
L 168.936016 224.808032 
L 167.690095 225.976322 
L 166.0822 227.480198 
L 164.610056 228.871985 
L 163.228384 230.173603 
L 161.551192 231.767648 
L 160.374568 232.888791 
L 158.517664 234.663311 
L 157.520752 235.632793 
L 155.520569 237.558974 
L 154.666936 238.41529 
L 152.571859 240.454638 
L 151.81312 241.247247 
L 149.683699 243.350301 
L 148.959303 244.144044 
L 146.873783 246.245964 
L 146.105487 247.13373 
L 144.172937 249.141627 
L 143.251671 250.269253 
L 141.627316 252.03729 
L 140.397855 253.636785 
L 139.283582 254.932953 
L 137.544039 257.336705 
L 137.154258 257.828616 
L 135.095879 260.724279 
L 134.690223 261.369309 
L 133.117168 263.619943 
L 131.836407 265.662535 
L 131.258001 266.515606 
L 129.365363 269.411269 
L 128.982591 270.025356 
L 127.450882 272.306932 
L 126.128775 274.462878 
L 125.654893 275.202595 
L 123.844626 278.098258 
L 123.274959 279.067261 
L 122.104151 280.993921 
L 120.519436 283.889584 
L 120.421143 284.077469 
L 118.94889 286.785248 
L 117.580932 289.680911 
L 117.567327 289.71509 
L 116.370385 292.576574 
L 115.452456 295.472237 
L 114.910064 298.3679 
L 114.949946 301.263563 
L 115.546971 304.159226 
L 116.199636 307.054889 
L 116.666547 309.950553 
L 117.320389 312.846216 
L 117.567327 313.317438 
L 120.421143 315.167539 
L 123.274959 314.952454 
L 126.128775 314.326062 
L 128.982591 313.663198 
L 131.836407 313.363624 
L 134.690223 314.345877 
L 137.380884 315.741879 
z
M 124.669003 304.159226 
L 124.325773 301.263563 
L 124.164003 298.3679 
L 123.903566 295.472237 
L 123.830739 292.576574 
L 124.296844 289.680911 
L 125.225355 286.785248 
L 126.128775 284.81438 
L 126.516834 283.889584 
L 128.040035 280.993921 
L 128.982591 279.46973 
L 129.74702 278.098258 
L 131.572034 275.202595 
L 131.836407 274.817785 
L 133.378327 272.306932 
L 134.690223 270.388294 
L 135.282985 269.411269 
L 137.171638 266.515606 
L 137.544039 265.974263 
L 138.96935 263.619943 
L 140.397855 261.533403 
L 140.889623 260.724279 
L 142.805576 257.828616 
L 143.251671 257.222177 
L 144.743116 254.932953 
L 146.105487 253.154611 
L 146.881969 252.03729 
L 148.959303 249.454584 
L 149.194415 249.141627 
L 151.618459 246.245964 
L 151.81312 246.036083 
L 154.17762 243.350301 
L 154.666936 242.842152 
L 156.909785 240.454638 
L 157.520752 239.840383 
L 159.780689 237.558974 
L 160.374568 236.9768 
L 162.753681 234.663311 
L 163.228384 234.205768 
L 165.789885 231.767648 
L 166.0822 231.488588 
L 168.857466 228.871985 
L 168.936016 228.79745 
L 171.789832 226.104739 
L 171.9281 225.976322 
L 174.643648 223.42787 
L 175.022722 223.080659 
L 177.497464 220.795694 
L 178.180352 220.184996 
L 180.35128 218.228228 
L 181.434687 217.289333 
L 183.205096 215.738463 
L 184.809804 214.393669 
L 186.058913 213.330267 
L 188.313241 211.498006 
L 188.912729 211.000333 
L 191.766545 208.744793 
L 191.95946 208.602343 
L 194.620361 206.56927 
L 195.798719 205.70668 
L 197.474177 204.444185 
L 199.704758 202.811017 
L 200.327993 202.34336 
L 203.181809 200.296013 
L 203.740311 199.915354 
L 206.035625 198.315463 
L 207.928197 197.019691 
L 208.889441 196.345311 
L 211.743257 194.521007 
L 212.544687 194.124028 
L 214.597073 193.063133 
L 217.450889 192.14393 
L 220.304706 192.34671 
L 223.158522 193.729868 
L 223.854682 194.124028 
L 226.012338 195.139679 
L 228.866154 196.679243 
L 229.278911 197.019691 
L 231.71997 199.350827 
L 232.057391 199.915354 
L 233.105456 202.811017 
L 233.523915 205.70668 
L 233.779129 208.602343 
L 234.068715 211.498006 
L 234.180704 214.393669 
L 233.85186 217.289333 
L 233.096242 220.184996 
L 231.902298 223.080659 
L 231.71997 223.413825 
L 230.416298 225.976322 
L 228.866154 228.317221 
L 228.517539 228.871985 
L 226.379715 231.767648 
L 226.012338 232.213307 
L 224.065097 234.663311 
L 223.158522 235.717903 
L 221.622474 237.558974 
L 220.304706 239.08462 
L 219.154455 240.454638 
L 217.450889 242.466289 
L 216.72419 243.350301 
L 214.597073 245.93471 
L 214.348642 246.245964 
L 212.064533 249.141627 
L 211.743257 249.542297 
L 209.815089 252.03729 
L 208.889441 253.174735 
L 207.496155 254.932953 
L 206.035625 256.674853 
L 205.079196 257.828616 
L 203.181809 260.005537 
L 202.551351 260.724279 
L 200.327993 263.167499 
L 199.906186 263.619943 
L 197.474177 266.172554 
L 197.134148 266.515606 
L 194.620361 269.028 
L 194.217195 269.411269 
L 191.766545 271.736332 
L 191.132173 272.306932 
L 188.912729 274.304572 
L 187.866085 275.202595 
L 186.058913 276.753453 
L 184.43698 278.098258 
L 183.205096 279.118056 
L 180.899557 280.993921 
L 180.35128 281.438464 
L 177.497464 283.744929 
L 177.320773 283.889584 
L 174.643648 286.052554 
L 173.753206 286.785248 
L 171.789832 288.368663 
L 170.182246 289.680911 
L 168.936016 290.676795 
L 166.560176 292.576574 
L 166.0822 292.952491 
L 163.228384 295.155318 
L 162.795862 295.472237 
L 160.374568 297.262033 
L 158.807121 298.3679 
L 157.520752 299.295353 
L 154.666936 301.249972 
L 154.64064 301.263563 
L 151.81312 302.845159 
L 149.027992 304.159226 
L 148.959303 304.194396 
L 146.105487 304.547467 
L 143.944786 304.159226 
L 143.251671 304.058739 
L 140.397855 304.006892 
L 139.635656 304.159226 
L 137.544039 304.597246 
L 134.690223 305.436141 
L 131.836407 306.267738 
L 128.982591 306.94501 
L 126.128775 306.544802 
z
" style="fill:#a6b9d8;"/>
   </g>
   <g id="PathCollection_4">
    <path clip-path="url(#p383e7a7110)" d="M 126.128775 306.544802 
L 128.982591 306.94501 
L 131.836407 306.267738 
L 134.690223 305.436141 
L 137.544039 304.597246 
L 139.635656 304.159226 
L 140.397855 304.006892 
L 143.251671 304.058739 
L 143.944786 304.159226 
L 146.105487 304.547467 
L 148.959303 304.194396 
L 149.027992 304.159226 
L 151.81312 302.845159 
L 154.64064 301.263563 
L 154.666936 301.249972 
L 157.520752 299.295353 
L 158.807121 298.3679 
L 160.374568 297.262033 
L 162.795862 295.472237 
L 163.228384 295.155318 
L 166.0822 292.952491 
L 166.560176 292.576574 
L 168.936016 290.676795 
L 170.182246 289.680911 
L 171.789832 288.368663 
L 173.753206 286.785248 
L 174.643648 286.052554 
L 177.320773 283.889584 
L 177.497464 283.744929 
L 180.35128 281.438464 
L 180.899557 280.993921 
L 183.205096 279.118056 
L 184.43698 278.098258 
L 186.058913 276.753453 
L 187.866085 275.202595 
L 188.912729 274.304572 
L 191.132173 272.306932 
L 191.766545 271.736332 
L 194.217195 269.411269 
L 194.620361 269.028 
L 197.134148 266.515606 
L 197.474177 266.172554 
L 199.906186 263.619943 
L 200.327993 263.167499 
L 202.551351 260.724279 
L 203.181809 260.005537 
L 205.079196 257.828616 
L 206.035625 256.674853 
L 207.496155 254.932953 
L 208.889441 253.174735 
L 209.815089 252.03729 
L 211.743257 249.542297 
L 212.064533 249.141627 
L 214.348642 246.245964 
L 214.597073 245.93471 
L 216.72419 243.350301 
L 217.450889 242.466289 
L 219.154455 240.454638 
L 220.304706 239.08462 
L 221.622474 237.558974 
L 223.158522 235.717903 
L 224.065097 234.663311 
L 226.012338 232.213307 
L 226.379715 231.767648 
L 228.517539 228.871985 
L 228.866154 228.317221 
L 230.416298 225.976322 
L 231.71997 223.413825 
L 231.902298 223.080659 
L 233.096242 220.184996 
L 233.85186 217.289333 
L 234.180704 214.393669 
L 234.068715 211.498006 
L 233.779129 208.602343 
L 233.523915 205.70668 
L 233.105456 202.811017 
L 232.057391 199.915354 
L 231.71997 199.350827 
L 229.278911 197.019691 
L 228.866154 196.679243 
L 226.012338 195.139679 
L 223.854682 194.124028 
L 223.158522 193.729868 
L 220.304706 192.34671 
L 217.450889 192.14393 
L 214.597073 193.063133 
L 212.544687 194.124028 
L 211.743257 194.521007 
L 208.889441 196.345311 
L 207.928197 197.019691 
L 206.035625 198.315463 
L 203.740311 199.915354 
L 203.181809 200.296013 
L 200.327993 202.34336 
L 199.704758 202.811017 
L 197.474177 204.444185 
L 195.798719 205.70668 
L 194.620361 206.56927 
L 191.95946 208.602343 
L 191.766545 208.744793 
L 188.912729 211.000333 
L 188.313241 211.498006 
L 186.058913 213.330267 
L 184.809804 214.393669 
L 183.205096 215.738463 
L 181.434687 217.289333 
L 180.35128 218.228228 
L 178.180352 220.184996 
L 177.497464 220.795694 
L 175.022722 223.080659 
L 174.643648 223.42787 
L 171.9281 225.976322 
L 171.789832 226.104739 
L 168.936016 228.79745 
L 168.857466 228.871985 
L 166.0822 231.488588 
L 165.789885 231.767648 
L 163.228384 234.205768 
L 162.753681 234.663311 
L 160.374568 236.9768 
L 159.780689 237.558974 
L 157.520752 239.840383 
L 156.909785 240.454638 
L 154.666936 242.842152 
L 154.17762 243.350301 
L 151.81312 246.036083 
L 151.618459 246.245964 
L 149.194415 249.141627 
L 148.959303 249.454584 
L 146.881969 252.03729 
L 146.105487 253.154611 
L 144.743116 254.932953 
L 143.251671 257.222177 
L 142.805576 257.828616 
L 140.889623 260.724279 
L 140.397855 261.533403 
L 138.96935 263.619943 
L 137.544039 265.974263 
L 137.171638 266.515606 
L 135.282985 269.411269 
L 134.690223 270.388294 
L 133.378327 272.306932 
L 131.836407 274.817785 
L 131.572034 275.202595 
L 129.74702 278.098258 
L 128.982591 279.46973 
L 128.040035 280.993921 
L 126.516834 283.889584 
L 126.128775 284.81438 
L 125.225355 286.785248 
L 124.296844 289.680911 
L 123.830739 292.576574 
L 123.903566 295.472237 
L 124.164003 298.3679 
L 124.325773 301.263563 
L 124.669003 304.159226 
z
M 134.651347 298.3679 
L 133.029503 295.472237 
L 132.910187 292.576574 
L 132.800543 289.680911 
L 132.552497 286.785248 
L 132.649584 283.889584 
L 133.318395 280.993921 
L 134.394122 278.098258 
L 134.690223 277.544045 
L 135.79388 275.202595 
L 137.360569 272.306932 
L 137.544039 272.016169 
L 139.015126 269.411269 
L 140.397855 267.190795 
L 140.781778 266.515606 
L 142.536416 263.619943 
L 143.251671 262.533213 
L 144.352607 260.724279 
L 146.105487 258.089424 
L 146.270167 257.828616 
L 148.186944 254.932953 
L 148.959303 253.887516 
L 150.26162 252.03729 
L 151.81312 250.054841 
L 152.512371 249.141627 
L 154.666936 246.568014 
L 154.936635 246.245964 
L 157.520752 243.367032 
L 157.536005 243.350301 
L 160.29775 240.454638 
L 160.374568 240.377033 
L 163.2133 237.558974 
L 163.228384 237.544221 
L 166.0822 234.79672 
L 166.223962 234.663311 
L 168.936016 232.093272 
L 169.287934 231.767648 
L 171.789832 229.413411 
L 172.38221 228.871985 
L 174.643648 226.758654 
L 175.514294 225.976322 
L 177.497464 224.149401 
L 178.719669 223.080659 
L 180.35128 221.614645 
L 182.048108 220.184996 
L 183.205096 219.180097 
L 185.545293 217.289333 
L 186.058913 216.859855 
L 188.912729 214.663204 
L 189.309519 214.393669 
L 191.766545 212.61376 
L 193.456546 211.498006 
L 194.620361 210.682029 
L 197.474177 208.846515 
L 197.920612 208.602343 
L 200.327993 207.174977 
L 202.984258 205.70668 
L 203.181809 205.589534 
L 206.035625 204.258854 
L 208.889441 203.255221 
L 211.743257 202.871899 
L 214.597073 203.029229 
L 217.450889 203.284268 
L 220.304706 203.462706 
L 223.158522 203.846422 
L 226.012338 205.222981 
L 226.437257 205.70668 
L 227.676292 208.602343 
L 228.129451 211.498006 
L 228.489705 214.393669 
L 228.754346 217.289333 
L 228.4719 220.184996 
L 227.57028 223.080659 
L 226.197933 225.976322 
L 226.012338 226.263616 
L 224.379073 228.871985 
L 223.158522 230.51869 
L 222.249224 231.767648 
L 220.304706 234.170791 
L 219.910132 234.663311 
L 217.466386 237.558974 
L 217.450889 237.57702 
L 215.019934 240.454638 
L 214.597073 240.957082 
L 212.61487 243.350301 
L 211.743257 244.415668 
L 210.266884 246.245964 
L 208.889441 247.962211 
L 207.95061 249.141627 
L 206.035625 251.520997 
L 205.618848 252.03729 
L 203.223775 254.932953 
L 203.181809 254.98232 
L 200.728787 257.828616 
L 200.327993 258.278394 
L 198.071247 260.724279 
L 197.474177 261.360385 
L 195.232983 263.619943 
L 194.620361 264.23838 
L 192.197722 266.515606 
L 191.766545 266.927742 
L 188.953583 269.411269 
L 188.912729 269.448276 
L 186.058913 271.865876 
L 185.500714 272.306932 
L 183.205096 274.190834 
L 181.9123 275.202595 
L 180.35128 276.466288 
L 178.290077 278.098258 
L 177.497464 278.741134 
L 174.708888 280.993921 
L 174.643648 281.047248 
L 171.789832 283.396508 
L 171.162565 283.889584 
L 168.936016 285.700964 
L 167.507424 286.785248 
L 166.0822 287.903489 
L 163.59493 289.680911 
L 163.228384 289.95247 
L 160.374568 291.777958 
L 158.756859 292.576574 
L 157.520752 293.252853 
L 154.666936 294.357275 
L 151.81312 295.024286 
L 149.239123 295.472237 
L 148.959303 295.526566 
L 146.105487 296.189261 
L 143.251671 296.907269 
L 140.397855 297.667446 
L 137.647901 298.3679 
L 137.544039 298.394043 
L 134.690223 298.386722 
z
" style="fill:#839ec9;"/>
   </g>
   <g id="PathCollection_5">
    <path clip-path="url(#p383e7a7110)" d="M 134.690223 298.386722 
L 137.544039 298.394043 
L 137.647901 298.3679 
L 140.397855 297.667446 
L 143.251671 296.907269 
L 146.105487 296.189261 
L 148.959303 295.526566 
L 149.239123 295.472237 
L 151.81312 295.024286 
L 154.666936 294.357275 
L 157.520752 293.252853 
L 158.756859 292.576574 
L 160.374568 291.777958 
L 163.228384 289.95247 
L 163.59493 289.680911 
L 166.0822 287.903489 
L 167.507424 286.785248 
L 168.936016 285.700964 
L 171.162565 283.889584 
L 171.789832 283.396508 
L 174.643648 281.047248 
L 174.708888 280.993921 
L 177.497464 278.741134 
L 178.290077 278.098258 
L 180.35128 276.466288 
L 181.9123 275.202595 
L 183.205096 274.190834 
L 185.500714 272.306932 
L 186.058913 271.865876 
L 188.912729 269.448276 
L 188.953583 269.411269 
L 191.766545 266.927742 
L 192.197722 266.515606 
L 194.620361 264.23838 
L 195.232983 263.619943 
L 197.474177 261.360385 
L 198.071247 260.724279 
L 200.327993 258.278394 
L 200.728787 257.828616 
L 203.181809 254.98232 
L 203.223775 254.932953 
L 205.618848 252.03729 
L 206.035625 251.520997 
L 207.95061 249.141627 
L 208.889441 247.962211 
L 210.266884 246.245964 
L 211.743257 244.415668 
L 212.61487 243.350301 
L 214.597073 240.957082 
L 215.019934 240.454638 
L 217.450889 237.57702 
L 217.466386 237.558974 
L 219.910132 234.663311 
L 220.304706 234.170791 
L 222.249224 231.767648 
L 223.158522 230.51869 
L 224.379073 228.871985 
L 226.012338 226.263616 
L 226.197933 225.976322 
L 227.57028 223.080659 
L 228.4719 220.184996 
L 228.754346 217.289333 
L 228.489705 214.393669 
L 228.129451 211.498006 
L 227.676292 208.602343 
L 226.437257 205.70668 
L 226.012338 205.222981 
L 223.158522 203.846422 
L 220.304706 203.462706 
L 217.450889 203.284268 
L 214.597073 203.029229 
L 211.743257 202.871899 
L 208.889441 203.255221 
L 206.035625 204.258854 
L 203.181809 205.589534 
L 202.984258 205.70668 
L 200.327993 207.174977 
L 197.920612 208.602343 
L 197.474177 208.846515 
L 194.620361 210.682029 
L 193.456546 211.498006 
L 191.766545 212.61376 
L 189.309519 214.393669 
L 188.912729 214.663204 
L 186.058913 216.859855 
L 185.545293 217.289333 
L 183.205096 219.180097 
L 182.048108 220.184996 
L 180.35128 221.614645 
L 178.719669 223.080659 
L 177.497464 224.149401 
L 175.514294 225.976322 
L 174.643648 226.758654 
L 172.38221 228.871985 
L 171.789832 229.413411 
L 169.287934 231.767648 
L 168.936016 232.093272 
L 166.223962 234.663311 
L 166.0822 234.79672 
L 163.228384 237.544221 
L 163.2133 237.558974 
L 160.374568 240.377033 
L 160.29775 240.454638 
L 157.536005 243.350301 
L 157.520752 243.367032 
L 154.936635 246.245964 
L 154.666936 246.568014 
L 152.512371 249.141627 
L 151.81312 250.054841 
L 150.26162 252.03729 
L 148.959303 253.887516 
L 148.186944 254.932953 
L 146.270167 257.828616 
L 146.105487 258.089424 
L 144.352607 260.724279 
L 143.251671 262.533213 
L 142.536416 263.619943 
L 140.781778 266.515606 
L 140.397855 267.190795 
L 139.015126 269.411269 
L 137.544039 272.016169 
L 137.360569 272.306932 
L 135.79388 275.202595 
L 134.690223 277.544045 
L 134.394122 278.098258 
L 133.318395 280.993921 
L 132.649584 283.889584 
L 132.552497 286.785248 
L 132.800543 289.680911 
L 132.910187 292.576574 
L 133.029503 295.472237 
L 134.651347 298.3679 
z
M 143.225721 289.680911 
L 141.566626 286.785248 
L 140.833442 283.889584 
L 140.397855 282.530613 
L 139.968534 280.993921 
L 139.590367 278.098258 
L 139.992594 275.202595 
L 140.397855 274.109508 
L 141.002583 272.306932 
L 142.320168 269.411269 
L 143.251671 267.694987 
L 143.853481 266.515606 
L 145.497622 263.619943 
L 146.105487 262.64357 
L 147.260595 260.724279 
L 148.959303 258.062673 
L 149.107835 257.828616 
L 151.044815 254.932953 
L 151.81312 253.871929 
L 153.137371 252.03729 
L 154.666936 250.070417 
L 155.398917 249.141627 
L 157.520752 246.626614 
L 157.849033 246.245964 
L 160.374568 243.483739 
L 160.499467 243.350301 
L 163.228384 240.562714 
L 163.336431 240.454638 
L 166.0822 237.784528 
L 166.31872 237.558974 
L 168.936016 235.088336 
L 169.396898 234.663311 
L 171.789832 232.440799 
L 172.539963 231.767648 
L 174.643648 229.837691 
L 175.752402 228.871985 
L 177.497464 227.299369 
L 179.0768 225.976322 
L 180.35128 224.861132 
L 182.585378 223.080659 
L 183.205096 222.560695 
L 186.058913 220.424938 
L 186.434759 220.184996 
L 188.912729 218.477072 
L 190.909317 217.289333 
L 191.766545 216.734553 
L 194.620361 215.171674 
L 196.310128 214.393669 
L 197.474177 213.799349 
L 200.327993 212.611482 
L 203.181809 211.701618 
L 204.255074 211.498006 
L 206.035625 211.11175 
L 208.889441 210.866984 
L 211.743257 210.788939 
L 214.597073 210.726916 
L 217.450889 210.846833 
L 219.500786 211.498006 
L 220.304706 212.043703 
L 221.528081 214.393669 
L 222.116457 217.289333 
L 222.516722 220.184996 
L 222.452207 223.080659 
L 221.59327 225.976322 
L 220.304706 228.611242 
L 220.175686 228.871985 
L 218.178296 231.767648 
L 217.450889 232.70018 
L 215.924234 234.663311 
L 214.597073 236.280377 
L 213.555905 237.558974 
L 211.743257 239.756683 
L 211.175016 240.454638 
L 208.889441 243.289157 
L 208.840857 243.350301 
L 206.516532 246.245964 
L 206.035625 246.850023 
L 204.204729 249.141627 
L 203.181809 250.408785 
L 201.846616 252.03729 
L 200.327993 253.835319 
L 199.372518 254.932953 
L 197.474177 257.030074 
L 196.717994 257.828616 
L 194.620361 259.965484 
L 193.831386 260.724279 
L 191.766545 262.664765 
L 190.682048 263.619943 
L 188.912729 265.169586 
L 187.272939 266.515606 
L 186.058913 267.524058 
L 183.653895 269.411269 
L 183.205096 269.772766 
L 180.35128 272.000108 
L 179.953791 272.306932 
L 177.497464 274.260328 
L 176.276096 275.202595 
L 174.643648 276.516899 
L 172.583755 278.098258 
L 171.789832 278.74075 
L 168.936016 280.88592 
L 168.775071 280.993921 
L 166.0822 282.934364 
L 164.507949 283.889584 
L 163.228384 284.732329 
L 160.374568 286.219437 
L 158.965159 286.785248 
L 157.520752 287.408858 
L 154.666936 288.312392 
L 151.81312 289.041449 
L 149.042833 289.680911 
L 148.959303 289.700092 
L 146.105487 290.066554 
L 143.251671 289.69704 
z
" style="fill:#5e81ba;"/>
   </g>
   <g id="PathCollection_6">
    <path clip-path="url(#p383e7a7110)" d="M 143.251671 289.69704 
L 146.105487 290.066554 
L 148.959303 289.700092 
L 149.042833 289.680911 
L 151.81312 289.041449 
L 154.666936 288.312392 
L 157.520752 287.408858 
L 158.965159 286.785248 
L 160.374568 286.219437 
L 163.228384 284.732329 
L 164.507949 283.889584 
L 166.0822 282.934364 
L 168.775071 280.993921 
L 168.936016 280.88592 
L 171.789832 278.74075 
L 172.583755 278.098258 
L 174.643648 276.516899 
L 176.276096 275.202595 
L 177.497464 274.260328 
L 179.953791 272.306932 
L 180.35128 272.000108 
L 183.205096 269.772766 
L 183.653895 269.411269 
L 186.058913 267.524058 
L 187.272939 266.515606 
L 188.912729 265.169586 
L 190.682048 263.619943 
L 191.766545 262.664765 
L 193.831386 260.724279 
L 194.620361 259.965484 
L 196.717994 257.828616 
L 197.474177 257.030074 
L 199.372518 254.932953 
L 200.327993 253.835319 
L 201.846616 252.03729 
L 203.181809 250.408785 
L 204.204729 249.141627 
L 206.035625 246.850023 
L 206.516532 246.245964 
L 208.840857 243.350301 
L 208.889441 243.289157 
L 211.175016 240.454638 
L 211.743257 239.756683 
L 213.555905 237.558974 
L 214.597073 236.280377 
L 215.924234 234.663311 
L 217.450889 232.70018 
L 218.178296 231.767648 
L 220.175686 228.871985 
L 220.304706 228.611242 
L 221.59327 225.976322 
L 222.452207 223.080659 
L 222.516722 220.184996 
L 222.116457 217.289333 
L 221.528081 214.393669 
L 220.304706 212.043703 
L 219.500786 211.498006 
L 217.450889 210.846833 
L 214.597073 210.726916 
L 211.743257 210.788939 
L 208.889441 210.866984 
L 206.035625 211.11175 
L 204.255074 211.498006 
L 203.181809 211.701618 
L 200.327993 212.611482 
L 197.474177 213.799349 
L 196.310128 214.393669 
L 194.620361 215.171674 
L 191.766545 216.734553 
L 190.909317 217.289333 
L 188.912729 218.477072 
L 186.434759 220.184996 
L 186.058913 220.424938 
L 183.205096 222.560695 
L 182.585378 223.080659 
L 180.35128 224.861132 
L 179.0768 225.976322 
L 177.497464 227.299369 
L 175.752402 228.871985 
L 174.643648 229.837691 
L 172.539963 231.767648 
L 171.789832 232.440799 
L 169.396898 234.663311 
L 168.936016 235.088336 
L 166.31872 237.558974 
L 166.0822 237.784528 
L 163.336431 240.454638 
L 163.228384 240.562714 
L 160.499467 243.350301 
L 160.374568 243.483739 
L 157.849033 246.245964 
L 157.520752 246.626614 
L 155.398917 249.141627 
L 154.666936 250.070417 
L 153.137371 252.03729 
L 151.81312 253.871929 
L 151.044815 254.932953 
L 149.107835 257.828616 
L 148.959303 258.062673 
L 147.260595 260.724279 
L 146.105487 262.64357 
L 145.497622 263.619943 
L 143.853481 266.515606 
L 143.251671 267.694987 
L 142.320168 269.411269 
L 141.002583 272.306932 
L 140.397855 274.109508 
L 139.992594 275.202595 
L 139.590367 278.098258 
L 139.968534 280.993921 
L 140.397855 282.530613 
L 140.833442 283.889584 
L 141.566626 286.785248 
L 143.225721 289.680911 
z
M 149.350031 280.993921 
L 148.959303 280.635762 
L 147.325431 278.098258 
L 146.105487 276.059216 
L 145.739231 275.202595 
L 145.344059 272.306932 
L 145.870795 269.411269 
L 146.105487 268.849442 
L 147.049338 266.515606 
L 148.46139 263.619943 
L 148.959303 262.753256 
L 150.131301 260.724279 
L 151.81312 257.946166 
L 151.886555 257.828616 
L 153.848523 254.932953 
L 154.666936 253.790397 
L 155.960342 252.03729 
L 157.520752 250.03852 
L 158.243634 249.141627 
L 160.374568 246.653747 
L 160.732915 246.245964 
L 163.228384 243.572773 
L 163.439498 243.350301 
L 166.0822 240.708603 
L 166.339115 240.454638 
L 168.936016 237.983583 
L 169.389044 237.558974 
L 171.789832 235.35064 
L 172.559536 234.663311 
L 174.643648 232.798094 
L 175.857484 231.767648 
L 177.497464 230.34413 
L 179.336255 228.871985 
L 180.35128 228.026427 
L 183.095481 225.976322 
L 183.205096 225.88986 
L 186.058913 223.973274 
L 187.602063 223.080659 
L 188.912729 222.274288 
L 191.766545 220.811826 
L 193.230145 220.184996 
L 194.620361 219.550313 
L 197.474177 218.541336 
L 200.327993 217.811271 
L 203.181809 217.439529 
L 206.035625 217.422514 
L 208.889441 217.6817 
L 211.743257 218.549736 
L 213.481271 220.184996 
L 214.251428 223.080659 
L 214.285829 225.976322 
L 213.729423 228.871985 
L 212.479628 231.767648 
L 211.743257 232.956322 
L 210.749123 234.663311 
L 208.889441 237.414857 
L 208.799469 237.558974 
L 206.666316 240.454638 
L 206.035625 241.287694 
L 204.537858 243.350301 
L 203.181809 245.172134 
L 202.408908 246.245964 
L 200.327993 248.997194 
L 200.221056 249.141627 
L 197.864258 252.03729 
L 197.474177 252.487978 
L 195.312173 254.932953 
L 194.620361 255.664078 
L 192.508133 257.828616 
L 191.766545 258.542141 
L 189.415737 260.724279 
L 188.912729 261.16945 
L 186.058913 263.606512 
L 186.043055 263.619943 
L 183.205096 265.925776 
L 182.469574 266.515606 
L 180.35128 268.189455 
L 178.776744 269.411269 
L 177.497464 270.413437 
L 175.005358 272.306932 
L 174.643648 272.590128 
L 171.789832 274.694492 
L 171.027838 275.202595 
L 168.936016 276.67475 
L 166.630556 278.098258 
L 166.0822 278.458407 
L 163.228384 279.935741 
L 160.669395 280.993921 
L 160.374568 281.121559 
L 157.520752 281.926892 
L 154.666936 282.402557 
L 151.81312 282.317685 
z
" style="fill:#4568a1;"/>
   </g>
   <g id="PathCollection_7">
    <path clip-path="url(#p383e7a7110)" d="M 151.81312 282.317685 
L 154.666936 282.402557 
L 157.520752 281.926892 
L 160.374568 281.121559 
L 160.669395 280.993921 
L 163.228384 279.935741 
L 166.0822 278.458407 
L 166.630556 278.098258 
L 168.936016 276.67475 
L 171.027838 275.202595 
L 171.789832 274.694492 
L 174.643648 272.590128 
L 175.005358 272.306932 
L 177.497464 270.413437 
L 178.776744 269.411269 
L 180.35128 268.189455 
L 182.469574 266.515606 
L 183.205096 265.925776 
L 186.043055 263.619943 
L 186.058913 263.606512 
L 188.912729 261.16945 
L 189.415737 260.724279 
L 191.766545 258.542141 
L 192.508133 257.828616 
L 194.620361 255.664078 
L 195.312173 254.932953 
L 197.474177 252.487978 
L 197.864258 252.03729 
L 200.221056 249.141627 
L 200.327993 248.997194 
L 202.408908 246.245964 
L 203.181809 245.172134 
L 204.537858 243.350301 
L 206.035625 241.287694 
L 206.666316 240.454638 
L 208.799469 237.558974 
L 208.889441 237.414857 
L 210.749123 234.663311 
L 211.743257 232.956322 
L 212.479628 231.767648 
L 213.729423 228.871985 
L 214.285829 225.976322 
L 214.251428 223.080659 
L 213.481271 220.184996 
L 211.743257 218.549736 
L 208.889441 217.6817 
L 206.035625 217.422514 
L 203.181809 217.439529 
L 200.327993 217.811271 
L 197.474177 218.541336 
L 194.620361 219.550313 
L 193.230145 220.184996 
L 191.766545 220.811826 
L 188.912729 222.274288 
L 187.602063 223.080659 
L 186.058913 223.973274 
L 183.205096 225.88986 
L 183.095481 225.976322 
L 180.35128 228.026427 
L 179.336255 228.871985 
L 177.497464 230.34413 
L 175.857484 231.767648 
L 174.643648 232.798094 
L 172.559536 234.663311 
L 171.789832 235.35064 
L 169.389044 237.558974 
L 168.936016 237.983583 
L 166.339115 240.454638 
L 166.0822 240.708603 
L 163.439498 243.350301 
L 163.228384 243.572773 
L 160.732915 246.245964 
L 160.374568 246.653747 
L 158.243634 249.141627 
L 157.520752 250.03852 
L 155.960342 252.03729 
L 154.666936 253.790397 
L 153.848523 254.932953 
L 151.886555 257.828616 
L 151.81312 257.946166 
L 150.131301 260.724279 
L 148.959303 262.753256 
L 148.46139 263.619943 
L 147.049338 266.515606 
L 146.105487 268.849442 
L 145.870795 269.411269 
L 145.344059 272.306932 
L 145.739231 275.202595 
L 146.105487 276.059216 
L 147.325431 278.098258 
L 148.959303 280.635762 
L 149.350031 280.993921 
z
M 157.511562 275.202595 
L 154.666936 273.89315 
L 152.936923 272.306932 
L 151.81312 270.853616 
L 151.161744 269.411269 
L 151.127078 266.515606 
L 151.81312 264.141546 
L 151.967987 263.619943 
L 153.434418 260.724279 
L 154.666936 258.507566 
L 155.06558 257.828616 
L 156.968556 254.932953 
L 157.520752 254.153624 
L 159.092889 252.03729 
L 160.374568 250.397667 
L 161.392781 249.141627 
L 163.228384 247.01466 
L 163.905423 246.245964 
L 166.0822 243.938535 
L 166.641893 243.350301 
L 168.936016 241.091204 
L 169.587625 240.454638 
L 171.789832 238.41253 
L 172.729376 237.558974 
L 174.643648 235.875923 
L 176.084449 234.663311 
L 177.497464 233.486892 
L 179.718655 231.767648 
L 180.35128 231.272798 
L 183.205096 229.317641 
L 183.958061 228.871985 
L 186.058913 227.62502 
L 188.912729 226.151564 
L 189.352577 225.976322 
L 191.766545 225.020799 
L 194.620361 224.188369 
L 197.474177 223.731021 
L 200.327993 223.825777 
L 203.181809 224.762248 
L 204.614887 225.976322 
L 205.276699 228.871985 
L 204.785746 231.767648 
L 203.787553 234.663311 
L 203.181809 235.955105 
L 202.490899 237.558974 
L 201.00706 240.454638 
L 200.327993 241.615919 
L 199.379488 243.350301 
L 197.610358 246.245964 
L 197.474177 246.437458 
L 195.61899 249.141627 
L 194.620361 250.425445 
L 193.394672 252.03729 
L 191.766545 253.901679 
L 190.877292 254.932953 
L 188.912729 256.93 
L 188.033063 257.828616 
L 186.058913 259.636288 
L 184.867879 260.724279 
L 183.205096 262.129275 
L 181.420791 263.619943 
L 180.35128 264.4754 
L 177.738551 266.515606 
L 177.497464 266.701884 
L 174.643648 268.772639 
L 173.668574 269.411269 
L 171.789832 270.684534 
L 169.067241 272.306932 
L 168.936016 272.389528 
L 166.0822 273.742854 
L 163.228384 274.742731 
L 160.825455 275.202595 
L 160.374568 275.295329 
L 157.520752 275.205577 
z
" style="fill:#36517c;"/>
   </g>
   <g id="PathCollection_8">
    <path clip-path="url(#p383e7a7110)" d="M 157.520752 275.205577 
L 160.374568 275.295329 
L 160.825455 275.202595 
L 163.228384 274.742731 
L 166.0822 273.742854 
L 168.936016 272.389528 
L 169.067241 272.306932 
L 171.789832 270.684534 
L 173.668574 269.411269 
L 174.643648 268.772639 
L 177.497464 266.701884 
L 177.738551 266.515606 
L 180.35128 264.4754 
L 181.420791 263.619943 
L 183.205096 262.129275 
L 184.867879 260.724279 
L 186.058913 259.636288 
L 188.033063 257.828616 
L 188.912729 256.93 
L 190.877292 254.932953 
L 191.766545 253.901679 
L 193.394672 252.03729 
L 194.620361 250.425445 
L 195.61899 249.141627 
L 197.474177 246.437458 
L 197.610358 246.245964 
L 199.379488 243.350301 
L 200.327993 241.615919 
L 201.00706 240.454638 
L 202.490899 237.558974 
L 203.181809 235.955105 
L 203.787553 234.663311 
L 204.785746 231.767648 
L 205.276699 228.871985 
L 204.614887 225.976322 
L 203.181809 224.762248 
L 200.327993 223.825777 
L 197.474177 223.731021 
L 194.620361 224.188369 
L 191.766545 225.020799 
L 189.352577 225.976322 
L 188.912729 226.151564 
L 186.058913 227.62502 
L 183.958061 228.871985 
L 183.205096 229.317641 
L 180.35128 231.272798 
L 179.718655 231.767648 
L 177.497464 233.486892 
L 176.084449 234.663311 
L 174.643648 235.875923 
L 172.729376 237.558974 
L 171.789832 238.41253 
L 169.587625 240.454638 
L 168.936016 241.091204 
L 166.641893 243.350301 
L 166.0822 243.938535 
L 163.905423 246.245964 
L 163.228384 247.01466 
L 161.392781 249.141627 
L 160.374568 250.397667 
L 159.092889 252.03729 
L 157.520752 254.153624 
L 156.968556 254.932953 
L 155.06558 257.828616 
L 154.666936 258.507566 
L 153.434418 260.724279 
L 151.967987 263.619943 
L 151.81312 264.141546 
L 151.127078 266.515606 
L 151.161744 269.411269 
L 151.81312 270.853616 
L 152.936923 272.306932 
L 154.666936 273.89315 
L 157.511562 275.202595 
z
M 159.435574 266.515606 
L 157.912453 263.619943 
L 158.278245 260.724279 
L 159.50645 257.828616 
L 160.374568 256.276527 
L 161.171099 254.932953 
L 163.090654 252.03729 
L 163.228384 251.858285 
L 165.395029 249.141627 
L 166.0822 248.337009 
L 167.90475 246.245964 
L 168.936016 245.151527 
L 170.657401 243.350301 
L 171.789832 242.25533 
L 173.690671 240.454638 
L 174.643648 239.613337 
L 177.060092 237.558974 
L 177.497464 237.207084 
L 180.35128 235.165361 
L 181.155828 234.663311 
L 183.205096 233.474643 
L 186.058913 232.024919 
L 186.822168 231.767648 
L 188.912729 231.126063 
L 191.766545 230.771591 
L 194.620361 231.295515 
L 195.323817 231.767648 
L 196.336808 234.663311 
L 195.832451 237.558974 
L 194.871817 240.454638 
L 194.620361 241.022118 
L 193.602819 243.350301 
L 192.184772 246.245964 
L 191.766545 246.942216 
L 190.473178 249.141627 
L 188.912729 251.378226 
L 188.458777 252.03729 
L 186.064067 254.932953 
L 186.058913 254.938221 
L 183.235776 257.828616 
L 183.205096 257.856474 
L 180.35128 260.37946 
L 179.940794 260.724279 
L 177.497464 262.618858 
L 176.090168 263.619943 
L 174.643648 264.617387 
L 171.789832 266.323533 
L 171.353995 266.515606 
L 168.936016 267.589603 
L 166.0822 268.371205 
L 163.228384 268.442491 
L 160.374568 267.291043 
z
" style="fill:#263958;"/>
   </g>
   <g id="PathCollection_9">
    <path clip-path="url(#p383e7a7110)" d="M 160.374568 267.291043 
L 163.228384 268.442491 
L 166.0822 268.371205 
L 168.936016 267.589603 
L 171.353995 266.515606 
L 171.789832 266.323533 
L 174.643648 264.617387 
L 176.090168 263.619943 
L 177.497464 262.618858 
L 179.940794 260.724279 
L 180.35128 260.37946 
L 183.205096 257.856474 
L 183.235776 257.828616 
L 186.058913 254.938221 
L 186.064067 254.932953 
L 188.458777 252.03729 
L 188.912729 251.378226 
L 190.473178 249.141627 
L 191.766545 246.942216 
L 192.184772 246.245964 
L 193.602819 243.350301 
L 194.620361 241.022118 
L 194.871817 240.454638 
L 195.832451 237.558974 
L 196.336808 234.663311 
L 195.323817 231.767648 
L 194.620361 231.295515 
L 191.766545 230.771591 
L 188.912729 231.126063 
L 186.822168 231.767648 
L 186.058913 232.024919 
L 183.205096 233.474643 
L 181.155828 234.663311 
L 180.35128 235.165361 
L 177.497464 237.207084 
L 177.060092 237.558974 
L 174.643648 239.613337 
L 173.690671 240.454638 
L 171.789832 242.25533 
L 170.657401 243.350301 
L 168.936016 245.151527 
L 167.90475 246.245964 
L 166.0822 248.337009 
L 165.395029 249.141627 
L 163.228384 251.858285 
L 163.090654 252.03729 
L 161.171099 254.932953 
L 160.374568 256.276527 
L 159.50645 257.828616 
L 158.278245 260.724279 
L 157.912453 263.619943 
L 159.435574 266.515606 
z
M 168.5103 257.828616 
L 168.936016 255.743168 
L 169.113297 254.932953 
L 170.67611 252.03729 
L 171.789832 250.387401 
L 172.758071 249.141627 
L 174.643648 246.971619 
L 175.432665 246.245964 
L 177.497464 244.489067 
L 179.336222 243.350301 
L 180.35128 242.77218 
L 183.205096 242.287669 
L 184.544899 243.350301 
L 184.809985 246.245964 
L 183.919251 249.141627 
L 183.205096 250.427426 
L 182.219145 252.03729 
L 180.35128 254.447551 
L 179.919407 254.932953 
L 177.497464 257.105223 
L 176.52717 257.828616 
L 174.643648 258.99554 
L 171.789832 260.144364 
L 168.936016 258.891194 
z
" style="fill:#172235;"/>
   </g>
   <g id="PathCollection_10">
    <path clip-path="url(#p383e7a7110)" d="M 168.936016 258.891194 
L 171.789832 260.144364 
L 174.643648 258.99554 
L 176.52717 257.828616 
L 177.497464 257.105223 
L 179.919407 254.932953 
L 180.35128 254.447551 
L 182.219145 252.03729 
L 183.205096 250.427426 
L 183.919251 249.141627 
L 184.809985 246.245964 
L 184.544899 243.350301 
L 183.205096 242.287669 
L 180.35128 242.77218 
L 179.336222 243.350301 
L 177.497464 244.489067 
L 175.432665 246.245964 
L 174.643648 246.971619 
L 172.758071 249.141627 
L 171.789832 250.387401 
L 170.67611 252.03729 
L 169.113297 254.932953 
L 168.936016 255.743168 
L 168.5103 257.828616 
z
" style="fill:#070b11;"/>
   </g>
   <g id="patch_3">
    <path d="M 29.241719 393.78 
L 29.241719 78.442286 
" style="fill:none;stroke:#ffffff;stroke-linecap:square;stroke-linejoin:miter;stroke-width:1.25;"/>
   </g>
   <g id="patch_4">
    <path d="M 29.241719 393.78 
L 340.02229 393.78 
" style="fill:none;stroke:#ffffff;stroke-linecap:square;stroke-linejoin:miter;stroke-width:1.25;"/>
   </g>
  </g>
  <g id="axes_2">
   <g id="patch_5">
    <path d="M 29.241719 67.568571 
L 340.02229 67.568571 
L 340.02229 13.2 
L 29.241719 13.2 
z
" style="fill:#eaeaf2;"/>
   </g>
   <g id="matplotlib.axis_3">
    <g id="xtick_6">
     <g id="line2d_11">
      <path clip-path="url(#p92cbbc9a1c)" d="M 44.446767 67.568571 
L 44.446767 13.2 
" style="fill:none;stroke:#ffffff;stroke-linecap:round;"/>
     </g>
    </g>
    <g id="xtick_7">
     <g id="line2d_12">
      <path clip-path="url(#p92cbbc9a1c)" d="M 111.457419 67.568571 
L 111.457419 13.2 
" style="fill:none;stroke:#ffffff;stroke-linecap:round;"/>
     </g>
    </g>
    <g id="xtick_8">
     <g id="line2d_13">
      <path clip-path="url(#p92cbbc9a1c)" d="M 178.46807 67.568571 
L 178.46807 13.2 
" style="fill:none;stroke:#ffffff;stroke-linecap:round;"/>
     </g>
    </g>
    <g id="xtick_9">
     <g id="line2d_14">
      <path clip-path="url(#p92cbbc9a1c)" d="M 245.478722 67.568571 
L 245.478722 13.2 
" style="fill:none;stroke:#ffffff;stroke-linecap:round;"/>
     </g>
    </g>
    <g id="xtick_10">
     <g id="line2d_15">
      <path clip-path="url(#p92cbbc9a1c)" d="M 312.489374 67.568571 
L 312.489374 13.2 
" style="fill:none;stroke:#ffffff;stroke-linecap:round;"/>
     </g>
    </g>
   </g>
   <g id="matplotlib.axis_4">
    <g id="ytick_6"/>
    <g id="ytick_7"/>
   </g>
   <g id="PolyCollection_1">
    <defs>
     <path d="M 49.923143 -352.974232 
L 49.923143 -352.971272 
L 52.644535 -352.971272 
L 55.365926 -352.971272 
L 58.087317 -352.971272 
L 60.808708 -352.971272 
L 63.530099 -352.971272 
L 66.25149 -352.971272 
L 68.972881 -352.971272 
L 71.694272 -352.971272 
L 74.415664 -352.971272 
L 77.137055 -352.971272 
L 79.858446 -352.971272 
L 82.579837 -352.971272 
L 85.301228 -352.971272 
L 88.022619 -352.971272 
L 90.74401 -352.971272 
L 93.465402 -352.971272 
L 96.186793 -352.971272 
L 98.908184 -352.971272 
L 101.629575 -352.971272 
L 104.350966 -352.971272 
L 107.072357 -352.971272 
L 109.793748 -352.971272 
L 112.515139 -352.971272 
L 115.236531 -352.971272 
L 117.957922 -352.971272 
L 120.679313 -352.971272 
L 123.400704 -352.971272 
L 126.122095 -352.971272 
L 128.843486 -352.971272 
L 131.564877 -352.971272 
L 134.286269 -352.971272 
L 137.00766 -352.971272 
L 139.729051 -352.971272 
L 142.450442 -352.971272 
L 145.171833 -352.971272 
L 147.893224 -352.971272 
L 150.614615 -352.971272 
L 153.336006 -352.971272 
L 156.057398 -352.971272 
L 158.778789 -352.971272 
L 161.50018 -352.971272 
L 164.221571 -352.971272 
L 166.942962 -352.971272 
L 169.664353 -352.971272 
L 172.385744 -352.971272 
L 175.107135 -352.971272 
L 177.828527 -352.971272 
L 180.549918 -352.971272 
L 183.271309 -352.971272 
L 185.9927 -352.971272 
L 188.714091 -352.971272 
L 191.435482 -352.971272 
L 194.156873 -352.971272 
L 196.878265 -352.971272 
L 199.599656 -352.971272 
L 202.321047 -352.971272 
L 205.042438 -352.971272 
L 207.763829 -352.971272 
L 210.48522 -352.971272 
L 213.206611 -352.971272 
L 215.928002 -352.971272 
L 218.649394 -352.971272 
L 221.370785 -352.971272 
L 224.092176 -352.971272 
L 226.813567 -352.971272 
L 229.534958 -352.971272 
L 232.256349 -352.971272 
L 234.97774 -352.971272 
L 237.699132 -352.971272 
L 240.420523 -352.971272 
L 243.141914 -352.971272 
L 245.863305 -352.971272 
L 248.584696 -352.971272 
L 251.306087 -352.971272 
L 254.027478 -352.971272 
L 256.748869 -352.971272 
L 259.470261 -352.971272 
L 262.191652 -352.971272 
L 264.913043 -352.971272 
L 267.634434 -352.971272 
L 270.355825 -352.971272 
L 273.077216 -352.971272 
L 275.798607 -352.971272 
L 278.519999 -352.971272 
L 281.24139 -352.971272 
L 283.962781 -352.971272 
L 286.684172 -352.971272 
L 289.405563 -352.971272 
L 292.126954 -352.971272 
L 294.848345 -352.971272 
L 297.569736 -352.971272 
L 300.291128 -352.971272 
L 303.012519 -352.971272 
L 305.73391 -352.971272 
L 308.455301 -352.971272 
L 311.176692 -352.971272 
L 313.898083 -352.971272 
L 316.619474 -352.971272 
L 319.340866 -352.971272 
L 319.340866 -352.975142 
L 319.340866 -352.975142 
L 316.619474 -352.981156 
L 313.898083 -352.994029 
L 311.176692 -353.018514 
L 308.455301 -353.059698 
L 305.73391 -353.120532 
L 303.012519 -353.198552 
L 300.291128 -353.283702 
L 297.569736 -353.359616 
L 294.848345 -353.409302 
L 292.126954 -353.42317 
L 289.405563 -353.405026 
L 286.684172 -353.372197 
L 283.962781 -353.349531 
L 281.24139 -353.360809 
L 278.519999 -353.42227 
L 275.798607 -353.540841 
L 273.077216 -353.716492 
L 270.355825 -353.946527 
L 267.634434 -354.229844 
L 264.913043 -354.57011 
L 262.191652 -354.977021 
L 259.470261 -355.46532 
L 256.748869 -356.053126 
L 254.027478 -356.763115 
L 251.306087 -357.628779 
L 248.584696 -358.701832 
L 245.863305 -360.050878 
L 243.141914 -361.743481 
L 240.420523 -363.815998 
L 237.699132 -366.248067 
L 234.97774 -368.95819 
L 232.256349 -371.821683 
L 229.534958 -374.697049 
L 226.813567 -377.447569 
L 224.092176 -379.958795 
L 221.370785 -382.160748 
L 218.649394 -384.053595 
L 215.928002 -385.718818 
L 213.206611 -387.296143 
L 210.48522 -388.926829 
L 207.763829 -390.689952 
L 205.042438 -392.568068 
L 202.321047 -394.463562 
L 199.599656 -396.256747 
L 196.878265 -397.870339 
L 194.156873 -399.299977 
L 191.435482 -400.592684 
L 188.714091 -401.791203 
L 185.9927 -402.885564 
L 183.271309 -403.805268 
L 180.549918 -404.452923 
L 177.828527 -404.750864 
L 175.107135 -404.669048 
L 172.385744 -404.222787 
L 169.664353 -403.451093 
L 166.942962 -402.393171 
L 164.221571 -401.073566 
L 161.50018 -399.497883 
L 158.778789 -397.658015 
L 156.057398 -395.54599 
L 153.336006 -393.174146 
L 150.614615 -390.595145 
L 147.893224 -387.910837 
L 145.171833 -385.258431 
L 142.450442 -382.770833 
L 139.729051 -380.525356 
L 137.00766 -378.510188 
L 134.286269 -376.634444 
L 131.564877 -374.781171 
L 128.843486 -372.871598 
L 126.122095 -370.89999 
L 123.400704 -368.920783 
L 120.679313 -367.004658 
L 117.957922 -365.19888 
L 115.236531 -363.516942 
L 112.515139 -361.95575 
L 109.793748 -360.519012 
L 107.072357 -359.226449 
L 104.350966 -358.104306 
L 101.629575 -357.167695 
L 98.908184 -356.408935 
L 96.186793 -355.79917 
L 93.465402 -355.300783 
L 90.74401 -354.882084 
L 88.022619 -354.525613 
L 85.301228 -354.226343 
L 82.579837 -353.982905 
L 79.858446 -353.789235 
L 77.137055 -353.632663 
L 74.415664 -353.498716 
L 71.694272 -353.377712 
L 68.972881 -353.267792 
L 66.25149 -353.172782 
L 63.530099 -353.097405 
L 60.808708 -353.043467 
L 58.087317 -353.008889 
L 55.365926 -352.989065 
L 52.644535 -352.978899 
L 49.923143 -352.974232 
z
" id="m18e83014b2" style="stroke:#ffffff;stroke-opacity:0.25;"/>
    </defs>
    <g clip-path="url(#p92cbbc9a1c)">
     <use style="fill:#4c72b0;fill-opacity:0.25;stroke:#ffffff;stroke-opacity:0.25;" x="0" xlink:href="#m18e83014b2" y="420.539844"/>
    </g>
   </g>
   <g id="line2d_16">
    <path clip-path="url(#p92cbbc9a1c)" d="M 49.923143 67.565612 
L 52.644535 67.560945 
L 55.365926 67.550779 
L 58.087317 67.530955 
L 60.808708 67.496377 
L 63.530099 67.442439 
L 66.25149 67.367062 
L 68.972881 67.272052 
L 71.694272 67.162131 
L 74.415664 67.041128 
L 77.137055 66.907181 
L 79.858446 66.750609 
L 82.579837 66.556939 
L 85.301228 66.313501 
L 88.022619 66.014231 
L 90.74401 65.65776 
L 93.465402 65.23906 
L 96.186793 64.740673 
L 98.908184 64.130909 
L 101.629575 63.372149 
L 104.350966 62.435538 
L 107.072357 61.313394 
L 109.793748 60.020832 
L 112.515139 58.584094 
L 115.236531 57.022901 
L 117.957922 55.340963 
L 120.679313 53.535186 
L 123.400704 51.619061 
L 126.122095 49.639854 
L 128.843486 47.668245 
L 131.564877 45.758673 
L 134.286269 43.9054 
L 137.00766 42.029655 
L 139.729051 40.014488 
L 142.450442 37.769011 
L 145.171833 35.281413 
L 147.893224 32.629007 
L 150.614615 29.944698 
L 153.336006 27.365697 
L 156.057398 24.993854 
L 158.778789 22.881829 
L 161.50018 21.041961 
L 164.221571 19.466278 
L 166.942962 18.146673 
L 169.664353 17.088751 
L 172.385744 16.317057 
L 175.107135 15.870796 
L 177.828527 15.78898 
L 180.549918 16.086921 
L 183.271309 16.734575 
L 185.9927 17.65428 
L 188.714091 18.748641 
L 191.435482 19.94716 
L 194.156873 21.239867 
L 196.878265 22.669505 
L 199.599656 24.283096 
L 202.321047 26.076281 
L 205.042438 27.971775 
L 207.763829 29.849892 
L 210.48522 31.613015 
L 213.206611 33.243701 
L 215.928002 34.821026 
L 218.649394 36.486249 
L 221.370785 38.379096 
L 224.092176 40.581048 
L 226.813567 43.092275 
L 229.534958 45.842794 
L 232.256349 48.718161 
L 234.97774 51.581653 
L 237.699132 54.291777 
L 240.420523 56.723845 
L 243.141914 58.796363 
L 245.863305 60.488965 
L 248.584696 61.838011 
L 251.306087 62.911065 
L 254.027478 63.776728 
L 256.748869 64.486718 
L 259.470261 65.074523 
L 262.191652 65.562822 
L 264.913043 65.969733 
L 267.634434 66.31 
L 270.355825 66.593317 
L 273.077216 66.823351 
L 275.798607 66.999003 
L 278.519999 67.117574 
L 281.24139 67.179035 
L 283.962781 67.190313 
L 286.684172 67.167647 
L 289.405563 67.134818 
L 292.126954 67.116674 
L 294.848345 67.130542 
L 297.569736 67.180227 
L 300.291128 67.256142 
L 303.012519 67.341292 
L 305.73391 67.419312 
L 308.455301 67.480145 
L 311.176692 67.521329 
L 313.898083 67.545814 
L 316.619474 67.558688 
L 319.340866 67.564702 
" style="fill:none;stroke:#4c72b0;stroke-linecap:round;stroke-width:1.5;"/>
   </g>
   <g id="patch_6">
    <path d="M 29.241719 67.568571 
L 340.02229 67.568571 
" style="fill:none;stroke:#ffffff;stroke-linecap:square;stroke-linejoin:miter;stroke-width:1.25;"/>
   </g>
  </g>
  <g id="axes_3">
   <g id="patch_7">
    <path d="M 350.738862 393.78 
L 404.321719 393.78 
L 404.321719 78.442286 
L 350.738862 78.442286 
z
" style="fill:#eaeaf2;"/>
   </g>
   <g id="matplotlib.axis_5">
    <g id="xtick_11"/>
    <g id="xtick_12"/>
   </g>
   <g id="matplotlib.axis_6">
    <g id="ytick_8">
     <g id="line2d_17">
      <path clip-path="url(#p99dfac5a20)" d="M 350.738862 384.386475 
L 404.321719 384.386475 
" style="fill:none;stroke:#ffffff;stroke-linecap:round;"/>
     </g>
    </g>
    <g id="ytick_9">
     <g id="line2d_18">
      <path clip-path="url(#p99dfac5a20)" d="M 350.738862 318.005764 
L 404.321719 318.005764 
" style="fill:none;stroke:#ffffff;stroke-linecap:round;"/>
     </g>
    </g>
    <g id="ytick_10">
     <g id="line2d_19">
      <path clip-path="url(#p99dfac5a20)" d="M 350.738862 251.625054 
L 404.321719 251.625054 
" style="fill:none;stroke:#ffffff;stroke-linecap:round;"/>
     </g>
    </g>
    <g id="ytick_11">
     <g id="line2d_20">
      <path clip-path="url(#p99dfac5a20)" d="M 350.738862 185.244344 
L 404.321719 185.244344 
" style="fill:none;stroke:#ffffff;stroke-linecap:round;"/>
     </g>
    </g>
    <g id="ytick_12">
     <g id="line2d_21">
      <path clip-path="url(#p99dfac5a20)" d="M 350.738862 118.863633 
L 404.321719 118.863633 
" style="fill:none;stroke:#ffffff;stroke-linecap:round;"/>
     </g>
    </g>
   </g>
   <g id="PolyCollection_2">
    <defs>
     <path d="M 350.746273 -47.693722 
L 350.738862 -47.693722 
L 350.738862 -50.456045 
L 350.738862 -53.218368 
L 350.738862 -55.980691 
L 350.738862 -58.743013 
L 350.738862 -61.505336 
L 350.738862 -64.267659 
L 350.738862 -67.029982 
L 350.738862 -69.792305 
L 350.738862 -72.554627 
L 350.738862 -75.31695 
L 350.738862 -78.079273 
L 350.738862 -80.841596 
L 350.738862 -83.603919 
L 350.738862 -86.366241 
L 350.738862 -89.128564 
L 350.738862 -91.890887 
L 350.738862 -94.65321 
L 350.738862 -97.415533 
L 350.738862 -100.177855 
L 350.738862 -102.940178 
L 350.738862 -105.702501 
L 350.738862 -108.464824 
L 350.738862 -111.227147 
L 350.738862 -113.989469 
L 350.738862 -116.751792 
L 350.738862 -119.514115 
L 350.738862 -122.276438 
L 350.738862 -125.038761 
L 350.738862 -127.801083 
L 350.738862 -130.563406 
L 350.738862 -133.325729 
L 350.738862 -136.088052 
L 350.738862 -138.850375 
L 350.738862 -141.612697 
L 350.738862 -144.37502 
L 350.738862 -147.137343 
L 350.738862 -149.899666 
L 350.738862 -152.661989 
L 350.738862 -155.424311 
L 350.738862 -158.186634 
L 350.738862 -160.948957 
L 350.738862 -163.71128 
L 350.738862 -166.473603 
L 350.738862 -169.235925 
L 350.738862 -171.998248 
L 350.738862 -174.760571 
L 350.738862 -177.522894 
L 350.738862 -180.285217 
L 350.738862 -183.047539 
L 350.738862 -185.809862 
L 350.738862 -188.572185 
L 350.738862 -191.334508 
L 350.738862 -194.096831 
L 350.738862 -196.859154 
L 350.738862 -199.621476 
L 350.738862 -202.383799 
L 350.738862 -205.146122 
L 350.738862 -207.908445 
L 350.738862 -210.670768 
L 350.738862 -213.43309 
L 350.738862 -216.195413 
L 350.738862 -218.957736 
L 350.738862 -221.720059 
L 350.738862 -224.482382 
L 350.738862 -227.244704 
L 350.738862 -230.007027 
L 350.738862 -232.76935 
L 350.738862 -235.531673 
L 350.738862 -238.293996 
L 350.738862 -241.056318 
L 350.738862 -243.818641 
L 350.738862 -246.580964 
L 350.738862 -249.343287 
L 350.738862 -252.10561 
L 350.738862 -254.867932 
L 350.738862 -257.630255 
L 350.738862 -260.392578 
L 350.738862 -263.154901 
L 350.738862 -265.917224 
L 350.738862 -268.679546 
L 350.738862 -271.441869 
L 350.738862 -274.204192 
L 350.738862 -276.966515 
L 350.738862 -279.728838 
L 350.738862 -282.49116 
L 350.738862 -285.253483 
L 350.738862 -288.015806 
L 350.738862 -290.778129 
L 350.738862 -293.540452 
L 350.738862 -296.302774 
L 350.738862 -299.065097 
L 350.738862 -301.82742 
L 350.738862 -304.589743 
L 350.738862 -307.352066 
L 350.738862 -310.114388 
L 350.738862 -312.876711 
L 350.738862 -315.639034 
L 350.738862 -318.401357 
L 350.738862 -321.16368 
L 350.741174 -321.16368 
L 350.741174 -321.16368 
L 350.744684 -318.401357 
L 350.75205 -315.639034 
L 350.765727 -312.876711 
L 350.788086 -310.114388 
L 350.819999 -307.352066 
L 350.859235 -304.589743 
L 350.899776 -301.82742 
L 350.933248 -299.065097 
L 350.952549 -296.302774 
L 350.956187 -293.540452 
L 350.950755 -290.778129 
L 350.949608 -288.015806 
L 350.9678 -285.253483 
L 351.015431 -282.49116 
L 351.092742 -279.728838 
L 351.189869 -276.966515 
L 351.292332 -274.204192 
L 351.39042 -271.441869 
L 351.487935 -268.679546 
L 351.605091 -265.917224 
L 351.773052 -263.154901 
L 352.022512 -260.392578 
L 352.373001 -257.630255 
L 352.82976 -254.867932 
L 353.390165 -252.10561 
L 354.054732 -249.343287 
L 354.83383 -246.580964 
L 355.74386 -243.818641 
L 356.794276 -241.056318 
L 357.97434 -238.293996 
L 359.250739 -235.531673 
L 360.581929 -232.76935 
L 361.944264 -230.007027 
L 363.354591 -227.244704 
L 364.872476 -224.482382 
L 366.576556 -221.720059 
L 368.527692 -218.957736 
L 370.742358 -216.195413 
L 373.19299 -213.43309 
L 375.831338 -210.670768 
L 378.612245 -207.908445 
L 381.494747 -205.146122 
L 384.417698 -202.383799 
L 387.273185 -199.621476 
L 389.909836 -196.859154 
L 392.178351 -194.096831 
L 393.997292 -191.334508 
L 395.396805 -188.572185 
L 396.508934 -185.809862 
L 397.505913 -183.047539 
L 398.517924 -180.285217 
L 399.571512 -177.522894 
L 400.577168 -174.760571 
L 401.368555 -171.998248 
L 401.770154 -169.235925 
L 401.658558 -166.473603 
L 400.992025 -163.71128 
L 399.805768 -160.948957 
L 398.188874 -158.186634 
L 396.259847 -155.424311 
L 394.145786 -152.661989 
L 391.961314 -149.899666 
L 389.787246 -147.137343 
L 387.658254 -144.37502 
L 385.569205 -141.612697 
L 383.498428 -138.850375 
L 381.43371 -136.088052 
L 379.384973 -133.325729 
L 377.37717 -130.563406 
L 375.429897 -127.801083 
L 373.538456 -125.038761 
L 371.670193 -122.276438 
L 369.780556 -119.514115 
L 367.840558 -116.751792 
L 365.859184 -113.989469 
L 363.88681 -111.227147 
L 361.99753 -108.464824 
L 360.261394 -105.702501 
L 358.722625 -102.940178 
L 357.394226 -100.177855 
L 356.267928 -97.415533 
L 355.329546 -94.65321 
L 354.568565 -91.890887 
L 353.976649 -89.128564 
L 353.538128 -86.366241 
L 353.221057 -83.603919 
L 352.977027 -80.841596 
L 352.752114 -78.079273 
L 352.503989 -75.31695 
L 352.215844 -72.554627 
L 351.899337 -69.792305 
L 351.585208 -67.029982 
L 351.307276 -64.267659 
L 351.088488 -61.505336 
L 350.935054 -58.743013 
L 350.839017 -55.980691 
L 350.785276 -53.218368 
L 350.758356 -50.456045 
L 350.746273 -47.693722 
z
" id="m53c3ad8d5a" style="stroke:#ffffff;stroke-opacity:0.25;"/>
    </defs>
    <g clip-path="url(#p99dfac5a20)">
     <use style="fill:#4c72b0;fill-opacity:0.25;stroke:#ffffff;stroke-opacity:0.25;" x="0" xlink:href="#m53c3ad8d5a" y="420.539844"/>
    </g>
   </g>
   <g id="line2d_22">
    <path clip-path="url(#p99dfac5a20)" d="M 350.746273 372.846122 
L 350.758356 370.083799 
L 350.785276 367.321476 
L 350.839017 364.559153 
L 350.935054 361.79683 
L 351.088488 359.034508 
L 351.307276 356.272185 
L 351.585208 353.509862 
L 351.899337 350.747539 
L 352.215844 347.985216 
L 352.503989 345.222894 
L 352.752114 342.460571 
L 352.977027 339.698248 
L 353.221057 336.935925 
L 353.538128 334.173602 
L 353.976649 331.41128 
L 354.568565 328.648957 
L 355.329546 325.886634 
L 356.267928 323.124311 
L 357.394226 320.361988 
L 358.722625 317.599666 
L 360.261394 314.837343 
L 361.99753 312.07502 
L 363.88681 309.312697 
L 365.859184 306.550374 
L 367.840558 303.788052 
L 369.780556 301.025729 
L 371.670193 298.263406 
L 373.538456 295.501083 
L 375.429897 292.73876 
L 377.37717 289.976438 
L 379.384973 287.214115 
L 381.43371 284.451792 
L 383.498428 281.689469 
L 385.569205 278.927146 
L 387.658254 276.164824 
L 389.787246 273.402501 
L 391.961314 270.640178 
L 394.145786 267.877855 
L 396.259847 265.115532 
L 398.188874 262.353209 
L 399.805768 259.590887 
L 400.992025 256.828564 
L 401.658558 254.066241 
L 401.770154 251.303918 
L 401.368555 248.541595 
L 400.577168 245.779273 
L 399.571512 243.01695 
L 398.517924 240.254627 
L 397.505913 237.492304 
L 396.508934 234.729981 
L 395.396805 231.967659 
L 393.997292 229.205336 
L 392.178351 226.443013 
L 389.909836 223.68069 
L 387.273185 220.918367 
L 384.417698 218.156045 
L 381.494747 215.393722 
L 378.612245 212.631399 
L 375.831338 209.869076 
L 373.19299 207.106753 
L 370.742358 204.344431 
L 368.527692 201.582108 
L 366.576556 198.819785 
L 364.872476 196.057462 
L 363.354591 193.295139 
L 361.944264 190.532817 
L 360.581929 187.770494 
L 359.250739 185.008171 
L 357.97434 182.245848 
L 356.794276 179.483525 
L 355.74386 176.721203 
L 354.83383 173.95888 
L 354.054732 171.196557 
L 353.390165 168.434234 
L 352.82976 165.671911 
L 352.373001 162.909589 
L 352.022512 160.147266 
L 351.773052 157.384943 
L 351.605091 154.62262 
L 351.487935 151.860297 
L 351.39042 149.097975 
L 351.292332 146.335652 
L 351.189869 143.573329 
L 351.092742 140.811006 
L 351.015431 138.048683 
L 350.9678 135.286361 
L 350.949608 132.524038 
L 350.950755 129.761715 
L 350.956187 126.999392 
L 350.952549 124.237069 
L 350.933248 121.474747 
L 350.899776 118.712424 
L 350.859235 115.950101 
L 350.819999 113.187778 
L 350.788086 110.425455 
L 350.765727 107.663132 
L 350.75205 104.90081 
L 350.744684 102.138487 
L 350.741174 99.376164 
" style="fill:none;stroke:#4c72b0;stroke-linecap:round;stroke-width:1.5;"/>
   </g>
   <g id="patch_8">
    <path d="M 350.738862 393.78 
L 350.738862 78.442286 
" style="fill:none;stroke:#ffffff;stroke-linecap:square;stroke-linejoin:miter;stroke-width:1.25;"/>
   </g>
  </g>
 </g>
 <defs>
  <clipPath id="p383e7a7110">
   <rect height="315.337714" width="310.780571" x="29.241719" y="78.442286"/>
  </clipPath>
  <clipPath id="p92cbbc9a1c">
   <rect height="54.368571" width="310.780571" x="29.241719" y="13.2"/>
  </clipPath>
  <clipPath id="p99dfac5a20">
   <rect height="315.337714" width="53.582857" x="350.738862" y="78.442286"/>
  </clipPath>
 </defs>
</svg>
