<?xml version="1.0" encoding="utf-8" standalone="no"?>
<!DOCTYPE svg PUBLIC "-//W3C//DTD SVG 1.1//EN"
  "http://www.w3.org/Graphics/SVG/1.1/DTD/svg11.dtd">
<!-- Created with matplotlib (https://matplotlib.org/) -->
<svg height="420.539844pt" version="1.1" viewBox="0 0 417.521719 420.539844" width="417.521719pt" xmlns="http://www.w3.org/2000/svg" xmlns:xlink="http://www.w3.org/1999/xlink">
 <defs>
  <style type="text/css">
*{stroke-linecap:butt;stroke-linejoin:round;}
  </style>
 </defs>
 <g id="figure_1">
  <g id="patch_1">
   <path d="M 0 420.539844 
L 417.521719 420.539844 
L 417.521719 0 
L 0 0 
z
" style="fill:#ffffff;"/>
  </g>
  <g id="axes_1">
   <g id="patch_2">
    <path d="M 29.241719 393.78 
L 340.02229 393.78 
L 340.02229 78.442286 
L 29.241719 78.442286 
z
" style="fill:#eaeaf2;"/>
   </g>
   <g id="matplotlib.axis_1">
    <g id="xtick_1">
     <g id="line2d_1">
      <path clip-path="url(#pf972197da9)" d="M 42.662183 393.78 
L 42.662183 78.442286 
" style="fill:none;stroke:#ffffff;stroke-linecap:round;"/>
     </g>
     <g id="text_1">
      <!-- −4 -->
      <defs>
       <path d="M 52.828125 31.203125 
L 5.5625 31.203125 
L 5.5625 39.40625 
L 52.828125 39.40625 
z
" id="ArialMT-8722"/>
       <path d="M 32.328125 0 
L 32.328125 17.140625 
L 1.265625 17.140625 
L 1.265625 25.203125 
L 33.9375 71.578125 
L 41.109375 71.578125 
L 41.109375 25.203125 
L 50.78125 25.203125 
L 50.78125 17.140625 
L 41.109375 17.140625 
L 41.109375 0 
z
M 32.328125 25.203125 
L 32.328125 57.46875 
L 9.90625 25.203125 
z
" id="ArialMT-52"/>
      </defs>
      <g style="fill:#262626;" transform="translate(36.391324 411.153594)scale(0.11 -0.11)">
       <use xlink:href="#ArialMT-8722"/>
       <use x="58.398438" xlink:href="#ArialMT-52"/>
      </g>
     </g>
    </g>
    <g id="xtick_2">
     <g id="line2d_2">
      <path clip-path="url(#pf972197da9)" d="M 78.329616 393.78 
L 78.329616 78.442286 
" style="fill:none;stroke:#ffffff;stroke-linecap:round;"/>
     </g>
     <g id="text_2">
      <!-- −3 -->
      <defs>
       <path d="M 4.203125 18.890625 
L 12.984375 20.0625 
Q 14.5 12.59375 18.140625 9.296875 
Q 21.78125 6 27 6 
Q 33.203125 6 37.46875 10.296875 
Q 41.75 14.59375 41.75 20.953125 
Q 41.75 27 37.796875 30.921875 
Q 33.84375 34.859375 27.734375 34.859375 
Q 25.25 34.859375 21.53125 33.890625 
L 22.515625 41.609375 
Q 23.390625 41.5 23.921875 41.5 
Q 29.546875 41.5 34.03125 44.421875 
Q 38.53125 47.359375 38.53125 53.46875 
Q 38.53125 58.296875 35.25 61.46875 
Q 31.984375 64.65625 26.8125 64.65625 
Q 21.6875 64.65625 18.265625 61.421875 
Q 14.84375 58.203125 13.875 51.765625 
L 5.078125 53.328125 
Q 6.6875 62.15625 12.390625 67.015625 
Q 18.109375 71.875 26.609375 71.875 
Q 32.46875 71.875 37.390625 69.359375 
Q 42.328125 66.84375 44.9375 62.5 
Q 47.5625 58.15625 47.5625 53.265625 
Q 47.5625 48.640625 45.0625 44.828125 
Q 42.578125 41.015625 37.703125 38.765625 
Q 44.046875 37.3125 47.5625 32.6875 
Q 51.078125 28.078125 51.078125 21.140625 
Q 51.078125 11.765625 44.234375 5.25 
Q 37.40625 -1.265625 26.953125 -1.265625 
Q 17.53125 -1.265625 11.296875 4.34375 
Q 5.078125 9.96875 4.203125 18.890625 
z
" id="ArialMT-51"/>
      </defs>
      <g style="fill:#262626;" transform="translate(72.058756 411.153594)scale(0.11 -0.11)">
       <use xlink:href="#ArialMT-8722"/>
       <use x="58.398438" xlink:href="#ArialMT-51"/>
      </g>
     </g>
    </g>
    <g id="xtick_3">
     <g id="line2d_3">
      <path clip-path="url(#pf972197da9)" d="M 113.997048 393.78 
L 113.997048 78.442286 
" style="fill:none;stroke:#ffffff;stroke-linecap:round;"/>
     </g>
     <g id="text_3">
      <!-- −2 -->
      <defs>
       <path d="M 50.34375 8.453125 
L 50.34375 0 
L 3.03125 0 
Q 2.9375 3.171875 4.046875 6.109375 
Q 5.859375 10.9375 9.828125 15.625 
Q 13.8125 20.3125 21.34375 26.46875 
Q 33.015625 36.03125 37.109375 41.625 
Q 41.21875 47.21875 41.21875 52.203125 
Q 41.21875 57.421875 37.46875 61 
Q 33.734375 64.59375 27.734375 64.59375 
Q 21.390625 64.59375 17.578125 60.78125 
Q 13.765625 56.984375 13.71875 50.25 
L 4.6875 51.171875 
Q 5.609375 61.28125 11.65625 66.578125 
Q 17.71875 71.875 27.9375 71.875 
Q 38.234375 71.875 44.234375 66.15625 
Q 50.25 60.453125 50.25 52 
Q 50.25 47.703125 48.484375 43.546875 
Q 46.734375 39.40625 42.65625 34.8125 
Q 38.578125 30.21875 29.109375 22.21875 
Q 21.1875 15.578125 18.9375 13.203125 
Q 16.703125 10.84375 15.234375 8.453125 
z
" id="ArialMT-50"/>
      </defs>
      <g style="fill:#262626;" transform="translate(107.726189 411.153594)scale(0.11 -0.11)">
       <use xlink:href="#ArialMT-8722"/>
       <use x="58.398438" xlink:href="#ArialMT-50"/>
      </g>
     </g>
    </g>
    <g id="xtick_4">
     <g id="line2d_4">
      <path clip-path="url(#pf972197da9)" d="M 149.664481 393.78 
L 149.664481 78.442286 
" style="fill:none;stroke:#ffffff;stroke-linecap:round;"/>
     </g>
     <g id="text_4">
      <!-- −1 -->
      <defs>
       <path d="M 37.25 0 
L 28.46875 0 
L 28.46875 56 
Q 25.296875 52.984375 20.140625 49.953125 
Q 14.984375 46.921875 10.890625 45.40625 
L 10.890625 53.90625 
Q 18.265625 57.375 23.78125 62.296875 
Q 29.296875 67.234375 31.59375 71.875 
L 37.25 71.875 
z
" id="ArialMT-49"/>
      </defs>
      <g style="fill:#262626;" transform="translate(143.393622 411.153594)scale(0.11 -0.11)">
       <use xlink:href="#ArialMT-8722"/>
       <use x="58.398438" xlink:href="#ArialMT-49"/>
      </g>
     </g>
    </g>
    <g id="xtick_5">
     <g id="line2d_5">
      <path clip-path="url(#pf972197da9)" d="M 185.331914 393.78 
L 185.331914 78.442286 
" style="fill:none;stroke:#ffffff;stroke-linecap:round;"/>
     </g>
     <g id="text_5">
      <!-- 0 -->
      <defs>
       <path d="M 4.15625 35.296875 
Q 4.15625 48 6.765625 55.734375 
Q 9.375 63.484375 14.515625 67.671875 
Q 19.671875 71.875 27.484375 71.875 
Q 33.25 71.875 37.59375 69.546875 
Q 41.9375 67.234375 44.765625 62.859375 
Q 47.609375 58.5 49.21875 52.21875 
Q 50.828125 45.953125 50.828125 35.296875 
Q 50.828125 22.703125 48.234375 14.96875 
Q 45.65625 7.234375 40.5 3 
Q 35.359375 -1.21875 27.484375 -1.21875 
Q 17.140625 -1.21875 11.234375 6.203125 
Q 4.15625 15.140625 4.15625 35.296875 
z
M 13.1875 35.296875 
Q 13.1875 17.671875 17.3125 11.828125 
Q 21.4375 6 27.484375 6 
Q 33.546875 6 37.671875 11.859375 
Q 41.796875 17.71875 41.796875 35.296875 
Q 41.796875 52.984375 37.671875 58.78125 
Q 33.546875 64.59375 27.390625 64.59375 
Q 21.34375 64.59375 17.71875 59.46875 
Q 13.1875 52.9375 13.1875 35.296875 
z
" id="ArialMT-48"/>
      </defs>
      <g style="fill:#262626;" transform="translate(182.273398 411.153594)scale(0.11 -0.11)">
       <use xlink:href="#ArialMT-48"/>
      </g>
     </g>
    </g>
    <g id="xtick_6">
     <g id="line2d_6">
      <path clip-path="url(#pf972197da9)" d="M 220.999346 393.78 
L 220.999346 78.442286 
" style="fill:none;stroke:#ffffff;stroke-linecap:round;"/>
     </g>
     <g id="text_6">
      <!-- 1 -->
      <g style="fill:#262626;" transform="translate(217.940831 411.153594)scale(0.11 -0.11)">
       <use xlink:href="#ArialMT-49"/>
      </g>
     </g>
    </g>
    <g id="xtick_7">
     <g id="line2d_7">
      <path clip-path="url(#pf972197da9)" d="M 256.666779 393.78 
L 256.666779 78.442286 
" style="fill:none;stroke:#ffffff;stroke-linecap:round;"/>
     </g>
     <g id="text_7">
      <!-- 2 -->
      <g style="fill:#262626;" transform="translate(253.608263 411.153594)scale(0.11 -0.11)">
       <use xlink:href="#ArialMT-50"/>
      </g>
     </g>
    </g>
    <g id="xtick_8">
     <g id="line2d_8">
      <path clip-path="url(#pf972197da9)" d="M 292.334212 393.78 
L 292.334212 78.442286 
" style="fill:none;stroke:#ffffff;stroke-linecap:round;"/>
     </g>
     <g id="text_8">
      <!-- 3 -->
      <g style="fill:#262626;" transform="translate(289.275696 411.153594)scale(0.11 -0.11)">
       <use xlink:href="#ArialMT-51"/>
      </g>
     </g>
    </g>
    <g id="xtick_9">
     <g id="line2d_9">
      <path clip-path="url(#pf972197da9)" d="M 328.001644 393.78 
L 328.001644 78.442286 
" style="fill:none;stroke:#ffffff;stroke-linecap:round;"/>
     </g>
     <g id="text_9">
      <!-- 4 -->
      <g style="fill:#262626;" transform="translate(324.943129 411.153594)scale(0.11 -0.11)">
       <use xlink:href="#ArialMT-52"/>
      </g>
     </g>
    </g>
   </g>
   <g id="matplotlib.axis_2">
    <g id="ytick_1">
     <g id="line2d_10">
      <path clip-path="url(#pf972197da9)" d="M 29.241719 358.526241 
L 340.02229 358.526241 
" style="fill:none;stroke:#ffffff;stroke-linecap:round;"/>
     </g>
     <g id="text_10">
      <!-- −4 -->
      <g style="fill:#262626;" transform="translate(7.2 362.463038)scale(0.11 -0.11)">
       <use xlink:href="#ArialMT-8722"/>
       <use x="58.398438" xlink:href="#ArialMT-52"/>
      </g>
     </g>
    </g>
    <g id="ytick_2">
     <g id="line2d_11">
      <path clip-path="url(#pf972197da9)" d="M 29.241719 298.356737 
L 340.02229 298.356737 
" style="fill:none;stroke:#ffffff;stroke-linecap:round;"/>
     </g>
     <g id="text_11">
      <!-- −2 -->
      <g style="fill:#262626;" transform="translate(7.2 302.293534)scale(0.11 -0.11)">
       <use xlink:href="#ArialMT-8722"/>
       <use x="58.398438" xlink:href="#ArialMT-50"/>
      </g>
     </g>
    </g>
    <g id="ytick_3">
     <g id="line2d_12">
      <path clip-path="url(#pf972197da9)" d="M 29.241719 238.187232 
L 340.02229 238.187232 
" style="fill:none;stroke:#ffffff;stroke-linecap:round;"/>
     </g>
     <g id="text_12">
      <!-- 0 -->
      <g style="fill:#262626;" transform="translate(13.624688 242.124029)scale(0.11 -0.11)">
       <use xlink:href="#ArialMT-48"/>
      </g>
     </g>
    </g>
    <g id="ytick_4">
     <g id="line2d_13">
      <path clip-path="url(#pf972197da9)" d="M 29.241719 178.017727 
L 340.02229 178.017727 
" style="fill:none;stroke:#ffffff;stroke-linecap:round;"/>
     </g>
     <g id="text_13">
      <!-- 2 -->
      <g style="fill:#262626;" transform="translate(13.624688 181.954524)scale(0.11 -0.11)">
       <use xlink:href="#ArialMT-50"/>
      </g>
     </g>
    </g>
    <g id="ytick_5">
     <g id="line2d_14">
      <path clip-path="url(#pf972197da9)" d="M 29.241719 117.848222 
L 340.02229 117.848222 
" style="fill:none;stroke:#ffffff;stroke-linecap:round;"/>
     </g>
     <g id="text_14">
      <!-- 4 -->
      <g style="fill:#262626;" transform="translate(13.624688 121.785019)scale(0.11 -0.11)">
       <use xlink:href="#ArialMT-52"/>
      </g>
     </g>
    </g>
   </g>
   <g id="PathCollection_1">
    <path clip-path="url(#pf972197da9)" d="M 46.221924 379.446468 
L 49.075741 379.446468 
L 51.929557 379.446468 
L 54.783373 379.446468 
L 57.637189 379.446468 
L 60.491005 379.446468 
L 63.344821 379.446468 
L 66.198637 379.446468 
L 69.052453 379.446468 
L 71.906269 379.446468 
L 74.760085 379.446468 
L 77.613901 379.446468 
L 80.467717 379.446468 
L 83.321534 379.446468 
L 86.17535 379.446468 
L 89.029166 379.446468 
L 91.882982 379.446468 
L 94.736798 379.446468 
L 97.590614 379.446468 
L 100.44443 379.446468 
L 103.298246 379.446468 
L 106.152062 379.446468 
L 109.005878 379.446468 
L 111.859694 379.446468 
L 114.71351 379.446468 
L 117.567327 379.446468 
L 120.421143 379.446468 
L 123.274959 379.446468 
L 126.128775 379.446468 
L 128.982591 379.446468 
L 131.836407 379.446468 
L 134.690223 379.446468 
L 137.544039 379.446468 
L 140.397855 379.446468 
L 143.251671 379.446468 
L 146.105487 379.446468 
L 148.959303 379.446468 
L 151.81312 379.446468 
L 154.666936 379.446468 
L 157.520752 379.446468 
L 160.374568 379.446468 
L 163.228384 379.446468 
L 166.0822 379.446468 
L 168.936016 379.446468 
L 171.789832 379.446468 
L 174.643648 379.446468 
L 177.497464 379.446468 
L 180.35128 379.446468 
L 183.205096 379.446468 
L 186.058913 379.446468 
L 188.912729 379.446468 
L 191.766545 379.446468 
L 194.620361 379.446468 
L 197.474177 379.446468 
L 200.327993 379.446468 
L 203.181809 379.446468 
L 206.035625 379.446468 
L 208.889441 379.446468 
L 211.743257 379.446468 
L 214.597073 379.446468 
L 217.450889 379.446468 
L 220.304706 379.446468 
L 223.158522 379.446468 
L 226.012338 379.446468 
L 228.866154 379.446468 
L 231.71997 379.446468 
L 234.573786 379.446468 
L 237.427602 379.446468 
L 240.281418 379.446468 
L 243.135234 379.446468 
L 245.98905 379.446468 
L 248.842866 379.446468 
L 251.696682 379.446468 
L 254.550498 379.446468 
L 257.404315 379.446468 
L 260.258131 379.446468 
L 263.111947 379.446468 
L 265.965763 379.446468 
L 268.819579 379.446468 
L 271.673395 379.446468 
L 274.527211 379.446468 
L 277.381027 379.446468 
L 280.234843 379.446468 
L 283.088659 379.446468 
L 285.942475 379.446468 
L 288.796291 379.446468 
L 291.650108 379.446468 
L 294.503924 379.446468 
L 297.35774 379.446468 
L 300.211556 379.446468 
L 303.065372 379.446468 
L 305.919188 379.446468 
L 308.773004 379.446468 
L 311.62682 379.446468 
L 314.480636 379.446468 
L 317.334452 379.446468 
L 320.188268 379.446468 
L 323.042084 379.446468 
L 325.895901 379.446468 
L 325.895901 376.550804 
L 325.895901 373.655141 
L 325.895901 370.759478 
L 325.895901 367.863815 
L 325.895901 364.968152 
L 325.895901 362.072489 
L 325.895901 359.176826 
L 325.895901 356.281163 
L 325.895901 353.385499 
L 325.895901 350.489836 
L 325.895901 347.594173 
L 325.895901 344.69851 
L 325.895901 341.802847 
L 325.895901 338.907184 
L 325.895901 336.011521 
L 325.895901 333.115858 
L 325.895901 330.220194 
L 325.895901 327.324531 
L 325.895901 324.428868 
L 325.895901 321.533205 
L 325.895901 318.637542 
L 325.895901 315.741879 
L 325.895901 312.846216 
L 325.895901 309.950553 
L 325.895901 307.054889 
L 325.895901 304.159226 
L 325.895901 301.263563 
L 325.895901 298.3679 
L 325.895901 295.472237 
L 325.895901 292.576574 
L 325.895901 289.680911 
L 325.895901 286.785248 
L 325.895901 283.889584 
L 325.895901 280.993921 
L 325.895901 278.098258 
L 325.895901 275.202595 
L 325.895901 272.306932 
L 325.895901 269.411269 
L 325.895901 266.515606 
L 325.895901 263.619943 
L 325.895901 260.724279 
L 325.895901 257.828616 
L 325.895901 254.932953 
L 325.895901 252.03729 
L 325.895901 249.141627 
L 325.895901 246.245964 
L 325.895901 243.350301 
L 325.895901 240.454638 
L 325.895901 237.558974 
L 325.895901 234.663311 
L 325.895901 231.767648 
L 325.895901 228.871985 
L 325.895901 225.976322 
L 325.895901 223.080659 
L 325.895901 220.184996 
L 325.895901 217.289333 
L 325.895901 214.393669 
L 325.895901 211.498006 
L 325.895901 208.602343 
L 325.895901 205.70668 
L 325.895901 202.811017 
L 325.895901 199.915354 
L 325.895901 197.019691 
L 325.895901 194.124028 
L 325.895901 191.228364 
L 325.895901 188.332701 
L 325.895901 185.437038 
L 325.895901 182.541375 
L 325.895901 179.645712 
L 325.895901 176.750049 
L 325.895901 173.854386 
L 325.895901 170.958723 
L 325.895901 168.063059 
L 325.895901 165.167396 
L 325.895901 162.271733 
L 325.895901 159.37607 
L 325.895901 156.480407 
L 325.895901 153.584744 
L 325.895901 150.689081 
L 325.895901 147.793418 
L 325.895901 144.897754 
L 325.895901 142.002091 
L 325.895901 139.106428 
L 325.895901 136.210765 
L 325.895901 133.315102 
L 325.895901 130.419439 
L 325.895901 127.523776 
L 325.895901 124.628113 
L 325.895901 121.732449 
L 325.895901 118.836786 
L 325.895901 115.941123 
L 325.895901 113.04546 
L 325.895901 110.149797 
L 325.895901 107.254134 
L 325.895901 104.358471 
L 325.895901 101.462808 
L 325.895901 98.567144 
L 325.895901 95.671481 
L 325.895901 92.775818 
L 323.042084 92.775818 
L 320.188268 92.775818 
L 317.334452 92.775818 
L 314.480636 92.775818 
L 311.62682 92.775818 
L 308.773004 92.775818 
L 305.919188 92.775818 
L 303.065372 92.775818 
L 300.211556 92.775818 
L 297.35774 92.775818 
L 294.503924 92.775818 
L 291.650108 92.775818 
L 288.796291 92.775818 
L 285.942475 92.775818 
L 283.088659 92.775818 
L 280.234843 92.775818 
L 277.381027 92.775818 
L 274.527211 92.775818 
L 271.673395 92.775818 
L 268.819579 92.775818 
L 265.965763 92.775818 
L 263.111947 92.775818 
L 260.258131 92.775818 
L 257.404315 92.775818 
L 254.550498 92.775818 
L 251.696682 92.775818 
L 248.842866 92.775818 
L 245.98905 92.775818 
L 243.135234 92.775818 
L 240.281418 92.775818 
L 237.427602 92.775818 
L 234.573786 92.775818 
L 231.71997 92.775818 
L 228.866154 92.775818 
L 226.012338 92.775818 
L 223.158522 92.775818 
L 220.304706 92.775818 
L 217.450889 92.775818 
L 214.597073 92.775818 
L 211.743257 92.775818 
L 208.889441 92.775818 
L 206.035625 92.775818 
L 203.181809 92.775818 
L 200.327993 92.775818 
L 197.474177 92.775818 
L 194.620361 92.775818 
L 191.766545 92.775818 
L 188.912729 92.775818 
L 186.058913 92.775818 
L 183.205096 92.775818 
L 180.35128 92.775818 
L 177.497464 92.775818 
L 174.643648 92.775818 
L 171.789832 92.775818 
L 168.936016 92.775818 
L 166.0822 92.775818 
L 163.228384 92.775818 
L 160.374568 92.775818 
L 157.520752 92.775818 
L 154.666936 92.775818 
L 151.81312 92.775818 
L 148.959303 92.775818 
L 146.105487 92.775818 
L 143.251671 92.775818 
L 140.397855 92.775818 
L 137.544039 92.775818 
L 134.690223 92.775818 
L 131.836407 92.775818 
L 128.982591 92.775818 
L 126.128775 92.775818 
L 123.274959 92.775818 
L 120.421143 92.775818 
L 117.567327 92.775818 
L 114.71351 92.775818 
L 111.859694 92.775818 
L 109.005878 92.775818 
L 106.152062 92.775818 
L 103.298246 92.775818 
L 100.44443 92.775818 
L 97.590614 92.775818 
L 94.736798 92.775818 
L 91.882982 92.775818 
L 89.029166 92.775818 
L 86.17535 92.775818 
L 83.321534 92.775818 
L 80.467717 92.775818 
L 77.613901 92.775818 
L 74.760085 92.775818 
L 71.906269 92.775818 
L 69.052453 92.775818 
L 66.198637 92.775818 
L 63.344821 92.775818 
L 60.491005 92.775818 
L 57.637189 92.775818 
L 54.783373 92.775818 
L 51.929557 92.775818 
L 49.075741 92.775818 
L 46.221924 92.775818 
L 43.368108 92.775818 
L 43.368108 95.671481 
L 43.368108 98.567144 
L 43.368108 101.462808 
L 43.368108 104.358471 
L 43.368108 107.254134 
L 43.368108 110.149797 
L 43.368108 113.04546 
L 43.368108 115.941123 
L 43.368108 118.836786 
L 43.368108 121.732449 
L 43.368108 124.628113 
L 43.368108 127.523776 
L 43.368108 130.419439 
L 43.368108 133.315102 
L 43.368108 136.210765 
L 43.368108 139.106428 
L 43.368108 142.002091 
L 43.368108 144.897754 
L 43.368108 147.793418 
L 43.368108 150.689081 
L 43.368108 153.584744 
L 43.368108 156.480407 
L 43.368108 159.37607 
L 43.368108 162.271733 
L 43.368108 165.167396 
L 43.368108 168.063059 
L 43.368108 170.958723 
L 43.368108 173.854386 
L 43.368108 176.750049 
L 43.368108 179.645712 
L 43.368108 182.541375 
L 43.368108 185.437038 
L 43.368108 188.332701 
L 43.368108 191.228364 
L 43.368108 194.124028 
L 43.368108 197.019691 
L 43.368108 199.915354 
L 43.368108 202.811017 
L 43.368108 205.70668 
L 43.368108 208.602343 
L 43.368108 211.498006 
L 43.368108 214.393669 
L 43.368108 217.289333 
L 43.368108 220.184996 
L 43.368108 223.080659 
L 43.368108 225.976322 
L 43.368108 228.871985 
L 43.368108 231.767648 
L 43.368108 234.663311 
L 43.368108 237.558974 
L 43.368108 240.454638 
L 43.368108 243.350301 
L 43.368108 246.245964 
L 43.368108 249.141627 
L 43.368108 252.03729 
L 43.368108 254.932953 
L 43.368108 257.828616 
L 43.368108 260.724279 
L 43.368108 263.619943 
L 43.368108 266.515606 
L 43.368108 269.411269 
L 43.368108 272.306932 
L 43.368108 275.202595 
L 43.368108 278.098258 
L 43.368108 280.993921 
L 43.368108 283.889584 
L 43.368108 286.785248 
L 43.368108 289.680911 
L 43.368108 292.576574 
L 43.368108 295.472237 
L 43.368108 298.3679 
L 43.368108 301.263563 
L 43.368108 304.159226 
L 43.368108 307.054889 
L 43.368108 309.950553 
L 43.368108 312.846216 
L 43.368108 315.741879 
L 43.368108 318.637542 
L 43.368108 321.533205 
L 43.368108 324.428868 
L 43.368108 327.324531 
L 43.368108 330.220194 
L 43.368108 333.115858 
L 43.368108 336.011521 
L 43.368108 338.907184 
L 43.368108 341.802847 
L 43.368108 344.69851 
L 43.368108 347.594173 
L 43.368108 350.489836 
L 43.368108 353.385499 
L 43.368108 356.281163 
L 43.368108 359.176826 
L 43.368108 362.072489 
L 43.368108 364.968152 
L 43.368108 367.863815 
L 43.368108 370.759478 
L 43.368108 373.655141 
L 43.368108 376.550804 
L 43.368108 379.446468 
z
M 169.877416 304.159226 
L 168.936016 303.81241 
L 166.0822 302.481892 
L 163.973639 301.263563 
L 163.228384 300.850178 
L 160.374568 299.151298 
L 159.074987 298.3679 
L 157.520752 297.497699 
L 154.666936 295.976855 
L 153.528054 295.472237 
L 151.81312 294.752304 
L 148.959303 293.819582 
L 146.105487 293.171983 
L 143.251671 292.814374 
L 140.397855 292.58111 
L 140.36518 292.576574 
L 137.544039 292.133494 
L 134.690223 291.046884 
L 132.70854 289.680911 
L 131.836407 288.944187 
L 130.086729 286.785248 
L 128.982591 285.08983 
L 128.355425 283.889584 
L 127.016971 280.993921 
L 126.128775 278.976799 
L 125.769019 278.098258 
L 124.390946 275.202595 
L 123.274959 273.197349 
L 122.750535 272.306932 
L 120.69402 269.411269 
L 120.421143 269.070356 
L 118.16497 266.515606 
L 117.567327 265.824887 
L 115.561405 263.619943 
L 114.71351 262.474191 
L 113.470064 260.724279 
L 112.108181 257.828616 
L 111.859694 257.048566 
L 111.204823 254.932953 
L 110.540698 252.03729 
L 109.953823 249.141627 
L 109.321663 246.245964 
L 109.005878 245.026173 
L 108.460342 243.350301 
L 107.296029 240.454638 
L 106.152062 237.999897 
L 105.890543 237.558974 
L 104.304698 234.663311 
L 103.298246 232.092911 
L 103.160613 231.767648 
L 102.801306 228.871985 
L 103.292785 225.976322 
L 103.298246 225.962521 
L 104.284505 223.080659 
L 105.451345 220.184996 
L 106.152062 218.494167 
L 106.562387 217.289333 
L 107.576973 214.393669 
L 108.616694 211.498006 
L 109.005878 210.479787 
L 109.667673 208.602343 
L 110.738043 205.70668 
L 111.747259 202.811017 
L 111.859694 202.375649 
L 112.557445 199.915354 
L 113.09713 197.019691 
L 113.406664 194.124028 
L 113.763571 191.228364 
L 114.687044 188.332701 
L 114.71351 188.291877 
L 117.567327 185.915771 
L 119.288073 185.437038 
L 120.421143 185.214705 
L 123.274959 185.145198 
L 126.128775 185.165472 
L 128.982591 184.886665 
L 131.836407 184.017465 
L 134.595146 182.541375 
L 134.690223 182.490265 
L 137.544039 180.422749 
L 138.523767 179.645712 
L 140.397855 178.285853 
L 142.7306 176.750049 
L 143.251671 176.440433 
L 146.105487 174.995677 
L 148.959303 173.956893 
L 149.349494 173.854386 
L 151.81312 173.207183 
L 154.666936 172.714402 
L 157.520752 172.413241 
L 160.374568 172.227568 
L 163.228384 172.073065 
L 166.0822 171.863436 
L 168.936016 171.53034 
L 171.789832 171.047911 
L 172.224633 170.958723 
L 174.643648 170.40172 
L 177.497464 169.714878 
L 180.35128 169.105278 
L 183.205096 168.683376 
L 186.058913 168.552986 
L 188.912729 168.80175 
L 191.766545 169.468715 
L 194.620361 170.487385 
L 195.776742 170.958723 
L 197.474177 171.705379 
L 200.327993 172.845545 
L 203.181809 173.714874 
L 203.764329 173.854386 
L 206.035625 174.306491 
L 208.889441 174.775087 
L 211.743257 175.217812 
L 214.597073 175.675185 
L 217.450889 176.150091 
L 220.304706 176.62891 
L 221.013352 176.750049 
L 223.158522 177.087863 
L 226.012338 177.553543 
L 228.866154 178.066347 
L 231.71997 178.687918 
L 234.573786 179.50559 
L 234.955996 179.645712 
L 237.427602 180.673825 
L 240.281418 182.320544 
L 240.591599 182.541375 
L 243.135234 184.772994 
L 243.770727 185.437038 
L 245.98905 188.272184 
L 246.032694 188.332701 
L 247.921057 191.228364 
L 248.842866 192.749571 
L 249.669055 194.124028 
L 251.404948 197.019691 
L 251.696682 197.487503 
L 253.222756 199.915354 
L 254.550498 202.001071 
L 255.066131 202.811017 
L 256.854779 205.70668 
L 257.404315 206.69319 
L 258.441454 208.602343 
L 259.684896 211.498006 
L 260.258131 213.467167 
L 260.523498 214.393669 
L 260.944771 217.289333 
L 260.980608 220.184996 
L 260.707828 223.080659 
L 260.258131 225.846487 
L 260.238053 225.976322 
L 259.758021 228.871985 
L 259.393607 231.767648 
L 259.24277 234.663311 
L 259.325123 237.558974 
L 259.586302 240.454638 
L 259.934873 243.350301 
L 260.258131 246.05723 
L 260.283946 246.245964 
L 260.597183 249.141627 
L 260.72158 252.03729 
L 260.570218 254.932953 
L 260.258131 256.656291 
L 260.061499 257.828616 
L 259.116253 260.724279 
L 257.545442 263.619943 
L 257.404315 263.823258 
L 255.524985 266.515606 
L 254.550498 267.729095 
L 253.287898 269.411269 
L 251.696682 271.561903 
L 251.215412 272.306932 
L 249.523178 275.202595 
L 248.842866 276.457002 
L 248.055939 278.098258 
L 246.628365 280.993921 
L 245.98905 282.194999 
L 245.098434 283.889584 
L 243.282935 286.785248 
L 243.135234 287.000879 
L 241.079912 289.680911 
L 240.281418 290.575173 
L 238.106057 292.576574 
L 237.427602 293.127085 
L 234.573786 294.996425 
L 233.676595 295.472237 
L 231.71997 296.44746 
L 228.866154 297.658383 
L 227.055044 298.3679 
L 226.012338 298.776552 
L 223.158522 299.917634 
L 220.304706 301.06054 
L 219.815188 301.263563 
L 217.450889 302.291375 
L 214.597073 303.483074 
L 212.824175 304.159226 
L 211.743257 304.591146 
L 208.889441 305.539077 
L 206.035625 306.233211 
L 203.181809 306.675597 
L 200.327993 306.900111 
L 197.474177 306.965524 
L 194.620361 306.938819 
L 191.766545 306.875136 
L 188.912729 306.804007 
L 186.058913 306.726435 
L 183.205096 306.619534 
L 180.35128 306.442546 
L 177.497464 306.140439 
L 174.643648 305.645194 
L 171.789832 304.87791 
z
" style="fill:#ebf0f7;"/>
   </g>
   <g id="PathCollection_2">
    <path clip-path="url(#pf972197da9)" d="M 171.789832 304.87791 
L 174.643648 305.645194 
L 177.497464 306.140439 
L 180.35128 306.442546 
L 183.205096 306.619534 
L 186.058913 306.726435 
L 188.912729 306.804007 
L 191.766545 306.875136 
L 194.620361 306.938819 
L 197.474177 306.965524 
L 200.327993 306.900111 
L 203.181809 306.675597 
L 206.035625 306.233211 
L 208.889441 305.539077 
L 211.743257 304.591146 
L 212.824175 304.159226 
L 214.597073 303.483074 
L 217.450889 302.291375 
L 219.815188 301.263563 
L 220.304706 301.06054 
L 223.158522 299.917634 
L 226.012338 298.776552 
L 227.055044 298.3679 
L 228.866154 297.658383 
L 231.71997 296.44746 
L 233.676595 295.472237 
L 234.573786 294.996425 
L 237.427602 293.127085 
L 238.106057 292.576574 
L 240.281418 290.575173 
L 241.079912 289.680911 
L 243.135234 287.000879 
L 243.282935 286.785248 
L 245.098434 283.889584 
L 245.98905 282.194999 
L 246.628365 280.993921 
L 248.055939 278.098258 
L 248.842866 276.457002 
L 249.523178 275.202595 
L 251.215412 272.306932 
L 251.696682 271.561903 
L 253.287898 269.411269 
L 254.550498 267.729095 
L 255.524985 266.515606 
L 257.404315 263.823258 
L 257.545442 263.619943 
L 259.116253 260.724279 
L 260.061499 257.828616 
L 260.258131 256.656291 
L 260.570218 254.932953 
L 260.72158 252.03729 
L 260.597183 249.141627 
L 260.283946 246.245964 
L 260.258131 246.05723 
L 259.934873 243.350301 
L 259.586302 240.454638 
L 259.325123 237.558974 
L 259.24277 234.663311 
L 259.393607 231.767648 
L 259.758021 228.871985 
L 260.238053 225.976322 
L 260.258131 225.846487 
L 260.707828 223.080659 
L 260.980608 220.184996 
L 260.944771 217.289333 
L 260.523498 214.393669 
L 260.258131 213.467167 
L 259.684896 211.498006 
L 258.441454 208.602343 
L 257.404315 206.69319 
L 256.854779 205.70668 
L 255.066131 202.811017 
L 254.550498 202.001071 
L 253.222756 199.915354 
L 251.696682 197.487503 
L 251.404948 197.019691 
L 249.669055 194.124028 
L 248.842866 192.749571 
L 247.921057 191.228364 
L 246.032694 188.332701 
L 245.98905 188.272184 
L 243.770727 185.437038 
L 243.135234 184.772994 
L 240.591599 182.541375 
L 240.281418 182.320544 
L 237.427602 180.673825 
L 234.955996 179.645712 
L 234.573786 179.50559 
L 231.71997 178.687918 
L 228.866154 178.066347 
L 226.012338 177.553543 
L 223.158522 177.087863 
L 221.013352 176.750049 
L 220.304706 176.62891 
L 217.450889 176.150091 
L 214.597073 175.675185 
L 211.743257 175.217812 
L 208.889441 174.775087 
L 206.035625 174.306491 
L 203.764329 173.854386 
L 203.181809 173.714874 
L 200.327993 172.845545 
L 197.474177 171.705379 
L 195.776742 170.958723 
L 194.620361 170.487385 
L 191.766545 169.468715 
L 188.912729 168.80175 
L 186.058913 168.552986 
L 183.205096 168.683376 
L 180.35128 169.105278 
L 177.497464 169.714878 
L 174.643648 170.40172 
L 172.224633 170.958723 
L 171.789832 171.047911 
L 168.936016 171.53034 
L 166.0822 171.863436 
L 163.228384 172.073065 
L 160.374568 172.227568 
L 157.520752 172.413241 
L 154.666936 172.714402 
L 151.81312 173.207183 
L 149.349494 173.854386 
L 148.959303 173.956893 
L 146.105487 174.995677 
L 143.251671 176.440433 
L 142.7306 176.750049 
L 140.397855 178.285853 
L 138.523767 179.645712 
L 137.544039 180.422749 
L 134.690223 182.490265 
L 134.595146 182.541375 
L 131.836407 184.017465 
L 128.982591 184.886665 
L 126.128775 185.165472 
L 123.274959 185.145198 
L 120.421143 185.214705 
L 119.288073 185.437038 
L 117.567327 185.915771 
L 114.71351 188.291877 
L 114.687044 188.332701 
L 113.763571 191.228364 
L 113.406664 194.124028 
L 113.09713 197.019691 
L 112.557445 199.915354 
L 111.859694 202.375649 
L 111.747259 202.811017 
L 110.738043 205.70668 
L 109.667673 208.602343 
L 109.005878 210.479787 
L 108.616694 211.498006 
L 107.576973 214.393669 
L 106.562387 217.289333 
L 106.152062 218.494167 
L 105.451345 220.184996 
L 104.284505 223.080659 
L 103.298246 225.962521 
L 103.292785 225.976322 
L 102.801306 228.871985 
L 103.160613 231.767648 
L 103.298246 232.092911 
L 104.304698 234.663311 
L 105.890543 237.558974 
L 106.152062 237.999897 
L 107.296029 240.454638 
L 108.460342 243.350301 
L 109.005878 245.026173 
L 109.321663 246.245964 
L 109.953823 249.141627 
L 110.540698 252.03729 
L 111.204823 254.932953 
L 111.859694 257.048566 
L 112.108181 257.828616 
L 113.470064 260.724279 
L 114.71351 262.474191 
L 115.561405 263.619943 
L 117.567327 265.824887 
L 118.16497 266.515606 
L 120.421143 269.070356 
L 120.69402 269.411269 
L 122.750535 272.306932 
L 123.274959 273.197349 
L 124.390946 275.202595 
L 125.769019 278.098258 
L 126.128775 278.976799 
L 127.016971 280.993921 
L 128.355425 283.889584 
L 128.982591 285.08983 
L 130.086729 286.785248 
L 131.836407 288.944187 
L 132.70854 289.680911 
L 134.690223 291.046884 
L 137.544039 292.133494 
L 140.36518 292.576574 
L 140.397855 292.58111 
L 143.251671 292.814374 
L 146.105487 293.171983 
L 148.959303 293.819582 
L 151.81312 294.752304 
L 153.528054 295.472237 
L 154.666936 295.976855 
L 157.520752 297.497699 
L 159.074987 298.3679 
L 160.374568 299.151298 
L 163.228384 300.850178 
L 163.973639 301.263563 
L 166.0822 302.481892 
L 168.936016 303.81241 
L 169.877416 304.159226 
z
M 174.369437 295.472237 
L 171.789832 294.451385 
L 168.936016 293.018791 
L 168.170554 292.576574 
L 166.0822 291.437835 
L 163.266924 289.680911 
L 163.228384 289.657328 
L 160.374568 287.833747 
L 158.845119 286.785248 
L 157.520752 285.851332 
L 154.858955 283.889584 
L 154.666936 283.739307 
L 151.81312 281.531323 
L 151.116276 280.993921 
L 148.959303 279.228435 
L 147.569693 278.098258 
L 146.105487 276.868617 
L 144.128115 275.202595 
L 143.251671 274.465102 
L 140.774102 272.306932 
L 140.397855 271.985543 
L 137.58878 269.411269 
L 137.544039 269.370956 
L 134.690223 266.573262 
L 134.63619 266.515606 
L 131.920253 263.619943 
L 131.836407 263.527837 
L 129.407148 260.724279 
L 128.982591 260.191571 
L 127.136542 257.828616 
L 126.128775 256.305318 
L 125.217108 254.932953 
L 123.718565 252.03729 
L 123.274959 250.841717 
L 122.610428 249.141627 
L 121.887845 246.245964 
L 121.530238 243.350301 
L 121.472172 240.454638 
L 121.658005 237.558974 
L 122.017061 234.663311 
L 122.436908 231.767648 
L 122.763659 228.871985 
L 122.867164 225.976322 
L 122.739853 223.080659 
L 122.521481 220.184996 
L 122.426347 217.289333 
L 122.666599 214.393669 
L 123.274959 212.061317 
L 123.41584 211.498006 
L 124.78048 208.602343 
L 126.128775 206.788772 
L 127.000889 205.70668 
L 128.982591 203.86311 
L 130.255367 202.811017 
L 131.836407 201.679394 
L 134.58674 199.915354 
L 134.690223 199.850348 
L 137.544039 198.026071 
L 139.187819 197.019691 
L 140.397855 196.197834 
L 143.251671 194.29273 
L 143.510755 194.124028 
L 146.105487 192.16087 
L 147.482037 191.228364 
L 148.959303 190.113462 
L 151.81312 188.379582 
L 151.911589 188.332701 
L 154.666936 186.992125 
L 157.520752 186.08984 
L 160.374568 185.53818 
L 161.194496 185.437038 
L 163.228384 185.168653 
L 166.0822 184.908871 
L 168.936016 184.70454 
L 171.789832 184.533364 
L 174.643648 184.41748 
L 177.497464 184.411551 
L 180.35128 184.582064 
L 183.205096 184.982642 
L 185.225629 185.437038 
L 186.058913 185.585131 
L 188.912729 186.233204 
L 191.766545 186.964896 
L 194.620361 187.695794 
L 197.418187 188.332701 
L 197.474177 188.343293 
L 200.327993 188.757129 
L 203.181809 189.071147 
L 206.035625 189.325153 
L 208.889441 189.585562 
L 211.743257 189.928654 
L 214.597073 190.426039 
L 217.450889 191.137988 
L 217.747412 191.228364 
L 220.304706 192.007707 
L 223.158522 193.191765 
L 224.924188 194.124028 
L 226.012338 194.719424 
L 228.866154 196.670281 
L 229.300652 197.019691 
L 231.71997 199.057247 
L 232.589477 199.915354 
L 234.573786 202.002007 
L 235.270849 202.811017 
L 237.427602 205.596575 
L 237.509404 205.70668 
L 239.436553 208.602343 
L 240.281418 210.233651 
L 240.968985 211.498006 
L 242.163926 214.393669 
L 242.962763 217.289333 
L 243.135234 218.248138 
L 243.519018 220.184996 
L 243.903109 223.080659 
L 244.232383 225.976322 
L 244.629789 228.871985 
L 245.166869 231.767648 
L 245.854305 234.663311 
L 245.98905 235.124681 
L 246.714621 237.558974 
L 247.611497 240.454638 
L 248.431761 243.350301 
L 248.842866 245.164627 
L 249.094115 246.245964 
L 249.499842 249.141627 
L 249.528558 252.03729 
L 249.0842 254.932953 
L 248.842866 255.657653 
L 248.143942 257.828616 
L 246.722244 260.724279 
L 245.98905 261.924199 
L 245.031107 263.619943 
L 243.283575 266.515606 
L 243.135234 266.7682 
L 241.717132 269.411269 
L 240.281418 272.146219 
L 240.200053 272.306932 
L 238.70462 275.202595 
L 237.427602 277.358639 
L 236.953625 278.098258 
L 234.732398 280.993921 
L 234.573786 281.172618 
L 231.71997 283.855049 
L 231.674475 283.889584 
L 228.866154 285.870943 
L 227.222125 286.785248 
L 226.012338 287.453605 
L 223.158522 288.778164 
L 220.891196 289.680911 
L 220.304706 289.927572 
L 217.450889 291.016608 
L 214.597073 292.034064 
L 212.972014 292.576574 
L 211.743257 293.011023 
L 208.889441 293.93945 
L 206.035625 294.772364 
L 203.242497 295.472237 
L 203.181809 295.487293 
L 200.327993 296.109831 
L 197.474177 296.63137 
L 194.620361 297.056664 
L 191.766545 297.379702 
L 188.912729 297.582202 
L 186.058913 297.63593 
L 183.205096 297.505607 
L 180.35128 297.150966 
L 177.497464 296.527874 
L 174.643648 295.588941 
z
" style="fill:#c4d1e6;"/>
   </g>
   <g id="PathCollection_3">
    <path clip-path="url(#pf972197da9)" d="M 174.643648 295.588941 
L 177.497464 296.527874 
L 180.35128 297.150966 
L 183.205096 297.505607 
L 186.058913 297.63593 
L 188.912729 297.582202 
L 191.766545 297.379702 
L 194.620361 297.056664 
L 197.474177 296.63137 
L 200.327993 296.109831 
L 203.181809 295.487293 
L 203.242497 295.472237 
L 206.035625 294.772364 
L 208.889441 293.93945 
L 211.743257 293.011023 
L 212.972014 292.576574 
L 214.597073 292.034064 
L 217.450889 291.016608 
L 220.304706 289.927572 
L 220.891196 289.680911 
L 223.158522 288.778164 
L 226.012338 287.453605 
L 227.222125 286.785248 
L 228.866154 285.870943 
L 231.674475 283.889584 
L 231.71997 283.855049 
L 234.573786 281.172618 
L 234.732398 280.993921 
L 236.953625 278.098258 
L 237.427602 277.358639 
L 238.70462 275.202595 
L 240.200053 272.306932 
L 240.281418 272.146219 
L 241.717132 269.411269 
L 243.135234 266.7682 
L 243.283575 266.515606 
L 245.031107 263.619943 
L 245.98905 261.924199 
L 246.722244 260.724279 
L 248.143942 257.828616 
L 248.842866 255.657653 
L 249.0842 254.932953 
L 249.528558 252.03729 
L 249.499842 249.141627 
L 249.094115 246.245964 
L 248.842866 245.164627 
L 248.431761 243.350301 
L 247.611497 240.454638 
L 246.714621 237.558974 
L 245.98905 235.124681 
L 245.854305 234.663311 
L 245.166869 231.767648 
L 244.629789 228.871985 
L 244.232383 225.976322 
L 243.903109 223.080659 
L 243.519018 220.184996 
L 243.135234 218.248138 
L 242.962763 217.289333 
L 242.163926 214.393669 
L 240.968985 211.498006 
L 240.281418 210.233651 
L 239.436553 208.602343 
L 237.509404 205.70668 
L 237.427602 205.596575 
L 235.270849 202.811017 
L 234.573786 202.002007 
L 232.589477 199.915354 
L 231.71997 199.057247 
L 229.300652 197.019691 
L 228.866154 196.670281 
L 226.012338 194.719424 
L 224.924188 194.124028 
L 223.158522 193.191765 
L 220.304706 192.007707 
L 217.747412 191.228364 
L 217.450889 191.137988 
L 214.597073 190.426039 
L 211.743257 189.928654 
L 208.889441 189.585562 
L 206.035625 189.325153 
L 203.181809 189.071147 
L 200.327993 188.757129 
L 197.474177 188.343293 
L 197.418187 188.332701 
L 194.620361 187.695794 
L 191.766545 186.964896 
L 188.912729 186.233204 
L 186.058913 185.585131 
L 185.225629 185.437038 
L 183.205096 184.982642 
L 180.35128 184.582064 
L 177.497464 184.411551 
L 174.643648 184.41748 
L 171.789832 184.533364 
L 168.936016 184.70454 
L 166.0822 184.908871 
L 163.228384 185.168653 
L 161.194496 185.437038 
L 160.374568 185.53818 
L 157.520752 186.08984 
L 154.666936 186.992125 
L 151.911589 188.332701 
L 151.81312 188.379582 
L 148.959303 190.113462 
L 147.482037 191.228364 
L 146.105487 192.16087 
L 143.510755 194.124028 
L 143.251671 194.29273 
L 140.397855 196.197834 
L 139.187819 197.019691 
L 137.544039 198.026071 
L 134.690223 199.850348 
L 134.58674 199.915354 
L 131.836407 201.679394 
L 130.255367 202.811017 
L 128.982591 203.86311 
L 127.000889 205.70668 
L 126.128775 206.788772 
L 124.78048 208.602343 
L 123.41584 211.498006 
L 123.274959 212.061317 
L 122.666599 214.393669 
L 122.426347 217.289333 
L 122.521481 220.184996 
L 122.739853 223.080659 
L 122.867164 225.976322 
L 122.763659 228.871985 
L 122.436908 231.767648 
L 122.017061 234.663311 
L 121.658005 237.558974 
L 121.472172 240.454638 
L 121.530238 243.350301 
L 121.887845 246.245964 
L 122.610428 249.141627 
L 123.274959 250.841717 
L 123.718565 252.03729 
L 125.217108 254.932953 
L 126.128775 256.305318 
L 127.136542 257.828616 
L 128.982591 260.191571 
L 129.407148 260.724279 
L 131.836407 263.527837 
L 131.920253 263.619943 
L 134.63619 266.515606 
L 134.690223 266.573262 
L 137.544039 269.370956 
L 137.58878 269.411269 
L 140.397855 271.985543 
L 140.774102 272.306932 
L 143.251671 274.465102 
L 144.128115 275.202595 
L 146.105487 276.868617 
L 147.569693 278.098258 
L 148.959303 279.228435 
L 151.116276 280.993921 
L 151.81312 281.531323 
L 154.666936 283.739307 
L 154.858955 283.889584 
L 157.520752 285.851332 
L 158.845119 286.785248 
L 160.374568 287.833747 
L 163.228384 289.657328 
L 163.266924 289.680911 
L 166.0822 291.437835 
L 168.170554 292.576574 
L 168.936016 293.018791 
L 171.789832 294.451385 
L 174.369437 295.472237 
z
M 177.462043 289.680911 
L 174.643648 288.738018 
L 171.789832 287.472881 
L 170.497862 286.785248 
L 168.936016 285.928813 
L 166.0822 284.141809 
L 165.710454 283.889584 
L 163.228384 282.086379 
L 161.815731 280.993921 
L 160.374568 279.781488 
L 158.427378 278.098258 
L 157.520752 277.262679 
L 155.279578 275.202595 
L 154.666936 274.630494 
L 152.124834 272.306932 
L 151.81312 272.031064 
L 148.959303 269.560827 
L 148.784259 269.411269 
L 146.105487 267.221867 
L 145.261501 266.515606 
L 143.251671 264.884517 
L 141.786748 263.619943 
L 140.397855 262.421622 
L 138.589904 260.724279 
L 137.544039 259.702169 
L 135.783112 257.828616 
L 134.690223 256.547821 
L 133.403745 254.932953 
L 131.836407 252.568557 
L 131.498514 252.03729 
L 130.075174 249.141627 
L 129.183908 246.245964 
L 128.982591 244.823246 
L 128.764563 243.350301 
L 128.789125 240.454638 
L 128.982591 239.043025 
L 129.172329 237.558974 
L 129.763361 234.663311 
L 130.424373 231.767648 
L 130.992614 228.871985 
L 131.352565 225.976322 
L 131.497602 223.080659 
L 131.551615 220.184996 
L 131.738078 217.289333 
L 131.836407 216.782842 
L 132.282296 214.393669 
L 133.468378 211.498006 
L 134.690223 209.762294 
L 135.546322 208.602343 
L 137.544039 206.679564 
L 138.646887 205.70668 
L 140.397855 204.404193 
L 142.776469 202.811017 
L 143.251671 202.503588 
L 146.105487 200.773069 
L 147.672632 199.915354 
L 148.959303 199.153049 
L 151.81312 197.621773 
L 153.068995 197.019691 
L 154.666936 196.17496 
L 157.520752 194.905946 
L 159.701886 194.124028 
L 160.374568 193.871169 
L 163.228384 193.013191 
L 166.0822 192.37622 
L 168.936016 191.904802 
L 171.789832 191.568137 
L 174.643648 191.360806 
L 177.497464 191.296192 
L 180.35128 191.394506 
L 183.205096 191.668652 
L 186.058913 192.112607 
L 188.912729 192.696842 
L 191.766545 193.372736 
L 194.620361 194.084446 
L 194.788355 194.124028 
L 197.474177 194.724868 
L 200.327993 195.321955 
L 203.181809 195.889229 
L 206.035625 196.472014 
L 208.384949 197.019691 
L 208.889441 197.135556 
L 211.743257 197.913736 
L 214.597073 198.932578 
L 216.71699 199.915354 
L 217.450889 200.262215 
L 220.304706 201.905657 
L 221.600878 202.811017 
L 223.158522 203.989563 
L 225.107518 205.70668 
L 226.012338 206.632116 
L 227.763445 208.602343 
L 228.866154 210.164573 
L 229.769483 211.498006 
L 231.251257 214.393669 
L 231.71997 215.625014 
L 232.373545 217.289333 
L 233.24222 220.184996 
L 233.938542 223.080659 
L 234.569567 225.976322 
L 234.573786 225.994346 
L 235.319854 228.871985 
L 236.119312 231.767648 
L 236.97542 234.663311 
L 237.427602 236.106778 
L 237.941659 237.558974 
L 238.949809 240.454638 
L 239.837753 243.350301 
L 240.281418 245.241406 
L 240.542965 246.245964 
L 240.949135 249.141627 
L 240.915846 252.03729 
L 240.391749 254.932953 
L 240.281418 255.25734 
L 239.453554 257.828616 
L 238.172161 260.724279 
L 237.427602 262.183909 
L 236.72361 263.619943 
L 235.220414 266.515606 
L 234.573786 267.7245 
L 233.643416 269.411269 
L 231.870278 272.306932 
L 231.71997 272.525257 
L 229.567123 275.202595 
L 228.866154 275.932705 
L 226.211539 278.098258 
L 226.012338 278.241596 
L 223.158522 279.849866 
L 220.337073 280.993921 
L 220.304706 281.007019 
L 217.450889 281.937942 
L 214.597073 282.713883 
L 211.743257 283.43325 
L 210.009116 283.889584 
L 208.889441 284.217855 
L 206.035625 285.148572 
L 203.181809 286.134454 
L 201.353774 286.785248 
L 200.327993 287.172562 
L 197.474177 288.225485 
L 194.620361 289.132904 
L 192.494999 289.680911 
L 191.766545 289.87555 
L 188.912729 290.431475 
L 186.058913 290.712795 
L 183.205096 290.696826 
L 180.35128 290.362318 
L 177.497464 289.693054 
z
" style="fill:#9cb1d4;"/>
   </g>
   <g id="PathCollection_4">
    <path clip-path="url(#pf972197da9)" d="M 177.497464 289.693054 
L 180.35128 290.362318 
L 183.205096 290.696826 
L 186.058913 290.712795 
L 188.912729 290.431475 
L 191.766545 289.87555 
L 192.494999 289.680911 
L 194.620361 289.132904 
L 197.474177 288.225485 
L 200.327993 287.172562 
L 201.353774 286.785248 
L 203.181809 286.134454 
L 206.035625 285.148572 
L 208.889441 284.217855 
L 210.009116 283.889584 
L 211.743257 283.43325 
L 214.597073 282.713883 
L 217.450889 281.937942 
L 220.304706 281.007019 
L 220.337073 280.993921 
L 223.158522 279.849866 
L 226.012338 278.241596 
L 226.211539 278.098258 
L 228.866154 275.932705 
L 229.567123 275.202595 
L 231.71997 272.525257 
L 231.870278 272.306932 
L 233.643416 269.411269 
L 234.573786 267.7245 
L 235.220414 266.515606 
L 236.72361 263.619943 
L 237.427602 262.183909 
L 238.172161 260.724279 
L 239.453554 257.828616 
L 240.281418 255.25734 
L 240.391749 254.932953 
L 240.915846 252.03729 
L 240.949135 249.141627 
L 240.542965 246.245964 
L 240.281418 245.241406 
L 239.837753 243.350301 
L 238.949809 240.454638 
L 237.941659 237.558974 
L 237.427602 236.106778 
L 236.97542 234.663311 
L 236.119312 231.767648 
L 235.319854 228.871985 
L 234.573786 225.994346 
L 234.569567 225.976322 
L 233.938542 223.080659 
L 233.24222 220.184996 
L 232.373545 217.289333 
L 231.71997 215.625014 
L 231.251257 214.393669 
L 229.769483 211.498006 
L 228.866154 210.164573 
L 227.763445 208.602343 
L 226.012338 206.632116 
L 225.107518 205.70668 
L 223.158522 203.989563 
L 221.600878 202.811017 
L 220.304706 201.905657 
L 217.450889 200.262215 
L 216.71699 199.915354 
L 214.597073 198.932578 
L 211.743257 197.913736 
L 208.889441 197.135556 
L 208.384949 197.019691 
L 206.035625 196.472014 
L 203.181809 195.889229 
L 200.327993 195.321955 
L 197.474177 194.724868 
L 194.788355 194.124028 
L 194.620361 194.084446 
L 191.766545 193.372736 
L 188.912729 192.696842 
L 186.058913 192.112607 
L 183.205096 191.668652 
L 180.35128 191.394506 
L 177.497464 191.296192 
L 174.643648 191.360806 
L 171.789832 191.568137 
L 168.936016 191.904802 
L 166.0822 192.37622 
L 163.228384 193.013191 
L 160.374568 193.871169 
L 159.701886 194.124028 
L 157.520752 194.905946 
L 154.666936 196.17496 
L 153.068995 197.019691 
L 151.81312 197.621773 
L 148.959303 199.153049 
L 147.672632 199.915354 
L 146.105487 200.773069 
L 143.251671 202.503588 
L 142.776469 202.811017 
L 140.397855 204.404193 
L 138.646887 205.70668 
L 137.544039 206.679564 
L 135.546322 208.602343 
L 134.690223 209.762294 
L 133.468378 211.498006 
L 132.282296 214.393669 
L 131.836407 216.782842 
L 131.738078 217.289333 
L 131.551615 220.184996 
L 131.497602 223.080659 
L 131.352565 225.976322 
L 130.992614 228.871985 
L 130.424373 231.767648 
L 129.763361 234.663311 
L 129.172329 237.558974 
L 128.982591 239.043025 
L 128.789125 240.454638 
L 128.764563 243.350301 
L 128.982591 244.823246 
L 129.183908 246.245964 
L 130.075174 249.141627 
L 131.498514 252.03729 
L 131.836407 252.568557 
L 133.403745 254.932953 
L 134.690223 256.547821 
L 135.783112 257.828616 
L 137.544039 259.702169 
L 138.589904 260.724279 
L 140.397855 262.421622 
L 141.786748 263.619943 
L 143.251671 264.884517 
L 145.261501 266.515606 
L 146.105487 267.221867 
L 148.784259 269.411269 
L 148.959303 269.560827 
L 151.81312 272.031064 
L 152.124834 272.306932 
L 154.666936 274.630494 
L 155.279578 275.202595 
L 157.520752 277.262679 
L 158.427378 278.098258 
L 160.374568 279.781488 
L 161.815731 280.993921 
L 163.228384 282.086379 
L 165.710454 283.889584 
L 166.0822 284.141809 
L 168.936016 285.928813 
L 170.497862 286.785248 
L 171.789832 287.472881 
L 174.643648 288.738018 
L 177.462043 289.680911 
z
M 178.136948 283.889584 
L 177.497464 283.704668 
L 174.643648 282.501264 
L 171.88805 280.993921 
L 171.789832 280.932808 
L 168.936016 278.907826 
L 167.892485 278.098258 
L 166.0822 276.513807 
L 164.629162 275.202595 
L 163.228384 273.844762 
L 161.627112 272.306932 
L 160.374568 271.110616 
L 158.540182 269.411269 
L 157.520752 268.528394 
L 155.122463 266.515606 
L 154.666936 266.165191 
L 151.81312 263.982296 
L 151.344292 263.619943 
L 148.959303 261.868244 
L 147.472789 260.724279 
L 146.105487 259.681539 
L 143.868914 257.828616 
L 143.251671 257.294198 
L 140.792211 254.932953 
L 140.397855 254.50808 
L 138.33569 252.03729 
L 137.544039 250.848653 
L 136.506481 249.141627 
L 135.315365 246.245964 
L 134.728839 243.350301 
L 134.690223 240.704129 
L 134.686658 240.454638 
L 134.690223 240.428023 
L 135.065153 237.558974 
L 135.690734 234.663311 
L 136.376811 231.767648 
L 136.971965 228.871985 
L 137.403769 225.976322 
L 137.544039 224.600256 
L 137.692748 223.080659 
L 137.975336 220.184996 
L 138.471278 217.289333 
L 139.45261 214.393669 
L 140.397855 212.776402 
L 141.215792 211.498006 
L 143.251671 209.344053 
L 144.061942 208.602343 
L 146.105487 207.084804 
L 148.290852 205.70668 
L 148.959303 205.313654 
L 151.81312 203.824199 
L 154.006195 202.811017 
L 154.666936 202.494553 
L 157.520752 201.249454 
L 160.374568 200.118079 
L 160.930943 199.915354 
L 163.228384 199.073203 
L 166.0822 198.186718 
L 168.936016 197.469262 
L 171.282678 197.019691 
L 171.789832 196.924367 
L 174.643648 196.562275 
L 177.497464 196.400706 
L 180.35128 196.448952 
L 183.205096 196.709554 
L 185.135269 197.019691 
L 186.058913 197.168316 
L 188.912729 197.787632 
L 191.766545 198.517554 
L 194.620361 199.30122 
L 196.852871 199.915354 
L 197.474177 200.0954 
L 200.327993 200.874747 
L 203.181809 201.627468 
L 206.035625 202.402782 
L 207.386173 202.811017 
L 208.889441 203.290159 
L 211.743257 204.373222 
L 214.517065 205.70668 
L 214.597073 205.748852 
L 217.450889 207.586107 
L 218.73946 208.602343 
L 220.304706 210.047281 
L 221.647448 211.498006 
L 223.158522 213.519032 
L 223.744492 214.393669 
L 225.294809 217.289333 
L 226.012338 218.956111 
L 226.511418 220.184996 
L 227.524871 223.080659 
L 228.422679 225.976322 
L 228.866154 227.454411 
L 229.295529 228.871985 
L 230.176253 231.767648 
L 231.043327 234.663311 
L 231.71997 236.986119 
L 231.90163 237.558974 
L 232.754559 240.454638 
L 233.463065 243.350301 
L 233.951162 246.245964 
L 234.1334 249.141627 
L 233.931191 252.03729 
L 233.304183 254.932953 
L 232.281133 257.828616 
L 231.71997 259.075535 
L 230.966787 260.724279 
L 229.434222 263.619943 
L 228.866154 264.592093 
L 227.644854 266.515606 
L 226.012338 268.714037 
L 225.401611 269.411269 
L 223.158522 271.534044 
L 222.099242 272.306932 
L 220.304706 273.424698 
L 217.450889 274.745669 
L 216.200082 275.202595 
L 214.597073 275.759174 
L 211.743257 276.642535 
L 208.889441 277.504928 
L 207.079495 278.098258 
L 206.035625 278.457108 
L 203.181809 279.547929 
L 200.327993 280.68813 
L 199.575028 280.993921 
L 197.474177 281.882092 
L 194.620361 282.97115 
L 191.766545 283.866023 
L 191.663467 283.889584 
L 188.912729 284.540061 
L 186.058913 284.88813 
L 183.205096 284.879077 
L 180.35128 284.489265 
z
" style="fill:#7593c3;"/>
   </g>
   <g id="PathCollection_5">
    <path clip-path="url(#pf972197da9)" d="M 180.35128 284.489265 
L 183.205096 284.879077 
L 186.058913 284.88813 
L 188.912729 284.540061 
L 191.663467 283.889584 
L 191.766545 283.866023 
L 194.620361 282.97115 
L 197.474177 281.882092 
L 199.575028 280.993921 
L 200.327993 280.68813 
L 203.181809 279.547929 
L 206.035625 278.457108 
L 207.079495 278.098258 
L 208.889441 277.504928 
L 211.743257 276.642535 
L 214.597073 275.759174 
L 216.200082 275.202595 
L 217.450889 274.745669 
L 220.304706 273.424698 
L 222.099242 272.306932 
L 223.158522 271.534044 
L 225.401611 269.411269 
L 226.012338 268.714037 
L 227.644854 266.515606 
L 228.866154 264.592093 
L 229.434222 263.619943 
L 230.966787 260.724279 
L 231.71997 259.075535 
L 232.281133 257.828616 
L 233.304183 254.932953 
L 233.931191 252.03729 
L 234.1334 249.141627 
L 233.951162 246.245964 
L 233.463065 243.350301 
L 232.754559 240.454638 
L 231.90163 237.558974 
L 231.71997 236.986119 
L 231.043327 234.663311 
L 230.176253 231.767648 
L 229.295529 228.871985 
L 228.866154 227.454411 
L 228.422679 225.976322 
L 227.524871 223.080659 
L 226.511418 220.184996 
L 226.012338 218.956111 
L 225.294809 217.289333 
L 223.744492 214.393669 
L 223.158522 213.519032 
L 221.647448 211.498006 
L 220.304706 210.047281 
L 218.73946 208.602343 
L 217.450889 207.586107 
L 214.597073 205.748852 
L 214.517065 205.70668 
L 211.743257 204.373222 
L 208.889441 203.290159 
L 207.386173 202.811017 
L 206.035625 202.402782 
L 203.181809 201.627468 
L 200.327993 200.874747 
L 197.474177 200.0954 
L 196.852871 199.915354 
L 194.620361 199.30122 
L 191.766545 198.517554 
L 188.912729 197.787632 
L 186.058913 197.168316 
L 185.135269 197.019691 
L 183.205096 196.709554 
L 180.35128 196.448952 
L 177.497464 196.400706 
L 174.643648 196.562275 
L 171.789832 196.924367 
L 171.282678 197.019691 
L 168.936016 197.469262 
L 166.0822 198.186718 
L 163.228384 199.073203 
L 160.930943 199.915354 
L 160.374568 200.118079 
L 157.520752 201.249454 
L 154.666936 202.494553 
L 154.006195 202.811017 
L 151.81312 203.824199 
L 148.959303 205.313654 
L 148.290852 205.70668 
L 146.105487 207.084804 
L 144.061942 208.602343 
L 143.251671 209.344053 
L 141.215792 211.498006 
L 140.397855 212.776402 
L 139.45261 214.393669 
L 138.471278 217.289333 
L 137.975336 220.184996 
L 137.692748 223.080659 
L 137.544039 224.600256 
L 137.403769 225.976322 
L 136.971965 228.871985 
L 136.376811 231.767648 
L 135.690734 234.663311 
L 135.065153 237.558974 
L 134.690223 240.428023 
L 134.686658 240.454638 
L 134.690223 240.704129 
L 134.728839 243.350301 
L 135.315365 246.245964 
L 136.506481 249.141627 
L 137.544039 250.848653 
L 138.33569 252.03729 
L 140.397855 254.50808 
L 140.792211 254.932953 
L 143.251671 257.294198 
L 143.868914 257.828616 
L 146.105487 259.681539 
L 147.472789 260.724279 
L 148.959303 261.868244 
L 151.344292 263.619943 
L 151.81312 263.982296 
L 154.666936 266.165191 
L 155.122463 266.515606 
L 157.520752 268.528394 
L 158.540182 269.411269 
L 160.374568 271.110616 
L 161.627112 272.306932 
L 163.228384 273.844762 
L 164.629162 275.202595 
L 166.0822 276.513807 
L 167.892485 278.098258 
L 168.936016 278.907826 
L 171.789832 280.932808 
L 171.88805 280.993921 
L 174.643648 282.501264 
L 177.497464 283.704668 
L 178.136948 283.889584 
z
M 179.409199 278.098258 
L 177.497464 277.194898 
L 174.643648 275.338669 
L 174.464785 275.202595 
L 171.789832 272.814397 
L 171.25631 272.306932 
L 168.936016 269.900099 
L 168.455973 269.411269 
L 166.0822 267.033471 
L 165.530878 266.515606 
L 163.228384 264.536038 
L 162.079375 263.619943 
L 160.374568 262.393965 
L 157.928173 260.724279 
L 157.520752 260.4657 
L 154.666936 258.631637 
L 153.459952 257.828616 
L 151.81312 256.736585 
L 149.294421 254.932953 
L 148.959303 254.677107 
L 146.105487 252.241574 
L 145.892443 252.03729 
L 143.351625 249.141627 
L 143.251671 248.989043 
L 141.691094 246.245964 
L 140.758739 243.350301 
L 140.493682 240.454638 
L 140.728078 237.558974 
L 141.230063 234.663311 
L 141.790481 231.767648 
L 142.284292 228.871985 
L 142.687938 225.976322 
L 143.071781 223.080659 
L 143.251671 222.044002 
L 143.596654 220.184996 
L 144.500272 217.289333 
L 146.080563 214.393669 
L 146.105487 214.36246 
L 148.872117 211.498006 
L 148.959303 211.4292 
L 151.81312 209.559024 
L 153.629763 208.602343 
L 154.666936 208.100195 
L 157.520752 206.900767 
L 160.374568 205.788903 
L 160.596006 205.70668 
L 163.228384 204.74602 
L 166.0822 203.749487 
L 168.936016 202.828818 
L 169.001312 202.811017 
L 171.789832 202.121616 
L 174.643648 201.625282 
L 177.497464 201.372177 
L 180.35128 201.381728 
L 183.205096 201.653895 
L 186.058913 202.16553 
L 188.672995 202.811017 
L 188.912729 202.87706 
L 191.766545 203.793117 
L 194.620361 204.758007 
L 197.4685 205.70668 
L 197.474177 205.708777 
L 200.327993 206.69917 
L 203.181809 207.640221 
L 206.035625 208.599281 
L 206.043821 208.602343 
L 208.889441 209.789016 
L 211.743257 211.243199 
L 212.145679 211.498006 
L 214.597073 213.290846 
L 215.796891 214.393669 
L 217.450889 216.172623 
L 218.30129 217.289333 
L 220.190938 220.184996 
L 220.304706 220.376053 
L 221.671037 223.080659 
L 222.977761 225.976322 
L 223.158522 226.395532 
L 224.12059 228.871985 
L 225.164554 231.767648 
L 226.012338 234.323777 
L 226.122525 234.663311 
L 226.979938 237.558974 
L 227.694507 240.454638 
L 228.210366 243.350301 
L 228.455158 246.245964 
L 228.351645 249.141627 
L 227.841415 252.03729 
L 226.913557 254.932953 
L 226.012338 256.971599 
L 225.605784 257.828616 
L 223.954792 260.724279 
L 223.158522 261.921184 
L 221.888637 263.619943 
L 220.304706 265.38724 
L 219.093178 266.515606 
L 217.450889 267.776335 
L 214.745255 269.411269 
L 214.597073 269.487816 
L 211.743257 270.769924 
L 208.889441 271.895585 
L 207.842474 272.306932 
L 206.035625 272.986016 
L 203.181809 274.112487 
L 200.561481 275.202595 
L 200.327993 275.300137 
L 197.474177 276.49663 
L 194.620361 277.601135 
L 193.066374 278.098258 
L 191.766545 278.516266 
L 188.912729 279.12859 
L 186.058913 279.366231 
L 183.205096 279.164908 
L 180.35128 278.475599 
z
" style="fill:#5174ad;"/>
   </g>
   <g id="PathCollection_6">
    <path clip-path="url(#pf972197da9)" d="M 180.35128 278.475599 
L 183.205096 279.164908 
L 186.058913 279.366231 
L 188.912729 279.12859 
L 191.766545 278.516266 
L 193.066374 278.098258 
L 194.620361 277.601135 
L 197.474177 276.49663 
L 200.327993 275.300137 
L 200.561481 275.202595 
L 203.181809 274.112487 
L 206.035625 272.986016 
L 207.842474 272.306932 
L 208.889441 271.895585 
L 211.743257 270.769924 
L 214.597073 269.487816 
L 214.745255 269.411269 
L 217.450889 267.776335 
L 219.093178 266.515606 
L 220.304706 265.38724 
L 221.888637 263.619943 
L 223.158522 261.921184 
L 223.954792 260.724279 
L 225.605784 257.828616 
L 226.012338 256.971599 
L 226.913557 254.932953 
L 227.841415 252.03729 
L 228.351645 249.141627 
L 228.455158 246.245964 
L 228.210366 243.350301 
L 227.694507 240.454638 
L 226.979938 237.558974 
L 226.122525 234.663311 
L 226.012338 234.323777 
L 225.164554 231.767648 
L 224.12059 228.871985 
L 223.158522 226.395532 
L 222.977761 225.976322 
L 221.671037 223.080659 
L 220.304706 220.376053 
L 220.190938 220.184996 
L 218.30129 217.289333 
L 217.450889 216.172623 
L 215.796891 214.393669 
L 214.597073 213.290846 
L 212.145679 211.498006 
L 211.743257 211.243199 
L 208.889441 209.789016 
L 206.043821 208.602343 
L 206.035625 208.599281 
L 203.181809 207.640221 
L 200.327993 206.69917 
L 197.474177 205.708777 
L 197.4685 205.70668 
L 194.620361 204.758007 
L 191.766545 203.793117 
L 188.912729 202.87706 
L 188.672995 202.811017 
L 186.058913 202.16553 
L 183.205096 201.653895 
L 180.35128 201.381728 
L 177.497464 201.372177 
L 174.643648 201.625282 
L 171.789832 202.121616 
L 169.001312 202.811017 
L 168.936016 202.828818 
L 166.0822 203.749487 
L 163.228384 204.74602 
L 160.596006 205.70668 
L 160.374568 205.788903 
L 157.520752 206.900767 
L 154.666936 208.100195 
L 153.629763 208.602343 
L 151.81312 209.559024 
L 148.959303 211.4292 
L 148.872117 211.498006 
L 146.105487 214.36246 
L 146.080563 214.393669 
L 144.500272 217.289333 
L 143.596654 220.184996 
L 143.251671 222.044002 
L 143.071781 223.080659 
L 142.687938 225.976322 
L 142.284292 228.871985 
L 141.790481 231.767648 
L 141.230063 234.663311 
L 140.728078 237.558974 
L 140.493682 240.454638 
L 140.758739 243.350301 
L 141.691094 246.245964 
L 143.251671 248.989043 
L 143.351625 249.141627 
L 145.892443 252.03729 
L 146.105487 252.241574 
L 148.959303 254.677107 
L 149.294421 254.932953 
L 151.81312 256.736585 
L 153.459952 257.828616 
L 154.666936 258.631637 
L 157.520752 260.4657 
L 157.928173 260.724279 
L 160.374568 262.393965 
L 162.079375 263.619943 
L 163.228384 264.536038 
L 165.530878 266.515606 
L 166.0822 267.033471 
L 168.455973 269.411269 
L 168.936016 269.900099 
L 171.25631 272.306932 
L 171.789832 272.814397 
L 174.464785 275.202595 
L 174.643648 275.338669 
L 177.497464 277.194898 
L 179.409199 278.098258 
z
M 182.443468 272.306932 
L 180.35128 271.137821 
L 178.175978 269.411269 
L 177.497464 268.787902 
L 175.321665 266.515606 
L 174.643648 265.773921 
L 172.65797 263.619943 
L 171.789832 262.718854 
L 169.671841 260.724279 
L 168.936016 260.08443 
L 166.0822 257.924888 
L 165.939634 257.828616 
L 163.228384 256.092362 
L 161.257718 254.932953 
L 160.374568 254.408398 
L 157.520752 252.707795 
L 156.450004 252.03729 
L 154.666936 250.800469 
L 152.509997 249.141627 
L 151.81312 248.486424 
L 149.76179 246.245964 
L 148.959303 244.985109 
L 148.092784 243.350301 
L 147.288164 240.454638 
L 147.071517 237.558974 
L 147.194125 234.663311 
L 147.456141 231.767648 
L 147.764897 228.871985 
L 148.132489 225.976322 
L 148.660053 223.080659 
L 148.959303 222.051488 
L 149.620871 220.184996 
L 151.344551 217.289333 
L 151.81312 216.760793 
L 154.661175 214.393669 
L 154.666936 214.389955 
L 157.520752 212.98568 
L 160.374568 211.878594 
L 161.514056 211.498006 
L 163.228384 210.950201 
L 166.0822 210.058529 
L 168.936016 209.137252 
L 170.670614 208.602343 
L 171.789832 208.287355 
L 174.643648 207.654901 
L 177.497464 207.286468 
L 180.35128 207.252258 
L 183.205096 207.566153 
L 186.058913 208.189111 
L 187.426577 208.602343 
L 188.912729 209.106175 
L 191.766545 210.223278 
L 194.620361 211.379626 
L 194.917421 211.498006 
L 197.474177 212.602278 
L 200.327993 213.782897 
L 201.831774 214.393669 
L 203.181809 214.986317 
L 206.035625 216.324549 
L 207.793723 217.289333 
L 208.889441 217.932161 
L 211.743257 220.048277 
L 211.887554 220.184996 
L 214.597073 222.906876 
L 214.732115 223.080659 
L 216.883487 225.976322 
L 217.450889 226.790988 
L 218.625754 228.871985 
L 220.095656 231.767648 
L 220.304706 232.236479 
L 221.254828 234.663311 
L 222.184047 237.558974 
L 222.862457 240.454638 
L 223.158522 242.818977 
L 223.223889 243.350301 
L 223.202816 246.245964 
L 223.158522 246.549732 
L 222.733809 249.141627 
L 221.795833 252.03729 
L 220.428806 254.932953 
L 220.304706 255.149235 
L 218.579658 257.828616 
L 217.450889 259.310617 
L 216.21355 260.724279 
L 214.597073 262.278129 
L 212.943609 263.619943 
L 211.743257 264.432573 
L 208.889441 266.086695 
L 208.072301 266.515606 
L 206.035625 267.454922 
L 203.181809 268.730341 
L 201.660084 269.411269 
L 200.327993 269.970948 
L 197.474177 271.144515 
L 194.620361 272.227114 
L 194.341569 272.306932 
L 191.766545 273.019323 
L 188.912729 273.439585 
L 186.058913 273.358904 
L 183.205096 272.657639 
z
" style="fill:#3c5a8a;"/>
   </g>
   <g id="PathCollection_7">
    <path clip-path="url(#pf972197da9)" d="M 183.205096 272.657639 
L 186.058913 273.358904 
L 188.912729 273.439585 
L 191.766545 273.019323 
L 194.341569 272.306932 
L 194.620361 272.227114 
L 197.474177 271.144515 
L 200.327993 269.970948 
L 201.660084 269.411269 
L 203.181809 268.730341 
L 206.035625 267.454922 
L 208.072301 266.515606 
L 208.889441 266.086695 
L 211.743257 264.432573 
L 212.943609 263.619943 
L 214.597073 262.278129 
L 216.21355 260.724279 
L 217.450889 259.310617 
L 218.579658 257.828616 
L 220.304706 255.149235 
L 220.428806 254.932953 
L 221.795833 252.03729 
L 222.733809 249.141627 
L 223.158522 246.549732 
L 223.202816 246.245964 
L 223.223889 243.350301 
L 223.158522 242.818977 
L 222.862457 240.454638 
L 222.184047 237.558974 
L 221.254828 234.663311 
L 220.304706 232.236479 
L 220.095656 231.767648 
L 218.625754 228.871985 
L 217.450889 226.790988 
L 216.883487 225.976322 
L 214.732115 223.080659 
L 214.597073 222.906876 
L 211.887554 220.184996 
L 211.743257 220.048277 
L 208.889441 217.932161 
L 207.793723 217.289333 
L 206.035625 216.324549 
L 203.181809 214.986317 
L 201.831774 214.393669 
L 200.327993 213.782897 
L 197.474177 212.602278 
L 194.917421 211.498006 
L 194.620361 211.379626 
L 191.766545 210.223278 
L 188.912729 209.106175 
L 187.426577 208.602343 
L 186.058913 208.189111 
L 183.205096 207.566153 
L 180.35128 207.252258 
L 177.497464 207.286468 
L 174.643648 207.654901 
L 171.789832 208.287355 
L 170.670614 208.602343 
L 168.936016 209.137252 
L 166.0822 210.058529 
L 163.228384 210.950201 
L 161.514056 211.498006 
L 160.374568 211.878594 
L 157.520752 212.98568 
L 154.666936 214.389955 
L 154.661175 214.393669 
L 151.81312 216.760793 
L 151.344551 217.289333 
L 149.620871 220.184996 
L 148.959303 222.051488 
L 148.660053 223.080659 
L 148.132489 225.976322 
L 147.764897 228.871985 
L 147.456141 231.767648 
L 147.194125 234.663311 
L 147.071517 237.558974 
L 147.288164 240.454638 
L 148.092784 243.350301 
L 148.959303 244.985109 
L 149.76179 246.245964 
L 151.81312 248.486424 
L 152.509997 249.141627 
L 154.666936 250.800469 
L 156.450004 252.03729 
L 157.520752 252.707795 
L 160.374568 254.408398 
L 161.257718 254.932953 
L 163.228384 256.092362 
L 165.939634 257.828616 
L 166.0822 257.924888 
L 168.936016 260.08443 
L 169.671841 260.724279 
L 171.789832 262.718854 
L 172.65797 263.619943 
L 174.643648 265.773921 
L 175.321665 266.515606 
L 177.497464 268.787902 
L 178.175978 269.411269 
L 180.35128 271.137821 
L 182.443468 272.306932 
z
M 188.866916 266.515606 
L 186.058913 265.749029 
L 183.205096 264.07709 
L 182.661312 263.619943 
L 180.35128 261.486505 
L 179.632395 260.724279 
L 177.497464 258.446574 
L 176.913096 257.828616 
L 174.643648 255.538158 
L 173.978737 254.932953 
L 171.789832 253.035952 
L 170.461354 252.03729 
L 168.936016 250.900291 
L 166.299075 249.141627 
L 166.0822 248.988089 
L 163.228384 247.020887 
L 162.128187 246.245964 
L 160.374568 244.768636 
L 158.857958 243.350301 
L 157.520752 241.686537 
L 156.679861 240.454638 
L 155.378204 237.558974 
L 154.666936 234.705156 
L 154.658457 234.663311 
L 154.410892 231.767648 
L 154.50428 228.871985 
L 154.666936 227.893963 
L 155.071168 225.976322 
L 156.430599 223.080659 
L 157.520752 221.747749 
L 159.515006 220.184996 
L 160.374568 219.702811 
L 163.228384 218.630288 
L 166.0822 217.857862 
L 168.566968 217.289333 
L 168.936016 217.20741 
L 171.789832 216.59648 
L 174.643648 216.024909 
L 177.497464 215.609585 
L 180.35128 215.480651 
L 183.205096 215.714763 
L 186.058913 216.309903 
L 188.912729 217.203029 
L 189.132653 217.289333 
L 191.766545 218.324645 
L 194.620361 219.579168 
L 195.939779 220.184996 
L 197.474177 220.900764 
L 200.327993 222.246777 
L 202.043927 223.080659 
L 203.181809 223.635927 
L 206.035625 225.158934 
L 207.314655 225.976322 
L 208.889441 227.004407 
L 211.112212 228.871985 
L 211.743257 229.447778 
L 213.690475 231.767648 
L 214.597073 233.053504 
L 215.501284 234.663311 
L 216.732431 237.558974 
L 217.450889 240.304654 
L 217.48511 240.454638 
L 217.670606 243.350301 
L 217.450889 245.286831 
L 217.319662 246.245964 
L 216.332395 249.141627 
L 214.818089 252.03729 
L 214.597073 252.376108 
L 212.646828 254.932953 
L 211.743257 255.954857 
L 209.808509 257.828616 
L 208.889441 258.600043 
L 206.035625 260.672168 
L 205.95418 260.724279 
L 203.181809 262.265923 
L 200.554945 263.619943 
L 200.327993 263.723877 
L 197.474177 264.891919 
L 194.620361 265.876917 
L 191.766545 266.500308 
L 190.107308 266.515606 
L 188.912729 266.525884 
z
" style="fill:#2b4063;"/>
   </g>
   <g id="PathCollection_8">
    <path clip-path="url(#pf972197da9)" d="M 188.912729 266.525884 
L 190.107308 266.515606 
L 191.766545 266.500308 
L 194.620361 265.876917 
L 197.474177 264.891919 
L 200.327993 263.723877 
L 200.554945 263.619943 
L 203.181809 262.265923 
L 205.95418 260.724279 
L 206.035625 260.672168 
L 208.889441 258.600043 
L 209.808509 257.828616 
L 211.743257 255.954857 
L 212.646828 254.932953 
L 214.597073 252.376108 
L 214.818089 252.03729 
L 216.332395 249.141627 
L 217.319662 246.245964 
L 217.450889 245.286831 
L 217.670606 243.350301 
L 217.48511 240.454638 
L 217.450889 240.304654 
L 216.732431 237.558974 
L 215.501284 234.663311 
L 214.597073 233.053504 
L 213.690475 231.767648 
L 211.743257 229.447778 
L 211.112212 228.871985 
L 208.889441 227.004407 
L 207.314655 225.976322 
L 206.035625 225.158934 
L 203.181809 223.635927 
L 202.043927 223.080659 
L 200.327993 222.246777 
L 197.474177 220.900764 
L 195.939779 220.184996 
L 194.620361 219.579168 
L 191.766545 218.324645 
L 189.132653 217.289333 
L 188.912729 217.203029 
L 186.058913 216.309903 
L 183.205096 215.714763 
L 180.35128 215.480651 
L 177.497464 215.609585 
L 174.643648 216.024909 
L 171.789832 216.59648 
L 168.936016 217.20741 
L 168.566968 217.289333 
L 166.0822 217.857862 
L 163.228384 218.630288 
L 160.374568 219.702811 
L 159.515006 220.184996 
L 157.520752 221.747749 
L 156.430599 223.080659 
L 155.071168 225.976322 
L 154.666936 227.893963 
L 154.50428 228.871985 
L 154.410892 231.767648 
L 154.658457 234.663311 
L 154.666936 234.705156 
L 155.378204 237.558974 
L 156.679861 240.454638 
L 157.520752 241.686537 
L 158.857958 243.350301 
L 160.374568 244.768636 
L 162.128187 246.245964 
L 163.228384 247.020887 
L 166.0822 248.988089 
L 166.299075 249.141627 
L 168.936016 250.900291 
L 170.461354 252.03729 
L 171.789832 253.035952 
L 173.978737 254.932953 
L 174.643648 255.538158 
L 176.913096 257.828616 
L 177.497464 258.446574 
L 179.632395 260.724279 
L 180.35128 261.486505 
L 182.661312 263.619943 
L 183.205096 264.07709 
L 186.058913 265.749029 
L 188.866916 266.515606 
z
M 186.847683 254.932953 
L 186.058913 254.456303 
L 183.205096 252.063052 
L 183.178839 252.03729 
L 180.35128 249.388255 
L 180.089627 249.141627 
L 177.497464 246.852677 
L 176.774671 246.245964 
L 174.643648 244.475851 
L 173.236933 243.350301 
L 171.789832 242.071909 
L 169.979538 240.454638 
L 168.936016 239.255266 
L 167.526618 237.558974 
L 166.0822 234.755664 
L 166.037285 234.663311 
L 165.727147 231.767648 
L 166.0822 230.804276 
L 167.074848 228.871985 
L 168.936016 227.51468 
L 171.789832 226.126405 
L 172.220655 225.976322 
L 174.643648 225.352956 
L 177.497464 224.856715 
L 180.35128 224.645793 
L 183.205096 224.780291 
L 186.058913 225.290767 
L 188.342529 225.976322 
L 188.912729 226.167973 
L 191.766545 227.388357 
L 194.620361 228.69372 
L 195.004911 228.871985 
L 197.474177 230.114252 
L 200.327993 231.450127 
L 200.979421 231.767648 
L 203.181809 232.99628 
L 205.780994 234.663311 
L 206.035625 234.881605 
L 208.425865 237.558974 
L 208.889441 238.515612 
L 209.59822 240.454638 
L 209.670491 243.350301 
L 208.889441 245.942307 
L 208.769233 246.245964 
L 206.695292 249.141627 
L 206.035625 249.854286 
L 203.575889 252.03729 
L 203.181809 252.343692 
L 200.327993 254.17477 
L 198.867745 254.932953 
L 197.474177 255.576583 
L 194.620361 256.453327 
L 191.766545 256.691934 
L 188.912729 256.056212 
z
" style="fill:#19263b;"/>
   </g>
   <g id="PathCollection_9">
    <path clip-path="url(#pf972197da9)" d="M 188.912729 256.056212 
L 191.766545 256.691934 
L 194.620361 256.453327 
L 197.474177 255.576583 
L 198.867745 254.932953 
L 200.327993 254.17477 
L 203.181809 252.343692 
L 203.575889 252.03729 
L 206.035625 249.854286 
L 206.695292 249.141627 
L 208.769233 246.245964 
L 208.889441 245.942307 
L 209.670491 243.350301 
L 209.59822 240.454638 
L 208.889441 238.515612 
L 208.425865 237.558974 
L 206.035625 234.881605 
L 205.780994 234.663311 
L 203.181809 232.99628 
L 200.979421 231.767648 
L 200.327993 231.450127 
L 197.474177 230.114252 
L 195.004911 228.871985 
L 194.620361 228.69372 
L 191.766545 227.388357 
L 188.912729 226.167973 
L 188.342529 225.976322 
L 186.058913 225.290767 
L 183.205096 224.780291 
L 180.35128 224.645793 
L 177.497464 224.856715 
L 174.643648 225.352956 
L 172.220655 225.976322 
L 171.789832 226.126405 
L 168.936016 227.51468 
L 167.074848 228.871985 
L 166.0822 230.804276 
L 165.727147 231.767648 
L 166.037285 234.663311 
L 166.0822 234.755664 
L 167.526618 237.558974 
L 168.936016 239.255266 
L 169.979538 240.454638 
L 171.789832 242.071909 
L 173.236933 243.350301 
L 174.643648 244.475851 
L 176.774671 246.245964 
L 177.497464 246.852677 
L 180.089627 249.141627 
L 180.35128 249.388255 
L 183.178839 252.03729 
L 183.205096 252.063052 
L 186.058913 254.456303 
L 186.847683 254.932953 
z
" style="fill:#080d14;"/>
   </g>
   <g id="patch_3">
    <path d="M 29.241719 393.78 
L 29.241719 78.442286 
" style="fill:none;stroke:#ffffff;stroke-linecap:square;stroke-linejoin:miter;stroke-width:1.25;"/>
   </g>
   <g id="patch_4">
    <path d="M 29.241719 393.78 
L 340.02229 393.78 
" style="fill:none;stroke:#ffffff;stroke-linecap:square;stroke-linejoin:miter;stroke-width:1.25;"/>
   </g>
  </g>
  <g id="axes_2">
   <g id="patch_5">
    <path d="M 29.241719 67.568571 
L 340.02229 67.568571 
L 340.02229 13.2 
L 29.241719 13.2 
z
" style="fill:#eaeaf2;"/>
   </g>
   <g id="matplotlib.axis_3">
    <g id="xtick_10">
     <g id="line2d_15">
      <path clip-path="url(#p73d2d2a644)" d="M 42.662183 67.568571 
L 42.662183 13.2 
" style="fill:none;stroke:#ffffff;stroke-linecap:round;"/>
     </g>
    </g>
    <g id="xtick_11">
     <g id="line2d_16">
      <path clip-path="url(#p73d2d2a644)" d="M 78.329616 67.568571 
L 78.329616 13.2 
" style="fill:none;stroke:#ffffff;stroke-linecap:round;"/>
     </g>
    </g>
    <g id="xtick_12">
     <g id="line2d_17">
      <path clip-path="url(#p73d2d2a644)" d="M 113.997048 67.568571 
L 113.997048 13.2 
" style="fill:none;stroke:#ffffff;stroke-linecap:round;"/>
     </g>
    </g>
    <g id="xtick_13">
     <g id="line2d_18">
      <path clip-path="url(#p73d2d2a644)" d="M 149.664481 67.568571 
L 149.664481 13.2 
" style="fill:none;stroke:#ffffff;stroke-linecap:round;"/>
     </g>
    </g>
    <g id="xtick_14">
     <g id="line2d_19">
      <path clip-path="url(#p73d2d2a644)" d="M 185.331914 67.568571 
L 185.331914 13.2 
" style="fill:none;stroke:#ffffff;stroke-linecap:round;"/>
     </g>
    </g>
    <g id="xtick_15">
     <g id="line2d_20">
      <path clip-path="url(#p73d2d2a644)" d="M 220.999346 67.568571 
L 220.999346 13.2 
" style="fill:none;stroke:#ffffff;stroke-linecap:round;"/>
     </g>
    </g>
    <g id="xtick_16">
     <g id="line2d_21">
      <path clip-path="url(#p73d2d2a644)" d="M 256.666779 67.568571 
L 256.666779 13.2 
" style="fill:none;stroke:#ffffff;stroke-linecap:round;"/>
     </g>
    </g>
    <g id="xtick_17">
     <g id="line2d_22">
      <path clip-path="url(#p73d2d2a644)" d="M 292.334212 67.568571 
L 292.334212 13.2 
" style="fill:none;stroke:#ffffff;stroke-linecap:round;"/>
     </g>
    </g>
    <g id="xtick_18">
     <g id="line2d_23">
      <path clip-path="url(#p73d2d2a644)" d="M 328.001644 67.568571 
L 328.001644 13.2 
" style="fill:none;stroke:#ffffff;stroke-linecap:round;"/>
     </g>
    </g>
   </g>
   <g id="matplotlib.axis_4">
    <g id="ytick_6"/>
    <g id="ytick_7"/>
   </g>
   <g id="PolyCollection_1">
    <defs>
     <path d="M 50.348376 -352.973703 
L 50.348376 -352.971272 
L 53.061177 -352.971272 
L 55.773977 -352.971272 
L 58.486778 -352.971272 
L 61.199578 -352.971272 
L 63.912379 -352.971272 
L 66.625179 -352.971272 
L 69.33798 -352.971272 
L 72.050781 -352.971272 
L 74.763581 -352.971272 
L 77.476382 -352.971272 
L 80.189182 -352.971272 
L 82.901983 -352.971272 
L 85.614783 -352.971272 
L 88.327584 -352.971272 
L 91.040385 -352.971272 
L 93.753185 -352.971272 
L 96.465986 -352.971272 
L 99.178786 -352.971272 
L 101.891587 -352.971272 
L 104.604388 -352.971272 
L 107.317188 -352.971272 
L 110.029989 -352.971272 
L 112.742789 -352.971272 
L 115.45559 -352.971272 
L 118.16839 -352.971272 
L 120.881191 -352.971272 
L 123.593992 -352.971272 
L 126.306792 -352.971272 
L 129.019593 -352.971272 
L 131.732393 -352.971272 
L 134.445194 -352.971272 
L 137.157994 -352.971272 
L 139.870795 -352.971272 
L 142.583596 -352.971272 
L 145.296396 -352.971272 
L 148.009197 -352.971272 
L 150.721997 -352.971272 
L 153.434798 -352.971272 
L 156.147598 -352.971272 
L 158.860399 -352.971272 
L 161.5732 -352.971272 
L 164.286 -352.971272 
L 166.998801 -352.971272 
L 169.711601 -352.971272 
L 172.424402 -352.971272 
L 175.137202 -352.971272 
L 177.850003 -352.971272 
L 180.562804 -352.971272 
L 183.275604 -352.971272 
L 185.988405 -352.971272 
L 188.701205 -352.971272 
L 191.414006 -352.971272 
L 194.126806 -352.971272 
L 196.839607 -352.971272 
L 199.552408 -352.971272 
L 202.265208 -352.971272 
L 204.978009 -352.971272 
L 207.690809 -352.971272 
L 210.40361 -352.971272 
L 213.11641 -352.971272 
L 215.829211 -352.971272 
L 218.542012 -352.971272 
L 221.254812 -352.971272 
L 223.967613 -352.971272 
L 226.680413 -352.971272 
L 229.393214 -352.971272 
L 232.106015 -352.971272 
L 234.818815 -352.971272 
L 237.531616 -352.971272 
L 240.244416 -352.971272 
L 242.957217 -352.971272 
L 245.670017 -352.971272 
L 248.382818 -352.971272 
L 251.095619 -352.971272 
L 253.808419 -352.971272 
L 256.52122 -352.971272 
L 259.23402 -352.971272 
L 261.946821 -352.971272 
L 264.659621 -352.971272 
L 267.372422 -352.971272 
L 270.085223 -352.971272 
L 272.798023 -352.971272 
L 275.510824 -352.971272 
L 278.223624 -352.971272 
L 280.936425 -352.971272 
L 283.649225 -352.971272 
L 286.362026 -352.971272 
L 289.074827 -352.971272 
L 291.787627 -352.971272 
L 294.500428 -352.971272 
L 297.213228 -352.971272 
L 299.926029 -352.971272 
L 302.638829 -352.971272 
L 305.35163 -352.971272 
L 308.064431 -352.971272 
L 310.777231 -352.971272 
L 313.490032 -352.971272 
L 316.202832 -352.971272 
L 318.915633 -352.971272 
L 318.915633 -352.973702 
L 318.915633 -352.973702 
L 316.202832 -352.977076 
L 313.490032 -352.983986 
L 310.777231 -352.996887 
L 308.064431 -353.018921 
L 305.35163 -353.053574 
L 302.638829 -353.104317 
L 299.926029 -353.174584 
L 297.213228 -353.268339 
L 294.500428 -353.390848 
L 291.787627 -353.548691 
L 289.074827 -353.748153 
L 286.362026 -353.992434 
L 283.649225 -354.279731 
L 280.936425 -354.604659 
L 278.223624 -354.96358 
L 275.510824 -355.361177 
L 272.798023 -355.813735 
L 270.085223 -356.346035 
L 267.372422 -356.983131 
L 264.659621 -357.742054 
L 261.946821 -358.628627 
L 259.23402 -359.64056 
L 256.52122 -360.773219 
L 253.808419 -362.022984 
L 251.095619 -363.386214 
L 248.382818 -364.856784 
L 245.670017 -366.427449 
L 242.957217 -368.097437 
L 240.244416 -369.88257 
L 237.531616 -371.819316 
L 234.818815 -373.955259 
L 232.106015 -376.326155 
L 229.393214 -378.92973 
L 226.680413 -381.710797 
L 223.967613 -384.566419 
L 221.254812 -387.367435 
L 218.542012 -389.983909 
L 215.829211 -392.304569 
L 213.11641 -394.250546 
L 210.40361 -395.790365 
L 207.690809 -396.958009 
L 204.978009 -397.863019 
L 202.265208 -398.674355 
L 199.552408 -399.568561 
L 196.839607 -400.655358 
L 194.126806 -401.915153 
L 191.414006 -403.18574 
L 188.701205 -404.213694 
L 185.988405 -404.750864 
L 183.275604 -404.650331 
L 180.562804 -403.916528 
L 177.850003 -402.690467 
L 175.137202 -401.18518 
L 172.424402 -399.60734 
L 169.711601 -398.099063 
L 166.998801 -396.715664 
L 164.286 -395.435388 
L 161.5732 -394.186677 
L 158.860399 -392.878856 
L 156.147598 -391.427722 
L 153.434798 -389.772637 
L 150.721997 -387.88448 
L 148.009197 -385.765648 
L 145.296396 -383.445204 
L 142.583596 -380.973096 
L 139.870795 -378.415817 
L 137.157994 -375.852695 
L 134.445194 -373.370052 
L 131.732393 -371.051335 
L 129.019593 -368.964069 
L 126.306792 -367.147132 
L 123.593992 -365.602987 
L 120.881191 -364.298763 
L 118.16839 -363.177233 
L 115.45559 -362.174445 
L 112.742789 -361.237345 
L 110.029989 -360.334745 
L 107.317188 -359.45864 
L 104.604388 -358.617589 
L 101.891587 -357.826644 
L 99.178786 -357.098426 
L 96.465986 -356.438357 
L 93.753185 -355.844953 
L 91.040385 -355.313827 
L 88.327584 -354.842268 
L 85.614783 -354.431201 
L 82.901983 -354.083398 
L 80.189182 -353.799691 
L 77.476382 -353.576228 
L 74.763581 -353.404689 
L 72.050781 -353.274854 
L 69.33798 -353.17744 
L 66.625179 -353.105476 
L 63.912379 -353.054006 
L 61.199578 -353.019067 
L 58.486778 -352.996933 
L 55.773977 -352.983999 
L 53.061177 -352.977079 
L 50.348376 -352.973703 
z
" id="m0c0132db9a" style="stroke:#ffffff;stroke-opacity:0.25;"/>
    </defs>
    <g clip-path="url(#p73d2d2a644)">
     <use style="fill:#4c72b0;fill-opacity:0.25;stroke:#ffffff;stroke-opacity:0.25;" x="0" xlink:href="#m0c0132db9a" y="420.539844"/>
    </g>
   </g>
   <g id="line2d_24">
    <path clip-path="url(#p73d2d2a644)" d="M 50.348376 67.566141 
L 53.061177 67.562765 
L 55.773977 67.555845 
L 58.486778 67.542911 
L 61.199578 67.520777 
L 63.912379 67.485838 
L 66.625179 67.434368 
L 69.33798 67.362404 
L 72.050781 67.26499 
L 74.763581 67.135155 
L 77.476382 66.963616 
L 80.189182 66.740153 
L 82.901983 66.456445 
L 85.614783 66.108643 
L 88.327584 65.697575 
L 91.040385 65.226016 
L 93.753185 64.694891 
L 96.465986 64.101487 
L 99.178786 63.441418 
L 101.891587 62.7132 
L 104.604388 61.922254 
L 107.317188 61.081203 
L 110.029989 60.205099 
L 112.742789 59.302499 
L 115.45559 58.365398 
L 118.16839 57.362611 
L 120.881191 56.241081 
L 123.593992 54.936857 
L 126.306792 53.392711 
L 129.019593 51.575775 
L 131.732393 49.488509 
L 134.445194 47.169792 
L 137.157994 44.687149 
L 139.870795 42.124026 
L 142.583596 39.566747 
L 145.296396 37.094639 
L 148.009197 34.774195 
L 150.721997 32.655364 
L 153.434798 30.767207 
L 156.147598 29.112122 
L 158.860399 27.660988 
L 161.5732 26.353166 
L 164.286 25.104456 
L 166.998801 23.82418 
L 169.711601 22.440781 
L 172.424402 20.932504 
L 175.137202 19.354664 
L 177.850003 17.849377 
L 180.562804 16.623316 
L 183.275604 15.889513 
L 185.988405 15.78898 
L 188.701205 16.32615 
L 191.414006 17.354103 
L 194.126806 18.624691 
L 196.839607 19.884486 
L 199.552408 20.971283 
L 202.265208 21.865489 
L 204.978009 22.676825 
L 207.690809 23.581834 
L 210.40361 24.749479 
L 213.11641 26.289298 
L 215.829211 28.235274 
L 218.542012 30.555935 
L 221.254812 33.172409 
L 223.967613 35.973425 
L 226.680413 38.829047 
L 229.393214 41.610113 
L 232.106015 44.213689 
L 234.818815 46.584585 
L 237.531616 48.720528 
L 240.244416 50.657274 
L 242.957217 52.442406 
L 245.670017 54.112395 
L 248.382818 55.683059 
L 251.095619 57.15363 
L 253.808419 58.51686 
L 256.52122 59.766625 
L 259.23402 60.899283 
L 261.946821 61.911217 
L 264.659621 62.79779 
L 267.372422 63.556713 
L 270.085223 64.193808 
L 272.798023 64.726109 
L 275.510824 65.178667 
L 278.223624 65.576264 
L 280.936425 65.935184 
L 283.649225 66.260113 
L 286.362026 66.54741 
L 289.074827 66.791691 
L 291.787627 66.991153 
L 294.500428 67.148996 
L 297.213228 67.271505 
L 299.926029 67.365259 
L 302.638829 67.435526 
L 305.35163 67.486269 
L 308.064431 67.520923 
L 310.777231 67.542956 
L 313.490032 67.555857 
L 316.202832 67.562768 
L 318.915633 67.566142 
" style="fill:none;stroke:#4c72b0;stroke-linecap:round;stroke-width:1.5;"/>
   </g>
   <g id="patch_6">
    <path d="M 29.241719 67.568571 
L 340.02229 67.568571 
" style="fill:none;stroke:#ffffff;stroke-linecap:square;stroke-linejoin:miter;stroke-width:1.25;"/>
   </g>
  </g>
  <g id="axes_3">
   <g id="patch_7">
    <path d="M 350.738862 393.78 
L 404.321719 393.78 
L 404.321719 78.442286 
L 350.738862 78.442286 
z
" style="fill:#eaeaf2;"/>
   </g>
   <g id="matplotlib.axis_5">
    <g id="xtick_19"/>
    <g id="xtick_20"/>
   </g>
   <g id="matplotlib.axis_6">
    <g id="ytick_8">
     <g id="line2d_25">
      <path clip-path="url(#pb51b80ed4b)" d="M 350.738862 358.526241 
L 404.321719 358.526241 
" style="fill:none;stroke:#ffffff;stroke-linecap:round;"/>
     </g>
    </g>
    <g id="ytick_9">
     <g id="line2d_26">
      <path clip-path="url(#pb51b80ed4b)" d="M 350.738862 298.356737 
L 404.321719 298.356737 
" style="fill:none;stroke:#ffffff;stroke-linecap:round;"/>
     </g>
    </g>
    <g id="ytick_10">
     <g id="line2d_27">
      <path clip-path="url(#pb51b80ed4b)" d="M 350.738862 238.187232 
L 404.321719 238.187232 
" style="fill:none;stroke:#ffffff;stroke-linecap:round;"/>
     </g>
    </g>
    <g id="ytick_11">
     <g id="line2d_28">
      <path clip-path="url(#pb51b80ed4b)" d="M 350.738862 178.017727 
L 404.321719 178.017727 
" style="fill:none;stroke:#ffffff;stroke-linecap:round;"/>
     </g>
    </g>
    <g id="ytick_12">
     <g id="line2d_29">
      <path clip-path="url(#pb51b80ed4b)" d="M 350.738862 117.848222 
L 404.321719 117.848222 
" style="fill:none;stroke:#ffffff;stroke-linecap:round;"/>
     </g>
    </g>
   </g>
   <g id="PolyCollection_2">
    <defs>
     <path d="M 350.741196 -47.270476 
L 350.738862 -47.270476 
L 350.738862 -50.041349 
L 350.738862 -52.812222 
L 350.738862 -55.583095 
L 350.738862 -58.353969 
L 350.738862 -61.124842 
L 350.738862 -63.895715 
L 350.738862 -66.666588 
L 350.738862 -69.437462 
L 350.738862 -72.208335 
L 350.738862 -74.979208 
L 350.738862 -77.750081 
L 350.738862 -80.520955 
L 350.738862 -83.291828 
L 350.738862 -86.062701 
L 350.738862 -88.833574 
L 350.738862 -91.604447 
L 350.738862 -94.375321 
L 350.738862 -97.146194 
L 350.738862 -99.917067 
L 350.738862 -102.68794 
L 350.738862 -105.458814 
L 350.738862 -108.229687 
L 350.738862 -111.00056 
L 350.738862 -113.771433 
L 350.738862 -116.542307 
L 350.738862 -119.31318 
L 350.738862 -122.084053 
L 350.738862 -124.854926 
L 350.738862 -127.6258 
L 350.738862 -130.396673 
L 350.738862 -133.167546 
L 350.738862 -135.938419 
L 350.738862 -138.709292 
L 350.738862 -141.480166 
L 350.738862 -144.251039 
L 350.738862 -147.021912 
L 350.738862 -149.792785 
L 350.738862 -152.563659 
L 350.738862 -155.334532 
L 350.738862 -158.105405 
L 350.738862 -160.876278 
L 350.738862 -163.647152 
L 350.738862 -166.418025 
L 350.738862 -169.188898 
L 350.738862 -171.959771 
L 350.738862 -174.730645 
L 350.738862 -177.501518 
L 350.738862 -180.272391 
L 350.738862 -183.043264 
L 350.738862 -185.814138 
L 350.738862 -188.585011 
L 350.738862 -191.355884 
L 350.738862 -194.126757 
L 350.738862 -196.89763 
L 350.738862 -199.668504 
L 350.738862 -202.439377 
L 350.738862 -205.21025 
L 350.738862 -207.981123 
L 350.738862 -210.751997 
L 350.738862 -213.52287 
L 350.738862 -216.293743 
L 350.738862 -219.064616 
L 350.738862 -221.83549 
L 350.738862 -224.606363 
L 350.738862 -227.377236 
L 350.738862 -230.148109 
L 350.738862 -232.918983 
L 350.738862 -235.689856 
L 350.738862 -238.460729 
L 350.738862 -241.231602 
L 350.738862 -244.002475 
L 350.738862 -246.773349 
L 350.738862 -249.544222 
L 350.738862 -252.315095 
L 350.738862 -255.085968 
L 350.738862 -257.856842 
L 350.738862 -260.627715 
L 350.738862 -263.398588 
L 350.738862 -266.169461 
L 350.738862 -268.940335 
L 350.738862 -271.711208 
L 350.738862 -274.482081 
L 350.738862 -277.252954 
L 350.738862 -280.023828 
L 350.738862 -282.794701 
L 350.738862 -285.565574 
L 350.738862 -288.336447 
L 350.738862 -291.107321 
L 350.738862 -293.878194 
L 350.738862 -296.649067 
L 350.738862 -299.41994 
L 350.738862 -302.190813 
L 350.738862 -304.961687 
L 350.738862 -307.73256 
L 350.738862 -310.503433 
L 350.738862 -313.274306 
L 350.738862 -316.04518 
L 350.738862 -318.816053 
L 350.738862 -321.586926 
L 350.741203 -321.586926 
L 350.741203 -321.586926 
L 350.745152 -318.816053 
L 350.753854 -316.04518 
L 350.770603 -313.274306 
L 350.798713 -310.503433 
L 350.839841 -307.73256 
L 350.8925 -304.961687 
L 350.952364 -302.190813 
L 351.015056 -299.41994 
L 351.07977 -296.649067 
L 351.150484 -293.878194 
L 351.233056 -291.107321 
L 351.33023 -288.336447 
L 351.43887 -285.565574 
L 351.551842 -282.794701 
L 351.663235 -280.023828 
L 351.773953 -277.252954 
L 351.895802 -274.482081 
L 352.053314 -271.711208 
L 352.282318 -268.940335 
L 352.624042 -266.169461 
L 353.114785 -263.398588 
L 353.773404 -260.627715 
L 354.591386 -257.856842 
L 355.532124 -255.085968 
L 356.544144 -252.315095 
L 357.585281 -249.544222 
L 358.64471 -246.773349 
L 359.746998 -244.002475 
L 360.933546 -241.231602 
L 362.235934 -238.460729 
L 363.666229 -235.689856 
L 365.237624 -232.918983 
L 367.000067 -230.148109 
L 369.053938 -227.377236 
L 371.51361 -224.606363 
L 374.430661 -221.83549 
L 377.724216 -219.064616 
L 381.17062 -216.293743 
L 384.469938 -213.52287 
L 387.358407 -210.751997 
L 389.708011 -207.981123 
L 391.561946 -205.21025 
L 393.089774 -202.439377 
L 394.489076 -199.668504 
L 395.889489 -196.89763 
L 397.310619 -194.126757 
L 398.685368 -191.355884 
L 399.913344 -188.585011 
L 400.896828 -185.814138 
L 401.544767 -183.043264 
L 401.770154 -180.272391 
L 401.507387 -177.501518 
L 400.741403 -174.730645 
L 399.517551 -171.959771 
L 397.919448 -169.188898 
L 396.035059 -166.418025 
L 393.937093 -163.647152 
L 391.682385 -160.876278 
L 389.318657 -158.105405 
L 386.889664 -155.334532 
L 384.435619 -152.563659 
L 381.985946 -149.792785 
L 379.546583 -147.021912 
L 377.096277 -144.251039 
L 374.607004 -141.480166 
L 372.082316 -138.709292 
L 369.583627 -135.938419 
L 367.216505 -133.167546 
L 365.079398 -130.396673 
L 363.209136 -127.6258 
L 361.562648 -124.854926 
L 360.048092 -122.084053 
L 358.582935 -119.31318 
L 357.139906 -116.542307 
L 355.754924 -113.771433 
L 354.499918 -111.00056 
L 353.443712 -108.229687 
L 352.623935 -105.458814 
L 352.038964 -102.68794 
L 351.655657 -99.917067 
L 351.423836 -97.146194 
L 351.290544 -94.375321 
L 351.210799 -91.604447 
L 351.153877 -88.833574 
L 351.104941 -86.062701 
L 351.062027 -83.291828 
L 351.029293 -80.520955 
L 351.009197 -77.750081 
L 350.99768 -74.979208 
L 350.985187 -72.208335 
L 350.962416 -69.437462 
L 350.926171 -66.666588 
L 350.880891 -63.895715 
L 350.835269 -61.124842 
L 350.797115 -58.353969 
L 350.770108 -55.583095 
L 350.753718 -52.812222 
L 350.745119 -50.041349 
L 350.741196 -47.270476 
z
" id="m21ec8e348d" style="stroke:#ffffff;stroke-opacity:0.25;"/>
    </defs>
    <g clip-path="url(#pb51b80ed4b)">
     <use style="fill:#4c72b0;fill-opacity:0.25;stroke:#ffffff;stroke-opacity:0.25;" x="0" xlink:href="#m21ec8e348d" y="420.539844"/>
    </g>
   </g>
   <g id="line2d_30">
    <path clip-path="url(#pb51b80ed4b)" d="M 350.741196 373.269368 
L 350.745119 370.498495 
L 350.753718 367.727622 
L 350.770108 364.956748 
L 350.797115 362.185875 
L 350.835269 359.415002 
L 350.880891 356.644129 
L 350.926171 353.873255 
L 350.962416 351.102382 
L 350.985187 348.331509 
L 350.99768 345.560636 
L 351.009197 342.789762 
L 351.029293 340.018889 
L 351.062027 337.248016 
L 351.104941 334.477143 
L 351.153877 331.70627 
L 351.210799 328.935396 
L 351.290544 326.164523 
L 351.423836 323.39365 
L 351.655657 320.622777 
L 352.038964 317.851903 
L 352.623935 315.08103 
L 353.443712 312.310157 
L 354.499918 309.539284 
L 355.754924 306.76841 
L 357.139906 303.997537 
L 358.582935 301.226664 
L 360.048092 298.455791 
L 361.562648 295.684917 
L 363.209136 292.914044 
L 365.079398 290.143171 
L 367.216505 287.372298 
L 369.583627 284.601425 
L 372.082316 281.830551 
L 374.607004 279.059678 
L 377.096277 276.288805 
L 379.546583 273.517932 
L 381.985946 270.747058 
L 384.435619 267.976185 
L 386.889664 265.205312 
L 389.318657 262.434439 
L 391.682385 259.663565 
L 393.937093 256.892692 
L 396.035059 254.121819 
L 397.919448 251.350946 
L 399.517551 248.580072 
L 400.741403 245.809199 
L 401.507387 243.038326 
L 401.770154 240.267453 
L 401.544767 237.496579 
L 400.896828 234.725706 
L 399.913344 231.954833 
L 398.685368 229.18396 
L 397.310619 226.413087 
L 395.889489 223.642213 
L 394.489076 220.87134 
L 393.089774 218.100467 
L 391.561946 215.329594 
L 389.708011 212.55872 
L 387.358407 209.787847 
L 384.469938 207.016974 
L 381.17062 204.246101 
L 377.724216 201.475227 
L 374.430661 198.704354 
L 371.51361 195.933481 
L 369.053938 193.162608 
L 367.000067 190.391734 
L 365.237624 187.620861 
L 363.666229 184.849988 
L 362.235934 182.079115 
L 360.933546 179.308241 
L 359.746998 176.537368 
L 358.64471 173.766495 
L 357.585281 170.995622 
L 356.544144 168.224749 
L 355.532124 165.453875 
L 354.591386 162.683002 
L 353.773404 159.912129 
L 353.114785 157.141256 
L 352.624042 154.370382 
L 352.282318 151.599509 
L 352.053314 148.828636 
L 351.895802 146.057763 
L 351.773953 143.286889 
L 351.663235 140.516016 
L 351.551842 137.745143 
L 351.43887 134.97427 
L 351.33023 132.203396 
L 351.233056 129.432523 
L 351.150484 126.66165 
L 351.07977 123.890777 
L 351.015056 121.119904 
L 350.952364 118.34903 
L 350.8925 115.578157 
L 350.839841 112.807284 
L 350.798713 110.036411 
L 350.770603 107.265537 
L 350.753854 104.494664 
L 350.745152 101.723791 
L 350.741203 98.952918 
" style="fill:none;stroke:#4c72b0;stroke-linecap:round;stroke-width:1.5;"/>
   </g>
   <g id="patch_8">
    <path d="M 350.738862 393.78 
L 350.738862 78.442286 
" style="fill:none;stroke:#ffffff;stroke-linecap:square;stroke-linejoin:miter;stroke-width:1.25;"/>
   </g>
  </g>
 </g>
 <defs>
  <clipPath id="pf972197da9">
   <rect height="315.337714" width="310.780571" x="29.241719" y="78.442286"/>
  </clipPath>
  <clipPath id="p73d2d2a644">
   <rect height="54.368571" width="310.780571" x="29.241719" y="13.2"/>
  </clipPath>
  <clipPath id="pb51b80ed4b">
   <rect height="315.337714" width="53.582857" x="350.738862" y="78.442286"/>
  </clipPath>
 </defs>
</svg>
