<?xml version="1.0" encoding="utf-8" standalone="no"?>
<!DOCTYPE svg PUBLIC "-//W3C//DTD SVG 1.1//EN"
  "http://www.w3.org/Graphics/SVG/1.1/DTD/svg11.dtd">
<!-- Created with matplotlib (https://matplotlib.org/) -->
<svg height="420.539844pt" version="1.1" viewBox="0 0 417.521719 420.539844" width="417.521719pt" xmlns="http://www.w3.org/2000/svg" xmlns:xlink="http://www.w3.org/1999/xlink">
 <defs>
  <style type="text/css">
*{stroke-linecap:butt;stroke-linejoin:round;}
  </style>
 </defs>
 <g id="figure_1">
  <g id="patch_1">
   <path d="M 0 420.539844 
L 417.521719 420.539844 
L 417.521719 0 
L 0 0 
z
" style="fill:#ffffff;"/>
  </g>
  <g id="axes_1">
   <g id="patch_2">
    <path d="M 29.241719 393.78 
L 340.02229 393.78 
L 340.02229 78.442286 
L 29.241719 78.442286 
z
" style="fill:#eaeaf2;"/>
   </g>
   <g id="matplotlib.axis_1">
    <g id="xtick_1">
     <g id="line2d_1">
      <path clip-path="url(#p7a740c2356)" d="M 61.143682 393.78 
L 61.143682 78.442286 
" style="fill:none;stroke:#ffffff;stroke-linecap:round;"/>
     </g>
     <g id="text_1">
      <!-- −4 -->
      <defs>
       <path d="M 52.828125 31.203125 
L 5.5625 31.203125 
L 5.5625 39.40625 
L 52.828125 39.40625 
z
" id="ArialMT-8722"/>
       <path d="M 32.328125 0 
L 32.328125 17.140625 
L 1.265625 17.140625 
L 1.265625 25.203125 
L 33.9375 71.578125 
L 41.109375 71.578125 
L 41.109375 25.203125 
L 50.78125 25.203125 
L 50.78125 17.140625 
L 41.109375 17.140625 
L 41.109375 0 
z
M 32.328125 25.203125 
L 32.328125 57.46875 
L 9.90625 25.203125 
z
" id="ArialMT-52"/>
      </defs>
      <g style="fill:#262626;" transform="translate(54.872822 411.153594)scale(0.11 -0.11)">
       <use xlink:href="#ArialMT-8722"/>
       <use x="58.398438" xlink:href="#ArialMT-52"/>
      </g>
     </g>
    </g>
    <g id="xtick_2">
     <g id="line2d_2">
      <path clip-path="url(#p7a740c2356)" d="M 129.736719 393.78 
L 129.736719 78.442286 
" style="fill:none;stroke:#ffffff;stroke-linecap:round;"/>
     </g>
     <g id="text_2">
      <!-- −2 -->
      <defs>
       <path d="M 50.34375 8.453125 
L 50.34375 0 
L 3.03125 0 
Q 2.9375 3.171875 4.046875 6.109375 
Q 5.859375 10.9375 9.828125 15.625 
Q 13.8125 20.3125 21.34375 26.46875 
Q 33.015625 36.03125 37.109375 41.625 
Q 41.21875 47.21875 41.21875 52.203125 
Q 41.21875 57.421875 37.46875 61 
Q 33.734375 64.59375 27.734375 64.59375 
Q 21.390625 64.59375 17.578125 60.78125 
Q 13.765625 56.984375 13.71875 50.25 
L 4.6875 51.171875 
Q 5.609375 61.28125 11.65625 66.578125 
Q 17.71875 71.875 27.9375 71.875 
Q 38.234375 71.875 44.234375 66.15625 
Q 50.25 60.453125 50.25 52 
Q 50.25 47.703125 48.484375 43.546875 
Q 46.734375 39.40625 42.65625 34.8125 
Q 38.578125 30.21875 29.109375 22.21875 
Q 21.1875 15.578125 18.9375 13.203125 
Q 16.703125 10.84375 15.234375 8.453125 
z
" id="ArialMT-50"/>
      </defs>
      <g style="fill:#262626;" transform="translate(123.46586 411.153594)scale(0.11 -0.11)">
       <use xlink:href="#ArialMT-8722"/>
       <use x="58.398438" xlink:href="#ArialMT-50"/>
      </g>
     </g>
    </g>
    <g id="xtick_3">
     <g id="line2d_3">
      <path clip-path="url(#p7a740c2356)" d="M 198.329757 393.78 
L 198.329757 78.442286 
" style="fill:none;stroke:#ffffff;stroke-linecap:round;"/>
     </g>
     <g id="text_3">
      <!-- 0 -->
      <defs>
       <path d="M 4.15625 35.296875 
Q 4.15625 48 6.765625 55.734375 
Q 9.375 63.484375 14.515625 67.671875 
Q 19.671875 71.875 27.484375 71.875 
Q 33.25 71.875 37.59375 69.546875 
Q 41.9375 67.234375 44.765625 62.859375 
Q 47.609375 58.5 49.21875 52.21875 
Q 50.828125 45.953125 50.828125 35.296875 
Q 50.828125 22.703125 48.234375 14.96875 
Q 45.65625 7.234375 40.5 3 
Q 35.359375 -1.21875 27.484375 -1.21875 
Q 17.140625 -1.21875 11.234375 6.203125 
Q 4.15625 15.140625 4.15625 35.296875 
z
M 13.1875 35.296875 
Q 13.1875 17.671875 17.3125 11.828125 
Q 21.4375 6 27.484375 6 
Q 33.546875 6 37.671875 11.859375 
Q 41.796875 17.71875 41.796875 35.296875 
Q 41.796875 52.984375 37.671875 58.78125 
Q 33.546875 64.59375 27.390625 64.59375 
Q 21.34375 64.59375 17.71875 59.46875 
Q 13.1875 52.9375 13.1875 35.296875 
z
" id="ArialMT-48"/>
      </defs>
      <g style="fill:#262626;" transform="translate(195.271241 411.153594)scale(0.11 -0.11)">
       <use xlink:href="#ArialMT-48"/>
      </g>
     </g>
    </g>
    <g id="xtick_4">
     <g id="line2d_4">
      <path clip-path="url(#p7a740c2356)" d="M 266.922795 393.78 
L 266.922795 78.442286 
" style="fill:none;stroke:#ffffff;stroke-linecap:round;"/>
     </g>
     <g id="text_4">
      <!-- 2 -->
      <g style="fill:#262626;" transform="translate(263.864279 411.153594)scale(0.11 -0.11)">
       <use xlink:href="#ArialMT-50"/>
      </g>
     </g>
    </g>
    <g id="xtick_5">
     <g id="line2d_5">
      <path clip-path="url(#p7a740c2356)" d="M 335.515832 393.78 
L 335.515832 78.442286 
" style="fill:none;stroke:#ffffff;stroke-linecap:round;"/>
     </g>
     <g id="text_5">
      <!-- 4 -->
      <g style="fill:#262626;" transform="translate(332.457317 411.153594)scale(0.11 -0.11)">
       <use xlink:href="#ArialMT-52"/>
      </g>
     </g>
    </g>
   </g>
   <g id="matplotlib.axis_2">
    <g id="ytick_1">
     <g id="line2d_6">
      <path clip-path="url(#p7a740c2356)" d="M 29.241719 371.322996 
L 340.02229 371.322996 
" style="fill:none;stroke:#ffffff;stroke-linecap:round;"/>
     </g>
     <g id="text_6">
      <!-- −4 -->
      <g style="fill:#262626;" transform="translate(7.2 375.259793)scale(0.11 -0.11)">
       <use xlink:href="#ArialMT-8722"/>
       <use x="58.398438" xlink:href="#ArialMT-52"/>
      </g>
     </g>
    </g>
    <g id="ytick_2">
     <g id="line2d_7">
      <path clip-path="url(#p7a740c2356)" d="M 29.241719 335.67519 
L 340.02229 335.67519 
" style="fill:none;stroke:#ffffff;stroke-linecap:round;"/>
     </g>
     <g id="text_7">
      <!-- −3 -->
      <defs>
       <path d="M 4.203125 18.890625 
L 12.984375 20.0625 
Q 14.5 12.59375 18.140625 9.296875 
Q 21.78125 6 27 6 
Q 33.203125 6 37.46875 10.296875 
Q 41.75 14.59375 41.75 20.953125 
Q 41.75 27 37.796875 30.921875 
Q 33.84375 34.859375 27.734375 34.859375 
Q 25.25 34.859375 21.53125 33.890625 
L 22.515625 41.609375 
Q 23.390625 41.5 23.921875 41.5 
Q 29.546875 41.5 34.03125 44.421875 
Q 38.53125 47.359375 38.53125 53.46875 
Q 38.53125 58.296875 35.25 61.46875 
Q 31.984375 64.65625 26.8125 64.65625 
Q 21.6875 64.65625 18.265625 61.421875 
Q 14.84375 58.203125 13.875 51.765625 
L 5.078125 53.328125 
Q 6.6875 62.15625 12.390625 67.015625 
Q 18.109375 71.875 26.609375 71.875 
Q 32.46875 71.875 37.390625 69.359375 
Q 42.328125 66.84375 44.9375 62.5 
Q 47.5625 58.15625 47.5625 53.265625 
Q 47.5625 48.640625 45.0625 44.828125 
Q 42.578125 41.015625 37.703125 38.765625 
Q 44.046875 37.3125 47.5625 32.6875 
Q 51.078125 28.078125 51.078125 21.140625 
Q 51.078125 11.765625 44.234375 5.25 
Q 37.40625 -1.265625 26.953125 -1.265625 
Q 17.53125 -1.265625 11.296875 4.34375 
Q 5.078125 9.96875 4.203125 18.890625 
z
" id="ArialMT-51"/>
      </defs>
      <g style="fill:#262626;" transform="translate(7.2 339.611987)scale(0.11 -0.11)">
       <use xlink:href="#ArialMT-8722"/>
       <use x="58.398438" xlink:href="#ArialMT-51"/>
      </g>
     </g>
    </g>
    <g id="ytick_3">
     <g id="line2d_8">
      <path clip-path="url(#p7a740c2356)" d="M 29.241719 300.027384 
L 340.02229 300.027384 
" style="fill:none;stroke:#ffffff;stroke-linecap:round;"/>
     </g>
     <g id="text_8">
      <!-- −2 -->
      <g style="fill:#262626;" transform="translate(7.2 303.964181)scale(0.11 -0.11)">
       <use xlink:href="#ArialMT-8722"/>
       <use x="58.398438" xlink:href="#ArialMT-50"/>
      </g>
     </g>
    </g>
    <g id="ytick_4">
     <g id="line2d_9">
      <path clip-path="url(#p7a740c2356)" d="M 29.241719 264.379578 
L 340.02229 264.379578 
" style="fill:none;stroke:#ffffff;stroke-linecap:round;"/>
     </g>
     <g id="text_9">
      <!-- −1 -->
      <defs>
       <path d="M 37.25 0 
L 28.46875 0 
L 28.46875 56 
Q 25.296875 52.984375 20.140625 49.953125 
Q 14.984375 46.921875 10.890625 45.40625 
L 10.890625 53.90625 
Q 18.265625 57.375 23.78125 62.296875 
Q 29.296875 67.234375 31.59375 71.875 
L 37.25 71.875 
z
" id="ArialMT-49"/>
      </defs>
      <g style="fill:#262626;" transform="translate(7.2 268.316375)scale(0.11 -0.11)">
       <use xlink:href="#ArialMT-8722"/>
       <use x="58.398438" xlink:href="#ArialMT-49"/>
      </g>
     </g>
    </g>
    <g id="ytick_5">
     <g id="line2d_10">
      <path clip-path="url(#p7a740c2356)" d="M 29.241719 228.731772 
L 340.02229 228.731772 
" style="fill:none;stroke:#ffffff;stroke-linecap:round;"/>
     </g>
     <g id="text_10">
      <!-- 0 -->
      <g style="fill:#262626;" transform="translate(13.624688 232.668569)scale(0.11 -0.11)">
       <use xlink:href="#ArialMT-48"/>
      </g>
     </g>
    </g>
    <g id="ytick_6">
     <g id="line2d_11">
      <path clip-path="url(#p7a740c2356)" d="M 29.241719 193.083967 
L 340.02229 193.083967 
" style="fill:none;stroke:#ffffff;stroke-linecap:round;"/>
     </g>
     <g id="text_11">
      <!-- 1 -->
      <g style="fill:#262626;" transform="translate(13.624688 197.020763)scale(0.11 -0.11)">
       <use xlink:href="#ArialMT-49"/>
      </g>
     </g>
    </g>
    <g id="ytick_7">
     <g id="line2d_12">
      <path clip-path="url(#p7a740c2356)" d="M 29.241719 157.436161 
L 340.02229 157.436161 
" style="fill:none;stroke:#ffffff;stroke-linecap:round;"/>
     </g>
     <g id="text_12">
      <!-- 2 -->
      <g style="fill:#262626;" transform="translate(13.624688 161.372958)scale(0.11 -0.11)">
       <use xlink:href="#ArialMT-50"/>
      </g>
     </g>
    </g>
    <g id="ytick_8">
     <g id="line2d_13">
      <path clip-path="url(#p7a740c2356)" d="M 29.241719 121.788355 
L 340.02229 121.788355 
" style="fill:none;stroke:#ffffff;stroke-linecap:round;"/>
     </g>
     <g id="text_13">
      <!-- 3 -->
      <g style="fill:#262626;" transform="translate(13.624688 125.725152)scale(0.11 -0.11)">
       <use xlink:href="#ArialMT-51"/>
      </g>
     </g>
    </g>
    <g id="ytick_9">
     <g id="line2d_14">
      <path clip-path="url(#p7a740c2356)" d="M 29.241719 86.140549 
L 340.02229 86.140549 
" style="fill:none;stroke:#ffffff;stroke-linecap:round;"/>
     </g>
     <g id="text_14">
      <!-- 4 -->
      <g style="fill:#262626;" transform="translate(13.624688 90.077346)scale(0.11 -0.11)">
       <use xlink:href="#ArialMT-52"/>
      </g>
     </g>
    </g>
   </g>
   <g id="PathCollection_1">
    <path clip-path="url(#p7a740c2356)" d="M 46.221924 379.446468 
L 49.075741 379.446468 
L 51.929557 379.446468 
L 54.783373 379.446468 
L 57.637189 379.446468 
L 60.491005 379.446468 
L 63.344821 379.446468 
L 66.198637 379.446468 
L 69.052453 379.446468 
L 71.906269 379.446468 
L 74.760085 379.446468 
L 77.613901 379.446468 
L 80.467717 379.446468 
L 83.321534 379.446468 
L 86.17535 379.446468 
L 89.029166 379.446468 
L 91.882982 379.446468 
L 94.736798 379.446468 
L 97.590614 379.446468 
L 100.44443 379.446468 
L 103.298246 379.446468 
L 106.152062 379.446468 
L 109.005878 379.446468 
L 111.859694 379.446468 
L 114.71351 379.446468 
L 117.567327 379.446468 
L 120.421143 379.446468 
L 123.274959 379.446468 
L 126.128775 379.446468 
L 128.982591 379.446468 
L 131.836407 379.446468 
L 134.690223 379.446468 
L 137.544039 379.446468 
L 140.397855 379.446468 
L 143.251671 379.446468 
L 146.105487 379.446468 
L 148.959303 379.446468 
L 151.81312 379.446468 
L 154.666936 379.446468 
L 157.520752 379.446468 
L 160.374568 379.446468 
L 163.228384 379.446468 
L 166.0822 379.446468 
L 168.936016 379.446468 
L 171.789832 379.446468 
L 174.643648 379.446468 
L 177.497464 379.446468 
L 180.35128 379.446468 
L 183.205096 379.446468 
L 186.058913 379.446468 
L 188.912729 379.446468 
L 191.766545 379.446468 
L 194.620361 379.446468 
L 197.474177 379.446468 
L 200.327993 379.446468 
L 203.181809 379.446468 
L 206.035625 379.446468 
L 208.889441 379.446468 
L 211.743257 379.446468 
L 214.597073 379.446468 
L 217.450889 379.446468 
L 220.304706 379.446468 
L 223.158522 379.446468 
L 226.012338 379.446468 
L 228.866154 379.446468 
L 231.71997 379.446468 
L 234.573786 379.446468 
L 237.427602 379.446468 
L 240.281418 379.446468 
L 243.135234 379.446468 
L 245.98905 379.446468 
L 248.842866 379.446468 
L 251.696682 379.446468 
L 254.550498 379.446468 
L 257.404315 379.446468 
L 260.258131 379.446468 
L 263.111947 379.446468 
L 265.965763 379.446468 
L 268.819579 379.446468 
L 271.673395 379.446468 
L 274.527211 379.446468 
L 277.381027 379.446468 
L 280.234843 379.446468 
L 283.088659 379.446468 
L 285.942475 379.446468 
L 288.796291 379.446468 
L 291.650108 379.446468 
L 294.503924 379.446468 
L 297.35774 379.446468 
L 300.211556 379.446468 
L 303.065372 379.446468 
L 305.919188 379.446468 
L 308.773004 379.446468 
L 311.62682 379.446468 
L 314.480636 379.446468 
L 317.334452 379.446468 
L 320.188268 379.446468 
L 323.042084 379.446468 
L 325.895901 379.446468 
L 325.895901 376.550804 
L 325.895901 373.655141 
L 325.895901 370.759478 
L 325.895901 367.863815 
L 325.895901 364.968152 
L 325.895901 362.072489 
L 325.895901 359.176826 
L 325.895901 356.281163 
L 325.895901 353.385499 
L 325.895901 350.489836 
L 325.895901 347.594173 
L 325.895901 344.69851 
L 325.895901 341.802847 
L 325.895901 338.907184 
L 325.895901 336.011521 
L 325.895901 333.115858 
L 325.895901 330.220194 
L 325.895901 327.324531 
L 325.895901 324.428868 
L 325.895901 321.533205 
L 325.895901 318.637542 
L 325.895901 315.741879 
L 325.895901 312.846216 
L 325.895901 309.950553 
L 325.895901 307.054889 
L 325.895901 304.159226 
L 325.895901 301.263563 
L 325.895901 298.3679 
L 325.895901 295.472237 
L 325.895901 292.576574 
L 325.895901 289.680911 
L 325.895901 286.785248 
L 325.895901 283.889584 
L 325.895901 280.993921 
L 325.895901 278.098258 
L 325.895901 275.202595 
L 325.895901 272.306932 
L 325.895901 269.411269 
L 325.895901 266.515606 
L 325.895901 263.619943 
L 325.895901 260.724279 
L 325.895901 257.828616 
L 325.895901 254.932953 
L 325.895901 252.03729 
L 325.895901 249.141627 
L 325.895901 246.245964 
L 325.895901 243.350301 
L 325.895901 240.454638 
L 325.895901 237.558974 
L 325.895901 234.663311 
L 325.895901 231.767648 
L 325.895901 228.871985 
L 325.895901 225.976322 
L 325.895901 223.080659 
L 325.895901 220.184996 
L 325.895901 217.289333 
L 325.895901 214.393669 
L 325.895901 211.498006 
L 325.895901 208.602343 
L 325.895901 205.70668 
L 325.895901 202.811017 
L 325.895901 199.915354 
L 325.895901 197.019691 
L 325.895901 194.124028 
L 325.895901 191.228364 
L 325.895901 188.332701 
L 325.895901 185.437038 
L 325.895901 182.541375 
L 325.895901 179.645712 
L 325.895901 176.750049 
L 325.895901 173.854386 
L 325.895901 170.958723 
L 325.895901 168.063059 
L 325.895901 165.167396 
L 325.895901 162.271733 
L 325.895901 159.37607 
L 325.895901 156.480407 
L 325.895901 153.584744 
L 325.895901 150.689081 
L 325.895901 147.793418 
L 325.895901 144.897754 
L 325.895901 142.002091 
L 325.895901 139.106428 
L 325.895901 136.210765 
L 325.895901 133.315102 
L 325.895901 130.419439 
L 325.895901 127.523776 
L 325.895901 124.628113 
L 325.895901 121.732449 
L 325.895901 118.836786 
L 325.895901 115.941123 
L 325.895901 113.04546 
L 325.895901 110.149797 
L 325.895901 107.254134 
L 325.895901 104.358471 
L 325.895901 101.462808 
L 325.895901 98.567144 
L 325.895901 95.671481 
L 325.895901 92.775818 
L 323.042084 92.775818 
L 320.188268 92.775818 
L 317.334452 92.775818 
L 314.480636 92.775818 
L 311.62682 92.775818 
L 308.773004 92.775818 
L 305.919188 92.775818 
L 303.065372 92.775818 
L 300.211556 92.775818 
L 297.35774 92.775818 
L 294.503924 92.775818 
L 291.650108 92.775818 
L 288.796291 92.775818 
L 285.942475 92.775818 
L 283.088659 92.775818 
L 280.234843 92.775818 
L 277.381027 92.775818 
L 274.527211 92.775818 
L 271.673395 92.775818 
L 268.819579 92.775818 
L 265.965763 92.775818 
L 263.111947 92.775818 
L 260.258131 92.775818 
L 257.404315 92.775818 
L 254.550498 92.775818 
L 251.696682 92.775818 
L 248.842866 92.775818 
L 245.98905 92.775818 
L 243.135234 92.775818 
L 240.281418 92.775818 
L 237.427602 92.775818 
L 234.573786 92.775818 
L 231.71997 92.775818 
L 228.866154 92.775818 
L 226.012338 92.775818 
L 223.158522 92.775818 
L 220.304706 92.775818 
L 217.450889 92.775818 
L 214.597073 92.775818 
L 211.743257 92.775818 
L 208.889441 92.775818 
L 206.035625 92.775818 
L 203.181809 92.775818 
L 200.327993 92.775818 
L 197.474177 92.775818 
L 194.620361 92.775818 
L 191.766545 92.775818 
L 188.912729 92.775818 
L 186.058913 92.775818 
L 183.205096 92.775818 
L 180.35128 92.775818 
L 177.497464 92.775818 
L 174.643648 92.775818 
L 171.789832 92.775818 
L 168.936016 92.775818 
L 166.0822 92.775818 
L 163.228384 92.775818 
L 160.374568 92.775818 
L 157.520752 92.775818 
L 154.666936 92.775818 
L 151.81312 92.775818 
L 148.959303 92.775818 
L 146.105487 92.775818 
L 143.251671 92.775818 
L 140.397855 92.775818 
L 137.544039 92.775818 
L 134.690223 92.775818 
L 131.836407 92.775818 
L 128.982591 92.775818 
L 126.128775 92.775818 
L 123.274959 92.775818 
L 120.421143 92.775818 
L 117.567327 92.775818 
L 114.71351 92.775818 
L 111.859694 92.775818 
L 109.005878 92.775818 
L 106.152062 92.775818 
L 103.298246 92.775818 
L 100.44443 92.775818 
L 97.590614 92.775818 
L 94.736798 92.775818 
L 91.882982 92.775818 
L 89.029166 92.775818 
L 86.17535 92.775818 
L 83.321534 92.775818 
L 80.467717 92.775818 
L 77.613901 92.775818 
L 74.760085 92.775818 
L 71.906269 92.775818 
L 69.052453 92.775818 
L 66.198637 92.775818 
L 63.344821 92.775818 
L 60.491005 92.775818 
L 57.637189 92.775818 
L 54.783373 92.775818 
L 51.929557 92.775818 
L 49.075741 92.775818 
L 46.221924 92.775818 
L 43.368108 92.775818 
L 43.368108 95.671481 
L 43.368108 98.567144 
L 43.368108 101.462808 
L 43.368108 104.358471 
L 43.368108 107.254134 
L 43.368108 110.149797 
L 43.368108 113.04546 
L 43.368108 115.941123 
L 43.368108 118.836786 
L 43.368108 121.732449 
L 43.368108 124.628113 
L 43.368108 127.523776 
L 43.368108 130.419439 
L 43.368108 133.315102 
L 43.368108 136.210765 
L 43.368108 139.106428 
L 43.368108 142.002091 
L 43.368108 144.897754 
L 43.368108 147.793418 
L 43.368108 150.689081 
L 43.368108 153.584744 
L 43.368108 156.480407 
L 43.368108 159.37607 
L 43.368108 162.271733 
L 43.368108 165.167396 
L 43.368108 168.063059 
L 43.368108 170.958723 
L 43.368108 173.854386 
L 43.368108 176.750049 
L 43.368108 179.645712 
L 43.368108 182.541375 
L 43.368108 185.437038 
L 43.368108 188.332701 
L 43.368108 191.228364 
L 43.368108 194.124028 
L 43.368108 197.019691 
L 43.368108 199.915354 
L 43.368108 202.811017 
L 43.368108 205.70668 
L 43.368108 208.602343 
L 43.368108 211.498006 
L 43.368108 214.393669 
L 43.368108 217.289333 
L 43.368108 220.184996 
L 43.368108 223.080659 
L 43.368108 225.976322 
L 43.368108 228.871985 
L 43.368108 231.767648 
L 43.368108 234.663311 
L 43.368108 237.558974 
L 43.368108 240.454638 
L 43.368108 243.350301 
L 43.368108 246.245964 
L 43.368108 249.141627 
L 43.368108 252.03729 
L 43.368108 254.932953 
L 43.368108 257.828616 
L 43.368108 260.724279 
L 43.368108 263.619943 
L 43.368108 266.515606 
L 43.368108 269.411269 
L 43.368108 272.306932 
L 43.368108 275.202595 
L 43.368108 278.098258 
L 43.368108 280.993921 
L 43.368108 283.889584 
L 43.368108 286.785248 
L 43.368108 289.680911 
L 43.368108 292.576574 
L 43.368108 295.472237 
L 43.368108 298.3679 
L 43.368108 301.263563 
L 43.368108 304.159226 
L 43.368108 307.054889 
L 43.368108 309.950553 
L 43.368108 312.846216 
L 43.368108 315.741879 
L 43.368108 318.637542 
L 43.368108 321.533205 
L 43.368108 324.428868 
L 43.368108 327.324531 
L 43.368108 330.220194 
L 43.368108 333.115858 
L 43.368108 336.011521 
L 43.368108 338.907184 
L 43.368108 341.802847 
L 43.368108 344.69851 
L 43.368108 347.594173 
L 43.368108 350.489836 
L 43.368108 353.385499 
L 43.368108 356.281163 
L 43.368108 359.176826 
L 43.368108 362.072489 
L 43.368108 364.968152 
L 43.368108 367.863815 
L 43.368108 370.759478 
L 43.368108 373.655141 
L 43.368108 376.550804 
L 43.368108 379.446468 
z
M 125.889591 309.950553 
L 124.395552 307.054889 
L 123.982852 304.159226 
L 124.257467 301.263563 
L 125.408877 298.3679 
L 126.128775 297.174543 
L 127.069864 295.472237 
L 128.662849 292.576574 
L 128.982591 291.940958 
L 129.982212 289.680911 
L 131.004457 286.785248 
L 131.836407 284.005498 
L 131.861896 283.889584 
L 132.981321 280.993921 
L 134.655233 278.098258 
L 134.690223 278.050139 
L 136.534038 275.202595 
L 137.544039 273.773167 
L 138.492534 272.306932 
L 140.397855 269.511451 
L 140.46231 269.411269 
L 142.430122 266.515606 
L 143.251671 265.421261 
L 144.493108 263.619943 
L 146.105487 261.482124 
L 146.643425 260.724279 
L 148.860738 257.828616 
L 148.959303 257.711608 
L 151.108745 254.932953 
L 151.81312 254.124553 
L 153.512205 252.03729 
L 154.666936 250.75437 
L 156.034389 249.141627 
L 157.520752 247.53032 
L 158.639376 246.245964 
L 160.374568 244.389296 
L 161.292115 243.350301 
L 163.228384 241.282634 
L 163.963708 240.454638 
L 166.0822 238.180696 
L 166.636305 237.558974 
L 168.936016 235.073358 
L 169.303982 234.663311 
L 171.789832 231.966276 
L 171.97045 231.767648 
L 174.643648 228.874643 
L 174.646114 228.871985 
L 177.282311 225.976322 
L 177.497464 225.736725 
L 179.970279 223.080659 
L 180.35128 222.657866 
L 182.718509 220.184996 
L 183.205096 219.651299 
L 185.528606 217.289333 
L 186.058913 216.718767 
L 188.39064 214.393669 
L 188.912729 213.845582 
L 191.27642 211.498006 
L 191.766545 210.996224 
L 194.143919 208.602343 
L 194.620361 208.123946 
L 196.962276 205.70668 
L 197.474177 205.197904 
L 199.736377 202.811017 
L 200.327993 202.224837 
L 202.501909 199.915354 
L 203.181809 199.242874 
L 205.303216 197.019691 
L 206.035625 196.299388 
L 208.180882 194.124028 
L 208.889441 193.435692 
L 211.172002 191.228364 
L 211.743257 190.683692 
L 214.313434 188.332701 
L 214.597073 188.068313 
L 217.450889 185.553998 
L 217.594427 185.437038 
L 220.304706 183.064366 
L 220.972538 182.541375 
L 223.158522 180.672618 
L 224.498606 179.645712 
L 226.012338 178.360062 
L 228.120262 176.750049 
L 228.866154 176.109801 
L 231.71997 173.901962 
L 231.786885 173.854386 
L 234.573786 171.60344 
L 235.489109 170.958723 
L 237.427602 169.382656 
L 239.340504 168.063059 
L 240.281418 167.304096 
L 243.135234 165.435294 
L 243.645819 165.167396 
L 245.98905 163.765768 
L 248.842866 162.299342 
L 248.884714 162.271733 
L 251.696682 160.295816 
L 253.07808 159.37607 
L 254.550498 158.32696 
L 257.323391 156.480407 
L 257.404315 156.422233 
L 260.258131 154.474309 
L 261.87418 153.584744 
L 263.111947 152.784459 
L 265.965763 151.937036 
L 267.803819 153.584744 
L 268.463053 156.480407 
L 268.316456 159.37607 
L 267.317943 162.271733 
L 265.965763 165.124746 
L 265.948348 165.167396 
L 264.823816 168.063059 
L 264.154309 170.958723 
L 264.417865 173.854386 
L 263.715803 176.750049 
L 263.111947 177.746885 
L 262.096668 179.645712 
L 260.258131 182.46219 
L 260.211962 182.541375 
L 258.12613 185.437038 
L 257.404315 186.319797 
L 255.910247 188.332701 
L 254.550498 189.987595 
L 253.621461 191.228364 
L 251.696682 193.57629 
L 251.286819 194.124028 
L 248.974334 197.019691 
L 248.842866 197.184916 
L 246.894368 199.915354 
L 245.98905 201.030358 
L 244.684865 202.811017 
L 243.135234 204.674184 
L 242.348859 205.70668 
L 240.281418 208.133592 
L 239.908205 208.602343 
L 237.427602 211.454463 
L 237.391461 211.498006 
L 234.959456 214.393669 
L 234.573786 214.794914 
L 232.429607 217.289333 
L 231.71997 218.025098 
L 229.821933 220.184996 
L 228.866154 221.172915 
L 227.156977 223.080659 
L 226.012338 224.258274 
L 224.440654 225.976322 
L 223.158522 227.286624 
L 221.672947 228.871985 
L 220.304706 230.259593 
L 218.854572 231.767648 
L 217.450889 233.181581 
L 215.99125 234.663311 
L 214.597073 236.062307 
L 213.095407 237.558974 
L 211.743257 238.916361 
L 210.184716 240.454638 
L 208.889441 241.760565 
L 207.277002 243.350301 
L 206.035625 244.609381 
L 204.383083 246.245964 
L 203.181809 247.469425 
L 201.501699 249.141627 
L 200.327993 250.336282 
L 198.620388 252.03729 
L 197.474177 253.197061 
L 195.722057 254.932953 
L 194.620361 256.037716 
L 192.792931 257.828616 
L 191.766545 258.849598 
L 189.827168 260.724279 
L 188.912729 261.630931 
L 186.82642 263.619943 
L 186.058913 264.383927 
L 183.795891 266.515606 
L 183.205096 267.110668 
L 180.73944 269.411269 
L 180.35128 269.809566 
L 177.654761 272.306932 
L 177.497464 272.472039 
L 174.643648 275.094768 
L 174.502652 275.202595 
L 171.789832 277.661355 
L 171.193503 278.098258 
L 168.936016 280.094895 
L 167.650162 280.993921 
L 166.0822 282.319813 
L 163.713513 283.889584 
L 163.228384 284.270626 
L 160.374568 286.49219 
L 159.990563 286.785248 
L 157.520752 288.880189 
L 156.446675 289.680911 
L 154.666936 291.162925 
L 152.738944 292.576574 
L 151.81312 293.331954 
L 148.959303 295.437425 
L 148.909565 295.472237 
L 146.105487 297.778772 
L 145.263797 298.3679 
L 143.251671 300.026388 
L 141.487435 301.263563 
L 140.397855 302.167244 
L 137.544039 304.156233 
L 137.538938 304.159226 
L 134.690223 306.223996 
L 133.080536 307.054889 
L 131.836407 307.886672 
L 128.982591 309.146459 
L 126.360855 309.950553 
L 126.128775 310.039251 
z
" style="fill:#f0f3f8;"/>
   </g>
   <g id="PathCollection_2">
    <path clip-path="url(#p7a740c2356)" d="M 126.128775 310.039251 
L 126.360855 309.950553 
L 128.982591 309.146459 
L 131.836407 307.886672 
L 133.080536 307.054889 
L 134.690223 306.223996 
L 137.538938 304.159226 
L 137.544039 304.156233 
L 140.397855 302.167244 
L 141.487435 301.263563 
L 143.251671 300.026388 
L 145.263797 298.3679 
L 146.105487 297.778772 
L 148.909565 295.472237 
L 148.959303 295.437425 
L 151.81312 293.331954 
L 152.738944 292.576574 
L 154.666936 291.162925 
L 156.446675 289.680911 
L 157.520752 288.880189 
L 159.990563 286.785248 
L 160.374568 286.49219 
L 163.228384 284.270626 
L 163.713513 283.889584 
L 166.0822 282.319813 
L 167.650162 280.993921 
L 168.936016 280.094895 
L 171.193503 278.098258 
L 171.789832 277.661355 
L 174.502652 275.202595 
L 174.643648 275.094768 
L 177.497464 272.472039 
L 177.654761 272.306932 
L 180.35128 269.809566 
L 180.73944 269.411269 
L 183.205096 267.110668 
L 183.795891 266.515606 
L 186.058913 264.383927 
L 186.82642 263.619943 
L 188.912729 261.630931 
L 189.827168 260.724279 
L 191.766545 258.849598 
L 192.792931 257.828616 
L 194.620361 256.037716 
L 195.722057 254.932953 
L 197.474177 253.197061 
L 198.620388 252.03729 
L 200.327993 250.336282 
L 201.501699 249.141627 
L 203.181809 247.469425 
L 204.383083 246.245964 
L 206.035625 244.609381 
L 207.277002 243.350301 
L 208.889441 241.760565 
L 210.184716 240.454638 
L 211.743257 238.916361 
L 213.095407 237.558974 
L 214.597073 236.062307 
L 215.99125 234.663311 
L 217.450889 233.181581 
L 218.854572 231.767648 
L 220.304706 230.259593 
L 221.672947 228.871985 
L 223.158522 227.286624 
L 224.440654 225.976322 
L 226.012338 224.258274 
L 227.156977 223.080659 
L 228.866154 221.172915 
L 229.821933 220.184996 
L 231.71997 218.025098 
L 232.429607 217.289333 
L 234.573786 214.794914 
L 234.959456 214.393669 
L 237.391461 211.498006 
L 237.427602 211.454463 
L 239.908205 208.602343 
L 240.281418 208.133592 
L 242.348859 205.70668 
L 243.135234 204.674184 
L 244.684865 202.811017 
L 245.98905 201.030358 
L 246.894368 199.915354 
L 248.842866 197.184916 
L 248.974334 197.019691 
L 251.286819 194.124028 
L 251.696682 193.57629 
L 253.621461 191.228364 
L 254.550498 189.987595 
L 255.910247 188.332701 
L 257.404315 186.319797 
L 258.12613 185.437038 
L 260.211962 182.541375 
L 260.258131 182.46219 
L 262.096668 179.645712 
L 263.111947 177.746885 
L 263.715803 176.750049 
L 264.417865 173.854386 
L 264.154309 170.958723 
L 264.823816 168.063059 
L 265.948348 165.167396 
L 265.965763 165.124746 
L 267.317943 162.271733 
L 268.316456 159.37607 
L 268.463053 156.480407 
L 267.803819 153.584744 
L 265.965763 151.937036 
L 263.111947 152.784459 
L 261.87418 153.584744 
L 260.258131 154.474309 
L 257.404315 156.422233 
L 257.323391 156.480407 
L 254.550498 158.32696 
L 253.07808 159.37607 
L 251.696682 160.295816 
L 248.884714 162.271733 
L 248.842866 162.299342 
L 245.98905 163.765768 
L 243.645819 165.167396 
L 243.135234 165.435294 
L 240.281418 167.304096 
L 239.340504 168.063059 
L 237.427602 169.382656 
L 235.489109 170.958723 
L 234.573786 171.60344 
L 231.786885 173.854386 
L 231.71997 173.901962 
L 228.866154 176.109801 
L 228.120262 176.750049 
L 226.012338 178.360062 
L 224.498606 179.645712 
L 223.158522 180.672618 
L 220.972538 182.541375 
L 220.304706 183.064366 
L 217.594427 185.437038 
L 217.450889 185.553998 
L 214.597073 188.068313 
L 214.313434 188.332701 
L 211.743257 190.683692 
L 211.172002 191.228364 
L 208.889441 193.435692 
L 208.180882 194.124028 
L 206.035625 196.299388 
L 205.303216 197.019691 
L 203.181809 199.242874 
L 202.501909 199.915354 
L 200.327993 202.224837 
L 199.736377 202.811017 
L 197.474177 205.197904 
L 196.962276 205.70668 
L 194.620361 208.123946 
L 194.143919 208.602343 
L 191.766545 210.996224 
L 191.27642 211.498006 
L 188.912729 213.845582 
L 188.39064 214.393669 
L 186.058913 216.718767 
L 185.528606 217.289333 
L 183.205096 219.651299 
L 182.718509 220.184996 
L 180.35128 222.657866 
L 179.970279 223.080659 
L 177.497464 225.736725 
L 177.282311 225.976322 
L 174.646114 228.871985 
L 174.643648 228.874643 
L 171.97045 231.767648 
L 171.789832 231.966276 
L 169.303982 234.663311 
L 168.936016 235.073358 
L 166.636305 237.558974 
L 166.0822 238.180696 
L 163.963708 240.454638 
L 163.228384 241.282634 
L 161.292115 243.350301 
L 160.374568 244.389296 
L 158.639376 246.245964 
L 157.520752 247.53032 
L 156.034389 249.141627 
L 154.666936 250.75437 
L 153.512205 252.03729 
L 151.81312 254.124553 
L 151.108745 254.932953 
L 148.959303 257.711608 
L 148.860738 257.828616 
L 146.643425 260.724279 
L 146.105487 261.482124 
L 144.493108 263.619943 
L 143.251671 265.421261 
L 142.430122 266.515606 
L 140.46231 269.411269 
L 140.397855 269.511451 
L 138.492534 272.306932 
L 137.544039 273.773167 
L 136.534038 275.202595 
L 134.690223 278.050139 
L 134.655233 278.098258 
L 132.981321 280.993921 
L 131.861896 283.889584 
L 131.836407 284.005498 
L 131.004457 286.785248 
L 129.982212 289.680911 
L 128.982591 291.940958 
L 128.662849 292.576574 
L 127.069864 295.472237 
L 126.128775 297.174543 
L 125.408877 298.3679 
L 124.257467 301.263563 
L 123.982852 304.159226 
L 124.395552 307.054889 
L 125.889591 309.950553 
z
M 136.68264 295.472237 
L 136.746335 292.576574 
L 136.493631 289.680911 
L 136.999213 286.785248 
L 137.544039 285.37106 
L 138.112711 283.889584 
L 139.209836 280.993921 
L 140.397855 278.560894 
L 140.594881 278.098258 
L 142.065229 275.202595 
L 143.251671 273.448486 
L 143.903976 272.306932 
L 145.961332 269.411269 
L 146.105487 269.199211 
L 147.812805 266.515606 
L 148.959303 264.87587 
L 149.780128 263.619943 
L 151.81312 260.808158 
L 151.86865 260.724279 
L 153.816753 257.828616 
L 154.666936 256.651992 
L 155.833062 254.932953 
L 157.520752 252.727158 
L 157.995267 252.03729 
L 160.319478 249.141627 
L 160.374568 249.078674 
L 162.722478 246.245964 
L 163.228384 245.675332 
L 165.160596 243.350301 
L 166.0822 242.317644 
L 167.635153 240.454638 
L 168.936016 239.005388 
L 170.153521 237.558974 
L 171.789832 235.753005 
L 172.724479 234.663311 
L 174.643648 232.57638 
L 175.355677 231.767648 
L 177.497464 229.483649 
L 178.051836 228.871985 
L 180.35128 226.471435 
L 180.812046 225.976322 
L 183.205096 223.524783 
L 183.626487 223.080659 
L 186.058913 220.619563 
L 186.47544 220.184996 
L 188.912729 217.727303 
L 189.333371 217.289333 
L 191.766545 214.821899 
L 192.176884 214.393669 
L 194.620361 211.886174 
L 194.991739 211.498006 
L 197.474177 208.916131 
L 197.775638 208.602343 
L 200.327993 205.922214 
L 200.537895 205.70668 
L 203.181809 202.928329 
L 203.298982 202.811017 
L 206.035625 199.969392 
L 206.091659 199.915354 
L 208.889441 197.086971 
L 208.962653 197.019691 
L 211.743257 194.321905 
L 211.970832 194.124028 
L 214.597073 191.704244 
L 215.176378 191.228364 
L 217.450889 189.244634 
L 218.619907 188.332701 
L 220.304706 186.933559 
L 222.303038 185.437038 
L 223.158522 184.751009 
L 226.012338 182.692724 
L 226.255786 182.541375 
L 228.866154 180.792193 
L 230.754544 179.645712 
L 231.71997 179.003268 
L 234.573786 177.265488 
L 235.411278 176.750049 
L 237.427602 175.458832 
L 240.010928 173.854386 
L 240.281418 173.67759 
L 243.135234 171.583048 
L 244.032552 170.958723 
L 245.98905 169.482118 
L 248.063041 168.063059 
L 248.842866 167.475787 
L 251.696682 165.592866 
L 252.555234 165.167396 
L 254.550498 163.980126 
L 257.404315 163.447501 
L 258.584444 165.167396 
L 258.302077 168.063059 
L 257.448689 170.958723 
L 257.404315 171.051841 
L 256.210336 173.854386 
L 254.94976 176.750049 
L 254.550498 177.756091 
L 253.894261 179.645712 
L 253.436191 182.541375 
L 252.820225 185.437038 
L 251.696682 188.082923 
L 251.610862 188.332701 
L 249.765863 191.228364 
L 248.842866 192.468242 
L 247.750942 194.124028 
L 245.98905 196.457142 
L 245.60502 197.019691 
L 243.375573 199.915354 
L 243.135234 200.207535 
L 241.082799 202.811017 
L 240.281418 203.771152 
L 238.682308 205.70668 
L 237.427602 207.182104 
L 236.189733 208.602343 
L 234.573786 210.467639 
L 233.628345 211.498006 
L 231.71997 213.669473 
L 231.02784 214.393669 
L 228.866154 216.834521 
L 228.421413 217.289333 
L 226.012338 220.004412 
L 225.835493 220.184996 
L 223.247957 223.080659 
L 223.158522 223.177529 
L 220.593266 225.976322 
L 220.304706 226.282884 
L 217.874931 228.871985 
L 217.450889 229.312232 
L 215.077338 231.767648 
L 214.597073 232.255169 
L 212.19715 234.663311 
L 211.743257 235.116106 
L 209.246678 237.558974 
L 208.889441 237.91204 
L 206.251076 240.454638 
L 206.035625 240.667335 
L 203.240491 243.350301 
L 203.181809 243.408475 
L 200.327993 246.172044 
L 200.254962 246.245964 
L 197.474177 248.970909 
L 197.303481 249.141627 
L 194.620361 251.782917 
L 194.361666 252.03729 
L 191.766545 254.583862 
L 191.403054 254.932953 
L 188.912729 257.347307 
L 188.396563 257.828616 
L 186.058913 260.049709 
L 185.311533 260.724279 
L 183.205096 262.675332 
L 182.125053 263.619943 
L 180.35128 265.219833 
L 178.830069 266.515606 
L 177.497464 267.69042 
L 175.437921 269.411269 
L 174.643648 270.100711 
L 171.968927 272.306932 
L 171.789832 272.461281 
L 168.936016 274.958756 
L 168.653953 275.202595 
L 166.0822 277.502523 
L 165.371701 278.098258 
L 163.228384 280.002561 
L 162.001185 280.993921 
L 160.374568 282.423585 
L 158.484707 283.889584 
L 157.520752 284.724383 
L 154.757742 286.785248 
L 154.666936 286.86255 
L 151.81312 288.992844 
L 150.768886 289.680911 
L 148.959303 291.025021 
L 146.592861 292.576574 
L 146.105487 292.939734 
L 143.251671 294.647518 
L 141.742334 295.472237 
L 140.397855 296.262557 
L 137.544039 296.807052 
z
" style="fill:#d0daea;"/>
   </g>
   <g id="PathCollection_3">
    <path clip-path="url(#p7a740c2356)" d="M 137.544039 296.807052 
L 140.397855 296.262557 
L 141.742334 295.472237 
L 143.251671 294.647518 
L 146.105487 292.939734 
L 146.592861 292.576574 
L 148.959303 291.025021 
L 150.768886 289.680911 
L 151.81312 288.992844 
L 154.666936 286.86255 
L 154.757742 286.785248 
L 157.520752 284.724383 
L 158.484707 283.889584 
L 160.374568 282.423585 
L 162.001185 280.993921 
L 163.228384 280.002561 
L 165.371701 278.098258 
L 166.0822 277.502523 
L 168.653953 275.202595 
L 168.936016 274.958756 
L 171.789832 272.461281 
L 171.968927 272.306932 
L 174.643648 270.100711 
L 175.437921 269.411269 
L 177.497464 267.69042 
L 178.830069 266.515606 
L 180.35128 265.219833 
L 182.125053 263.619943 
L 183.205096 262.675332 
L 185.311533 260.724279 
L 186.058913 260.049709 
L 188.396563 257.828616 
L 188.912729 257.347307 
L 191.403054 254.932953 
L 191.766545 254.583862 
L 194.361666 252.03729 
L 194.620361 251.782917 
L 197.303481 249.141627 
L 197.474177 248.970909 
L 200.254962 246.245964 
L 200.327993 246.172044 
L 203.181809 243.408475 
L 203.240491 243.350301 
L 206.035625 240.667335 
L 206.251076 240.454638 
L 208.889441 237.91204 
L 209.246678 237.558974 
L 211.743257 235.116106 
L 212.19715 234.663311 
L 214.597073 232.255169 
L 215.077338 231.767648 
L 217.450889 229.312232 
L 217.874931 228.871985 
L 220.304706 226.282884 
L 220.593266 225.976322 
L 223.158522 223.177529 
L 223.247957 223.080659 
L 225.835493 220.184996 
L 226.012338 220.004412 
L 228.421413 217.289333 
L 228.866154 216.834521 
L 231.02784 214.393669 
L 231.71997 213.669473 
L 233.628345 211.498006 
L 234.573786 210.467639 
L 236.189733 208.602343 
L 237.427602 207.182104 
L 238.682308 205.70668 
L 240.281418 203.771152 
L 241.082799 202.811017 
L 243.135234 200.207535 
L 243.375573 199.915354 
L 245.60502 197.019691 
L 245.98905 196.457142 
L 247.750942 194.124028 
L 248.842866 192.468242 
L 249.765863 191.228364 
L 251.610862 188.332701 
L 251.696682 188.082923 
L 252.820225 185.437038 
L 253.436191 182.541375 
L 253.894261 179.645712 
L 254.550498 177.756091 
L 254.94976 176.750049 
L 256.210336 173.854386 
L 257.404315 171.051841 
L 257.448689 170.958723 
L 258.302077 168.063059 
L 258.584444 165.167396 
L 257.404315 163.447501 
L 254.550498 163.980126 
L 252.555234 165.167396 
L 251.696682 165.592866 
L 248.842866 167.475787 
L 248.063041 168.063059 
L 245.98905 169.482118 
L 244.032552 170.958723 
L 243.135234 171.583048 
L 240.281418 173.67759 
L 240.010928 173.854386 
L 237.427602 175.458832 
L 235.411278 176.750049 
L 234.573786 177.265488 
L 231.71997 179.003268 
L 230.754544 179.645712 
L 228.866154 180.792193 
L 226.255786 182.541375 
L 226.012338 182.692724 
L 223.158522 184.751009 
L 222.303038 185.437038 
L 220.304706 186.933559 
L 218.619907 188.332701 
L 217.450889 189.244634 
L 215.176378 191.228364 
L 214.597073 191.704244 
L 211.970832 194.124028 
L 211.743257 194.321905 
L 208.962653 197.019691 
L 208.889441 197.086971 
L 206.091659 199.915354 
L 206.035625 199.969392 
L 203.298982 202.811017 
L 203.181809 202.928329 
L 200.537895 205.70668 
L 200.327993 205.922214 
L 197.775638 208.602343 
L 197.474177 208.916131 
L 194.991739 211.498006 
L 194.620361 211.886174 
L 192.176884 214.393669 
L 191.766545 214.821899 
L 189.333371 217.289333 
L 188.912729 217.727303 
L 186.47544 220.184996 
L 186.058913 220.619563 
L 183.626487 223.080659 
L 183.205096 223.524783 
L 180.812046 225.976322 
L 180.35128 226.471435 
L 178.051836 228.871985 
L 177.497464 229.483649 
L 175.355677 231.767648 
L 174.643648 232.57638 
L 172.724479 234.663311 
L 171.789832 235.753005 
L 170.153521 237.558974 
L 168.936016 239.005388 
L 167.635153 240.454638 
L 166.0822 242.317644 
L 165.160596 243.350301 
L 163.228384 245.675332 
L 162.722478 246.245964 
L 160.374568 249.078674 
L 160.319478 249.141627 
L 157.995267 252.03729 
L 157.520752 252.727158 
L 155.833062 254.932953 
L 154.666936 256.651992 
L 153.816753 257.828616 
L 151.86865 260.724279 
L 151.81312 260.808158 
L 149.780128 263.619943 
L 148.959303 264.87587 
L 147.812805 266.515606 
L 146.105487 269.199211 
L 145.961332 269.411269 
L 143.903976 272.306932 
L 143.251671 273.448486 
L 142.065229 275.202595 
L 140.594881 278.098258 
L 140.397855 278.560894 
L 139.209836 280.993921 
L 138.112711 283.889584 
L 137.544039 285.37106 
L 136.999213 286.785248 
L 136.493631 289.680911 
L 136.746335 292.576574 
L 136.68264 295.472237 
z
M 146.016833 283.889584 
L 144.942607 280.993921 
L 144.856969 278.098258 
L 145.686835 275.202595 
L 146.105487 274.489743 
L 147.208234 272.306932 
L 148.959303 269.577746 
L 149.051319 269.411269 
L 150.991167 266.515606 
L 151.81312 265.471804 
L 153.100844 263.619943 
L 154.666936 261.66083 
L 155.332488 260.724279 
L 157.520752 257.990383 
L 157.636839 257.828616 
L 159.640912 254.932953 
L 160.374568 253.997747 
L 161.687279 252.03729 
L 163.228384 250.095594 
L 163.877845 249.141627 
L 166.0822 246.389896 
L 166.182931 246.245964 
L 168.330307 243.350301 
L 168.936016 242.640393 
L 170.574418 240.454638 
L 171.789832 239.054778 
L 172.95886 237.558974 
L 174.643648 235.658254 
L 175.457587 234.663311 
L 177.497464 232.414137 
L 178.05081 231.767648 
L 180.35128 229.287926 
L 180.72213 228.871985 
L 183.205096 226.246957 
L 183.4547 225.976322 
L 186.058913 223.260579 
L 186.229258 223.080659 
L 188.912729 220.301557 
L 189.025307 220.184996 
L 191.766545 217.348497 
L 191.824639 217.289333 
L 194.614166 214.393669 
L 194.620361 214.387312 
L 197.384695 211.498006 
L 197.474177 211.404941 
L 200.166677 208.602343 
L 200.327993 208.432952 
L 202.98303 205.70668 
L 203.181809 205.497794 
L 205.865395 202.811017 
L 206.035625 202.634256 
L 208.854988 199.915354 
L 208.889441 199.880524 
L 211.743257 197.285867 
L 212.085338 197.019691 
L 214.597073 194.891314 
L 215.645529 194.124028 
L 217.450889 192.70082 
L 219.576603 191.228364 
L 220.304706 190.690558 
L 223.158522 188.884563 
L 224.091213 188.332701 
L 226.012338 187.189095 
L 228.866154 185.461249 
L 228.898492 185.437038 
L 231.71997 183.322762 
L 232.775943 182.541375 
L 234.573786 181.191426 
L 236.697566 179.645712 
L 237.427602 179.097041 
L 240.281418 177.014876 
L 240.681145 176.750049 
L 243.135234 174.954786 
L 244.872407 173.854386 
L 245.98905 173.063018 
L 248.842866 171.77072 
L 250.944827 173.854386 
L 250.419495 176.750049 
L 249.511564 179.645712 
L 248.842866 181.227047 
L 248.314581 182.541375 
L 247.218133 185.437038 
L 246.128431 188.332701 
L 245.98905 188.83174 
L 245.403672 191.228364 
L 244.187726 194.124028 
L 243.135234 195.904476 
L 242.551555 197.019691 
L 240.577242 199.915354 
L 240.281418 200.283303 
L 238.326296 202.811017 
L 237.427602 203.87715 
L 235.895663 205.70668 
L 234.573786 207.197435 
L 233.302452 208.602343 
L 231.71997 210.306229 
L 230.568687 211.498006 
L 228.866154 213.268327 
L 227.730125 214.393669 
L 226.012338 216.147043 
L 224.839355 217.289333 
L 223.158522 219.002655 
L 221.956727 220.184996 
L 220.304706 221.888332 
L 219.129834 223.080659 
L 217.450889 224.838856 
L 216.373643 225.976322 
L 214.597073 227.856254 
L 213.667478 228.871985 
L 211.743257 230.909369 
L 210.972678 231.767648 
L 208.889441 233.956479 
L 208.256229 234.663311 
L 206.035625 236.970791 
L 205.502893 237.558974 
L 203.181809 239.946198 
L 202.712504 240.454638 
L 200.327993 242.887221 
L 199.890566 243.350301 
L 197.474177 245.797862 
L 197.040017 246.245964 
L 194.620361 248.67609 
L 194.157083 249.141627 
L 191.766545 251.513726 
L 191.231229 252.03729 
L 188.912729 254.300036 
L 188.248874 254.932953 
L 186.058913 257.027454 
L 185.200312 257.828616 
L 183.205096 259.696986 
L 182.086869 260.724279 
L 180.35128 262.31985 
L 178.922223 263.619943 
L 177.497464 264.912827 
L 175.723754 266.515606 
L 174.643648 267.488835 
L 172.498609 269.411269 
L 171.789832 270.048085 
L 169.234054 272.306932 
L 168.936016 272.57429 
L 166.0822 275.049088 
L 165.894438 275.202595 
L 163.228384 277.459978 
L 162.403568 278.098258 
L 160.374568 279.757942 
L 158.684943 280.993921 
L 157.520752 281.912848 
L 154.680662 283.889584 
L 154.666936 283.900086 
L 151.81312 285.3294 
L 148.959303 286.637981 
L 146.105487 284.188981 
z
" style="fill:#aebfdc;"/>
   </g>
   <g id="PathCollection_4">
    <path clip-path="url(#p7a740c2356)" d="M 146.105487 284.188981 
L 148.959303 286.637981 
L 151.81312 285.3294 
L 154.666936 283.900086 
L 154.680662 283.889584 
L 157.520752 281.912848 
L 158.684943 280.993921 
L 160.374568 279.757942 
L 162.403568 278.098258 
L 163.228384 277.459978 
L 165.894438 275.202595 
L 166.0822 275.049088 
L 168.936016 272.57429 
L 169.234054 272.306932 
L 171.789832 270.048085 
L 172.498609 269.411269 
L 174.643648 267.488835 
L 175.723754 266.515606 
L 177.497464 264.912827 
L 178.922223 263.619943 
L 180.35128 262.31985 
L 182.086869 260.724279 
L 183.205096 259.696986 
L 185.200312 257.828616 
L 186.058913 257.027454 
L 188.248874 254.932953 
L 188.912729 254.300036 
L 191.231229 252.03729 
L 191.766545 251.513726 
L 194.157083 249.141627 
L 194.620361 248.67609 
L 197.040017 246.245964 
L 197.474177 245.797862 
L 199.890566 243.350301 
L 200.327993 242.887221 
L 202.712504 240.454638 
L 203.181809 239.946198 
L 205.502893 237.558974 
L 206.035625 236.970791 
L 208.256229 234.663311 
L 208.889441 233.956479 
L 210.972678 231.767648 
L 211.743257 230.909369 
L 213.667478 228.871985 
L 214.597073 227.856254 
L 216.373643 225.976322 
L 217.450889 224.838856 
L 219.129834 223.080659 
L 220.304706 221.888332 
L 221.956727 220.184996 
L 223.158522 219.002655 
L 224.839355 217.289333 
L 226.012338 216.147043 
L 227.730125 214.393669 
L 228.866154 213.268327 
L 230.568687 211.498006 
L 231.71997 210.306229 
L 233.302452 208.602343 
L 234.573786 207.197435 
L 235.895663 205.70668 
L 237.427602 203.87715 
L 238.326296 202.811017 
L 240.281418 200.283303 
L 240.577242 199.915354 
L 242.551555 197.019691 
L 243.135234 195.904476 
L 244.187726 194.124028 
L 245.403672 191.228364 
L 245.98905 188.83174 
L 246.128431 188.332701 
L 247.218133 185.437038 
L 248.314581 182.541375 
L 248.842866 181.227047 
L 249.511564 179.645712 
L 250.419495 176.750049 
L 250.944827 173.854386 
L 248.842866 171.77072 
L 245.98905 173.063018 
L 244.872407 173.854386 
L 243.135234 174.954786 
L 240.681145 176.750049 
L 240.281418 177.014876 
L 237.427602 179.097041 
L 236.697566 179.645712 
L 234.573786 181.191426 
L 232.775943 182.541375 
L 231.71997 183.322762 
L 228.898492 185.437038 
L 228.866154 185.461249 
L 226.012338 187.189095 
L 224.091213 188.332701 
L 223.158522 188.884563 
L 220.304706 190.690558 
L 219.576603 191.228364 
L 217.450889 192.70082 
L 215.645529 194.124028 
L 214.597073 194.891314 
L 212.085338 197.019691 
L 211.743257 197.285867 
L 208.889441 199.880524 
L 208.854988 199.915354 
L 206.035625 202.634256 
L 205.865395 202.811017 
L 203.181809 205.497794 
L 202.98303 205.70668 
L 200.327993 208.432952 
L 200.166677 208.602343 
L 197.474177 211.404941 
L 197.384695 211.498006 
L 194.620361 214.387312 
L 194.614166 214.393669 
L 191.824639 217.289333 
L 191.766545 217.348497 
L 189.025307 220.184996 
L 188.912729 220.301557 
L 186.229258 223.080659 
L 186.058913 223.260579 
L 183.4547 225.976322 
L 183.205096 226.246957 
L 180.72213 228.871985 
L 180.35128 229.287926 
L 178.05081 231.767648 
L 177.497464 232.414137 
L 175.457587 234.663311 
L 174.643648 235.658254 
L 172.95886 237.558974 
L 171.789832 239.054778 
L 170.574418 240.454638 
L 168.936016 242.640393 
L 168.330307 243.350301 
L 166.182931 246.245964 
L 166.0822 246.389896 
L 163.877845 249.141627 
L 163.228384 250.095594 
L 161.687279 252.03729 
L 160.374568 253.997747 
L 159.640912 254.932953 
L 157.636839 257.828616 
L 157.520752 257.990383 
L 155.332488 260.724279 
L 154.666936 261.66083 
L 153.100844 263.619943 
L 151.81312 265.471804 
L 150.991167 266.515606 
L 149.051319 269.411269 
L 148.959303 269.577746 
L 147.208234 272.306932 
L 146.105487 274.489743 
L 145.686835 275.202595 
L 144.856969 278.098258 
L 144.942607 280.993921 
L 146.016833 283.889584 
z
M 155.969488 278.098258 
L 154.666936 277.780441 
L 151.81312 276.018835 
L 151.166078 275.202595 
L 150.601832 272.306932 
L 151.570181 269.411269 
L 151.81312 269.057189 
L 153.328443 266.515606 
L 154.666936 264.646956 
L 155.316377 263.619943 
L 157.429499 260.724279 
L 157.520752 260.610273 
L 159.516931 257.828616 
L 160.374568 256.748454 
L 161.683494 254.932953 
L 163.228384 252.963938 
L 163.900194 252.03729 
L 166.0822 249.228163 
L 166.145621 249.141627 
L 168.194444 246.245964 
L 168.936016 245.330889 
L 170.374822 243.350301 
L 171.789832 241.633018 
L 172.684734 240.454638 
L 174.643648 238.129578 
L 175.098403 237.558974 
L 177.497464 234.78617 
L 177.600274 234.663311 
L 180.115546 231.767648 
L 180.35128 231.513545 
L 182.706474 228.871985 
L 183.205096 228.344834 
L 185.389542 225.976322 
L 186.058913 225.278284 
L 188.139587 223.080659 
L 188.912729 222.279964 
L 190.936124 220.184996 
L 191.766545 219.325717 
L 193.766093 217.289333 
L 194.620361 216.402962 
L 196.626638 214.393669 
L 197.474177 213.512047 
L 199.527316 211.498006 
L 200.327993 210.666909 
L 202.492282 208.602343 
L 203.181809 207.894748 
L 205.563074 205.70668 
L 206.035625 205.23363 
L 208.801009 202.811017 
L 208.889441 202.726039 
L 211.743257 200.440376 
L 212.567525 199.915354 
L 214.597073 198.440782 
L 216.963528 197.019691 
L 217.450889 196.695796 
L 220.304706 194.757767 
L 221.203689 194.124028 
L 223.158522 192.709077 
L 225.178141 191.228364 
L 226.012338 190.614297 
L 228.866154 188.434622 
L 228.996675 188.332701 
L 231.71997 186.099895 
L 232.599734 185.437038 
L 234.573786 183.855806 
L 236.394199 182.541375 
L 237.427602 181.73758 
L 240.281418 179.848305 
L 240.928571 179.645712 
L 243.135234 178.833284 
L 244.287467 179.645712 
L 244.251263 182.541375 
L 243.464758 185.437038 
L 243.135234 186.235332 
L 242.284747 188.332701 
L 241.121349 191.228364 
L 240.281418 193.40356 
L 240.001748 194.124028 
L 238.917326 197.019691 
L 237.491263 199.915354 
L 237.427602 200.001737 
L 235.512487 202.811017 
L 234.573786 203.95053 
L 233.230219 205.70668 
L 231.71997 207.374616 
L 230.690781 208.602343 
L 228.866154 210.486736 
L 227.962254 211.498006 
L 226.012338 213.439827 
L 225.125078 214.393669 
L 223.158522 216.333182 
L 222.24926 217.289333 
L 220.304706 219.224649 
L 219.381355 220.184996 
L 217.450889 222.143988 
L 216.545737 223.080659 
L 214.597073 225.103666 
L 213.751841 225.976322 
L 211.743257 228.105787 
L 211.000235 228.871985 
L 208.889441 231.145376 
L 208.285378 231.767648 
L 206.035625 234.211091 
L 205.595949 234.663311 
L 203.181809 237.285004 
L 202.914617 237.558974 
L 200.327993 240.343279 
L 200.218771 240.454638 
L 197.482513 243.350301 
L 197.474177 243.358744 
L 194.676787 246.245964 
L 194.620361 246.302634 
L 191.795145 249.141627 
L 191.766545 249.170007 
L 188.912729 251.953723 
L 188.826525 252.03729 
L 186.058913 254.662912 
L 185.776717 254.932953 
L 183.205096 257.323578 
L 182.671693 257.828616 
L 180.35128 259.958693 
L 179.535064 260.724279 
L 177.497464 262.582535 
L 176.379183 263.619943 
L 174.643648 265.195842 
L 173.197324 266.515606 
L 171.789832 267.785028 
L 169.961462 269.411269 
L 168.936016 270.324213 
L 166.623409 272.306932 
L 166.0822 272.778688 
L 163.228384 275.039232 
L 162.949579 275.202595 
L 160.374568 276.726592 
L 157.794237 278.098258 
L 157.520752 278.245489 
z
" style="fill:#8ea6ce;"/>
   </g>
   <g id="PathCollection_5">
    <path clip-path="url(#p7a740c2356)" d="M 157.520752 278.245489 
L 157.794237 278.098258 
L 160.374568 276.726592 
L 162.949579 275.202595 
L 163.228384 275.039232 
L 166.0822 272.778688 
L 166.623409 272.306932 
L 168.936016 270.324213 
L 169.961462 269.411269 
L 171.789832 267.785028 
L 173.197324 266.515606 
L 174.643648 265.195842 
L 176.379183 263.619943 
L 177.497464 262.582535 
L 179.535064 260.724279 
L 180.35128 259.958693 
L 182.671693 257.828616 
L 183.205096 257.323578 
L 185.776717 254.932953 
L 186.058913 254.662912 
L 188.826525 252.03729 
L 188.912729 251.953723 
L 191.766545 249.170007 
L 191.795145 249.141627 
L 194.620361 246.302634 
L 194.676787 246.245964 
L 197.474177 243.358744 
L 197.482513 243.350301 
L 200.218771 240.454638 
L 200.327993 240.343279 
L 202.914617 237.558974 
L 203.181809 237.285004 
L 205.595949 234.663311 
L 206.035625 234.211091 
L 208.285378 231.767648 
L 208.889441 231.145376 
L 211.000235 228.871985 
L 211.743257 228.105787 
L 213.751841 225.976322 
L 214.597073 225.103666 
L 216.545737 223.080659 
L 217.450889 222.143988 
L 219.381355 220.184996 
L 220.304706 219.224649 
L 222.24926 217.289333 
L 223.158522 216.333182 
L 225.125078 214.393669 
L 226.012338 213.439827 
L 227.962254 211.498006 
L 228.866154 210.486736 
L 230.690781 208.602343 
L 231.71997 207.374616 
L 233.230219 205.70668 
L 234.573786 203.95053 
L 235.512487 202.811017 
L 237.427602 200.001737 
L 237.491263 199.915354 
L 238.917326 197.019691 
L 240.001748 194.124028 
L 240.281418 193.40356 
L 241.121349 191.228364 
L 242.284747 188.332701 
L 243.135234 186.235332 
L 243.464758 185.437038 
L 244.251263 182.541375 
L 244.287467 179.645712 
L 243.135234 178.833284 
L 240.928571 179.645712 
L 240.281418 179.848305 
L 237.427602 181.73758 
L 236.394199 182.541375 
L 234.573786 183.855806 
L 232.599734 185.437038 
L 231.71997 186.099895 
L 228.996675 188.332701 
L 228.866154 188.434622 
L 226.012338 190.614297 
L 225.178141 191.228364 
L 223.158522 192.709077 
L 221.203689 194.124028 
L 220.304706 194.757767 
L 217.450889 196.695796 
L 216.963528 197.019691 
L 214.597073 198.440782 
L 212.567525 199.915354 
L 211.743257 200.440376 
L 208.889441 202.726039 
L 208.801009 202.811017 
L 206.035625 205.23363 
L 205.563074 205.70668 
L 203.181809 207.894748 
L 202.492282 208.602343 
L 200.327993 210.666909 
L 199.527316 211.498006 
L 197.474177 213.512047 
L 196.626638 214.393669 
L 194.620361 216.402962 
L 193.766093 217.289333 
L 191.766545 219.325717 
L 190.936124 220.184996 
L 188.912729 222.279964 
L 188.139587 223.080659 
L 186.058913 225.278284 
L 185.389542 225.976322 
L 183.205096 228.344834 
L 182.706474 228.871985 
L 180.35128 231.513545 
L 180.115546 231.767648 
L 177.600274 234.663311 
L 177.497464 234.78617 
L 175.098403 237.558974 
L 174.643648 238.129578 
L 172.684734 240.454638 
L 171.789832 241.633018 
L 170.374822 243.350301 
L 168.936016 245.330889 
L 168.194444 246.245964 
L 166.145621 249.141627 
L 166.0822 249.228163 
L 163.900194 252.03729 
L 163.228384 252.963938 
L 161.683494 254.932953 
L 160.374568 256.748454 
L 159.516931 257.828616 
L 157.520752 260.610273 
L 157.429499 260.724279 
L 155.316377 263.619943 
L 154.666936 264.646956 
L 153.328443 266.515606 
L 151.81312 269.057189 
L 151.570181 269.411269 
L 150.601832 272.306932 
L 151.166078 275.202595 
L 151.81312 276.018835 
L 154.666936 277.780441 
L 155.969488 278.098258 
z
M 155.953188 269.411269 
L 155.940915 266.515606 
L 157.248723 263.619943 
L 157.520752 263.248435 
L 159.188837 260.724279 
L 160.374568 259.115462 
L 161.253777 257.828616 
L 163.228384 255.142073 
L 163.375144 254.932953 
L 165.477686 252.03729 
L 166.0822 251.259035 
L 167.634023 249.141627 
L 168.936016 247.459789 
L 169.84228 246.245964 
L 171.789832 243.746817 
L 172.093937 243.350301 
L 174.34664 240.454638 
L 174.643648 240.102115 
L 176.670459 237.558974 
L 177.497464 236.603133 
L 179.12074 234.663311 
L 180.35128 233.280827 
L 181.677879 231.767648 
L 183.205096 230.097901 
L 184.326723 228.871985 
L 186.058913 227.022476 
L 187.05382 225.976322 
L 188.912729 224.029168 
L 189.847841 223.080659 
L 191.766545 221.101273 
L 192.70274 220.184996 
L 194.620361 218.233112 
L 195.622445 217.289333 
L 197.474177 215.43216 
L 198.626722 214.393669 
L 200.327993 212.721122 
L 201.759146 211.498006 
L 203.181809 210.13986 
L 205.098529 208.602343 
L 206.035625 207.745486 
L 208.771698 205.70668 
L 208.889441 205.605327 
L 211.743257 203.472231 
L 212.75409 202.811017 
L 214.597073 201.472301 
L 216.98131 199.915354 
L 217.450889 199.580842 
L 220.304706 197.456948 
L 220.862962 197.019691 
L 223.158522 195.164099 
L 224.460385 194.124028 
L 226.012338 192.842328 
L 228.035269 191.228364 
L 228.866154 190.53914 
L 231.691758 188.332701 
L 231.71997 188.309571 
L 234.573786 186.491556 
L 236.756427 185.437038 
L 237.427602 185.065239 
L 238.230728 185.437038 
L 238.468396 188.332701 
L 237.524563 191.228364 
L 237.427602 191.450244 
L 236.255631 194.124028 
L 234.987637 197.019691 
L 234.573786 197.991846 
L 233.765289 199.915354 
L 232.31521 202.811017 
L 231.71997 203.648562 
L 230.437945 205.70668 
L 228.866154 207.642961 
L 228.193303 208.602343 
L 226.012338 211.068841 
L 225.682753 211.498006 
L 223.158522 214.217427 
L 223.013163 214.393669 
L 220.304706 217.239842 
L 220.261398 217.289333 
L 217.47466 220.184996 
L 217.450889 220.209117 
L 214.675973 223.080659 
L 214.597073 223.162569 
L 211.871742 225.976322 
L 211.743257 226.112539 
L 209.067278 228.871985 
L 208.889441 229.063521 
L 206.26444 231.767648 
L 206.035625 232.016162 
L 203.461905 234.663311 
L 203.181809 234.967488 
L 200.654438 237.558974 
L 200.327993 237.910368 
L 197.832534 240.454638 
L 197.474177 240.833861 
L 194.983573 243.350301 
L 194.620361 243.725548 
L 192.094865 246.245964 
L 191.766545 246.575582 
L 189.157929 249.141627 
L 188.912729 249.380565 
L 186.172169 252.03729 
L 186.058913 252.144736 
L 183.205096 254.852497 
L 183.117038 254.932953 
L 180.35128 257.467375 
L 179.944513 257.828616 
L 177.497464 260.027708 
L 176.682798 260.724279 
L 174.643648 262.510651 
L 173.283615 263.619943 
L 171.789832 264.878867 
L 169.660714 266.515606 
L 168.936016 267.091314 
L 166.0822 268.828983 
L 163.228384 269.312476 
L 162.763311 269.411269 
L 160.374568 270.038571 
L 157.520752 270.306857 
z
" style="fill:#6e8dc0;"/>
   </g>
   <g id="PathCollection_6">
    <path clip-path="url(#p7a740c2356)" d="M 157.520752 270.306857 
L 160.374568 270.038571 
L 162.763311 269.411269 
L 163.228384 269.312476 
L 166.0822 268.828983 
L 168.936016 267.091314 
L 169.660714 266.515606 
L 171.789832 264.878867 
L 173.283615 263.619943 
L 174.643648 262.510651 
L 176.682798 260.724279 
L 177.497464 260.027708 
L 179.944513 257.828616 
L 180.35128 257.467375 
L 183.117038 254.932953 
L 183.205096 254.852497 
L 186.058913 252.144736 
L 186.172169 252.03729 
L 188.912729 249.380565 
L 189.157929 249.141627 
L 191.766545 246.575582 
L 192.094865 246.245964 
L 194.620361 243.725548 
L 194.983573 243.350301 
L 197.474177 240.833861 
L 197.832534 240.454638 
L 200.327993 237.910368 
L 200.654438 237.558974 
L 203.181809 234.967488 
L 203.461905 234.663311 
L 206.035625 232.016162 
L 206.26444 231.767648 
L 208.889441 229.063521 
L 209.067278 228.871985 
L 211.743257 226.112539 
L 211.871742 225.976322 
L 214.597073 223.162569 
L 214.675973 223.080659 
L 217.450889 220.209117 
L 217.47466 220.184996 
L 220.261398 217.289333 
L 220.304706 217.239842 
L 223.013163 214.393669 
L 223.158522 214.217427 
L 225.682753 211.498006 
L 226.012338 211.068841 
L 228.193303 208.602343 
L 228.866154 207.642961 
L 230.437945 205.70668 
L 231.71997 203.648562 
L 232.31521 202.811017 
L 233.765289 199.915354 
L 234.573786 197.991846 
L 234.987637 197.019691 
L 236.255631 194.124028 
L 237.427602 191.450244 
L 237.524563 191.228364 
L 238.468396 188.332701 
L 238.230728 185.437038 
L 237.427602 185.065239 
L 236.756427 185.437038 
L 234.573786 186.491556 
L 231.71997 188.309571 
L 231.691758 188.332701 
L 228.866154 190.53914 
L 228.035269 191.228364 
L 226.012338 192.842328 
L 224.460385 194.124028 
L 223.158522 195.164099 
L 220.862962 197.019691 
L 220.304706 197.456948 
L 217.450889 199.580842 
L 216.98131 199.915354 
L 214.597073 201.472301 
L 212.75409 202.811017 
L 211.743257 203.472231 
L 208.889441 205.605327 
L 208.771698 205.70668 
L 206.035625 207.745486 
L 205.098529 208.602343 
L 203.181809 210.13986 
L 201.759146 211.498006 
L 200.327993 212.721122 
L 198.626722 214.393669 
L 197.474177 215.43216 
L 195.622445 217.289333 
L 194.620361 218.233112 
L 192.70274 220.184996 
L 191.766545 221.101273 
L 189.847841 223.080659 
L 188.912729 224.029168 
L 187.05382 225.976322 
L 186.058913 227.022476 
L 184.326723 228.871985 
L 183.205096 230.097901 
L 181.677879 231.767648 
L 180.35128 233.280827 
L 179.12074 234.663311 
L 177.497464 236.603133 
L 176.670459 237.558974 
L 174.643648 240.102115 
L 174.34664 240.454638 
L 172.093937 243.350301 
L 171.789832 243.746817 
L 169.84228 246.245964 
L 168.936016 247.459789 
L 167.634023 249.141627 
L 166.0822 251.259035 
L 165.477686 252.03729 
L 163.375144 254.932953 
L 163.228384 255.142073 
L 161.253777 257.828616 
L 160.374568 259.115462 
L 159.188837 260.724279 
L 157.520752 263.248435 
L 157.248723 263.619943 
L 155.940915 266.515606 
L 155.953188 269.411269 
z
M 160.102715 263.619943 
L 160.374568 262.981892 
L 161.281147 260.724279 
L 162.870467 257.828616 
L 163.228384 257.341654 
L 164.918806 254.932953 
L 166.0822 253.340523 
L 167.019092 252.03729 
L 168.936016 249.403053 
L 169.12857 249.141627 
L 171.277751 246.245964 
L 171.789832 245.588849 
L 173.506667 243.350301 
L 174.643648 241.917136 
L 175.804181 240.454638 
L 177.497464 238.379645 
L 178.174629 237.558974 
L 180.35128 234.985439 
L 180.628315 234.663311 
L 183.17546 231.767648 
L 183.205096 231.735245 
L 185.824779 228.871985 
L 186.058913 228.621994 
L 188.574983 225.976322 
L 188.912729 225.622543 
L 191.418712 223.080659 
L 191.766545 222.721825 
L 194.358519 220.184996 
L 194.620361 219.918475 
L 197.411927 217.289333 
L 197.474177 217.2269 
L 200.327993 214.632875 
L 200.617178 214.393669 
L 203.181809 212.154212 
L 204.032406 211.498006 
L 206.035625 209.829179 
L 207.740528 208.602343 
L 208.889441 207.692138 
L 211.743257 205.749186 
L 211.802677 205.70668 
L 214.597073 203.654572 
L 215.752396 202.811017 
L 217.450889 201.531364 
L 219.586585 199.915354 
L 220.304706 199.35429 
L 223.158522 197.140725 
L 223.329194 197.019691 
L 226.012338 195.016685 
L 227.317963 194.124028 
L 228.866154 192.986766 
L 231.642628 191.228364 
L 231.71997 191.174564 
L 231.916329 191.228364 
L 232.551579 194.124028 
L 231.71997 196.125808 
L 231.352711 197.019691 
L 230.026659 199.915354 
L 228.866154 202.476346 
L 228.711953 202.811017 
L 227.292304 205.70668 
L 226.012338 207.82247 
L 225.583341 208.602343 
L 223.482576 211.498006 
L 223.158522 211.847119 
L 221.058222 214.393669 
L 220.304706 215.1855 
L 218.463724 217.289333 
L 217.450889 218.341242 
L 215.752093 220.184996 
L 214.597073 221.378338 
L 212.954717 223.080659 
L 211.743257 224.329498 
L 210.08827 225.976322 
L 208.889441 227.210914 
L 207.160845 228.871985 
L 206.035625 230.030098 
L 204.176434 231.767648 
L 203.181809 232.790404 
L 201.138519 234.663311 
L 200.327993 235.494755 
L 198.053754 237.558974 
L 197.474177 238.150213 
L 194.935572 240.454638 
L 194.620361 240.772856 
L 191.804461 243.350301 
L 191.766545 243.387972 
L 188.912729 246.085596 
L 188.728301 246.245964 
L 186.058913 248.78487 
L 185.64179 249.141627 
L 183.205096 251.44004 
L 182.47978 252.03729 
L 180.35128 253.997385 
L 179.1365 254.932953 
L 177.497464 256.376352 
L 175.40807 257.828616 
L 174.643648 258.45398 
L 171.789832 260.315441 
L 171.046229 260.724279 
L 168.936016 262.074462 
L 166.0822 263.413622 
L 165.529159 263.619943 
L 163.228384 264.60888 
L 160.374568 264.293927 
z
" style="fill:#5174ad;"/>
   </g>
   <g id="PathCollection_7">
    <path clip-path="url(#p7a740c2356)" d="M 160.374568 264.293927 
L 163.228384 264.60888 
L 165.529159 263.619943 
L 166.0822 263.413622 
L 168.936016 262.074462 
L 171.046229 260.724279 
L 171.789832 260.315441 
L 174.643648 258.45398 
L 175.40807 257.828616 
L 177.497464 256.376352 
L 179.1365 254.932953 
L 180.35128 253.997385 
L 182.47978 252.03729 
L 183.205096 251.44004 
L 185.64179 249.141627 
L 186.058913 248.78487 
L 188.728301 246.245964 
L 188.912729 246.085596 
L 191.766545 243.387972 
L 191.804461 243.350301 
L 194.620361 240.772856 
L 194.935572 240.454638 
L 197.474177 238.150213 
L 198.053754 237.558974 
L 200.327993 235.494755 
L 201.138519 234.663311 
L 203.181809 232.790404 
L 204.176434 231.767648 
L 206.035625 230.030098 
L 207.160845 228.871985 
L 208.889441 227.210914 
L 210.08827 225.976322 
L 211.743257 224.329498 
L 212.954717 223.080659 
L 214.597073 221.378338 
L 215.752093 220.184996 
L 217.450889 218.341242 
L 218.463724 217.289333 
L 220.304706 215.1855 
L 221.058222 214.393669 
L 223.158522 211.847119 
L 223.482576 211.498006 
L 225.583341 208.602343 
L 226.012338 207.82247 
L 227.292304 205.70668 
L 228.711953 202.811017 
L 228.866154 202.476346 
L 230.026659 199.915354 
L 231.352711 197.019691 
L 231.71997 196.125808 
L 232.551579 194.124028 
L 231.916329 191.228364 
L 231.71997 191.174564 
L 231.642628 191.228364 
L 228.866154 192.986766 
L 227.317963 194.124028 
L 226.012338 195.016685 
L 223.329194 197.019691 
L 223.158522 197.140725 
L 220.304706 199.35429 
L 219.586585 199.915354 
L 217.450889 201.531364 
L 215.752396 202.811017 
L 214.597073 203.654572 
L 211.802677 205.70668 
L 211.743257 205.749186 
L 208.889441 207.692138 
L 207.740528 208.602343 
L 206.035625 209.829179 
L 204.032406 211.498006 
L 203.181809 212.154212 
L 200.617178 214.393669 
L 200.327993 214.632875 
L 197.474177 217.2269 
L 197.411927 217.289333 
L 194.620361 219.918475 
L 194.358519 220.184996 
L 191.766545 222.721825 
L 191.418712 223.080659 
L 188.912729 225.622543 
L 188.574983 225.976322 
L 186.058913 228.621994 
L 185.824779 228.871985 
L 183.205096 231.735245 
L 183.17546 231.767648 
L 180.628315 234.663311 
L 180.35128 234.985439 
L 178.174629 237.558974 
L 177.497464 238.379645 
L 175.804181 240.454638 
L 174.643648 241.917136 
L 173.506667 243.350301 
L 171.789832 245.588849 
L 171.277751 246.245964 
L 169.12857 249.141627 
L 168.936016 249.403053 
L 167.019092 252.03729 
L 166.0822 253.340523 
L 164.918806 254.932953 
L 163.228384 257.341654 
L 162.870467 257.828616 
L 161.281147 260.724279 
L 160.374568 262.981892 
L 160.102715 263.619943 
z
M 165.375153 257.828616 
L 166.0822 256.351711 
L 166.765796 254.932953 
L 168.538078 252.03729 
L 168.936016 251.490444 
L 170.666038 249.141627 
L 171.789832 247.601427 
L 172.814952 246.245964 
L 174.643648 243.771242 
L 174.971564 243.350301 
L 177.217252 240.454638 
L 177.497464 240.111258 
L 179.603445 237.558974 
L 180.35128 236.674781 
L 182.081176 234.663311 
L 183.205096 233.386052 
L 184.656208 231.767648 
L 186.058913 230.235913 
L 187.333448 228.871985 
L 188.912729 227.211774 
L 190.116625 225.976322 
L 191.766545 224.302757 
L 193.011791 223.080659 
L 194.620361 221.504411 
L 196.033446 220.184996 
L 197.474177 218.822024 
L 199.211724 217.289333 
L 200.327993 216.272571 
L 202.599471 214.393669 
L 203.181809 213.885167 
L 206.035625 211.681494 
L 206.281528 211.498006 
L 208.889441 209.555363 
L 210.213028 208.602343 
L 211.743257 207.483875 
L 214.227635 205.70668 
L 214.597073 205.435377 
L 217.450889 203.479759 
L 218.420494 202.811017 
L 220.304706 201.491052 
L 222.526934 199.915354 
L 223.158522 199.452591 
L 226.012338 199.144318 
L 226.258088 199.915354 
L 226.012338 200.469545 
L 224.963205 202.811017 
L 223.693681 205.70668 
L 223.158522 206.870377 
L 222.378473 208.602343 
L 220.780367 211.498006 
L 220.304706 212.127046 
L 218.745564 214.393669 
L 217.450889 215.954233 
L 216.429709 217.289333 
L 214.597073 219.329452 
L 213.876334 220.184996 
L 211.743257 222.409327 
L 211.128123 223.080659 
L 208.889441 225.300585 
L 208.225485 225.976322 
L 206.035625 228.072569 
L 205.205434 228.871985 
L 203.181809 230.767956 
L 202.099595 231.767648 
L 200.327993 233.411307 
L 198.933141 234.663311 
L 197.474177 236.015981 
L 195.725468 237.558974 
L 194.620361 238.589431 
L 192.490364 240.454638 
L 191.766545 241.135648 
L 189.231406 243.350301 
L 188.912729 243.652617 
L 186.058913 246.157043 
L 185.950614 246.245964 
L 183.205096 248.687266 
L 182.631571 249.141627 
L 180.35128 251.115296 
L 179.12124 252.03729 
L 177.497464 253.379555 
L 175.256177 254.932953 
L 174.643648 255.407344 
L 171.789832 257.173696 
L 170.554884 257.828616 
L 168.936016 258.744329 
L 166.0822 259.404243 
z
" style="fill:#3f5e91;"/>
   </g>
   <g id="PathCollection_8">
    <path clip-path="url(#p7a740c2356)" d="M 166.0822 259.404243 
L 168.936016 258.744329 
L 170.554884 257.828616 
L 171.789832 257.173696 
L 174.643648 255.407344 
L 175.256177 254.932953 
L 177.497464 253.379555 
L 179.12124 252.03729 
L 180.35128 251.115296 
L 182.631571 249.141627 
L 183.205096 248.687266 
L 185.950614 246.245964 
L 186.058913 246.157043 
L 188.912729 243.652617 
L 189.231406 243.350301 
L 191.766545 241.135648 
L 192.490364 240.454638 
L 194.620361 238.589431 
L 195.725468 237.558974 
L 197.474177 236.015981 
L 198.933141 234.663311 
L 200.327993 233.411307 
L 202.099595 231.767648 
L 203.181809 230.767956 
L 205.205434 228.871985 
L 206.035625 228.072569 
L 208.225485 225.976322 
L 208.889441 225.300585 
L 211.128123 223.080659 
L 211.743257 222.409327 
L 213.876334 220.184996 
L 214.597073 219.329452 
L 216.429709 217.289333 
L 217.450889 215.954233 
L 218.745564 214.393669 
L 220.304706 212.127046 
L 220.780367 211.498006 
L 222.378473 208.602343 
L 223.158522 206.870377 
L 223.693681 205.70668 
L 224.963205 202.811017 
L 226.012338 200.469545 
L 226.258088 199.915354 
L 226.012338 199.144318 
L 223.158522 199.452591 
L 222.526934 199.915354 
L 220.304706 201.491052 
L 218.420494 202.811017 
L 217.450889 203.479759 
L 214.597073 205.435377 
L 214.227635 205.70668 
L 211.743257 207.483875 
L 210.213028 208.602343 
L 208.889441 209.555363 
L 206.281528 211.498006 
L 206.035625 211.681494 
L 203.181809 213.885167 
L 202.599471 214.393669 
L 200.327993 216.272571 
L 199.211724 217.289333 
L 197.474177 218.822024 
L 196.033446 220.184996 
L 194.620361 221.504411 
L 193.011791 223.080659 
L 191.766545 224.302757 
L 190.116625 225.976322 
L 188.912729 227.211774 
L 187.333448 228.871985 
L 186.058913 230.235913 
L 184.656208 231.767648 
L 183.205096 233.386052 
L 182.081176 234.663311 
L 180.35128 236.674781 
L 179.603445 237.558974 
L 177.497464 240.111258 
L 177.217252 240.454638 
L 174.971564 243.350301 
L 174.643648 243.771242 
L 172.814952 246.245964 
L 171.789832 247.601427 
L 170.666038 249.141627 
L 168.936016 251.490444 
L 168.538078 252.03729 
L 166.765796 254.932953 
L 166.0822 256.351711 
L 165.375153 257.828616 
z
M 171.062106 252.03729 
L 171.789832 250.635109 
L 172.614873 249.141627 
L 174.408567 246.245964 
L 174.643648 245.927836 
L 176.651561 243.350301 
L 177.497464 242.233236 
L 178.928916 240.454638 
L 180.35128 238.642913 
L 181.254335 237.558974 
L 183.205096 235.185306 
L 183.655651 234.663311 
L 186.058913 231.888259 
L 186.166862 231.767648 
L 188.844083 228.871985 
L 188.912729 228.799822 
L 191.664111 225.976322 
L 191.766545 225.872421 
L 194.611188 223.080659 
L 194.620361 223.07167 
L 197.474177 220.457099 
L 197.773058 220.184996 
L 200.327993 217.980807 
L 201.143422 217.289333 
L 203.181809 215.628639 
L 204.743395 214.393669 
L 206.035625 213.39328 
L 208.575588 211.498006 
L 208.889441 211.264216 
L 211.743257 209.400749 
L 212.978865 208.602343 
L 214.597073 207.57624 
L 217.414325 205.70668 
L 217.450889 205.682447 
L 217.693074 205.70668 
L 218.670576 208.602343 
L 217.450889 211.492667 
L 217.448732 211.498006 
L 215.915563 214.393669 
L 214.597073 216.305236 
L 213.993414 217.289333 
L 211.743257 220.089335 
L 211.675244 220.184996 
L 209.032207 223.080659 
L 208.889441 223.222229 
L 206.183361 225.976322 
L 206.035625 226.117742 
L 203.181809 228.865785 
L 203.175734 228.871985 
L 200.327993 231.51979 
L 200.068614 231.767648 
L 197.474177 234.131005 
L 196.889012 234.663311 
L 194.620361 236.709903 
L 193.653667 237.558974 
L 191.766545 239.257433 
L 190.36976 240.454638 
L 188.912729 241.767173 
L 187.028909 243.350301 
L 186.058913 244.222596 
L 183.594611 246.245964 
L 183.205096 246.592318 
L 180.35128 248.771109 
L 179.812194 249.141627 
L 177.497464 250.757506 
L 175.508488 252.03729 
L 174.643648 252.606669 
L 171.789832 253.555534 
z
" style="fill:#314971;"/>
   </g>
   <g id="PathCollection_9">
    <path clip-path="url(#p7a740c2356)" d="M 171.789832 253.555534 
L 174.643648 252.606669 
L 175.508488 252.03729 
L 177.497464 250.757506 
L 179.812194 249.141627 
L 180.35128 248.771109 
L 183.205096 246.592318 
L 183.594611 246.245964 
L 186.058913 244.222596 
L 187.028909 243.350301 
L 188.912729 241.767173 
L 190.36976 240.454638 
L 191.766545 239.257433 
L 193.653667 237.558974 
L 194.620361 236.709903 
L 196.889012 234.663311 
L 197.474177 234.131005 
L 200.068614 231.767648 
L 200.327993 231.51979 
L 203.175734 228.871985 
L 203.181809 228.865785 
L 206.035625 226.117742 
L 206.183361 225.976322 
L 208.889441 223.222229 
L 209.032207 223.080659 
L 211.675244 220.184996 
L 211.743257 220.089335 
L 213.993414 217.289333 
L 214.597073 216.305236 
L 215.915563 214.393669 
L 217.448732 211.498006 
L 217.450889 211.492667 
L 218.670576 208.602343 
L 217.693074 205.70668 
L 217.450889 205.682447 
L 217.414325 205.70668 
L 214.597073 207.57624 
L 212.978865 208.602343 
L 211.743257 209.400749 
L 208.889441 211.264216 
L 208.575588 211.498006 
L 206.035625 213.39328 
L 204.743395 214.393669 
L 203.181809 215.628639 
L 201.143422 217.289333 
L 200.327993 217.980807 
L 197.773058 220.184996 
L 197.474177 220.457099 
L 194.620361 223.07167 
L 194.611188 223.080659 
L 191.766545 225.872421 
L 191.664111 225.976322 
L 188.912729 228.799822 
L 188.844083 228.871985 
L 186.166862 231.767648 
L 186.058913 231.888259 
L 183.655651 234.663311 
L 183.205096 235.185306 
L 181.254335 237.558974 
L 180.35128 238.642913 
L 178.928916 240.454638 
L 177.497464 242.233236 
L 176.651561 243.350301 
L 174.643648 245.927836 
L 174.408567 246.245964 
L 172.614873 249.141627 
L 171.789832 250.635109 
L 171.062106 252.03729 
z
M 177.46681 246.245964 
L 177.497464 246.192965 
L 177.870018 246.245964 
L 177.497464 246.310077 
z
M 179.272082 243.350301 
L 180.35128 241.620138 
L 181.121765 240.454638 
L 183.149103 237.558974 
L 183.205096 237.490842 
L 185.645653 234.663311 
L 186.058913 234.18612 
L 188.223488 231.767648 
L 188.912729 231.015198 
L 190.907635 228.871985 
L 191.766545 227.987032 
L 193.725544 225.976322 
L 194.620361 225.107018 
L 196.706422 223.080659 
L 197.474177 222.377813 
L 199.882795 220.184996 
L 200.327993 219.800916 
L 203.181809 217.423482 
L 203.359729 217.289333 
L 206.035625 215.420185 
L 207.530499 214.393669 
L 208.889441 213.512134 
L 211.743257 212.105626 
L 212.607694 214.393669 
L 211.743257 216.032814 
L 211.114215 217.289333 
L 209.208326 220.184996 
L 208.889441 220.537733 
L 206.831539 223.080659 
L 206.035625 223.890895 
L 204.158365 225.976322 
L 203.181809 226.916828 
L 201.266084 228.871985 
L 200.327993 229.744214 
L 198.210509 231.767648 
L 197.474177 232.438397 
L 195.028327 234.663311 
L 194.620361 235.031345 
L 191.766545 237.525569 
L 191.723908 237.558974 
L 188.912729 239.734055 
L 187.96439 240.454638 
L 186.058913 241.90425 
L 184.110036 243.350301 
L 183.205096 244.027841 
L 180.35128 245.754965 
z
" style="fill:#233451;"/>
   </g>
   <g id="PathCollection_10">
    <path clip-path="url(#p7a740c2356)" d="M 177.497464 246.310077 
L 177.870018 246.245964 
L 177.497464 246.192965 
L 177.46681 246.245964 
z
" style="fill:#151f2f;"/>
    <path clip-path="url(#p7a740c2356)" d="M 180.35128 245.754965 
L 183.205096 244.027841 
L 184.110036 243.350301 
L 186.058913 241.90425 
L 187.96439 240.454638 
L 188.912729 239.734055 
L 191.723908 237.558974 
L 191.766545 237.525569 
L 194.620361 235.031345 
L 195.028327 234.663311 
L 197.474177 232.438397 
L 198.210509 231.767648 
L 200.327993 229.744214 
L 201.266084 228.871985 
L 203.181809 226.916828 
L 204.158365 225.976322 
L 206.035625 223.890895 
L 206.831539 223.080659 
L 208.889441 220.537733 
L 209.208326 220.184996 
L 211.114215 217.289333 
L 211.743257 216.032814 
L 212.607694 214.393669 
L 211.743257 212.105626 
L 208.889441 213.512134 
L 207.530499 214.393669 
L 206.035625 215.420185 
L 203.359729 217.289333 
L 203.181809 217.423482 
L 200.327993 219.800916 
L 199.882795 220.184996 
L 197.474177 222.377813 
L 196.706422 223.080659 
L 194.620361 225.107018 
L 193.725544 225.976322 
L 191.766545 227.987032 
L 190.907635 228.871985 
L 188.912729 231.015198 
L 188.223488 231.767648 
L 186.058913 234.18612 
L 185.645653 234.663311 
L 183.205096 237.490842 
L 183.149103 237.558974 
L 181.121765 240.454638 
L 180.35128 241.620138 
L 179.272082 243.350301 
z
M 190.079745 234.663311 
L 191.388614 231.767648 
L 191.766545 231.34205 
L 193.871631 228.871985 
L 194.620361 228.097188 
L 196.60695 225.976322 
L 197.474177 225.15668 
L 199.646648 223.080659 
L 200.327993 222.497735 
L 203.058097 220.184996 
L 203.181809 220.089675 
L 206.035625 219.799273 
L 206.153111 220.184996 
L 206.035625 220.344908 
L 204.055056 223.080659 
L 203.181809 224.1021 
L 201.569966 225.976322 
L 200.327993 227.248544 
L 198.710934 228.871985 
L 197.474177 230.006858 
L 195.506019 231.767648 
L 194.620361 232.515134 
L 192.015376 234.663311 
L 191.766545 234.861957 
z
" style="fill:#151f2f;"/>
   </g>
   <g id="PathCollection_11">
    <path clip-path="url(#p7a740c2356)" d="M 191.766545 234.861957 
L 192.015376 234.663311 
L 194.620361 232.515134 
L 195.506019 231.767648 
L 197.474177 230.006858 
L 198.710934 228.871985 
L 200.327993 227.248544 
L 201.569966 225.976322 
L 203.181809 224.1021 
L 204.055056 223.080659 
L 206.035625 220.344908 
L 206.153111 220.184996 
L 206.035625 219.799273 
L 203.181809 220.089675 
L 203.058097 220.184996 
L 200.327993 222.497735 
L 199.646648 223.080659 
L 197.474177 225.15668 
L 196.60695 225.976322 
L 194.620361 228.097188 
L 193.871631 228.871985 
L 191.766545 231.34205 
L 191.388614 231.767648 
L 190.079745 234.663311 
z
" style="fill:#070a0f;"/>
   </g>
   <g id="patch_3">
    <path d="M 29.241719 393.78 
L 29.241719 78.442286 
" style="fill:none;stroke:#ffffff;stroke-linecap:square;stroke-linejoin:miter;stroke-width:1.25;"/>
   </g>
   <g id="patch_4">
    <path d="M 29.241719 393.78 
L 340.02229 393.78 
" style="fill:none;stroke:#ffffff;stroke-linecap:square;stroke-linejoin:miter;stroke-width:1.25;"/>
   </g>
  </g>
  <g id="axes_2">
   <g id="patch_5">
    <path d="M 29.241719 67.568571 
L 340.02229 67.568571 
L 340.02229 13.2 
L 29.241719 13.2 
z
" style="fill:#eaeaf2;"/>
   </g>
   <g id="matplotlib.axis_3">
    <g id="xtick_6">
     <g id="line2d_15">
      <path clip-path="url(#p0a88dcbbaf)" d="M 61.143682 67.568571 
L 61.143682 13.2 
" style="fill:none;stroke:#ffffff;stroke-linecap:round;"/>
     </g>
    </g>
    <g id="xtick_7">
     <g id="line2d_16">
      <path clip-path="url(#p0a88dcbbaf)" d="M 129.736719 67.568571 
L 129.736719 13.2 
" style="fill:none;stroke:#ffffff;stroke-linecap:round;"/>
     </g>
    </g>
    <g id="xtick_8">
     <g id="line2d_17">
      <path clip-path="url(#p0a88dcbbaf)" d="M 198.329757 67.568571 
L 198.329757 13.2 
" style="fill:none;stroke:#ffffff;stroke-linecap:round;"/>
     </g>
    </g>
    <g id="xtick_9">
     <g id="line2d_18">
      <path clip-path="url(#p0a88dcbbaf)" d="M 266.922795 67.568571 
L 266.922795 13.2 
" style="fill:none;stroke:#ffffff;stroke-linecap:round;"/>
     </g>
    </g>
    <g id="xtick_10">
     <g id="line2d_19">
      <path clip-path="url(#p0a88dcbbaf)" d="M 335.515832 67.568571 
L 335.515832 13.2 
" style="fill:none;stroke:#ffffff;stroke-linecap:round;"/>
     </g>
    </g>
   </g>
   <g id="matplotlib.axis_4">
    <g id="ytick_10"/>
    <g id="ytick_11"/>
   </g>
   <g id="PolyCollection_1">
    <defs>
     <path d="M 49.800827 -352.973701 
L 49.800827 -352.971272 
L 52.524689 -352.971272 
L 55.248551 -352.971272 
L 57.972413 -352.971272 
L 60.696275 -352.971272 
L 63.420137 -352.971272 
L 66.144 -352.971272 
L 68.867862 -352.971272 
L 71.591724 -352.971272 
L 74.315586 -352.971272 
L 77.039448 -352.971272 
L 79.763311 -352.971272 
L 82.487173 -352.971272 
L 85.211035 -352.971272 
L 87.934897 -352.971272 
L 90.658759 -352.971272 
L 93.382621 -352.971272 
L 96.106484 -352.971272 
L 98.830346 -352.971272 
L 101.554208 -352.971272 
L 104.27807 -352.971272 
L 107.001932 -352.971272 
L 109.725794 -352.971272 
L 112.449657 -352.971272 
L 115.173519 -352.971272 
L 117.897381 -352.971272 
L 120.621243 -352.971272 
L 123.345105 -352.971272 
L 126.068968 -352.971272 
L 128.79283 -352.971272 
L 131.516692 -352.971272 
L 134.240554 -352.971272 
L 136.964416 -352.971272 
L 139.688278 -352.971272 
L 142.412141 -352.971272 
L 145.136003 -352.971272 
L 147.859865 -352.971272 
L 150.583727 -352.971272 
L 153.307589 -352.971272 
L 156.031452 -352.971272 
L 158.755314 -352.971272 
L 161.479176 -352.971272 
L 164.203038 -352.971272 
L 166.9269 -352.971272 
L 169.650762 -352.971272 
L 172.374625 -352.971272 
L 175.098487 -352.971272 
L 177.822349 -352.971272 
L 180.546211 -352.971272 
L 183.270073 -352.971272 
L 185.993936 -352.971272 
L 188.717798 -352.971272 
L 191.44166 -352.971272 
L 194.165522 -352.971272 
L 196.889384 -352.971272 
L 199.613246 -352.971272 
L 202.337109 -352.971272 
L 205.060971 -352.971272 
L 207.784833 -352.971272 
L 210.508695 -352.971272 
L 213.232557 -352.971272 
L 215.95642 -352.971272 
L 218.680282 -352.971272 
L 221.404144 -352.971272 
L 224.128006 -352.971272 
L 226.851868 -352.971272 
L 229.57573 -352.971272 
L 232.299593 -352.971272 
L 235.023455 -352.971272 
L 237.747317 -352.971272 
L 240.471179 -352.971272 
L 243.195041 -352.971272 
L 245.918904 -352.971272 
L 248.642766 -352.971272 
L 251.366628 -352.971272 
L 254.09049 -352.971272 
L 256.814352 -352.971272 
L 259.538214 -352.971272 
L 262.262077 -352.971272 
L 264.985939 -352.971272 
L 267.709801 -352.971272 
L 270.433663 -352.971272 
L 273.157525 -352.971272 
L 275.881388 -352.971272 
L 278.60525 -352.971272 
L 281.329112 -352.971272 
L 284.052974 -352.971272 
L 286.776836 -352.971272 
L 289.500698 -352.971272 
L 292.224561 -352.971272 
L 294.948423 -352.971272 
L 297.672285 -352.971272 
L 300.396147 -352.971272 
L 303.120009 -352.971272 
L 305.843872 -352.971272 
L 308.567734 -352.971272 
L 311.291596 -352.971272 
L 314.015458 -352.971272 
L 316.73932 -352.971272 
L 319.463182 -352.971272 
L 319.463182 -352.975946 
L 319.463182 -352.975946 
L 316.73932 -352.983912 
L 314.015458 -353.002067 
L 311.291596 -353.038895 
L 308.567734 -353.105184 
L 305.843872 -353.210628 
L 303.120009 -353.358004 
L 300.396147 -353.537493 
L 297.672285 -353.725601 
L 294.948423 -353.89204 
L 292.224561 -354.01324 
L 289.500698 -354.086048 
L 286.776836 -354.134399 
L 284.052974 -354.206408 
L 281.329112 -354.36526 
L 278.60525 -354.67893 
L 275.881388 -355.210652 
L 273.157525 -356.008492 
L 270.433663 -357.092714 
L 267.709801 -358.444004 
L 264.985939 -360.000588 
L 262.262077 -361.67333 
L 259.538214 -363.380634 
L 256.814352 -365.090338 
L 254.09049 -366.843109 
L 251.366628 -368.735504 
L 248.642766 -370.864813 
L 245.918904 -373.266393 
L 243.195041 -375.88252 
L 240.471179 -378.580505 
L 237.747317 -381.204517 
L 235.023455 -383.62848 
L 232.299593 -385.78764 
L 229.57573 -387.68818 
L 226.851868 -389.404036 
L 224.128006 -391.061766 
L 221.404144 -392.804602 
L 218.680282 -394.734586 
L 215.95642 -396.854447 
L 213.232557 -399.04489 
L 210.508695 -401.098527 
L 207.784833 -402.796307 
L 205.060971 -403.985269 
L 202.337109 -404.619158 
L 199.613246 -404.750864 
L 196.889384 -404.49388 
L 194.165522 -403.979032 
L 191.44166 -403.320997 
L 188.717798 -402.592659 
L 185.993936 -401.803121 
L 183.270073 -400.88888 
L 180.546211 -399.736607 
L 177.822349 -398.24015 
L 175.098487 -396.363227 
L 172.374625 -394.165796 
L 169.650762 -391.774795 
L 166.9269 -389.320007 
L 164.203038 -386.877898 
L 161.479176 -384.455156 
L 158.755314 -382.013796 
L 156.031452 -379.515441 
L 153.307589 -376.957183 
L 150.583727 -374.382903 
L 147.859865 -371.870985 
L 145.136003 -369.510612 
L 142.412141 -367.378805 
L 139.688278 -365.522986 
L 136.964416 -363.948643 
L 134.240554 -362.614656 
L 131.516692 -361.443943 
L 128.79283 -360.353026 
L 126.068968 -359.289357 
L 123.345105 -358.253832 
L 120.621243 -357.292413 
L 117.897381 -356.462395 
L 115.173519 -355.79647 
L 112.449657 -355.286523 
L 109.725794 -354.892435 
L 107.001932 -354.564948 
L 104.27807 -354.266974 
L 101.554208 -353.983653 
L 98.830346 -353.720154 
L 96.106484 -353.492031 
L 93.382621 -353.314494 
L 90.658759 -353.19529 
L 87.934897 -353.132578 
L 85.211035 -353.116346 
L 82.487173 -353.131136 
L 79.763311 -353.158984 
L 77.039448 -353.182743 
L 74.315586 -353.189857 
L 71.591724 -353.175418 
L 68.867862 -353.1427 
L 66.144 -353.100503 
L 63.420137 -353.058686 
L 60.696275 -353.024319 
L 57.972413 -353.000151 
L 55.248551 -352.985376 
L 52.524689 -352.977452 
L 49.800827 -352.973701 
z
" id="md9102bb974" style="stroke:#ffffff;stroke-opacity:0.25;"/>
    </defs>
    <g clip-path="url(#p0a88dcbbaf)">
     <use style="fill:#4c72b0;fill-opacity:0.25;stroke:#ffffff;stroke-opacity:0.25;" x="0" xlink:href="#md9102bb974" y="420.539844"/>
    </g>
   </g>
   <g id="line2d_20">
    <path clip-path="url(#p0a88dcbbaf)" d="M 49.800827 67.566143 
L 52.524689 67.562392 
L 55.248551 67.554467 
L 57.972413 67.539692 
L 60.696275 67.515524 
L 63.420137 67.481158 
L 66.144 67.439341 
L 68.867862 67.397144 
L 71.591724 67.364425 
L 74.315586 67.349987 
L 77.039448 67.357101 
L 79.763311 67.380859 
L 82.487173 67.408707 
L 85.211035 67.423498 
L 87.934897 67.407265 
L 90.658759 67.344554 
L 93.382621 67.22535 
L 96.106484 67.047813 
L 98.830346 66.819689 
L 101.554208 66.556191 
L 104.27807 66.27287 
L 107.001932 65.974896 
L 109.725794 65.647409 
L 112.449657 65.253321 
L 115.173519 64.743373 
L 117.897381 64.077449 
L 120.621243 63.247431 
L 123.345105 62.286012 
L 126.068968 61.250486 
L 128.79283 60.186818 
L 131.516692 59.095901 
L 134.240554 57.925188 
L 136.964416 56.5912 
L 139.688278 55.016858 
L 142.412141 53.161039 
L 145.136003 51.029232 
L 147.859865 48.668858 
L 150.583727 46.156941 
L 153.307589 43.582661 
L 156.031452 41.024403 
L 158.755314 38.526048 
L 161.479176 36.084688 
L 164.203038 33.661946 
L 166.9269 31.219836 
L 169.650762 28.765048 
L 172.374625 26.374048 
L 175.098487 24.176617 
L 177.822349 22.299694 
L 180.546211 20.803237 
L 183.270073 19.650964 
L 185.993936 18.736723 
L 188.717798 17.947184 
L 191.44166 17.218847 
L 194.165522 16.560812 
L 196.889384 16.045963 
L 199.613246 15.78898 
L 202.337109 15.920686 
L 205.060971 16.554575 
L 207.784833 17.743537 
L 210.508695 19.441317 
L 213.232557 21.494953 
L 215.95642 23.685397 
L 218.680282 25.805258 
L 221.404144 27.735242 
L 224.128006 29.478078 
L 226.851868 31.135808 
L 229.57573 32.851664 
L 232.299593 34.752203 
L 235.023455 36.911363 
L 237.747317 39.335327 
L 240.471179 41.959338 
L 243.195041 44.657323 
L 245.918904 47.273451 
L 248.642766 49.675031 
L 251.366628 51.80434 
L 254.09049 53.696734 
L 256.814352 55.449506 
L 259.538214 57.15921 
L 262.262077 58.866514 
L 264.985939 60.539255 
L 267.709801 62.09584 
L 270.433663 63.44713 
L 273.157525 64.531352 
L 275.881388 65.329192 
L 278.60525 65.860914 
L 281.329112 66.174584 
L 284.052974 66.333436 
L 286.776836 66.405445 
L 289.500698 66.453796 
L 292.224561 66.526604 
L 294.948423 66.647804 
L 297.672285 66.814243 
L 300.396147 67.002351 
L 303.120009 67.181839 
L 305.843872 67.329216 
L 308.567734 67.43466 
L 311.291596 67.500949 
L 314.015458 67.537777 
L 316.73932 67.555932 
L 319.463182 67.563897 
" style="fill:none;stroke:#4c72b0;stroke-linecap:round;stroke-width:1.5;"/>
   </g>
   <g id="patch_6">
    <path d="M 29.241719 67.568571 
L 340.02229 67.568571 
" style="fill:none;stroke:#ffffff;stroke-linecap:square;stroke-linejoin:miter;stroke-width:1.25;"/>
   </g>
  </g>
  <g id="axes_3">
   <g id="patch_7">
    <path d="M 350.738862 393.78 
L 404.321719 393.78 
L 404.321719 78.442286 
L 350.738862 78.442286 
z
" style="fill:#eaeaf2;"/>
   </g>
   <g id="matplotlib.axis_5">
    <g id="xtick_11"/>
    <g id="xtick_12"/>
   </g>
   <g id="matplotlib.axis_6">
    <g id="ytick_12">
     <g id="line2d_21">
      <path clip-path="url(#p823fb31bd9)" d="M 350.738862 371.322996 
L 404.321719 371.322996 
" style="fill:none;stroke:#ffffff;stroke-linecap:round;"/>
     </g>
    </g>
    <g id="ytick_13">
     <g id="line2d_22">
      <path clip-path="url(#p823fb31bd9)" d="M 350.738862 335.67519 
L 404.321719 335.67519 
" style="fill:none;stroke:#ffffff;stroke-linecap:round;"/>
     </g>
    </g>
    <g id="ytick_14">
     <g id="line2d_23">
      <path clip-path="url(#p823fb31bd9)" d="M 350.738862 300.027384 
L 404.321719 300.027384 
" style="fill:none;stroke:#ffffff;stroke-linecap:round;"/>
     </g>
    </g>
    <g id="ytick_15">
     <g id="line2d_24">
      <path clip-path="url(#p823fb31bd9)" d="M 350.738862 264.379578 
L 404.321719 264.379578 
" style="fill:none;stroke:#ffffff;stroke-linecap:round;"/>
     </g>
    </g>
    <g id="ytick_16">
     <g id="line2d_25">
      <path clip-path="url(#p823fb31bd9)" d="M 350.738862 228.731772 
L 404.321719 228.731772 
" style="fill:none;stroke:#ffffff;stroke-linecap:round;"/>
     </g>
    </g>
    <g id="ytick_17">
     <g id="line2d_26">
      <path clip-path="url(#p823fb31bd9)" d="M 350.738862 193.083967 
L 404.321719 193.083967 
" style="fill:none;stroke:#ffffff;stroke-linecap:round;"/>
     </g>
    </g>
    <g id="ytick_18">
     <g id="line2d_27">
      <path clip-path="url(#p823fb31bd9)" d="M 350.738862 157.436161 
L 404.321719 157.436161 
" style="fill:none;stroke:#ffffff;stroke-linecap:round;"/>
     </g>
    </g>
    <g id="ytick_19">
     <g id="line2d_28">
      <path clip-path="url(#p823fb31bd9)" d="M 350.738862 121.788355 
L 404.321719 121.788355 
" style="fill:none;stroke:#ffffff;stroke-linecap:round;"/>
     </g>
    </g>
    <g id="ytick_20">
     <g id="line2d_29">
      <path clip-path="url(#p823fb31bd9)" d="M 350.738862 86.140549 
L 404.321719 86.140549 
" style="fill:none;stroke:#ffffff;stroke-linecap:round;"/>
     </g>
    </g>
   </g>
   <g id="PolyCollection_2">
    <defs>
     <path d="M 350.741268 -47.795021 
L 350.738862 -47.795021 
L 350.738862 -50.555298 
L 350.738862 -53.315574 
L 350.738862 -56.075851 
L 350.738862 -58.836127 
L 350.738862 -61.596403 
L 350.738862 -64.35668 
L 350.738862 -67.116956 
L 350.738862 -69.877232 
L 350.738862 -72.637509 
L 350.738862 -75.397785 
L 350.738862 -78.158061 
L 350.738862 -80.918338 
L 350.738862 -83.678614 
L 350.738862 -86.43889 
L 350.738862 -89.199167 
L 350.738862 -91.959443 
L 350.738862 -94.719719 
L 350.738862 -97.479996 
L 350.738862 -100.240272 
L 350.738862 -103.000549 
L 350.738862 -105.760825 
L 350.738862 -108.521101 
L 350.738862 -111.281378 
L 350.738862 -114.041654 
L 350.738862 -116.80193 
L 350.738862 -119.562207 
L 350.738862 -122.322483 
L 350.738862 -125.082759 
L 350.738862 -127.843036 
L 350.738862 -130.603312 
L 350.738862 -133.363588 
L 350.738862 -136.123865 
L 350.738862 -138.884141 
L 350.738862 -141.644417 
L 350.738862 -144.404694 
L 350.738862 -147.16497 
L 350.738862 -149.925246 
L 350.738862 -152.685523 
L 350.738862 -155.445799 
L 350.738862 -158.206076 
L 350.738862 -160.966352 
L 350.738862 -163.726628 
L 350.738862 -166.486905 
L 350.738862 -169.247181 
L 350.738862 -172.007457 
L 350.738862 -174.767734 
L 350.738862 -177.52801 
L 350.738862 -180.288286 
L 350.738862 -183.048563 
L 350.738862 -185.808839 
L 350.738862 -188.569115 
L 350.738862 -191.329392 
L 350.738862 -194.089668 
L 350.738862 -196.849944 
L 350.738862 -199.610221 
L 350.738862 -202.370497 
L 350.738862 -205.130774 
L 350.738862 -207.89105 
L 350.738862 -210.651326 
L 350.738862 -213.411603 
L 350.738862 -216.171879 
L 350.738862 -218.932155 
L 350.738862 -221.692432 
L 350.738862 -224.452708 
L 350.738862 -227.212984 
L 350.738862 -229.973261 
L 350.738862 -232.733537 
L 350.738862 -235.493813 
L 350.738862 -238.25409 
L 350.738862 -241.014366 
L 350.738862 -243.774642 
L 350.738862 -246.534919 
L 350.738862 -249.295195 
L 350.738862 -252.055472 
L 350.738862 -254.815748 
L 350.738862 -257.576024 
L 350.738862 -260.336301 
L 350.738862 -263.096577 
L 350.738862 -265.856853 
L 350.738862 -268.61713 
L 350.738862 -271.377406 
L 350.738862 -274.137682 
L 350.738862 -276.897959 
L 350.738862 -279.658235 
L 350.738862 -282.418511 
L 350.738862 -285.178788 
L 350.738862 -287.939064 
L 350.738862 -290.69934 
L 350.738862 -293.459617 
L 350.738862 -296.219893 
L 350.738862 -298.980169 
L 350.738862 -301.740446 
L 350.738862 -304.500722 
L 350.738862 -307.260999 
L 350.738862 -310.021275 
L 350.738862 -312.781551 
L 350.738862 -315.541828 
L 350.738862 -318.302104 
L 350.738862 -321.06238 
L 350.741496 -321.06238 
L 350.741496 -321.06238 
L 350.74566 -318.302104 
L 350.754873 -315.541828 
L 350.773379 -312.781551 
L 350.807205 -310.021275 
L 350.863626 -307.260999 
L 350.949743 -304.500722 
L 351.070279 -301.740446 
L 351.22518 -298.980169 
L 351.407969 -296.219893 
L 351.606086 -293.459617 
L 351.804268 -290.69934 
L 351.991088 -287.939064 
L 352.1669 -285.178788 
L 352.349421 -282.418511 
L 352.572803 -279.658235 
L 352.878758 -276.897959 
L 353.303311 -274.137682 
L 353.86661 -271.377406 
L 354.571913 -268.61713 
L 355.413224 -265.856853 
L 356.384246 -263.096577 
L 357.481256 -260.336301 
L 358.700208 -257.576024 
L 360.036106 -254.815748 
L 361.491255 -252.055472 
L 363.087958 -249.295195 
L 364.871574 -246.534919 
L 366.893092 -243.774642 
L 369.176774 -241.014366 
L 371.693771 -238.25409 
L 374.361718 -235.493813 
L 377.071869 -232.733537 
L 379.72556 -229.973261 
L 382.258603 -227.212984 
L 384.646603 -224.452708 
L 386.899002 -221.692432 
L 389.050023 -218.932155 
L 391.144804 -216.171879 
L 393.215507 -213.411603 
L 395.252268 -210.651326 
L 397.186542 -207.89105 
L 398.903186 -205.130774 
L 400.279478 -202.370497 
L 401.228551 -199.610221 
L 401.720266 -196.849944 
L 401.770154 -194.089668 
L 401.412809 -191.329392 
L 400.687134 -188.569115 
L 399.645971 -185.808839 
L 398.374198 -183.048563 
L 396.984821 -180.288286 
L 395.579031 -177.52801 
L 394.192147 -174.767734 
L 392.76938 -172.007457 
L 391.199218 -169.247181 
L 389.388036 -166.486905 
L 387.325255 -163.726628 
L 385.094089 -160.966352 
L 382.823188 -158.206076 
L 380.61529 -155.445799 
L 378.500225 -152.685523 
L 376.43803 -149.925246 
L 374.363672 -147.16497 
L 372.241609 -144.404694 
L 370.097407 -141.644417 
L 368.010816 -138.884141 
L 366.077539 -136.123865 
L 364.362833 -133.363588 
L 362.8724 -130.603312 
L 361.555083 -127.843036 
L 360.333841 -125.082759 
L 359.146095 -122.322483 
L 357.970758 -119.562207 
L 356.829431 -116.80193 
L 355.766178 -114.041654 
L 354.822077 -111.281378 
L 354.01993 -108.521101 
L 353.363703 -105.760825 
L 352.846151 -103.000549 
L 352.45497 -100.240272 
L 352.173251 -97.479996 
L 351.977473 -94.719719 
L 351.838713 -91.959443 
L 351.728774 -89.199167 
L 351.627411 -86.43889 
L 351.525482 -83.678614 
L 351.422375 -80.918338 
L 351.320657 -78.158061 
L 351.222213 -75.397785 
L 351.12776 -72.637509 
L 351.038455 -69.877232 
L 350.957062 -67.116956 
L 350.887369 -64.35668 
L 350.832422 -61.596403 
L 350.793034 -58.836127 
L 350.767538 -56.075851 
L 350.752689 -53.315574 
L 350.744919 -50.555298 
L 350.741268 -47.795021 
z
" id="ma9ed5568e1" style="stroke:#ffffff;stroke-opacity:0.25;"/>
    </defs>
    <g clip-path="url(#p823fb31bd9)">
     <use style="fill:#4c72b0;fill-opacity:0.25;stroke:#ffffff;stroke-opacity:0.25;" x="0" xlink:href="#ma9ed5568e1" y="420.539844"/>
    </g>
   </g>
   <g id="line2d_30">
    <path clip-path="url(#p823fb31bd9)" d="M 350.741268 372.744822 
L 350.744919 369.984546 
L 350.752689 367.22427 
L 350.767538 364.463993 
L 350.793034 361.703717 
L 350.832422 358.943441 
L 350.887369 356.183164 
L 350.957062 353.422888 
L 351.038455 350.662611 
L 351.12776 347.902335 
L 351.222213 345.142059 
L 351.320657 342.381782 
L 351.422375 339.621506 
L 351.525482 336.86123 
L 351.627411 334.100953 
L 351.728774 331.340677 
L 351.838713 328.580401 
L 351.977473 325.820124 
L 352.173251 323.059848 
L 352.45497 320.299572 
L 352.846151 317.539295 
L 353.363703 314.779019 
L 354.01993 312.018743 
L 354.822077 309.258466 
L 355.766178 306.49819 
L 356.829431 303.737913 
L 357.970758 300.977637 
L 359.146095 298.217361 
L 360.333841 295.457084 
L 361.555083 292.696808 
L 362.8724 289.936532 
L 364.362833 287.176255 
L 366.077539 284.415979 
L 368.010816 281.655703 
L 370.097407 278.895426 
L 372.241609 276.13515 
L 374.363672 273.374874 
L 376.43803 270.614597 
L 378.500225 267.854321 
L 380.61529 265.094045 
L 382.823188 262.333768 
L 385.094089 259.573492 
L 387.325255 256.813215 
L 389.388036 254.052939 
L 391.199218 251.292663 
L 392.76938 248.532386 
L 394.192147 245.77211 
L 395.579031 243.011834 
L 396.984821 240.251557 
L 398.374198 237.491281 
L 399.645971 234.731005 
L 400.687134 231.970728 
L 401.412809 229.210452 
L 401.770154 226.450176 
L 401.720266 223.689899 
L 401.228551 220.929623 
L 400.279478 218.169347 
L 398.903186 215.40907 
L 397.186542 212.648794 
L 395.252268 209.888518 
L 393.215507 207.128241 
L 391.144804 204.367965 
L 389.050023 201.607688 
L 386.899002 198.847412 
L 384.646603 196.087136 
L 382.258603 193.326859 
L 379.72556 190.566583 
L 377.071869 187.806307 
L 374.361718 185.04603 
L 371.693771 182.285754 
L 369.176774 179.525478 
L 366.893092 176.765201 
L 364.871574 174.004925 
L 363.087958 171.244649 
L 361.491255 168.484372 
L 360.036106 165.724096 
L 358.700208 162.96382 
L 357.481256 160.203543 
L 356.384246 157.443267 
L 355.413224 154.68299 
L 354.571913 151.922714 
L 353.86661 149.162438 
L 353.303311 146.402161 
L 352.878758 143.641885 
L 352.572803 140.881609 
L 352.349421 138.121332 
L 352.1669 135.361056 
L 351.991088 132.60078 
L 351.804268 129.840503 
L 351.606086 127.080227 
L 351.407969 124.319951 
L 351.22518 121.559674 
L 351.070279 118.799398 
L 350.949743 116.039122 
L 350.863626 113.278845 
L 350.807205 110.518569 
L 350.773379 107.758292 
L 350.754873 104.998016 
L 350.74566 102.23774 
L 350.741496 99.477463 
" style="fill:none;stroke:#4c72b0;stroke-linecap:round;stroke-width:1.5;"/>
   </g>
   <g id="patch_8">
    <path d="M 350.738862 393.78 
L 350.738862 78.442286 
" style="fill:none;stroke:#ffffff;stroke-linecap:square;stroke-linejoin:miter;stroke-width:1.25;"/>
   </g>
  </g>
 </g>
 <defs>
  <clipPath id="p7a740c2356">
   <rect height="315.337714" width="310.780571" x="29.241719" y="78.442286"/>
  </clipPath>
  <clipPath id="p0a88dcbbaf">
   <rect height="54.368571" width="310.780571" x="29.241719" y="13.2"/>
  </clipPath>
  <clipPath id="p823fb31bd9">
   <rect height="315.337714" width="53.582857" x="350.738862" y="78.442286"/>
  </clipPath>
 </defs>
</svg>
