<?xml version="1.0" encoding="utf-8" standalone="no"?>
<!DOCTYPE svg PUBLIC "-//W3C//DTD SVG 1.1//EN"
  "http://www.w3.org/Graphics/SVG/1.1/DTD/svg11.dtd">
<!-- Created with matplotlib (https://matplotlib.org/) -->
<svg height="252.018125pt" version="1.1" viewBox="0 0 387.167188 252.018125" width="387.167188pt" xmlns="http://www.w3.org/2000/svg" xmlns:xlink="http://www.w3.org/1999/xlink">
 <defs>
  <style type="text/css">
*{stroke-linecap:butt;stroke-linejoin:round;}
  </style>
 </defs>
 <g id="figure_1">
  <g id="patch_1">
   <path d="M 0 252.018125 
L 387.167188 252.018125 
L 387.167188 0 
L 0 0 
z
" style="fill:none;"/>
  </g>
  <g id="axes_1">
   <g id="patch_2">
    <path d="M 41.667188 228.14 
L 376.467188 228.14 
L 376.467188 10.7 
L 41.667188 10.7 
z
" style="fill:#ffffff;"/>
   </g>
   <g id="matplotlib.axis_1">
    <g id="xtick_1">
     <g id="line2d_1">
      <path clip-path="url(#pc9897de554)" d="M 44.757668 228.14 
L 44.757668 10.7 
" style="fill:none;stroke:#b0b0b0;stroke-linecap:square;stroke-width:0.8;"/>
     </g>
     <g id="line2d_2">
      <defs>
       <path d="M 0 0 
L 0 3.5 
" id="m6bb7033153" style="stroke:#000000;stroke-width:0.8;"/>
      </defs>
      <g>
       <use style="stroke:#000000;stroke-width:0.8;" x="44.757668" xlink:href="#m6bb7033153" y="228.14"/>
      </g>
     </g>
     <g id="text_1">
      <!-- −3 -->
      <defs>
       <path d="M 10.59375 35.5 
L 73.1875 35.5 
L 73.1875 27.203125 
L 10.59375 27.203125 
z
" id="DejaVuSans-8722"/>
       <path d="M 40.578125 39.3125 
Q 47.65625 37.796875 51.625 33 
Q 55.609375 28.21875 55.609375 21.1875 
Q 55.609375 10.40625 48.1875 4.484375 
Q 40.765625 -1.421875 27.09375 -1.421875 
Q 22.515625 -1.421875 17.65625 -0.515625 
Q 12.796875 0.390625 7.625 2.203125 
L 7.625 11.71875 
Q 11.71875 9.328125 16.59375 8.109375 
Q 21.484375 6.890625 26.8125 6.890625 
Q 36.078125 6.890625 40.9375 10.546875 
Q 45.796875 14.203125 45.796875 21.1875 
Q 45.796875 27.640625 41.28125 31.265625 
Q 36.765625 34.90625 28.71875 34.90625 
L 20.21875 34.90625 
L 20.21875 43.015625 
L 29.109375 43.015625 
Q 36.375 43.015625 40.234375 45.921875 
Q 44.09375 48.828125 44.09375 54.296875 
Q 44.09375 59.90625 40.109375 62.90625 
Q 36.140625 65.921875 28.71875 65.921875 
Q 24.65625 65.921875 20.015625 65.03125 
Q 15.375 64.15625 9.8125 62.3125 
L 9.8125 71.09375 
Q 15.4375 72.65625 20.34375 73.4375 
Q 25.25 74.21875 29.59375 74.21875 
Q 40.828125 74.21875 47.359375 69.109375 
Q 53.90625 64.015625 53.90625 55.328125 
Q 53.90625 49.265625 50.4375 45.09375 
Q 46.96875 40.921875 40.578125 39.3125 
z
" id="DejaVuSans-51"/>
      </defs>
      <g transform="translate(37.386574 242.738437)scale(0.1 -0.1)">
       <use xlink:href="#DejaVuSans-8722"/>
       <use x="83.789062" xlink:href="#DejaVuSans-51"/>
      </g>
     </g>
    </g>
    <g id="xtick_2">
     <g id="line2d_3">
      <path clip-path="url(#pc9897de554)" d="M 101.333867 228.14 
L 101.333867 10.7 
" style="fill:none;stroke:#b0b0b0;stroke-linecap:square;stroke-width:0.8;"/>
     </g>
     <g id="line2d_4">
      <g>
       <use style="stroke:#000000;stroke-width:0.8;" x="101.333867" xlink:href="#m6bb7033153" y="228.14"/>
      </g>
     </g>
     <g id="text_2">
      <!-- −2 -->
      <defs>
       <path d="M 19.1875 8.296875 
L 53.609375 8.296875 
L 53.609375 0 
L 7.328125 0 
L 7.328125 8.296875 
Q 12.9375 14.109375 22.625 23.890625 
Q 32.328125 33.6875 34.8125 36.53125 
Q 39.546875 41.84375 41.421875 45.53125 
Q 43.3125 49.21875 43.3125 52.78125 
Q 43.3125 58.59375 39.234375 62.25 
Q 35.15625 65.921875 28.609375 65.921875 
Q 23.96875 65.921875 18.8125 64.3125 
Q 13.671875 62.703125 7.8125 59.421875 
L 7.8125 69.390625 
Q 13.765625 71.78125 18.9375 73 
Q 24.125 74.21875 28.421875 74.21875 
Q 39.75 74.21875 46.484375 68.546875 
Q 53.21875 62.890625 53.21875 53.421875 
Q 53.21875 48.921875 51.53125 44.890625 
Q 49.859375 40.875 45.40625 35.40625 
Q 44.1875 33.984375 37.640625 27.21875 
Q 31.109375 20.453125 19.1875 8.296875 
z
" id="DejaVuSans-50"/>
      </defs>
      <g transform="translate(93.962773 242.738437)scale(0.1 -0.1)">
       <use xlink:href="#DejaVuSans-8722"/>
       <use x="83.789062" xlink:href="#DejaVuSans-50"/>
      </g>
     </g>
    </g>
    <g id="xtick_3">
     <g id="line2d_5">
      <path clip-path="url(#pc9897de554)" d="M 157.910066 228.14 
L 157.910066 10.7 
" style="fill:none;stroke:#b0b0b0;stroke-linecap:square;stroke-width:0.8;"/>
     </g>
     <g id="line2d_6">
      <g>
       <use style="stroke:#000000;stroke-width:0.8;" x="157.910066" xlink:href="#m6bb7033153" y="228.14"/>
      </g>
     </g>
     <g id="text_3">
      <!-- −1 -->
      <defs>
       <path d="M 12.40625 8.296875 
L 28.515625 8.296875 
L 28.515625 63.921875 
L 10.984375 60.40625 
L 10.984375 69.390625 
L 28.421875 72.90625 
L 38.28125 72.90625 
L 38.28125 8.296875 
L 54.390625 8.296875 
L 54.390625 0 
L 12.40625 0 
z
" id="DejaVuSans-49"/>
      </defs>
      <g transform="translate(150.538972 242.738437)scale(0.1 -0.1)">
       <use xlink:href="#DejaVuSans-8722"/>
       <use x="83.789062" xlink:href="#DejaVuSans-49"/>
      </g>
     </g>
    </g>
    <g id="xtick_4">
     <g id="line2d_7">
      <path clip-path="url(#pc9897de554)" d="M 214.486264 228.14 
L 214.486264 10.7 
" style="fill:none;stroke:#b0b0b0;stroke-linecap:square;stroke-width:0.8;"/>
     </g>
     <g id="line2d_8">
      <g>
       <use style="stroke:#000000;stroke-width:0.8;" x="214.486264" xlink:href="#m6bb7033153" y="228.14"/>
      </g>
     </g>
     <g id="text_4">
      <!-- 0 -->
      <defs>
       <path d="M 31.78125 66.40625 
Q 24.171875 66.40625 20.328125 58.90625 
Q 16.5 51.421875 16.5 36.375 
Q 16.5 21.390625 20.328125 13.890625 
Q 24.171875 6.390625 31.78125 6.390625 
Q 39.453125 6.390625 43.28125 13.890625 
Q 47.125 21.390625 47.125 36.375 
Q 47.125 51.421875 43.28125 58.90625 
Q 39.453125 66.40625 31.78125 66.40625 
z
M 31.78125 74.21875 
Q 44.046875 74.21875 50.515625 64.515625 
Q 56.984375 54.828125 56.984375 36.375 
Q 56.984375 17.96875 50.515625 8.265625 
Q 44.046875 -1.421875 31.78125 -1.421875 
Q 19.53125 -1.421875 13.0625 8.265625 
Q 6.59375 17.96875 6.59375 36.375 
Q 6.59375 54.828125 13.0625 64.515625 
Q 19.53125 74.21875 31.78125 74.21875 
z
" id="DejaVuSans-48"/>
      </defs>
      <g transform="translate(211.305014 242.738437)scale(0.1 -0.1)">
       <use xlink:href="#DejaVuSans-48"/>
      </g>
     </g>
    </g>
    <g id="xtick_5">
     <g id="line2d_9">
      <path clip-path="url(#pc9897de554)" d="M 271.062463 228.14 
L 271.062463 10.7 
" style="fill:none;stroke:#b0b0b0;stroke-linecap:square;stroke-width:0.8;"/>
     </g>
     <g id="line2d_10">
      <g>
       <use style="stroke:#000000;stroke-width:0.8;" x="271.062463" xlink:href="#m6bb7033153" y="228.14"/>
      </g>
     </g>
     <g id="text_5">
      <!-- 1 -->
      <g transform="translate(267.881213 242.738437)scale(0.1 -0.1)">
       <use xlink:href="#DejaVuSans-49"/>
      </g>
     </g>
    </g>
    <g id="xtick_6">
     <g id="line2d_11">
      <path clip-path="url(#pc9897de554)" d="M 327.638662 228.14 
L 327.638662 10.7 
" style="fill:none;stroke:#b0b0b0;stroke-linecap:square;stroke-width:0.8;"/>
     </g>
     <g id="line2d_12">
      <g>
       <use style="stroke:#000000;stroke-width:0.8;" x="327.638662" xlink:href="#m6bb7033153" y="228.14"/>
      </g>
     </g>
     <g id="text_6">
      <!-- 2 -->
      <g transform="translate(324.457412 242.738437)scale(0.1 -0.1)">
       <use xlink:href="#DejaVuSans-50"/>
      </g>
     </g>
    </g>
   </g>
   <g id="matplotlib.axis_2">
    <g id="ytick_1">
     <g id="line2d_13">
      <path clip-path="url(#pc9897de554)" d="M 41.667188 196.477711 
L 376.467188 196.477711 
" style="fill:none;stroke:#b0b0b0;stroke-linecap:square;stroke-width:0.8;"/>
     </g>
     <g id="line2d_14">
      <defs>
       <path d="M 0 0 
L -3.5 0 
" id="m039bbaff25" style="stroke:#000000;stroke-width:0.8;"/>
      </defs>
      <g>
       <use style="stroke:#000000;stroke-width:0.8;" x="41.667188" xlink:href="#m039bbaff25" y="196.477711"/>
      </g>
     </g>
     <g id="text_7">
      <!-- −100 -->
      <g transform="translate(7.2 200.276929)scale(0.1 -0.1)">
       <use xlink:href="#DejaVuSans-8722"/>
       <use x="83.789062" xlink:href="#DejaVuSans-49"/>
       <use x="147.412109" xlink:href="#DejaVuSans-48"/>
       <use x="211.035156" xlink:href="#DejaVuSans-48"/>
      </g>
     </g>
    </g>
    <g id="ytick_2">
     <g id="line2d_15">
      <path clip-path="url(#pc9897de554)" d="M 41.667188 149.196395 
L 376.467188 149.196395 
" style="fill:none;stroke:#b0b0b0;stroke-linecap:square;stroke-width:0.8;"/>
     </g>
     <g id="line2d_16">
      <g>
       <use style="stroke:#000000;stroke-width:0.8;" x="41.667188" xlink:href="#m039bbaff25" y="149.196395"/>
      </g>
     </g>
     <g id="text_8">
      <!-- −50 -->
      <defs>
       <path d="M 10.796875 72.90625 
L 49.515625 72.90625 
L 49.515625 64.59375 
L 19.828125 64.59375 
L 19.828125 46.734375 
Q 21.96875 47.46875 24.109375 47.828125 
Q 26.265625 48.1875 28.421875 48.1875 
Q 40.625 48.1875 47.75 41.5 
Q 54.890625 34.8125 54.890625 23.390625 
Q 54.890625 11.625 47.5625 5.09375 
Q 40.234375 -1.421875 26.90625 -1.421875 
Q 22.3125 -1.421875 17.546875 -0.640625 
Q 12.796875 0.140625 7.71875 1.703125 
L 7.71875 11.625 
Q 12.109375 9.234375 16.796875 8.0625 
Q 21.484375 6.890625 26.703125 6.890625 
Q 35.15625 6.890625 40.078125 11.328125 
Q 45.015625 15.765625 45.015625 23.390625 
Q 45.015625 31 40.078125 35.4375 
Q 35.15625 39.890625 26.703125 39.890625 
Q 22.75 39.890625 18.8125 39.015625 
Q 14.890625 38.140625 10.796875 36.28125 
z
" id="DejaVuSans-53"/>
      </defs>
      <g transform="translate(13.5625 152.995614)scale(0.1 -0.1)">
       <use xlink:href="#DejaVuSans-8722"/>
       <use x="83.789062" xlink:href="#DejaVuSans-53"/>
       <use x="147.412109" xlink:href="#DejaVuSans-48"/>
      </g>
     </g>
    </g>
    <g id="ytick_3">
     <g id="line2d_17">
      <path clip-path="url(#pc9897de554)" d="M 41.667188 101.915079 
L 376.467188 101.915079 
" style="fill:none;stroke:#b0b0b0;stroke-linecap:square;stroke-width:0.8;"/>
     </g>
     <g id="line2d_18">
      <g>
       <use style="stroke:#000000;stroke-width:0.8;" x="41.667188" xlink:href="#m039bbaff25" y="101.915079"/>
      </g>
     </g>
     <g id="text_9">
      <!-- 0 -->
      <g transform="translate(28.304688 105.714298)scale(0.1 -0.1)">
       <use xlink:href="#DejaVuSans-48"/>
      </g>
     </g>
    </g>
    <g id="ytick_4">
     <g id="line2d_19">
      <path clip-path="url(#pc9897de554)" d="M 41.667188 54.633764 
L 376.467188 54.633764 
" style="fill:none;stroke:#b0b0b0;stroke-linecap:square;stroke-width:0.8;"/>
     </g>
     <g id="line2d_20">
      <g>
       <use style="stroke:#000000;stroke-width:0.8;" x="41.667188" xlink:href="#m039bbaff25" y="54.633764"/>
      </g>
     </g>
     <g id="text_10">
      <!-- 50 -->
      <g transform="translate(21.942188 58.432982)scale(0.1 -0.1)">
       <use xlink:href="#DejaVuSans-53"/>
       <use x="63.623047" xlink:href="#DejaVuSans-48"/>
      </g>
     </g>
    </g>
   </g>
   <g id="line2d_21">
    <defs>
     <path d="M 0 3 
C 0.795609 3 1.55874 2.683901 2.12132 2.12132 
C 2.683901 1.55874 3 0.795609 3 0 
C 3 -0.795609 2.683901 -1.55874 2.12132 -2.12132 
C 1.55874 -2.683901 0.795609 -3 0 -3 
C -0.795609 -3 -1.55874 -2.683901 -2.12132 -2.12132 
C -2.683901 -1.55874 -3 -0.795609 -3 0 
C -3 0.795609 -2.683901 1.55874 -2.12132 2.12132 
C -1.55874 2.683901 -0.795609 3 0 3 
z
" id="m2f6b6292b2" style="stroke:#ff0000;"/>
    </defs>
    <g clip-path="url(#pc9897de554)">
     <use style="fill:#ff0000;stroke:#ff0000;" x="244.892921" xlink:href="#m2f6b6292b2" y="83.126301"/>
     <use style="fill:#ff0000;stroke:#ff0000;" x="261.005858" xlink:href="#m2f6b6292b2" y="59.199879"/>
     <use style="fill:#ff0000;stroke:#ff0000;" x="275.076082" xlink:href="#m2f6b6292b2" y="82.934617"/>
     <use style="fill:#ff0000;stroke:#ff0000;" x="274.879024" xlink:href="#m2f6b6292b2" y="26.155633"/>
     <use style="fill:#ff0000;stroke:#ff0000;" x="213.88409" xlink:href="#m2f6b6292b2" y="88.443489"/>
     <use style="fill:#ff0000;stroke:#ff0000;" x="164.72744" xlink:href="#m2f6b6292b2" y="118.061651"/>
     <use style="fill:#ff0000;stroke:#ff0000;" x="177.461279" xlink:href="#m2f6b6292b2" y="137.878531"/>
     <use style="fill:#ff0000;stroke:#ff0000;" x="281.986735" xlink:href="#m2f6b6292b2" y="58.766005"/>
     <use style="fill:#ff0000;stroke:#ff0000;" x="163.796678" xlink:href="#m2f6b6292b2" y="117.11326"/>
     <use style="fill:#ff0000;stroke:#ff0000;" x="313.327862" xlink:href="#m2f6b6292b2" y="71.860489"/>
     <use style="fill:#ff0000;stroke:#ff0000;" x="234.379753" xlink:href="#m2f6b6292b2" y="76.099601"/>
     <use style="fill:#ff0000;stroke:#ff0000;" x="251.373229" xlink:href="#m2f6b6292b2" y="137.008727"/>
     <use style="fill:#ff0000;stroke:#ff0000;" x="264.242826" xlink:href="#m2f6b6292b2" y="92.079109"/>
     <use style="fill:#ff0000;stroke:#ff0000;" x="158.571812" xlink:href="#m2f6b6292b2" y="108.53988"/>
     <use style="fill:#ff0000;stroke:#ff0000;" x="93.300353" xlink:href="#m2f6b6292b2" y="150.733992"/>
     <use style="fill:#ff0000;stroke:#ff0000;" x="152.841446" xlink:href="#m2f6b6292b2" y="130.770032"/>
     <use style="fill:#ff0000;stroke:#ff0000;" x="196.105454" xlink:href="#m2f6b6292b2" y="154.801655"/>
     <use style="fill:#ff0000;stroke:#ff0000;" x="231.399026" xlink:href="#m2f6b6292b2" y="109.41247"/>
     <use style="fill:#ff0000;stroke:#ff0000;" x="198.41396" xlink:href="#m2f6b6292b2" y="135.891615"/>
     <use style="fill:#ff0000;stroke:#ff0000;" x="243.134005" xlink:href="#m2f6b6292b2" y="118.403648"/>
     <use style="fill:#ff0000;stroke:#ff0000;" x="338.405687" xlink:href="#m2f6b6292b2" y="100.757775"/>
     <use style="fill:#ff0000;stroke:#ff0000;" x="251.596772" xlink:href="#m2f6b6292b2" y="80.801036"/>
     <use style="fill:#ff0000;stroke:#ff0000;" x="277.487013" xlink:href="#m2f6b6292b2" y="112.033893"/>
     <use style="fill:#ff0000;stroke:#ff0000;" x="247.101544" xlink:href="#m2f6b6292b2" y="94.551962"/>
     <use style="fill:#ff0000;stroke:#ff0000;" x="227.923059" xlink:href="#m2f6b6292b2" y="79.709228"/>
     <use style="fill:#ff0000;stroke:#ff0000;" x="293.223778" xlink:href="#m2f6b6292b2" y="60.322867"/>
     <use style="fill:#ff0000;stroke:#ff0000;" x="175.387741" xlink:href="#m2f6b6292b2" y="135.24824"/>
     <use style="fill:#ff0000;stroke:#ff0000;" x="109.164206" xlink:href="#m2f6b6292b2" y="124.531189"/>
     <use style="fill:#ff0000;stroke:#ff0000;" x="287.552625" xlink:href="#m2f6b6292b2" y="83.161803"/>
     <use style="fill:#ff0000;stroke:#ff0000;" x="215.274741" xlink:href="#m2f6b6292b2" y="89.266367"/>
     <use style="fill:#ff0000;stroke:#ff0000;" x="218.637071" xlink:href="#m2f6b6292b2" y="139.559475"/>
     <use style="fill:#ff0000;stroke:#ff0000;" x="125.214654" xlink:href="#m2f6b6292b2" y="114.432794"/>
     <use style="fill:#ff0000;stroke:#ff0000;" x="157.203949" xlink:href="#m2f6b6292b2" y="122.453137"/>
     <use style="fill:#ff0000;stroke:#ff0000;" x="171.005946" xlink:href="#m2f6b6292b2" y="127.624535"/>
     <use style="fill:#ff0000;stroke:#ff0000;" x="324.693147" xlink:href="#m2f6b6292b2" y="54.630497"/>
     <use style="fill:#ff0000;stroke:#ff0000;" x="240.206478" xlink:href="#m2f6b6292b2" y="68.727177"/>
     <use style="fill:#ff0000;stroke:#ff0000;" x="90.504143" xlink:href="#m2f6b6292b2" y="120.329831"/>
     <use style="fill:#ff0000;stroke:#ff0000;" x="210.865443" xlink:href="#m2f6b6292b2" y="66.535239"/>
     <use style="fill:#ff0000;stroke:#ff0000;" x="113.183238" xlink:href="#m2f6b6292b2" y="168.8093"/>
     <use style="fill:#ff0000;stroke:#ff0000;" x="224.68574" xlink:href="#m2f6b6292b2" y="104.079993"/>
     <use style="fill:#ff0000;stroke:#ff0000;" x="117.571703" xlink:href="#m2f6b6292b2" y="141.960044"/>
     <use style="fill:#ff0000;stroke:#ff0000;" x="238.804928" xlink:href="#m2f6b6292b2" y="109.900659"/>
     <use style="fill:#ff0000;stroke:#ff0000;" x="249.24172" xlink:href="#m2f6b6292b2" y="98.850853"/>
     <use style="fill:#ff0000;stroke:#ff0000;" x="174.635592" xlink:href="#m2f6b6292b2" y="135.06214"/>
     <use style="fill:#ff0000;stroke:#ff0000;" x="245.370717" xlink:href="#m2f6b6292b2" y="98.681471"/>
     <use style="fill:#ff0000;stroke:#ff0000;" x="180.771549" xlink:href="#m2f6b6292b2" y="115.95821"/>
     <use style="fill:#ff0000;stroke:#ff0000;" x="84.981454" xlink:href="#m2f6b6292b2" y="179.037378"/>
     <use style="fill:#ff0000;stroke:#ff0000;" x="334.869177" xlink:href="#m2f6b6292b2" y="43.350256"/>
     <use style="fill:#ff0000;stroke:#ff0000;" x="211.295381" xlink:href="#m2f6b6292b2" y="108.441803"/>
     <use style="fill:#ff0000;stroke:#ff0000;" x="302.210355" xlink:href="#m2f6b6292b2" y="51.145154"/>
     <use style="fill:#ff0000;stroke:#ff0000;" x="235.19098" xlink:href="#m2f6b6292b2" y="69.806076"/>
     <use style="fill:#ff0000;stroke:#ff0000;" x="174.978581" xlink:href="#m2f6b6292b2" y="129.421625"/>
     <use style="fill:#ff0000;stroke:#ff0000;" x="239.987675" xlink:href="#m2f6b6292b2" y="116.818962"/>
     <use style="fill:#ff0000;stroke:#ff0000;" x="149.63983" xlink:href="#m2f6b6292b2" y="119.484043"/>
     <use style="fill:#ff0000;stroke:#ff0000;" x="186.716187" xlink:href="#m2f6b6292b2" y="144.952875"/>
     <use style="fill:#ff0000;stroke:#ff0000;" x="151.073092" xlink:href="#m2f6b6292b2" y="131.939497"/>
     <use style="fill:#ff0000;stroke:#ff0000;" x="270.592694" xlink:href="#m2f6b6292b2" y="27.797676"/>
     <use style="fill:#ff0000;stroke:#ff0000;" x="317.925472" xlink:href="#m2f6b6292b2" y="71.127768"/>
     <use style="fill:#ff0000;stroke:#ff0000;" x="293.136692" xlink:href="#m2f6b6292b2" y="52.458844"/>
     <use style="fill:#ff0000;stroke:#ff0000;" x="99.072153" xlink:href="#m2f6b6292b2" y="172.701066"/>
     <use style="fill:#ff0000;stroke:#ff0000;" x="303.746993" xlink:href="#m2f6b6292b2" y="74.819955"/>
     <use style="fill:#ff0000;stroke:#ff0000;" x="178.938271" xlink:href="#m2f6b6292b2" y="136.620385"/>
     <use style="fill:#ff0000;stroke:#ff0000;" x="221.205095" xlink:href="#m2f6b6292b2" y="107.794914"/>
     <use style="fill:#ff0000;stroke:#ff0000;" x="239.116319" xlink:href="#m2f6b6292b2" y="80.293553"/>
     <use style="fill:#ff0000;stroke:#ff0000;" x="247.142444" xlink:href="#m2f6b6292b2" y="57.858487"/>
     <use style="fill:#ff0000;stroke:#ff0000;" x="132.7902" xlink:href="#m2f6b6292b2" y="78.663572"/>
     <use style="fill:#ff0000;stroke:#ff0000;" x="312.898657" xlink:href="#m2f6b6292b2" y="39.403155"/>
     <use style="fill:#ff0000;stroke:#ff0000;" x="158.252854" xlink:href="#m2f6b6292b2" y="139.065337"/>
     <use style="fill:#ff0000;stroke:#ff0000;" x="254.633602" xlink:href="#m2f6b6292b2" y="95.910096"/>
     <use style="fill:#ff0000;stroke:#ff0000;" x="267.238729" xlink:href="#m2f6b6292b2" y="29.949999"/>
     <use style="fill:#ff0000;stroke:#ff0000;" x="202.316547" xlink:href="#m2f6b6292b2" y="158.66853"/>
     <use style="fill:#ff0000;stroke:#ff0000;" x="122.071772" xlink:href="#m2f6b6292b2" y="157.607964"/>
     <use style="fill:#ff0000;stroke:#ff0000;" x="267.224276" xlink:href="#m2f6b6292b2" y="82.129031"/>
     <use style="fill:#ff0000;stroke:#ff0000;" x="266.04577" xlink:href="#m2f6b6292b2" y="74.29643"/>
     <use style="fill:#ff0000;stroke:#ff0000;" x="164.610943" xlink:href="#m2f6b6292b2" y="155.985821"/>
     <use style="fill:#ff0000;stroke:#ff0000;" x="281.88975" xlink:href="#m2f6b6292b2" y="83.629748"/>
     <use style="fill:#ff0000;stroke:#ff0000;" x="64.389579" xlink:href="#m2f6b6292b2" y="156.114208"/>
     <use style="fill:#ff0000;stroke:#ff0000;" x="189.242745" xlink:href="#m2f6b6292b2" y="88.964615"/>
     <use style="fill:#ff0000;stroke:#ff0000;" x="142.381836" xlink:href="#m2f6b6292b2" y="84.352428"/>
     <use style="fill:#ff0000;stroke:#ff0000;" x="186.625867" xlink:href="#m2f6b6292b2" y="126.582865"/>
     <use style="fill:#ff0000;stroke:#ff0000;" x="238.241637" xlink:href="#m2f6b6292b2" y="107.899646"/>
     <use style="fill:#ff0000;stroke:#ff0000;" x="236.772823" xlink:href="#m2f6b6292b2" y="95.430942"/>
     <use style="fill:#ff0000;stroke:#ff0000;" x="215.772554" xlink:href="#m2f6b6292b2" y="111.980483"/>
     <use style="fill:#ff0000;stroke:#ff0000;" x="196.283894" xlink:href="#m2f6b6292b2" y="141.361947"/>
     <use style="fill:#ff0000;stroke:#ff0000;" x="260.84337" xlink:href="#m2f6b6292b2" y="56.881657"/>
     <use style="fill:#ff0000;stroke:#ff0000;" x="110.531025" xlink:href="#m2f6b6292b2" y="169.111932"/>
     <use style="fill:#ff0000;stroke:#ff0000;" x="252.334466" xlink:href="#m2f6b6292b2" y="106.558193"/>
     <use style="fill:#ff0000;stroke:#ff0000;" x="234.23708" xlink:href="#m2f6b6292b2" y="85.115334"/>
     <use style="fill:#ff0000;stroke:#ff0000;" x="279.655946" xlink:href="#m2f6b6292b2" y="98.958886"/>
     <use style="fill:#ff0000;stroke:#ff0000;" x="208.128059" xlink:href="#m2f6b6292b2" y="44.359774"/>
     <use style="fill:#ff0000;stroke:#ff0000;" x="124.708138" xlink:href="#m2f6b6292b2" y="120.148192"/>
     <use style="fill:#ff0000;stroke:#ff0000;" x="232.723824" xlink:href="#m2f6b6292b2" y="64.14613"/>
     <use style="fill:#ff0000;stroke:#ff0000;" x="163.054656" xlink:href="#m2f6b6292b2" y="157.368473"/>
     <use style="fill:#ff0000;stroke:#ff0000;" x="296.519056" xlink:href="#m2f6b6292b2" y="60.282116"/>
     <use style="fill:#ff0000;stroke:#ff0000;" x="165.406568" xlink:href="#m2f6b6292b2" y="130.444918"/>
     <use style="fill:#ff0000;stroke:#ff0000;" x="182.020478" xlink:href="#m2f6b6292b2" y="218.256364"/>
     <use style="fill:#ff0000;stroke:#ff0000;" x="265.899756" xlink:href="#m2f6b6292b2" y="66.8161"/>
     <use style="fill:#ff0000;stroke:#ff0000;" x="86.384507" xlink:href="#m2f6b6292b2" y="137.377443"/>
     <use style="fill:#ff0000;stroke:#ff0000;" x="211.956012" xlink:href="#m2f6b6292b2" y="56.054214"/>
     <use style="fill:#ff0000;stroke:#ff0000;" x="227.256057" xlink:href="#m2f6b6292b2" y="67.357188"/>
     <use style="fill:#ff0000;stroke:#ff0000;" x="208.197093" xlink:href="#m2f6b6292b2" y="105.729787"/>
     <use style="fill:#ff0000;stroke:#ff0000;" x="146.28152" xlink:href="#m2f6b6292b2" y="137.48222"/>
     <use style="fill:#ff0000;stroke:#ff0000;" x="220.327525" xlink:href="#m2f6b6292b2" y="67.662332"/>
     <use style="fill:#ff0000;stroke:#ff0000;" x="203.89804" xlink:href="#m2f6b6292b2" y="100.687567"/>
     <use style="fill:#ff0000;stroke:#ff0000;" x="250.665234" xlink:href="#m2f6b6292b2" y="20.583636"/>
     <use style="fill:#ff0000;stroke:#ff0000;" x="210.598502" xlink:href="#m2f6b6292b2" y="80.789334"/>
     <use style="fill:#ff0000;stroke:#ff0000;" x="202.000926" xlink:href="#m2f6b6292b2" y="136.12103"/>
     <use style="fill:#ff0000;stroke:#ff0000;" x="96.479678" xlink:href="#m2f6b6292b2" y="125.737705"/>
     <use style="fill:#ff0000;stroke:#ff0000;" x="213.034677" xlink:href="#m2f6b6292b2" y="62.265692"/>
     <use style="fill:#ff0000;stroke:#ff0000;" x="191.982325" xlink:href="#m2f6b6292b2" y="95.745696"/>
     <use style="fill:#ff0000;stroke:#ff0000;" x="164.250064" xlink:href="#m2f6b6292b2" y="156.474746"/>
     <use style="fill:#ff0000;stroke:#ff0000;" x="191.64861" xlink:href="#m2f6b6292b2" y="129.58725"/>
     <use style="fill:#ff0000;stroke:#ff0000;" x="264.136538" xlink:href="#m2f6b6292b2" y="92.53506"/>
     <use style="fill:#ff0000;stroke:#ff0000;" x="166.849916" xlink:href="#m2f6b6292b2" y="83.598164"/>
     <use style="fill:#ff0000;stroke:#ff0000;" x="310.914624" xlink:href="#m2f6b6292b2" y="92.667972"/>
     <use style="fill:#ff0000;stroke:#ff0000;" x="278.179027" xlink:href="#m2f6b6292b2" y="73.178552"/>
     <use style="fill:#ff0000;stroke:#ff0000;" x="277.173219" xlink:href="#m2f6b6292b2" y="85.944958"/>
     <use style="fill:#ff0000;stroke:#ff0000;" x="231.619096" xlink:href="#m2f6b6292b2" y="97.917035"/>
     <use style="fill:#ff0000;stroke:#ff0000;" x="175.564228" xlink:href="#m2f6b6292b2" y="89.400238"/>
     <use style="fill:#ff0000;stroke:#ff0000;" x="201.509348" xlink:href="#m2f6b6292b2" y="135.395225"/>
     <use style="fill:#ff0000;stroke:#ff0000;" x="158.545914" xlink:href="#m2f6b6292b2" y="163.686627"/>
     <use style="fill:#ff0000;stroke:#ff0000;" x="239.643478" xlink:href="#m2f6b6292b2" y="102.277254"/>
     <use style="fill:#ff0000;stroke:#ff0000;" x="265.035574" xlink:href="#m2f6b6292b2" y="86.1511"/>
     <use style="fill:#ff0000;stroke:#ff0000;" x="231.644984" xlink:href="#m2f6b6292b2" y="94.629794"/>
     <use style="fill:#ff0000;stroke:#ff0000;" x="231.404228" xlink:href="#m2f6b6292b2" y="120.053168"/>
     <use style="fill:#ff0000;stroke:#ff0000;" x="195.410909" xlink:href="#m2f6b6292b2" y="156.11417"/>
     <use style="fill:#ff0000;stroke:#ff0000;" x="168.645233" xlink:href="#m2f6b6292b2" y="116.520778"/>
     <use style="fill:#ff0000;stroke:#ff0000;" x="297.873127" xlink:href="#m2f6b6292b2" y="65.911167"/>
     <use style="fill:#ff0000;stroke:#ff0000;" x="217.577021" xlink:href="#m2f6b6292b2" y="92.011982"/>
     <use style="fill:#ff0000;stroke:#ff0000;" x="300.602978" xlink:href="#m2f6b6292b2" y="43.184154"/>
     <use style="fill:#ff0000;stroke:#ff0000;" x="243.79272" xlink:href="#m2f6b6292b2" y="70.848932"/>
     <use style="fill:#ff0000;stroke:#ff0000;" x="169.784573" xlink:href="#m2f6b6292b2" y="166.2006"/>
     <use style="fill:#ff0000;stroke:#ff0000;" x="282.672717" xlink:href="#m2f6b6292b2" y="91.416137"/>
     <use style="fill:#ff0000;stroke:#ff0000;" x="121.933025" xlink:href="#m2f6b6292b2" y="117.971565"/>
     <use style="fill:#ff0000;stroke:#ff0000;" x="240.819634" xlink:href="#m2f6b6292b2" y="48.708574"/>
     <use style="fill:#ff0000;stroke:#ff0000;" x="233.320166" xlink:href="#m2f6b6292b2" y="70.297437"/>
     <use style="fill:#ff0000;stroke:#ff0000;" x="187.914244" xlink:href="#m2f6b6292b2" y="104.628994"/>
     <use style="fill:#ff0000;stroke:#ff0000;" x="168.281889" xlink:href="#m2f6b6292b2" y="109.36041"/>
     <use style="fill:#ff0000;stroke:#ff0000;" x="207.522177" xlink:href="#m2f6b6292b2" y="84.782438"/>
     <use style="fill:#ff0000;stroke:#ff0000;" x="162.160648" xlink:href="#m2f6b6292b2" y="140.041634"/>
     <use style="fill:#ff0000;stroke:#ff0000;" x="236.570347" xlink:href="#m2f6b6292b2" y="72.161966"/>
     <use style="fill:#ff0000;stroke:#ff0000;" x="229.601323" xlink:href="#m2f6b6292b2" y="133.841645"/>
     <use style="fill:#ff0000;stroke:#ff0000;" x="230.602462" xlink:href="#m2f6b6292b2" y="127.487051"/>
     <use style="fill:#ff0000;stroke:#ff0000;" x="83.564953" xlink:href="#m2f6b6292b2" y="198.75933"/>
     <use style="fill:#ff0000;stroke:#ff0000;" x="252.438941" xlink:href="#m2f6b6292b2" y="104.861919"/>
     <use style="fill:#ff0000;stroke:#ff0000;" x="224.728869" xlink:href="#m2f6b6292b2" y="123.490161"/>
     <use style="fill:#ff0000;stroke:#ff0000;" x="244.553363" xlink:href="#m2f6b6292b2" y="57.783964"/>
     <use style="fill:#ff0000;stroke:#ff0000;" x="202.411491" xlink:href="#m2f6b6292b2" y="156.606522"/>
     <use style="fill:#ff0000;stroke:#ff0000;" x="193.278243" xlink:href="#m2f6b6292b2" y="169.087625"/>
     <use style="fill:#ff0000;stroke:#ff0000;" x="229.706127" xlink:href="#m2f6b6292b2" y="103.330156"/>
     <use style="fill:#ff0000;stroke:#ff0000;" x="276.642521" xlink:href="#m2f6b6292b2" y="117.276093"/>
     <use style="fill:#ff0000;stroke:#ff0000;" x="56.885369" xlink:href="#m2f6b6292b2" y="204.335863"/>
     <use style="fill:#ff0000;stroke:#ff0000;" x="152.691122" xlink:href="#m2f6b6292b2" y="145.045749"/>
     <use style="fill:#ff0000;stroke:#ff0000;" x="250.40021" xlink:href="#m2f6b6292b2" y="81.196762"/>
     <use style="fill:#ff0000;stroke:#ff0000;" x="230.667764" xlink:href="#m2f6b6292b2" y="61.325062"/>
     <use style="fill:#ff0000;stroke:#ff0000;" x="331.819512" xlink:href="#m2f6b6292b2" y="54.620673"/>
     <use style="fill:#ff0000;stroke:#ff0000;" x="217.305236" xlink:href="#m2f6b6292b2" y="61.242168"/>
     <use style="fill:#ff0000;stroke:#ff0000;" x="245.451356" xlink:href="#m2f6b6292b2" y="104.672937"/>
     <use style="fill:#ff0000;stroke:#ff0000;" x="196.886118" xlink:href="#m2f6b6292b2" y="100.944257"/>
     <use style="fill:#ff0000;stroke:#ff0000;" x="180.020184" xlink:href="#m2f6b6292b2" y="91.666025"/>
     <use style="fill:#ff0000;stroke:#ff0000;" x="159.261595" xlink:href="#m2f6b6292b2" y="68.895751"/>
     <use style="fill:#ff0000;stroke:#ff0000;" x="181.990675" xlink:href="#m2f6b6292b2" y="164.466369"/>
     <use style="fill:#ff0000;stroke:#ff0000;" x="252.3368" xlink:href="#m2f6b6292b2" y="49.498344"/>
     <use style="fill:#ff0000;stroke:#ff0000;" x="251.818752" xlink:href="#m2f6b6292b2" y="108.27322"/>
     <use style="fill:#ff0000;stroke:#ff0000;" x="156.744874" xlink:href="#m2f6b6292b2" y="115.144142"/>
     <use style="fill:#ff0000;stroke:#ff0000;" x="170.989923" xlink:href="#m2f6b6292b2" y="100.665731"/>
     <use style="fill:#ff0000;stroke:#ff0000;" x="314.198786" xlink:href="#m2f6b6292b2" y="73.761257"/>
     <use style="fill:#ff0000;stroke:#ff0000;" x="148.62201" xlink:href="#m2f6b6292b2" y="135.174139"/>
     <use style="fill:#ff0000;stroke:#ff0000;" x="361.249006" xlink:href="#m2f6b6292b2" y="73.069087"/>
     <use style="fill:#ff0000;stroke:#ff0000;" x="198.33894" xlink:href="#m2f6b6292b2" y="114.998523"/>
     <use style="fill:#ff0000;stroke:#ff0000;" x="209.820903" xlink:href="#m2f6b6292b2" y="113.741394"/>
     <use style="fill:#ff0000;stroke:#ff0000;" x="152.194449" xlink:href="#m2f6b6292b2" y="103.420664"/>
     <use style="fill:#ff0000;stroke:#ff0000;" x="142.987372" xlink:href="#m2f6b6292b2" y="113.44781"/>
     <use style="fill:#ff0000;stroke:#ff0000;" x="106.1201" xlink:href="#m2f6b6292b2" y="182.917047"/>
     <use style="fill:#ff0000;stroke:#ff0000;" x="230.680452" xlink:href="#m2f6b6292b2" y="79.724748"/>
     <use style="fill:#ff0000;stroke:#ff0000;" x="239.061403" xlink:href="#m2f6b6292b2" y="88.338275"/>
     <use style="fill:#ff0000;stroke:#ff0000;" x="179.212238" xlink:href="#m2f6b6292b2" y="124.543372"/>
     <use style="fill:#ff0000;stroke:#ff0000;" x="206.974229" xlink:href="#m2f6b6292b2" y="101.045435"/>
     <use style="fill:#ff0000;stroke:#ff0000;" x="168.372683" xlink:href="#m2f6b6292b2" y="93.968362"/>
     <use style="fill:#ff0000;stroke:#ff0000;" x="169.853512" xlink:href="#m2f6b6292b2" y="104.976018"/>
     <use style="fill:#ff0000;stroke:#ff0000;" x="142.735259" xlink:href="#m2f6b6292b2" y="137.341698"/>
     <use style="fill:#ff0000;stroke:#ff0000;" x="197.725646" xlink:href="#m2f6b6292b2" y="128.311137"/>
     <use style="fill:#ff0000;stroke:#ff0000;" x="238.900964" xlink:href="#m2f6b6292b2" y="125.814107"/>
     <use style="fill:#ff0000;stroke:#ff0000;" x="129.931712" xlink:href="#m2f6b6292b2" y="125.86262"/>
     <use style="fill:#ff0000;stroke:#ff0000;" x="249.49795" xlink:href="#m2f6b6292b2" y="90.768003"/>
     <use style="fill:#ff0000;stroke:#ff0000;" x="254.432777" xlink:href="#m2f6b6292b2" y="61.913235"/>
     <use style="fill:#ff0000;stroke:#ff0000;" x="89.513341" xlink:href="#m2f6b6292b2" y="134.388184"/>
     <use style="fill:#ff0000;stroke:#ff0000;" x="182.480375" xlink:href="#m2f6b6292b2" y="145.065658"/>
     <use style="fill:#ff0000;stroke:#ff0000;" x="228.375703" xlink:href="#m2f6b6292b2" y="86.89207"/>
     <use style="fill:#ff0000;stroke:#ff0000;" x="111.793232" xlink:href="#m2f6b6292b2" y="183.510043"/>
     <use style="fill:#ff0000;stroke:#ff0000;" x="119.565591" xlink:href="#m2f6b6292b2" y="164.438484"/>
     <use style="fill:#ff0000;stroke:#ff0000;" x="252.31794" xlink:href="#m2f6b6292b2" y="136.013018"/>
     <use style="fill:#ff0000;stroke:#ff0000;" x="129.951759" xlink:href="#m2f6b6292b2" y="155.973212"/>
     <use style="fill:#ff0000;stroke:#ff0000;" x="269.386869" xlink:href="#m2f6b6292b2" y="34.683767"/>
     <use style="fill:#ff0000;stroke:#ff0000;" x="291.939968" xlink:href="#m2f6b6292b2" y="58.38257"/>
     <use style="fill:#ff0000;stroke:#ff0000;" x="230.610834" xlink:href="#m2f6b6292b2" y="152.279948"/>
     <use style="fill:#ff0000;stroke:#ff0000;" x="118.691055" xlink:href="#m2f6b6292b2" y="168.598065"/>
     <use style="fill:#ff0000;stroke:#ff0000;" x="317.396192" xlink:href="#m2f6b6292b2" y="47.363474"/>
     <use style="fill:#ff0000;stroke:#ff0000;" x="235.03723" xlink:href="#m2f6b6292b2" y="71.35851"/>
     <use style="fill:#ff0000;stroke:#ff0000;" x="67.211583" xlink:href="#m2f6b6292b2" y="143.140942"/>
    </g>
   </g>
   <g id="patch_3">
    <path d="M 41.667188 228.14 
L 41.667188 10.7 
" style="fill:none;stroke:#000000;stroke-linecap:square;stroke-linejoin:miter;stroke-width:0.8;"/>
   </g>
   <g id="patch_4">
    <path d="M 376.467188 228.14 
L 376.467188 10.7 
" style="fill:none;stroke:#000000;stroke-linecap:square;stroke-linejoin:miter;stroke-width:0.8;"/>
   </g>
   <g id="patch_5">
    <path d="M 41.667188 228.14 
L 376.467188 228.14 
" style="fill:none;stroke:#000000;stroke-linecap:square;stroke-linejoin:miter;stroke-width:0.8;"/>
   </g>
   <g id="patch_6">
    <path d="M 41.667188 10.7 
L 376.467188 10.7 
" style="fill:none;stroke:#000000;stroke-linecap:square;stroke-linejoin:miter;stroke-width:0.8;"/>
   </g>
  </g>
 </g>
 <defs>
  <clipPath id="pc9897de554">
   <rect height="217.44" width="334.8" x="41.667188" y="10.7"/>
  </clipPath>
 </defs>
</svg>
