<?xml version="1.0" encoding="utf-8" standalone="no"?>
<!DOCTYPE svg PUBLIC "-//W3C//DTD SVG 1.1//EN"
  "http://www.w3.org/Graphics/SVG/1.1/DTD/svg11.dtd">
<svg xmlns:xlink="http://www.w3.org/1999/xlink" width="475.2pt" height="360pt" viewBox="0 0 475.2 360" xmlns="http://www.w3.org/2000/svg" version="1.1">
 <metadata>
  <rdf:RDF xmlns:dc="http://purl.org/dc/elements/1.1/" xmlns:cc="http://creativecommons.org/ns#" xmlns:rdf="http://www.w3.org/1999/02/22-rdf-syntax-ns#">
   <cc:Work>
    <dc:type rdf:resource="http://purl.org/dc/dcmitype/StillImage"/>
    <dc:date>2024-01-08T15:25:20.734529</dc:date>
    <dc:format>image/svg+xml</dc:format>
    <dc:creator>
     <cc:Agent>
      <dc:title>Matplotlib v3.8.1, https://matplotlib.org/</dc:title>
     </cc:Agent>
    </dc:creator>
   </cc:Work>
  </rdf:RDF>
 </metadata>
 <defs>
  <style type="text/css">*{stroke-linejoin: round; stroke-linecap: butt}</style>
 </defs>
 <g id="figure_1">
  <g id="patch_1">
   <path d="M 0 360 
L 475.2 360 
L 475.2 0 
L 0 0 
z
" style="fill: #ffffff"/>
  </g>
  <g id="axes_1">
   <g id="LineCollection_1">
    <path d="M 47.186777 37.190083 
L 428.013223 108.595041 
" clip-path="url(#p96419197d8)" style="fill: none; stroke: #000000"/>
    <path d="M 47.186777 108.595041 
L 428.013223 180 
" clip-path="url(#p96419197d8)" style="fill: none; stroke: #000000"/>
    <path d="M 47.186777 108.595041 
L 428.013223 251.404959 
" clip-path="url(#p96419197d8)" style="fill: none; stroke: #000000"/>
    <path d="M 47.186777 180 
L 428.013223 37.190083 
" clip-path="url(#p96419197d8)" style="fill: none; stroke: #000000"/>
    <path d="M 47.186777 251.404959 
L 428.013223 108.595041 
" clip-path="url(#p96419197d8)" style="fill: none; stroke: #000000"/>
    <path d="M 47.186777 322.809917 
L 428.013223 37.190083 
" clip-path="url(#p96419197d8)" style="fill: none; stroke: #000000"/>
    <path d="M 47.186777 322.809917 
L 428.013223 180 
" clip-path="url(#p96419197d8)" style="fill: none; stroke: #000000"/>
   </g>
   <g id="PathCollection_1">
    <path d="M 47.186777 49.437531 
C 50.434838 49.437531 53.550305 48.147063 55.847031 45.850337 
C 58.143757 43.55361 59.434226 40.438144 59.434226 37.190083 
C 59.434226 33.942021 58.143757 30.826555 55.847031 28.529829 
C 53.550305 26.233102 50.434838 24.942634 47.186777 24.942634 
C 43.938715 24.942634 40.823249 26.233102 38.526523 28.529829 
C 36.229797 30.826555 34.939328 33.942021 34.939328 37.190083 
C 34.939328 40.438144 36.229797 43.55361 38.526523 45.850337 
C 40.823249 48.147063 43.938715 49.437531 47.186777 49.437531 
z
" clip-path="url(#p96419197d8)" style="fill: #ff0000; stroke: #ff0000"/>
    <path d="M 47.186777 120.84249 
C 50.434838 120.84249 53.550305 119.552022 55.847031 117.255295 
C 58.143757 114.958569 59.434226 111.843103 59.434226 108.595041 
C 59.434226 105.34698 58.143757 102.231514 55.847031 99.934787 
C 53.550305 97.638061 50.434838 96.347593 47.186777 96.347593 
C 43.938715 96.347593 40.823249 97.638061 38.526523 99.934787 
C 36.229797 102.231514 34.939328 105.34698 34.939328 108.595041 
C 34.939328 111.843103 36.229797 114.958569 38.526523 117.255295 
C 40.823249 119.552022 43.938715 120.84249 47.186777 120.84249 
z
" clip-path="url(#p96419197d8)" style="fill: #ff0000; stroke: #ff0000"/>
    <path d="M 47.186777 192.247449 
C 50.434838 192.247449 53.550305 190.95698 55.847031 188.660254 
C 58.143757 186.363528 59.434226 183.248061 59.434226 180 
C 59.434226 176.751939 58.143757 173.636472 55.847031 171.339746 
C 53.550305 169.04302 50.434838 167.752551 47.186777 167.752551 
C 43.938715 167.752551 40.823249 169.04302 38.526523 171.339746 
C 36.229797 173.636472 34.939328 176.751939 34.939328 180 
C 34.939328 183.248061 36.229797 186.363528 38.526523 188.660254 
C 40.823249 190.95698 43.938715 192.247449 47.186777 192.247449 
z
" clip-path="url(#p96419197d8)" style="fill: #ff0000; stroke: #ff0000"/>
    <path d="M 47.186777 263.652407 
C 50.434838 263.652407 53.550305 262.361939 55.847031 260.065213 
C 58.143757 257.768486 59.434226 254.65302 59.434226 251.404959 
C 59.434226 248.156897 58.143757 245.041431 55.847031 242.744705 
C 53.550305 240.447978 50.434838 239.15751 47.186777 239.15751 
C 43.938715 239.15751 40.823249 240.447978 38.526523 242.744705 
C 36.229797 245.041431 34.939328 248.156897 34.939328 251.404959 
C 34.939328 254.65302 36.229797 257.768486 38.526523 260.065213 
C 40.823249 262.361939 43.938715 263.652407 47.186777 263.652407 
z
" clip-path="url(#p96419197d8)" style="fill: #ff0000; stroke: #ff0000"/>
    <path d="M 47.186777 335.057366 
C 50.434838 335.057366 53.550305 333.766898 55.847031 331.470171 
C 58.143757 329.173445 59.434226 326.057979 59.434226 322.809917 
C 59.434226 319.561856 58.143757 316.44639 55.847031 314.149663 
C 53.550305 311.852937 50.434838 310.562469 47.186777 310.562469 
C 43.938715 310.562469 40.823249 311.852937 38.526523 314.149663 
C 36.229797 316.44639 34.939328 319.561856 34.939328 322.809917 
C 34.939328 326.057979 36.229797 329.173445 38.526523 331.470171 
C 40.823249 333.766898 43.938715 335.057366 47.186777 335.057366 
z
" clip-path="url(#p96419197d8)" style="fill: #ff0000; stroke: #ff0000"/>
    <path d="M 428.013223 49.437531 
C 431.261285 49.437531 434.376751 48.147063 436.673477 45.850337 
C 438.970203 43.55361 440.260672 40.438144 440.260672 37.190083 
C 440.260672 33.942021 438.970203 30.826555 436.673477 28.529829 
C 434.376751 26.233102 431.261285 24.942634 428.013223 24.942634 
C 424.765162 24.942634 421.649695 26.233102 419.352969 28.529829 
C 417.056243 30.826555 415.765774 33.942021 415.765774 37.190083 
C 415.765774 40.438144 417.056243 43.55361 419.352969 45.850337 
C 421.649695 48.147063 424.765162 49.437531 428.013223 49.437531 
z
" clip-path="url(#p96419197d8)" style="fill: #add8e6; stroke: #add8e6"/>
    <path d="M 428.013223 120.84249 
C 431.261285 120.84249 434.376751 119.552022 436.673477 117.255295 
C 438.970203 114.958569 440.260672 111.843103 440.260672 108.595041 
C 440.260672 105.34698 438.970203 102.231514 436.673477 99.934787 
C 434.376751 97.638061 431.261285 96.347593 428.013223 96.347593 
C 424.765162 96.347593 421.649695 97.638061 419.352969 99.934787 
C 417.056243 102.231514 415.765774 105.34698 415.765774 108.595041 
C 415.765774 111.843103 417.056243 114.958569 419.352969 117.255295 
C 421.649695 119.552022 424.765162 120.84249 428.013223 120.84249 
z
" clip-path="url(#p96419197d8)" style="fill: #add8e6; stroke: #add8e6"/>
    <path d="M 428.013223 192.247449 
C 431.261285 192.247449 434.376751 190.95698 436.673477 188.660254 
C 438.970203 186.363528 440.260672 183.248061 440.260672 180 
C 440.260672 176.751939 438.970203 173.636472 436.673477 171.339746 
C 434.376751 169.04302 431.261285 167.752551 428.013223 167.752551 
C 424.765162 167.752551 421.649695 169.04302 419.352969 171.339746 
C 417.056243 173.636472 415.765774 176.751939 415.765774 180 
C 415.765774 183.248061 417.056243 186.363528 419.352969 188.660254 
C 421.649695 190.95698 424.765162 192.247449 428.013223 192.247449 
z
" clip-path="url(#p96419197d8)" style="fill: #add8e6; stroke: #add8e6"/>
    <path d="M 428.013223 263.652407 
C 431.261285 263.652407 434.376751 262.361939 436.673477 260.065213 
C 438.970203 257.768486 440.260672 254.65302 440.260672 251.404959 
C 440.260672 248.156897 438.970203 245.041431 436.673477 242.744705 
C 434.376751 240.447978 431.261285 239.15751 428.013223 239.15751 
C 424.765162 239.15751 421.649695 240.447978 419.352969 242.744705 
C 417.056243 245.041431 415.765774 248.156897 415.765774 251.404959 
C 415.765774 254.65302 417.056243 257.768486 419.352969 260.065213 
C 421.649695 262.361939 424.765162 263.652407 428.013223 263.652407 
z
" clip-path="url(#p96419197d8)" style="fill: #add8e6; stroke: #add8e6"/>
   </g>
   <g id="text_1">
    <g clip-path="url(#p96419197d8)">
     <!-- 1 -->
     <g transform="translate(43.369277 40.501333) scale(0.12 -0.12)">
      <defs>
       <path id="DejaVuSans-31" d="M 794 531 
L 1825 531 
L 1825 4091 
L 703 3866 
L 703 4441 
L 1819 4666 
L 2450 4666 
L 2450 531 
L 3481 531 
L 3481 0 
L 794 0 
L 794 531 
z
" transform="scale(0.015625)"/>
      </defs>
      <use xlink:href="#DejaVuSans-31"/>
     </g>
    </g>
   </g>
   <g id="text_2">
    <g clip-path="url(#p96419197d8)">
     <!-- 2 -->
     <g transform="translate(43.369277 111.906291) scale(0.12 -0.12)">
      <defs>
       <path id="DejaVuSans-32" d="M 1228 531 
L 3431 531 
L 3431 0 
L 469 0 
L 469 531 
Q 828 903 1448 1529 
Q 2069 2156 2228 2338 
Q 2531 2678 2651 2914 
Q 2772 3150 2772 3378 
Q 2772 3750 2511 3984 
Q 2250 4219 1831 4219 
Q 1534 4219 1204 4116 
Q 875 4013 500 3803 
L 500 4441 
Q 881 4594 1212 4672 
Q 1544 4750 1819 4750 
Q 2544 4750 2975 4387 
Q 3406 4025 3406 3419 
Q 3406 3131 3298 2873 
Q 3191 2616 2906 2266 
Q 2828 2175 2409 1742 
Q 1991 1309 1228 531 
z
" transform="scale(0.015625)"/>
      </defs>
      <use xlink:href="#DejaVuSans-32"/>
     </g>
    </g>
   </g>
   <g id="text_3">
    <g clip-path="url(#p96419197d8)">
     <!-- 3 -->
     <g transform="translate(43.369277 183.31125) scale(0.12 -0.12)">
      <defs>
       <path id="DejaVuSans-33" d="M 2597 2516 
Q 3050 2419 3304 2112 
Q 3559 1806 3559 1356 
Q 3559 666 3084 287 
Q 2609 -91 1734 -91 
Q 1441 -91 1130 -33 
Q 819 25 488 141 
L 488 750 
Q 750 597 1062 519 
Q 1375 441 1716 441 
Q 2309 441 2620 675 
Q 2931 909 2931 1356 
Q 2931 1769 2642 2001 
Q 2353 2234 1838 2234 
L 1294 2234 
L 1294 2753 
L 1863 2753 
Q 2328 2753 2575 2939 
Q 2822 3125 2822 3475 
Q 2822 3834 2567 4026 
Q 2313 4219 1838 4219 
Q 1578 4219 1281 4162 
Q 984 4106 628 3988 
L 628 4550 
Q 988 4650 1302 4700 
Q 1616 4750 1894 4750 
Q 2613 4750 3031 4423 
Q 3450 4097 3450 3541 
Q 3450 3153 3228 2886 
Q 3006 2619 2597 2516 
z
" transform="scale(0.015625)"/>
      </defs>
      <use xlink:href="#DejaVuSans-33"/>
     </g>
    </g>
   </g>
   <g id="text_4">
    <g clip-path="url(#p96419197d8)">
     <!-- 4 -->
     <g transform="translate(43.369277 254.716209) scale(0.12 -0.12)">
      <defs>
       <path id="DejaVuSans-34" d="M 2419 4116 
L 825 1625 
L 2419 1625 
L 2419 4116 
z
M 2253 4666 
L 3047 4666 
L 3047 1625 
L 3713 1625 
L 3713 1100 
L 3047 1100 
L 3047 0 
L 2419 0 
L 2419 1100 
L 313 1100 
L 313 1709 
L 2253 4666 
z
" transform="scale(0.015625)"/>
      </defs>
      <use xlink:href="#DejaVuSans-34"/>
     </g>
    </g>
   </g>
   <g id="text_5">
    <g clip-path="url(#p96419197d8)">
     <!-- 5 -->
     <g transform="translate(43.369277 326.121167) scale(0.12 -0.12)">
      <defs>
       <path id="DejaVuSans-35" d="M 691 4666 
L 3169 4666 
L 3169 4134 
L 1269 4134 
L 1269 2991 
Q 1406 3038 1543 3061 
Q 1681 3084 1819 3084 
Q 2600 3084 3056 2656 
Q 3513 2228 3513 1497 
Q 3513 744 3044 326 
Q 2575 -91 1722 -91 
Q 1428 -91 1123 -41 
Q 819 9 494 109 
L 494 744 
Q 775 591 1075 516 
Q 1375 441 1709 441 
Q 2250 441 2565 725 
Q 2881 1009 2881 1497 
Q 2881 1984 2565 2268 
Q 2250 2553 1709 2553 
Q 1456 2553 1204 2497 
Q 953 2441 691 2322 
L 691 4666 
z
" transform="scale(0.015625)"/>
      </defs>
      <use xlink:href="#DejaVuSans-35"/>
     </g>
    </g>
   </g>
   <g id="text_6">
    <g clip-path="url(#p96419197d8)">
     <!-- 101 -->
     <g transform="translate(416.560723 40.501333) scale(0.12 -0.12)">
      <defs>
       <path id="DejaVuSans-30" d="M 2034 4250 
Q 1547 4250 1301 3770 
Q 1056 3291 1056 2328 
Q 1056 1369 1301 889 
Q 1547 409 2034 409 
Q 2525 409 2770 889 
Q 3016 1369 3016 2328 
Q 3016 3291 2770 3770 
Q 2525 4250 2034 4250 
z
M 2034 4750 
Q 2819 4750 3233 4129 
Q 3647 3509 3647 2328 
Q 3647 1150 3233 529 
Q 2819 -91 2034 -91 
Q 1250 -91 836 529 
Q 422 1150 422 2328 
Q 422 3509 836 4129 
Q 1250 4750 2034 4750 
z
" transform="scale(0.015625)"/>
      </defs>
      <use xlink:href="#DejaVuSans-31"/>
      <use xlink:href="#DejaVuSans-30" x="63.623047"/>
      <use xlink:href="#DejaVuSans-31" x="127.246094"/>
     </g>
    </g>
   </g>
   <g id="text_7">
    <g clip-path="url(#p96419197d8)">
     <!-- 102 -->
     <g transform="translate(416.560723 111.906291) scale(0.12 -0.12)">
      <use xlink:href="#DejaVuSans-31"/>
      <use xlink:href="#DejaVuSans-30" x="63.623047"/>
      <use xlink:href="#DejaVuSans-32" x="127.246094"/>
     </g>
    </g>
   </g>
   <g id="text_8">
    <g clip-path="url(#p96419197d8)">
     <!-- 103 -->
     <g transform="translate(416.560723 183.31125) scale(0.12 -0.12)">
      <use xlink:href="#DejaVuSans-31"/>
      <use xlink:href="#DejaVuSans-30" x="63.623047"/>
      <use xlink:href="#DejaVuSans-33" x="127.246094"/>
     </g>
    </g>
   </g>
   <g id="text_9">
    <g clip-path="url(#p96419197d8)">
     <!-- 104 -->
     <g transform="translate(416.560723 254.716209) scale(0.12 -0.12)">
      <use xlink:href="#DejaVuSans-31"/>
      <use xlink:href="#DejaVuSans-30" x="63.623047"/>
      <use xlink:href="#DejaVuSans-34" x="127.246094"/>
     </g>
    </g>
   </g>
  </g>
 </g>
 <defs>
  <clipPath id="p96419197d8">
   <rect x="7.2" y="7.2" width="460.8" height="345.6"/>
  </clipPath>
 </defs>
</svg>
