<?xml version="1.0" encoding="utf-8" standalone="no"?>
<!DOCTYPE svg PUBLIC "-//W3C//DTD SVG 1.1//EN"
  "http://www.w3.org/Graphics/SVG/1.1/DTD/svg11.dtd">
<svg xmlns:xlink="http://www.w3.org/1999/xlink" width="446.4pt" height="302.4pt" viewBox="0 0 446.4 302.4" xmlns="http://www.w3.org/2000/svg" version="1.1">
 <metadata>
  <rdf:RDF xmlns:dc="http://purl.org/dc/elements/1.1/" xmlns:cc="http://creativecommons.org/ns#" xmlns:rdf="http://www.w3.org/1999/02/22-rdf-syntax-ns#">
   <cc:Work>
    <dc:type rdf:resource="http://purl.org/dc/dcmitype/StillImage"/>
    <dc:date>2022-05-29T23:51:36.718710</dc:date>
    <dc:format>image/svg+xml</dc:format>
    <dc:creator>
     <cc:Agent>
      <dc:title>Matplotlib v3.5.2, https://matplotlib.org/</dc:title>
     </cc:Agent>
    </dc:creator>
   </cc:Work>
  </rdf:RDF>
 </metadata>
 <defs>
  <style type="text/css">*{stroke-linejoin: round; stroke-linecap: butt}</style>
 </defs>
 <g id="figure_1">
  <g id="patch_1">
   <path d="M 0 302.4 
L 446.4 302.4 
L 446.4 0 
L 0 0 
z
" style="fill: #ffffff"/>
  </g>
  <g id="axes_1">
   <g id="LineCollection_1">
    <path d="M 26.836364 20.290909 
L 419.563636 20.290909 
" clip-path="url(#p5cac7c5000)" style="fill: none; stroke: #000000"/>
    <path d="M 26.836364 20.290909 
L 419.563636 282.109091 
" clip-path="url(#p5cac7c5000)" style="fill: none; stroke: #000000"/>
    <path d="M 26.836364 107.563636 
L 419.563636 20.290909 
" clip-path="url(#p5cac7c5000)" style="fill: none; stroke: #000000"/>
    <path d="M 26.836364 107.563636 
L 419.563636 107.563636 
" clip-path="url(#p5cac7c5000)" style="fill: none; stroke: #000000"/>
    <path d="M 26.836364 107.563636 
L 419.563636 282.109091 
" clip-path="url(#p5cac7c5000)" style="fill: none; stroke: #000000"/>
    <path d="M 26.836364 194.836364 
L 419.563636 20.290909 
" clip-path="url(#p5cac7c5000)" style="fill: none; stroke: #000000"/>
    <path d="M 26.836364 194.836364 
L 419.563636 282.109091 
" clip-path="url(#p5cac7c5000)" style="fill: none; stroke: #000000"/>
   </g>
   <g id="PathCollection_1">
    <path d="M 26.836364 32.538358 
C 30.084425 32.538358 33.199891 31.247889 35.496618 28.951163 
C 37.793344 26.654437 39.083812 23.53897 39.083812 20.290909 
C 39.083812 17.042848 37.793344 13.927381 35.496618 11.630655 
C 33.199891 9.333929 30.084425 8.04346 26.836364 8.04346 
C 23.588302 8.04346 20.472836 9.333929 18.17611 11.630655 
C 15.879383 13.927381 14.588915 17.042848 14.588915 20.290909 
C 14.588915 23.53897 15.879383 26.654437 18.17611 28.951163 
C 20.472836 31.247889 23.588302 32.538358 26.836364 32.538358 
z
" clip-path="url(#p5cac7c5000)" style="fill: #ff0000; stroke: #ff0000"/>
    <path d="M 26.836364 119.811085 
C 30.084425 119.811085 33.199891 118.520617 35.496618 116.22389 
C 37.793344 113.927164 39.083812 110.811698 39.083812 107.563636 
C 39.083812 104.315575 37.793344 101.200109 35.496618 98.903382 
C 33.199891 96.606656 30.084425 95.316188 26.836364 95.316188 
C 23.588302 95.316188 20.472836 96.606656 18.17611 98.903382 
C 15.879383 101.200109 14.588915 104.315575 14.588915 107.563636 
C 14.588915 110.811698 15.879383 113.927164 18.17611 116.22389 
C 20.472836 118.520617 23.588302 119.811085 26.836364 119.811085 
z
" clip-path="url(#p5cac7c5000)" style="fill: #ff0000; stroke: #ff0000"/>
    <path d="M 26.836364 207.083812 
C 30.084425 207.083812 33.199891 205.793344 35.496618 203.496618 
C 37.793344 201.199891 39.083812 198.084425 39.083812 194.836364 
C 39.083812 191.588302 37.793344 188.472836 35.496618 186.17611 
C 33.199891 183.879383 30.084425 182.588915 26.836364 182.588915 
C 23.588302 182.588915 20.472836 183.879383 18.17611 186.17611 
C 15.879383 188.472836 14.588915 191.588302 14.588915 194.836364 
C 14.588915 198.084425 15.879383 201.199891 18.17611 203.496618 
C 20.472836 205.793344 23.588302 207.083812 26.836364 207.083812 
z
" clip-path="url(#p5cac7c5000)" style="fill: #ff0000; stroke: #ff0000"/>
    <path d="M 419.563636 32.538358 
C 422.811698 32.538358 425.927164 31.247889 428.22389 28.951163 
C 430.520617 26.654437 431.811085 23.53897 431.811085 20.290909 
C 431.811085 17.042848 430.520617 13.927381 428.22389 11.630655 
C 425.927164 9.333929 422.811698 8.04346 419.563636 8.04346 
C 416.315575 8.04346 413.200109 9.333929 410.903382 11.630655 
C 408.606656 13.927381 407.316188 17.042848 407.316188 20.290909 
C 407.316188 23.53897 408.606656 26.654437 410.903382 28.951163 
C 413.200109 31.247889 416.315575 32.538358 419.563636 32.538358 
z
" clip-path="url(#p5cac7c5000)" style="fill: #add8e6; stroke: #add8e6"/>
    <path d="M 419.563636 119.811085 
C 422.811698 119.811085 425.927164 118.520617 428.22389 116.22389 
C 430.520617 113.927164 431.811085 110.811698 431.811085 107.563636 
C 431.811085 104.315575 430.520617 101.200109 428.22389 98.903382 
C 425.927164 96.606656 422.811698 95.316188 419.563636 95.316188 
C 416.315575 95.316188 413.200109 96.606656 410.903382 98.903382 
C 408.606656 101.200109 407.316188 104.315575 407.316188 107.563636 
C 407.316188 110.811698 408.606656 113.927164 410.903382 116.22389 
C 413.200109 118.520617 416.315575 119.811085 419.563636 119.811085 
z
" clip-path="url(#p5cac7c5000)" style="fill: #add8e6; stroke: #add8e6"/>
    <path d="M 419.563636 207.083812 
C 422.811698 207.083812 425.927164 205.793344 428.22389 203.496618 
C 430.520617 201.199891 431.811085 198.084425 431.811085 194.836364 
C 431.811085 191.588302 430.520617 188.472836 428.22389 186.17611 
C 425.927164 183.879383 422.811698 182.588915 419.563636 182.588915 
C 416.315575 182.588915 413.200109 183.879383 410.903382 186.17611 
C 408.606656 188.472836 407.316188 191.588302 407.316188 194.836364 
C 407.316188 198.084425 408.606656 201.199891 410.903382 203.496618 
C 413.200109 205.793344 416.315575 207.083812 419.563636 207.083812 
z
" clip-path="url(#p5cac7c5000)" style="fill: #add8e6; stroke: #add8e6"/>
    <path d="M 419.563636 294.35654 
C 422.811698 294.35654 425.927164 293.066071 428.22389 290.769345 
C 430.520617 288.472619 431.811085 285.357152 431.811085 282.109091 
C 431.811085 278.86103 430.520617 275.745563 428.22389 273.448837 
C 425.927164 271.152111 422.811698 269.861642 419.563636 269.861642 
C 416.315575 269.861642 413.200109 271.152111 410.903382 273.448837 
C 408.606656 275.745563 407.316188 278.86103 407.316188 282.109091 
C 407.316188 285.357152 408.606656 288.472619 410.903382 290.769345 
C 413.200109 293.066071 416.315575 294.35654 419.563636 294.35654 
z
" clip-path="url(#p5cac7c5000)" style="fill: #add8e6; stroke: #add8e6"/>
   </g>
   <g id="text_1">
    <g clip-path="url(#p5cac7c5000)">
     <!-- 0 -->
     <g transform="translate(23.018864 23.602159)scale(0.12 -0.12)">
      <defs>
       <path id="DejaVuSans-30" d="M 2034 4250 
Q 1547 4250 1301 3770 
Q 1056 3291 1056 2328 
Q 1056 1369 1301 889 
Q 1547 409 2034 409 
Q 2525 409 2770 889 
Q 3016 1369 3016 2328 
Q 3016 3291 2770 3770 
Q 2525 4250 2034 4250 
z
M 2034 4750 
Q 2819 4750 3233 4129 
Q 3647 3509 3647 2328 
Q 3647 1150 3233 529 
Q 2819 -91 2034 -91 
Q 1250 -91 836 529 
Q 422 1150 422 2328 
Q 422 3509 836 4129 
Q 1250 4750 2034 4750 
z
" transform="scale(0.015625)"/>
      </defs>
      <use xlink:href="#DejaVuSans-30"/>
     </g>
    </g>
   </g>
   <g id="text_2">
    <g clip-path="url(#p5cac7c5000)">
     <!-- 1 -->
     <g transform="translate(23.018864 110.874886)scale(0.12 -0.12)">
      <defs>
       <path id="DejaVuSans-31" d="M 794 531 
L 1825 531 
L 1825 4091 
L 703 3866 
L 703 4441 
L 1819 4666 
L 2450 4666 
L 2450 531 
L 3481 531 
L 3481 0 
L 794 0 
L 794 531 
z
" transform="scale(0.015625)"/>
      </defs>
      <use xlink:href="#DejaVuSans-31"/>
     </g>
    </g>
   </g>
   <g id="text_3">
    <g clip-path="url(#p5cac7c5000)">
     <!-- 2 -->
     <g transform="translate(23.018864 198.147614)scale(0.12 -0.12)">
      <defs>
       <path id="DejaVuSans-32" d="M 1228 531 
L 3431 531 
L 3431 0 
L 469 0 
L 469 531 
Q 828 903 1448 1529 
Q 2069 2156 2228 2338 
Q 2531 2678 2651 2914 
Q 2772 3150 2772 3378 
Q 2772 3750 2511 3984 
Q 2250 4219 1831 4219 
Q 1534 4219 1204 4116 
Q 875 4013 500 3803 
L 500 4441 
Q 881 4594 1212 4672 
Q 1544 4750 1819 4750 
Q 2544 4750 2975 4387 
Q 3406 4025 3406 3419 
Q 3406 3131 3298 2873 
Q 3191 2616 2906 2266 
Q 2828 2175 2409 1742 
Q 1991 1309 1228 531 
z
" transform="scale(0.015625)"/>
      </defs>
      <use xlink:href="#DejaVuSans-32"/>
     </g>
    </g>
   </g>
   <g id="text_4">
    <g clip-path="url(#p5cac7c5000)">
     <!-- 100 -->
     <g transform="translate(408.111136 23.602159)scale(0.12 -0.12)">
      <use xlink:href="#DejaVuSans-31"/>
      <use xlink:href="#DejaVuSans-30" x="63.623047"/>
      <use xlink:href="#DejaVuSans-30" x="127.246094"/>
     </g>
    </g>
   </g>
   <g id="text_5">
    <g clip-path="url(#p5cac7c5000)">
     <!-- 101 -->
     <g transform="translate(408.111136 110.874886)scale(0.12 -0.12)">
      <use xlink:href="#DejaVuSans-31"/>
      <use xlink:href="#DejaVuSans-30" x="63.623047"/>
      <use xlink:href="#DejaVuSans-31" x="127.246094"/>
     </g>
    </g>
   </g>
   <g id="text_6">
    <g clip-path="url(#p5cac7c5000)">
     <!-- 102 -->
     <g transform="translate(408.111136 198.147614)scale(0.12 -0.12)">
      <use xlink:href="#DejaVuSans-31"/>
      <use xlink:href="#DejaVuSans-30" x="63.623047"/>
      <use xlink:href="#DejaVuSans-32" x="127.246094"/>
     </g>
    </g>
   </g>
   <g id="text_7">
    <g clip-path="url(#p5cac7c5000)">
     <!-- 103 -->
     <g transform="translate(408.111136 285.420341)scale(0.12 -0.12)">
      <defs>
       <path id="DejaVuSans-33" d="M 2597 2516 
Q 3050 2419 3304 2112 
Q 3559 1806 3559 1356 
Q 3559 666 3084 287 
Q 2609 -91 1734 -91 
Q 1441 -91 1130 -33 
Q 819 25 488 141 
L 488 750 
Q 750 597 1062 519 
Q 1375 441 1716 441 
Q 2309 441 2620 675 
Q 2931 909 2931 1356 
Q 2931 1769 2642 2001 
Q 2353 2234 1838 2234 
L 1294 2234 
L 1294 2753 
L 1863 2753 
Q 2328 2753 2575 2939 
Q 2822 3125 2822 3475 
Q 2822 3834 2567 4026 
Q 2313 4219 1838 4219 
Q 1578 4219 1281 4162 
Q 984 4106 628 3988 
L 628 4550 
Q 988 4650 1302 4700 
Q 1616 4750 1894 4750 
Q 2613 4750 3031 4423 
Q 3450 4097 3450 3541 
Q 3450 3153 3228 2886 
Q 3006 2619 2597 2516 
z
" transform="scale(0.015625)"/>
      </defs>
      <use xlink:href="#DejaVuSans-31"/>
      <use xlink:href="#DejaVuSans-30" x="63.623047"/>
      <use xlink:href="#DejaVuSans-33" x="127.246094"/>
     </g>
    </g>
   </g>
  </g>
 </g>
 <defs>
  <clipPath id="p5cac7c5000">
   <rect x="7.2" y="7.2" width="432" height="288"/>
  </clipPath>
 </defs>
</svg>
