<?xml version="1.0" encoding="utf-8" standalone="no"?>
<!DOCTYPE svg PUBLIC "-//W3C//DTD SVG 1.1//EN"
  "http://www.w3.org/Graphics/SVG/1.1/DTD/svg11.dtd">
<!-- Created with matplotlib (https://matplotlib.org/) -->
<svg height="252.018125pt" version="1.1" viewBox="0 0 383.982812 252.018125" width="383.982812pt" xmlns="http://www.w3.org/2000/svg" xmlns:xlink="http://www.w3.org/1999/xlink">
 <defs>
  <style type="text/css">
*{stroke-linecap:butt;stroke-linejoin:round;}
  </style>
 </defs>
 <g id="figure_1">
  <g id="patch_1">
   <path d="M -0 252.018125 
L 383.982812 252.018125 
L 383.982812 0 
L -0 0 
z
" style="fill:none;"/>
  </g>
  <g id="axes_1">
   <g id="patch_2">
    <path d="M 38.482813 228.14 
L 373.282813 228.14 
L 373.282813 10.7 
L 38.482813 10.7 
z
" style="fill:#ffffff;"/>
   </g>
   <g id="matplotlib.axis_1">
    <g id="xtick_1">
     <g id="line2d_1">
      <path clip-path="url(#p109d543574)" d="M 53.700994 228.14 
L 53.700994 10.7 
" style="fill:none;stroke:#b0b0b0;stroke-linecap:square;stroke-width:0.8;"/>
     </g>
     <g id="line2d_2">
      <defs>
       <path d="M 0 0 
L 0 3.5 
" id="mb2e6594d25" style="stroke:#000000;stroke-width:0.8;"/>
      </defs>
      <g>
       <use style="stroke:#000000;stroke-width:0.8;" x="53.700994" xlink:href="#mb2e6594d25" y="228.14"/>
      </g>
     </g>
     <g id="text_1">
      <!-- 0 -->
      <defs>
       <path d="M 31.78125 66.40625 
Q 24.171875 66.40625 20.328125 58.90625 
Q 16.5 51.421875 16.5 36.375 
Q 16.5 21.390625 20.328125 13.890625 
Q 24.171875 6.390625 31.78125 6.390625 
Q 39.453125 6.390625 43.28125 13.890625 
Q 47.125 21.390625 47.125 36.375 
Q 47.125 51.421875 43.28125 58.90625 
Q 39.453125 66.40625 31.78125 66.40625 
z
M 31.78125 74.21875 
Q 44.046875 74.21875 50.515625 64.515625 
Q 56.984375 54.828125 56.984375 36.375 
Q 56.984375 17.96875 50.515625 8.265625 
Q 44.046875 -1.421875 31.78125 -1.421875 
Q 19.53125 -1.421875 13.0625 8.265625 
Q 6.59375 17.96875 6.59375 36.375 
Q 6.59375 54.828125 13.0625 64.515625 
Q 19.53125 74.21875 31.78125 74.21875 
z
" id="DejaVuSans-48"/>
      </defs>
      <g transform="translate(50.519744 242.738437)scale(0.1 -0.1)">
       <use xlink:href="#DejaVuSans-48"/>
      </g>
     </g>
    </g>
    <g id="xtick_2">
     <g id="line2d_3">
      <path clip-path="url(#p109d543574)" d="M 91.937632 228.14 
L 91.937632 10.7 
" style="fill:none;stroke:#b0b0b0;stroke-linecap:square;stroke-width:0.8;"/>
     </g>
     <g id="line2d_4">
      <g>
       <use style="stroke:#000000;stroke-width:0.8;" x="91.937632" xlink:href="#mb2e6594d25" y="228.14"/>
      </g>
     </g>
     <g id="text_2">
      <!-- 25 -->
      <defs>
       <path d="M 19.1875 8.296875 
L 53.609375 8.296875 
L 53.609375 0 
L 7.328125 0 
L 7.328125 8.296875 
Q 12.9375 14.109375 22.625 23.890625 
Q 32.328125 33.6875 34.8125 36.53125 
Q 39.546875 41.84375 41.421875 45.53125 
Q 43.3125 49.21875 43.3125 52.78125 
Q 43.3125 58.59375 39.234375 62.25 
Q 35.15625 65.921875 28.609375 65.921875 
Q 23.96875 65.921875 18.8125 64.3125 
Q 13.671875 62.703125 7.8125 59.421875 
L 7.8125 69.390625 
Q 13.765625 71.78125 18.9375 73 
Q 24.125 74.21875 28.421875 74.21875 
Q 39.75 74.21875 46.484375 68.546875 
Q 53.21875 62.890625 53.21875 53.421875 
Q 53.21875 48.921875 51.53125 44.890625 
Q 49.859375 40.875 45.40625 35.40625 
Q 44.1875 33.984375 37.640625 27.21875 
Q 31.109375 20.453125 19.1875 8.296875 
z
" id="DejaVuSans-50"/>
       <path d="M 10.796875 72.90625 
L 49.515625 72.90625 
L 49.515625 64.59375 
L 19.828125 64.59375 
L 19.828125 46.734375 
Q 21.96875 47.46875 24.109375 47.828125 
Q 26.265625 48.1875 28.421875 48.1875 
Q 40.625 48.1875 47.75 41.5 
Q 54.890625 34.8125 54.890625 23.390625 
Q 54.890625 11.625 47.5625 5.09375 
Q 40.234375 -1.421875 26.90625 -1.421875 
Q 22.3125 -1.421875 17.546875 -0.640625 
Q 12.796875 0.140625 7.71875 1.703125 
L 7.71875 11.625 
Q 12.109375 9.234375 16.796875 8.0625 
Q 21.484375 6.890625 26.703125 6.890625 
Q 35.15625 6.890625 40.078125 11.328125 
Q 45.015625 15.765625 45.015625 23.390625 
Q 45.015625 31 40.078125 35.4375 
Q 35.15625 39.890625 26.703125 39.890625 
Q 22.75 39.890625 18.8125 39.015625 
Q 14.890625 38.140625 10.796875 36.28125 
z
" id="DejaVuSans-53"/>
      </defs>
      <g transform="translate(85.575132 242.738437)scale(0.1 -0.1)">
       <use xlink:href="#DejaVuSans-50"/>
       <use x="63.623047" xlink:href="#DejaVuSans-53"/>
      </g>
     </g>
    </g>
    <g id="xtick_3">
     <g id="line2d_5">
      <path clip-path="url(#p109d543574)" d="M 130.17427 228.14 
L 130.17427 10.7 
" style="fill:none;stroke:#b0b0b0;stroke-linecap:square;stroke-width:0.8;"/>
     </g>
     <g id="line2d_6">
      <g>
       <use style="stroke:#000000;stroke-width:0.8;" x="130.17427" xlink:href="#mb2e6594d25" y="228.14"/>
      </g>
     </g>
     <g id="text_3">
      <!-- 50 -->
      <g transform="translate(123.81177 242.738437)scale(0.1 -0.1)">
       <use xlink:href="#DejaVuSans-53"/>
       <use x="63.623047" xlink:href="#DejaVuSans-48"/>
      </g>
     </g>
    </g>
    <g id="xtick_4">
     <g id="line2d_7">
      <path clip-path="url(#p109d543574)" d="M 168.410908 228.14 
L 168.410908 10.7 
" style="fill:none;stroke:#b0b0b0;stroke-linecap:square;stroke-width:0.8;"/>
     </g>
     <g id="line2d_8">
      <g>
       <use style="stroke:#000000;stroke-width:0.8;" x="168.410908" xlink:href="#mb2e6594d25" y="228.14"/>
      </g>
     </g>
     <g id="text_4">
      <!-- 75 -->
      <defs>
       <path d="M 8.203125 72.90625 
L 55.078125 72.90625 
L 55.078125 68.703125 
L 28.609375 0 
L 18.3125 0 
L 43.21875 64.59375 
L 8.203125 64.59375 
z
" id="DejaVuSans-55"/>
      </defs>
      <g transform="translate(162.048408 242.738437)scale(0.1 -0.1)">
       <use xlink:href="#DejaVuSans-55"/>
       <use x="63.623047" xlink:href="#DejaVuSans-53"/>
      </g>
     </g>
    </g>
    <g id="xtick_5">
     <g id="line2d_9">
      <path clip-path="url(#p109d543574)" d="M 206.647545 228.14 
L 206.647545 10.7 
" style="fill:none;stroke:#b0b0b0;stroke-linecap:square;stroke-width:0.8;"/>
     </g>
     <g id="line2d_10">
      <g>
       <use style="stroke:#000000;stroke-width:0.8;" x="206.647545" xlink:href="#mb2e6594d25" y="228.14"/>
      </g>
     </g>
     <g id="text_5">
      <!-- 100 -->
      <defs>
       <path d="M 12.40625 8.296875 
L 28.515625 8.296875 
L 28.515625 63.921875 
L 10.984375 60.40625 
L 10.984375 69.390625 
L 28.421875 72.90625 
L 38.28125 72.90625 
L 38.28125 8.296875 
L 54.390625 8.296875 
L 54.390625 0 
L 12.40625 0 
z
" id="DejaVuSans-49"/>
      </defs>
      <g transform="translate(197.103795 242.738437)scale(0.1 -0.1)">
       <use xlink:href="#DejaVuSans-49"/>
       <use x="63.623047" xlink:href="#DejaVuSans-48"/>
       <use x="127.246094" xlink:href="#DejaVuSans-48"/>
      </g>
     </g>
    </g>
    <g id="xtick_6">
     <g id="line2d_11">
      <path clip-path="url(#p109d543574)" d="M 244.884183 228.14 
L 244.884183 10.7 
" style="fill:none;stroke:#b0b0b0;stroke-linecap:square;stroke-width:0.8;"/>
     </g>
     <g id="line2d_12">
      <g>
       <use style="stroke:#000000;stroke-width:0.8;" x="244.884183" xlink:href="#mb2e6594d25" y="228.14"/>
      </g>
     </g>
     <g id="text_6">
      <!-- 125 -->
      <g transform="translate(235.340433 242.738437)scale(0.1 -0.1)">
       <use xlink:href="#DejaVuSans-49"/>
       <use x="63.623047" xlink:href="#DejaVuSans-50"/>
       <use x="127.246094" xlink:href="#DejaVuSans-53"/>
      </g>
     </g>
    </g>
    <g id="xtick_7">
     <g id="line2d_13">
      <path clip-path="url(#p109d543574)" d="M 283.120821 228.14 
L 283.120821 10.7 
" style="fill:none;stroke:#b0b0b0;stroke-linecap:square;stroke-width:0.8;"/>
     </g>
     <g id="line2d_14">
      <g>
       <use style="stroke:#000000;stroke-width:0.8;" x="283.120821" xlink:href="#mb2e6594d25" y="228.14"/>
      </g>
     </g>
     <g id="text_7">
      <!-- 150 -->
      <g transform="translate(273.577071 242.738437)scale(0.1 -0.1)">
       <use xlink:href="#DejaVuSans-49"/>
       <use x="63.623047" xlink:href="#DejaVuSans-53"/>
       <use x="127.246094" xlink:href="#DejaVuSans-48"/>
      </g>
     </g>
    </g>
    <g id="xtick_8">
     <g id="line2d_15">
      <path clip-path="url(#p109d543574)" d="M 321.357458 228.14 
L 321.357458 10.7 
" style="fill:none;stroke:#b0b0b0;stroke-linecap:square;stroke-width:0.8;"/>
     </g>
     <g id="line2d_16">
      <g>
       <use style="stroke:#000000;stroke-width:0.8;" x="321.357458" xlink:href="#mb2e6594d25" y="228.14"/>
      </g>
     </g>
     <g id="text_8">
      <!-- 175 -->
      <g transform="translate(311.813708 242.738437)scale(0.1 -0.1)">
       <use xlink:href="#DejaVuSans-49"/>
       <use x="63.623047" xlink:href="#DejaVuSans-55"/>
       <use x="127.246094" xlink:href="#DejaVuSans-53"/>
      </g>
     </g>
    </g>
    <g id="xtick_9">
     <g id="line2d_17">
      <path clip-path="url(#p109d543574)" d="M 359.594096 228.14 
L 359.594096 10.7 
" style="fill:none;stroke:#b0b0b0;stroke-linecap:square;stroke-width:0.8;"/>
     </g>
     <g id="line2d_18">
      <g>
       <use style="stroke:#000000;stroke-width:0.8;" x="359.594096" xlink:href="#mb2e6594d25" y="228.14"/>
      </g>
     </g>
     <g id="text_9">
      <!-- 200 -->
      <g transform="translate(350.050346 242.738437)scale(0.1 -0.1)">
       <use xlink:href="#DejaVuSans-50"/>
       <use x="63.623047" xlink:href="#DejaVuSans-48"/>
       <use x="127.246094" xlink:href="#DejaVuSans-48"/>
      </g>
     </g>
    </g>
   </g>
   <g id="matplotlib.axis_2">
    <g id="ytick_1">
     <g id="line2d_19">
      <path clip-path="url(#p109d543574)" d="M 38.482813 225.421137 
L 373.282813 225.421137 
" style="fill:none;stroke:#b0b0b0;stroke-linecap:square;stroke-width:0.8;"/>
     </g>
     <g id="line2d_20">
      <defs>
       <path d="M 0 0 
L -3.5 0 
" id="m752bfe92d6" style="stroke:#000000;stroke-width:0.8;"/>
      </defs>
      <g>
       <use style="stroke:#000000;stroke-width:0.8;" x="38.482813" xlink:href="#m752bfe92d6" y="225.421137"/>
      </g>
     </g>
     <g id="text_10">
      <!-- −0.6 -->
      <defs>
       <path d="M 10.59375 35.5 
L 73.1875 35.5 
L 73.1875 27.203125 
L 10.59375 27.203125 
z
" id="DejaVuSans-8722"/>
       <path d="M 10.6875 12.40625 
L 21 12.40625 
L 21 0 
L 10.6875 0 
z
" id="DejaVuSans-46"/>
       <path d="M 33.015625 40.375 
Q 26.375 40.375 22.484375 35.828125 
Q 18.609375 31.296875 18.609375 23.390625 
Q 18.609375 15.53125 22.484375 10.953125 
Q 26.375 6.390625 33.015625 6.390625 
Q 39.65625 6.390625 43.53125 10.953125 
Q 47.40625 15.53125 47.40625 23.390625 
Q 47.40625 31.296875 43.53125 35.828125 
Q 39.65625 40.375 33.015625 40.375 
z
M 52.59375 71.296875 
L 52.59375 62.3125 
Q 48.875 64.0625 45.09375 64.984375 
Q 41.3125 65.921875 37.59375 65.921875 
Q 27.828125 65.921875 22.671875 59.328125 
Q 17.53125 52.734375 16.796875 39.40625 
Q 19.671875 43.65625 24.015625 45.921875 
Q 28.375 48.1875 33.59375 48.1875 
Q 44.578125 48.1875 50.953125 41.515625 
Q 57.328125 34.859375 57.328125 23.390625 
Q 57.328125 12.15625 50.6875 5.359375 
Q 44.046875 -1.421875 33.015625 -1.421875 
Q 20.359375 -1.421875 13.671875 8.265625 
Q 6.984375 17.96875 6.984375 36.375 
Q 6.984375 53.65625 15.1875 63.9375 
Q 23.390625 74.21875 37.203125 74.21875 
Q 40.921875 74.21875 44.703125 73.484375 
Q 48.484375 72.75 52.59375 71.296875 
z
" id="DejaVuSans-54"/>
      </defs>
      <g transform="translate(7.2 229.220355)scale(0.1 -0.1)">
       <use xlink:href="#DejaVuSans-8722"/>
       <use x="83.789062" xlink:href="#DejaVuSans-48"/>
       <use x="147.412109" xlink:href="#DejaVuSans-46"/>
       <use x="179.199219" xlink:href="#DejaVuSans-54"/>
      </g>
     </g>
    </g>
    <g id="ytick_2">
     <g id="line2d_21">
      <path clip-path="url(#p109d543574)" d="M 38.482813 199.816449 
L 373.282813 199.816449 
" style="fill:none;stroke:#b0b0b0;stroke-linecap:square;stroke-width:0.8;"/>
     </g>
     <g id="line2d_22">
      <g>
       <use style="stroke:#000000;stroke-width:0.8;" x="38.482813" xlink:href="#m752bfe92d6" y="199.816449"/>
      </g>
     </g>
     <g id="text_11">
      <!-- −0.4 -->
      <defs>
       <path d="M 37.796875 64.3125 
L 12.890625 25.390625 
L 37.796875 25.390625 
z
M 35.203125 72.90625 
L 47.609375 72.90625 
L 47.609375 25.390625 
L 58.015625 25.390625 
L 58.015625 17.1875 
L 47.609375 17.1875 
L 47.609375 0 
L 37.796875 0 
L 37.796875 17.1875 
L 4.890625 17.1875 
L 4.890625 26.703125 
z
" id="DejaVuSans-52"/>
      </defs>
      <g transform="translate(7.2 203.615668)scale(0.1 -0.1)">
       <use xlink:href="#DejaVuSans-8722"/>
       <use x="83.789062" xlink:href="#DejaVuSans-48"/>
       <use x="147.412109" xlink:href="#DejaVuSans-46"/>
       <use x="179.199219" xlink:href="#DejaVuSans-52"/>
      </g>
     </g>
    </g>
    <g id="ytick_3">
     <g id="line2d_23">
      <path clip-path="url(#p109d543574)" d="M 38.482813 174.211762 
L 373.282813 174.211762 
" style="fill:none;stroke:#b0b0b0;stroke-linecap:square;stroke-width:0.8;"/>
     </g>
     <g id="line2d_24">
      <g>
       <use style="stroke:#000000;stroke-width:0.8;" x="38.482813" xlink:href="#m752bfe92d6" y="174.211762"/>
      </g>
     </g>
     <g id="text_12">
      <!-- −0.2 -->
      <g transform="translate(7.2 178.01098)scale(0.1 -0.1)">
       <use xlink:href="#DejaVuSans-8722"/>
       <use x="83.789062" xlink:href="#DejaVuSans-48"/>
       <use x="147.412109" xlink:href="#DejaVuSans-46"/>
       <use x="179.199219" xlink:href="#DejaVuSans-50"/>
      </g>
     </g>
    </g>
    <g id="ytick_4">
     <g id="line2d_25">
      <path clip-path="url(#p109d543574)" d="M 38.482813 148.607074 
L 373.282813 148.607074 
" style="fill:none;stroke:#b0b0b0;stroke-linecap:square;stroke-width:0.8;"/>
     </g>
     <g id="line2d_26">
      <g>
       <use style="stroke:#000000;stroke-width:0.8;" x="38.482813" xlink:href="#m752bfe92d6" y="148.607074"/>
      </g>
     </g>
     <g id="text_13">
      <!-- 0.0 -->
      <g transform="translate(15.579688 152.406293)scale(0.1 -0.1)">
       <use xlink:href="#DejaVuSans-48"/>
       <use x="63.623047" xlink:href="#DejaVuSans-46"/>
       <use x="95.410156" xlink:href="#DejaVuSans-48"/>
      </g>
     </g>
    </g>
    <g id="ytick_5">
     <g id="line2d_27">
      <path clip-path="url(#p109d543574)" d="M 38.482813 123.002387 
L 373.282813 123.002387 
" style="fill:none;stroke:#b0b0b0;stroke-linecap:square;stroke-width:0.8;"/>
     </g>
     <g id="line2d_28">
      <g>
       <use style="stroke:#000000;stroke-width:0.8;" x="38.482813" xlink:href="#m752bfe92d6" y="123.002387"/>
      </g>
     </g>
     <g id="text_14">
      <!-- 0.2 -->
      <g transform="translate(15.579688 126.801605)scale(0.1 -0.1)">
       <use xlink:href="#DejaVuSans-48"/>
       <use x="63.623047" xlink:href="#DejaVuSans-46"/>
       <use x="95.410156" xlink:href="#DejaVuSans-50"/>
      </g>
     </g>
    </g>
    <g id="ytick_6">
     <g id="line2d_29">
      <path clip-path="url(#p109d543574)" d="M 38.482813 97.397699 
L 373.282813 97.397699 
" style="fill:none;stroke:#b0b0b0;stroke-linecap:square;stroke-width:0.8;"/>
     </g>
     <g id="line2d_30">
      <g>
       <use style="stroke:#000000;stroke-width:0.8;" x="38.482813" xlink:href="#m752bfe92d6" y="97.397699"/>
      </g>
     </g>
     <g id="text_15">
      <!-- 0.4 -->
      <g transform="translate(15.579688 101.196918)scale(0.1 -0.1)">
       <use xlink:href="#DejaVuSans-48"/>
       <use x="63.623047" xlink:href="#DejaVuSans-46"/>
       <use x="95.410156" xlink:href="#DejaVuSans-52"/>
      </g>
     </g>
    </g>
    <g id="ytick_7">
     <g id="line2d_31">
      <path clip-path="url(#p109d543574)" d="M 38.482813 71.793011 
L 373.282813 71.793011 
" style="fill:none;stroke:#b0b0b0;stroke-linecap:square;stroke-width:0.8;"/>
     </g>
     <g id="line2d_32">
      <g>
       <use style="stroke:#000000;stroke-width:0.8;" x="38.482813" xlink:href="#m752bfe92d6" y="71.793011"/>
      </g>
     </g>
     <g id="text_16">
      <!-- 0.6 -->
      <g transform="translate(15.579688 75.59223)scale(0.1 -0.1)">
       <use xlink:href="#DejaVuSans-48"/>
       <use x="63.623047" xlink:href="#DejaVuSans-46"/>
       <use x="95.410156" xlink:href="#DejaVuSans-54"/>
      </g>
     </g>
    </g>
    <g id="ytick_8">
     <g id="line2d_33">
      <path clip-path="url(#p109d543574)" d="M 38.482813 46.188324 
L 373.282813 46.188324 
" style="fill:none;stroke:#b0b0b0;stroke-linecap:square;stroke-width:0.8;"/>
     </g>
     <g id="line2d_34">
      <g>
       <use style="stroke:#000000;stroke-width:0.8;" x="38.482813" xlink:href="#m752bfe92d6" y="46.188324"/>
      </g>
     </g>
     <g id="text_17">
      <!-- 0.8 -->
      <defs>
       <path d="M 31.78125 34.625 
Q 24.75 34.625 20.71875 30.859375 
Q 16.703125 27.09375 16.703125 20.515625 
Q 16.703125 13.921875 20.71875 10.15625 
Q 24.75 6.390625 31.78125 6.390625 
Q 38.8125 6.390625 42.859375 10.171875 
Q 46.921875 13.96875 46.921875 20.515625 
Q 46.921875 27.09375 42.890625 30.859375 
Q 38.875 34.625 31.78125 34.625 
z
M 21.921875 38.8125 
Q 15.578125 40.375 12.03125 44.71875 
Q 8.5 49.078125 8.5 55.328125 
Q 8.5 64.0625 14.71875 69.140625 
Q 20.953125 74.21875 31.78125 74.21875 
Q 42.671875 74.21875 48.875 69.140625 
Q 55.078125 64.0625 55.078125 55.328125 
Q 55.078125 49.078125 51.53125 44.71875 
Q 48 40.375 41.703125 38.8125 
Q 48.828125 37.15625 52.796875 32.3125 
Q 56.78125 27.484375 56.78125 20.515625 
Q 56.78125 9.90625 50.3125 4.234375 
Q 43.84375 -1.421875 31.78125 -1.421875 
Q 19.734375 -1.421875 13.25 4.234375 
Q 6.78125 9.90625 6.78125 20.515625 
Q 6.78125 27.484375 10.78125 32.3125 
Q 14.796875 37.15625 21.921875 38.8125 
z
M 18.3125 54.390625 
Q 18.3125 48.734375 21.84375 45.5625 
Q 25.390625 42.390625 31.78125 42.390625 
Q 38.140625 42.390625 41.71875 45.5625 
Q 45.3125 48.734375 45.3125 54.390625 
Q 45.3125 60.0625 41.71875 63.234375 
Q 38.140625 66.40625 31.78125 66.40625 
Q 25.390625 66.40625 21.84375 63.234375 
Q 18.3125 60.0625 18.3125 54.390625 
z
" id="DejaVuSans-56"/>
      </defs>
      <g transform="translate(15.579688 49.987543)scale(0.1 -0.1)">
       <use xlink:href="#DejaVuSans-48"/>
       <use x="63.623047" xlink:href="#DejaVuSans-46"/>
       <use x="95.410156" xlink:href="#DejaVuSans-56"/>
      </g>
     </g>
    </g>
    <g id="ytick_9">
     <g id="line2d_35">
      <path clip-path="url(#p109d543574)" d="M 38.482813 20.583636 
L 373.282813 20.583636 
" style="fill:none;stroke:#b0b0b0;stroke-linecap:square;stroke-width:0.8;"/>
     </g>
     <g id="line2d_36">
      <g>
       <use style="stroke:#000000;stroke-width:0.8;" x="38.482813" xlink:href="#m752bfe92d6" y="20.583636"/>
      </g>
     </g>
     <g id="text_18">
      <!-- 1.0 -->
      <g transform="translate(15.579688 24.382855)scale(0.1 -0.1)">
       <use xlink:href="#DejaVuSans-49"/>
       <use x="63.623047" xlink:href="#DejaVuSans-46"/>
       <use x="95.410156" xlink:href="#DejaVuSans-48"/>
      </g>
     </g>
    </g>
   </g>
   <g id="line2d_37">
    <path clip-path="url(#p109d543574)" d="M 53.700994 20.583636 
L 55.23046 22.981244 
L 56.759925 26.105223 
L 58.289391 29.913081 
L 59.818856 34.359288 
L 61.348322 39.395658 
L 62.877787 44.97174 
L 65.936718 57.532268 
L 68.995649 71.606841 
L 72.05458 86.750046 
L 84.290305 149.344008 
L 87.349236 163.533276 
L 90.408167 176.480122 
L 93.467098 187.936077 
L 94.996563 193.041643 
L 96.526029 197.705246 
L 98.055494 201.91089 
L 99.58496 205.645998 
L 101.114425 208.901382 
L 102.643891 211.671197 
L 104.173356 213.952879 
L 105.702822 215.747052 
L 107.232287 217.057429 
L 108.761753 217.890694 
L 110.291218 218.256364 
L 111.820684 218.166639 
L 113.350149 217.636247 
L 114.879615 216.682264 
L 116.40908 215.323938 
L 117.938546 213.582496 
L 119.468011 211.480947 
L 120.997477 209.043881 
L 122.526942 206.297263 
L 124.056408 203.268225 
L 127.115339 196.47599 
L 130.17427 188.899625 
L 134.762666 176.58512 
L 143.939459 151.39268 
L 146.99839 143.600839 
L 150.057321 136.411295 
L 153.116252 129.96739 
L 156.175183 124.385004 
L 157.704649 121.945266 
L 159.234114 119.751331 
L 160.76358 117.809546 
L 162.293045 116.124454 
L 163.822511 114.698819 
L 165.351977 113.533665 
L 166.881442 112.628325 
L 168.410908 111.980496 
L 169.940373 111.586303 
L 171.469839 111.440378 
L 172.999304 111.535933 
L 174.52877 111.864854 
L 176.058235 112.417792 
L 177.587701 113.184258 
L 179.117166 114.15273 
L 180.646632 115.310755 
L 182.176097 116.645058 
L 185.235028 119.785961 
L 188.293959 123.457025 
L 191.35289 127.533797 
L 195.941287 134.131955 
L 205.11808 147.548665 
L 208.177011 151.677226 
L 211.235942 155.47619 
L 214.294873 158.870509 
L 217.353804 161.79987 
L 220.412735 164.219306 
L 221.9422 165.228 
L 223.471666 166.099381 
L 225.001131 166.832162 
L 226.530597 167.425979 
L 228.060062 167.881366 
L 229.589528 168.199721 
L 231.118993 168.383275 
L 232.648459 168.435046 
L 234.177924 168.358801 
L 235.70739 168.159004 
L 238.766321 167.409806 
L 241.825252 166.235187 
L 244.884183 164.690619 
L 247.943114 162.837454 
L 251.002045 160.741026 
L 255.590442 157.287893 
L 267.826166 147.831594 
L 270.885097 145.729329 
L 273.944028 143.82784 
L 277.002959 142.1625 
L 280.06189 140.760595 
L 283.120821 139.641144 
L 286.179752 138.814919 
L 289.238683 138.284685 
L 292.297614 138.045617 
L 295.356545 138.08589 
L 298.415476 138.387401 
L 301.474407 138.926606 
L 304.533338 139.675444 
L 307.592269 140.602318 
L 312.180665 142.251355 
L 318.298527 144.744676 
L 327.47532 148.547192 
L 332.063717 150.248923 
L 336.652114 151.70595 
L 341.24051 152.859708 
L 344.299441 153.441466 
L 347.358372 153.866454 
L 350.417303 154.133614 
L 353.476234 154.245909 
L 358.064631 154.139468 
L 358.064631 154.139468 
" style="fill:none;stroke:#1f77b4;stroke-linecap:square;stroke-width:1.5;"/>
   </g>
   <g id="line2d_38">
    <path clip-path="url(#p109d543574)" d="M 53.700994 22.981244 
L 55.23046 26.105223 
L 56.759925 29.913081 
L 58.289391 34.359288 
L 59.818856 39.395658 
L 61.348322 44.97174 
L 64.407253 57.532268 
L 67.466184 71.606841 
L 70.525115 86.750046 
L 82.760839 149.344008 
L 84.290305 156.348005 
L 85.81977 162.578399 
L 87.349236 167.914972 
L 88.878701 172.308498 
L 90.408167 175.785033 
L 91.937632 178.436762 
L 93.467098 180.416074 
L 94.996563 181.922973 
L 98.055494 184.293154 
L 101.114425 186.482496 
L 102.643891 187.43886 
L 104.173356 188.124452 
L 105.702822 188.394254 
L 107.232287 188.152217 
L 108.761753 187.358534 
L 110.291218 186.015233 
L 111.820684 184.149847 
L 113.350149 181.802803 
L 114.879615 179.018014 
L 116.40908 175.838962 
L 117.938546 172.308517 
L 120.997477 164.366265 
L 124.056408 155.560701 
L 130.17427 137.419486 
L 131.703735 133.292923 
L 133.233201 129.527564 
L 134.762666 126.205981 
L 136.292132 123.389113 
L 137.821597 121.111453 
L 139.351063 119.37897 
L 140.880528 118.170712 
L 142.409994 117.444123 
L 143.939459 117.14402 
L 145.468925 117.213372 
L 146.99839 117.603515 
L 148.527856 118.28121 
L 150.057321 119.230495 
L 151.586787 120.449221 
L 153.116252 121.941744 
L 154.645718 123.710434 
L 156.175183 125.748702 
L 157.704649 128.036936 
L 160.76358 133.220224 
L 169.940373 149.970426 
L 172.999304 154.702368 
L 174.52877 156.771588 
L 176.058235 158.628401 
L 177.587701 160.270303 
L 179.117166 161.699386 
L 180.646632 162.91997 
L 182.176097 163.936151 
L 183.705563 164.749699 
L 185.235028 165.358811 
L 186.764494 165.757923 
L 188.293959 165.938672 
L 189.823425 165.891563 
L 191.35289 165.608056 
L 192.882356 165.082352 
L 194.411821 164.312777 
L 195.941287 163.302443 
L 197.470752 162.059493 
L 199.000218 160.596938 
L 200.529683 158.932254 
L 203.588614 155.087032 
L 206.647545 150.741297 
L 214.294873 139.526039 
L 217.353804 135.692319 
L 218.883269 134.048193 
L 220.412735 132.616134 
L 221.9422 131.410734 
L 223.471666 130.440117 
L 225.001131 129.706546 
L 226.530597 129.207448 
L 228.060062 128.936763 
L 229.589528 128.886186 
L 231.118993 129.046307 
L 232.648459 129.407224 
L 234.177924 129.958803 
L 235.70739 130.690414 
L 237.236855 131.590455 
L 238.766321 132.645683 
L 241.825252 135.157997 
L 244.884183 138.076914 
L 255.590442 148.856317 
L 258.649373 151.411215 
L 261.708304 153.523088 
L 263.237769 154.393702 
L 264.767235 155.133627 
L 266.2967 155.738797 
L 267.826166 156.205826 
L 269.355631 156.531863 
L 270.885097 156.714622 
L 272.414562 156.752519 
L 273.944028 156.644913 
L 275.473493 156.392381 
L 277.002959 155.997056 
L 278.532424 155.462831 
L 280.06189 154.795575 
L 283.120821 153.095779 
L 286.179752 150.985726 
L 289.238683 148.583437 
L 298.415476 141.086507 
L 301.474407 138.989093 
L 304.533338 137.298852 
L 306.062803 136.631432 
L 307.592269 136.09105 
L 309.121734 135.681252 
L 310.6512 135.403459 
L 312.180665 135.25721 
L 313.710131 135.240362 
L 315.239596 135.349287 
L 316.769062 135.579047 
L 319.827993 136.375283 
L 322.886924 137.566403 
L 325.945855 139.073182 
L 330.534252 141.719375 
L 338.181579 146.311595 
L 341.24051 147.936398 
L 344.299441 149.326376 
L 347.358372 150.427685 
L 350.417303 151.201959 
L 353.476234 151.625102 
L 356.535165 151.686762 
L 358.064631 151.582674 
L 358.064631 151.582674 
" style="fill:none;stroke:#ff7f0e;stroke-linecap:square;stroke-width:1.5;"/>
   </g>
   <g id="line2d_39">
    <path clip-path="url(#p109d543574)" d="M 53.700994 22.981244 
L 55.23046 26.105223 
L 56.759925 29.913081 
L 58.289391 34.359288 
L 59.818856 39.395658 
L 61.348322 44.97174 
L 64.407253 57.532268 
L 67.466184 71.606841 
L 70.525115 86.750046 
L 82.760839 149.344008 
L 84.290305 160.136303 
L 87.349236 176.248113 
L 88.878701 183.620175 
L 90.408167 190.391862 
L 91.937632 196.464812 
L 93.467098 201.756628 
L 94.996563 206.205258 
L 96.526029 209.771527 
L 98.055494 212.439378 
L 99.58496 214.214086 
L 101.114425 215.118877 
L 102.643891 215.19066 
L 104.173356 214.475571 
L 105.702822 213.024866 
L 107.232287 210.891525 
L 108.761753 208.127713 
L 110.291218 204.783138 
L 111.820684 200.90433 
L 113.350149 196.534572 
L 114.879615 191.714545 
L 117.938546 180.889229 
L 120.997477 168.75555 
L 125.585873 149.035242 
L 130.17427 129.418905 
L 131.703735 123.408291 
L 133.233201 117.86797 
L 134.762666 112.9179 
L 136.292132 108.664924 
L 137.821597 105.19589 
L 139.351063 102.572661 
L 140.880528 100.82975 
L 142.409994 99.974651 
L 143.939459 99.990439 
L 145.468925 100.839861 
L 146.99839 102.469992 
L 148.527856 104.816884 
L 150.057321 107.809593 
L 151.586787 111.373317 
L 153.116252 115.431662 
L 156.175183 124.726647 
L 159.234114 135.090436 
L 166.881442 161.808675 
L 169.940373 171.321167 
L 171.469839 175.562378 
L 172.999304 179.3866 
L 174.52877 182.747903 
L 176.058235 185.609099 
L 177.587701 187.942408 
L 179.117166 189.729631 
L 180.646632 190.961866 
L 182.176097 191.638805 
L 183.705563 191.767739 
L 185.235028 191.36238 
L 186.764494 190.441637 
L 188.293959 189.028518 
L 189.823425 187.14913 
L 191.35289 184.831983 
L 192.882356 182.107546 
L 194.411821 179.008109 
L 195.941287 175.567868 
L 199.000218 167.813982 
L 202.059149 159.176983 
L 209.706476 136.548597 
L 212.765407 128.487716 
L 214.294873 124.959596 
L 215.824338 121.855118 
L 217.353804 119.23052 
L 218.883269 117.130835 
L 220.412735 115.588273 
L 221.9422 114.621375 
L 223.471666 114.235169 
L 225.001131 114.421941 
L 226.530597 115.162646 
L 228.060062 116.42861 
L 229.589528 118.18333 
L 231.118993 120.384231 
L 232.648459 122.984212 
L 234.177924 125.932944 
L 237.236855 132.66513 
L 240.295786 140.147105 
L 246.413648 155.607332 
L 249.47258 162.740502 
L 251.002045 165.988117 
L 252.531511 168.966991 
L 254.060976 171.640613 
L 255.590442 173.977626 
L 257.119907 175.952304 
L 258.649373 177.544775 
L 260.178838 178.741127 
L 261.708304 179.53328 
L 263.237769 179.918715 
L 264.767235 179.900069 
L 266.2967 179.484662 
L 267.826166 178.68399 
L 269.355631 177.513228 
L 270.885097 175.990843 
L 272.414562 174.138237 
L 273.944028 171.979546 
L 275.473493 169.541554 
L 278.532424 163.948016 
L 281.591355 157.626525 
L 290.768148 137.686449 
L 293.827079 132.021907 
L 295.356545 129.595835 
L 296.88601 127.496436 
L 298.415476 125.757976 
L 299.944941 124.407284 
L 301.474407 123.463034 
L 303.003872 122.935437 
L 304.533338 122.826298 
L 306.062803 123.129427 
L 307.592269 123.831306 
L 309.121734 124.911915 
L 310.6512 126.345665 
L 312.180665 128.102353 
L 313.710131 130.148023 
L 315.239596 132.445811 
L 318.298527 137.6399 
L 322.886924 146.305619 
L 327.47532 155.017041 
L 330.534252 160.319904 
L 332.063717 162.713015 
L 333.593183 164.892833 
L 335.122648 166.832853 
L 336.652114 168.510393 
L 338.181579 169.906853 
L 339.711045 171.007848 
L 341.24051 171.803267 
L 342.769976 172.287189 
L 344.299441 172.457788 
L 345.828907 172.317107 
L 347.358372 171.870845 
L 348.887838 171.128102 
L 350.417303 170.101121 
L 351.946769 168.805091 
L 353.476234 167.257929 
L 355.0057 165.480175 
L 356.535165 163.494865 
L 358.064631 161.327451 
L 358.064631 161.327451 
" style="fill:none;stroke:#2ca02c;stroke-linecap:square;stroke-width:1.5;"/>
   </g>
   <g id="patch_3">
    <path d="M 38.482813 228.14 
L 38.482813 10.7 
" style="fill:none;stroke:#000000;stroke-linecap:square;stroke-linejoin:miter;stroke-width:0.8;"/>
   </g>
   <g id="patch_4">
    <path d="M 373.282813 228.14 
L 373.282813 10.7 
" style="fill:none;stroke:#000000;stroke-linecap:square;stroke-linejoin:miter;stroke-width:0.8;"/>
   </g>
   <g id="patch_5">
    <path d="M 38.482813 228.14 
L 373.282813 228.14 
" style="fill:none;stroke:#000000;stroke-linecap:square;stroke-linejoin:miter;stroke-width:0.8;"/>
   </g>
   <g id="patch_6">
    <path d="M 38.482813 10.7 
L 373.282813 10.7 
" style="fill:none;stroke:#000000;stroke-linecap:square;stroke-linejoin:miter;stroke-width:0.8;"/>
   </g>
   <g id="legend_1">
    <g id="patch_7">
     <path d="M 270.982813 63.95625 
L 366.282813 63.95625 
Q 368.282813 63.95625 368.282813 61.95625 
L 368.282813 17.7 
Q 368.282813 15.7 366.282813 15.7 
L 270.982813 15.7 
Q 268.982813 15.7 268.982813 17.7 
L 268.982813 61.95625 
Q 268.982813 63.95625 270.982813 63.95625 
z
" style="fill:#ffffff;opacity:0.8;stroke:#cccccc;stroke-linejoin:miter;"/>
    </g>
    <g id="line2d_40">
     <path d="M 272.982813 24.5 
L 292.982813 24.5 
" style="fill:none;stroke:#1f77b4;stroke-linecap:square;stroke-width:1.5;"/>
    </g>
    <g id="line2d_41"/>
    <g id="text_19">
     <!-- $\exp\left(-\frac{x}{\tau}\right) \cos x$ -->
     <defs>
      <path d="M 56.203125 29.59375 
L 56.203125 25.203125 
L 14.890625 25.203125 
Q 15.484375 15.921875 20.484375 11.0625 
Q 25.484375 6.203125 34.421875 6.203125 
Q 39.59375 6.203125 44.453125 7.46875 
Q 49.3125 8.734375 54.109375 11.28125 
L 54.109375 2.78125 
Q 49.265625 0.734375 44.1875 -0.34375 
Q 39.109375 -1.421875 33.890625 -1.421875 
Q 20.796875 -1.421875 13.15625 6.1875 
Q 5.515625 13.8125 5.515625 26.8125 
Q 5.515625 40.234375 12.765625 48.109375 
Q 20.015625 56 32.328125 56 
Q 43.359375 56 49.78125 48.890625 
Q 56.203125 41.796875 56.203125 29.59375 
z
M 47.21875 32.234375 
Q 47.125 39.59375 43.09375 43.984375 
Q 39.0625 48.390625 32.421875 48.390625 
Q 24.90625 48.390625 20.390625 44.140625 
Q 15.875 39.890625 15.1875 32.171875 
z
" id="DejaVuSans-101"/>
      <path d="M 54.890625 54.6875 
L 35.109375 28.078125 
L 55.90625 0 
L 45.3125 0 
L 29.390625 21.484375 
L 13.484375 0 
L 2.875 0 
L 24.125 28.609375 
L 4.6875 54.6875 
L 15.28125 54.6875 
L 29.78125 35.203125 
L 44.28125 54.6875 
z
" id="DejaVuSans-120"/>
      <path d="M 18.109375 8.203125 
L 18.109375 -20.796875 
L 9.078125 -20.796875 
L 9.078125 54.6875 
L 18.109375 54.6875 
L 18.109375 46.390625 
Q 20.953125 51.265625 25.265625 53.625 
Q 29.59375 56 35.59375 56 
Q 45.5625 56 51.78125 48.09375 
Q 58.015625 40.1875 58.015625 27.296875 
Q 58.015625 14.40625 51.78125 6.484375 
Q 45.5625 -1.421875 35.59375 -1.421875 
Q 29.59375 -1.421875 25.265625 0.953125 
Q 20.953125 3.328125 18.109375 8.203125 
z
M 48.6875 27.296875 
Q 48.6875 37.203125 44.609375 42.84375 
Q 40.53125 48.484375 33.40625 48.484375 
Q 26.265625 48.484375 22.1875 42.84375 
Q 18.109375 37.203125 18.109375 27.296875 
Q 18.109375 17.390625 22.1875 11.75 
Q 26.265625 6.109375 33.40625 6.109375 
Q 40.53125 6.109375 44.609375 11.75 
Q 48.6875 17.390625 48.6875 27.296875 
z
" id="DejaVuSans-112"/>
      <path d="M 38.203125 -13.40625 
L 38.203125 -16.40625 
Q 27 -5.796875 20.453125 9.84375 
Q 13.90625 25.5 13.90625 45.09375 
Q 13.90625 64.40625 20.453125 80.25 
Q 27 96.09375 38.203125 106.59375 
L 38.203125 103.59375 
Q 22 83.796875 22 45.09375 
Q 22 6.40625 38.203125 -13.40625 
z
" id="STIXSizeOneSym-Regular-40"/>
      <path d="M 60.015625 54.6875 
L 34.90625 27.875 
L 50.296875 0 
L 39.984375 0 
L 28.421875 21.6875 
L 8.296875 0 
L -2.59375 0 
L 24.3125 28.8125 
L 10.015625 54.6875 
L 20.3125 54.6875 
L 30.8125 34.90625 
L 49.125 54.6875 
z
" id="DejaVuSans-Oblique-120"/>
      <path d="M 32.859375 9.96875 
Q 34.1875 7.625 39.453125 7.625 
L 43.75 7.625 
L 42.28125 0 
L 36.921875 0 
Q 28.125 0 25 4.6875 
Q 21.921875 9.46875 23.96875 19.828125 
L 29 45.703125 
L 8.453125 45.703125 
L 10.203125 54.6875 
L 60.640625 54.6875 
L 58.890625 45.703125 
L 38.1875 45.703125 
L 33.015625 19.28125 
Q 31.640625 12.203125 32.859375 9.96875 
z
" id="DejaVuSans-Oblique-964"/>
      <path d="M 8.59375 103.59375 
L 8.59375 106.59375 
Q 19.796875 96 26.34375 80.34375 
Q 32.90625 64.703125 32.90625 45.09375 
Q 32.90625 25.796875 26.34375 9.9375 
Q 19.796875 -5.90625 8.59375 -16.40625 
L 8.59375 -13.40625 
Q 24.796875 6.40625 24.796875 45.09375 
Q 24.796875 83.796875 8.59375 103.59375 
z
" id="STIXSizeOneSym-Regular-41"/>
      <path d="M 48.78125 52.59375 
L 48.78125 44.1875 
Q 44.96875 46.296875 41.140625 47.34375 
Q 37.3125 48.390625 33.40625 48.390625 
Q 24.65625 48.390625 19.8125 42.84375 
Q 14.984375 37.3125 14.984375 27.296875 
Q 14.984375 17.28125 19.8125 11.734375 
Q 24.65625 6.203125 33.40625 6.203125 
Q 37.3125 6.203125 41.140625 7.25 
Q 44.96875 8.296875 48.78125 10.40625 
L 48.78125 2.09375 
Q 45.015625 0.34375 40.984375 -0.53125 
Q 36.96875 -1.421875 32.421875 -1.421875 
Q 20.0625 -1.421875 12.78125 6.34375 
Q 5.515625 14.109375 5.515625 27.296875 
Q 5.515625 40.671875 12.859375 48.328125 
Q 20.21875 56 33.015625 56 
Q 37.15625 56 41.109375 55.140625 
Q 45.0625 54.296875 48.78125 52.59375 
z
" id="DejaVuSans-99"/>
      <path d="M 30.609375 48.390625 
Q 23.390625 48.390625 19.1875 42.75 
Q 14.984375 37.109375 14.984375 27.296875 
Q 14.984375 17.484375 19.15625 11.84375 
Q 23.34375 6.203125 30.609375 6.203125 
Q 37.796875 6.203125 41.984375 11.859375 
Q 46.1875 17.53125 46.1875 27.296875 
Q 46.1875 37.015625 41.984375 42.703125 
Q 37.796875 48.390625 30.609375 48.390625 
z
M 30.609375 56 
Q 42.328125 56 49.015625 48.375 
Q 55.71875 40.765625 55.71875 27.296875 
Q 55.71875 13.875 49.015625 6.21875 
Q 42.328125 -1.421875 30.609375 -1.421875 
Q 18.84375 -1.421875 12.171875 6.21875 
Q 5.515625 13.875 5.515625 27.296875 
Q 5.515625 40.765625 12.171875 48.375 
Q 18.84375 56 30.609375 56 
z
" id="DejaVuSans-111"/>
      <path d="M 44.28125 53.078125 
L 44.28125 44.578125 
Q 40.484375 46.53125 36.375 47.5 
Q 32.28125 48.484375 27.875 48.484375 
Q 21.1875 48.484375 17.84375 46.4375 
Q 14.5 44.390625 14.5 40.28125 
Q 14.5 37.15625 16.890625 35.375 
Q 19.28125 33.59375 26.515625 31.984375 
L 29.59375 31.296875 
Q 39.15625 29.25 43.1875 25.515625 
Q 47.21875 21.78125 47.21875 15.09375 
Q 47.21875 7.46875 41.1875 3.015625 
Q 35.15625 -1.421875 24.609375 -1.421875 
Q 20.21875 -1.421875 15.453125 -0.5625 
Q 10.6875 0.296875 5.421875 2 
L 5.421875 11.28125 
Q 10.40625 8.6875 15.234375 7.390625 
Q 20.0625 6.109375 24.8125 6.109375 
Q 31.15625 6.109375 34.5625 8.28125 
Q 37.984375 10.453125 37.984375 14.40625 
Q 37.984375 18.0625 35.515625 20.015625 
Q 33.0625 21.96875 24.703125 23.78125 
L 21.578125 24.515625 
Q 13.234375 26.265625 9.515625 29.90625 
Q 5.8125 33.546875 5.8125 39.890625 
Q 5.8125 47.609375 11.28125 51.796875 
Q 16.75 56 26.8125 56 
Q 31.78125 56 36.171875 55.265625 
Q 40.578125 54.546875 44.28125 53.078125 
z
" id="DejaVuSans-115"/>
     </defs>
     <g transform="translate(300.982813 28)scale(0.1 -0.1)">
      <use transform="translate(0 0.921875)" xlink:href="#DejaVuSans-101"/>
      <use transform="translate(61.523438 0.921875)" xlink:href="#DejaVuSans-120"/>
      <use transform="translate(120.703125 0.921875)" xlink:href="#DejaVuSans-112"/>
      <use transform="translate(184.179688 -10.4375)scale(0.876524)" xlink:href="#STIXSizeOneSym-Regular-40"/>
      <use transform="translate(225.19548 0.921875)" xlink:href="#DejaVuSans-8722"/>
      <use transform="translate(308.984543 44.71875)scale(0.7)" xlink:href="#DejaVuSans-Oblique-120"/>
      <use transform="translate(308.984543 -24.8125)scale(0.7)" xlink:href="#DejaVuSans-Oblique-964"/>
      <use transform="translate(363.628098 -10.4375)scale(0.876524)" xlink:href="#STIXSizeOneSym-Regular-41"/>
      <use transform="translate(404.64389 0.921875)" xlink:href="#DejaVuSans-99"/>
      <use transform="translate(459.624359 0.921875)" xlink:href="#DejaVuSans-111"/>
      <use transform="translate(520.806 0.921875)" xlink:href="#DejaVuSans-115"/>
      <use transform="translate(572.905609 0.921875)" xlink:href="#DejaVuSans-Oblique-120"/>
      <path d="M 308.984543 19.71875 
L 308.984543 25.96875 
L 351.128098 25.96875 
L 351.128098 19.71875 
L 308.984543 19.71875 
z
"/>
     </g>
    </g>
    <g id="line2d_42">
     <path d="M 272.982813 39.698437 
L 292.982813 39.698437 
" style="fill:none;stroke:#ff7f0e;stroke-linecap:square;stroke-width:1.5;"/>
    </g>
    <g id="line2d_43"/>
    <g id="text_20">
     <!-- RNN result -->
     <defs>
      <path d="M 44.390625 34.1875 
Q 47.5625 33.109375 50.5625 29.59375 
Q 53.5625 26.078125 56.59375 19.921875 
L 66.609375 0 
L 56 0 
L 46.6875 18.703125 
Q 43.0625 26.03125 39.671875 28.421875 
Q 36.28125 30.8125 30.421875 30.8125 
L 19.671875 30.8125 
L 19.671875 0 
L 9.8125 0 
L 9.8125 72.90625 
L 32.078125 72.90625 
Q 44.578125 72.90625 50.734375 67.671875 
Q 56.890625 62.453125 56.890625 51.90625 
Q 56.890625 45.015625 53.6875 40.46875 
Q 50.484375 35.9375 44.390625 34.1875 
z
M 19.671875 64.796875 
L 19.671875 38.921875 
L 32.078125 38.921875 
Q 39.203125 38.921875 42.84375 42.21875 
Q 46.484375 45.515625 46.484375 51.90625 
Q 46.484375 58.296875 42.84375 61.546875 
Q 39.203125 64.796875 32.078125 64.796875 
z
" id="DejaVuSans-82"/>
      <path d="M 9.8125 72.90625 
L 23.09375 72.90625 
L 55.421875 11.921875 
L 55.421875 72.90625 
L 64.984375 72.90625 
L 64.984375 0 
L 51.703125 0 
L 19.390625 60.984375 
L 19.390625 0 
L 9.8125 0 
z
" id="DejaVuSans-78"/>
      <path id="DejaVuSans-32"/>
      <path d="M 41.109375 46.296875 
Q 39.59375 47.171875 37.8125 47.578125 
Q 36.03125 48 33.890625 48 
Q 26.265625 48 22.1875 43.046875 
Q 18.109375 38.09375 18.109375 28.8125 
L 18.109375 0 
L 9.078125 0 
L 9.078125 54.6875 
L 18.109375 54.6875 
L 18.109375 46.1875 
Q 20.953125 51.171875 25.484375 53.578125 
Q 30.03125 56 36.53125 56 
Q 37.453125 56 38.578125 55.875 
Q 39.703125 55.765625 41.0625 55.515625 
z
" id="DejaVuSans-114"/>
      <path d="M 8.5 21.578125 
L 8.5 54.6875 
L 17.484375 54.6875 
L 17.484375 21.921875 
Q 17.484375 14.15625 20.5 10.265625 
Q 23.53125 6.390625 29.59375 6.390625 
Q 36.859375 6.390625 41.078125 11.03125 
Q 45.3125 15.671875 45.3125 23.6875 
L 45.3125 54.6875 
L 54.296875 54.6875 
L 54.296875 0 
L 45.3125 0 
L 45.3125 8.40625 
Q 42.046875 3.421875 37.71875 1 
Q 33.40625 -1.421875 27.6875 -1.421875 
Q 18.265625 -1.421875 13.375 4.4375 
Q 8.5 10.296875 8.5 21.578125 
z
M 31.109375 56 
z
" id="DejaVuSans-117"/>
      <path d="M 9.421875 75.984375 
L 18.40625 75.984375 
L 18.40625 0 
L 9.421875 0 
z
" id="DejaVuSans-108"/>
      <path d="M 18.3125 70.21875 
L 18.3125 54.6875 
L 36.8125 54.6875 
L 36.8125 47.703125 
L 18.3125 47.703125 
L 18.3125 18.015625 
Q 18.3125 11.328125 20.140625 9.421875 
Q 21.96875 7.515625 27.59375 7.515625 
L 36.8125 7.515625 
L 36.8125 0 
L 27.59375 0 
Q 17.1875 0 13.234375 3.875 
Q 9.28125 7.765625 9.28125 18.015625 
L 9.28125 47.703125 
L 2.6875 47.703125 
L 2.6875 54.6875 
L 9.28125 54.6875 
L 9.28125 70.21875 
z
" id="DejaVuSans-116"/>
     </defs>
     <g transform="translate(300.982813 43.198437)scale(0.1 -0.1)">
      <use xlink:href="#DejaVuSans-82"/>
      <use x="69.482422" xlink:href="#DejaVuSans-78"/>
      <use x="144.287109" xlink:href="#DejaVuSans-78"/>
      <use x="219.091797" xlink:href="#DejaVuSans-32"/>
      <use x="250.878906" xlink:href="#DejaVuSans-114"/>
      <use x="291.960938" xlink:href="#DejaVuSans-101"/>
      <use x="353.484375" xlink:href="#DejaVuSans-115"/>
      <use x="405.583984" xlink:href="#DejaVuSans-117"/>
      <use x="468.962891" xlink:href="#DejaVuSans-108"/>
      <use x="496.746094" xlink:href="#DejaVuSans-116"/>
     </g>
    </g>
    <g id="line2d_44">
     <path d="M 272.982813 54.376562 
L 292.982813 54.376562 
" style="fill:none;stroke:#2ca02c;stroke-linecap:square;stroke-width:1.5;"/>
    </g>
    <g id="line2d_45"/>
    <g id="text_21">
     <!-- LSTM result -->
     <defs>
      <path d="M 9.8125 72.90625 
L 19.671875 72.90625 
L 19.671875 8.296875 
L 55.171875 8.296875 
L 55.171875 0 
L 9.8125 0 
z
" id="DejaVuSans-76"/>
      <path d="M 53.515625 70.515625 
L 53.515625 60.890625 
Q 47.90625 63.578125 42.921875 64.890625 
Q 37.9375 66.21875 33.296875 66.21875 
Q 25.25 66.21875 20.875 63.09375 
Q 16.5 59.96875 16.5 54.203125 
Q 16.5 49.359375 19.40625 46.890625 
Q 22.3125 44.4375 30.421875 42.921875 
L 36.375 41.703125 
Q 47.40625 39.59375 52.65625 34.296875 
Q 57.90625 29 57.90625 20.125 
Q 57.90625 9.515625 50.796875 4.046875 
Q 43.703125 -1.421875 29.984375 -1.421875 
Q 24.8125 -1.421875 18.96875 -0.25 
Q 13.140625 0.921875 6.890625 3.21875 
L 6.890625 13.375 
Q 12.890625 10.015625 18.65625 8.296875 
Q 24.421875 6.59375 29.984375 6.59375 
Q 38.421875 6.59375 43.015625 9.90625 
Q 47.609375 13.234375 47.609375 19.390625 
Q 47.609375 24.75 44.3125 27.78125 
Q 41.015625 30.8125 33.5 32.328125 
L 27.484375 33.5 
Q 16.453125 35.6875 11.515625 40.375 
Q 6.59375 45.0625 6.59375 53.421875 
Q 6.59375 63.09375 13.40625 68.65625 
Q 20.21875 74.21875 32.171875 74.21875 
Q 37.3125 74.21875 42.625 73.28125 
Q 47.953125 72.359375 53.515625 70.515625 
z
" id="DejaVuSans-83"/>
      <path d="M -0.296875 72.90625 
L 61.375 72.90625 
L 61.375 64.59375 
L 35.5 64.59375 
L 35.5 0 
L 25.59375 0 
L 25.59375 64.59375 
L -0.296875 64.59375 
z
" id="DejaVuSans-84"/>
      <path d="M 9.8125 72.90625 
L 24.515625 72.90625 
L 43.109375 23.296875 
L 61.8125 72.90625 
L 76.515625 72.90625 
L 76.515625 0 
L 66.890625 0 
L 66.890625 64.015625 
L 48.09375 14.015625 
L 38.1875 14.015625 
L 19.390625 64.015625 
L 19.390625 0 
L 9.8125 0 
z
" id="DejaVuSans-77"/>
     </defs>
     <g transform="translate(300.982813 57.876562)scale(0.1 -0.1)">
      <use xlink:href="#DejaVuSans-76"/>
      <use x="55.712891" xlink:href="#DejaVuSans-83"/>
      <use x="119.189453" xlink:href="#DejaVuSans-84"/>
      <use x="180.273438" xlink:href="#DejaVuSans-77"/>
      <use x="266.552734" xlink:href="#DejaVuSans-32"/>
      <use x="298.339844" xlink:href="#DejaVuSans-114"/>
      <use x="339.421875" xlink:href="#DejaVuSans-101"/>
      <use x="400.945312" xlink:href="#DejaVuSans-115"/>
      <use x="453.044922" xlink:href="#DejaVuSans-117"/>
      <use x="516.423828" xlink:href="#DejaVuSans-108"/>
      <use x="544.207031" xlink:href="#DejaVuSans-116"/>
     </g>
    </g>
   </g>
  </g>
 </g>
 <defs>
  <clipPath id="p109d543574">
   <rect height="217.44" width="334.8" x="38.482813" y="10.7"/>
  </clipPath>
 </defs>
</svg>
