<?xml version="1.0" encoding="utf-8" standalone="no"?>
<!DOCTYPE svg PUBLIC "-//W3C//DTD SVG 1.1//EN"
  "http://www.w3.org/Graphics/SVG/1.1/DTD/svg11.dtd">
<!-- Created with matplotlib (http://matplotlib.org/) -->
<svg height="252.018125pt" version="1.1" viewBox="0 0 383.982812 252.018125" width="383.982812pt" xmlns="http://www.w3.org/2000/svg" xmlns:xlink="http://www.w3.org/1999/xlink">
 <defs>
  <style type="text/css">
*{stroke-linecap:butt;stroke-linejoin:round;}
  </style>
 </defs>
 <g id="figure_1">
  <g id="patch_1">
   <path d="M -0 252.018125 
L 383.982812 252.018125 
L 383.982812 0 
L -0 0 
z
" style="fill:none;"/>
  </g>
  <g id="axes_1">
   <g id="patch_2">
    <path d="M 38.482813 228.14 
L 373.282813 228.14 
L 373.282813 10.7 
L 38.482813 10.7 
z
" style="fill:#ffffff;"/>
   </g>
   <g id="LineCollection_1">
    <path clip-path="url(#p53700404fe)" d="M 193.496399 118.689647 
L 276.196535 120.148756 
" style="fill:none;stroke:#000000;"/>
    <path clip-path="url(#p53700404fe)" d="M 193.496399 118.689647 
L 114.476367 73.307799 
" style="fill:none;stroke:#000000;"/>
    <path clip-path="url(#p53700404fe)" d="M 193.496399 118.689647 
L 181.402998 212.745619 
" style="fill:none;stroke:#000000;"/>
    <path clip-path="url(#p53700404fe)" d="M 193.496399 118.689647 
L 156.848492 157.525774 
" style="fill:none;stroke:#000000;"/>
    <path clip-path="url(#p53700404fe)" d="M 193.496399 118.689647 
L 192.125689 54.352424 
" style="fill:none;stroke:#000000;"/>
    <path clip-path="url(#p53700404fe)" d="M 193.496399 118.689647 
L 152.506958 26.094381 
" style="fill:none;stroke:#000000;"/>
    <path clip-path="url(#p53700404fe)" d="M 193.496399 118.689647 
L 269.745546 156.250888 
" style="fill:none;stroke:#000000;"/>
    <path clip-path="url(#p53700404fe)" d="M 88.309621 28.005868 
L 192.125689 54.352424 
" style="fill:none;stroke:#000000;"/>
    <path clip-path="url(#p53700404fe)" d="M 88.309621 28.005868 
L 142.77269 100.683912 
" style="fill:none;stroke:#000000;"/>
    <path clip-path="url(#p53700404fe)" d="M 88.309621 28.005868 
L 57.965627 68.403253 
" style="fill:none;stroke:#000000;"/>
    <path clip-path="url(#p53700404fe)" d="M 88.309621 28.005868 
L 114.476367 73.307799 
" style="fill:none;stroke:#000000;"/>
    <path clip-path="url(#p53700404fe)" d="M 353.799998 61.189349 
L 276.196535 120.148756 
" style="fill:none;stroke:#000000;"/>
    <path clip-path="url(#p53700404fe)" d="M 353.799998 61.189349 
L 258.557325 55.676992 
" style="fill:none;stroke:#000000;"/>
    <path clip-path="url(#p53700404fe)" d="M 89.274377 128.079066 
L 134.413872 52.594379 
" style="fill:none;stroke:#000000;"/>
    <path clip-path="url(#p53700404fe)" d="M 89.274377 128.079066 
L 89.274377 128.079066 
" style="fill:none;stroke:#000000;"/>
    <path clip-path="url(#p53700404fe)" d="M 89.274377 128.079066 
L 114.476367 73.307799 
" style="fill:none;stroke:#000000;"/>
    <path clip-path="url(#p53700404fe)" d="M 89.274377 128.079066 
L 156.848492 157.525774 
" style="fill:none;stroke:#000000;"/>
    <path clip-path="url(#p53700404fe)" d="M 89.274377 128.079066 
L 191.310713 173.48127 
" style="fill:none;stroke:#000000;"/>
    <path clip-path="url(#p53700404fe)" d="M 89.274377 128.079066 
L 57.965627 68.403253 
" style="fill:none;stroke:#000000;"/>
    <path clip-path="url(#p53700404fe)" d="M 227.878444 153.133765 
L 276.196535 120.148756 
" style="fill:none;stroke:#000000;"/>
    <path clip-path="url(#p53700404fe)" d="M 227.878444 153.133765 
L 282.515012 197.983875 
" style="fill:none;stroke:#000000;"/>
    <path clip-path="url(#p53700404fe)" d="M 227.878444 153.133765 
L 181.402998 212.745619 
" style="fill:none;stroke:#000000;"/>
    <path clip-path="url(#p53700404fe)" d="M 227.878444 153.133765 
L 156.848492 157.525774 
" style="fill:none;stroke:#000000;"/>
    <path clip-path="url(#p53700404fe)" d="M 227.878444 153.133765 
L 142.77269 100.683912 
" style="fill:none;stroke:#000000;"/>
    <path clip-path="url(#p53700404fe)" d="M 227.878444 153.133765 
L 258.557325 55.676992 
" style="fill:none;stroke:#000000;"/>
    <path clip-path="url(#p53700404fe)" d="M 192.125689 54.352424 
L 276.196535 120.148756 
" style="fill:none;stroke:#000000;"/>
    <path clip-path="url(#p53700404fe)" d="M 192.125689 54.352424 
L 114.476367 73.307799 
" style="fill:none;stroke:#000000;"/>
    <path clip-path="url(#p53700404fe)" d="M 192.125689 54.352424 
L 258.557325 55.676992 
" style="fill:none;stroke:#000000;"/>
    <path clip-path="url(#p53700404fe)" d="M 192.125689 54.352424 
L 142.77269 100.683912 
" style="fill:none;stroke:#000000;"/>
    <path clip-path="url(#p53700404fe)" d="M 181.402998 212.745619 
L 156.848492 157.525774 
" style="fill:none;stroke:#000000;"/>
    <path clip-path="url(#p53700404fe)" d="M 181.402998 212.745619 
L 181.402998 212.745619 
" style="fill:none;stroke:#000000;"/>
    <path clip-path="url(#p53700404fe)" d="M 156.848492 157.525774 
L 243.302909 96.382709 
" style="fill:none;stroke:#000000;"/>
    <path clip-path="url(#p53700404fe)" d="M 156.848492 157.525774 
L 142.77269 100.683912 
" style="fill:none;stroke:#000000;"/>
    <path clip-path="url(#p53700404fe)" d="M 114.476367 73.307799 
L 142.77269 100.683912 
" style="fill:none;stroke:#000000;"/>
    <path clip-path="url(#p53700404fe)" d="M 114.476367 73.307799 
L 171.739969 87.106674 
" style="fill:none;stroke:#000000;"/>
    <path clip-path="url(#p53700404fe)" d="M 114.476367 73.307799 
L 152.506958 26.094381 
" style="fill:none;stroke:#000000;"/>
    <path clip-path="url(#p53700404fe)" d="M 191.310713 173.48127 
L 276.196535 120.148756 
" style="fill:none;stroke:#000000;"/>
    <path clip-path="url(#p53700404fe)" d="M 191.310713 173.48127 
L 282.515012 197.983875 
" style="fill:none;stroke:#000000;"/>
    <path clip-path="url(#p53700404fe)" d="M 191.310713 173.48127 
L 142.77269 100.683912 
" style="fill:none;stroke:#000000;"/>
    <path clip-path="url(#p53700404fe)" d="M 142.77269 100.683912 
L 134.413872 52.594379 
" style="fill:none;stroke:#000000;"/>
    <path clip-path="url(#p53700404fe)" d="M 142.77269 100.683912 
L 152.506958 26.094381 
" style="fill:none;stroke:#000000;"/>
    <path clip-path="url(#p53700404fe)" d="M 269.745546 156.250888 
L 282.515012 197.983875 
" style="fill:none;stroke:#000000;"/>
    <path clip-path="url(#p53700404fe)" d="M 269.745546 156.250888 
L 171.739969 87.106674 
" style="fill:none;stroke:#000000;"/>
    <path clip-path="url(#p53700404fe)" d="M 269.745546 156.250888 
L 269.745546 156.250888 
" style="fill:none;stroke:#000000;"/>
    <path clip-path="url(#p53700404fe)" d="M 152.506958 26.094381 
L 134.413872 52.594379 
" style="fill:none;stroke:#000000;"/>
    <path clip-path="url(#p53700404fe)" d="M 276.196535 120.148756 
L 282.515012 197.983875 
" style="fill:none;stroke:#000000;"/>
    <path clip-path="url(#p53700404fe)" d="M 276.196535 120.148756 
L 243.302909 96.382709 
" style="fill:none;stroke:#000000;"/>
    <path clip-path="url(#p53700404fe)" d="M 282.515012 197.983875 
L 282.515012 197.983875 
" style="fill:none;stroke:#000000;"/>
    <path clip-path="url(#p53700404fe)" d="M 134.413872 52.594379 
L 171.739969 87.106674 
" style="fill:none;stroke:#000000;"/>
    <path clip-path="url(#p53700404fe)" d="M 134.413872 52.594379 
L 57.965627 68.403253 
" style="fill:none;stroke:#000000;"/>
    <path clip-path="url(#p53700404fe)" d="M 134.413872 52.594379 
L 258.557325 55.676992 
" style="fill:none;stroke:#000000;"/>
    <path clip-path="url(#p53700404fe)" d="M 243.302909 96.382709 
L 243.302909 96.382709 
" style="fill:none;stroke:#000000;"/>
    <path clip-path="url(#p53700404fe)" d="M 243.302909 96.382709 
L 258.557325 55.676992 
" style="fill:none;stroke:#000000;"/>
    <path clip-path="url(#p53700404fe)" d="M 243.302909 96.382709 
L 171.739969 87.106674 
" style="fill:none;stroke:#000000;"/>
    <path clip-path="url(#p53700404fe)" d="M 171.739969 87.106674 
L 57.965627 68.403253 
" style="fill:none;stroke:#000000;"/>
   </g>
   <g id="matplotlib.axis_1">
    <g id="xtick_1">
     <g id="line2d_1">
      <defs>
       <path d="M 0 0 
L 0 3.5 
" id="m5cd075113a" style="stroke:#000000;stroke-width:0.8;"/>
      </defs>
      <g>
       <use style="stroke:#000000;stroke-width:0.8;" x="65.280961" xlink:href="#m5cd075113a" y="228.14"/>
      </g>
     </g>
     <g id="text_1">
      <!-- −0.75 -->
      <defs>
       <path d="M 10.59375 35.5 
L 73.1875 35.5 
L 73.1875 27.203125 
L 10.59375 27.203125 
z
" id="DejaVuSans-2212"/>
       <path d="M 31.78125 66.40625 
Q 24.171875 66.40625 20.328125 58.90625 
Q 16.5 51.421875 16.5 36.375 
Q 16.5 21.390625 20.328125 13.890625 
Q 24.171875 6.390625 31.78125 6.390625 
Q 39.453125 6.390625 43.28125 13.890625 
Q 47.125 21.390625 47.125 36.375 
Q 47.125 51.421875 43.28125 58.90625 
Q 39.453125 66.40625 31.78125 66.40625 
z
M 31.78125 74.21875 
Q 44.046875 74.21875 50.515625 64.515625 
Q 56.984375 54.828125 56.984375 36.375 
Q 56.984375 17.96875 50.515625 8.265625 
Q 44.046875 -1.421875 31.78125 -1.421875 
Q 19.53125 -1.421875 13.0625 8.265625 
Q 6.59375 17.96875 6.59375 36.375 
Q 6.59375 54.828125 13.0625 64.515625 
Q 19.53125 74.21875 31.78125 74.21875 
z
" id="DejaVuSans-30"/>
       <path d="M 10.6875 12.40625 
L 21 12.40625 
L 21 0 
L 10.6875 0 
z
" id="DejaVuSans-2e"/>
       <path d="M 8.203125 72.90625 
L 55.078125 72.90625 
L 55.078125 68.703125 
L 28.609375 0 
L 18.3125 0 
L 43.21875 64.59375 
L 8.203125 64.59375 
z
" id="DejaVuSans-37"/>
       <path d="M 10.796875 72.90625 
L 49.515625 72.90625 
L 49.515625 64.59375 
L 19.828125 64.59375 
L 19.828125 46.734375 
Q 21.96875 47.46875 24.109375 47.828125 
Q 26.265625 48.1875 28.421875 48.1875 
Q 40.625 48.1875 47.75 41.5 
Q 54.890625 34.8125 54.890625 23.390625 
Q 54.890625 11.625 47.5625 5.09375 
Q 40.234375 -1.421875 26.90625 -1.421875 
Q 22.3125 -1.421875 17.546875 -0.640625 
Q 12.796875 0.140625 7.71875 1.703125 
L 7.71875 11.625 
Q 12.109375 9.234375 16.796875 8.0625 
Q 21.484375 6.890625 26.703125 6.890625 
Q 35.15625 6.890625 40.078125 11.328125 
Q 45.015625 15.765625 45.015625 23.390625 
Q 45.015625 31 40.078125 35.4375 
Q 35.15625 39.890625 26.703125 39.890625 
Q 22.75 39.890625 18.8125 39.015625 
Q 14.890625 38.140625 10.796875 36.28125 
z
" id="DejaVuSans-35"/>
      </defs>
      <g transform="translate(49.958305 242.738437)scale(0.1 -0.1)">
       <use xlink:href="#DejaVuSans-2212"/>
       <use x="83.789062" xlink:href="#DejaVuSans-30"/>
       <use x="147.412109" xlink:href="#DejaVuSans-2e"/>
       <use x="179.199219" xlink:href="#DejaVuSans-37"/>
       <use x="242.822266" xlink:href="#DejaVuSans-35"/>
      </g>
     </g>
    </g>
    <g id="xtick_2">
     <g id="line2d_2">
      <g>
       <use style="stroke:#000000;stroke-width:0.8;" x="106.497966" xlink:href="#m5cd075113a" y="228.14"/>
      </g>
     </g>
     <g id="text_2">
      <!-- −0.50 -->
      <g transform="translate(91.17531 242.738437)scale(0.1 -0.1)">
       <use xlink:href="#DejaVuSans-2212"/>
       <use x="83.789062" xlink:href="#DejaVuSans-30"/>
       <use x="147.412109" xlink:href="#DejaVuSans-2e"/>
       <use x="179.199219" xlink:href="#DejaVuSans-35"/>
       <use x="242.822266" xlink:href="#DejaVuSans-30"/>
      </g>
     </g>
    </g>
    <g id="xtick_3">
     <g id="line2d_3">
      <g>
       <use style="stroke:#000000;stroke-width:0.8;" x="147.714972" xlink:href="#m5cd075113a" y="228.14"/>
      </g>
     </g>
     <g id="text_3">
      <!-- −0.25 -->
      <defs>
       <path d="M 19.1875 8.296875 
L 53.609375 8.296875 
L 53.609375 0 
L 7.328125 0 
L 7.328125 8.296875 
Q 12.9375 14.109375 22.625 23.890625 
Q 32.328125 33.6875 34.8125 36.53125 
Q 39.546875 41.84375 41.421875 45.53125 
Q 43.3125 49.21875 43.3125 52.78125 
Q 43.3125 58.59375 39.234375 62.25 
Q 35.15625 65.921875 28.609375 65.921875 
Q 23.96875 65.921875 18.8125 64.3125 
Q 13.671875 62.703125 7.8125 59.421875 
L 7.8125 69.390625 
Q 13.765625 71.78125 18.9375 73 
Q 24.125 74.21875 28.421875 74.21875 
Q 39.75 74.21875 46.484375 68.546875 
Q 53.21875 62.890625 53.21875 53.421875 
Q 53.21875 48.921875 51.53125 44.890625 
Q 49.859375 40.875 45.40625 35.40625 
Q 44.1875 33.984375 37.640625 27.21875 
Q 31.109375 20.453125 19.1875 8.296875 
z
" id="DejaVuSans-32"/>
      </defs>
      <g transform="translate(132.392315 242.738437)scale(0.1 -0.1)">
       <use xlink:href="#DejaVuSans-2212"/>
       <use x="83.789062" xlink:href="#DejaVuSans-30"/>
       <use x="147.412109" xlink:href="#DejaVuSans-2e"/>
       <use x="179.199219" xlink:href="#DejaVuSans-32"/>
       <use x="242.822266" xlink:href="#DejaVuSans-35"/>
      </g>
     </g>
    </g>
    <g id="xtick_4">
     <g id="line2d_4">
      <g>
       <use style="stroke:#000000;stroke-width:0.8;" x="188.931977" xlink:href="#m5cd075113a" y="228.14"/>
      </g>
     </g>
     <g id="text_4">
      <!-- 0.00 -->
      <g transform="translate(177.799164 242.738437)scale(0.1 -0.1)">
       <use xlink:href="#DejaVuSans-30"/>
       <use x="63.623047" xlink:href="#DejaVuSans-2e"/>
       <use x="95.410156" xlink:href="#DejaVuSans-30"/>
       <use x="159.033203" xlink:href="#DejaVuSans-30"/>
      </g>
     </g>
    </g>
    <g id="xtick_5">
     <g id="line2d_5">
      <g>
       <use style="stroke:#000000;stroke-width:0.8;" x="230.148982" xlink:href="#m5cd075113a" y="228.14"/>
      </g>
     </g>
     <g id="text_5">
      <!-- 0.25 -->
      <g transform="translate(219.01617 242.738437)scale(0.1 -0.1)">
       <use xlink:href="#DejaVuSans-30"/>
       <use x="63.623047" xlink:href="#DejaVuSans-2e"/>
       <use x="95.410156" xlink:href="#DejaVuSans-32"/>
       <use x="159.033203" xlink:href="#DejaVuSans-35"/>
      </g>
     </g>
    </g>
    <g id="xtick_6">
     <g id="line2d_6">
      <g>
       <use style="stroke:#000000;stroke-width:0.8;" x="271.365988" xlink:href="#m5cd075113a" y="228.14"/>
      </g>
     </g>
     <g id="text_6">
      <!-- 0.50 -->
      <g transform="translate(260.233175 242.738437)scale(0.1 -0.1)">
       <use xlink:href="#DejaVuSans-30"/>
       <use x="63.623047" xlink:href="#DejaVuSans-2e"/>
       <use x="95.410156" xlink:href="#DejaVuSans-35"/>
       <use x="159.033203" xlink:href="#DejaVuSans-30"/>
      </g>
     </g>
    </g>
    <g id="xtick_7">
     <g id="line2d_7">
      <g>
       <use style="stroke:#000000;stroke-width:0.8;" x="312.582993" xlink:href="#m5cd075113a" y="228.14"/>
      </g>
     </g>
     <g id="text_7">
      <!-- 0.75 -->
      <g transform="translate(301.45018 242.738437)scale(0.1 -0.1)">
       <use xlink:href="#DejaVuSans-30"/>
       <use x="63.623047" xlink:href="#DejaVuSans-2e"/>
       <use x="95.410156" xlink:href="#DejaVuSans-37"/>
       <use x="159.033203" xlink:href="#DejaVuSans-35"/>
      </g>
     </g>
    </g>
    <g id="xtick_8">
     <g id="line2d_8">
      <g>
       <use style="stroke:#000000;stroke-width:0.8;" x="353.799998" xlink:href="#m5cd075113a" y="228.14"/>
      </g>
     </g>
     <g id="text_8">
      <!-- 1.00 -->
      <defs>
       <path d="M 12.40625 8.296875 
L 28.515625 8.296875 
L 28.515625 63.921875 
L 10.984375 60.40625 
L 10.984375 69.390625 
L 28.421875 72.90625 
L 38.28125 72.90625 
L 38.28125 8.296875 
L 54.390625 8.296875 
L 54.390625 0 
L 12.40625 0 
z
" id="DejaVuSans-31"/>
      </defs>
      <g transform="translate(342.667186 242.738437)scale(0.1 -0.1)">
       <use xlink:href="#DejaVuSans-31"/>
       <use x="63.623047" xlink:href="#DejaVuSans-2e"/>
       <use x="95.410156" xlink:href="#DejaVuSans-30"/>
       <use x="159.033203" xlink:href="#DejaVuSans-30"/>
      </g>
     </g>
    </g>
   </g>
   <g id="matplotlib.axis_2">
    <g id="ytick_1">
     <g id="line2d_9">
      <defs>
       <path d="M 0 0 
L -3.5 0 
" id="m9823ba900c" style="stroke:#000000;stroke-width:0.8;"/>
      </defs>
      <g>
       <use style="stroke:#000000;stroke-width:0.8;" x="38.482813" xlink:href="#m9823ba900c" y="216.78199"/>
      </g>
     </g>
     <g id="text_9">
      <!-- −0.8 -->
      <defs>
       <path d="M 31.78125 34.625 
Q 24.75 34.625 20.71875 30.859375 
Q 16.703125 27.09375 16.703125 20.515625 
Q 16.703125 13.921875 20.71875 10.15625 
Q 24.75 6.390625 31.78125 6.390625 
Q 38.8125 6.390625 42.859375 10.171875 
Q 46.921875 13.96875 46.921875 20.515625 
Q 46.921875 27.09375 42.890625 30.859375 
Q 38.875 34.625 31.78125 34.625 
z
M 21.921875 38.8125 
Q 15.578125 40.375 12.03125 44.71875 
Q 8.5 49.078125 8.5 55.328125 
Q 8.5 64.0625 14.71875 69.140625 
Q 20.953125 74.21875 31.78125 74.21875 
Q 42.671875 74.21875 48.875 69.140625 
Q 55.078125 64.0625 55.078125 55.328125 
Q 55.078125 49.078125 51.53125 44.71875 
Q 48 40.375 41.703125 38.8125 
Q 48.828125 37.15625 52.796875 32.3125 
Q 56.78125 27.484375 56.78125 20.515625 
Q 56.78125 9.90625 50.3125 4.234375 
Q 43.84375 -1.421875 31.78125 -1.421875 
Q 19.734375 -1.421875 13.25 4.234375 
Q 6.78125 9.90625 6.78125 20.515625 
Q 6.78125 27.484375 10.78125 32.3125 
Q 14.796875 37.15625 21.921875 38.8125 
z
M 18.3125 54.390625 
Q 18.3125 48.734375 21.84375 45.5625 
Q 25.390625 42.390625 31.78125 42.390625 
Q 38.140625 42.390625 41.71875 45.5625 
Q 45.3125 48.734375 45.3125 54.390625 
Q 45.3125 60.0625 41.71875 63.234375 
Q 38.140625 66.40625 31.78125 66.40625 
Q 25.390625 66.40625 21.84375 63.234375 
Q 18.3125 60.0625 18.3125 54.390625 
z
" id="DejaVuSans-38"/>
      </defs>
      <g transform="translate(7.2 220.581209)scale(0.1 -0.1)">
       <use xlink:href="#DejaVuSans-2212"/>
       <use x="83.789062" xlink:href="#DejaVuSans-30"/>
       <use x="147.412109" xlink:href="#DejaVuSans-2e"/>
       <use x="179.199219" xlink:href="#DejaVuSans-38"/>
      </g>
     </g>
    </g>
    <g id="ytick_2">
     <g id="line2d_10">
      <g>
       <use style="stroke:#000000;stroke-width:0.8;" x="38.482813" xlink:href="#m9823ba900c" y="189.109447"/>
      </g>
     </g>
     <g id="text_10">
      <!-- −0.6 -->
      <defs>
       <path d="M 33.015625 40.375 
Q 26.375 40.375 22.484375 35.828125 
Q 18.609375 31.296875 18.609375 23.390625 
Q 18.609375 15.53125 22.484375 10.953125 
Q 26.375 6.390625 33.015625 6.390625 
Q 39.65625 6.390625 43.53125 10.953125 
Q 47.40625 15.53125 47.40625 23.390625 
Q 47.40625 31.296875 43.53125 35.828125 
Q 39.65625 40.375 33.015625 40.375 
z
M 52.59375 71.296875 
L 52.59375 62.3125 
Q 48.875 64.0625 45.09375 64.984375 
Q 41.3125 65.921875 37.59375 65.921875 
Q 27.828125 65.921875 22.671875 59.328125 
Q 17.53125 52.734375 16.796875 39.40625 
Q 19.671875 43.65625 24.015625 45.921875 
Q 28.375 48.1875 33.59375 48.1875 
Q 44.578125 48.1875 50.953125 41.515625 
Q 57.328125 34.859375 57.328125 23.390625 
Q 57.328125 12.15625 50.6875 5.359375 
Q 44.046875 -1.421875 33.015625 -1.421875 
Q 20.359375 -1.421875 13.671875 8.265625 
Q 6.984375 17.96875 6.984375 36.375 
Q 6.984375 53.65625 15.1875 63.9375 
Q 23.390625 74.21875 37.203125 74.21875 
Q 40.921875 74.21875 44.703125 73.484375 
Q 48.484375 72.75 52.59375 71.296875 
z
" id="DejaVuSans-36"/>
      </defs>
      <g transform="translate(7.2 192.908666)scale(0.1 -0.1)">
       <use xlink:href="#DejaVuSans-2212"/>
       <use x="83.789062" xlink:href="#DejaVuSans-30"/>
       <use x="147.412109" xlink:href="#DejaVuSans-2e"/>
       <use x="179.199219" xlink:href="#DejaVuSans-36"/>
      </g>
     </g>
    </g>
    <g id="ytick_3">
     <g id="line2d_11">
      <g>
       <use style="stroke:#000000;stroke-width:0.8;" x="38.482813" xlink:href="#m9823ba900c" y="161.436905"/>
      </g>
     </g>
     <g id="text_11">
      <!-- −0.4 -->
      <defs>
       <path d="M 37.796875 64.3125 
L 12.890625 25.390625 
L 37.796875 25.390625 
z
M 35.203125 72.90625 
L 47.609375 72.90625 
L 47.609375 25.390625 
L 58.015625 25.390625 
L 58.015625 17.1875 
L 47.609375 17.1875 
L 47.609375 0 
L 37.796875 0 
L 37.796875 17.1875 
L 4.890625 17.1875 
L 4.890625 26.703125 
z
" id="DejaVuSans-34"/>
      </defs>
      <g transform="translate(7.2 165.236124)scale(0.1 -0.1)">
       <use xlink:href="#DejaVuSans-2212"/>
       <use x="83.789062" xlink:href="#DejaVuSans-30"/>
       <use x="147.412109" xlink:href="#DejaVuSans-2e"/>
       <use x="179.199219" xlink:href="#DejaVuSans-34"/>
      </g>
     </g>
    </g>
    <g id="ytick_4">
     <g id="line2d_12">
      <g>
       <use style="stroke:#000000;stroke-width:0.8;" x="38.482813" xlink:href="#m9823ba900c" y="133.764362"/>
      </g>
     </g>
     <g id="text_12">
      <!-- −0.2 -->
      <g transform="translate(7.2 137.563581)scale(0.1 -0.1)">
       <use xlink:href="#DejaVuSans-2212"/>
       <use x="83.789062" xlink:href="#DejaVuSans-30"/>
       <use x="147.412109" xlink:href="#DejaVuSans-2e"/>
       <use x="179.199219" xlink:href="#DejaVuSans-32"/>
      </g>
     </g>
    </g>
    <g id="ytick_5">
     <g id="line2d_13">
      <g>
       <use style="stroke:#000000;stroke-width:0.8;" x="38.482813" xlink:href="#m9823ba900c" y="106.09182"/>
      </g>
     </g>
     <g id="text_13">
      <!-- 0.0 -->
      <g transform="translate(15.579688 109.891039)scale(0.1 -0.1)">
       <use xlink:href="#DejaVuSans-30"/>
       <use x="63.623047" xlink:href="#DejaVuSans-2e"/>
       <use x="95.410156" xlink:href="#DejaVuSans-30"/>
      </g>
     </g>
    </g>
    <g id="ytick_6">
     <g id="line2d_14">
      <g>
       <use style="stroke:#000000;stroke-width:0.8;" x="38.482813" xlink:href="#m9823ba900c" y="78.419278"/>
      </g>
     </g>
     <g id="text_14">
      <!-- 0.2 -->
      <g transform="translate(15.579688 82.218496)scale(0.1 -0.1)">
       <use xlink:href="#DejaVuSans-30"/>
       <use x="63.623047" xlink:href="#DejaVuSans-2e"/>
       <use x="95.410156" xlink:href="#DejaVuSans-32"/>
      </g>
     </g>
    </g>
    <g id="ytick_7">
     <g id="line2d_15">
      <g>
       <use style="stroke:#000000;stroke-width:0.8;" x="38.482813" xlink:href="#m9823ba900c" y="50.746735"/>
      </g>
     </g>
     <g id="text_15">
      <!-- 0.4 -->
      <g transform="translate(15.579688 54.545954)scale(0.1 -0.1)">
       <use xlink:href="#DejaVuSans-30"/>
       <use x="63.623047" xlink:href="#DejaVuSans-2e"/>
       <use x="95.410156" xlink:href="#DejaVuSans-34"/>
      </g>
     </g>
    </g>
    <g id="ytick_8">
     <g id="line2d_16">
      <g>
       <use style="stroke:#000000;stroke-width:0.8;" x="38.482813" xlink:href="#m9823ba900c" y="23.074193"/>
      </g>
     </g>
     <g id="text_16">
      <!-- 0.6 -->
      <g transform="translate(15.579688 26.873411)scale(0.1 -0.1)">
       <use xlink:href="#DejaVuSans-30"/>
       <use x="63.623047" xlink:href="#DejaVuSans-2e"/>
       <use x="95.410156" xlink:href="#DejaVuSans-36"/>
      </g>
     </g>
    </g>
   </g>
   <g id="PathCollection_1">
    <defs>
     <path d="M 0 8.660254 
C 2.296726 8.660254 4.499694 7.747755 6.123724 6.123724 
C 7.747755 4.499694 8.660254 2.296726 8.660254 0 
C 8.660254 -2.296726 7.747755 -4.499694 6.123724 -6.123724 
C 4.499694 -7.747755 2.296726 -8.660254 0 -8.660254 
C -2.296726 -8.660254 -4.499694 -7.747755 -6.123724 -6.123724 
C -7.747755 -4.499694 -8.660254 -2.296726 -8.660254 0 
C -8.660254 2.296726 -7.747755 4.499694 -6.123724 6.123724 
C -4.499694 7.747755 -2.296726 8.660254 0 8.660254 
z
" id="C0_0_9221a4c1b9"/>
    </defs>
    <g clip-path="url(#p53700404fe)">
     <use style="fill:#ff0000;stroke:#ff0000;" x="193.496399" xlink:href="#C0_0_9221a4c1b9" y="118.689647"/>
    </g>
    <g clip-path="url(#p53700404fe)">
     <use style="fill:#ff0000;stroke:#ff0000;" x="88.309621" xlink:href="#C0_0_9221a4c1b9" y="28.005868"/>
    </g>
    <g clip-path="url(#p53700404fe)">
     <use style="fill:#ff0000;stroke:#ff0000;" x="353.799998" xlink:href="#C0_0_9221a4c1b9" y="61.189349"/>
    </g>
    <g clip-path="url(#p53700404fe)">
     <use style="fill:#ff0000;stroke:#ff0000;" x="89.274377" xlink:href="#C0_0_9221a4c1b9" y="128.079066"/>
    </g>
    <g clip-path="url(#p53700404fe)">
     <use style="fill:#ff0000;stroke:#ff0000;" x="227.878444" xlink:href="#C0_0_9221a4c1b9" y="153.133765"/>
    </g>
    <g clip-path="url(#p53700404fe)">
     <use style="fill:#ff0000;stroke:#ff0000;" x="192.125689" xlink:href="#C0_0_9221a4c1b9" y="54.352424"/>
    </g>
    <g clip-path="url(#p53700404fe)">
     <use style="fill:#ff0000;stroke:#ff0000;" x="181.402998" xlink:href="#C0_0_9221a4c1b9" y="212.745619"/>
    </g>
    <g clip-path="url(#p53700404fe)">
     <use style="fill:#ff0000;stroke:#ff0000;" x="156.848492" xlink:href="#C0_0_9221a4c1b9" y="157.525774"/>
    </g>
    <g clip-path="url(#p53700404fe)">
     <use style="fill:#ff0000;stroke:#ff0000;" x="114.476367" xlink:href="#C0_0_9221a4c1b9" y="73.307799"/>
    </g>
    <g clip-path="url(#p53700404fe)">
     <use style="fill:#ff0000;stroke:#ff0000;" x="191.310713" xlink:href="#C0_0_9221a4c1b9" y="173.48127"/>
    </g>
    <g clip-path="url(#p53700404fe)">
     <use style="fill:#ff0000;stroke:#ff0000;" x="142.77269" xlink:href="#C0_0_9221a4c1b9" y="100.683912"/>
    </g>
    <g clip-path="url(#p53700404fe)">
     <use style="fill:#ff0000;stroke:#ff0000;" x="269.745546" xlink:href="#C0_0_9221a4c1b9" y="156.250888"/>
    </g>
    <g clip-path="url(#p53700404fe)">
     <use style="fill:#ff0000;stroke:#ff0000;" x="152.506958" xlink:href="#C0_0_9221a4c1b9" y="26.094381"/>
    </g>
    <g clip-path="url(#p53700404fe)">
     <use style="fill:#ff0000;stroke:#ff0000;" x="276.196535" xlink:href="#C0_0_9221a4c1b9" y="120.148756"/>
    </g>
    <g clip-path="url(#p53700404fe)">
     <use style="fill:#ff0000;stroke:#ff0000;" x="282.515012" xlink:href="#C0_0_9221a4c1b9" y="197.983875"/>
    </g>
    <g clip-path="url(#p53700404fe)">
     <use style="fill:#ff0000;stroke:#ff0000;" x="134.413872" xlink:href="#C0_0_9221a4c1b9" y="52.594379"/>
    </g>
    <g clip-path="url(#p53700404fe)">
     <use style="fill:#ff0000;stroke:#ff0000;" x="243.302909" xlink:href="#C0_0_9221a4c1b9" y="96.382709"/>
    </g>
    <g clip-path="url(#p53700404fe)">
     <use style="fill:#ff0000;stroke:#ff0000;" x="258.557325" xlink:href="#C0_0_9221a4c1b9" y="55.676992"/>
    </g>
    <g clip-path="url(#p53700404fe)">
     <use style="fill:#ff0000;stroke:#ff0000;" x="171.739969" xlink:href="#C0_0_9221a4c1b9" y="87.106674"/>
    </g>
    <g clip-path="url(#p53700404fe)">
     <use style="fill:#ff0000;stroke:#ff0000;" x="57.965627" xlink:href="#C0_0_9221a4c1b9" y="68.403253"/>
    </g>
   </g>
   <g id="patch_3">
    <path d="M 38.482813 228.14 
L 38.482813 10.7 
" style="fill:none;stroke:#000000;stroke-linecap:square;stroke-linejoin:miter;stroke-width:0.8;"/>
   </g>
   <g id="patch_4">
    <path d="M 373.282813 228.14 
L 373.282813 10.7 
" style="fill:none;stroke:#000000;stroke-linecap:square;stroke-linejoin:miter;stroke-width:0.8;"/>
   </g>
   <g id="patch_5">
    <path d="M 38.482812 228.14 
L 373.282812 228.14 
" style="fill:none;stroke:#000000;stroke-linecap:square;stroke-linejoin:miter;stroke-width:0.8;"/>
   </g>
   <g id="patch_6">
    <path d="M 38.482812 10.7 
L 373.282812 10.7 
" style="fill:none;stroke:#000000;stroke-linecap:square;stroke-linejoin:miter;stroke-width:0.8;"/>
   </g>
   <g id="text_17">
    <g clip-path="url(#p53700404fe)">
     <!-- 4 -->
     <g style="fill:#ffffff;" transform="translate(189.678899 122.000897)scale(0.12 -0.12)">
      <use xlink:href="#DejaVuSans-34"/>
     </g>
    </g>
   </g>
   <g id="text_18">
    <g clip-path="url(#p53700404fe)">
     <!-- 10 -->
     <g style="fill:#ffffff;" transform="translate(80.674621 31.317118)scale(0.12 -0.12)">
      <use xlink:href="#DejaVuSans-31"/>
      <use x="63.623047" xlink:href="#DejaVuSans-30"/>
     </g>
    </g>
   </g>
   <g id="text_19">
    <g clip-path="url(#p53700404fe)">
     <!-- 0 -->
     <g style="fill:#ffffff;" transform="translate(349.982498 64.500599)scale(0.12 -0.12)">
      <use xlink:href="#DejaVuSans-30"/>
     </g>
    </g>
   </g>
   <g id="text_20">
    <g clip-path="url(#p53700404fe)">
     <!-- 17 -->
     <g style="fill:#ffffff;" transform="translate(81.639377 131.390316)scale(0.12 -0.12)">
      <use xlink:href="#DejaVuSans-31"/>
      <use x="63.623047" xlink:href="#DejaVuSans-37"/>
     </g>
    </g>
   </g>
   <g id="text_21">
    <g clip-path="url(#p53700404fe)">
     <!-- 2 -->
     <g style="fill:#ffffff;" transform="translate(224.060944 156.445015)scale(0.12 -0.12)">
      <use xlink:href="#DejaVuSans-32"/>
     </g>
    </g>
   </g>
   <g id="text_22">
    <g clip-path="url(#p53700404fe)">
     <!-- 3 -->
     <defs>
      <path d="M 40.578125 39.3125 
Q 47.65625 37.796875 51.625 33 
Q 55.609375 28.21875 55.609375 21.1875 
Q 55.609375 10.40625 48.1875 4.484375 
Q 40.765625 -1.421875 27.09375 -1.421875 
Q 22.515625 -1.421875 17.65625 -0.515625 
Q 12.796875 0.390625 7.625 2.203125 
L 7.625 11.71875 
Q 11.71875 9.328125 16.59375 8.109375 
Q 21.484375 6.890625 26.8125 6.890625 
Q 36.078125 6.890625 40.9375 10.546875 
Q 45.796875 14.203125 45.796875 21.1875 
Q 45.796875 27.640625 41.28125 31.265625 
Q 36.765625 34.90625 28.71875 34.90625 
L 20.21875 34.90625 
L 20.21875 43.015625 
L 29.109375 43.015625 
Q 36.375 43.015625 40.234375 45.921875 
Q 44.09375 48.828125 44.09375 54.296875 
Q 44.09375 59.90625 40.109375 62.90625 
Q 36.140625 65.921875 28.71875 65.921875 
Q 24.65625 65.921875 20.015625 65.03125 
Q 15.375 64.15625 9.8125 62.3125 
L 9.8125 71.09375 
Q 15.4375 72.65625 20.34375 73.4375 
Q 25.25 74.21875 29.59375 74.21875 
Q 40.828125 74.21875 47.359375 69.109375 
Q 53.90625 64.015625 53.90625 55.328125 
Q 53.90625 49.265625 50.4375 45.09375 
Q 46.96875 40.921875 40.578125 39.3125 
z
" id="DejaVuSans-33"/>
     </defs>
     <g style="fill:#ffffff;" transform="translate(188.308189 57.663674)scale(0.12 -0.12)">
      <use xlink:href="#DejaVuSans-33"/>
     </g>
    </g>
   </g>
   <g id="text_23">
    <g clip-path="url(#p53700404fe)">
     <!-- 11 -->
     <g style="fill:#ffffff;" transform="translate(173.767998 216.056869)scale(0.12 -0.12)">
      <use xlink:href="#DejaVuSans-31"/>
      <use x="63.623047" xlink:href="#DejaVuSans-31"/>
     </g>
    </g>
   </g>
   <g id="text_24">
    <g clip-path="url(#p53700404fe)">
     <!-- 7 -->
     <g style="fill:#ffffff;" transform="translate(153.030992 160.837024)scale(0.12 -0.12)">
      <use xlink:href="#DejaVuSans-37"/>
     </g>
    </g>
   </g>
   <g id="text_25">
    <g clip-path="url(#p53700404fe)">
     <!-- 8 -->
     <g style="fill:#ffffff;" transform="translate(110.658867 76.619049)scale(0.12 -0.12)">
      <use xlink:href="#DejaVuSans-38"/>
     </g>
    </g>
   </g>
   <g id="text_26">
    <g clip-path="url(#p53700404fe)">
     <!-- 19 -->
     <defs>
      <path d="M 10.984375 1.515625 
L 10.984375 10.5 
Q 14.703125 8.734375 18.5 7.8125 
Q 22.3125 6.890625 25.984375 6.890625 
Q 35.75 6.890625 40.890625 13.453125 
Q 46.046875 20.015625 46.78125 33.40625 
Q 43.953125 29.203125 39.59375 26.953125 
Q 35.25 24.703125 29.984375 24.703125 
Q 19.046875 24.703125 12.671875 31.3125 
Q 6.296875 37.9375 6.296875 49.421875 
Q 6.296875 60.640625 12.9375 67.421875 
Q 19.578125 74.21875 30.609375 74.21875 
Q 43.265625 74.21875 49.921875 64.515625 
Q 56.59375 54.828125 56.59375 36.375 
Q 56.59375 19.140625 48.40625 8.859375 
Q 40.234375 -1.421875 26.421875 -1.421875 
Q 22.703125 -1.421875 18.890625 -0.6875 
Q 15.09375 0.046875 10.984375 1.515625 
z
M 30.609375 32.421875 
Q 37.25 32.421875 41.125 36.953125 
Q 45.015625 41.5 45.015625 49.421875 
Q 45.015625 57.28125 41.125 61.84375 
Q 37.25 66.40625 30.609375 66.40625 
Q 23.96875 66.40625 20.09375 61.84375 
Q 16.21875 57.28125 16.21875 49.421875 
Q 16.21875 41.5 20.09375 36.953125 
Q 23.96875 32.421875 30.609375 32.421875 
z
" id="DejaVuSans-39"/>
     </defs>
     <g style="fill:#ffffff;" transform="translate(183.675713 176.79252)scale(0.12 -0.12)">
      <use xlink:href="#DejaVuSans-31"/>
      <use x="63.623047" xlink:href="#DejaVuSans-39"/>
     </g>
    </g>
   </g>
   <g id="text_27">
    <g clip-path="url(#p53700404fe)">
     <!-- 5 -->
     <g style="fill:#ffffff;" transform="translate(138.95519 103.995162)scale(0.12 -0.12)">
      <use xlink:href="#DejaVuSans-35"/>
     </g>
    </g>
   </g>
   <g id="text_28">
    <g clip-path="url(#p53700404fe)">
     <!-- 9 -->
     <g style="fill:#ffffff;" transform="translate(265.928046 159.562138)scale(0.12 -0.12)">
      <use xlink:href="#DejaVuSans-39"/>
     </g>
    </g>
   </g>
   <g id="text_29">
    <g clip-path="url(#p53700404fe)">
     <!-- 6 -->
     <g style="fill:#ffffff;" transform="translate(254.739825 58.988242)scale(0.12 -0.12)">
      <use xlink:href="#DejaVuSans-36"/>
     </g>
    </g>
   </g>
   <g id="text_30">
    <g clip-path="url(#p53700404fe)">
     <!-- 16 -->
     <g style="fill:#ffffff;" transform="translate(268.561535 123.460006)scale(0.12 -0.12)">
      <use xlink:href="#DejaVuSans-31"/>
      <use x="63.623047" xlink:href="#DejaVuSans-36"/>
     </g>
    </g>
   </g>
   <g id="text_31">
    <g clip-path="url(#p53700404fe)">
     <!-- 13 -->
     <g style="fill:#ffffff;" transform="translate(274.880012 201.295125)scale(0.12 -0.12)">
      <use xlink:href="#DejaVuSans-31"/>
      <use x="63.623047" xlink:href="#DejaVuSans-33"/>
     </g>
    </g>
   </g>
   <g id="text_32">
    <g clip-path="url(#p53700404fe)">
     <!-- 1 -->
     <g style="fill:#ffffff;" transform="translate(130.596372 55.905629)scale(0.12 -0.12)">
      <use xlink:href="#DejaVuSans-31"/>
     </g>
    </g>
   </g>
   <g id="text_33">
    <g clip-path="url(#p53700404fe)">
     <!-- 18 -->
     <g style="fill:#ffffff;" transform="translate(235.667909 99.693959)scale(0.12 -0.12)">
      <use xlink:href="#DejaVuSans-31"/>
      <use x="63.623047" xlink:href="#DejaVuSans-38"/>
     </g>
    </g>
   </g>
   <g id="text_34">
    <g clip-path="url(#p53700404fe)">
     <!-- 15 -->
     <g style="fill:#ffffff;" transform="translate(144.871958 29.405631)scale(0.12 -0.12)">
      <use xlink:href="#DejaVuSans-31"/>
      <use x="63.623047" xlink:href="#DejaVuSans-35"/>
     </g>
    </g>
   </g>
   <g id="text_35">
    <g clip-path="url(#p53700404fe)">
     <!-- 14 -->
     <g style="fill:#ffffff;" transform="translate(164.104969 90.417924)scale(0.12 -0.12)">
      <use xlink:href="#DejaVuSans-31"/>
      <use x="63.623047" xlink:href="#DejaVuSans-34"/>
     </g>
    </g>
   </g>
   <g id="text_36">
    <g clip-path="url(#p53700404fe)">
     <!-- 12 -->
     <g style="fill:#ffffff;" transform="translate(50.330627 71.714503)scale(0.12 -0.12)">
      <use xlink:href="#DejaVuSans-31"/>
      <use x="63.623047" xlink:href="#DejaVuSans-32"/>
     </g>
    </g>
   </g>
  </g>
 </g>
 <defs>
  <clipPath id="p53700404fe">
   <rect height="217.44" width="334.8" x="38.482813" y="10.7"/>
  </clipPath>
 </defs>
</svg>
