<?xml version="1.0" encoding="utf-8" standalone="no"?>
<!DOCTYPE svg PUBLIC "-//W3C//DTD SVG 1.1//EN"
  "http://www.w3.org/Graphics/SVG/1.1/DTD/svg11.dtd">
<!-- Created with matplotlib (http://matplotlib.org/) -->
<svg height="252.018125pt" version="1.1" viewBox="0 0 390.345312 252.018125" width="390.345312pt" xmlns="http://www.w3.org/2000/svg" xmlns:xlink="http://www.w3.org/1999/xlink">
 <defs>
  <style type="text/css">
*{stroke-linecap:butt;stroke-linejoin:round;}
  </style>
 </defs>
 <g id="figure_1">
  <g id="patch_1">
   <path d="M 0 252.018125 
L 390.345312 252.018125 
L 390.345312 0 
L 0 0 
z
" style="fill:none;"/>
  </g>
  <g id="axes_1">
   <g id="patch_2">
    <path d="M 44.845313 228.14 
L 379.645313 228.14 
L 379.645313 10.7 
L 44.845313 10.7 
z
" style="fill:#ffffff;"/>
   </g>
   <g id="LineCollection_1">
    <path clip-path="url(#p5e902563a0)" d="M 159.699589 61.57311 
L 254.385259 86.511242 
" style="fill:none;stroke:#000000;"/>
    <path clip-path="url(#p5e902563a0)" d="M 159.699589 61.57311 
L 124.458496 136.063648 
" style="fill:none;stroke:#000000;"/>
    <path clip-path="url(#p5e902563a0)" d="M 159.699589 61.57311 
L 107.836522 49.497178 
" style="fill:none;stroke:#000000;"/>
    <path clip-path="url(#p5e902563a0)" d="M 159.699589 61.57311 
L 217.481555 119.047568 
" style="fill:none;stroke:#000000;"/>
    <path clip-path="url(#p5e902563a0)" d="M 194.501801 172.396323 
L 150.542605 108.467106 
" style="fill:none;stroke:#000000;"/>
    <path clip-path="url(#p5e902563a0)" d="M 194.501801 172.396323 
L 152.548269 193.874319 
" style="fill:none;stroke:#000000;"/>
    <path clip-path="url(#p5e902563a0)" d="M 194.501801 172.396323 
L 124.458496 136.063648 
" style="fill:none;stroke:#000000;"/>
    <path clip-path="url(#p5e902563a0)" d="M 194.501801 172.396323 
L 303.987938 102.598 
" style="fill:none;stroke:#000000;"/>
    <path clip-path="url(#p5e902563a0)" d="M 194.501801 172.396323 
L 194.501801 172.396323 
" style="fill:none;stroke:#000000;"/>
    <path clip-path="url(#p5e902563a0)" d="M 360.318109 127.636515 
L 277.540491 145.936589 
" style="fill:none;stroke:#000000;"/>
    <path clip-path="url(#p5e902563a0)" d="M 360.318109 127.636515 
L 303.987938 102.598 
" style="fill:none;stroke:#000000;"/>
    <path clip-path="url(#p5e902563a0)" d="M 360.318109 127.636515 
L 312.125578 170.102526 
" style="fill:none;stroke:#000000;"/>
    <path clip-path="url(#p5e902563a0)" d="M 360.318109 127.636515 
L 254.385259 86.511242 
" style="fill:none;stroke:#000000;"/>
    <path clip-path="url(#p5e902563a0)" d="M 64.172516 213.529004 
L 152.548269 193.874319 
" style="fill:none;stroke:#000000;"/>
    <path clip-path="url(#p5e902563a0)" d="M 64.172516 213.529004 
L 124.458496 136.063648 
" style="fill:none;stroke:#000000;"/>
    <path clip-path="url(#p5e902563a0)" d="M 254.385259 86.511242 
L 254.385259 86.511242 
" style="fill:none;stroke:#000000;"/>
    <path clip-path="url(#p5e902563a0)" d="M 254.385259 86.511242 
L 277.540491 145.936589 
" style="fill:none;stroke:#000000;"/>
    <path clip-path="url(#p5e902563a0)" d="M 254.385259 86.511242 
L 150.542605 108.467106 
" style="fill:none;stroke:#000000;"/>
    <path clip-path="url(#p5e902563a0)" d="M 254.385259 86.511242 
L 274.614949 118.66721 
" style="fill:none;stroke:#000000;"/>
    <path clip-path="url(#p5e902563a0)" d="M 94.964672 120.349214 
L 124.458496 136.063648 
" style="fill:none;stroke:#000000;"/>
    <path clip-path="url(#p5e902563a0)" d="M 94.964672 120.349214 
L 67.416515 79.085374 
" style="fill:none;stroke:#000000;"/>
    <path clip-path="url(#p5e902563a0)" d="M 94.964672 120.349214 
L 150.542605 108.467106 
" style="fill:none;stroke:#000000;"/>
    <path clip-path="url(#p5e902563a0)" d="M 94.964672 120.349214 
L 152.548269 193.874319 
" style="fill:none;stroke:#000000;"/>
    <path clip-path="url(#p5e902563a0)" d="M 94.964672 120.349214 
L 107.836522 49.497178 
" style="fill:none;stroke:#000000;"/>
    <path clip-path="url(#p5e902563a0)" d="M 94.964672 120.349214 
L 217.481555 119.047568 
" style="fill:none;stroke:#000000;"/>
    <path clip-path="url(#p5e902563a0)" d="M 277.540491 145.936589 
L 288.555276 71.055098 
" style="fill:none;stroke:#000000;"/>
    <path clip-path="url(#p5e902563a0)" d="M 277.540491 145.936589 
L 152.548269 193.874319 
" style="fill:none;stroke:#000000;"/>
    <path clip-path="url(#p5e902563a0)" d="M 277.540491 145.936589 
L 303.987938 102.598 
" style="fill:none;stroke:#000000;"/>
    <path clip-path="url(#p5e902563a0)" d="M 277.540491 145.936589 
L 217.481555 119.047568 
" style="fill:none;stroke:#000000;"/>
    <path clip-path="url(#p5e902563a0)" d="M 218.622395 158.108754 
L 124.458496 136.063648 
" style="fill:none;stroke:#000000;"/>
    <path clip-path="url(#p5e902563a0)" d="M 218.622395 158.108754 
L 152.548269 193.874319 
" style="fill:none;stroke:#000000;"/>
    <path clip-path="url(#p5e902563a0)" d="M 218.622395 158.108754 
L 187.792542 85.878059 
" style="fill:none;stroke:#000000;"/>
    <path clip-path="url(#p5e902563a0)" d="M 218.622395 158.108754 
L 312.125578 170.102526 
" style="fill:none;stroke:#000000;"/>
    <path clip-path="url(#p5e902563a0)" d="M 218.622395 158.108754 
L 274.614949 118.66721 
" style="fill:none;stroke:#000000;"/>
    <path clip-path="url(#p5e902563a0)" d="M 218.622395 158.108754 
L 217.481555 119.047568 
" style="fill:none;stroke:#000000;"/>
    <path clip-path="url(#p5e902563a0)" d="M 67.416515 79.085374 
L 150.542605 108.467106 
" style="fill:none;stroke:#000000;"/>
    <path clip-path="url(#p5e902563a0)" d="M 67.416515 79.085374 
L 187.792542 85.878059 
" style="fill:none;stroke:#000000;"/>
    <path clip-path="url(#p5e902563a0)" d="M 67.416515 79.085374 
L 67.416515 79.085374 
" style="fill:none;stroke:#000000;"/>
    <path clip-path="url(#p5e902563a0)" d="M 312.125578 170.102526 
L 274.614949 118.66721 
" style="fill:none;stroke:#000000;"/>
    <path clip-path="url(#p5e902563a0)" d="M 312.125578 170.102526 
L 217.481555 119.047568 
" style="fill:none;stroke:#000000;"/>
    <path clip-path="url(#p5e902563a0)" d="M 217.481555 119.047568 
L 288.555276 71.055098 
" style="fill:none;stroke:#000000;"/>
    <path clip-path="url(#p5e902563a0)" d="M 217.481555 119.047568 
L 150.542605 108.467106 
" style="fill:none;stroke:#000000;"/>
    <path clip-path="url(#p5e902563a0)" d="M 217.481555 119.047568 
L 274.614949 118.66721 
" style="fill:none;stroke:#000000;"/>
    <path clip-path="url(#p5e902563a0)" d="M 124.458496 136.063648 
L 187.792542 85.878059 
" style="fill:none;stroke:#000000;"/>
    <path clip-path="url(#p5e902563a0)" d="M 124.458496 136.063648 
L 107.836522 49.497178 
" style="fill:none;stroke:#000000;"/>
    <path clip-path="url(#p5e902563a0)" d="M 107.836522 49.497178 
L 217.753144 25.310996 
" style="fill:none;stroke:#000000;"/>
    <path clip-path="url(#p5e902563a0)" d="M 107.836522 49.497178 
L 107.836522 49.497178 
" style="fill:none;stroke:#000000;"/>
    <path clip-path="url(#p5e902563a0)" d="M 288.555276 71.055098 
L 187.792542 85.878059 
" style="fill:none;stroke:#000000;"/>
    <path clip-path="url(#p5e902563a0)" d="M 288.555276 71.055098 
L 274.614949 118.66721 
" style="fill:none;stroke:#000000;"/>
    <path clip-path="url(#p5e902563a0)" d="M 150.542605 108.467106 
L 187.792542 85.878059 
" style="fill:none;stroke:#000000;"/>
    <path clip-path="url(#p5e902563a0)" d="M 187.792542 85.878059 
L 217.753144 25.310996 
" style="fill:none;stroke:#000000;"/>
    <path clip-path="url(#p5e902563a0)" d="M 187.792542 85.878059 
L 274.614949 118.66721 
" style="fill:none;stroke:#000000;"/>
    <path clip-path="url(#p5e902563a0)" d="M 217.753144 25.310996 
L 217.753144 25.310996 
" style="fill:none;stroke:#000000;"/>
    <path clip-path="url(#p5e902563a0)" d="M 217.753144 25.310996 
L 303.987938 102.598 
" style="fill:none;stroke:#000000;"/>
    <path clip-path="url(#p5e902563a0)" d="M 274.614949 118.66721 
L 303.987938 102.598 
" style="fill:none;stroke:#000000;"/>
   </g>
   <g id="matplotlib.axis_1">
    <g id="xtick_1">
     <g id="line2d_1">
      <defs>
       <path d="M 0 0 
L 0 3.5 
" id="m8e5eaeb413" style="stroke:#000000;stroke-width:0.8;"/>
      </defs>
      <g>
       <use style="stroke:#000000;stroke-width:0.8;" x="82.326763" xlink:href="#m8e5eaeb413" y="228.14"/>
      </g>
     </g>
     <g id="text_1">
      <!-- −0.75 -->
      <defs>
       <path d="M 10.59375 35.5 
L 73.1875 35.5 
L 73.1875 27.203125 
L 10.59375 27.203125 
z
" id="DejaVuSans-2212"/>
       <path d="M 31.78125 66.40625 
Q 24.171875 66.40625 20.328125 58.90625 
Q 16.5 51.421875 16.5 36.375 
Q 16.5 21.390625 20.328125 13.890625 
Q 24.171875 6.390625 31.78125 6.390625 
Q 39.453125 6.390625 43.28125 13.890625 
Q 47.125 21.390625 47.125 36.375 
Q 47.125 51.421875 43.28125 58.90625 
Q 39.453125 66.40625 31.78125 66.40625 
z
M 31.78125 74.21875 
Q 44.046875 74.21875 50.515625 64.515625 
Q 56.984375 54.828125 56.984375 36.375 
Q 56.984375 17.96875 50.515625 8.265625 
Q 44.046875 -1.421875 31.78125 -1.421875 
Q 19.53125 -1.421875 13.0625 8.265625 
Q 6.59375 17.96875 6.59375 36.375 
Q 6.59375 54.828125 13.0625 64.515625 
Q 19.53125 74.21875 31.78125 74.21875 
z
" id="DejaVuSans-30"/>
       <path d="M 10.6875 12.40625 
L 21 12.40625 
L 21 0 
L 10.6875 0 
z
" id="DejaVuSans-2e"/>
       <path d="M 8.203125 72.90625 
L 55.078125 72.90625 
L 55.078125 68.703125 
L 28.609375 0 
L 18.3125 0 
L 43.21875 64.59375 
L 8.203125 64.59375 
z
" id="DejaVuSans-37"/>
       <path d="M 10.796875 72.90625 
L 49.515625 72.90625 
L 49.515625 64.59375 
L 19.828125 64.59375 
L 19.828125 46.734375 
Q 21.96875 47.46875 24.109375 47.828125 
Q 26.265625 48.1875 28.421875 48.1875 
Q 40.625 48.1875 47.75 41.5 
Q 54.890625 34.8125 54.890625 23.390625 
Q 54.890625 11.625 47.5625 5.09375 
Q 40.234375 -1.421875 26.90625 -1.421875 
Q 22.3125 -1.421875 17.546875 -0.640625 
Q 12.796875 0.140625 7.71875 1.703125 
L 7.71875 11.625 
Q 12.109375 9.234375 16.796875 8.0625 
Q 21.484375 6.890625 26.703125 6.890625 
Q 35.15625 6.890625 40.078125 11.328125 
Q 45.015625 15.765625 45.015625 23.390625 
Q 45.015625 31 40.078125 35.4375 
Q 35.15625 39.890625 26.703125 39.890625 
Q 22.75 39.890625 18.8125 39.015625 
Q 14.890625 38.140625 10.796875 36.28125 
z
" id="DejaVuSans-35"/>
      </defs>
      <g transform="translate(67.004106 242.738437)scale(0.1 -0.1)">
       <use xlink:href="#DejaVuSans-2212"/>
       <use x="83.789062" xlink:href="#DejaVuSans-30"/>
       <use x="147.412109" xlink:href="#DejaVuSans-2e"/>
       <use x="179.199219" xlink:href="#DejaVuSans-37"/>
       <use x="242.822266" xlink:href="#DejaVuSans-35"/>
      </g>
     </g>
    </g>
    <g id="xtick_2">
     <g id="line2d_2">
      <g>
       <use style="stroke:#000000;stroke-width:0.8;" x="122.039812" xlink:href="#m8e5eaeb413" y="228.14"/>
      </g>
     </g>
     <g id="text_2">
      <!-- −0.50 -->
      <g transform="translate(106.717156 242.738437)scale(0.1 -0.1)">
       <use xlink:href="#DejaVuSans-2212"/>
       <use x="83.789062" xlink:href="#DejaVuSans-30"/>
       <use x="147.412109" xlink:href="#DejaVuSans-2e"/>
       <use x="179.199219" xlink:href="#DejaVuSans-35"/>
       <use x="242.822266" xlink:href="#DejaVuSans-30"/>
      </g>
     </g>
    </g>
    <g id="xtick_3">
     <g id="line2d_3">
      <g>
       <use style="stroke:#000000;stroke-width:0.8;" x="161.752862" xlink:href="#m8e5eaeb413" y="228.14"/>
      </g>
     </g>
     <g id="text_3">
      <!-- −0.25 -->
      <defs>
       <path d="M 19.1875 8.296875 
L 53.609375 8.296875 
L 53.609375 0 
L 7.328125 0 
L 7.328125 8.296875 
Q 12.9375 14.109375 22.625 23.890625 
Q 32.328125 33.6875 34.8125 36.53125 
Q 39.546875 41.84375 41.421875 45.53125 
Q 43.3125 49.21875 43.3125 52.78125 
Q 43.3125 58.59375 39.234375 62.25 
Q 35.15625 65.921875 28.609375 65.921875 
Q 23.96875 65.921875 18.8125 64.3125 
Q 13.671875 62.703125 7.8125 59.421875 
L 7.8125 69.390625 
Q 13.765625 71.78125 18.9375 73 
Q 24.125 74.21875 28.421875 74.21875 
Q 39.75 74.21875 46.484375 68.546875 
Q 53.21875 62.890625 53.21875 53.421875 
Q 53.21875 48.921875 51.53125 44.890625 
Q 49.859375 40.875 45.40625 35.40625 
Q 44.1875 33.984375 37.640625 27.21875 
Q 31.109375 20.453125 19.1875 8.296875 
z
" id="DejaVuSans-32"/>
      </defs>
      <g transform="translate(146.430205 242.738437)scale(0.1 -0.1)">
       <use xlink:href="#DejaVuSans-2212"/>
       <use x="83.789062" xlink:href="#DejaVuSans-30"/>
       <use x="147.412109" xlink:href="#DejaVuSans-2e"/>
       <use x="179.199219" xlink:href="#DejaVuSans-32"/>
       <use x="242.822266" xlink:href="#DejaVuSans-35"/>
      </g>
     </g>
    </g>
    <g id="xtick_4">
     <g id="line2d_4">
      <g>
       <use style="stroke:#000000;stroke-width:0.8;" x="201.465911" xlink:href="#m8e5eaeb413" y="228.14"/>
      </g>
     </g>
     <g id="text_4">
      <!-- 0.00 -->
      <g transform="translate(190.333099 242.738437)scale(0.1 -0.1)">
       <use xlink:href="#DejaVuSans-30"/>
       <use x="63.623047" xlink:href="#DejaVuSans-2e"/>
       <use x="95.410156" xlink:href="#DejaVuSans-30"/>
       <use x="159.033203" xlink:href="#DejaVuSans-30"/>
      </g>
     </g>
    </g>
    <g id="xtick_5">
     <g id="line2d_5">
      <g>
       <use style="stroke:#000000;stroke-width:0.8;" x="241.178961" xlink:href="#m8e5eaeb413" y="228.14"/>
      </g>
     </g>
     <g id="text_5">
      <!-- 0.25 -->
      <g transform="translate(230.046148 242.738437)scale(0.1 -0.1)">
       <use xlink:href="#DejaVuSans-30"/>
       <use x="63.623047" xlink:href="#DejaVuSans-2e"/>
       <use x="95.410156" xlink:href="#DejaVuSans-32"/>
       <use x="159.033203" xlink:href="#DejaVuSans-35"/>
      </g>
     </g>
    </g>
    <g id="xtick_6">
     <g id="line2d_6">
      <g>
       <use style="stroke:#000000;stroke-width:0.8;" x="280.89201" xlink:href="#m8e5eaeb413" y="228.14"/>
      </g>
     </g>
     <g id="text_6">
      <!-- 0.50 -->
      <g transform="translate(269.759198 242.738437)scale(0.1 -0.1)">
       <use xlink:href="#DejaVuSans-30"/>
       <use x="63.623047" xlink:href="#DejaVuSans-2e"/>
       <use x="95.410156" xlink:href="#DejaVuSans-35"/>
       <use x="159.033203" xlink:href="#DejaVuSans-30"/>
      </g>
     </g>
    </g>
    <g id="xtick_7">
     <g id="line2d_7">
      <g>
       <use style="stroke:#000000;stroke-width:0.8;" x="320.60506" xlink:href="#m8e5eaeb413" y="228.14"/>
      </g>
     </g>
     <g id="text_7">
      <!-- 0.75 -->
      <g transform="translate(309.472247 242.738437)scale(0.1 -0.1)">
       <use xlink:href="#DejaVuSans-30"/>
       <use x="63.623047" xlink:href="#DejaVuSans-2e"/>
       <use x="95.410156" xlink:href="#DejaVuSans-37"/>
       <use x="159.033203" xlink:href="#DejaVuSans-35"/>
      </g>
     </g>
    </g>
    <g id="xtick_8">
     <g id="line2d_8">
      <g>
       <use style="stroke:#000000;stroke-width:0.8;" x="360.318109" xlink:href="#m8e5eaeb413" y="228.14"/>
      </g>
     </g>
     <g id="text_8">
      <!-- 1.00 -->
      <defs>
       <path d="M 12.40625 8.296875 
L 28.515625 8.296875 
L 28.515625 63.921875 
L 10.984375 60.40625 
L 10.984375 69.390625 
L 28.421875 72.90625 
L 38.28125 72.90625 
L 38.28125 8.296875 
L 54.390625 8.296875 
L 54.390625 0 
L 12.40625 0 
z
" id="DejaVuSans-31"/>
      </defs>
      <g transform="translate(349.185297 242.738437)scale(0.1 -0.1)">
       <use xlink:href="#DejaVuSans-31"/>
       <use x="63.623047" xlink:href="#DejaVuSans-2e"/>
       <use x="95.410156" xlink:href="#DejaVuSans-30"/>
       <use x="159.033203" xlink:href="#DejaVuSans-30"/>
      </g>
     </g>
    </g>
   </g>
   <g id="matplotlib.axis_2">
    <g id="ytick_1">
     <g id="line2d_9">
      <defs>
       <path d="M 0 0 
L -3.5 0 
" id="m5b52e6db96" style="stroke:#000000;stroke-width:0.8;"/>
      </defs>
      <g>
       <use style="stroke:#000000;stroke-width:0.8;" x="44.845313" xlink:href="#m5b52e6db96" y="206.304631"/>
      </g>
     </g>
     <g id="text_9">
      <!-- −0.75 -->
      <g transform="translate(7.2 210.10385)scale(0.1 -0.1)">
       <use xlink:href="#DejaVuSans-2212"/>
       <use x="83.789062" xlink:href="#DejaVuSans-30"/>
       <use x="147.412109" xlink:href="#DejaVuSans-2e"/>
       <use x="179.199219" xlink:href="#DejaVuSans-37"/>
       <use x="242.822266" xlink:href="#DejaVuSans-35"/>
      </g>
     </g>
    </g>
    <g id="ytick_2">
     <g id="line2d_10">
      <g>
       <use style="stroke:#000000;stroke-width:0.8;" x="44.845313" xlink:href="#m5b52e6db96" y="176.631218"/>
      </g>
     </g>
     <g id="text_10">
      <!-- −0.50 -->
      <g transform="translate(7.2 180.430436)scale(0.1 -0.1)">
       <use xlink:href="#DejaVuSans-2212"/>
       <use x="83.789062" xlink:href="#DejaVuSans-30"/>
       <use x="147.412109" xlink:href="#DejaVuSans-2e"/>
       <use x="179.199219" xlink:href="#DejaVuSans-35"/>
       <use x="242.822266" xlink:href="#DejaVuSans-30"/>
      </g>
     </g>
    </g>
    <g id="ytick_3">
     <g id="line2d_11">
      <g>
       <use style="stroke:#000000;stroke-width:0.8;" x="44.845313" xlink:href="#m5b52e6db96" y="146.957805"/>
      </g>
     </g>
     <g id="text_11">
      <!-- −0.25 -->
      <g transform="translate(7.2 150.757023)scale(0.1 -0.1)">
       <use xlink:href="#DejaVuSans-2212"/>
       <use x="83.789062" xlink:href="#DejaVuSans-30"/>
       <use x="147.412109" xlink:href="#DejaVuSans-2e"/>
       <use x="179.199219" xlink:href="#DejaVuSans-32"/>
       <use x="242.822266" xlink:href="#DejaVuSans-35"/>
      </g>
     </g>
    </g>
    <g id="ytick_4">
     <g id="line2d_12">
      <g>
       <use style="stroke:#000000;stroke-width:0.8;" x="44.845313" xlink:href="#m5b52e6db96" y="117.284392"/>
      </g>
     </g>
     <g id="text_12">
      <!-- 0.00 -->
      <g transform="translate(15.579688 121.08361)scale(0.1 -0.1)">
       <use xlink:href="#DejaVuSans-30"/>
       <use x="63.623047" xlink:href="#DejaVuSans-2e"/>
       <use x="95.410156" xlink:href="#DejaVuSans-30"/>
       <use x="159.033203" xlink:href="#DejaVuSans-30"/>
      </g>
     </g>
    </g>
    <g id="ytick_5">
     <g id="line2d_13">
      <g>
       <use style="stroke:#000000;stroke-width:0.8;" x="44.845313" xlink:href="#m5b52e6db96" y="87.610978"/>
      </g>
     </g>
     <g id="text_13">
      <!-- 0.25 -->
      <g transform="translate(15.579688 91.410197)scale(0.1 -0.1)">
       <use xlink:href="#DejaVuSans-30"/>
       <use x="63.623047" xlink:href="#DejaVuSans-2e"/>
       <use x="95.410156" xlink:href="#DejaVuSans-32"/>
       <use x="159.033203" xlink:href="#DejaVuSans-35"/>
      </g>
     </g>
    </g>
    <g id="ytick_6">
     <g id="line2d_14">
      <g>
       <use style="stroke:#000000;stroke-width:0.8;" x="44.845313" xlink:href="#m5b52e6db96" y="57.937565"/>
      </g>
     </g>
     <g id="text_14">
      <!-- 0.50 -->
      <g transform="translate(15.579688 61.736784)scale(0.1 -0.1)">
       <use xlink:href="#DejaVuSans-30"/>
       <use x="63.623047" xlink:href="#DejaVuSans-2e"/>
       <use x="95.410156" xlink:href="#DejaVuSans-35"/>
       <use x="159.033203" xlink:href="#DejaVuSans-30"/>
      </g>
     </g>
    </g>
    <g id="ytick_7">
     <g id="line2d_15">
      <g>
       <use style="stroke:#000000;stroke-width:0.8;" x="44.845313" xlink:href="#m5b52e6db96" y="28.264152"/>
      </g>
     </g>
     <g id="text_15">
      <!-- 0.75 -->
      <g transform="translate(15.579688 32.063371)scale(0.1 -0.1)">
       <use xlink:href="#DejaVuSans-30"/>
       <use x="63.623047" xlink:href="#DejaVuSans-2e"/>
       <use x="95.410156" xlink:href="#DejaVuSans-37"/>
       <use x="159.033203" xlink:href="#DejaVuSans-35"/>
      </g>
     </g>
    </g>
   </g>
   <g id="PathCollection_1">
    <defs>
     <path d="M 0 8.660254 
C 2.296726 8.660254 4.499694 7.747755 6.123724 6.123724 
C 7.747755 4.499694 8.660254 2.296726 8.660254 0 
C 8.660254 -2.296726 7.747755 -4.499694 6.123724 -6.123724 
C 4.499694 -7.747755 2.296726 -8.660254 0 -8.660254 
C -2.296726 -8.660254 -4.499694 -7.747755 -6.123724 -6.123724 
C -7.747755 -4.499694 -8.660254 -2.296726 -8.660254 0 
C -8.660254 2.296726 -7.747755 4.499694 -6.123724 6.123724 
C -4.499694 7.747755 -2.296726 8.660254 0 8.660254 
z
" id="m1633ade63f" style="stroke:#ff0000;"/>
    </defs>
    <g clip-path="url(#p5e902563a0)">
     <use style="fill:#ff0000;stroke:#ff0000;" x="159.699589" xlink:href="#m1633ade63f" y="61.57311"/>
     <use style="fill:#ff0000;stroke:#ff0000;" x="194.501801" xlink:href="#m1633ade63f" y="172.396323"/>
     <use style="fill:#ff0000;stroke:#ff0000;" x="360.318109" xlink:href="#m1633ade63f" y="127.636515"/>
     <use style="fill:#ff0000;stroke:#ff0000;" x="64.172516" xlink:href="#m1633ade63f" y="213.529004"/>
     <use style="fill:#ff0000;stroke:#ff0000;" x="254.385259" xlink:href="#m1633ade63f" y="86.511242"/>
     <use style="fill:#ff0000;stroke:#ff0000;" x="94.964672" xlink:href="#m1633ade63f" y="120.349214"/>
     <use style="fill:#ff0000;stroke:#ff0000;" x="277.540491" xlink:href="#m1633ade63f" y="145.936589"/>
     <use style="fill:#ff0000;stroke:#ff0000;" x="218.622395" xlink:href="#m1633ade63f" y="158.108754"/>
     <use style="fill:#ff0000;stroke:#ff0000;" x="152.548269" xlink:href="#m1633ade63f" y="193.874319"/>
     <use style="fill:#ff0000;stroke:#ff0000;" x="67.416515" xlink:href="#m1633ade63f" y="79.085374"/>
     <use style="fill:#ff0000;stroke:#ff0000;" x="312.125578" xlink:href="#m1633ade63f" y="170.102526"/>
     <use style="fill:#ff0000;stroke:#ff0000;" x="217.481555" xlink:href="#m1633ade63f" y="119.047568"/>
     <use style="fill:#ff0000;stroke:#ff0000;" x="124.458496" xlink:href="#m1633ade63f" y="136.063648"/>
     <use style="fill:#ff0000;stroke:#ff0000;" x="107.836522" xlink:href="#m1633ade63f" y="49.497178"/>
     <use style="fill:#ff0000;stroke:#ff0000;" x="288.555276" xlink:href="#m1633ade63f" y="71.055098"/>
     <use style="fill:#ff0000;stroke:#ff0000;" x="150.542605" xlink:href="#m1633ade63f" y="108.467106"/>
     <use style="fill:#ff0000;stroke:#ff0000;" x="187.792542" xlink:href="#m1633ade63f" y="85.878059"/>
     <use style="fill:#ff0000;stroke:#ff0000;" x="217.753144" xlink:href="#m1633ade63f" y="25.310996"/>
     <use style="fill:#ff0000;stroke:#ff0000;" x="274.614949" xlink:href="#m1633ade63f" y="118.66721"/>
     <use style="fill:#ff0000;stroke:#ff0000;" x="303.987938" xlink:href="#m1633ade63f" y="102.598"/>
    </g>
   </g>
   <g id="patch_3">
    <path d="M 44.845313 228.14 
L 44.845313 10.7 
" style="fill:none;stroke:#000000;stroke-linecap:square;stroke-linejoin:miter;stroke-width:0.8;"/>
   </g>
   <g id="patch_4">
    <path d="M 379.645313 228.14 
L 379.645313 10.7 
" style="fill:none;stroke:#000000;stroke-linecap:square;stroke-linejoin:miter;stroke-width:0.8;"/>
   </g>
   <g id="patch_5">
    <path d="M 44.845312 228.14 
L 379.645313 228.14 
" style="fill:none;stroke:#000000;stroke-linecap:square;stroke-linejoin:miter;stroke-width:0.8;"/>
   </g>
   <g id="patch_6">
    <path d="M 44.845312 10.7 
L 379.645313 10.7 
" style="fill:none;stroke:#000000;stroke-linecap:square;stroke-linejoin:miter;stroke-width:0.8;"/>
   </g>
   <g id="text_16">
    <g clip-path="url(#p5e902563a0)">
     <!-- 18 -->
     <defs>
      <path d="M 31.78125 34.625 
Q 24.75 34.625 20.71875 30.859375 
Q 16.703125 27.09375 16.703125 20.515625 
Q 16.703125 13.921875 20.71875 10.15625 
Q 24.75 6.390625 31.78125 6.390625 
Q 38.8125 6.390625 42.859375 10.171875 
Q 46.921875 13.96875 46.921875 20.515625 
Q 46.921875 27.09375 42.890625 30.859375 
Q 38.875 34.625 31.78125 34.625 
z
M 21.921875 38.8125 
Q 15.578125 40.375 12.03125 44.71875 
Q 8.5 49.078125 8.5 55.328125 
Q 8.5 64.0625 14.71875 69.140625 
Q 20.953125 74.21875 31.78125 74.21875 
Q 42.671875 74.21875 48.875 69.140625 
Q 55.078125 64.0625 55.078125 55.328125 
Q 55.078125 49.078125 51.53125 44.71875 
Q 48 40.375 41.703125 38.8125 
Q 48.828125 37.15625 52.796875 32.3125 
Q 56.78125 27.484375 56.78125 20.515625 
Q 56.78125 9.90625 50.3125 4.234375 
Q 43.84375 -1.421875 31.78125 -1.421875 
Q 19.734375 -1.421875 13.25 4.234375 
Q 6.78125 9.90625 6.78125 20.515625 
Q 6.78125 27.484375 10.78125 32.3125 
Q 14.796875 37.15625 21.921875 38.8125 
z
M 18.3125 54.390625 
Q 18.3125 48.734375 21.84375 45.5625 
Q 25.390625 42.390625 31.78125 42.390625 
Q 38.140625 42.390625 41.71875 45.5625 
Q 45.3125 48.734375 45.3125 54.390625 
Q 45.3125 60.0625 41.71875 63.234375 
Q 38.140625 66.40625 31.78125 66.40625 
Q 25.390625 66.40625 21.84375 63.234375 
Q 18.3125 60.0625 18.3125 54.390625 
z
" id="DejaVuSans-38"/>
     </defs>
     <g style="fill:#ffffff;" transform="translate(186.866801 175.707573)scale(0.12 -0.12)">
      <use xlink:href="#DejaVuSans-31"/>
      <use x="63.623047" xlink:href="#DejaVuSans-38"/>
     </g>
    </g>
   </g>
   <g id="text_17">
    <g clip-path="url(#p5e902563a0)">
     <!-- 0 -->
     <g style="fill:#ffffff;" transform="translate(60.355016 216.840254)scale(0.12 -0.12)">
      <use xlink:href="#DejaVuSans-30"/>
     </g>
    </g>
   </g>
   <g id="text_18">
    <g clip-path="url(#p5e902563a0)">
     <!-- 17 -->
     <g style="fill:#ffffff;" transform="translate(246.750259 89.822492)scale(0.12 -0.12)">
      <use xlink:href="#DejaVuSans-31"/>
      <use x="63.623047" xlink:href="#DejaVuSans-37"/>
     </g>
    </g>
   </g>
   <g id="text_19">
    <g clip-path="url(#p5e902563a0)">
     <!-- 2 -->
     <g style="fill:#ffffff;" transform="translate(91.147172 123.660464)scale(0.12 -0.12)">
      <use xlink:href="#DejaVuSans-32"/>
     </g>
    </g>
   </g>
   <g id="text_20">
    <g clip-path="url(#p5e902563a0)">
     <!-- 1 -->
     <g style="fill:#ffffff;" transform="translate(273.722991 149.247839)scale(0.12 -0.12)">
      <use xlink:href="#DejaVuSans-31"/>
     </g>
    </g>
   </g>
   <g id="text_21">
    <g clip-path="url(#p5e902563a0)">
     <!-- 3 -->
     <defs>
      <path d="M 40.578125 39.3125 
Q 47.65625 37.796875 51.625 33 
Q 55.609375 28.21875 55.609375 21.1875 
Q 55.609375 10.40625 48.1875 4.484375 
Q 40.765625 -1.421875 27.09375 -1.421875 
Q 22.515625 -1.421875 17.65625 -0.515625 
Q 12.796875 0.390625 7.625 2.203125 
L 7.625 11.71875 
Q 11.71875 9.328125 16.59375 8.109375 
Q 21.484375 6.890625 26.8125 6.890625 
Q 36.078125 6.890625 40.9375 10.546875 
Q 45.796875 14.203125 45.796875 21.1875 
Q 45.796875 27.640625 41.28125 31.265625 
Q 36.765625 34.90625 28.71875 34.90625 
L 20.21875 34.90625 
L 20.21875 43.015625 
L 29.109375 43.015625 
Q 36.375 43.015625 40.234375 45.921875 
Q 44.09375 48.828125 44.09375 54.296875 
Q 44.09375 59.90625 40.109375 62.90625 
Q 36.140625 65.921875 28.71875 65.921875 
Q 24.65625 65.921875 20.015625 65.03125 
Q 15.375 64.15625 9.8125 62.3125 
L 9.8125 71.09375 
Q 15.4375 72.65625 20.34375 73.4375 
Q 25.25 74.21875 29.59375 74.21875 
Q 40.828125 74.21875 47.359375 69.109375 
Q 53.90625 64.015625 53.90625 55.328125 
Q 53.90625 49.265625 50.4375 45.09375 
Q 46.96875 40.921875 40.578125 39.3125 
z
" id="DejaVuSans-33"/>
     </defs>
     <g style="fill:#ffffff;" transform="translate(214.804895 161.420004)scale(0.12 -0.12)">
      <use xlink:href="#DejaVuSans-33"/>
     </g>
    </g>
   </g>
   <g id="text_22">
    <g clip-path="url(#p5e902563a0)">
     <!-- 6 -->
     <defs>
      <path d="M 33.015625 40.375 
Q 26.375 40.375 22.484375 35.828125 
Q 18.609375 31.296875 18.609375 23.390625 
Q 18.609375 15.53125 22.484375 10.953125 
Q 26.375 6.390625 33.015625 6.390625 
Q 39.65625 6.390625 43.53125 10.953125 
Q 47.40625 15.53125 47.40625 23.390625 
Q 47.40625 31.296875 43.53125 35.828125 
Q 39.65625 40.375 33.015625 40.375 
z
M 52.59375 71.296875 
L 52.59375 62.3125 
Q 48.875 64.0625 45.09375 64.984375 
Q 41.3125 65.921875 37.59375 65.921875 
Q 27.828125 65.921875 22.671875 59.328125 
Q 17.53125 52.734375 16.796875 39.40625 
Q 19.671875 43.65625 24.015625 45.921875 
Q 28.375 48.1875 33.59375 48.1875 
Q 44.578125 48.1875 50.953125 41.515625 
Q 57.328125 34.859375 57.328125 23.390625 
Q 57.328125 12.15625 50.6875 5.359375 
Q 44.046875 -1.421875 33.015625 -1.421875 
Q 20.359375 -1.421875 13.671875 8.265625 
Q 6.984375 17.96875 6.984375 36.375 
Q 6.984375 53.65625 15.1875 63.9375 
Q 23.390625 74.21875 37.203125 74.21875 
Q 40.921875 74.21875 44.703125 73.484375 
Q 48.484375 72.75 52.59375 71.296875 
z
" id="DejaVuSans-36"/>
     </defs>
     <g style="fill:#ffffff;" transform="translate(148.730769 197.185569)scale(0.12 -0.12)">
      <use xlink:href="#DejaVuSans-36"/>
     </g>
    </g>
   </g>
   <g id="text_23">
    <g clip-path="url(#p5e902563a0)">
     <!-- 12 -->
     <g style="fill:#ffffff;" transform="translate(352.683109 130.947765)scale(0.12 -0.12)">
      <use xlink:href="#DejaVuSans-31"/>
      <use x="63.623047" xlink:href="#DejaVuSans-32"/>
     </g>
    </g>
   </g>
   <g id="text_24">
    <g clip-path="url(#p5e902563a0)">
     <!-- 10 -->
     <g style="fill:#ffffff;" transform="translate(304.490578 173.413776)scale(0.12 -0.12)">
      <use xlink:href="#DejaVuSans-31"/>
      <use x="63.623047" xlink:href="#DejaVuSans-30"/>
     </g>
    </g>
   </g>
   <g id="text_25">
    <g clip-path="url(#p5e902563a0)">
     <!-- 8 -->
     <g style="fill:#ffffff;" transform="translate(270.797449 121.97846)scale(0.12 -0.12)">
      <use xlink:href="#DejaVuSans-38"/>
     </g>
    </g>
   </g>
   <g id="text_26">
    <g clip-path="url(#p5e902563a0)">
     <!-- 5 -->
     <g style="fill:#ffffff;" transform="translate(213.664055 122.358818)scale(0.12 -0.12)">
      <use xlink:href="#DejaVuSans-35"/>
     </g>
    </g>
   </g>
   <g id="text_27">
    <g clip-path="url(#p5e902563a0)">
     <!-- 16 -->
     <g style="fill:#ffffff;" transform="translate(116.823496 139.374898)scale(0.12 -0.12)">
      <use xlink:href="#DejaVuSans-31"/>
      <use x="63.623047" xlink:href="#DejaVuSans-36"/>
     </g>
    </g>
   </g>
   <g id="text_28">
    <g clip-path="url(#p5e902563a0)">
     <!-- 11 -->
     <g style="fill:#ffffff;" transform="translate(59.781515 82.396624)scale(0.12 -0.12)">
      <use xlink:href="#DejaVuSans-31"/>
      <use x="63.623047" xlink:href="#DejaVuSans-31"/>
     </g>
    </g>
   </g>
   <g id="text_29">
    <g clip-path="url(#p5e902563a0)">
     <!-- 15 -->
     <g style="fill:#ffffff;" transform="translate(280.920276 74.366348)scale(0.12 -0.12)">
      <use xlink:href="#DejaVuSans-31"/>
      <use x="63.623047" xlink:href="#DejaVuSans-35"/>
     </g>
    </g>
   </g>
   <g id="text_30">
    <g clip-path="url(#p5e902563a0)">
     <!-- 7 -->
     <g style="fill:#ffffff;" transform="translate(146.725105 111.778356)scale(0.12 -0.12)">
      <use xlink:href="#DejaVuSans-37"/>
     </g>
    </g>
   </g>
   <g id="text_31">
    <g clip-path="url(#p5e902563a0)">
     <!-- 4 -->
     <defs>
      <path d="M 37.796875 64.3125 
L 12.890625 25.390625 
L 37.796875 25.390625 
z
M 35.203125 72.90625 
L 47.609375 72.90625 
L 47.609375 25.390625 
L 58.015625 25.390625 
L 58.015625 17.1875 
L 47.609375 17.1875 
L 47.609375 0 
L 37.796875 0 
L 37.796875 17.1875 
L 4.890625 17.1875 
L 4.890625 26.703125 
z
" id="DejaVuSans-34"/>
     </defs>
     <g style="fill:#ffffff;" transform="translate(183.975042 89.189309)scale(0.12 -0.12)">
      <use xlink:href="#DejaVuSans-34"/>
     </g>
    </g>
   </g>
   <g id="text_32">
    <g clip-path="url(#p5e902563a0)">
     <!-- 9 -->
     <defs>
      <path d="M 10.984375 1.515625 
L 10.984375 10.5 
Q 14.703125 8.734375 18.5 7.8125 
Q 22.3125 6.890625 25.984375 6.890625 
Q 35.75 6.890625 40.890625 13.453125 
Q 46.046875 20.015625 46.78125 33.40625 
Q 43.953125 29.203125 39.59375 26.953125 
Q 35.25 24.703125 29.984375 24.703125 
Q 19.046875 24.703125 12.671875 31.3125 
Q 6.296875 37.9375 6.296875 49.421875 
Q 6.296875 60.640625 12.9375 67.421875 
Q 19.578125 74.21875 30.609375 74.21875 
Q 43.265625 74.21875 49.921875 64.515625 
Q 56.59375 54.828125 56.59375 36.375 
Q 56.59375 19.140625 48.40625 8.859375 
Q 40.234375 -1.421875 26.421875 -1.421875 
Q 22.703125 -1.421875 18.890625 -0.6875 
Q 15.09375 0.046875 10.984375 1.515625 
z
M 30.609375 32.421875 
Q 37.25 32.421875 41.125 36.953125 
Q 45.015625 41.5 45.015625 49.421875 
Q 45.015625 57.28125 41.125 61.84375 
Q 37.25 66.40625 30.609375 66.40625 
Q 23.96875 66.40625 20.09375 61.84375 
Q 16.21875 57.28125 16.21875 49.421875 
Q 16.21875 41.5 20.09375 36.953125 
Q 23.96875 32.421875 30.609375 32.421875 
z
" id="DejaVuSans-39"/>
     </defs>
     <g style="fill:#ffffff;" transform="translate(213.935644 28.622246)scale(0.12 -0.12)">
      <use xlink:href="#DejaVuSans-39"/>
     </g>
    </g>
   </g>
   <g id="text_33">
    <g clip-path="url(#p5e902563a0)">
     <!-- 13 -->
     <g style="fill:#ffffff;" transform="translate(100.201522 52.808428)scale(0.12 -0.12)">
      <use xlink:href="#DejaVuSans-31"/>
      <use x="63.623047" xlink:href="#DejaVuSans-33"/>
     </g>
    </g>
   </g>
   <g id="text_34">
    <g clip-path="url(#p5e902563a0)">
     <!-- 19 -->
     <g style="fill:#ffffff;" transform="translate(152.064589 64.88436)scale(0.12 -0.12)">
      <use xlink:href="#DejaVuSans-31"/>
      <use x="63.623047" xlink:href="#DejaVuSans-39"/>
     </g>
    </g>
   </g>
   <g id="text_35">
    <g clip-path="url(#p5e902563a0)">
     <!-- 14 -->
     <g style="fill:#ffffff;" transform="translate(296.352938 105.90925)scale(0.12 -0.12)">
      <use xlink:href="#DejaVuSans-31"/>
      <use x="63.623047" xlink:href="#DejaVuSans-34"/>
     </g>
    </g>
   </g>
  </g>
 </g>
 <defs>
  <clipPath id="p5e902563a0">
   <rect height="217.44" width="334.8" x="44.845313" y="10.7"/>
  </clipPath>
 </defs>
</svg>
