<?xml version="1.0" encoding="utf-8" standalone="no"?>
<!DOCTYPE svg PUBLIC "-//W3C//DTD SVG 1.1//EN"
  "http://www.w3.org/Graphics/SVG/1.1/DTD/svg11.dtd">
<svg xmlns:xlink="http://www.w3.org/1999/xlink" width="365.710534pt" height="307.999371pt" viewBox="0 0 365.710534 307.999371" xmlns="http://www.w3.org/2000/svg" version="1.1">
 <metadata>
  <rdf:RDF xmlns:dc="http://purl.org/dc/elements/1.1/" xmlns:cc="http://creativecommons.org/ns#" xmlns:rdf="http://www.w3.org/1999/02/22-rdf-syntax-ns#">
   <cc:Work>
    <dc:type rdf:resource="http://purl.org/dc/dcmitype/StillImage"/>
    <dc:date>2024-02-15T23:27:04.604831</dc:date>
    <dc:format>image/svg+xml</dc:format>
    <dc:creator>
     <cc:Agent>
      <dc:title>Matplotlib v3.8.0, https://matplotlib.org/</dc:title>
     </cc:Agent>
    </dc:creator>
   </cc:Work>
  </rdf:RDF>
 </metadata>
 <defs>
  <style type="text/css">*{stroke-linejoin: round; stroke-linecap: butt}</style>
 </defs>
 <g id="figure_1">
  <g id="patch_1">
   <path d="M 0 307.999371 
L 365.710534 307.999371 
L 365.710534 0 
L 0 0 
z
" style="fill: #ffffff"/>
  </g>
  <g id="axes_1">
   <g id="patch_2">
    <path d="M 233.428328 234.190102 
C 212.817101 233.709135 193.192236 225.174952 178.784981 210.427578 
C 164.377726 195.680205 156.303691 175.861588 156.303691 155.24475 
C 156.303691 134.627912 164.377726 114.809295 178.784981 100.061922 
C 193.192236 85.314548 212.817101 76.780365 233.428328 76.299398 
C 225.663007 68.52985 216.793648 61.948377 207.107142 56.767866 
C 197.420635 51.587355 187.022561 47.864271 176.249256 45.719041 
C 165.475952 43.573812 154.444842 43.02982 143.512742 44.10466 
C 132.580641 45.179501 121.866706 47.861459 111.717491 52.063784 
C 101.568276 56.266109 92.094403 61.942996 83.602318 68.910821 
C 75.110232 75.878646 67.692493 84.061461 61.589037 93.194583 
C 55.485581 102.327705 50.762933 112.311588 47.573853 122.823289 
C 44.384773 133.334991 42.76402 144.259938 42.76402 155.24475 
C 42.76402 166.229562 44.384773 177.154509 47.573853 187.666211 
C 50.762933 198.177912 55.485581 208.161795 61.589037 217.294917 
C 67.692493 226.428039 75.110232 234.610854 83.602318 241.578679 
C 92.094403 248.546504 101.568276 254.223391 111.717491 258.425716 
C 121.866706 262.628041 132.580641 265.309999 143.512742 266.38484 
C 154.444842 267.45968 165.475952 266.915688 176.249256 264.770459 
C 187.022561 262.625229 197.420635 258.902145 207.107142 253.721634 
C 216.793648 248.541123 225.663007 241.95965 233.428328 234.190102 
" clip-path="url(#pccb1ae54bd)" style="fill: #ff0000; opacity: 0.4"/>
   </g>
   <g id="patch_3">
    <path d="M 233.428328 76.299398 
C 254.350477 97.232937 266.11598 125.648308 266.11598 155.24475 
C 266.11598 184.841192 254.350477 213.256563 233.428328 234.190102 
C 243.950319 234.435634 254.415994 232.57512 264.208677 228.718188 
C 274.00136 224.861256 282.924857 219.085178 290.453362 211.730303 
C 297.981867 204.375428 303.964548 195.589109 308.048882 185.889069 
C 312.133217 176.189028 314.237377 165.769605 314.237377 155.24475 
C 314.237377 144.719895 312.133217 134.300472 308.048882 124.600431 
C 303.964548 114.900391 297.981867 106.114072 290.453362 98.759197 
C 282.924857 91.404322 274.00136 85.628244 264.208677 81.771312 
C 254.415994 77.91438 243.950319 76.053866 233.428328 76.299398 
" clip-path="url(#pccb1ae54bd)" style="fill: #008000; opacity: 0.4"/>
   </g>
   <g id="patch_4">
    <path d="M 233.428328 234.190102 
C 254.350477 213.256563 266.11598 184.841192 266.11598 155.24475 
C 266.11598 125.648308 254.350477 97.232937 233.428328 76.299398 
C 212.817101 76.780365 193.192236 85.314548 178.784981 100.061922 
C 164.377726 114.809295 156.303691 134.627912 156.303691 155.24475 
C 156.303691 175.861588 164.377726 195.680205 178.784981 210.427578 
C 193.192236 225.174952 212.817101 233.709135 233.428328 234.190102 
" clip-path="url(#pccb1ae54bd)" style="fill: #b25900; opacity: 0.4"/>
   </g>
   <g id="text_1">
    <!-- 200 -->
    <g transform="translate(90.086199 158.040062) scale(0.1 -0.1)">
     <defs>
      <path id="IPAexGothic-32" d="M 3659 63 
L 447 63 
L 447 594 
Q 825 1475 1894 2203 
L 2072 2322 
Q 2619 2697 2791 2906 
Q 2988 3153 2988 3444 
Q 2988 3772 2756 4003 
Q 2500 4259 2084 4259 
Q 1250 4259 991 3328 
L 497 3506 
Q 853 4725 2116 4725 
Q 2806 4725 3216 4316 
Q 3575 3947 3575 3425 
Q 3575 3038 3344 2722 
Q 3131 2416 2366 1938 
L 2231 1856 
Q 1256 1253 978 569 
L 3659 569 
L 3659 63 
z
" transform="scale(0.015625)"/>
      <path id="IPAexGothic-30" d="M 2038 4725 
Q 2881 4725 3334 3944 
Q 3694 3325 3694 2344 
Q 3694 1372 3334 741 
Q 2888 -31 2016 -31 
Q 1147 -31 700 741 
Q 341 1372 341 2350 
Q 341 3713 1000 4334 
Q 1419 4725 2038 4725 
z
M 2016 4266 
Q 1516 4266 1228 3759 
Q 934 3247 934 2344 
Q 934 1456 1222 947 
Q 1513 447 2016 447 
Q 2619 447 2909 1153 
Q 3100 1622 3100 2375 
Q 3100 3256 2806 3759 
Q 2509 4266 2016 4266 
z
" transform="scale(0.015625)"/>
     </defs>
     <use xlink:href="#IPAexGothic-32"/>
     <use xlink:href="#IPAexGothic-30" x="62.988281"/>
     <use xlink:href="#IPAexGothic-30" x="125.976562"/>
    </g>
   </g>
   <g id="text_2">
    <!-- 50 -->
    <g transform="translate(283.878241 158.040062) scale(0.1 -0.1)">
     <defs>
      <path id="IPAexGothic-35" d="M 1178 2603 
Q 1634 2963 2172 2963 
Q 2816 2963 3241 2528 
Q 3638 2113 3638 1497 
Q 3638 938 3297 513 
Q 2869 -31 2031 -31 
Q 959 -31 469 784 
L 938 1028 
Q 1309 434 2013 434 
Q 2466 434 2769 716 
Q 3081 1013 3081 1503 
Q 3081 1966 2806 2241 
Q 2519 2528 2056 2528 
Q 1406 2528 1072 2028 
L 591 2091 
L 884 4634 
L 3406 4634 
L 3406 4153 
L 1341 4153 
L 1134 2603 
L 1178 2603 
z
" transform="scale(0.015625)"/>
     </defs>
     <use xlink:href="#IPAexGothic-35"/>
     <use xlink:href="#IPAexGothic-30" x="62.988281"/>
    </g>
   </g>
   <g id="text_3">
    <!-- 100 -->
    <g transform="translate(201.762179 158.040062) scale(0.1 -0.1)">
     <defs>
      <path id="IPAexGothic-31" d="M 2463 63 
L 1900 63 
L 1900 4103 
Q 1372 3922 788 3797 
L 684 4231 
Q 1519 4441 2106 4731 
L 2463 4731 
L 2463 63 
z
" transform="scale(0.015625)"/>
     </defs>
     <use xlink:href="#IPAexGothic-31"/>
     <use xlink:href="#IPAexGothic-30" x="62.988281"/>
     <use xlink:href="#IPAexGothic-30" x="125.976562"/>
    </g>
   </g>
   <g id="text_4">
    <!-- 推薦システムがユーザーに  -->
    <g transform="translate(7.2 285.452871) scale(0.12 -0.12)">
     <defs>
      <path id="IPAexGothic-63a8" d="M 3244 4063 
L 4244 4063 
Q 4481 4578 4653 5228 
L 5125 5100 
Q 4913 4484 4691 4063 
L 5906 4063 
L 5906 3666 
L 4647 3666 
L 4647 2822 
L 5747 2822 
L 5747 2438 
L 4647 2438 
L 4647 1594 
L 5747 1594 
L 5747 1216 
L 4647 1216 
L 4647 319 
L 6047 319 
L 6047 -91 
L 3244 -91 
L 3244 -481 
L 2816 -481 
L 2816 3188 
L 2791 3128 
Q 2581 2744 2366 2463 
L 2084 2797 
Q 2813 3728 3166 5284 
L 3616 5144 
Q 3431 4500 3244 4063 
z
M 3244 319 
L 4231 319 
L 4231 1216 
L 3244 1216 
L 3244 319 
z
M 3244 1594 
L 4231 1594 
L 4231 2438 
L 3244 2438 
L 3244 1594 
z
M 3244 2822 
L 4231 2822 
L 4231 3666 
L 3244 3666 
L 3244 2822 
z
M 1184 4084 
L 1184 5313 
L 1613 5313 
L 1613 4084 
L 2328 4084 
L 2328 3669 
L 1613 3669 
L 1613 2241 
Q 1997 2341 2334 2453 
L 2359 2069 
Q 1809 1884 1631 1831 
L 1613 1825 
L 1613 44 
Q 1613 -197 1522 -294 
Q 1413 -403 1081 -403 
Q 738 -403 519 -366 
L 441 97 
Q 741 38 978 38 
Q 1184 38 1184 219 
L 1184 1703 
L 1147 1697 
Q 734 1581 409 1509 
L 275 1941 
Q 722 2022 1138 2119 
Q 1147 2122 1166 2125 
Q 1178 2128 1184 2131 
L 1184 3669 
L 372 3669 
L 372 4084 
L 1184 4084 
z
" transform="scale(0.015625)"/>
      <path id="IPAexGothic-85a6" d="M 1894 4769 
L 1894 5313 
L 2347 5313 
L 2347 4769 
L 4006 4769 
L 4006 5313 
L 4453 5313 
L 4453 4769 
L 6078 4769 
L 6078 4397 
L 4453 4397 
L 4453 4078 
L 4006 4078 
L 4006 4397 
L 2347 4397 
L 2347 4078 
L 1894 4078 
L 1894 4397 
L 313 4397 
L 313 4769 
L 1894 4769 
z
M 3403 3866 
L 5931 3866 
L 5931 3513 
L 4025 3513 
L 4025 3175 
L 5491 3175 
L 5491 2172 
L 2450 2172 
L 2431 2075 
L 2413 1984 
L 2400 1900 
L 6072 1900 
L 6072 1569 
L 2322 1569 
Q 2316 1522 2272 1344 
L 2253 1272 
L 5828 1272 
Q 5744 338 5625 -31 
Q 5481 -453 4984 -453 
Q 4613 -453 4256 -409 
L 4166 13 
Q 4675 -69 4909 -69 
Q 5144 -69 5209 128 
Q 5294 375 5363 947 
L 1722 947 
Q 1881 1450 2034 2172 
L 1222 2172 
L 1222 1809 
Q 1222 1088 1131 622 
Q 1009 13 619 -513 
L 288 -213 
Q 650 297 747 850 
Q 806 1206 806 1838 
L 806 3866 
L 2963 3866 
L 2963 4225 
L 3403 4225 
L 3403 3866 
z
M 1222 3513 
L 1222 3175 
L 2228 3175 
L 2228 3513 
L 1222 3513 
z
M 1222 2850 
L 1222 2497 
L 2228 2497 
L 2228 2850 
L 1222 2850 
z
M 5063 2497 
L 5063 2850 
L 4025 2850 
L 4025 2497 
L 5063 2497 
z
M 2625 3513 
L 2625 3175 
L 3628 3175 
L 3628 3513 
L 2625 3513 
z
M 2625 2850 
L 2625 2497 
L 3628 2497 
L 3628 2850 
L 2625 2850 
z
M 2578 -359 
Q 2519 244 2438 569 
L 2828 641 
Q 2978 181 3031 -269 
L 2578 -359 
z
M 3578 -141 
Q 3444 313 3256 641 
L 3616 775 
Q 3838 466 4000 0 
L 3578 -141 
z
M 1216 -213 
Q 1553 250 1675 716 
L 2078 594 
Q 1916 13 1606 -453 
L 1216 -213 
z
M 4503 134 
Q 4316 484 4050 750 
L 4384 928 
Q 4675 675 4888 353 
L 4503 134 
z
" transform="scale(0.015625)"/>
      <path id="IPAexGothic-30b7" d="M 2828 3531 
Q 2219 4056 1613 4359 
L 1913 4781 
Q 2503 4491 3169 3981 
L 2828 3531 
z
M 1163 500 
Q 3944 1094 5338 3525 
L 5688 3128 
Q 4297 700 1484 0 
L 1163 500 
z
M 2072 2278 
Q 1466 2800 831 3109 
L 1131 3541 
Q 1806 3213 2406 2725 
L 2072 2278 
z
" transform="scale(0.015625)"/>
      <path id="IPAexGothic-30b9" d="M 4359 4481 
L 4716 4147 
Q 4328 3072 3647 2150 
Q 4659 1434 5659 453 
L 5234 19 
Q 4256 1088 3353 1778 
Q 2372 597 1044 -31 
L 653 403 
Q 3128 1453 4097 4000 
L 1241 3963 
L 1228 4453 
L 4359 4481 
z
" transform="scale(0.015625)"/>
      <path id="IPAexGothic-30c6" d="M 563 3072 
L 5741 3072 
L 5741 2613 
L 3578 2613 
Q 3538 1516 3134 872 
Q 2688 156 1663 -256 
L 1313 156 
Q 2338 538 2713 1166 
Q 3003 1644 3034 2613 
L 563 2613 
L 563 3072 
z
M 1406 4588 
L 4941 4588 
L 4941 4128 
L 1406 4128 
L 1406 4588 
z
" transform="scale(0.015625)"/>
      <path id="IPAexGothic-30e0" d="M 609 891 
L 719 897 
L 884 903 
Q 1053 916 1263 925 
Q 1413 931 1447 934 
Q 2291 2888 2856 4706 
L 3394 4525 
Q 2841 2859 2019 981 
Q 3553 1109 4659 1275 
Q 4200 1950 3669 2588 
L 4122 2838 
Q 5075 1700 5788 513 
L 5319 194 
Q 5038 691 4922 866 
Q 2919 509 822 328 
L 609 891 
z
" transform="scale(0.015625)"/>
      <path id="IPAexGothic-304c" d="M 659 3384 
Q 1434 3503 2113 3581 
Q 2313 4341 2394 4972 
L 2900 4875 
Q 2759 4147 2619 3628 
L 2719 3634 
Q 2894 3641 3041 3641 
Q 4072 3641 4072 2369 
Q 4072 1128 3700 384 
Q 3478 -56 3003 -56 
Q 2591 -56 2113 231 
L 2138 775 
Q 2631 444 2925 444 
Q 3169 444 3297 706 
Q 3566 1294 3566 2388 
Q 3566 3219 3016 3219 
Q 2825 3219 2497 3194 
Q 2388 2763 2113 2047 
Q 1634 797 1119 -38 
L 678 244 
Q 1356 1238 1863 2750 
Q 1888 2819 1991 3128 
Q 1594 3081 769 2916 
L 659 3384 
z
M 5441 1838 
Q 4913 3038 4091 3916 
L 4475 4184 
Q 5350 3269 5888 2156 
L 5441 1838 
z
M 5913 4275 
Q 5553 4819 5159 5147 
L 5459 5375 
Q 5844 5066 6234 4550 
L 5913 4275 
z
M 5344 3788 
Q 5053 4278 4609 4678 
L 4922 4922 
Q 5294 4613 5678 4063 
L 5344 3788 
z
" transform="scale(0.015625)"/>
      <path id="IPAexGothic-30e6" d="M 1313 4006 
L 4584 4006 
Q 4488 2603 4275 1050 
L 5759 1050 
L 5759 563 
L 641 563 
L 641 1050 
L 3744 1050 
Q 3928 2344 4013 3525 
L 1313 3525 
L 1313 4006 
z
" transform="scale(0.015625)"/>
      <path id="IPAexGothic-30fc" d="M 588 2688 
L 5809 2688 
L 5809 2175 
L 588 2175 
L 588 2688 
z
" transform="scale(0.015625)"/>
      <path id="IPAexGothic-30b6" d="M 3963 4919 
L 4475 4919 
L 4475 3531 
L 5856 3531 
L 5856 3072 
L 4475 3072 
Q 4456 1719 4122 1063 
Q 3697 222 2613 -325 
L 2234 38 
Q 3294 525 3681 1319 
Q 3944 1853 3963 3072 
L 2300 3072 
L 2300 1575 
L 1788 1575 
L 1788 3072 
L 481 3072 
L 481 3531 
L 1788 3531 
L 1788 4797 
L 2300 4797 
L 2300 3531 
L 3963 3531 
L 3963 4919 
z
M 5313 4044 
Q 5084 4559 4725 4984 
L 5081 5166 
Q 5400 4806 5691 4256 
L 5313 4044 
z
M 5941 4409 
Q 5681 4913 5331 5306 
L 5684 5503 
Q 6034 5113 6303 4628 
L 5941 4409 
z
" transform="scale(0.015625)"/>
      <path id="IPAexGothic-306b" d="M 1088 -38 
Q 922 1003 922 2081 
Q 922 3222 1331 4794 
L 1813 4684 
Q 1391 3113 1391 2003 
Q 1391 1441 1422 1147 
Q 1434 1181 1813 2016 
L 2125 1797 
Q 1800 1081 1691 763 
Q 1581 453 1581 269 
Q 1581 78 1588 6 
L 1088 -38 
z
M 2834 4038 
Q 3969 4213 5313 4172 
L 5338 3681 
Q 3959 3728 2869 3547 
L 2834 4038 
z
M 5650 256 
Q 5044 172 4372 172 
Q 3463 172 3047 434 
Q 2784 594 2675 841 
Q 2572 1075 2572 1447 
Q 2572 1563 2578 1656 
L 3053 1684 
Q 3050 1613 3044 1528 
Q 3041 1481 3041 1466 
Q 3041 1200 3119 1053 
Q 3178 944 3309 850 
Q 3569 678 4275 678 
Q 4891 678 5588 763 
L 5650 256 
z
" transform="scale(0.015625)"/>
      <path id="IPAexGothic-20" transform="scale(0.015625)"/>
     </defs>
     <use xlink:href="#IPAexGothic-63a8"/>
     <use xlink:href="#IPAexGothic-85a6" x="100"/>
     <use xlink:href="#IPAexGothic-30b7" x="200"/>
     <use xlink:href="#IPAexGothic-30b9" x="300"/>
     <use xlink:href="#IPAexGothic-30c6" x="400"/>
     <use xlink:href="#IPAexGothic-30e0" x="500"/>
     <use xlink:href="#IPAexGothic-304c" x="600"/>
     <use xlink:href="#IPAexGothic-30e6" x="700"/>
     <use xlink:href="#IPAexGothic-30fc" x="800"/>
     <use xlink:href="#IPAexGothic-30b6" x="900"/>
     <use xlink:href="#IPAexGothic-30fc" x="1000"/>
     <use xlink:href="#IPAexGothic-306b" x="1100"/>
     <use xlink:href="#IPAexGothic-20" x="1200"/>
    </g>
    <!--  推薦したアイテムの集合 -->
    <g transform="translate(19.2 298.519371) scale(0.12 -0.12)">
     <defs>
      <path id="IPAexGothic-3057" d="M 1750 4884 
L 2281 4884 
L 2238 1319 
Q 2228 809 2391 569 
Q 2594 281 3128 281 
Q 3772 281 4344 744 
Q 4822 1131 5156 1759 
L 5534 1369 
Q 5094 653 4534 263 
Q 3878 -206 3134 -206 
Q 2341 -206 1994 213 
Q 1697 575 1706 1269 
L 1750 4884 
z
" transform="scale(0.015625)"/>
      <path id="IPAexGothic-305f" d="M 684 3994 
Q 1138 3953 1556 3953 
Q 1797 3953 2106 3975 
Q 2266 4594 2369 5113 
L 2875 5025 
Q 2806 4731 2619 4013 
Q 3209 4084 3656 4191 
L 3688 3719 
Q 3109 3613 2497 3566 
Q 1822 1294 1153 -44 
L 653 172 
Q 1406 1500 1991 3531 
Q 1634 3513 1256 3513 
Q 1106 3513 697 3525 
L 684 3994 
z
M 5753 78 
Q 5059 -13 4597 -13 
Q 3619 -13 3206 334 
Q 2866 625 2766 1222 
L 3213 1388 
Q 3247 1069 3347 903 
Q 3425 775 3578 672 
Q 3866 481 4556 481 
Q 5009 481 5728 575 
L 5753 78 
z
M 3144 2859 
Q 4216 3147 5409 3072 
L 5381 2597 
L 5356 2597 
Q 4263 2663 3194 2419 
L 3144 2859 
z
" transform="scale(0.015625)"/>
      <path id="IPAexGothic-30a2" d="M 5388 4556 
L 5747 4200 
Q 5081 3022 4019 2191 
L 3647 2547 
Q 4519 3178 5081 4091 
L 850 4013 
L 850 4500 
L 5388 4556 
z
M 1216 256 
Q 2319 813 2616 1691 
Q 2797 2200 2797 3628 
L 3313 3628 
Q 3303 1981 3059 1356 
Q 2697 431 1594 -153 
L 1216 256 
z
" transform="scale(0.015625)"/>
      <path id="IPAexGothic-30a4" d="M 3131 -231 
L 3131 2875 
Q 2091 2088 1106 1656 
L 781 2059 
Q 3016 3000 4469 4916 
L 4916 4641 
Q 4384 3938 3675 3316 
L 3675 -231 
L 3131 -231 
z
" transform="scale(0.015625)"/>
      <path id="IPAexGothic-306e" d="M 3119 469 
Q 5275 766 5275 2425 
Q 5275 3453 4413 3925 
Q 4041 4116 3547 4159 
Q 3394 2525 2850 1400 
Q 2322 306 1722 306 
Q 1384 306 1084 666 
Q 609 1244 609 2003 
Q 609 3025 1397 3794 
Q 2184 4563 3431 4563 
Q 4306 4563 4928 4122 
Q 5813 3506 5813 2425 
Q 5813 438 3431 6 
L 3119 469 
z
M 3053 4147 
Q 2378 4044 1891 3641 
Q 1097 2981 1097 1991 
Q 1097 1366 1434 978 
Q 1581 813 1719 813 
Q 2022 813 2416 1625 
Q 2909 2638 3053 4147 
z
" transform="scale(0.015625)"/>
      <path id="IPAexGothic-96c6" d="M 3000 4634 
Q 3197 5047 3275 5338 
L 3775 5216 
Q 3634 4922 3447 4634 
L 5625 4634 
L 5625 4269 
L 3416 4269 
L 3416 3884 
L 5291 3884 
L 5291 3553 
L 3416 3553 
L 3416 3175 
L 5291 3175 
L 5291 2844 
L 3416 2844 
L 3416 2431 
L 5759 2431 
L 5759 2066 
L 3403 2066 
L 3403 1659 
L 5981 1659 
L 5981 1281 
L 3741 1281 
Q 4628 538 6078 141 
L 5759 -275 
Q 4266 222 3403 1122 
L 3403 -447 
L 2950 -447 
L 2950 1091 
Q 2094 69 600 -409 
L 294 -25 
Q 1778 388 2644 1281 
L 416 1281 
L 416 1659 
L 2950 1659 
L 2950 2066 
L 1222 2066 
L 1222 3744 
Q 894 3322 600 3066 
L 306 3375 
Q 1209 4163 1625 5338 
L 2091 5244 
Q 1950 4909 1797 4634 
L 3000 4634 
z
M 1663 4269 
L 1663 3884 
L 3000 3884 
L 3000 4269 
L 1663 4269 
z
M 1663 3553 
L 1663 3175 
L 3000 3175 
L 3000 3553 
L 1663 3553 
z
M 1663 2844 
L 1663 2431 
L 3000 2431 
L 3000 2844 
L 1663 2844 
z
" transform="scale(0.015625)"/>
      <path id="IPAexGothic-5408" d="M 1831 3188 
L 4653 3188 
L 4653 2778 
L 1747 2778 
L 1747 3125 
Q 1275 2778 594 2453 
L 294 2828 
Q 2006 3509 2891 5147 
L 3431 5147 
Q 4331 3806 6125 3003 
L 5831 2588 
Q 4119 3416 3175 4731 
Q 2650 3806 1831 3188 
z
M 5113 2088 
L 5113 -450 
L 4638 -450 
L 4638 -97 
L 1766 -97 
L 1766 -450 
L 1284 -450 
L 1284 2088 
L 5113 2088 
z
M 1766 1691 
L 1766 300 
L 4638 300 
L 4638 1691 
L 1766 1691 
z
" transform="scale(0.015625)"/>
     </defs>
     <use xlink:href="#IPAexGothic-20"/>
     <use xlink:href="#IPAexGothic-63a8" x="27.001953"/>
     <use xlink:href="#IPAexGothic-85a6" x="127.001953"/>
     <use xlink:href="#IPAexGothic-3057" x="227.001953"/>
     <use xlink:href="#IPAexGothic-305f" x="327.001953"/>
     <use xlink:href="#IPAexGothic-30a2" x="427.001953"/>
     <use xlink:href="#IPAexGothic-30a4" x="527.001953"/>
     <use xlink:href="#IPAexGothic-30c6" x="627.001953"/>
     <use xlink:href="#IPAexGothic-30e0" x="727.001953"/>
     <use xlink:href="#IPAexGothic-306e" x="827.001953"/>
     <use xlink:href="#IPAexGothic-96c6" x="927.001953"/>
     <use xlink:href="#IPAexGothic-5408" x="1027.001953"/>
    </g>
   </g>
   <g id="text_5">
    <!-- ユーザーが実際に  -->
    <g transform="translate(235.270534 252.732484) scale(0.12 -0.12)">
     <defs>
      <path id="IPAexGothic-5b9f" d="M 3525 1275 
Q 4288 350 6022 91 
L 5738 -375 
Q 3953 -41 3219 1050 
Q 2731 -144 728 -472 
L 466 -44 
Q 2422 150 2872 1275 
L 384 1275 
L 384 1659 
L 2950 1659 
L 2950 2144 
L 966 2144 
L 966 2509 
L 2950 2509 
L 2950 2969 
L 1266 2969 
L 1266 3341 
L 2950 3341 
L 2950 3988 
L 3403 3988 
L 3403 3341 
L 5125 3341 
L 5125 2969 
L 3403 2969 
L 3403 2509 
L 5444 2509 
L 5444 2144 
L 3403 2144 
L 3403 1659 
L 6016 1659 
L 6016 1275 
L 3525 1275 
z
M 3413 4544 
L 5778 4544 
L 5778 3269 
L 5309 3269 
L 5309 4147 
L 1084 4147 
L 1084 3269 
L 616 3269 
L 616 4544 
L 2938 4544 
L 2938 5313 
L 3413 5313 
L 3413 4544 
z
" transform="scale(0.015625)"/>
      <path id="IPAexGothic-969b" d="M 2797 3134 
Q 2584 3369 2363 3531 
Q 2247 3381 2063 3200 
L 1825 3481 
Q 2544 4209 2863 5278 
L 3241 5191 
Q 3172 4975 3125 4856 
L 3809 4856 
L 4006 4659 
Q 3728 3719 3163 2969 
L 4975 2969 
L 4975 2584 
L 3156 2584 
L 3156 2963 
Q 2766 2475 2294 2144 
L 2031 2456 
Q 2450 2725 2797 3134 
z
M 2997 3397 
Q 3100 3541 3200 3719 
Q 2906 3938 2722 4031 
Q 2628 3875 2534 3756 
Q 2794 3591 2997 3397 
z
M 2978 4509 
Q 2916 4375 2856 4275 
Q 3103 4169 3350 3994 
Q 3453 4203 3559 4509 
L 2978 4509 
z
M 1550 3128 
Q 2131 2347 2131 1534 
Q 2131 819 1544 819 
Q 1284 819 1134 863 
L 1069 1291 
Q 1272 1234 1466 1234 
Q 1647 1234 1678 1344 
Q 1703 1413 1703 1581 
Q 1703 2397 1134 3103 
Q 1497 3841 1666 4588 
L 903 4588 
L 903 -450 
L 481 -450 
L 481 4991 
L 1972 4991 
L 2191 4806 
Q 1872 3825 1569 3166 
L 1550 3128 
z
M 5097 3541 
Q 5506 3003 6119 2613 
L 5844 2272 
Q 4966 2931 4513 3713 
Q 4181 4291 3963 5134 
L 4328 5238 
Q 4516 4431 4878 3847 
Q 5256 4238 5441 4525 
L 4744 4525 
L 4744 4884 
L 5788 4884 
L 5997 4647 
Q 5588 4022 5097 3541 
z
M 4263 1619 
L 4263 50 
Q 4263 -409 3772 -409 
Q 3481 -409 3150 -372 
L 3034 91 
Q 3447 19 3669 19 
Q 3834 19 3834 178 
L 3834 1619 
L 2369 1619 
L 2369 2003 
L 5838 2003 
L 5838 1619 
L 4263 1619 
z
M 1997 97 
Q 2516 575 2831 1281 
L 3253 1125 
Q 2922 381 2363 -197 
L 1997 97 
z
M 5659 -56 
Q 5188 644 4672 1119 
L 5044 1331 
Q 5566 866 6038 244 
L 5659 -56 
z
" transform="scale(0.015625)"/>
     </defs>
     <use xlink:href="#IPAexGothic-30e6"/>
     <use xlink:href="#IPAexGothic-30fc" x="100"/>
     <use xlink:href="#IPAexGothic-30b6" x="200"/>
     <use xlink:href="#IPAexGothic-30fc" x="300"/>
     <use xlink:href="#IPAexGothic-304c" x="400"/>
     <use xlink:href="#IPAexGothic-5b9f" x="500"/>
     <use xlink:href="#IPAexGothic-969b" x="600"/>
     <use xlink:href="#IPAexGothic-306b" x="700"/>
     <use xlink:href="#IPAexGothic-20" x="800"/>
    </g>
    <!--  好んだアイテムの集合 -->
    <g transform="translate(235.270534 265.798984) scale(0.12 -0.12)">
     <defs>
      <path id="IPAexGothic-597d" d="M 2844 4025 
Q 2756 2238 2247 1172 
Q 2509 966 2991 544 
L 2716 141 
Q 2419 447 2044 775 
Q 1625 44 903 -488 
L 559 -122 
Q 1263 313 1709 1056 
Q 1363 1331 1056 1528 
Q 1000 1338 897 1031 
L 525 1266 
Q 909 2438 1128 3616 
L 481 3616 
L 481 4025 
L 1203 4025 
Q 1288 4516 1391 5253 
L 1825 5166 
L 1763 4756 
Q 1672 4191 1641 4025 
L 2844 4025 
z
M 2369 3616 
L 1563 3616 
Q 1450 2969 1172 1913 
Q 1528 1703 1903 1434 
Q 2266 2269 2369 3591 
L 2369 3616 
z
M 4706 3316 
L 4706 2553 
L 6119 2553 
L 6119 2131 
L 4744 2131 
L 4744 141 
Q 4744 -353 4181 -353 
Q 3788 -353 3416 -313 
L 3325 159 
Q 3756 100 4081 100 
Q 4291 100 4291 294 
L 4291 2131 
L 2838 2131 
L 2838 2553 
L 4253 2553 
L 4253 3456 
Q 4291 3494 4322 3513 
Q 4791 3894 5166 4366 
L 3050 4366 
L 3050 4781 
L 5653 4781 
L 5891 4525 
Q 5331 3844 4706 3316 
z
" transform="scale(0.015625)"/>
      <path id="IPAexGothic-3093" d="M 659 31 
Q 1684 2316 3066 4934 
L 3559 4703 
Q 2781 3375 2156 2100 
Q 2659 2572 3109 2572 
Q 3619 2572 3781 2059 
Q 3863 1803 3872 1147 
Q 3881 328 4313 328 
Q 4928 328 5466 1663 
L 5875 1288 
Q 5175 -178 4300 -178 
Q 3400 -178 3400 1069 
L 3400 1119 
Q 3400 2125 3003 2125 
Q 2153 2125 1128 -178 
L 659 31 
z
" transform="scale(0.015625)"/>
      <path id="IPAexGothic-3060" d="M 684 3963 
Q 1138 3922 1556 3922 
Q 1800 3922 2106 3944 
Q 2266 4563 2369 5081 
L 2875 4991 
Q 2806 4700 2619 3981 
Q 3209 4050 3656 4159 
L 3688 3688 
Q 3109 3581 2497 3531 
Q 1822 1263 1153 -78 
L 653 141 
Q 1406 1469 1991 3500 
Q 1641 3481 1256 3481 
Q 1109 3481 697 3494 
L 684 3963 
z
M 5753 44 
Q 5053 -44 4597 -44 
Q 3619 -44 3206 303 
Q 2866 594 2766 1191 
L 3213 1356 
Q 3247 1038 3347 869 
Q 3425 741 3578 641 
Q 3866 450 4556 450 
Q 5009 450 5728 544 
L 5753 44 
z
M 3144 2828 
Q 4216 3113 5409 3041 
L 5381 2566 
L 5356 2566 
Q 4263 2631 3194 2388 
L 3144 2828 
z
M 5569 4103 
Q 5206 4644 4813 4972 
L 5113 5203 
Q 5497 4894 5888 4378 
L 5569 4103 
z
M 4972 3634 
Q 4684 4125 4238 4525 
L 4550 4769 
Q 4922 4459 5306 3909 
L 4972 3634 
z
" transform="scale(0.015625)"/>
     </defs>
     <use xlink:href="#IPAexGothic-20"/>
     <use xlink:href="#IPAexGothic-597d" x="27.001953"/>
     <use xlink:href="#IPAexGothic-3093" x="127.001953"/>
     <use xlink:href="#IPAexGothic-3060" x="227.001953"/>
     <use xlink:href="#IPAexGothic-30a2" x="327.001953"/>
     <use xlink:href="#IPAexGothic-30a4" x="427.001953"/>
     <use xlink:href="#IPAexGothic-30c6" x="527.001953"/>
     <use xlink:href="#IPAexGothic-30e0" x="627.001953"/>
     <use xlink:href="#IPAexGothic-306e" x="727.001953"/>
     <use xlink:href="#IPAexGothic-96c6" x="827.001953"/>
     <use xlink:href="#IPAexGothic-5408" x="927.001953"/>
    </g>
   </g>
   <g id="text_6">
    <!-- Precision と Recall を可視化するベン図 -->
    <g transform="translate(70.652573 16.18875) scale(0.12 -0.12)">
     <defs>
      <path id="IPAexGothic-50" d="M 609 4634 
L 1941 4634 
Q 3688 4634 3688 3322 
Q 3688 1934 1906 1934 
L 1172 1934 
L 1172 63 
L 609 63 
L 609 4634 
z
M 1172 2381 
L 1800 2381 
Q 3100 2381 3100 3316 
Q 3100 4181 1894 4181 
L 1172 4181 
L 1172 2381 
z
" transform="scale(0.015625)"/>
      <path id="IPAexGothic-72" d="M 2309 3316 
L 2213 2769 
Q 2106 2791 2022 2791 
Q 1653 2791 1413 2444 
Q 1113 2006 1113 1675 
L 1113 63 
L 563 63 
L 563 3250 
L 1081 3250 
L 1056 2303 
L 1069 2303 
Q 1422 3341 2097 3341 
Q 2206 3341 2309 3316 
z
" transform="scale(0.015625)"/>
      <path id="IPAexGothic-65" d="M 863 1594 
Q 891 1041 1209 722 
Q 1534 397 1997 397 
Q 2606 397 2963 966 
L 3322 728 
Q 2869 -31 1931 -31 
Q 1222 -31 766 422 
Q 306 884 306 1641 
Q 306 2444 788 2925 
Q 1216 3353 1856 3353 
Q 2459 3353 2866 2956 
Q 3322 2494 3322 1722 
L 3322 1594 
L 863 1594 
z
M 2756 1997 
Q 2709 2431 2450 2681 
Q 2194 2938 1844 2938 
Q 1438 2938 1150 2591 
Q 953 2356 894 1997 
L 2756 1997 
z
" transform="scale(0.015625)"/>
      <path id="IPAexGothic-63" d="M 3269 784 
Q 2834 -31 1900 -31 
Q 1228 -31 788 409 
Q 313 891 313 1663 
Q 313 2428 788 2913 
Q 1222 3347 1881 3347 
Q 2813 3347 3206 2541 
L 2763 2309 
Q 2484 2900 1900 2900 
Q 1516 2900 1234 2619 
Q 881 2266 881 1650 
Q 881 1069 1222 728 
Q 1522 428 1956 428 
Q 2547 428 2847 1016 
L 3269 784 
z
" transform="scale(0.015625)"/>
      <path id="IPAexGothic-69" d="M 1178 3928 
L 550 3928 
L 550 4569 
L 1178 4569 
L 1178 3928 
z
M 1138 63 
L 588 63 
L 588 3250 
L 1138 3250 
L 1138 63 
z
" transform="scale(0.015625)"/>
      <path id="IPAexGothic-73" d="M 2234 2547 
Q 1938 2931 1484 2931 
Q 891 2931 891 2475 
Q 891 2153 1531 1944 
L 1741 1875 
Q 2650 1578 2650 894 
Q 2650 434 2272 172 
Q 1972 -31 1497 -31 
Q 766 -31 256 503 
L 603 819 
Q 997 397 1516 397 
Q 2131 397 2131 875 
Q 2131 1238 1453 1478 
L 1234 1553 
Q 378 1853 378 2431 
Q 378 2797 628 3047 
Q 928 3347 1453 3347 
Q 2156 3347 2606 2859 
L 2234 2547 
z
" transform="scale(0.015625)"/>
      <path id="IPAexGothic-6f" d="M 1919 3341 
Q 2594 3341 3056 2888 
Q 3531 2413 3531 1638 
Q 3531 888 3066 422 
Q 2609 -31 1919 -31 
Q 1228 -31 781 416 
Q 313 881 313 1656 
Q 313 2413 788 2888 
Q 1241 3341 1919 3341 
z
M 1919 2919 
Q 1519 2919 1241 2631 
Q 888 2278 888 1650 
Q 888 1031 1234 684 
Q 1516 403 1919 403 
Q 2331 403 2609 691 
Q 2956 1038 2956 1672 
Q 2956 2269 2603 2631 
Q 2316 2919 1919 2919 
z
" transform="scale(0.015625)"/>
      <path id="IPAexGothic-6e" d="M 3328 63 
L 2778 63 
L 2778 2041 
Q 2778 2853 2106 2853 
Q 1428 2853 1113 2041 
L 1113 63 
L 563 63 
L 563 3250 
L 1075 3250 
L 1075 2675 
Q 1525 3316 2222 3316 
Q 3328 3316 3328 2072 
L 3328 63 
z
" transform="scale(0.015625)"/>
      <path id="IPAexGothic-3068" d="M 5222 56 
Q 4200 -72 3450 -72 
Q 2478 -72 1941 113 
Q 1184 372 1184 1038 
Q 1184 1584 1594 2009 
Q 1941 2369 2656 2725 
Q 2231 3734 1972 4878 
L 2491 4978 
Q 2706 3884 3078 2950 
Q 4250 3447 4756 3616 
L 4978 3150 
Q 3181 2575 2409 2078 
Q 1691 1613 1691 1113 
Q 1691 403 3322 403 
Q 4125 403 5134 563 
L 5222 56 
z
" transform="scale(0.015625)"/>
      <path id="IPAexGothic-52" d="M 4072 63 
L 3394 63 
Q 3138 641 2828 1197 
Q 2584 1641 2344 1825 
Q 2050 2044 1625 2044 
L 1172 2044 
L 1172 63 
L 609 63 
L 609 4634 
L 2009 4634 
Q 2713 4634 3131 4378 
Q 3688 4044 3688 3381 
Q 3688 2784 3181 2459 
Q 2906 2272 2522 2216 
L 2522 2197 
Q 2941 2050 3247 1581 
Q 3516 1166 4072 63 
z
M 1172 2478 
L 1869 2478 
Q 3106 2478 3106 3369 
Q 3106 4181 1928 4181 
L 1172 4181 
L 1172 2478 
z
" transform="scale(0.015625)"/>
      <path id="IPAexGothic-61" d="M 3156 63 
L 2672 63 
Q 2559 303 2531 556 
L 2509 556 
Q 2147 -25 1428 -25 
Q 934 -25 622 288 
Q 347 563 347 959 
Q 347 1947 2050 1997 
L 2478 2009 
L 2478 2175 
Q 2478 2509 2288 2700 
Q 2088 2900 1775 2900 
Q 1238 2900 969 2378 
L 494 2597 
Q 938 3328 1788 3328 
Q 2375 3328 2691 3000 
Q 2984 2706 2984 2169 
L 2984 997 
Q 2984 400 3156 63 
z
M 2491 1625 
L 2141 1619 
Q 903 1591 903 953 
Q 903 728 1050 581 
Q 1231 403 1525 403 
Q 1934 403 2234 703 
Q 2491 969 2491 1344 
L 2491 1625 
z
" transform="scale(0.015625)"/>
      <path id="IPAexGothic-6c" d="M 1131 63 
L 581 63 
L 581 4794 
L 1131 4794 
L 1131 63 
z
" transform="scale(0.015625)"/>
      <path id="IPAexGothic-3092" d="M 1094 4263 
Q 1544 4222 2359 4222 
Q 2581 4734 2700 5163 
L 3175 5028 
Q 2997 4538 2859 4256 
Q 3516 4284 4294 4459 
L 4356 4019 
Q 3603 3869 2656 3819 
Q 2391 3284 2059 2797 
Q 2531 3200 2963 3200 
Q 3638 3200 3859 2378 
Q 4556 2681 5338 2950 
L 5575 2528 
Q 4641 2253 3941 1956 
Q 3981 1678 3994 1028 
L 3513 991 
Q 3513 1456 3494 1753 
Q 2388 1194 2388 716 
Q 2388 428 2753 328 
Q 3066 241 3806 241 
Q 4394 241 5178 344 
L 5216 -128 
Q 4434 -213 3653 -213 
Q 2656 -213 2244 41 
Q 1913 244 1913 631 
Q 1913 1094 2344 1497 
Q 2709 1841 3428 2181 
Q 3266 2797 2878 2797 
Q 2238 2797 1209 1419 
L 838 1694 
Q 1625 2716 2163 3800 
Q 1522 3800 1088 3825 
L 1094 4263 
z
" transform="scale(0.015625)"/>
      <path id="IPAexGothic-53ef" d="M 5100 4313 
L 5100 288 
Q 5100 -63 4913 -200 
Q 4756 -322 4313 -322 
Q 3859 -322 3313 -263 
L 3231 263 
Q 3869 178 4294 178 
Q 4525 178 4575 275 
Q 4613 341 4613 497 
L 4613 4313 
L 416 4313 
L 416 4728 
L 5972 4728 
L 5972 4313 
L 5100 4313 
z
M 3666 3406 
L 3666 1259 
L 1713 1259 
L 1713 741 
L 1259 741 
L 1259 3406 
L 3666 3406 
z
M 1713 3003 
L 1713 1669 
L 3213 1669 
L 3213 3003 
L 1713 3003 
z
" transform="scale(0.015625)"/>
      <path id="IPAexGothic-8996" d="M 2953 1631 
L 2953 5050 
L 5622 5050 
L 5622 1631 
L 4916 1631 
L 4916 300 
Q 4916 138 5000 100 
Q 5050 75 5219 75 
Q 5584 75 5641 275 
Q 5678 419 5697 1003 
L 6116 825 
Q 6075 75 5981 -97 
Q 5875 -297 5622 -334 
Q 5478 -353 5159 -353 
Q 4797 -353 4659 -288 
Q 4488 -203 4488 91 
L 4488 1631 
L 4028 1631 
Q 3978 841 3675 378 
Q 3353 -119 2625 -453 
L 2319 -91 
Q 3003 175 3303 634 
Q 3547 1013 3603 1631 
L 2953 1631 
z
M 3375 2016 
L 5206 2016 
L 5206 2669 
L 3375 2669 
L 3375 2016 
z
M 3375 3041 
L 5206 3041 
L 5206 3666 
L 3375 3666 
L 3375 3041 
z
M 3375 4038 
L 5206 4038 
L 5206 4666 
L 3375 4666 
L 3375 4038 
z
M 1766 2547 
Q 2294 2244 2834 1797 
L 2541 1381 
Q 2181 1728 1791 2041 
L 1766 2059 
L 1766 -456 
L 1313 -456 
L 1313 2047 
Q 894 1559 463 1216 
L 206 1619 
Q 1319 2453 1981 3775 
L 391 3775 
L 391 4197 
L 1250 4197 
L 1250 5309 
L 1703 5309 
L 1703 4197 
L 2303 4197 
L 2541 3978 
Q 2234 3259 1766 2622 
L 1766 2547 
z
" transform="scale(0.015625)"/>
      <path id="IPAexGothic-5316" d="M 1831 3700 
L 1831 -341 
L 1356 -341 
L 1356 2772 
Q 1069 2275 678 1772 
L 378 2138 
Q 1319 3278 1856 5166 
L 2319 5013 
Q 2100 4319 1831 3700 
z
M 3425 2906 
Q 4528 3350 5306 3969 
L 5703 3616 
Q 4728 2919 3425 2444 
L 3425 575 
Q 3425 353 3584 306 
Q 3738 263 4334 263 
Q 5072 263 5250 347 
Q 5384 403 5422 594 
Q 5475 872 5506 1497 
L 5978 1331 
Q 5931 319 5775 106 
Q 5641 -75 5331 -141 
Q 5041 -206 4244 -206 
Q 3438 -206 3181 -78 
Q 2931 47 2931 384 
L 2931 5113 
L 3425 5113 
L 3425 2906 
z
" transform="scale(0.015625)"/>
      <path id="IPAexGothic-3059" d="M 3322 5075 
L 3816 5075 
L 3816 4063 
Q 4131 4075 5756 4116 
L 5756 3669 
Q 5431 3672 3816 3653 
L 3816 2463 
Q 3956 2125 3956 1741 
Q 3956 922 3519 397 
Q 3128 -72 2309 -409 
L 1941 -31 
Q 3263 453 3488 1363 
Q 3250 1031 2809 1031 
Q 2441 1031 2150 1313 
Q 1875 1588 1875 2050 
Q 1875 2475 2166 2769 
Q 2431 3041 2822 3041 
Q 3088 3041 3322 2881 
L 3322 3641 
Q 3000 3634 609 3547 
L 609 3988 
Q 1197 4000 2106 4022 
Q 3066 4047 3322 4050 
L 3322 5075 
z
M 3372 2044 
Q 3372 2300 3194 2478 
Q 3050 2613 2869 2613 
Q 2622 2613 2463 2406 
Q 2344 2250 2344 2088 
Q 2344 1797 2484 1622 
Q 2625 1453 2859 1453 
Q 3372 1453 3372 2044 
z
" transform="scale(0.015625)"/>
      <path id="IPAexGothic-308b" d="M 4391 4397 
L 2613 2588 
Q 3225 2809 3759 2809 
Q 4263 2809 4659 2625 
Q 5391 2269 5391 1484 
Q 5391 756 4706 275 
Q 4072 -166 3053 -166 
Q 2559 -166 2247 19 
Q 1863 250 1863 666 
Q 1863 934 2069 1141 
Q 2331 1403 2741 1403 
Q 3509 1403 4019 428 
Q 4872 784 4872 1491 
Q 4872 1981 4469 2222 
Q 4166 2406 3681 2406 
Q 2425 2406 1238 1209 
L 891 1581 
Q 2438 2934 3578 4281 
Q 2594 4125 1588 4066 
L 1478 4550 
Q 2594 4581 4109 4763 
L 4391 4397 
z
M 3591 303 
Q 3244 1025 2731 1025 
Q 2553 1025 2434 934 
Q 2316 844 2316 700 
Q 2316 250 3034 250 
Q 3275 250 3591 303 
z
" transform="scale(0.015625)"/>
      <path id="IPAexGothic-30d9" d="M 428 1991 
Q 1119 2547 2100 3681 
Q 2356 3975 2566 3975 
Q 2772 3975 3181 3584 
Q 4328 2475 5950 1356 
L 5600 863 
Q 3994 2081 2816 3241 
Q 2653 3394 2584 3394 
Q 2513 3394 2291 3125 
Q 1706 2384 775 1528 
L 428 1991 
z
M 5356 3719 
Q 4994 4259 4600 4588 
L 4903 4819 
Q 5288 4509 5675 3994 
L 5356 3719 
z
M 4759 3250 
Q 4472 3741 4025 4141 
L 4338 4381 
Q 4709 4075 5094 3525 
L 4759 3250 
z
" transform="scale(0.015625)"/>
      <path id="IPAexGothic-30f3" d="M 2444 3084 
Q 1816 3656 1056 4084 
L 1381 4519 
Q 2063 4191 2816 3559 
L 2444 3084 
z
M 1100 609 
Q 3984 1106 5216 3828 
L 5619 3469 
Q 4413 794 1434 103 
L 1100 609 
z
" transform="scale(0.015625)"/>
      <path id="IPAexGothic-56f3" d="M 3375 1428 
Q 2606 747 1625 447 
L 1356 831 
Q 2297 1091 2966 1631 
L 2791 1709 
Q 2138 2022 1338 2328 
L 1575 2669 
Q 2356 2375 3297 1941 
Q 4069 2759 4422 4178 
L 4853 4013 
Q 4456 2588 3694 1747 
Q 4313 1434 5000 1050 
L 4706 666 
Q 4113 1041 3431 1394 
L 3375 1428 
z
M 2131 2681 
Q 1897 3466 1625 3903 
L 2038 4084 
Q 2331 3563 2559 2869 
L 2131 2681 
z
M 3169 2834 
Q 2934 3603 2663 4056 
L 3059 4225 
Q 3366 3728 3597 3022 
L 3169 2834 
z
M 5769 4984 
L 5769 -447 
L 5300 -447 
L 5300 -128 
L 1097 -128 
L 1097 -447 
L 628 -447 
L 628 4984 
L 5769 4984 
z
M 1097 4575 
L 1097 275 
L 5300 275 
L 5300 4575 
L 1097 4575 
z
" transform="scale(0.015625)"/>
     </defs>
     <use xlink:href="#IPAexGothic-50"/>
     <use xlink:href="#IPAexGothic-72" x="62.109375"/>
     <use xlink:href="#IPAexGothic-65" x="99.121094"/>
     <use xlink:href="#IPAexGothic-63" x="156.005859"/>
     <use xlink:href="#IPAexGothic-69" x="210.400391"/>
     <use xlink:href="#IPAexGothic-73" x="237.402344"/>
     <use xlink:href="#IPAexGothic-69" x="283.59375"/>
     <use xlink:href="#IPAexGothic-6f" x="310.595703"/>
     <use xlink:href="#IPAexGothic-6e" x="370.996094"/>
     <use xlink:href="#IPAexGothic-20" x="431.396484"/>
     <use xlink:href="#IPAexGothic-3068" x="458.398438"/>
     <use xlink:href="#IPAexGothic-20" x="558.398438"/>
     <use xlink:href="#IPAexGothic-52" x="585.400391"/>
     <use xlink:href="#IPAexGothic-65" x="650.195312"/>
     <use xlink:href="#IPAexGothic-63" x="707.080078"/>
     <use xlink:href="#IPAexGothic-61" x="761.474609"/>
     <use xlink:href="#IPAexGothic-6c" x="816.455078"/>
     <use xlink:href="#IPAexGothic-6c" x="843.457031"/>
     <use xlink:href="#IPAexGothic-20" x="870.458984"/>
     <use xlink:href="#IPAexGothic-3092" x="897.460938"/>
     <use xlink:href="#IPAexGothic-53ef" x="997.460938"/>
     <use xlink:href="#IPAexGothic-8996" x="1097.460938"/>
     <use xlink:href="#IPAexGothic-5316" x="1197.460938"/>
     <use xlink:href="#IPAexGothic-3059" x="1297.460938"/>
     <use xlink:href="#IPAexGothic-308b" x="1397.460938"/>
     <use xlink:href="#IPAexGothic-30d9" x="1497.460938"/>
     <use xlink:href="#IPAexGothic-30f3" x="1597.460938"/>
     <use xlink:href="#IPAexGothic-56f3" x="1697.460938"/>
    </g>
   </g>
  </g>
 </g>
 <defs>
  <clipPath id="pccb1ae54bd">
   <rect x="21.384" y="22.18875" width="314.233396" height="266.112"/>
  </clipPath>
 </defs>
</svg>
