<?xml version="1.0" encoding="utf-8" standalone="no"?>
<!DOCTYPE svg PUBLIC "-//W3C//DTD SVG 1.1//EN"
  "http://www.w3.org/Graphics/SVG/1.1/DTD/svg11.dtd">
<svg xmlns:xlink="http://www.w3.org/1999/xlink" width="411.704375pt" height="310.86825pt" viewBox="0 0 411.704375 310.86825" xmlns="http://www.w3.org/2000/svg" version="1.1">
 <metadata>
  <rdf:RDF xmlns:dc="http://purl.org/dc/elements/1.1/" xmlns:cc="http://creativecommons.org/ns#" xmlns:rdf="http://www.w3.org/1999/02/22-rdf-syntax-ns#">
   <cc:Work>
    <dc:type rdf:resource="http://purl.org/dc/dcmitype/StillImage"/>
    <dc:date>2024-02-15T23:26:25.243991</dc:date>
    <dc:format>image/svg+xml</dc:format>
    <dc:creator>
     <cc:Agent>
      <dc:title>Matplotlib v3.8.0, https://matplotlib.org/</dc:title>
     </cc:Agent>
    </dc:creator>
   </cc:Work>
  </rdf:RDF>
 </metadata>
 <defs>
  <style type="text/css">*{stroke-linejoin: round; stroke-linecap: butt}</style>
 </defs>
 <g id="figure_1">
  <g id="patch_1">
   <path d="M 0 310.86825 
L 411.704375 310.86825 
L 411.704375 0 
L 0 0 
z
" style="fill: #ffffff"/>
  </g>
  <g id="axes_1">
   <g id="patch_2">
    <path d="M 44.203125 273.312 
L 401.323125 273.312 
L 401.323125 7.2 
L 44.203125 7.2 
z
" style="fill: #ffffff"/>
   </g>
   <g id="matplotlib.axis_1">
    <g id="xtick_1">
     <g id="line2d_1">
      <path d="M 44.203125 273.312 
L 44.203125 7.2 
" clip-path="url(#pe3a367b62e)" style="fill: none; stroke: #b0b0b0; stroke-width: 0.8; stroke-linecap: square"/>
     </g>
     <g id="line2d_2">
      <defs>
       <path id="md444f9db5c" d="M 0 0 
L 0 3.5 
" style="stroke: #000000; stroke-width: 0.8"/>
      </defs>
      <g>
       <use xlink:href="#md444f9db5c" x="44.203125" y="273.312" style="stroke: #000000; stroke-width: 0.8"/>
      </g>
     </g>
     <g id="text_1">
      <!-- 0 -->
      <g transform="translate(41.021875 287.910437) scale(0.1 -0.1)">
       <defs>
        <path id="DejaVuSans-30" d="M 2034 4250 
Q 1547 4250 1301 3770 
Q 1056 3291 1056 2328 
Q 1056 1369 1301 889 
Q 1547 409 2034 409 
Q 2525 409 2770 889 
Q 3016 1369 3016 2328 
Q 3016 3291 2770 3770 
Q 2525 4250 2034 4250 
z
M 2034 4750 
Q 2819 4750 3233 4129 
Q 3647 3509 3647 2328 
Q 3647 1150 3233 529 
Q 2819 -91 2034 -91 
Q 1250 -91 836 529 
Q 422 1150 422 2328 
Q 422 3509 836 4129 
Q 1250 4750 2034 4750 
z
" transform="scale(0.015625)"/>
       </defs>
       <use xlink:href="#DejaVuSans-30"/>
      </g>
     </g>
    </g>
    <g id="xtick_2">
     <g id="line2d_3">
      <path d="M 95.220268 273.312 
L 95.220268 7.2 
" clip-path="url(#pe3a367b62e)" style="fill: none; stroke: #b0b0b0; stroke-width: 0.8; stroke-linecap: square"/>
     </g>
     <g id="line2d_4">
      <g>
       <use xlink:href="#md444f9db5c" x="95.220268" y="273.312" style="stroke: #000000; stroke-width: 0.8"/>
      </g>
     </g>
     <g id="text_2">
      <!-- 1 -->
      <g transform="translate(92.039018 287.910437) scale(0.1 -0.1)">
       <defs>
        <path id="DejaVuSans-31" d="M 794 531 
L 1825 531 
L 1825 4091 
L 703 3866 
L 703 4441 
L 1819 4666 
L 2450 4666 
L 2450 531 
L 3481 531 
L 3481 0 
L 794 0 
L 794 531 
z
" transform="scale(0.015625)"/>
       </defs>
       <use xlink:href="#DejaVuSans-31"/>
      </g>
     </g>
    </g>
    <g id="xtick_3">
     <g id="line2d_5">
      <path d="M 146.237411 273.312 
L 146.237411 7.2 
" clip-path="url(#pe3a367b62e)" style="fill: none; stroke: #b0b0b0; stroke-width: 0.8; stroke-linecap: square"/>
     </g>
     <g id="line2d_6">
      <g>
       <use xlink:href="#md444f9db5c" x="146.237411" y="273.312" style="stroke: #000000; stroke-width: 0.8"/>
      </g>
     </g>
     <g id="text_3">
      <!-- 2 -->
      <g transform="translate(143.056161 287.910437) scale(0.1 -0.1)">
       <defs>
        <path id="DejaVuSans-32" d="M 1228 531 
L 3431 531 
L 3431 0 
L 469 0 
L 469 531 
Q 828 903 1448 1529 
Q 2069 2156 2228 2338 
Q 2531 2678 2651 2914 
Q 2772 3150 2772 3378 
Q 2772 3750 2511 3984 
Q 2250 4219 1831 4219 
Q 1534 4219 1204 4116 
Q 875 4013 500 3803 
L 500 4441 
Q 881 4594 1212 4672 
Q 1544 4750 1819 4750 
Q 2544 4750 2975 4387 
Q 3406 4025 3406 3419 
Q 3406 3131 3298 2873 
Q 3191 2616 2906 2266 
Q 2828 2175 2409 1742 
Q 1991 1309 1228 531 
z
" transform="scale(0.015625)"/>
       </defs>
       <use xlink:href="#DejaVuSans-32"/>
      </g>
     </g>
    </g>
    <g id="xtick_4">
     <g id="line2d_7">
      <path d="M 197.254554 273.312 
L 197.254554 7.2 
" clip-path="url(#pe3a367b62e)" style="fill: none; stroke: #b0b0b0; stroke-width: 0.8; stroke-linecap: square"/>
     </g>
     <g id="line2d_8">
      <g>
       <use xlink:href="#md444f9db5c" x="197.254554" y="273.312" style="stroke: #000000; stroke-width: 0.8"/>
      </g>
     </g>
     <g id="text_4">
      <!-- 3 -->
      <g transform="translate(194.073304 287.910437) scale(0.1 -0.1)">
       <defs>
        <path id="DejaVuSans-33" d="M 2597 2516 
Q 3050 2419 3304 2112 
Q 3559 1806 3559 1356 
Q 3559 666 3084 287 
Q 2609 -91 1734 -91 
Q 1441 -91 1130 -33 
Q 819 25 488 141 
L 488 750 
Q 750 597 1062 519 
Q 1375 441 1716 441 
Q 2309 441 2620 675 
Q 2931 909 2931 1356 
Q 2931 1769 2642 2001 
Q 2353 2234 1838 2234 
L 1294 2234 
L 1294 2753 
L 1863 2753 
Q 2328 2753 2575 2939 
Q 2822 3125 2822 3475 
Q 2822 3834 2567 4026 
Q 2313 4219 1838 4219 
Q 1578 4219 1281 4162 
Q 984 4106 628 3988 
L 628 4550 
Q 988 4650 1302 4700 
Q 1616 4750 1894 4750 
Q 2613 4750 3031 4423 
Q 3450 4097 3450 3541 
Q 3450 3153 3228 2886 
Q 3006 2619 2597 2516 
z
" transform="scale(0.015625)"/>
       </defs>
       <use xlink:href="#DejaVuSans-33"/>
      </g>
     </g>
    </g>
    <g id="xtick_5">
     <g id="line2d_9">
      <path d="M 248.271696 273.312 
L 248.271696 7.2 
" clip-path="url(#pe3a367b62e)" style="fill: none; stroke: #b0b0b0; stroke-width: 0.8; stroke-linecap: square"/>
     </g>
     <g id="line2d_10">
      <g>
       <use xlink:href="#md444f9db5c" x="248.271696" y="273.312" style="stroke: #000000; stroke-width: 0.8"/>
      </g>
     </g>
     <g id="text_5">
      <!-- 4 -->
      <g transform="translate(245.090446 287.910437) scale(0.1 -0.1)">
       <defs>
        <path id="DejaVuSans-34" d="M 2419 4116 
L 825 1625 
L 2419 1625 
L 2419 4116 
z
M 2253 4666 
L 3047 4666 
L 3047 1625 
L 3713 1625 
L 3713 1100 
L 3047 1100 
L 3047 0 
L 2419 0 
L 2419 1100 
L 313 1100 
L 313 1709 
L 2253 4666 
z
" transform="scale(0.015625)"/>
       </defs>
       <use xlink:href="#DejaVuSans-34"/>
      </g>
     </g>
    </g>
    <g id="xtick_6">
     <g id="line2d_11">
      <path d="M 299.288839 273.312 
L 299.288839 7.2 
" clip-path="url(#pe3a367b62e)" style="fill: none; stroke: #b0b0b0; stroke-width: 0.8; stroke-linecap: square"/>
     </g>
     <g id="line2d_12">
      <g>
       <use xlink:href="#md444f9db5c" x="299.288839" y="273.312" style="stroke: #000000; stroke-width: 0.8"/>
      </g>
     </g>
     <g id="text_6">
      <!-- 5 -->
      <g transform="translate(296.107589 287.910437) scale(0.1 -0.1)">
       <defs>
        <path id="DejaVuSans-35" d="M 691 4666 
L 3169 4666 
L 3169 4134 
L 1269 4134 
L 1269 2991 
Q 1406 3038 1543 3061 
Q 1681 3084 1819 3084 
Q 2600 3084 3056 2656 
Q 3513 2228 3513 1497 
Q 3513 744 3044 326 
Q 2575 -91 1722 -91 
Q 1428 -91 1123 -41 
Q 819 9 494 109 
L 494 744 
Q 775 591 1075 516 
Q 1375 441 1709 441 
Q 2250 441 2565 725 
Q 2881 1009 2881 1497 
Q 2881 1984 2565 2268 
Q 2250 2553 1709 2553 
Q 1456 2553 1204 2497 
Q 953 2441 691 2322 
L 691 4666 
z
" transform="scale(0.015625)"/>
       </defs>
       <use xlink:href="#DejaVuSans-35"/>
      </g>
     </g>
    </g>
    <g id="xtick_7">
     <g id="line2d_13">
      <path d="M 350.305982 273.312 
L 350.305982 7.2 
" clip-path="url(#pe3a367b62e)" style="fill: none; stroke: #b0b0b0; stroke-width: 0.8; stroke-linecap: square"/>
     </g>
     <g id="line2d_14">
      <g>
       <use xlink:href="#md444f9db5c" x="350.305982" y="273.312" style="stroke: #000000; stroke-width: 0.8"/>
      </g>
     </g>
     <g id="text_7">
      <!-- 6 -->
      <g transform="translate(347.124732 287.910437) scale(0.1 -0.1)">
       <defs>
        <path id="DejaVuSans-36" d="M 2113 2584 
Q 1688 2584 1439 2293 
Q 1191 2003 1191 1497 
Q 1191 994 1439 701 
Q 1688 409 2113 409 
Q 2538 409 2786 701 
Q 3034 994 3034 1497 
Q 3034 2003 2786 2293 
Q 2538 2584 2113 2584 
z
M 3366 4563 
L 3366 3988 
Q 3128 4100 2886 4159 
Q 2644 4219 2406 4219 
Q 1781 4219 1451 3797 
Q 1122 3375 1075 2522 
Q 1259 2794 1537 2939 
Q 1816 3084 2150 3084 
Q 2853 3084 3261 2657 
Q 3669 2231 3669 1497 
Q 3669 778 3244 343 
Q 2819 -91 2113 -91 
Q 1303 -91 875 529 
Q 447 1150 447 2328 
Q 447 3434 972 4092 
Q 1497 4750 2381 4750 
Q 2619 4750 2861 4703 
Q 3103 4656 3366 4563 
z
" transform="scale(0.015625)"/>
       </defs>
       <use xlink:href="#DejaVuSans-36"/>
      </g>
     </g>
    </g>
    <g id="xtick_8">
     <g id="line2d_15">
      <path d="M 401.323125 273.312 
L 401.323125 7.2 
" clip-path="url(#pe3a367b62e)" style="fill: none; stroke: #b0b0b0; stroke-width: 0.8; stroke-linecap: square"/>
     </g>
     <g id="line2d_16">
      <g>
       <use xlink:href="#md444f9db5c" x="401.323125" y="273.312" style="stroke: #000000; stroke-width: 0.8"/>
      </g>
     </g>
     <g id="text_8">
      <!-- 7 -->
      <g transform="translate(398.141875 287.910437) scale(0.1 -0.1)">
       <defs>
        <path id="DejaVuSans-37" d="M 525 4666 
L 3525 4666 
L 3525 4397 
L 1831 0 
L 1172 0 
L 2766 4134 
L 525 4134 
L 525 4666 
z
" transform="scale(0.015625)"/>
       </defs>
       <use xlink:href="#DejaVuSans-37"/>
      </g>
     </g>
    </g>
    <g id="text_9">
     <!-- $k$ -->
     <g transform="translate(219.863125 301.588562) scale(0.1 -0.1)">
      <defs>
       <path id="DejaVuSans-Oblique-6b" d="M 1172 4863 
L 1747 4863 
L 1197 2028 
L 3169 3500 
L 3916 3500 
L 1716 1825 
L 3322 0 
L 2625 0 
L 1131 1709 
L 800 0 
L 225 0 
L 1172 4863 
z
" transform="scale(0.015625)"/>
      </defs>
      <use xlink:href="#DejaVuSans-Oblique-6b" transform="translate(0 0.015625)"/>
     </g>
    </g>
   </g>
   <g id="matplotlib.axis_2">
    <g id="ytick_1">
     <g id="line2d_17">
      <path d="M 44.203125 261.23122 
L 401.323125 261.23122 
" clip-path="url(#pe3a367b62e)" style="fill: none; stroke: #b0b0b0; stroke-width: 0.8; stroke-linecap: square"/>
     </g>
     <g id="line2d_18">
      <defs>
       <path id="ma83748e5eb" d="M 0 0 
L -3.5 0 
" style="stroke: #000000; stroke-width: 0.8"/>
      </defs>
      <g>
       <use xlink:href="#ma83748e5eb" x="44.203125" y="261.23122" style="stroke: #000000; stroke-width: 0.8"/>
      </g>
     </g>
     <g id="text_10">
      <!-- 0.0 -->
      <g transform="translate(21.3 265.030439) scale(0.1 -0.1)">
       <defs>
        <path id="DejaVuSans-2e" d="M 684 794 
L 1344 794 
L 1344 0 
L 684 0 
L 684 794 
z
" transform="scale(0.015625)"/>
       </defs>
       <use xlink:href="#DejaVuSans-30"/>
       <use xlink:href="#DejaVuSans-2e" x="63.623047"/>
       <use xlink:href="#DejaVuSans-30" x="95.410156"/>
      </g>
     </g>
    </g>
    <g id="ytick_2">
     <g id="line2d_19">
      <path d="M 44.203125 230.791656 
L 401.323125 230.791656 
" clip-path="url(#pe3a367b62e)" style="fill: none; stroke: #b0b0b0; stroke-width: 0.8; stroke-linecap: square"/>
     </g>
     <g id="line2d_20">
      <g>
       <use xlink:href="#ma83748e5eb" x="44.203125" y="230.791656" style="stroke: #000000; stroke-width: 0.8"/>
      </g>
     </g>
     <g id="text_11">
      <!-- 0.1 -->
      <g transform="translate(21.3 234.590875) scale(0.1 -0.1)">
       <use xlink:href="#DejaVuSans-30"/>
       <use xlink:href="#DejaVuSans-2e" x="63.623047"/>
       <use xlink:href="#DejaVuSans-31" x="95.410156"/>
      </g>
     </g>
    </g>
    <g id="ytick_3">
     <g id="line2d_21">
      <path d="M 44.203125 200.352093 
L 401.323125 200.352093 
" clip-path="url(#pe3a367b62e)" style="fill: none; stroke: #b0b0b0; stroke-width: 0.8; stroke-linecap: square"/>
     </g>
     <g id="line2d_22">
      <g>
       <use xlink:href="#ma83748e5eb" x="44.203125" y="200.352093" style="stroke: #000000; stroke-width: 0.8"/>
      </g>
     </g>
     <g id="text_12">
      <!-- 0.2 -->
      <g transform="translate(21.3 204.151311) scale(0.1 -0.1)">
       <use xlink:href="#DejaVuSans-30"/>
       <use xlink:href="#DejaVuSans-2e" x="63.623047"/>
       <use xlink:href="#DejaVuSans-32" x="95.410156"/>
      </g>
     </g>
    </g>
    <g id="ytick_4">
     <g id="line2d_23">
      <path d="M 44.203125 169.912529 
L 401.323125 169.912529 
" clip-path="url(#pe3a367b62e)" style="fill: none; stroke: #b0b0b0; stroke-width: 0.8; stroke-linecap: square"/>
     </g>
     <g id="line2d_24">
      <g>
       <use xlink:href="#ma83748e5eb" x="44.203125" y="169.912529" style="stroke: #000000; stroke-width: 0.8"/>
      </g>
     </g>
     <g id="text_13">
      <!-- 0.3 -->
      <g transform="translate(21.3 173.711748) scale(0.1 -0.1)">
       <use xlink:href="#DejaVuSans-30"/>
       <use xlink:href="#DejaVuSans-2e" x="63.623047"/>
       <use xlink:href="#DejaVuSans-33" x="95.410156"/>
      </g>
     </g>
    </g>
    <g id="ytick_5">
     <g id="line2d_25">
      <path d="M 44.203125 139.472965 
L 401.323125 139.472965 
" clip-path="url(#pe3a367b62e)" style="fill: none; stroke: #b0b0b0; stroke-width: 0.8; stroke-linecap: square"/>
     </g>
     <g id="line2d_26">
      <g>
       <use xlink:href="#ma83748e5eb" x="44.203125" y="139.472965" style="stroke: #000000; stroke-width: 0.8"/>
      </g>
     </g>
     <g id="text_14">
      <!-- 0.4 -->
      <g transform="translate(21.3 143.272184) scale(0.1 -0.1)">
       <use xlink:href="#DejaVuSans-30"/>
       <use xlink:href="#DejaVuSans-2e" x="63.623047"/>
       <use xlink:href="#DejaVuSans-34" x="95.410156"/>
      </g>
     </g>
    </g>
    <g id="ytick_6">
     <g id="line2d_27">
      <path d="M 44.203125 109.033402 
L 401.323125 109.033402 
" clip-path="url(#pe3a367b62e)" style="fill: none; stroke: #b0b0b0; stroke-width: 0.8; stroke-linecap: square"/>
     </g>
     <g id="line2d_28">
      <g>
       <use xlink:href="#ma83748e5eb" x="44.203125" y="109.033402" style="stroke: #000000; stroke-width: 0.8"/>
      </g>
     </g>
     <g id="text_15">
      <!-- 0.5 -->
      <g transform="translate(21.3 112.83262) scale(0.1 -0.1)">
       <use xlink:href="#DejaVuSans-30"/>
       <use xlink:href="#DejaVuSans-2e" x="63.623047"/>
       <use xlink:href="#DejaVuSans-35" x="95.410156"/>
      </g>
     </g>
    </g>
    <g id="ytick_7">
     <g id="line2d_29">
      <path d="M 44.203125 78.593838 
L 401.323125 78.593838 
" clip-path="url(#pe3a367b62e)" style="fill: none; stroke: #b0b0b0; stroke-width: 0.8; stroke-linecap: square"/>
     </g>
     <g id="line2d_30">
      <g>
       <use xlink:href="#ma83748e5eb" x="44.203125" y="78.593838" style="stroke: #000000; stroke-width: 0.8"/>
      </g>
     </g>
     <g id="text_16">
      <!-- 0.6 -->
      <g transform="translate(21.3 82.393057) scale(0.1 -0.1)">
       <use xlink:href="#DejaVuSans-30"/>
       <use xlink:href="#DejaVuSans-2e" x="63.623047"/>
       <use xlink:href="#DejaVuSans-36" x="95.410156"/>
      </g>
     </g>
    </g>
    <g id="ytick_8">
     <g id="line2d_31">
      <path d="M 44.203125 48.154275 
L 401.323125 48.154275 
" clip-path="url(#pe3a367b62e)" style="fill: none; stroke: #b0b0b0; stroke-width: 0.8; stroke-linecap: square"/>
     </g>
     <g id="line2d_32">
      <g>
       <use xlink:href="#ma83748e5eb" x="44.203125" y="48.154275" style="stroke: #000000; stroke-width: 0.8"/>
      </g>
     </g>
     <g id="text_17">
      <!-- 0.7 -->
      <g transform="translate(21.3 51.953493) scale(0.1 -0.1)">
       <use xlink:href="#DejaVuSans-30"/>
       <use xlink:href="#DejaVuSans-2e" x="63.623047"/>
       <use xlink:href="#DejaVuSans-37" x="95.410156"/>
      </g>
     </g>
    </g>
    <g id="ytick_9">
     <g id="line2d_33">
      <path d="M 44.203125 17.714711 
L 401.323125 17.714711 
" clip-path="url(#pe3a367b62e)" style="fill: none; stroke: #b0b0b0; stroke-width: 0.8; stroke-linecap: square"/>
     </g>
     <g id="line2d_34">
      <g>
       <use xlink:href="#ma83748e5eb" x="44.203125" y="17.714711" style="stroke: #000000; stroke-width: 0.8"/>
      </g>
     </g>
     <g id="text_18">
      <!-- 0.8 -->
      <g transform="translate(21.3 21.51393) scale(0.1 -0.1)">
       <defs>
        <path id="DejaVuSans-38" d="M 2034 2216 
Q 1584 2216 1326 1975 
Q 1069 1734 1069 1313 
Q 1069 891 1326 650 
Q 1584 409 2034 409 
Q 2484 409 2743 651 
Q 3003 894 3003 1313 
Q 3003 1734 2745 1975 
Q 2488 2216 2034 2216 
z
M 1403 2484 
Q 997 2584 770 2862 
Q 544 3141 544 3541 
Q 544 4100 942 4425 
Q 1341 4750 2034 4750 
Q 2731 4750 3128 4425 
Q 3525 4100 3525 3541 
Q 3525 3141 3298 2862 
Q 3072 2584 2669 2484 
Q 3125 2378 3379 2068 
Q 3634 1759 3634 1313 
Q 3634 634 3220 271 
Q 2806 -91 2034 -91 
Q 1263 -91 848 271 
Q 434 634 434 1313 
Q 434 1759 690 2068 
Q 947 2378 1403 2484 
z
M 1172 3481 
Q 1172 3119 1398 2916 
Q 1625 2713 2034 2713 
Q 2441 2713 2670 2916 
Q 2900 3119 2900 3481 
Q 2900 3844 2670 4047 
Q 2441 4250 2034 4250 
Q 1625 4250 1398 4047 
Q 1172 3844 1172 3481 
z
" transform="scale(0.015625)"/>
       </defs>
       <use xlink:href="#DejaVuSans-30"/>
       <use xlink:href="#DejaVuSans-2e" x="63.623047"/>
       <use xlink:href="#DejaVuSans-38" x="95.410156"/>
      </g>
     </g>
    </g>
    <g id="text_19">
     <!-- $\text{Gamma}(k|\alpha, \beta)$ -->
     <g transform="translate(14.9 177.556) rotate(-90) scale(0.1 -0.1)">
      <defs>
       <path id="DejaVuSans-47" d="M 3809 666 
L 3809 1919 
L 2778 1919 
L 2778 2438 
L 4434 2438 
L 4434 434 
Q 4069 175 3628 42 
Q 3188 -91 2688 -91 
Q 1594 -91 976 548 
Q 359 1188 359 2328 
Q 359 3472 976 4111 
Q 1594 4750 2688 4750 
Q 3144 4750 3555 4637 
Q 3966 4525 4313 4306 
L 4313 3634 
Q 3963 3931 3569 4081 
Q 3175 4231 2741 4231 
Q 1884 4231 1454 3753 
Q 1025 3275 1025 2328 
Q 1025 1384 1454 906 
Q 1884 428 2741 428 
Q 3075 428 3337 486 
Q 3600 544 3809 666 
z
" transform="scale(0.015625)"/>
       <path id="DejaVuSans-61" d="M 2194 1759 
Q 1497 1759 1228 1600 
Q 959 1441 959 1056 
Q 959 750 1161 570 
Q 1363 391 1709 391 
Q 2188 391 2477 730 
Q 2766 1069 2766 1631 
L 2766 1759 
L 2194 1759 
z
M 3341 1997 
L 3341 0 
L 2766 0 
L 2766 531 
Q 2569 213 2275 61 
Q 1981 -91 1556 -91 
Q 1019 -91 701 211 
Q 384 513 384 1019 
Q 384 1609 779 1909 
Q 1175 2209 1959 2209 
L 2766 2209 
L 2766 2266 
Q 2766 2663 2505 2880 
Q 2244 3097 1772 3097 
Q 1472 3097 1187 3025 
Q 903 2953 641 2809 
L 641 3341 
Q 956 3463 1253 3523 
Q 1550 3584 1831 3584 
Q 2591 3584 2966 3190 
Q 3341 2797 3341 1997 
z
" transform="scale(0.015625)"/>
       <path id="DejaVuSans-6d" d="M 3328 2828 
Q 3544 3216 3844 3400 
Q 4144 3584 4550 3584 
Q 5097 3584 5394 3201 
Q 5691 2819 5691 2113 
L 5691 0 
L 5113 0 
L 5113 2094 
Q 5113 2597 4934 2840 
Q 4756 3084 4391 3084 
Q 3944 3084 3684 2787 
Q 3425 2491 3425 1978 
L 3425 0 
L 2847 0 
L 2847 2094 
Q 2847 2600 2669 2842 
Q 2491 3084 2119 3084 
Q 1678 3084 1418 2786 
Q 1159 2488 1159 1978 
L 1159 0 
L 581 0 
L 581 3500 
L 1159 3500 
L 1159 2956 
Q 1356 3278 1631 3431 
Q 1906 3584 2284 3584 
Q 2666 3584 2933 3390 
Q 3200 3197 3328 2828 
z
" transform="scale(0.015625)"/>
       <path id="DejaVuSans-28" d="M 1984 4856 
Q 1566 4138 1362 3434 
Q 1159 2731 1159 2009 
Q 1159 1288 1364 580 
Q 1569 -128 1984 -844 
L 1484 -844 
Q 1016 -109 783 600 
Q 550 1309 550 2009 
Q 550 2706 781 3412 
Q 1013 4119 1484 4856 
L 1984 4856 
z
" transform="scale(0.015625)"/>
       <path id="DejaVuSans-7c" d="M 1344 4891 
L 1344 -1509 
L 813 -1509 
L 813 4891 
L 1344 4891 
z
" transform="scale(0.015625)"/>
       <path id="DejaVuSans-Oblique-3b1" d="M 2619 1628 
L 2622 2350 
Q 2625 3088 2069 3091 
Q 1653 3094 1394 2747 
Q 1069 2319 959 1747 
Q 825 1059 994 731 
Q 1169 397 1547 397 
Q 1966 397 2319 1063 
L 2619 1628 
z
M 2166 3578 
Q 3141 3594 3128 2584 
Q 3128 2584 3616 3500 
L 4128 3500 
L 3119 1603 
L 3109 919 
Q 3109 766 3194 638 
Q 3291 488 3391 488 
L 3669 488 
L 3575 0 
L 3228 0 
Q 2934 0 2722 263 
Q 2622 394 2619 669 
Q 2416 334 2066 50 
Q 1900 -81 1453 -78 
Q 722 -72 456 397 
Q 184 884 353 1747 
Q 534 2675 1009 3097 
Q 1544 3569 2166 3578 
z
" transform="scale(0.015625)"/>
       <path id="DejaVuSans-2c" d="M 750 794 
L 1409 794 
L 1409 256 
L 897 -744 
L 494 -744 
L 750 256 
L 750 794 
z
" transform="scale(0.015625)"/>
       <path id="DejaVuSans-Oblique-3b2" d="M 872 216 
L 572 -1331 
L -6 -1331 
L 928 3478 
Q 1206 4903 2538 4903 
Q 3888 4903 3659 3700 
Q 3503 2844 2894 2531 
Q 3713 2250 3553 1416 
Q 3272 -69 1759 -66 
Q 1097 -63 872 216 
z
M 1019 966 
Q 1259 422 1875 425 
Q 2775 425 2966 1406 
Q 3138 2288 1675 2219 
L 1778 2750 
Q 2909 2731 3106 3750 
Q 3241 4438 2509 4434 
Q 1691 4434 1503 3459 
L 1019 966 
z
" transform="scale(0.015625)"/>
       <path id="DejaVuSans-29" d="M 513 4856 
L 1013 4856 
Q 1481 4119 1714 3412 
Q 1947 2706 1947 2009 
Q 1947 1309 1714 600 
Q 1481 -109 1013 -844 
L 513 -844 
Q 928 -128 1133 580 
Q 1338 1288 1338 2009 
Q 1338 2731 1133 3434 
Q 928 4138 513 4856 
z
" transform="scale(0.015625)"/>
      </defs>
      <use xlink:href="#DejaVuSans-47" transform="translate(0 0.390625)"/>
      <use xlink:href="#DejaVuSans-61" transform="translate(77.490234 0.390625)"/>
      <use xlink:href="#DejaVuSans-6d" transform="translate(138.769531 0.390625)"/>
      <use xlink:href="#DejaVuSans-6d" transform="translate(236.181641 0.390625)"/>
      <use xlink:href="#DejaVuSans-61" transform="translate(333.59375 0.390625)"/>
      <use xlink:href="#DejaVuSans-28" transform="translate(394.873047 0.390625)"/>
      <use xlink:href="#DejaVuSans-Oblique-6b" transform="translate(433.886719 0.390625)"/>
      <use xlink:href="#DejaVuSans-7c" transform="translate(491.796875 0.390625)"/>
      <use xlink:href="#DejaVuSans-Oblique-3b1" transform="translate(525.488281 0.390625)"/>
      <use xlink:href="#DejaVuSans-2c" transform="translate(591.40625 0.390625)"/>
      <use xlink:href="#DejaVuSans-Oblique-3b2" transform="translate(642.675781 0.390625)"/>
      <use xlink:href="#DejaVuSans-29" transform="translate(706.494141 0.390625)"/>
     </g>
    </g>
   </g>
   <g id="line2d_35">
    <path d="M 44.213329 109.048622 
L 53.705857 122.567964 
L 63.198385 134.886298 
L 72.690914 146.110316 
L 82.183442 156.337234 
L 91.67597 165.65563 
L 101.168498 174.146214 
L 110.661027 181.882526 
L 120.153555 188.931572 
L 129.646083 195.354407 
L 139.138611 201.206661 
L 148.63114 206.539022 
L 158.123668 211.397676 
L 167.616196 215.824705 
L 177.108724 219.858452 
L 186.601253 223.533857 
L 196.093781 226.882752 
L 205.586309 229.934144 
L 215.078838 232.714461 
L 224.571366 235.247785 
L 234.063894 237.556058 
L 243.556422 239.659272 
L 253.048951 241.575645 
L 262.541479 243.321774 
L 272.034007 244.912783 
L 281.526535 246.362453 
L 291.019064 247.683339 
L 300.511592 248.886883 
L 310.00412 249.983509 
L 319.496648 250.982714 
L 328.989177 251.893154 
L 338.481705 252.722713 
L 347.974233 253.478578 
L 357.466761 254.167294 
L 366.95929 254.794827 
L 376.451818 255.366613 
L 385.944346 255.887603 
L 395.436874 256.36231 
L 404.929403 256.794846 
L 412.704375 257.117648 
" clip-path="url(#pe3a367b62e)" style="fill: none; stroke: #1f77b4; stroke-width: 1.5; stroke-linecap: square"/>
   </g>
   <g id="line2d_36">
    <path d="M 47.134096 259.675802 
L 51.88951 251.929866 
L 56.644924 240.040483 
L 61.400338 226.028713 
L 66.155753 211.353314 
L 70.911167 197.036834 
L 75.666581 183.76657 
L 80.421995 171.975045 
L 85.17741 161.903839 
L 89.932824 153.653913 
L 94.688238 147.225036 
L 99.443652 142.546411 
L 104.199067 139.500271 
L 108.954481 137.939829 
L 113.709895 137.702769 
L 118.465309 138.621196 
L 123.220724 140.528807 
L 127.976138 143.265907 
L 132.731552 146.682745 
L 137.486966 150.641587 
L 142.24238 155.017812 
L 146.997795 159.700309 
L 151.753209 164.591345 
L 156.508623 169.606081 
L 161.264037 174.671832 
L 166.019452 179.727182 
L 170.774866 184.72101 
L 175.53028 189.611483 
L 180.285694 194.365056 
L 185.041109 198.955499 
L 189.796523 203.362978 
L 194.551937 207.573195 
L 199.307351 211.576595 
L 204.062766 215.367649 
L 208.81818 218.944202 
L 213.573594 222.306894 
L 218.329008 225.45865 
L 223.084422 228.404226 
L 227.839837 231.149822 
L 232.595251 233.702739 
L 237.350665 236.07109 
L 242.106079 238.263556 
L 246.861494 240.289173 
L 251.616908 242.157165 
L 256.372322 243.876795 
L 261.127736 245.457251 
L 265.883151 246.907554 
L 270.638565 248.236479 
L 275.393979 249.452506 
L 280.149393 250.563771 
L 284.904808 251.578041 
L 289.660222 252.502691 
L 294.415636 253.344695 
L 299.17105 254.110622 
L 303.926464 254.806635 
L 308.681879 255.438501 
L 313.437293 256.011598 
L 318.192707 256.530931 
L 322.948121 257.001142 
L 327.703536 257.426529 
L 332.45895 257.811064 
L 337.214364 258.158408 
L 341.969778 258.47193 
L 346.725193 258.754727 
L 351.480607 259.009639 
L 356.236021 259.239266 
L 360.991435 259.445988 
L 365.74685 259.631978 
L 370.502264 259.799218 
L 375.257678 259.949513 
L 380.013092 260.084508 
L 384.768506 260.205695 
L 389.523921 260.314433 
L 394.279335 260.411952 
L 399.034749 260.499368 
L 403.790163 260.577692 
L 408.545578 260.647837 
L 412.704375 260.702753 
" clip-path="url(#pe3a367b62e)" style="fill: none; stroke: #ff7f0e; stroke-width: 1.5; stroke-linecap: square"/>
   </g>
   <g id="line2d_37">
    <path d="M 75.691216 260.700821 
L 77.696672 260.29372 
L 79.702128 259.655416 
L 81.707584 258.698439 
L 83.71304 257.320262 
L 85.718496 255.406385 
L 87.723952 252.835082 
L 89.729408 249.483563 
L 91.734864 245.235149 
L 93.74032 239.986935 
L 95.745776 233.657345 
L 97.751232 226.19301 
L 99.756688 217.574414 
L 101.762144 207.819892 
L 103.7676 196.987693 
L 105.773056 185.175975 
L 107.778512 172.520742 
L 109.783968 159.191894 
L 111.789424 145.387665 
L 113.79488 131.32782 
L 115.800336 117.24602 
L 117.805792 103.381792 
L 119.811248 89.972539 
L 121.816704 77.245948 
L 123.82216 65.413155 
L 125.827616 54.662891 
L 127.833072 45.156807 
L 129.838528 37.026066 
L 131.843984 30.369239 
L 133.84944 25.251458 
L 135.854896 21.704738 
L 137.860352 19.729339 
L 139.865808 19.296 
L 141.871265 20.348869 
L 143.876721 22.808944 
L 145.882177 26.577847 
L 147.887633 31.541758 
L 149.893089 37.575359 
L 151.898545 44.545659 
L 153.904001 52.315586 
L 155.909457 60.747277 
L 157.914913 69.70499 
L 159.920369 79.057605 
L 161.925825 88.680712 
L 163.931281 98.458259 
L 165.936737 108.283792 
L 167.942193 118.061314 
L 169.947649 127.70578 
L 171.953105 137.143284 
L 173.958561 146.310971 
L 175.964017 155.156724 
L 177.969473 163.638661 
L 179.974929 171.724495 
L 181.980385 179.390782 
L 183.985841 186.622105 
L 185.991297 193.410218 
L 187.996753 199.753176 
L 190.002209 205.654475 
L 192.007665 211.122222 
L 194.013121 216.168346 
L 196.018577 220.807863 
L 198.024033 225.058197 
L 200.029489 228.938573 
L 202.034945 232.469468 
L 204.040401 235.672134 
L 206.045857 238.568185 
L 208.051313 241.179245 
L 210.056769 243.526653 
L 212.062225 245.631226 
L 214.067681 247.513067 
L 216.073138 249.191419 
L 218.078594 250.684557 
L 220.08405 252.009712 
L 222.089506 253.183029 
L 224.094962 254.219545 
L 226.100418 255.133189 
L 228.105874 255.936801 
L 230.11133 256.642158 
L 232.116786 257.260018 
L 234.122242 257.800166 
L 236.127698 258.27147 
L 238.133154 258.681933 
L 240.13861 259.038758 
L 242.144066 259.348402 
L 244.149522 259.616636 
L 246.154978 259.848605 
L 248.160434 260.04888 
L 250.16589 260.221513 
L 252.171346 260.370084 
L 254.176802 260.497749 
L 256.182258 260.607285 
L 258.187714 260.701127 
L 260.19317 260.781409 
L 262.198626 260.849992 
L 264.204082 260.908502 
L 266.209538 260.958349 
L 268.214994 261.00076 
L 270.22045 261.036797 
L 272.225906 261.06738 
L 274.231362 261.093302 
" clip-path="url(#pe3a367b62e)" style="fill: none; stroke: #2ca02c; stroke-width: 1.5; stroke-linecap: square"/>
   </g>
   <g id="patch_3">
    <path d="M 44.203125 273.312 
L 44.203125 7.2 
" style="fill: none; stroke: #000000; stroke-width: 0.8; stroke-linejoin: miter; stroke-linecap: square"/>
   </g>
   <g id="patch_4">
    <path d="M 401.323125 273.312 
L 401.323125 7.2 
" style="fill: none; stroke: #000000; stroke-width: 0.8; stroke-linejoin: miter; stroke-linecap: square"/>
   </g>
   <g id="patch_5">
    <path d="M 44.203125 273.312 
L 401.323125 273.312 
" style="fill: none; stroke: #000000; stroke-width: 0.8; stroke-linejoin: miter; stroke-linecap: square"/>
   </g>
   <g id="patch_6">
    <path d="M 44.203125 7.2 
L 401.323125 7.2 
" style="fill: none; stroke: #000000; stroke-width: 0.8; stroke-linejoin: miter; stroke-linecap: square"/>
   </g>
   <g id="legend_1">
    <g id="patch_7">
     <path d="M 235.423125 59.6 
L 394.323125 59.6 
Q 396.323125 59.6 396.323125 57.6 
L 396.323125 14.2 
Q 396.323125 12.2 394.323125 12.2 
L 235.423125 12.2 
Q 233.423125 12.2 233.423125 14.2 
L 233.423125 57.6 
Q 233.423125 59.6 235.423125 59.6 
z
" style="fill: #ffffff; opacity: 0.8; stroke: #cccccc; stroke-linejoin: miter"/>
    </g>
    <g id="line2d_38">
     <path d="M 237.423125 20.4 
L 247.423125 20.4 
L 257.423125 20.4 
" style="fill: none; stroke: #1f77b4; stroke-width: 1.5; stroke-linecap: square"/>
    </g>
    <g id="text_20">
     <!-- $\alpha$=1, $\beta$=2.00,mean=2.0 -->
     <g transform="translate(265.423125 23.9) scale(0.1 -0.1)">
      <defs>
       <path id="DejaVuSans-3d" d="M 678 2906 
L 4684 2906 
L 4684 2381 
L 678 2381 
L 678 2906 
z
M 678 1631 
L 4684 1631 
L 4684 1100 
L 678 1100 
L 678 1631 
z
" transform="scale(0.015625)"/>
       <path id="DejaVuSans-20" transform="scale(0.015625)"/>
       <path id="DejaVuSans-65" d="M 3597 1894 
L 3597 1613 
L 953 1613 
Q 991 1019 1311 708 
Q 1631 397 2203 397 
Q 2534 397 2845 478 
Q 3156 559 3463 722 
L 3463 178 
Q 3153 47 2828 -22 
Q 2503 -91 2169 -91 
Q 1331 -91 842 396 
Q 353 884 353 1716 
Q 353 2575 817 3079 
Q 1281 3584 2069 3584 
Q 2775 3584 3186 3129 
Q 3597 2675 3597 1894 
z
M 3022 2063 
Q 3016 2534 2758 2815 
Q 2500 3097 2075 3097 
Q 1594 3097 1305 2825 
Q 1016 2553 972 2059 
L 3022 2063 
z
" transform="scale(0.015625)"/>
       <path id="DejaVuSans-6e" d="M 3513 2113 
L 3513 0 
L 2938 0 
L 2938 2094 
Q 2938 2591 2744 2837 
Q 2550 3084 2163 3084 
Q 1697 3084 1428 2787 
Q 1159 2491 1159 1978 
L 1159 0 
L 581 0 
L 581 3500 
L 1159 3500 
L 1159 2956 
Q 1366 3272 1645 3428 
Q 1925 3584 2291 3584 
Q 2894 3584 3203 3211 
Q 3513 2838 3513 2113 
z
" transform="scale(0.015625)"/>
      </defs>
      <use xlink:href="#DejaVuSans-Oblique-3b1" transform="translate(0 0.390625)"/>
      <use xlink:href="#DejaVuSans-3d" transform="translate(65.917969 0.390625)"/>
      <use xlink:href="#DejaVuSans-31" transform="translate(149.707031 0.390625)"/>
      <use xlink:href="#DejaVuSans-2c" transform="translate(213.330078 0.390625)"/>
      <use xlink:href="#DejaVuSans-20" transform="translate(245.117188 0.390625)"/>
      <use xlink:href="#DejaVuSans-Oblique-3b2" transform="translate(276.904297 0.390625)"/>
      <use xlink:href="#DejaVuSans-3d" transform="translate(340.722656 0.390625)"/>
      <use xlink:href="#DejaVuSans-32" transform="translate(424.511719 0.390625)"/>
      <use xlink:href="#DejaVuSans-2e" transform="translate(488.134766 0.390625)"/>
      <use xlink:href="#DejaVuSans-30" transform="translate(519.921875 0.390625)"/>
      <use xlink:href="#DejaVuSans-30" transform="translate(583.544922 0.390625)"/>
      <use xlink:href="#DejaVuSans-2c" transform="translate(647.167969 0.390625)"/>
      <use xlink:href="#DejaVuSans-6d" transform="translate(678.955078 0.390625)"/>
      <use xlink:href="#DejaVuSans-65" transform="translate(776.367188 0.390625)"/>
      <use xlink:href="#DejaVuSans-61" transform="translate(837.890625 0.390625)"/>
      <use xlink:href="#DejaVuSans-6e" transform="translate(899.169922 0.390625)"/>
      <use xlink:href="#DejaVuSans-3d" transform="translate(962.548828 0.390625)"/>
      <use xlink:href="#DejaVuSans-32" transform="translate(1046.337891 0.390625)"/>
      <use xlink:href="#DejaVuSans-2e" transform="translate(1109.960938 0.390625)"/>
      <use xlink:href="#DejaVuSans-30" transform="translate(1141.748047 0.390625)"/>
     </g>
    </g>
    <g id="line2d_39">
     <path d="M 237.423125 35.2 
L 247.423125 35.2 
L 257.423125 35.2 
" style="fill: none; stroke: #ff7f0e; stroke-width: 1.5; stroke-linecap: square"/>
    </g>
    <g id="text_21">
     <!-- $\alpha$=3, $\beta$=0.67,mean=2.0 -->
     <g transform="translate(265.423125 38.7) scale(0.1 -0.1)">
      <use xlink:href="#DejaVuSans-Oblique-3b1" transform="translate(0 0.390625)"/>
      <use xlink:href="#DejaVuSans-3d" transform="translate(65.917969 0.390625)"/>
      <use xlink:href="#DejaVuSans-33" transform="translate(149.707031 0.390625)"/>
      <use xlink:href="#DejaVuSans-2c" transform="translate(213.330078 0.390625)"/>
      <use xlink:href="#DejaVuSans-20" transform="translate(245.117188 0.390625)"/>
      <use xlink:href="#DejaVuSans-Oblique-3b2" transform="translate(276.904297 0.390625)"/>
      <use xlink:href="#DejaVuSans-3d" transform="translate(340.722656 0.390625)"/>
      <use xlink:href="#DejaVuSans-30" transform="translate(424.511719 0.390625)"/>
      <use xlink:href="#DejaVuSans-2e" transform="translate(488.134766 0.390625)"/>
      <use xlink:href="#DejaVuSans-36" transform="translate(519.921875 0.390625)"/>
      <use xlink:href="#DejaVuSans-37" transform="translate(583.544922 0.390625)"/>
      <use xlink:href="#DejaVuSans-2c" transform="translate(647.167969 0.390625)"/>
      <use xlink:href="#DejaVuSans-6d" transform="translate(678.955078 0.390625)"/>
      <use xlink:href="#DejaVuSans-65" transform="translate(776.367188 0.390625)"/>
      <use xlink:href="#DejaVuSans-61" transform="translate(837.890625 0.390625)"/>
      <use xlink:href="#DejaVuSans-6e" transform="translate(899.169922 0.390625)"/>
      <use xlink:href="#DejaVuSans-3d" transform="translate(962.548828 0.390625)"/>
      <use xlink:href="#DejaVuSans-32" transform="translate(1046.337891 0.390625)"/>
      <use xlink:href="#DejaVuSans-2e" transform="translate(1109.960938 0.390625)"/>
      <use xlink:href="#DejaVuSans-30" transform="translate(1141.748047 0.390625)"/>
     </g>
    </g>
    <g id="line2d_40">
     <path d="M 237.423125 50 
L 247.423125 50 
L 257.423125 50 
" style="fill: none; stroke: #2ca02c; stroke-width: 1.5; stroke-linecap: square"/>
    </g>
    <g id="text_22">
     <!-- $\alpha$=15, $\beta$=0.13,mean=2.0 -->
     <g transform="translate(265.423125 53.5) scale(0.1 -0.1)">
      <use xlink:href="#DejaVuSans-Oblique-3b1" transform="translate(0 0.390625)"/>
      <use xlink:href="#DejaVuSans-3d" transform="translate(65.917969 0.390625)"/>
      <use xlink:href="#DejaVuSans-31" transform="translate(149.707031 0.390625)"/>
      <use xlink:href="#DejaVuSans-35" transform="translate(213.330078 0.390625)"/>
      <use xlink:href="#DejaVuSans-2c" transform="translate(276.953125 0.390625)"/>
      <use xlink:href="#DejaVuSans-20" transform="translate(308.740234 0.390625)"/>
      <use xlink:href="#DejaVuSans-Oblique-3b2" transform="translate(340.527344 0.390625)"/>
      <use xlink:href="#DejaVuSans-3d" transform="translate(404.345703 0.390625)"/>
      <use xlink:href="#DejaVuSans-30" transform="translate(488.134766 0.390625)"/>
      <use xlink:href="#DejaVuSans-2e" transform="translate(551.757812 0.390625)"/>
      <use xlink:href="#DejaVuSans-31" transform="translate(583.544922 0.390625)"/>
      <use xlink:href="#DejaVuSans-33" transform="translate(647.167969 0.390625)"/>
      <use xlink:href="#DejaVuSans-2c" transform="translate(710.791016 0.390625)"/>
      <use xlink:href="#DejaVuSans-6d" transform="translate(742.578125 0.390625)"/>
      <use xlink:href="#DejaVuSans-65" transform="translate(839.990234 0.390625)"/>
      <use xlink:href="#DejaVuSans-61" transform="translate(901.513672 0.390625)"/>
      <use xlink:href="#DejaVuSans-6e" transform="translate(962.792969 0.390625)"/>
      <use xlink:href="#DejaVuSans-3d" transform="translate(1026.171875 0.390625)"/>
      <use xlink:href="#DejaVuSans-32" transform="translate(1109.960938 0.390625)"/>
      <use xlink:href="#DejaVuSans-2e" transform="translate(1173.583984 0.390625)"/>
      <use xlink:href="#DejaVuSans-30" transform="translate(1205.371094 0.390625)"/>
     </g>
    </g>
   </g>
  </g>
 </g>
 <defs>
  <clipPath id="pe3a367b62e">
   <rect x="44.203125" y="7.2" width="357.12" height="266.112"/>
  </clipPath>
 </defs>
</svg>
