<?xml version="1.0" encoding="utf-8" standalone="no"?>
<!DOCTYPE svg PUBLIC "-//W3C//DTD SVG 1.1//EN"
  "http://www.w3.org/Graphics/SVG/1.1/DTD/svg11.dtd">
<svg xmlns:xlink="http://www.w3.org/1999/xlink" width="394.423125pt" height="297.190125pt" viewBox="0 0 394.423125 297.190125" xmlns="http://www.w3.org/2000/svg" version="1.1">
 <metadata>
  <rdf:RDF xmlns:dc="http://purl.org/dc/elements/1.1/" xmlns:cc="http://creativecommons.org/ns#" xmlns:rdf="http://www.w3.org/1999/02/22-rdf-syntax-ns#">
   <cc:Work>
    <dc:type rdf:resource="http://purl.org/dc/dcmitype/StillImage"/>
    <dc:date>2024-02-16T00:09:01.161196</dc:date>
    <dc:format>image/svg+xml</dc:format>
    <dc:creator>
     <cc:Agent>
      <dc:title>Matplotlib v3.8.1, https://matplotlib.org/</dc:title>
     </cc:Agent>
    </dc:creator>
   </cc:Work>
  </rdf:RDF>
 </metadata>
 <defs>
  <style type="text/css">*{stroke-linejoin: round; stroke-linecap: butt}</style>
 </defs>
 <g id="figure_1">
  <g id="patch_1">
   <path d="M 0 297.190125 
L 394.423125 297.190125 
L 394.423125 0 
L 0 0 
z
" style="fill: #ffffff"/>
  </g>
  <g id="axes_1">
   <g id="patch_2">
    <path d="M 30.103125 273.312 
L 387.223125 273.312 
L 387.223125 7.2 
L 30.103125 7.2 
z
" style="fill: #ffffff"/>
   </g>
   <g id="PathCollection_1">
    <defs>
     <path id="mfc98ca09df" d="M 0 3 
C 0.795609 3 1.55874 2.683901 2.12132 2.12132 
C 2.683901 1.55874 3 0.795609 3 0 
C 3 -0.795609 2.683901 -1.55874 2.12132 -2.12132 
C 1.55874 -2.683901 0.795609 -3 0 -3 
C -0.795609 -3 -1.55874 -2.683901 -2.12132 -2.12132 
C -2.683901 -1.55874 -3 -0.795609 -3 0 
C -3 0.795609 -2.683901 1.55874 -2.12132 2.12132 
C -1.55874 2.683901 -0.795609 3 0 3 
z
" style="stroke: #1f77b4"/>
    </defs>
    <g clip-path="url(#p652c843dac)">
     <use xlink:href="#mfc98ca09df" x="46.335852" y="140.256" style="fill: #1f77b4; stroke: #1f77b4"/>
     <use xlink:href="#mfc98ca09df" x="74.227136" y="261.216" style="fill: #1f77b4; stroke: #1f77b4"/>
     <use xlink:href="#mfc98ca09df" x="88.061213" y="261.216" style="fill: #1f77b4; stroke: #1f77b4"/>
     <use xlink:href="#mfc98ca09df" x="47.674634" y="140.256" style="fill: #1f77b4; stroke: #1f77b4"/>
     <use xlink:href="#mfc98ca09df" x="51.914109" y="140.256" style="fill: #1f77b4; stroke: #1f77b4"/>
     <use xlink:href="#mfc98ca09df" x="50.352197" y="200.736" style="fill: #1f77b4; stroke: #1f77b4"/>
     <use xlink:href="#mfc98ca09df" x="50.352197" y="19.296" style="fill: #1f77b4; stroke: #1f77b4"/>
     <use xlink:href="#mfc98ca09df" x="46.558983" y="140.256" style="fill: #1f77b4; stroke: #1f77b4"/>
     <use xlink:href="#mfc98ca09df" x="50.575327" y="140.256" style="fill: #1f77b4; stroke: #1f77b4"/>
     <use xlink:href="#mfc98ca09df" x="46.782113" y="200.736" style="fill: #1f77b4; stroke: #1f77b4"/>
     <use xlink:href="#mfc98ca09df" x="48.567155" y="200.736" style="fill: #1f77b4; stroke: #1f77b4"/>
     <use xlink:href="#mfc98ca09df" x="50.575327" y="79.776" style="fill: #1f77b4; stroke: #1f77b4"/>
     <use xlink:href="#mfc98ca09df" x="48.790285" y="200.736" style="fill: #1f77b4; stroke: #1f77b4"/>
     <use xlink:href="#mfc98ca09df" x="91.854428" y="261.216" style="fill: #1f77b4; stroke: #1f77b4"/>
     <use xlink:href="#mfc98ca09df" x="52.5835" y="140.256" style="fill: #1f77b4; stroke: #1f77b4"/>
     <use xlink:href="#mfc98ca09df" x="49.236546" y="140.256" style="fill: #1f77b4; stroke: #1f77b4"/>
     <use xlink:href="#mfc98ca09df" x="88.061213" y="261.216" style="fill: #1f77b4; stroke: #1f77b4"/>
     <use xlink:href="#mfc98ca09df" x="90.738776" y="261.216" style="fill: #1f77b4; stroke: #1f77b4"/>
     <use xlink:href="#mfc98ca09df" x="48.344025" y="140.256" style="fill: #1f77b4; stroke: #1f77b4"/>
     <use xlink:href="#mfc98ca09df" x="49.682806" y="140.256" style="fill: #1f77b4; stroke: #1f77b4"/>
     <use xlink:href="#mfc98ca09df" x="50.352197" y="140.256" style="fill: #1f77b4; stroke: #1f77b4"/>
     <use xlink:href="#mfc98ca09df" x="52.5835" y="79.776" style="fill: #1f77b4; stroke: #1f77b4"/>
     <use xlink:href="#mfc98ca09df" x="46.335852" y="140.256" style="fill: #1f77b4; stroke: #1f77b4"/>
     <use xlink:href="#mfc98ca09df" x="47.674634" y="79.776" style="fill: #1f77b4; stroke: #1f77b4"/>
     <use xlink:href="#mfc98ca09df" x="51.021588" y="140.256" style="fill: #1f77b4; stroke: #1f77b4"/>
     <use xlink:href="#mfc98ca09df" x="47.228373" y="200.736" style="fill: #1f77b4; stroke: #1f77b4"/>
     <use xlink:href="#mfc98ca09df" x="47.005243" y="200.736" style="fill: #1f77b4; stroke: #1f77b4"/>
     <use xlink:href="#mfc98ca09df" x="92.523819" y="261.216" style="fill: #1f77b4; stroke: #1f77b4"/>
     <use xlink:href="#mfc98ca09df" x="73.780876" y="261.216" style="fill: #1f77b4; stroke: #1f77b4"/>
     <use xlink:href="#mfc98ca09df" x="51.914109" y="140.256" style="fill: #1f77b4; stroke: #1f77b4"/>
     <use xlink:href="#mfc98ca09df" x="87.391822" y="261.216" style="fill: #1f77b4; stroke: #1f77b4"/>
     <use xlink:href="#mfc98ca09df" x="46.782113" y="140.256" style="fill: #1f77b4; stroke: #1f77b4"/>
     <use xlink:href="#mfc98ca09df" x="47.005243" y="200.736" style="fill: #1f77b4; stroke: #1f77b4"/>
     <use xlink:href="#mfc98ca09df" x="48.790285" y="140.256" style="fill: #1f77b4; stroke: #1f77b4"/>
     <use xlink:href="#mfc98ca09df" x="47.451504" y="200.736" style="fill: #1f77b4; stroke: #1f77b4"/>
     <use xlink:href="#mfc98ca09df" x="50.352197" y="200.736" style="fill: #1f77b4; stroke: #1f77b4"/>
     <use xlink:href="#mfc98ca09df" x="50.352197" y="140.256" style="fill: #1f77b4; stroke: #1f77b4"/>
     <use xlink:href="#mfc98ca09df" x="51.914109" y="79.776" style="fill: #1f77b4; stroke: #1f77b4"/>
     <use xlink:href="#mfc98ca09df" x="51.244718" y="79.776" style="fill: #1f77b4; stroke: #1f77b4"/>
     <use xlink:href="#mfc98ca09df" x="47.005243" y="140.256" style="fill: #1f77b4; stroke: #1f77b4"/>
     <use xlink:href="#mfc98ca09df" x="51.244718" y="140.256" style="fill: #1f77b4; stroke: #1f77b4"/>
     <use xlink:href="#mfc98ca09df" x="90.738776" y="261.216" style="fill: #1f77b4; stroke: #1f77b4"/>
     <use xlink:href="#mfc98ca09df" x="50.352197" y="200.736" style="fill: #1f77b4; stroke: #1f77b4"/>
     <use xlink:href="#mfc98ca09df" x="47.005243" y="200.736" style="fill: #1f77b4; stroke: #1f77b4"/>
     <use xlink:href="#mfc98ca09df" x="49.459676" y="79.776" style="fill: #1f77b4; stroke: #1f77b4"/>
     <use xlink:href="#mfc98ca09df" x="87.168692" y="261.216" style="fill: #1f77b4; stroke: #1f77b4"/>
     <use xlink:href="#mfc98ca09df" x="51.021588" y="140.256" style="fill: #1f77b4; stroke: #1f77b4"/>
     <use xlink:href="#mfc98ca09df" x="51.690979" y="79.776" style="fill: #1f77b4; stroke: #1f77b4"/>
     <use xlink:href="#mfc98ca09df" x="46.558983" y="140.256" style="fill: #1f77b4; stroke: #1f77b4"/>
     <use xlink:href="#mfc98ca09df" x="47.228373" y="140.256" style="fill: #1f77b4; stroke: #1f77b4"/>
     <use xlink:href="#mfc98ca09df" x="90.069386" y="261.216" style="fill: #1f77b4; stroke: #1f77b4"/>
     <use xlink:href="#mfc98ca09df" x="51.690979" y="79.776" style="fill: #1f77b4; stroke: #1f77b4"/>
     <use xlink:href="#mfc98ca09df" x="47.897764" y="140.256" style="fill: #1f77b4; stroke: #1f77b4"/>
     <use xlink:href="#mfc98ca09df" x="48.120894" y="140.256" style="fill: #1f77b4; stroke: #1f77b4"/>
     <use xlink:href="#mfc98ca09df" x="47.897764" y="200.736" style="fill: #1f77b4; stroke: #1f77b4"/>
     <use xlink:href="#mfc98ca09df" x="49.682806" y="200.736" style="fill: #1f77b4; stroke: #1f77b4"/>
     <use xlink:href="#mfc98ca09df" x="51.690979" y="140.256" style="fill: #1f77b4; stroke: #1f77b4"/>
     <use xlink:href="#mfc98ca09df" x="49.682806" y="140.256" style="fill: #1f77b4; stroke: #1f77b4"/>
     <use xlink:href="#mfc98ca09df" x="51.021588" y="79.776" style="fill: #1f77b4; stroke: #1f77b4"/>
     <use xlink:href="#mfc98ca09df" x="48.790285" y="140.256" style="fill: #1f77b4; stroke: #1f77b4"/>
     <use xlink:href="#mfc98ca09df" x="50.352197" y="140.256" style="fill: #1f77b4; stroke: #1f77b4"/>
     <use xlink:href="#mfc98ca09df" x="49.905937" y="140.256" style="fill: #1f77b4; stroke: #1f77b4"/>
     <use xlink:href="#mfc98ca09df" x="52.36037" y="140.256" style="fill: #1f77b4; stroke: #1f77b4"/>
     <use xlink:href="#mfc98ca09df" x="48.344025" y="140.256" style="fill: #1f77b4; stroke: #1f77b4"/>
     <use xlink:href="#mfc98ca09df" x="51.244718" y="79.776" style="fill: #1f77b4; stroke: #1f77b4"/>
     <use xlink:href="#mfc98ca09df" x="87.614953" y="261.216" style="fill: #1f77b4; stroke: #1f77b4"/>
     <use xlink:href="#mfc98ca09df" x="47.451504" y="140.256" style="fill: #1f77b4; stroke: #1f77b4"/>
     <use xlink:href="#mfc98ca09df" x="90.069386" y="261.216" style="fill: #1f77b4; stroke: #1f77b4"/>
     <use xlink:href="#mfc98ca09df" x="89.846255" y="261.216" style="fill: #1f77b4; stroke: #1f77b4"/>
     <use xlink:href="#mfc98ca09df" x="51.021588" y="140.256" style="fill: #1f77b4; stroke: #1f77b4"/>
     <use xlink:href="#mfc98ca09df" x="93.193209" y="261.216" style="fill: #1f77b4; stroke: #1f77b4"/>
     <use xlink:href="#mfc98ca09df" x="46.335852" y="79.776" style="fill: #1f77b4; stroke: #1f77b4"/>
     <use xlink:href="#mfc98ca09df" x="48.567155" y="140.256" style="fill: #1f77b4; stroke: #1f77b4"/>
     <use xlink:href="#mfc98ca09df" x="50.575327" y="140.256" style="fill: #1f77b4; stroke: #1f77b4"/>
     <use xlink:href="#mfc98ca09df" x="370.990398" y="261.216" style="fill: #1f77b4; stroke: #1f77b4"/>
     <use xlink:href="#mfc98ca09df" x="52.5835" y="79.776" style="fill: #1f77b4; stroke: #1f77b4"/>
     <use xlink:href="#mfc98ca09df" x="52.80663" y="140.256" style="fill: #1f77b4; stroke: #1f77b4"/>
     <use xlink:href="#mfc98ca09df" x="86.945562" y="261.216" style="fill: #1f77b4; stroke: #1f77b4"/>
     <use xlink:href="#mfc98ca09df" x="89.846255" y="261.216" style="fill: #1f77b4; stroke: #1f77b4"/>
     <use xlink:href="#mfc98ca09df" x="49.459676" y="79.776" style="fill: #1f77b4; stroke: #1f77b4"/>
     <use xlink:href="#mfc98ca09df" x="47.228373" y="200.736" style="fill: #1f77b4; stroke: #1f77b4"/>
     <use xlink:href="#mfc98ca09df" x="48.344025" y="140.256" style="fill: #1f77b4; stroke: #1f77b4"/>
     <use xlink:href="#mfc98ca09df" x="49.013416" y="140.256" style="fill: #1f77b4; stroke: #1f77b4"/>
     <use xlink:href="#mfc98ca09df" x="51.690979" y="140.256" style="fill: #1f77b4; stroke: #1f77b4"/>
     <use xlink:href="#mfc98ca09df" x="49.013416" y="79.776" style="fill: #1f77b4; stroke: #1f77b4"/>
     <use xlink:href="#mfc98ca09df" x="50.352197" y="79.776" style="fill: #1f77b4; stroke: #1f77b4"/>
     <use xlink:href="#mfc98ca09df" x="50.575327" y="140.256" style="fill: #1f77b4; stroke: #1f77b4"/>
     <use xlink:href="#mfc98ca09df" x="92.300688" y="261.216" style="fill: #1f77b4; stroke: #1f77b4"/>
     <use xlink:href="#mfc98ca09df" x="46.558983" y="200.736" style="fill: #1f77b4; stroke: #1f77b4"/>
     <use xlink:href="#mfc98ca09df" x="46.558983" y="200.736" style="fill: #1f77b4; stroke: #1f77b4"/>
     <use xlink:href="#mfc98ca09df" x="51.467849" y="140.256" style="fill: #1f77b4; stroke: #1f77b4"/>
     <use xlink:href="#mfc98ca09df" x="52.5835" y="79.776" style="fill: #1f77b4; stroke: #1f77b4"/>
     <use xlink:href="#mfc98ca09df" x="52.36037" y="140.256" style="fill: #1f77b4; stroke: #1f77b4"/>
     <use xlink:href="#mfc98ca09df" x="48.790285" y="140.256" style="fill: #1f77b4; stroke: #1f77b4"/>
     <use xlink:href="#mfc98ca09df" x="52.36037" y="140.256" style="fill: #1f77b4; stroke: #1f77b4"/>
     <use xlink:href="#mfc98ca09df" x="46.558983" y="140.256" style="fill: #1f77b4; stroke: #1f77b4"/>
     <use xlink:href="#mfc98ca09df" x="87.391822" y="261.216" style="fill: #1f77b4; stroke: #1f77b4"/>
     <use xlink:href="#mfc98ca09df" x="46.558983" y="140.256" style="fill: #1f77b4; stroke: #1f77b4"/>
     <use xlink:href="#mfc98ca09df" x="88.061213" y="261.216" style="fill: #1f77b4; stroke: #1f77b4"/>
     <use xlink:href="#mfc98ca09df" x="50.798458" y="200.736" style="fill: #1f77b4; stroke: #1f77b4"/>
    </g>
   </g>
   <g id="matplotlib.axis_1">
    <g id="xtick_1">
     <g id="line2d_1">
      <defs>
       <path id="mf84511b2f6" d="M 0 0 
L 0 3.5 
" style="stroke: #000000; stroke-width: 0.8"/>
      </defs>
      <g>
       <use xlink:href="#mf84511b2f6" x="46.112722" y="273.312" style="stroke: #000000; stroke-width: 0.8"/>
      </g>
     </g>
     <g id="text_1">
      <!-- 0 -->
      <g transform="translate(42.931472 287.910437) scale(0.1 -0.1)">
       <defs>
        <path id="DejaVuSans-30" d="M 2034 4250 
Q 1547 4250 1301 3770 
Q 1056 3291 1056 2328 
Q 1056 1369 1301 889 
Q 1547 409 2034 409 
Q 2525 409 2770 889 
Q 3016 1369 3016 2328 
Q 3016 3291 2770 3770 
Q 2525 4250 2034 4250 
z
M 2034 4750 
Q 2819 4750 3233 4129 
Q 3647 3509 3647 2328 
Q 3647 1150 3233 529 
Q 2819 -91 2034 -91 
Q 1250 -91 836 529 
Q 422 1150 422 2328 
Q 422 3509 836 4129 
Q 1250 4750 2034 4750 
z
" transform="scale(0.015625)"/>
       </defs>
       <use xlink:href="#DejaVuSans-30"/>
      </g>
     </g>
    </g>
    <g id="xtick_2">
     <g id="line2d_2">
      <g>
       <use xlink:href="#mf84511b2f6" x="90.738776" y="273.312" style="stroke: #000000; stroke-width: 0.8"/>
      </g>
     </g>
     <g id="text_2">
      <!-- 200 -->
      <g transform="translate(81.195026 287.910437) scale(0.1 -0.1)">
       <defs>
        <path id="DejaVuSans-32" d="M 1228 531 
L 3431 531 
L 3431 0 
L 469 0 
L 469 531 
Q 828 903 1448 1529 
Q 2069 2156 2228 2338 
Q 2531 2678 2651 2914 
Q 2772 3150 2772 3378 
Q 2772 3750 2511 3984 
Q 2250 4219 1831 4219 
Q 1534 4219 1204 4116 
Q 875 4013 500 3803 
L 500 4441 
Q 881 4594 1212 4672 
Q 1544 4750 1819 4750 
Q 2544 4750 2975 4387 
Q 3406 4025 3406 3419 
Q 3406 3131 3298 2873 
Q 3191 2616 2906 2266 
Q 2828 2175 2409 1742 
Q 1991 1309 1228 531 
z
" transform="scale(0.015625)"/>
       </defs>
       <use xlink:href="#DejaVuSans-32"/>
       <use xlink:href="#DejaVuSans-30" x="63.623047"/>
       <use xlink:href="#DejaVuSans-30" x="127.246094"/>
      </g>
     </g>
    </g>
    <g id="xtick_3">
     <g id="line2d_3">
      <g>
       <use xlink:href="#mf84511b2f6" x="135.364831" y="273.312" style="stroke: #000000; stroke-width: 0.8"/>
      </g>
     </g>
     <g id="text_3">
      <!-- 400 -->
      <g transform="translate(125.821081 287.910437) scale(0.1 -0.1)">
       <defs>
        <path id="DejaVuSans-34" d="M 2419 4116 
L 825 1625 
L 2419 1625 
L 2419 4116 
z
M 2253 4666 
L 3047 4666 
L 3047 1625 
L 3713 1625 
L 3713 1100 
L 3047 1100 
L 3047 0 
L 2419 0 
L 2419 1100 
L 313 1100 
L 313 1709 
L 2253 4666 
z
" transform="scale(0.015625)"/>
       </defs>
       <use xlink:href="#DejaVuSans-34"/>
       <use xlink:href="#DejaVuSans-30" x="63.623047"/>
       <use xlink:href="#DejaVuSans-30" x="127.246094"/>
      </g>
     </g>
    </g>
    <g id="xtick_4">
     <g id="line2d_4">
      <g>
       <use xlink:href="#mf84511b2f6" x="179.990885" y="273.312" style="stroke: #000000; stroke-width: 0.8"/>
      </g>
     </g>
     <g id="text_4">
      <!-- 600 -->
      <g transform="translate(170.447135 287.910437) scale(0.1 -0.1)">
       <defs>
        <path id="DejaVuSans-36" d="M 2113 2584 
Q 1688 2584 1439 2293 
Q 1191 2003 1191 1497 
Q 1191 994 1439 701 
Q 1688 409 2113 409 
Q 2538 409 2786 701 
Q 3034 994 3034 1497 
Q 3034 2003 2786 2293 
Q 2538 2584 2113 2584 
z
M 3366 4563 
L 3366 3988 
Q 3128 4100 2886 4159 
Q 2644 4219 2406 4219 
Q 1781 4219 1451 3797 
Q 1122 3375 1075 2522 
Q 1259 2794 1537 2939 
Q 1816 3084 2150 3084 
Q 2853 3084 3261 2657 
Q 3669 2231 3669 1497 
Q 3669 778 3244 343 
Q 2819 -91 2113 -91 
Q 1303 -91 875 529 
Q 447 1150 447 2328 
Q 447 3434 972 4092 
Q 1497 4750 2381 4750 
Q 2619 4750 2861 4703 
Q 3103 4656 3366 4563 
z
" transform="scale(0.015625)"/>
       </defs>
       <use xlink:href="#DejaVuSans-36"/>
       <use xlink:href="#DejaVuSans-30" x="63.623047"/>
       <use xlink:href="#DejaVuSans-30" x="127.246094"/>
      </g>
     </g>
    </g>
    <g id="xtick_5">
     <g id="line2d_5">
      <g>
       <use xlink:href="#mf84511b2f6" x="224.616939" y="273.312" style="stroke: #000000; stroke-width: 0.8"/>
      </g>
     </g>
     <g id="text_5">
      <!-- 800 -->
      <g transform="translate(215.073189 287.910437) scale(0.1 -0.1)">
       <defs>
        <path id="DejaVuSans-38" d="M 2034 2216 
Q 1584 2216 1326 1975 
Q 1069 1734 1069 1313 
Q 1069 891 1326 650 
Q 1584 409 2034 409 
Q 2484 409 2743 651 
Q 3003 894 3003 1313 
Q 3003 1734 2745 1975 
Q 2488 2216 2034 2216 
z
M 1403 2484 
Q 997 2584 770 2862 
Q 544 3141 544 3541 
Q 544 4100 942 4425 
Q 1341 4750 2034 4750 
Q 2731 4750 3128 4425 
Q 3525 4100 3525 3541 
Q 3525 3141 3298 2862 
Q 3072 2584 2669 2484 
Q 3125 2378 3379 2068 
Q 3634 1759 3634 1313 
Q 3634 634 3220 271 
Q 2806 -91 2034 -91 
Q 1263 -91 848 271 
Q 434 634 434 1313 
Q 434 1759 690 2068 
Q 947 2378 1403 2484 
z
M 1172 3481 
Q 1172 3119 1398 2916 
Q 1625 2713 2034 2713 
Q 2441 2713 2670 2916 
Q 2900 3119 2900 3481 
Q 2900 3844 2670 4047 
Q 2441 4250 2034 4250 
Q 1625 4250 1398 4047 
Q 1172 3844 1172 3481 
z
" transform="scale(0.015625)"/>
       </defs>
       <use xlink:href="#DejaVuSans-38"/>
       <use xlink:href="#DejaVuSans-30" x="63.623047"/>
       <use xlink:href="#DejaVuSans-30" x="127.246094"/>
      </g>
     </g>
    </g>
    <g id="xtick_6">
     <g id="line2d_6">
      <g>
       <use xlink:href="#mf84511b2f6" x="269.242994" y="273.312" style="stroke: #000000; stroke-width: 0.8"/>
      </g>
     </g>
     <g id="text_6">
      <!-- 1000 -->
      <g transform="translate(256.517994 287.910437) scale(0.1 -0.1)">
       <defs>
        <path id="DejaVuSans-31" d="M 794 531 
L 1825 531 
L 1825 4091 
L 703 3866 
L 703 4441 
L 1819 4666 
L 2450 4666 
L 2450 531 
L 3481 531 
L 3481 0 
L 794 0 
L 794 531 
z
" transform="scale(0.015625)"/>
       </defs>
       <use xlink:href="#DejaVuSans-31"/>
       <use xlink:href="#DejaVuSans-30" x="63.623047"/>
       <use xlink:href="#DejaVuSans-30" x="127.246094"/>
       <use xlink:href="#DejaVuSans-30" x="190.869141"/>
      </g>
     </g>
    </g>
    <g id="xtick_7">
     <g id="line2d_7">
      <g>
       <use xlink:href="#mf84511b2f6" x="313.869048" y="273.312" style="stroke: #000000; stroke-width: 0.8"/>
      </g>
     </g>
     <g id="text_7">
      <!-- 1200 -->
      <g transform="translate(301.144048 287.910437) scale(0.1 -0.1)">
       <use xlink:href="#DejaVuSans-31"/>
       <use xlink:href="#DejaVuSans-32" x="63.623047"/>
       <use xlink:href="#DejaVuSans-30" x="127.246094"/>
       <use xlink:href="#DejaVuSans-30" x="190.869141"/>
      </g>
     </g>
    </g>
    <g id="xtick_8">
     <g id="line2d_8">
      <g>
       <use xlink:href="#mf84511b2f6" x="358.495103" y="273.312" style="stroke: #000000; stroke-width: 0.8"/>
      </g>
     </g>
     <g id="text_8">
      <!-- 1400 -->
      <g transform="translate(345.770103 287.910437) scale(0.1 -0.1)">
       <use xlink:href="#DejaVuSans-31"/>
       <use xlink:href="#DejaVuSans-34" x="63.623047"/>
       <use xlink:href="#DejaVuSans-30" x="127.246094"/>
       <use xlink:href="#DejaVuSans-30" x="190.869141"/>
      </g>
     </g>
    </g>
   </g>
   <g id="matplotlib.axis_2">
    <g id="ytick_1">
     <g id="line2d_9">
      <defs>
       <path id="md2d0788b41" d="M 0 0 
L -3.5 0 
" style="stroke: #000000; stroke-width: 0.8"/>
      </defs>
      <g>
       <use xlink:href="#md2d0788b41" x="30.103125" y="261.216" style="stroke: #000000; stroke-width: 0.8"/>
      </g>
     </g>
     <g id="text_9">
      <!-- 0.0 -->
      <g transform="translate(7.2 265.015219) scale(0.1 -0.1)">
       <defs>
        <path id="DejaVuSans-2e" d="M 684 794 
L 1344 794 
L 1344 0 
L 684 0 
L 684 794 
z
" transform="scale(0.015625)"/>
       </defs>
       <use xlink:href="#DejaVuSans-30"/>
       <use xlink:href="#DejaVuSans-2e" x="63.623047"/>
       <use xlink:href="#DejaVuSans-30" x="95.410156"/>
      </g>
     </g>
    </g>
    <g id="ytick_2">
     <g id="line2d_10">
      <g>
       <use xlink:href="#md2d0788b41" x="30.103125" y="230.976" style="stroke: #000000; stroke-width: 0.8"/>
      </g>
     </g>
     <g id="text_10">
      <!-- 0.5 -->
      <g transform="translate(7.2 234.775219) scale(0.1 -0.1)">
       <defs>
        <path id="DejaVuSans-35" d="M 691 4666 
L 3169 4666 
L 3169 4134 
L 1269 4134 
L 1269 2991 
Q 1406 3038 1543 3061 
Q 1681 3084 1819 3084 
Q 2600 3084 3056 2656 
Q 3513 2228 3513 1497 
Q 3513 744 3044 326 
Q 2575 -91 1722 -91 
Q 1428 -91 1123 -41 
Q 819 9 494 109 
L 494 744 
Q 775 591 1075 516 
Q 1375 441 1709 441 
Q 2250 441 2565 725 
Q 2881 1009 2881 1497 
Q 2881 1984 2565 2268 
Q 2250 2553 1709 2553 
Q 1456 2553 1204 2497 
Q 953 2441 691 2322 
L 691 4666 
z
" transform="scale(0.015625)"/>
       </defs>
       <use xlink:href="#DejaVuSans-30"/>
       <use xlink:href="#DejaVuSans-2e" x="63.623047"/>
       <use xlink:href="#DejaVuSans-35" x="95.410156"/>
      </g>
     </g>
    </g>
    <g id="ytick_3">
     <g id="line2d_11">
      <g>
       <use xlink:href="#md2d0788b41" x="30.103125" y="200.736" style="stroke: #000000; stroke-width: 0.8"/>
      </g>
     </g>
     <g id="text_11">
      <!-- 1.0 -->
      <g transform="translate(7.2 204.535219) scale(0.1 -0.1)">
       <use xlink:href="#DejaVuSans-31"/>
       <use xlink:href="#DejaVuSans-2e" x="63.623047"/>
       <use xlink:href="#DejaVuSans-30" x="95.410156"/>
      </g>
     </g>
    </g>
    <g id="ytick_4">
     <g id="line2d_12">
      <g>
       <use xlink:href="#md2d0788b41" x="30.103125" y="170.496" style="stroke: #000000; stroke-width: 0.8"/>
      </g>
     </g>
     <g id="text_12">
      <!-- 1.5 -->
      <g transform="translate(7.2 174.295219) scale(0.1 -0.1)">
       <use xlink:href="#DejaVuSans-31"/>
       <use xlink:href="#DejaVuSans-2e" x="63.623047"/>
       <use xlink:href="#DejaVuSans-35" x="95.410156"/>
      </g>
     </g>
    </g>
    <g id="ytick_5">
     <g id="line2d_13">
      <g>
       <use xlink:href="#md2d0788b41" x="30.103125" y="140.256" style="stroke: #000000; stroke-width: 0.8"/>
      </g>
     </g>
     <g id="text_13">
      <!-- 2.0 -->
      <g transform="translate(7.2 144.055219) scale(0.1 -0.1)">
       <use xlink:href="#DejaVuSans-32"/>
       <use xlink:href="#DejaVuSans-2e" x="63.623047"/>
       <use xlink:href="#DejaVuSans-30" x="95.410156"/>
      </g>
     </g>
    </g>
    <g id="ytick_6">
     <g id="line2d_14">
      <g>
       <use xlink:href="#md2d0788b41" x="30.103125" y="110.016" style="stroke: #000000; stroke-width: 0.8"/>
      </g>
     </g>
     <g id="text_14">
      <!-- 2.5 -->
      <g transform="translate(7.2 113.815219) scale(0.1 -0.1)">
       <use xlink:href="#DejaVuSans-32"/>
       <use xlink:href="#DejaVuSans-2e" x="63.623047"/>
       <use xlink:href="#DejaVuSans-35" x="95.410156"/>
      </g>
     </g>
    </g>
    <g id="ytick_7">
     <g id="line2d_15">
      <g>
       <use xlink:href="#md2d0788b41" x="30.103125" y="79.776" style="stroke: #000000; stroke-width: 0.8"/>
      </g>
     </g>
     <g id="text_15">
      <!-- 3.0 -->
      <g transform="translate(7.2 83.575219) scale(0.1 -0.1)">
       <defs>
        <path id="DejaVuSans-33" d="M 2597 2516 
Q 3050 2419 3304 2112 
Q 3559 1806 3559 1356 
Q 3559 666 3084 287 
Q 2609 -91 1734 -91 
Q 1441 -91 1130 -33 
Q 819 25 488 141 
L 488 750 
Q 750 597 1062 519 
Q 1375 441 1716 441 
Q 2309 441 2620 675 
Q 2931 909 2931 1356 
Q 2931 1769 2642 2001 
Q 2353 2234 1838 2234 
L 1294 2234 
L 1294 2753 
L 1863 2753 
Q 2328 2753 2575 2939 
Q 2822 3125 2822 3475 
Q 2822 3834 2567 4026 
Q 2313 4219 1838 4219 
Q 1578 4219 1281 4162 
Q 984 4106 628 3988 
L 628 4550 
Q 988 4650 1302 4700 
Q 1616 4750 1894 4750 
Q 2613 4750 3031 4423 
Q 3450 4097 3450 3541 
Q 3450 3153 3228 2886 
Q 3006 2619 2597 2516 
z
" transform="scale(0.015625)"/>
       </defs>
       <use xlink:href="#DejaVuSans-33"/>
       <use xlink:href="#DejaVuSans-2e" x="63.623047"/>
       <use xlink:href="#DejaVuSans-30" x="95.410156"/>
      </g>
     </g>
    </g>
    <g id="ytick_8">
     <g id="line2d_16">
      <g>
       <use xlink:href="#md2d0788b41" x="30.103125" y="49.536" style="stroke: #000000; stroke-width: 0.8"/>
      </g>
     </g>
     <g id="text_16">
      <!-- 3.5 -->
      <g transform="translate(7.2 53.335219) scale(0.1 -0.1)">
       <use xlink:href="#DejaVuSans-33"/>
       <use xlink:href="#DejaVuSans-2e" x="63.623047"/>
       <use xlink:href="#DejaVuSans-35" x="95.410156"/>
      </g>
     </g>
    </g>
    <g id="ytick_9">
     <g id="line2d_17">
      <g>
       <use xlink:href="#md2d0788b41" x="30.103125" y="19.296" style="stroke: #000000; stroke-width: 0.8"/>
      </g>
     </g>
     <g id="text_17">
      <!-- 4.0 -->
      <g transform="translate(7.2 23.095219) scale(0.1 -0.1)">
       <use xlink:href="#DejaVuSans-34"/>
       <use xlink:href="#DejaVuSans-2e" x="63.623047"/>
       <use xlink:href="#DejaVuSans-30" x="95.410156"/>
      </g>
     </g>
    </g>
   </g>
   <g id="patch_3">
    <path d="M 30.103125 273.312 
L 30.103125 7.2 
" style="fill: none; stroke: #000000; stroke-width: 0.8; stroke-linejoin: miter; stroke-linecap: square"/>
   </g>
   <g id="patch_4">
    <path d="M 387.223125 273.312 
L 387.223125 7.2 
" style="fill: none; stroke: #000000; stroke-width: 0.8; stroke-linejoin: miter; stroke-linecap: square"/>
   </g>
   <g id="patch_5">
    <path d="M 30.103125 273.312 
L 387.223125 273.312 
" style="fill: none; stroke: #000000; stroke-width: 0.8; stroke-linejoin: miter; stroke-linecap: square"/>
   </g>
   <g id="patch_6">
    <path d="M 30.103125 7.2 
L 387.223125 7.2 
" style="fill: none; stroke: #000000; stroke-width: 0.8; stroke-linejoin: miter; stroke-linecap: square"/>
   </g>
  </g>
 </g>
 <defs>
  <clipPath id="p652c843dac">
   <rect x="30.103125" y="7.2" width="357.12" height="266.112"/>
  </clipPath>
 </defs>
</svg>
