<?xml version="1.0" encoding="utf-8" standalone="no"?>
<!DOCTYPE svg PUBLIC "-//W3C//DTD SVG 1.1//EN"
  "http://www.w3.org/Graphics/SVG/1.1/DTD/svg11.dtd">
<svg xmlns:xlink="http://www.w3.org/1999/xlink" width="394.423125pt" height="297.190125pt" viewBox="0 0 394.423125 297.190125" xmlns="http://www.w3.org/2000/svg" version="1.1">
 <metadata>
  <rdf:RDF xmlns:dc="http://purl.org/dc/elements/1.1/" xmlns:cc="http://creativecommons.org/ns#" xmlns:rdf="http://www.w3.org/1999/02/22-rdf-syntax-ns#">
   <cc:Work>
    <dc:type rdf:resource="http://purl.org/dc/dcmitype/StillImage"/>
    <dc:date>2024-02-16T00:09:01.241321</dc:date>
    <dc:format>image/svg+xml</dc:format>
    <dc:creator>
     <cc:Agent>
      <dc:title>Matplotlib v3.8.1, https://matplotlib.org/</dc:title>
     </cc:Agent>
    </dc:creator>
   </cc:Work>
  </rdf:RDF>
 </metadata>
 <defs>
  <style type="text/css">*{stroke-linejoin: round; stroke-linecap: butt}</style>
 </defs>
 <g id="figure_1">
  <g id="patch_1">
   <path d="M 0 297.190125 
L 394.423125 297.190125 
L 394.423125 0 
L 0 0 
z
" style="fill: #ffffff"/>
  </g>
  <g id="axes_1">
   <g id="patch_2">
    <path d="M 30.103125 273.312 
L 387.223125 273.312 
L 387.223125 7.2 
L 30.103125 7.2 
z
" style="fill: #ffffff"/>
   </g>
   <g id="PathCollection_1">
    <defs>
     <path id="m44c0862d89" d="M 0 3 
C 0.795609 3 1.55874 2.683901 2.12132 2.12132 
C 2.683901 1.55874 3 0.795609 3 0 
C 3 -0.795609 2.683901 -1.55874 2.12132 -2.12132 
C 1.55874 -2.683901 0.795609 -3 0 -3 
C -0.795609 -3 -1.55874 -2.683901 -2.12132 -2.12132 
C -2.683901 -1.55874 -3 -0.795609 -3 0 
C -3 0.795609 -2.683901 1.55874 -2.12132 2.12132 
C -1.55874 2.683901 -0.795609 3 0 3 
z
" style="stroke: #1f77b4"/>
    </defs>
    <g clip-path="url(#p44136ebd5b)">
     <use xlink:href="#m44c0862d89" x="366.39623" y="261.216" style="fill: #1f77b4; stroke: #1f77b4"/>
     <use xlink:href="#m44c0862d89" x="58.586967" y="99.936" style="fill: #1f77b4; stroke: #1f77b4"/>
     <use xlink:href="#m44c0862d89" x="268.38731" y="261.216" style="fill: #1f77b4; stroke: #1f77b4"/>
     <use xlink:href="#m44c0862d89" x="49.398631" y="99.936" style="fill: #1f77b4; stroke: #1f77b4"/>
     <use xlink:href="#m44c0862d89" x="337.299832" y="261.216" style="fill: #1f77b4; stroke: #1f77b4"/>
     <use xlink:href="#m44c0862d89" x="55.524188" y="180.576" style="fill: #1f77b4; stroke: #1f77b4"/>
     <use xlink:href="#m44c0862d89" x="236.228134" y="261.216" style="fill: #1f77b4; stroke: #1f77b4"/>
     <use xlink:href="#m44c0862d89" x="66.243914" y="180.576" style="fill: #1f77b4; stroke: #1f77b4"/>
     <use xlink:href="#m44c0862d89" x="52.46141" y="180.576" style="fill: #1f77b4; stroke: #1f77b4"/>
     <use xlink:href="#m44c0862d89" x="81.557808" y="180.576" style="fill: #1f77b4; stroke: #1f77b4"/>
     <use xlink:href="#m44c0862d89" x="49.398631" y="99.936" style="fill: #1f77b4; stroke: #1f77b4"/>
     <use xlink:href="#m44c0862d89" x="90.746144" y="180.576" style="fill: #1f77b4; stroke: #1f77b4"/>
     <use xlink:href="#m44c0862d89" x="370.990398" y="261.216" style="fill: #1f77b4; stroke: #1f77b4"/>
     <use xlink:href="#m44c0862d89" x="83.089197" y="99.936" style="fill: #1f77b4; stroke: #1f77b4"/>
     <use xlink:href="#m44c0862d89" x="60.118357" y="99.936" style="fill: #1f77b4; stroke: #1f77b4"/>
     <use xlink:href="#m44c0862d89" x="338.831221" y="261.216" style="fill: #1f77b4; stroke: #1f77b4"/>
     <use xlink:href="#m44c0862d89" x="60.118357" y="99.936" style="fill: #1f77b4; stroke: #1f77b4"/>
     <use xlink:href="#m44c0862d89" x="331.174274" y="261.216" style="fill: #1f77b4; stroke: #1f77b4"/>
     <use xlink:href="#m44c0862d89" x="84.620586" y="99.936" style="fill: #1f77b4; stroke: #1f77b4"/>
     <use xlink:href="#m44c0862d89" x="75.43225" y="180.576" style="fill: #1f77b4; stroke: #1f77b4"/>
     <use xlink:href="#m44c0862d89" x="364.86484" y="261.216" style="fill: #1f77b4; stroke: #1f77b4"/>
     <use xlink:href="#m44c0862d89" x="84.620586" y="180.576" style="fill: #1f77b4; stroke: #1f77b4"/>
     <use xlink:href="#m44c0862d89" x="69.306693" y="180.576" style="fill: #1f77b4; stroke: #1f77b4"/>
     <use xlink:href="#m44c0862d89" x="63.181135" y="99.936" style="fill: #1f77b4; stroke: #1f77b4"/>
     <use xlink:href="#m44c0862d89" x="73.900861" y="19.296" style="fill: #1f77b4; stroke: #1f77b4"/>
     <use xlink:href="#m44c0862d89" x="61.649746" y="99.936" style="fill: #1f77b4; stroke: #1f77b4"/>
     <use xlink:href="#m44c0862d89" x="60.118357" y="99.936" style="fill: #1f77b4; stroke: #1f77b4"/>
     <use xlink:href="#m44c0862d89" x="49.398631" y="19.296" style="fill: #1f77b4; stroke: #1f77b4"/>
     <use xlink:href="#m44c0862d89" x="50.93002" y="99.936" style="fill: #1f77b4; stroke: #1f77b4"/>
     <use xlink:href="#m44c0862d89" x="329.642885" y="261.216" style="fill: #1f77b4; stroke: #1f77b4"/>
     <use xlink:href="#m44c0862d89" x="73.900861" y="99.936" style="fill: #1f77b4; stroke: #1f77b4"/>
     <use xlink:href="#m44c0862d89" x="70.838082" y="99.936" style="fill: #1f77b4; stroke: #1f77b4"/>
     <use xlink:href="#m44c0862d89" x="326.580106" y="261.216" style="fill: #1f77b4; stroke: #1f77b4"/>
     <use xlink:href="#m44c0862d89" x="58.586967" y="99.936" style="fill: #1f77b4; stroke: #1f77b4"/>
     <use xlink:href="#m44c0862d89" x="70.838082" y="99.936" style="fill: #1f77b4; stroke: #1f77b4"/>
     <use xlink:href="#m44c0862d89" x="90.746144" y="99.936" style="fill: #1f77b4; stroke: #1f77b4"/>
     <use xlink:href="#m44c0862d89" x="337.299832" y="261.216" style="fill: #1f77b4; stroke: #1f77b4"/>
     <use xlink:href="#m44c0862d89" x="70.838082" y="180.576" style="fill: #1f77b4; stroke: #1f77b4"/>
     <use xlink:href="#m44c0862d89" x="84.620586" y="99.936" style="fill: #1f77b4; stroke: #1f77b4"/>
     <use xlink:href="#m44c0862d89" x="352.613725" y="261.216" style="fill: #1f77b4; stroke: #1f77b4"/>
     <use xlink:href="#m44c0862d89" x="63.181135" y="180.576" style="fill: #1f77b4; stroke: #1f77b4"/>
     <use xlink:href="#m44c0862d89" x="63.181135" y="180.576" style="fill: #1f77b4; stroke: #1f77b4"/>
     <use xlink:href="#m44c0862d89" x="70.838082" y="99.936" style="fill: #1f77b4; stroke: #1f77b4"/>
     <use xlink:href="#m44c0862d89" x="271.450089" y="261.216" style="fill: #1f77b4; stroke: #1f77b4"/>
     <use xlink:href="#m44c0862d89" x="75.43225" y="99.936" style="fill: #1f77b4; stroke: #1f77b4"/>
     <use xlink:href="#m44c0862d89" x="370.990398" y="261.216" style="fill: #1f77b4; stroke: #1f77b4"/>
     <use xlink:href="#m44c0862d89" x="64.712525" y="99.936" style="fill: #1f77b4; stroke: #1f77b4"/>
     <use xlink:href="#m44c0862d89" x="64.712525" y="180.576" style="fill: #1f77b4; stroke: #1f77b4"/>
     <use xlink:href="#m44c0862d89" x="76.96364" y="99.936" style="fill: #1f77b4; stroke: #1f77b4"/>
     <use xlink:href="#m44c0862d89" x="335.768442" y="261.216" style="fill: #1f77b4; stroke: #1f77b4"/>
     <use xlink:href="#m44c0862d89" x="75.43225" y="99.936" style="fill: #1f77b4; stroke: #1f77b4"/>
     <use xlink:href="#m44c0862d89" x="67.775303" y="99.936" style="fill: #1f77b4; stroke: #1f77b4"/>
     <use xlink:href="#m44c0862d89" x="75.43225" y="180.576" style="fill: #1f77b4; stroke: #1f77b4"/>
     <use xlink:href="#m44c0862d89" x="60.118357" y="180.576" style="fill: #1f77b4; stroke: #1f77b4"/>
     <use xlink:href="#m44c0862d89" x="67.775303" y="99.936" style="fill: #1f77b4; stroke: #1f77b4"/>
     <use xlink:href="#m44c0862d89" x="86.151976" y="180.576" style="fill: #1f77b4; stroke: #1f77b4"/>
     <use xlink:href="#m44c0862d89" x="87.683365" y="99.936" style="fill: #1f77b4; stroke: #1f77b4"/>
     <use xlink:href="#m44c0862d89" x="83.089197" y="180.576" style="fill: #1f77b4; stroke: #1f77b4"/>
     <use xlink:href="#m44c0862d89" x="360.270672" y="261.216" style="fill: #1f77b4; stroke: #1f77b4"/>
     <use xlink:href="#m44c0862d89" x="348.019557" y="261.216" style="fill: #1f77b4; stroke: #1f77b4"/>
     <use xlink:href="#m44c0862d89" x="53.992799" y="180.576" style="fill: #1f77b4; stroke: #1f77b4"/>
     <use xlink:href="#m44c0862d89" x="337.299832" y="261.216" style="fill: #1f77b4; stroke: #1f77b4"/>
     <use xlink:href="#m44c0862d89" x="49.398631" y="180.576" style="fill: #1f77b4; stroke: #1f77b4"/>
     <use xlink:href="#m44c0862d89" x="57.055578" y="180.576" style="fill: #1f77b4; stroke: #1f77b4"/>
     <use xlink:href="#m44c0862d89" x="233.165355" y="261.216" style="fill: #1f77b4; stroke: #1f77b4"/>
     <use xlink:href="#m44c0862d89" x="46.335852" y="99.936" style="fill: #1f77b4; stroke: #1f77b4"/>
     <use xlink:href="#m44c0862d89" x="75.43225" y="180.576" style="fill: #1f77b4; stroke: #1f77b4"/>
     <use xlink:href="#m44c0862d89" x="84.620586" y="99.936" style="fill: #1f77b4; stroke: #1f77b4"/>
     <use xlink:href="#m44c0862d89" x="90.746144" y="180.576" style="fill: #1f77b4; stroke: #1f77b4"/>
     <use xlink:href="#m44c0862d89" x="332.705664" y="261.216" style="fill: #1f77b4; stroke: #1f77b4"/>
     <use xlink:href="#m44c0862d89" x="358.739283" y="261.216" style="fill: #1f77b4; stroke: #1f77b4"/>
     <use xlink:href="#m44c0862d89" x="63.181135" y="99.936" style="fill: #1f77b4; stroke: #1f77b4"/>
     <use xlink:href="#m44c0862d89" x="73.900861" y="180.576" style="fill: #1f77b4; stroke: #1f77b4"/>
     <use xlink:href="#m44c0862d89" x="69.306693" y="19.296" style="fill: #1f77b4; stroke: #1f77b4"/>
     <use xlink:href="#m44c0862d89" x="83.089197" y="180.576" style="fill: #1f77b4; stroke: #1f77b4"/>
     <use xlink:href="#m44c0862d89" x="76.96364" y="99.936" style="fill: #1f77b4; stroke: #1f77b4"/>
     <use xlink:href="#m44c0862d89" x="57.055578" y="99.936" style="fill: #1f77b4; stroke: #1f77b4"/>
     <use xlink:href="#m44c0862d89" x="57.055578" y="180.576" style="fill: #1f77b4; stroke: #1f77b4"/>
     <use xlink:href="#m44c0862d89" x="58.586967" y="99.936" style="fill: #1f77b4; stroke: #1f77b4"/>
     <use xlink:href="#m44c0862d89" x="90.746144" y="180.576" style="fill: #1f77b4; stroke: #1f77b4"/>
     <use xlink:href="#m44c0862d89" x="90.746144" y="99.936" style="fill: #1f77b4; stroke: #1f77b4"/>
     <use xlink:href="#m44c0862d89" x="335.768442" y="261.216" style="fill: #1f77b4; stroke: #1f77b4"/>
     <use xlink:href="#m44c0862d89" x="355.676504" y="261.216" style="fill: #1f77b4; stroke: #1f77b4"/>
     <use xlink:href="#m44c0862d89" x="83.089197" y="99.936" style="fill: #1f77b4; stroke: #1f77b4"/>
     <use xlink:href="#m44c0862d89" x="276.044257" y="261.216" style="fill: #1f77b4; stroke: #1f77b4"/>
     <use xlink:href="#m44c0862d89" x="63.181135" y="180.576" style="fill: #1f77b4; stroke: #1f77b4"/>
     <use xlink:href="#m44c0862d89" x="75.43225" y="180.576" style="fill: #1f77b4; stroke: #1f77b4"/>
     <use xlink:href="#m44c0862d89" x="66.243914" y="99.936" style="fill: #1f77b4; stroke: #1f77b4"/>
     <use xlink:href="#m44c0862d89" x="364.86484" y="261.216" style="fill: #1f77b4; stroke: #1f77b4"/>
     <use xlink:href="#m44c0862d89" x="69.306693" y="180.576" style="fill: #1f77b4; stroke: #1f77b4"/>
     <use xlink:href="#m44c0862d89" x="67.775303" y="180.576" style="fill: #1f77b4; stroke: #1f77b4"/>
     <use xlink:href="#m44c0862d89" x="367.927619" y="261.216" style="fill: #1f77b4; stroke: #1f77b4"/>
     <use xlink:href="#m44c0862d89" x="47.867242" y="180.576" style="fill: #1f77b4; stroke: #1f77b4"/>
     <use xlink:href="#m44c0862d89" x="53.992799" y="180.576" style="fill: #1f77b4; stroke: #1f77b4"/>
     <use xlink:href="#m44c0862d89" x="75.43225" y="19.296" style="fill: #1f77b4; stroke: #1f77b4"/>
     <use xlink:href="#m44c0862d89" x="73.900861" y="99.936" style="fill: #1f77b4; stroke: #1f77b4"/>
     <use xlink:href="#m44c0862d89" x="67.775303" y="180.576" style="fill: #1f77b4; stroke: #1f77b4"/>
     <use xlink:href="#m44c0862d89" x="76.96364" y="99.936" style="fill: #1f77b4; stroke: #1f77b4"/>
     <use xlink:href="#m44c0862d89" x="81.557808" y="99.936" style="fill: #1f77b4; stroke: #1f77b4"/>
     <use xlink:href="#m44c0862d89" x="274.512868" y="261.216" style="fill: #1f77b4; stroke: #1f77b4"/>
    </g>
   </g>
   <g id="matplotlib.axis_1">
    <g id="xtick_1">
     <g id="line2d_1">
      <defs>
       <path id="m260972cbf5" d="M 0 0 
L 0 3.5 
" style="stroke: #000000; stroke-width: 0.8"/>
      </defs>
      <g>
       <use xlink:href="#m260972cbf5" x="44.804463" y="273.312" style="stroke: #000000; stroke-width: 0.8"/>
      </g>
     </g>
     <g id="text_1">
      <!-- 0 -->
      <g transform="translate(41.623213 287.910437) scale(0.1 -0.1)">
       <defs>
        <path id="DejaVuSans-30" d="M 2034 4250 
Q 1547 4250 1301 3770 
Q 1056 3291 1056 2328 
Q 1056 1369 1301 889 
Q 1547 409 2034 409 
Q 2525 409 2770 889 
Q 3016 1369 3016 2328 
Q 3016 3291 2770 3770 
Q 2525 4250 2034 4250 
z
M 2034 4750 
Q 2819 4750 3233 4129 
Q 3647 3509 3647 2328 
Q 3647 1150 3233 529 
Q 2819 -91 2034 -91 
Q 1250 -91 836 529 
Q 422 1150 422 2328 
Q 422 3509 836 4129 
Q 1250 4750 2034 4750 
z
" transform="scale(0.015625)"/>
       </defs>
       <use xlink:href="#DejaVuSans-30"/>
      </g>
     </g>
    </g>
    <g id="xtick_2">
     <g id="line2d_2">
      <g>
       <use xlink:href="#m260972cbf5" x="121.373931" y="273.312" style="stroke: #000000; stroke-width: 0.8"/>
      </g>
     </g>
     <g id="text_2">
      <!-- 50 -->
      <g transform="translate(115.011431 287.910437) scale(0.1 -0.1)">
       <defs>
        <path id="DejaVuSans-35" d="M 691 4666 
L 3169 4666 
L 3169 4134 
L 1269 4134 
L 1269 2991 
Q 1406 3038 1543 3061 
Q 1681 3084 1819 3084 
Q 2600 3084 3056 2656 
Q 3513 2228 3513 1497 
Q 3513 744 3044 326 
Q 2575 -91 1722 -91 
Q 1428 -91 1123 -41 
Q 819 9 494 109 
L 494 744 
Q 775 591 1075 516 
Q 1375 441 1709 441 
Q 2250 441 2565 725 
Q 2881 1009 2881 1497 
Q 2881 1984 2565 2268 
Q 2250 2553 1709 2553 
Q 1456 2553 1204 2497 
Q 953 2441 691 2322 
L 691 4666 
z
" transform="scale(0.015625)"/>
       </defs>
       <use xlink:href="#DejaVuSans-35"/>
       <use xlink:href="#DejaVuSans-30" x="63.623047"/>
      </g>
     </g>
    </g>
    <g id="xtick_3">
     <g id="line2d_3">
      <g>
       <use xlink:href="#m260972cbf5" x="197.943399" y="273.312" style="stroke: #000000; stroke-width: 0.8"/>
      </g>
     </g>
     <g id="text_3">
      <!-- 100 -->
      <g transform="translate(188.399649 287.910437) scale(0.1 -0.1)">
       <defs>
        <path id="DejaVuSans-31" d="M 794 531 
L 1825 531 
L 1825 4091 
L 703 3866 
L 703 4441 
L 1819 4666 
L 2450 4666 
L 2450 531 
L 3481 531 
L 3481 0 
L 794 0 
L 794 531 
z
" transform="scale(0.015625)"/>
       </defs>
       <use xlink:href="#DejaVuSans-31"/>
       <use xlink:href="#DejaVuSans-30" x="63.623047"/>
       <use xlink:href="#DejaVuSans-30" x="127.246094"/>
      </g>
     </g>
    </g>
    <g id="xtick_4">
     <g id="line2d_4">
      <g>
       <use xlink:href="#m260972cbf5" x="274.512868" y="273.312" style="stroke: #000000; stroke-width: 0.8"/>
      </g>
     </g>
     <g id="text_4">
      <!-- 150 -->
      <g transform="translate(264.969118 287.910437) scale(0.1 -0.1)">
       <use xlink:href="#DejaVuSans-31"/>
       <use xlink:href="#DejaVuSans-35" x="63.623047"/>
       <use xlink:href="#DejaVuSans-30" x="127.246094"/>
      </g>
     </g>
    </g>
    <g id="xtick_5">
     <g id="line2d_5">
      <g>
       <use xlink:href="#m260972cbf5" x="351.082336" y="273.312" style="stroke: #000000; stroke-width: 0.8"/>
      </g>
     </g>
     <g id="text_5">
      <!-- 200 -->
      <g transform="translate(341.538586 287.910437) scale(0.1 -0.1)">
       <defs>
        <path id="DejaVuSans-32" d="M 1228 531 
L 3431 531 
L 3431 0 
L 469 0 
L 469 531 
Q 828 903 1448 1529 
Q 2069 2156 2228 2338 
Q 2531 2678 2651 2914 
Q 2772 3150 2772 3378 
Q 2772 3750 2511 3984 
Q 2250 4219 1831 4219 
Q 1534 4219 1204 4116 
Q 875 4013 500 3803 
L 500 4441 
Q 881 4594 1212 4672 
Q 1544 4750 1819 4750 
Q 2544 4750 2975 4387 
Q 3406 4025 3406 3419 
Q 3406 3131 3298 2873 
Q 3191 2616 2906 2266 
Q 2828 2175 2409 1742 
Q 1991 1309 1228 531 
z
" transform="scale(0.015625)"/>
       </defs>
       <use xlink:href="#DejaVuSans-32"/>
       <use xlink:href="#DejaVuSans-30" x="63.623047"/>
       <use xlink:href="#DejaVuSans-30" x="127.246094"/>
      </g>
     </g>
    </g>
   </g>
   <g id="matplotlib.axis_2">
    <g id="ytick_1">
     <g id="line2d_6">
      <defs>
       <path id="mc6aafaaca1" d="M 0 0 
L -3.5 0 
" style="stroke: #000000; stroke-width: 0.8"/>
      </defs>
      <g>
       <use xlink:href="#mc6aafaaca1" x="30.103125" y="261.216" style="stroke: #000000; stroke-width: 0.8"/>
      </g>
     </g>
     <g id="text_6">
      <!-- 0.0 -->
      <g transform="translate(7.2 265.015219) scale(0.1 -0.1)">
       <defs>
        <path id="DejaVuSans-2e" d="M 684 794 
L 1344 794 
L 1344 0 
L 684 0 
L 684 794 
z
" transform="scale(0.015625)"/>
       </defs>
       <use xlink:href="#DejaVuSans-30"/>
       <use xlink:href="#DejaVuSans-2e" x="63.623047"/>
       <use xlink:href="#DejaVuSans-30" x="95.410156"/>
      </g>
     </g>
    </g>
    <g id="ytick_2">
     <g id="line2d_7">
      <g>
       <use xlink:href="#mc6aafaaca1" x="30.103125" y="220.896" style="stroke: #000000; stroke-width: 0.8"/>
      </g>
     </g>
     <g id="text_7">
      <!-- 0.5 -->
      <g transform="translate(7.2 224.695219) scale(0.1 -0.1)">
       <use xlink:href="#DejaVuSans-30"/>
       <use xlink:href="#DejaVuSans-2e" x="63.623047"/>
       <use xlink:href="#DejaVuSans-35" x="95.410156"/>
      </g>
     </g>
    </g>
    <g id="ytick_3">
     <g id="line2d_8">
      <g>
       <use xlink:href="#mc6aafaaca1" x="30.103125" y="180.576" style="stroke: #000000; stroke-width: 0.8"/>
      </g>
     </g>
     <g id="text_8">
      <!-- 1.0 -->
      <g transform="translate(7.2 184.375219) scale(0.1 -0.1)">
       <use xlink:href="#DejaVuSans-31"/>
       <use xlink:href="#DejaVuSans-2e" x="63.623047"/>
       <use xlink:href="#DejaVuSans-30" x="95.410156"/>
      </g>
     </g>
    </g>
    <g id="ytick_4">
     <g id="line2d_9">
      <g>
       <use xlink:href="#mc6aafaaca1" x="30.103125" y="140.256" style="stroke: #000000; stroke-width: 0.8"/>
      </g>
     </g>
     <g id="text_9">
      <!-- 1.5 -->
      <g transform="translate(7.2 144.055219) scale(0.1 -0.1)">
       <use xlink:href="#DejaVuSans-31"/>
       <use xlink:href="#DejaVuSans-2e" x="63.623047"/>
       <use xlink:href="#DejaVuSans-35" x="95.410156"/>
      </g>
     </g>
    </g>
    <g id="ytick_5">
     <g id="line2d_10">
      <g>
       <use xlink:href="#mc6aafaaca1" x="30.103125" y="99.936" style="stroke: #000000; stroke-width: 0.8"/>
      </g>
     </g>
     <g id="text_10">
      <!-- 2.0 -->
      <g transform="translate(7.2 103.735219) scale(0.1 -0.1)">
       <use xlink:href="#DejaVuSans-32"/>
       <use xlink:href="#DejaVuSans-2e" x="63.623047"/>
       <use xlink:href="#DejaVuSans-30" x="95.410156"/>
      </g>
     </g>
    </g>
    <g id="ytick_6">
     <g id="line2d_11">
      <g>
       <use xlink:href="#mc6aafaaca1" x="30.103125" y="59.616" style="stroke: #000000; stroke-width: 0.8"/>
      </g>
     </g>
     <g id="text_11">
      <!-- 2.5 -->
      <g transform="translate(7.2 63.415219) scale(0.1 -0.1)">
       <use xlink:href="#DejaVuSans-32"/>
       <use xlink:href="#DejaVuSans-2e" x="63.623047"/>
       <use xlink:href="#DejaVuSans-35" x="95.410156"/>
      </g>
     </g>
    </g>
    <g id="ytick_7">
     <g id="line2d_12">
      <g>
       <use xlink:href="#mc6aafaaca1" x="30.103125" y="19.296" style="stroke: #000000; stroke-width: 0.8"/>
      </g>
     </g>
     <g id="text_12">
      <!-- 3.0 -->
      <g transform="translate(7.2 23.095219) scale(0.1 -0.1)">
       <defs>
        <path id="DejaVuSans-33" d="M 2597 2516 
Q 3050 2419 3304 2112 
Q 3559 1806 3559 1356 
Q 3559 666 3084 287 
Q 2609 -91 1734 -91 
Q 1441 -91 1130 -33 
Q 819 25 488 141 
L 488 750 
Q 750 597 1062 519 
Q 1375 441 1716 441 
Q 2309 441 2620 675 
Q 2931 909 2931 1356 
Q 2931 1769 2642 2001 
Q 2353 2234 1838 2234 
L 1294 2234 
L 1294 2753 
L 1863 2753 
Q 2328 2753 2575 2939 
Q 2822 3125 2822 3475 
Q 2822 3834 2567 4026 
Q 2313 4219 1838 4219 
Q 1578 4219 1281 4162 
Q 984 4106 628 3988 
L 628 4550 
Q 988 4650 1302 4700 
Q 1616 4750 1894 4750 
Q 2613 4750 3031 4423 
Q 3450 4097 3450 3541 
Q 3450 3153 3228 2886 
Q 3006 2619 2597 2516 
z
" transform="scale(0.015625)"/>
       </defs>
       <use xlink:href="#DejaVuSans-33"/>
       <use xlink:href="#DejaVuSans-2e" x="63.623047"/>
       <use xlink:href="#DejaVuSans-30" x="95.410156"/>
      </g>
     </g>
    </g>
   </g>
   <g id="patch_3">
    <path d="M 30.103125 273.312 
L 30.103125 7.2 
" style="fill: none; stroke: #000000; stroke-width: 0.8; stroke-linejoin: miter; stroke-linecap: square"/>
   </g>
   <g id="patch_4">
    <path d="M 387.223125 273.312 
L 387.223125 7.2 
" style="fill: none; stroke: #000000; stroke-width: 0.8; stroke-linejoin: miter; stroke-linecap: square"/>
   </g>
   <g id="patch_5">
    <path d="M 30.103125 273.312 
L 387.223125 273.312 
" style="fill: none; stroke: #000000; stroke-width: 0.8; stroke-linejoin: miter; stroke-linecap: square"/>
   </g>
   <g id="patch_6">
    <path d="M 30.103125 7.2 
L 387.223125 7.2 
" style="fill: none; stroke: #000000; stroke-width: 0.8; stroke-linejoin: miter; stroke-linecap: square"/>
   </g>
  </g>
 </g>
 <defs>
  <clipPath id="p44136ebd5b">
   <rect x="30.103125" y="7.2" width="357.12" height="266.112"/>
  </clipPath>
 </defs>
</svg>
