<?xml version="1.0" encoding="utf-8" standalone="no"?>
<!DOCTYPE svg PUBLIC "-//W3C//DTD SVG 1.1//EN"
  "http://www.w3.org/Graphics/SVG/1.1/DTD/svg11.dtd">
<!-- Created with matplotlib (https://matplotlib.org/) -->
<svg height="168.9334pt" version="1.1" viewBox="0 0 518.46068 168.9334" width="518.46068pt" xmlns="http://www.w3.org/2000/svg" xmlns:xlink="http://www.w3.org/1999/xlink">
 <metadata>
  <rdf:RDF xmlns:cc="http://creativecommons.org/ns#" xmlns:dc="http://purl.org/dc/elements/1.1/" xmlns:rdf="http://www.w3.org/1999/02/22-rdf-syntax-ns#">
   <cc:Work>
    <dc:type rdf:resource="http://purl.org/dc/dcmitype/StillImage"/>
    <dc:date>2021-06-23T23:55:04.629338</dc:date>
    <dc:format>image/svg+xml</dc:format>
    <dc:creator>
     <cc:Agent>
      <dc:title>Matplotlib v3.3.2, https://matplotlib.org/</dc:title>
     </cc:Agent>
    </dc:creator>
   </cc:Work>
  </rdf:RDF>
 </metadata>
 <defs>
  <style type="text/css">*{stroke-linecap:butt;stroke-linejoin:round;}</style>
 </defs>
 <g id="figure_1">
  <g id="patch_1">
   <path d="M 0 168.9334 
L 518.46068 168.9334 
L 518.46068 0 
L 0 0 
z
" style="fill:#ffffff;"/>
  </g>
  <g id="axes_1">
   <g id="patch_2">
    <path clip-path="url(#p1e8ff0361d)" d="M 429.90339 124.122698 
L 441.72065 124.122698 
L 435.81202 132.64476 
z
" style="fill:#778899;"/>
   </g>
   <g id="patch_3">
    <path clip-path="url(#p1e8ff0361d)" d="M 475.35439 124.122698 
L 487.17165 124.122698 
L 481.26302 132.64476 
z
" style="fill:#778899;"/>
   </g>
   <g id="line2d_1">
    <path clip-path="url(#p1e8ff0361d)" d="M 93.11148 43.5608 
L 506.71558 43.5608 
" style="fill:none;stroke:#000000;stroke-linecap:square;stroke-width:2;"/>
   </g>
   <g id="line2d_2">
    <path clip-path="url(#p1e8ff0361d)" d="M 93.11148 89.0118 
L 506.71558 89.0118 
" style="fill:none;stroke:#000000;stroke-linecap:square;stroke-width:2;"/>
   </g>
   <g id="line2d_3">
    <path clip-path="url(#p1e8ff0361d)" d="M 93.11148 132.985643 
L 506.71558 132.985643 
" style="fill:none;stroke:#778899;stroke-linecap:square;stroke-width:2;"/>
   </g>
   <g id="line2d_4">
    <path clip-path="url(#p1e8ff0361d)" d="M 93.11148 135.939958 
L 506.71558 135.939958 
" style="fill:none;stroke:#778899;stroke-linecap:square;stroke-width:2;"/>
   </g>
   <g id="line2d_5">
    <path clip-path="url(#p1e8ff0361d)" d="M 437.289178 43.5608 
L 437.289178 124.122698 
" style="fill:none;stroke:#778899;stroke-linecap:square;stroke-width:2;"/>
   </g>
   <g id="line2d_6">
    <path clip-path="url(#p1e8ff0361d)" d="M 434.334863 43.5608 
L 434.334863 124.122698 
" style="fill:none;stroke:#778899;stroke-linecap:square;stroke-width:2;"/>
   </g>
   <g id="line2d_7">
    <path clip-path="url(#p1e8ff0361d)" d="M 482.740178 89.0118 
L 482.740178 124.122698 
" style="fill:none;stroke:#778899;stroke-linecap:square;stroke-width:2;"/>
   </g>
   <g id="line2d_8">
    <path clip-path="url(#p1e8ff0361d)" d="M 479.785863 89.0118 
L 479.785863 124.122698 
" style="fill:none;stroke:#778899;stroke-linecap:square;stroke-width:2;"/>
   </g>
   <g id="line2d_9">
    <path clip-path="url(#p1e8ff0361d)" d="M 102.20168 139.0079 
L 106.74678 129.9177 
" style="fill:none;stroke:#778899;stroke-linecap:square;stroke-width:1.5;"/>
   </g>
   <g id="line2d_10">
    <path clip-path="url(#p1e8ff0361d)" d="M 163.10602 89.0118 
L 163.10602 43.5608 
" style="fill:none;stroke:#6fa4ff;stroke-linecap:square;stroke-width:2;"/>
   </g>
   <g id="line2d_11">
    <path clip-path="url(#p1e8ff0361d)" d="M 299.45902 89.0118 
L 299.45902 43.5608 
" style="fill:none;stroke:#6fa4ff;stroke-linecap:square;stroke-width:2;"/>
   </g>
   <g id="patch_4">
    <path clip-path="url(#p1e8ff0361d)" d="M 102.883445 58.332375 
L 132.426595 58.332375 
L 132.426595 28.789225 
L 102.883445 28.789225 
z
" style="fill:#6fa4ff;stroke:#6fa4ff;stroke-linejoin:miter;stroke-width:1.5;"/>
   </g>
   <g id="patch_5">
    <path clip-path="url(#p1e8ff0361d)" d="M 102.883445 103.783375 
L 132.426595 103.783375 
L 132.426595 74.240225 
L 102.883445 74.240225 
z
" style="fill:#6fa4ff;stroke:#6fa4ff;stroke-linejoin:miter;stroke-width:1.5;"/>
   </g>
   <g id="patch_6">
    <path clip-path="url(#p1e8ff0361d)" d="M 163.10602 47.992273 
C 164.28126 47.992273 165.408524 47.525345 166.239544 46.694324 
C 167.070565 45.863304 167.537493 44.73604 167.537493 43.5608 
C 167.537493 42.38556 167.070565 41.258296 166.239544 40.427276 
C 165.408524 39.596255 164.28126 39.129328 163.10602 39.129328 
C 161.93078 39.129328 160.803516 39.596255 159.972496 40.427276 
C 159.141476 41.258296 158.674548 42.38556 158.674548 43.5608 
C 158.674548 44.73604 159.141476 45.863304 159.972496 46.694324 
C 160.803516 47.525345 161.93078 47.992273 163.10602 47.992273 
z
" style="fill:#6fa4ff;stroke:#6fa4ff;stroke-linejoin:miter;stroke-width:1.5;"/>
   </g>
   <g id="patch_7">
    <path clip-path="url(#p1e8ff0361d)" d="M 163.10602 93.443273 
C 164.28126 93.443273 165.408524 92.976345 166.239544 92.145324 
C 167.070565 91.314304 167.537493 90.18704 167.537493 89.0118 
C 167.537493 87.83656 167.070565 86.709296 166.239544 85.878276 
C 165.408524 85.047255 164.28126 84.580328 163.10602 84.580328 
C 161.93078 84.580328 160.803516 85.047255 159.972496 85.878276 
C 159.141476 86.709296 158.674548 87.83656 158.674548 89.0118 
C 158.674548 90.18704 159.141476 91.314304 159.972496 92.145324 
C 160.803516 92.976345 161.93078 93.443273 163.10602 93.443273 
z
" style="fill:#6fa4ff;stroke:#6fa4ff;stroke-linejoin:miter;stroke-width:1.5;"/>
   </g>
   <g id="patch_8">
    <path clip-path="url(#p1e8ff0361d)" d="M 193.785445 58.332375 
L 223.328595 58.332375 
L 223.328595 28.789225 
L 193.785445 28.789225 
z
" style="fill:#6fa4ff;stroke:#6fa4ff;stroke-linejoin:miter;stroke-width:1.5;"/>
   </g>
   <g id="patch_9">
    <path clip-path="url(#p1e8ff0361d)" d="M 193.785445 103.783375 
L 223.328595 103.783375 
L 223.328595 74.240225 
L 193.785445 74.240225 
z
" style="fill:#6fa4ff;stroke:#6fa4ff;stroke-linejoin:miter;stroke-width:1.5;"/>
   </g>
   <g id="patch_10">
    <path clip-path="url(#p1e8ff0361d)" d="M 239.236445 58.332375 
L 268.779595 58.332375 
L 268.779595 28.789225 
L 239.236445 28.789225 
z
" style="fill:#05bab6;stroke:#05bab6;stroke-linejoin:miter;stroke-width:1.5;"/>
   </g>
   <g id="patch_11">
    <path clip-path="url(#p1e8ff0361d)" d="M 239.236445 103.783375 
L 268.779595 103.783375 
L 268.779595 74.240225 
L 239.236445 74.240225 
z
" style="fill:#05bab6;stroke:#05bab6;stroke-linejoin:miter;stroke-width:1.5;"/>
   </g>
   <g id="patch_12">
    <path clip-path="url(#p1e8ff0361d)" d="M 299.45902 47.992273 
C 300.63426 47.992273 301.761524 47.525345 302.592544 46.694324 
C 303.423565 45.863304 303.890493 44.73604 303.890493 43.5608 
C 303.890493 42.38556 303.423565 41.258296 302.592544 40.427276 
C 301.761524 39.596255 300.63426 39.129328 299.45902 39.129328 
C 298.28378 39.129328 297.156516 39.596255 296.325496 40.427276 
C 295.494476 41.258296 295.027548 42.38556 295.027548 43.5608 
C 295.027548 44.73604 295.494476 45.863304 296.325496 46.694324 
C 297.156516 47.525345 298.28378 47.992273 299.45902 47.992273 
z
" style="fill:#6fa4ff;stroke:#6fa4ff;stroke-linejoin:miter;stroke-width:1.5;"/>
   </g>
   <g id="patch_13">
    <path clip-path="url(#p1e8ff0361d)" d="M 299.45902 93.443273 
C 300.63426 93.443273 301.761524 92.976345 302.592544 92.145324 
C 303.423565 91.314304 303.890493 90.18704 303.890493 89.0118 
C 303.890493 87.83656 303.423565 86.709296 302.592544 85.878276 
C 301.761524 85.047255 300.63426 84.580328 299.45902 84.580328 
C 298.28378 84.580328 297.156516 85.047255 296.325496 85.878276 
C 295.494476 86.709296 295.027548 87.83656 295.027548 89.0118 
C 295.027548 90.18704 295.494476 91.314304 296.325496 92.145324 
C 297.156516 92.976345 298.28378 93.443273 299.45902 93.443273 
z
" style="fill:#6fa4ff;stroke:#6fa4ff;stroke-linejoin:miter;stroke-width:1.5;"/>
   </g>
   <g id="patch_14">
    <path clip-path="url(#p1e8ff0361d)" d="M 330.138445 58.332375 
L 359.681595 58.332375 
L 359.681595 28.789225 
L 330.138445 28.789225 
z
" style="fill:#05bab6;stroke:#05bab6;stroke-linejoin:miter;stroke-width:1.5;"/>
   </g>
   <g id="patch_15">
    <path clip-path="url(#p1e8ff0361d)" d="M 330.138445 103.783375 
L 359.681595 103.783375 
L 359.681595 74.240225 
L 330.138445 74.240225 
z
" style="fill:#05bab6;stroke:#05bab6;stroke-linejoin:miter;stroke-width:1.5;"/>
   </g>
   <g id="patch_16">
    <path clip-path="url(#p1e8ff0361d)" d="M 375.589445 58.332375 
L 405.132595 58.332375 
L 405.132595 28.789225 
L 375.589445 28.789225 
z
" style="fill:#6fa4ff;stroke:#6fa4ff;stroke-linejoin:miter;stroke-width:1.5;"/>
   </g>
   <g id="patch_17">
    <path clip-path="url(#p1e8ff0361d)" d="M 375.589445 103.783375 
L 405.132595 103.783375 
L 405.132595 74.240225 
L 375.589445 74.240225 
z
" style="fill:#6fa4ff;stroke:#6fa4ff;stroke-linejoin:miter;stroke-width:1.5;"/>
   </g>
   <g id="patch_18">
    <path clip-path="url(#p1e8ff0361d)" d="M 421.040445 58.332375 
L 450.583595 58.332375 
L 450.583595 28.789225 
L 421.040445 28.789225 
z
" style="stroke:#000000;stroke-linejoin:miter;stroke-width:1.5;"/>
   </g>
   <g id="patch_19">
    <path clip-path="url(#p1e8ff0361d)" d="M 446.152123 47.992273 
C 446.152123 45.250959 445.061978 42.619118 443.123577 40.680716 
C 441.185175 38.742314 438.553334 37.65217 435.81202 37.65217 
C 433.070706 37.65217 430.438865 38.742314 428.500464 40.680716 
C 426.562062 42.619118 425.471918 45.250959 425.471918 47.992273 
" style="fill:none;stroke:#ffffff;stroke-linejoin:miter;stroke-width:2;"/>
   </g>
   <g id="patch_20">
    <path clip-path="url(#p1e8ff0361d)" d="M 466.491445 103.783375 
L 496.034595 103.783375 
L 496.034595 74.240225 
L 466.491445 74.240225 
z
" style="stroke:#000000;stroke-linejoin:miter;stroke-width:1.5;"/>
   </g>
   <g id="patch_21">
    <path clip-path="url(#p1e8ff0361d)" d="M 491.603123 93.443273 
C 491.603123 90.701959 490.512978 88.070118 488.574577 86.131716 
C 486.636175 84.193314 484.004334 83.10317 481.26302 83.10317 
C 478.521706 83.10317 475.889865 84.193314 473.951464 86.131716 
C 472.013062 88.070118 470.922918 90.701959 470.922918 93.443273 
" style="fill:none;stroke:#ffffff;stroke-linejoin:miter;stroke-width:2;"/>
   </g>
   <g id="line2d_12">
    <path clip-path="url(#p1e8ff0361d)" d="M 435.81202 47.992273 
L 446.152123 37.65217 
" style="fill:none;stroke:#ffffff;stroke-linecap:square;stroke-width:2;"/>
   </g>
   <g id="line2d_13">
    <path clip-path="url(#p1e8ff0361d)" d="M 481.26302 93.443273 
L 491.603123 83.10317 
" style="fill:none;stroke:#ffffff;stroke-linecap:square;stroke-width:2;"/>
   </g>
   <g id="text_1">
    <g clip-path="url(#p1e8ff0361d)">
     <!-- H -->
     <g transform="translate(112.766817 47.147988)scale(0.13 -0.13)">
      <defs>
       <path d="M 9.8125 72.90625 
L 19.671875 72.90625 
L 19.671875 43.015625 
L 55.515625 43.015625 
L 55.515625 72.90625 
L 65.375 72.90625 
L 65.375 0 
L 55.515625 0 
L 55.515625 34.71875 
L 19.671875 34.71875 
L 19.671875 0 
L 9.8125 0 
z
" id="DejaVuSans-72"/>
      </defs>
      <use xlink:href="#DejaVuSans-72"/>
     </g>
    </g>
   </g>
   <g id="text_2">
    <g clip-path="url(#p1e8ff0361d)">
     <!-- H -->
     <g transform="translate(112.766817 92.598988)scale(0.13 -0.13)">
      <use xlink:href="#DejaVuSans-72"/>
     </g>
    </g>
   </g>
   <g id="text_3">
    <g clip-path="url(#p1e8ff0361d)">
     <!-- H -->
     <g transform="translate(203.668817 47.147988)scale(0.13 -0.13)">
      <use xlink:href="#DejaVuSans-72"/>
     </g>
    </g>
   </g>
   <g id="text_4">
    <g clip-path="url(#p1e8ff0361d)">
     <!-- H -->
     <g transform="translate(203.668817 92.598988)scale(0.13 -0.13)">
      <use xlink:href="#DejaVuSans-72"/>
     </g>
    </g>
   </g>
   <g id="text_5">
    <g clip-path="url(#p1e8ff0361d)">
     <!-- X -->
     <g transform="translate(249.55552 47.147988)scale(0.13 -0.13)">
      <defs>
       <path d="M 6.296875 72.90625 
L 16.890625 72.90625 
L 35.015625 45.796875 
L 53.21875 72.90625 
L 63.8125 72.90625 
L 40.375 37.890625 
L 65.375 0 
L 54.78125 0 
L 34.28125 31 
L 13.625 0 
L 2.984375 0 
L 29 38.921875 
z
" id="DejaVuSans-88"/>
      </defs>
      <use xlink:href="#DejaVuSans-88"/>
     </g>
    </g>
   </g>
   <g id="text_6">
    <g clip-path="url(#p1e8ff0361d)">
     <!-- X -->
     <g transform="translate(249.55552 92.598988)scale(0.13 -0.13)">
      <use xlink:href="#DejaVuSans-88"/>
     </g>
    </g>
   </g>
   <g id="text_7">
    <g clip-path="url(#p1e8ff0361d)">
     <!-- X -->
     <g transform="translate(340.45752 47.147988)scale(0.13 -0.13)">
      <use xlink:href="#DejaVuSans-88"/>
     </g>
    </g>
   </g>
   <g id="text_8">
    <g clip-path="url(#p1e8ff0361d)">
     <!-- X -->
     <g transform="translate(340.45752 92.598988)scale(0.13 -0.13)">
      <use xlink:href="#DejaVuSans-88"/>
     </g>
    </g>
   </g>
   <g id="text_9">
    <g clip-path="url(#p1e8ff0361d)">
     <!-- H -->
     <g transform="translate(385.472817 47.147988)scale(0.13 -0.13)">
      <use xlink:href="#DejaVuSans-72"/>
     </g>
    </g>
   </g>
   <g id="text_10">
    <g clip-path="url(#p1e8ff0361d)">
     <!-- H -->
     <g transform="translate(385.472817 92.598988)scale(0.13 -0.13)">
      <use xlink:href="#DejaVuSans-72"/>
     </g>
    </g>
   </g>
   <g id="text_11">
    <g clip-path="url(#p1e8ff0361d)">
     <!-- 0 -->
     <g transform="translate(447.17477 127.754825)scale(0.104 -0.104)">
      <defs>
       <path d="M 31.78125 66.40625 
Q 24.171875 66.40625 20.328125 58.90625 
Q 16.5 51.421875 16.5 36.375 
Q 16.5 21.390625 20.328125 13.890625 
Q 24.171875 6.390625 31.78125 6.390625 
Q 39.453125 6.390625 43.28125 13.890625 
Q 47.125 21.390625 47.125 36.375 
Q 47.125 51.421875 43.28125 58.90625 
Q 39.453125 66.40625 31.78125 66.40625 
z
M 31.78125 74.21875 
Q 44.046875 74.21875 50.515625 64.515625 
Q 56.984375 54.828125 56.984375 36.375 
Q 56.984375 17.96875 50.515625 8.265625 
Q 44.046875 -1.421875 31.78125 -1.421875 
Q 19.53125 -1.421875 13.0625 8.265625 
Q 6.59375 17.96875 6.59375 36.375 
Q 6.59375 54.828125 13.0625 64.515625 
Q 19.53125 74.21875 31.78125 74.21875 
z
" id="DejaVuSans-48"/>
      </defs>
      <use xlink:href="#DejaVuSans-48"/>
     </g>
    </g>
   </g>
   <g id="text_12">
    <g clip-path="url(#p1e8ff0361d)">
     <!-- 1 -->
     <g transform="translate(492.62577 127.754825)scale(0.104 -0.104)">
      <defs>
       <path d="M 12.40625 8.296875 
L 28.515625 8.296875 
L 28.515625 63.921875 
L 10.984375 60.40625 
L 10.984375 69.390625 
L 28.421875 72.90625 
L 38.28125 72.90625 
L 38.28125 8.296875 
L 54.390625 8.296875 
L 54.390625 0 
L 12.40625 0 
z
" id="DejaVuSans-49"/>
      </defs>
      <use xlink:href="#DejaVuSans-49"/>
     </g>
    </g>
   </g>
   <g id="text_13">
    <g clip-path="url(#p1e8ff0361d)">
     <!-- ${q103}_{0}$ -->
     <g transform="translate(34.78378 48.011777)scale(0.1625 -0.1625)">
      <defs>
       <path d="M 41.703125 8.203125 
Q 38.09375 3.46875 33.171875 1.015625 
Q 28.265625 -1.421875 22.3125 -1.421875 
Q 14.015625 -1.421875 9.296875 4.171875 
Q 4.59375 9.765625 4.59375 19.578125 
Q 4.59375 27.484375 7.5 34.859375 
Q 10.40625 42.234375 15.828125 48.09375 
Q 19.34375 51.90625 23.90625 53.953125 
Q 28.46875 56 33.5 56 
Q 39.546875 56 43.453125 53.609375 
Q 47.359375 51.21875 49.125 46.390625 
L 50.6875 54.59375 
L 59.71875 54.59375 
L 45.125 -20.609375 
L 36.078125 -20.609375 
z
M 13.921875 20.90625 
Q 13.921875 13.671875 16.9375 9.890625 
Q 19.96875 6.109375 25.6875 6.109375 
Q 34.1875 6.109375 40.1875 14.234375 
Q 46.1875 22.359375 46.1875 33.984375 
Q 46.1875 41.015625 43.078125 44.75 
Q 39.984375 48.484375 34.1875 48.484375 
Q 29.9375 48.484375 26.3125 46.5 
Q 22.703125 44.53125 20.015625 40.71875 
Q 17.1875 36.71875 15.546875 31.34375 
Q 13.921875 25.984375 13.921875 20.90625 
z
" id="DejaVuSans-Oblique-113"/>
       <path d="M 40.578125 39.3125 
Q 47.65625 37.796875 51.625 33 
Q 55.609375 28.21875 55.609375 21.1875 
Q 55.609375 10.40625 48.1875 4.484375 
Q 40.765625 -1.421875 27.09375 -1.421875 
Q 22.515625 -1.421875 17.65625 -0.515625 
Q 12.796875 0.390625 7.625 2.203125 
L 7.625 11.71875 
Q 11.71875 9.328125 16.59375 8.109375 
Q 21.484375 6.890625 26.8125 6.890625 
Q 36.078125 6.890625 40.9375 10.546875 
Q 45.796875 14.203125 45.796875 21.1875 
Q 45.796875 27.640625 41.28125 31.265625 
Q 36.765625 34.90625 28.71875 34.90625 
L 20.21875 34.90625 
L 20.21875 43.015625 
L 29.109375 43.015625 
Q 36.375 43.015625 40.234375 45.921875 
Q 44.09375 48.828125 44.09375 54.296875 
Q 44.09375 59.90625 40.109375 62.90625 
Q 36.140625 65.921875 28.71875 65.921875 
Q 24.65625 65.921875 20.015625 65.03125 
Q 15.375 64.15625 9.8125 62.3125 
L 9.8125 71.09375 
Q 15.4375 72.65625 20.34375 73.4375 
Q 25.25 74.21875 29.59375 74.21875 
Q 40.828125 74.21875 47.359375 69.109375 
Q 53.90625 64.015625 53.90625 55.328125 
Q 53.90625 49.265625 50.4375 45.09375 
Q 46.96875 40.921875 40.578125 39.3125 
z
" id="DejaVuSans-51"/>
      </defs>
      <use transform="translate(0 0.78125)" xlink:href="#DejaVuSans-Oblique-113"/>
      <use transform="translate(63.476562 0.78125)" xlink:href="#DejaVuSans-49"/>
      <use transform="translate(127.099609 0.78125)" xlink:href="#DejaVuSans-48"/>
      <use transform="translate(190.722656 0.78125)" xlink:href="#DejaVuSans-51"/>
      <use transform="translate(255.302734 -15.625)scale(0.7)" xlink:href="#DejaVuSans-48"/>
     </g>
    </g>
   </g>
   <g id="text_14">
    <g clip-path="url(#p1e8ff0361d)">
     <!-- ${q103}_{1}$ -->
     <g transform="translate(34.78378 93.462777)scale(0.1625 -0.1625)">
      <use transform="translate(0 0.78125)" xlink:href="#DejaVuSans-Oblique-113"/>
      <use transform="translate(63.476562 0.78125)" xlink:href="#DejaVuSans-49"/>
      <use transform="translate(127.099609 0.78125)" xlink:href="#DejaVuSans-48"/>
      <use transform="translate(190.722656 0.78125)" xlink:href="#DejaVuSans-51"/>
      <use transform="translate(255.302734 -15.625)scale(0.7)" xlink:href="#DejaVuSans-49"/>
     </g>
    </g>
   </g>
   <g id="text_15">
    <g clip-path="url(#p1e8ff0361d)">
     <!-- 2 -->
     <g transform="translate(97.65658 127.754825)scale(0.104 -0.104)">
      <defs>
       <path d="M 19.1875 8.296875 
L 53.609375 8.296875 
L 53.609375 0 
L 7.328125 0 
L 7.328125 8.296875 
Q 12.9375 14.109375 22.625 23.890625 
Q 32.328125 33.6875 34.8125 36.53125 
Q 39.546875 41.84375 41.421875 45.53125 
Q 43.3125 49.21875 43.3125 52.78125 
Q 43.3125 58.59375 39.234375 62.25 
Q 35.15625 65.921875 28.609375 65.921875 
Q 23.96875 65.921875 18.8125 64.3125 
Q 13.671875 62.703125 7.8125 59.421875 
L 7.8125 69.390625 
Q 13.765625 71.78125 18.9375 73 
Q 24.125 74.21875 28.421875 74.21875 
Q 39.75 74.21875 46.484375 68.546875 
Q 53.21875 62.890625 53.21875 53.421875 
Q 53.21875 48.921875 51.53125 44.890625 
Q 49.859375 40.875 45.40625 35.40625 
Q 44.1875 33.984375 37.640625 27.21875 
Q 31.109375 20.453125 19.1875 8.296875 
z
" id="DejaVuSans-50"/>
      </defs>
      <use xlink:href="#DejaVuSans-50"/>
     </g>
    </g>
   </g>
   <g id="text_16">
    <g clip-path="url(#p1e8ff0361d)">
     <!-- c3 -->
     <g transform="translate(64.747257 138.946784)scale(0.1625 -0.1625)">
      <defs>
       <path d="M 48.78125 52.59375 
L 48.78125 44.1875 
Q 44.96875 46.296875 41.140625 47.34375 
Q 37.3125 48.390625 33.40625 48.390625 
Q 24.65625 48.390625 19.8125 42.84375 
Q 14.984375 37.3125 14.984375 27.296875 
Q 14.984375 17.28125 19.8125 11.734375 
Q 24.65625 6.203125 33.40625 6.203125 
Q 37.3125 6.203125 41.140625 7.25 
Q 44.96875 8.296875 48.78125 10.40625 
L 48.78125 2.09375 
Q 45.015625 0.34375 40.984375 -0.53125 
Q 36.96875 -1.421875 32.421875 -1.421875 
Q 20.0625 -1.421875 12.78125 6.34375 
Q 5.515625 14.109375 5.515625 27.296875 
Q 5.515625 40.671875 12.859375 48.328125 
Q 20.21875 56 33.015625 56 
Q 37.15625 56 41.109375 55.140625 
Q 45.0625 54.296875 48.78125 52.59375 
z
" id="DejaVuSans-99"/>
      </defs>
      <use xlink:href="#DejaVuSans-99"/>
      <use x="54.980469" xlink:href="#DejaVuSans-51"/>
     </g>
    </g>
   </g>
  </g>
 </g>
 <defs>
  <clipPath id="p1e8ff0361d">
   <rect height="154.5334" width="504.06068" x="7.2" y="7.2"/>
  </clipPath>
 </defs>
</svg>
