<?xml version="1.0" encoding="utf-8" standalone="no"?>
<!DOCTYPE svg PUBLIC "-//W3C//DTD SVG 1.1//EN"
  "http://www.w3.org/Graphics/SVG/1.1/DTD/svg11.dtd">
<!-- Created with matplotlib (https://matplotlib.org/) -->
<svg height="248.518125pt" version="1.1" viewBox="0 0 393.207813 248.518125" width="393.207813pt" xmlns="http://www.w3.org/2000/svg" xmlns:xlink="http://www.w3.org/1999/xlink">
 <metadata>
  <rdf:RDF xmlns:cc="http://creativecommons.org/ns#" xmlns:dc="http://purl.org/dc/elements/1.1/" xmlns:rdf="http://www.w3.org/1999/02/22-rdf-syntax-ns#">
   <cc:Work>
    <dc:type rdf:resource="http://purl.org/dc/dcmitype/StillImage"/>
    <dc:date>2021-01-08T05:11:56.776481</dc:date>
    <dc:format>image/svg+xml</dc:format>
    <dc:creator>
     <cc:Agent>
      <dc:title>Matplotlib v3.3.2, https://matplotlib.org/</dc:title>
     </cc:Agent>
    </dc:creator>
   </cc:Work>
  </rdf:RDF>
 </metadata>
 <defs>
  <style type="text/css">*{stroke-linecap:butt;stroke-linejoin:round;}</style>
 </defs>
 <g id="figure_1">
  <g id="patch_1">
   <path d="M 0 248.518125 
L 393.207813 248.518125 
L 393.207813 0 
L 0 0 
z
" style="fill:none;"/>
  </g>
  <g id="axes_1">
   <g id="patch_2">
    <path d="M 51.207813 224.64 
L 386.007812 224.64 
L 386.007812 7.2 
L 51.207813 7.2 
z
" style="fill:#ffffff;"/>
   </g>
   <g id="patch_3">
    <path clip-path="url(#pe53b221cca)" d="M 71.014391 224.64 
L 71.014391 7.2 
L 75.602787 7.2 
L 75.602787 224.64 
z
" style="fill:#ff7f50;opacity:0.2;stroke:#ff7f50;stroke-linejoin:miter;"/>
   </g>
   <g id="matplotlib.axis_1">
    <g id="xtick_1">
     <g id="line2d_1">
      <path clip-path="url(#pe53b221cca)" d="M 66.425994 224.64 
L 66.425994 7.2 
" style="fill:none;stroke:#b0b0b0;stroke-linecap:square;stroke-width:0.8;"/>
     </g>
     <g id="line2d_2">
      <defs>
       <path d="M 0 0 
L 0 3.5 
" id="m36c8642a55" style="stroke:#000000;stroke-width:0.8;"/>
      </defs>
      <g>
       <use style="stroke:#000000;stroke-width:0.8;" x="66.425994" xlink:href="#m36c8642a55" y="224.64"/>
      </g>
     </g>
     <g id="text_1">
      <!-- 0 -->
      <g transform="translate(63.244744 239.238437)scale(0.1 -0.1)">
       <defs>
        <path d="M 31.78125 66.40625 
Q 24.171875 66.40625 20.328125 58.90625 
Q 16.5 51.421875 16.5 36.375 
Q 16.5 21.390625 20.328125 13.890625 
Q 24.171875 6.390625 31.78125 6.390625 
Q 39.453125 6.390625 43.28125 13.890625 
Q 47.125 21.390625 47.125 36.375 
Q 47.125 51.421875 43.28125 58.90625 
Q 39.453125 66.40625 31.78125 66.40625 
z
M 31.78125 74.21875 
Q 44.046875 74.21875 50.515625 64.515625 
Q 56.984375 54.828125 56.984375 36.375 
Q 56.984375 17.96875 50.515625 8.265625 
Q 44.046875 -1.421875 31.78125 -1.421875 
Q 19.53125 -1.421875 13.0625 8.265625 
Q 6.59375 17.96875 6.59375 36.375 
Q 6.59375 54.828125 13.0625 64.515625 
Q 19.53125 74.21875 31.78125 74.21875 
z
" id="DejaVuSans-48"/>
       </defs>
       <use xlink:href="#DejaVuSans-48"/>
      </g>
     </g>
    </g>
    <g id="xtick_2">
     <g id="line2d_3">
      <path clip-path="url(#pe53b221cca)" d="M 104.662632 224.64 
L 104.662632 7.2 
" style="fill:none;stroke:#b0b0b0;stroke-linecap:square;stroke-width:0.8;"/>
     </g>
     <g id="line2d_4">
      <g>
       <use style="stroke:#000000;stroke-width:0.8;" x="104.662632" xlink:href="#m36c8642a55" y="224.64"/>
      </g>
     </g>
     <g id="text_2">
      <!-- 25 -->
      <g transform="translate(98.300132 239.238437)scale(0.1 -0.1)">
       <defs>
        <path d="M 19.1875 8.296875 
L 53.609375 8.296875 
L 53.609375 0 
L 7.328125 0 
L 7.328125 8.296875 
Q 12.9375 14.109375 22.625 23.890625 
Q 32.328125 33.6875 34.8125 36.53125 
Q 39.546875 41.84375 41.421875 45.53125 
Q 43.3125 49.21875 43.3125 52.78125 
Q 43.3125 58.59375 39.234375 62.25 
Q 35.15625 65.921875 28.609375 65.921875 
Q 23.96875 65.921875 18.8125 64.3125 
Q 13.671875 62.703125 7.8125 59.421875 
L 7.8125 69.390625 
Q 13.765625 71.78125 18.9375 73 
Q 24.125 74.21875 28.421875 74.21875 
Q 39.75 74.21875 46.484375 68.546875 
Q 53.21875 62.890625 53.21875 53.421875 
Q 53.21875 48.921875 51.53125 44.890625 
Q 49.859375 40.875 45.40625 35.40625 
Q 44.1875 33.984375 37.640625 27.21875 
Q 31.109375 20.453125 19.1875 8.296875 
z
" id="DejaVuSans-50"/>
        <path d="M 10.796875 72.90625 
L 49.515625 72.90625 
L 49.515625 64.59375 
L 19.828125 64.59375 
L 19.828125 46.734375 
Q 21.96875 47.46875 24.109375 47.828125 
Q 26.265625 48.1875 28.421875 48.1875 
Q 40.625 48.1875 47.75 41.5 
Q 54.890625 34.8125 54.890625 23.390625 
Q 54.890625 11.625 47.5625 5.09375 
Q 40.234375 -1.421875 26.90625 -1.421875 
Q 22.3125 -1.421875 17.546875 -0.640625 
Q 12.796875 0.140625 7.71875 1.703125 
L 7.71875 11.625 
Q 12.109375 9.234375 16.796875 8.0625 
Q 21.484375 6.890625 26.703125 6.890625 
Q 35.15625 6.890625 40.078125 11.328125 
Q 45.015625 15.765625 45.015625 23.390625 
Q 45.015625 31 40.078125 35.4375 
Q 35.15625 39.890625 26.703125 39.890625 
Q 22.75 39.890625 18.8125 39.015625 
Q 14.890625 38.140625 10.796875 36.28125 
z
" id="DejaVuSans-53"/>
       </defs>
       <use xlink:href="#DejaVuSans-50"/>
       <use x="63.623047" xlink:href="#DejaVuSans-53"/>
      </g>
     </g>
    </g>
    <g id="xtick_3">
     <g id="line2d_5">
      <path clip-path="url(#pe53b221cca)" d="M 142.89927 224.64 
L 142.89927 7.2 
" style="fill:none;stroke:#b0b0b0;stroke-linecap:square;stroke-width:0.8;"/>
     </g>
     <g id="line2d_6">
      <g>
       <use style="stroke:#000000;stroke-width:0.8;" x="142.89927" xlink:href="#m36c8642a55" y="224.64"/>
      </g>
     </g>
     <g id="text_3">
      <!-- 50 -->
      <g transform="translate(136.53677 239.238437)scale(0.1 -0.1)">
       <use xlink:href="#DejaVuSans-53"/>
       <use x="63.623047" xlink:href="#DejaVuSans-48"/>
      </g>
     </g>
    </g>
    <g id="xtick_4">
     <g id="line2d_7">
      <path clip-path="url(#pe53b221cca)" d="M 181.135908 224.64 
L 181.135908 7.2 
" style="fill:none;stroke:#b0b0b0;stroke-linecap:square;stroke-width:0.8;"/>
     </g>
     <g id="line2d_8">
      <g>
       <use style="stroke:#000000;stroke-width:0.8;" x="181.135908" xlink:href="#m36c8642a55" y="224.64"/>
      </g>
     </g>
     <g id="text_4">
      <!-- 75 -->
      <g transform="translate(174.773408 239.238437)scale(0.1 -0.1)">
       <defs>
        <path d="M 8.203125 72.90625 
L 55.078125 72.90625 
L 55.078125 68.703125 
L 28.609375 0 
L 18.3125 0 
L 43.21875 64.59375 
L 8.203125 64.59375 
z
" id="DejaVuSans-55"/>
       </defs>
       <use xlink:href="#DejaVuSans-55"/>
       <use x="63.623047" xlink:href="#DejaVuSans-53"/>
      </g>
     </g>
    </g>
    <g id="xtick_5">
     <g id="line2d_9">
      <path clip-path="url(#pe53b221cca)" d="M 219.372545 224.64 
L 219.372545 7.2 
" style="fill:none;stroke:#b0b0b0;stroke-linecap:square;stroke-width:0.8;"/>
     </g>
     <g id="line2d_10">
      <g>
       <use style="stroke:#000000;stroke-width:0.8;" x="219.372545" xlink:href="#m36c8642a55" y="224.64"/>
      </g>
     </g>
     <g id="text_5">
      <!-- 100 -->
      <g transform="translate(209.828795 239.238437)scale(0.1 -0.1)">
       <defs>
        <path d="M 12.40625 8.296875 
L 28.515625 8.296875 
L 28.515625 63.921875 
L 10.984375 60.40625 
L 10.984375 69.390625 
L 28.421875 72.90625 
L 38.28125 72.90625 
L 38.28125 8.296875 
L 54.390625 8.296875 
L 54.390625 0 
L 12.40625 0 
z
" id="DejaVuSans-49"/>
       </defs>
       <use xlink:href="#DejaVuSans-49"/>
       <use x="63.623047" xlink:href="#DejaVuSans-48"/>
       <use x="127.246094" xlink:href="#DejaVuSans-48"/>
      </g>
     </g>
    </g>
    <g id="xtick_6">
     <g id="line2d_11">
      <path clip-path="url(#pe53b221cca)" d="M 257.609183 224.64 
L 257.609183 7.2 
" style="fill:none;stroke:#b0b0b0;stroke-linecap:square;stroke-width:0.8;"/>
     </g>
     <g id="line2d_12">
      <g>
       <use style="stroke:#000000;stroke-width:0.8;" x="257.609183" xlink:href="#m36c8642a55" y="224.64"/>
      </g>
     </g>
     <g id="text_6">
      <!-- 125 -->
      <g transform="translate(248.065433 239.238437)scale(0.1 -0.1)">
       <use xlink:href="#DejaVuSans-49"/>
       <use x="63.623047" xlink:href="#DejaVuSans-50"/>
       <use x="127.246094" xlink:href="#DejaVuSans-53"/>
      </g>
     </g>
    </g>
    <g id="xtick_7">
     <g id="line2d_13">
      <path clip-path="url(#pe53b221cca)" d="M 295.845821 224.64 
L 295.845821 7.2 
" style="fill:none;stroke:#b0b0b0;stroke-linecap:square;stroke-width:0.8;"/>
     </g>
     <g id="line2d_14">
      <g>
       <use style="stroke:#000000;stroke-width:0.8;" x="295.845821" xlink:href="#m36c8642a55" y="224.64"/>
      </g>
     </g>
     <g id="text_7">
      <!-- 150 -->
      <g transform="translate(286.302071 239.238437)scale(0.1 -0.1)">
       <use xlink:href="#DejaVuSans-49"/>
       <use x="63.623047" xlink:href="#DejaVuSans-53"/>
       <use x="127.246094" xlink:href="#DejaVuSans-48"/>
      </g>
     </g>
    </g>
    <g id="xtick_8">
     <g id="line2d_15">
      <path clip-path="url(#pe53b221cca)" d="M 334.082458 224.64 
L 334.082458 7.2 
" style="fill:none;stroke:#b0b0b0;stroke-linecap:square;stroke-width:0.8;"/>
     </g>
     <g id="line2d_16">
      <g>
       <use style="stroke:#000000;stroke-width:0.8;" x="334.082458" xlink:href="#m36c8642a55" y="224.64"/>
      </g>
     </g>
     <g id="text_8">
      <!-- 175 -->
      <g transform="translate(324.538708 239.238437)scale(0.1 -0.1)">
       <use xlink:href="#DejaVuSans-49"/>
       <use x="63.623047" xlink:href="#DejaVuSans-55"/>
       <use x="127.246094" xlink:href="#DejaVuSans-53"/>
      </g>
     </g>
    </g>
    <g id="xtick_9">
     <g id="line2d_17">
      <path clip-path="url(#pe53b221cca)" d="M 372.319096 224.64 
L 372.319096 7.2 
" style="fill:none;stroke:#b0b0b0;stroke-linecap:square;stroke-width:0.8;"/>
     </g>
     <g id="line2d_18">
      <g>
       <use style="stroke:#000000;stroke-width:0.8;" x="372.319096" xlink:href="#m36c8642a55" y="224.64"/>
      </g>
     </g>
     <g id="text_9">
      <!-- 200 -->
      <g transform="translate(362.775346 239.238437)scale(0.1 -0.1)">
       <use xlink:href="#DejaVuSans-50"/>
       <use x="63.623047" xlink:href="#DejaVuSans-48"/>
       <use x="127.246094" xlink:href="#DejaVuSans-48"/>
      </g>
     </g>
    </g>
   </g>
   <g id="matplotlib.axis_2">
    <g id="ytick_1">
     <g id="line2d_19">
      <path clip-path="url(#pe53b221cca)" d="M 51.207813 198.357918 
L 386.007812 198.357918 
" style="fill:none;stroke:#b0b0b0;stroke-linecap:square;stroke-width:0.8;"/>
     </g>
     <g id="line2d_20">
      <defs>
       <path d="M 0 0 
L -3.5 0 
" id="m8a2bafa683" style="stroke:#000000;stroke-width:0.8;"/>
      </defs>
      <g>
       <use style="stroke:#000000;stroke-width:0.8;" x="51.207813" xlink:href="#m8a2bafa683" y="198.357918"/>
      </g>
     </g>
     <g id="text_10">
      <!-- −0.050 -->
      <g transform="translate(7.2 202.157136)scale(0.1 -0.1)">
       <defs>
        <path d="M 10.59375 35.5 
L 73.1875 35.5 
L 73.1875 27.203125 
L 10.59375 27.203125 
z
" id="DejaVuSans-8722"/>
        <path d="M 10.6875 12.40625 
L 21 12.40625 
L 21 0 
L 10.6875 0 
z
" id="DejaVuSans-46"/>
       </defs>
       <use xlink:href="#DejaVuSans-8722"/>
       <use x="83.789062" xlink:href="#DejaVuSans-48"/>
       <use x="147.412109" xlink:href="#DejaVuSans-46"/>
       <use x="179.199219" xlink:href="#DejaVuSans-48"/>
       <use x="242.822266" xlink:href="#DejaVuSans-53"/>
       <use x="306.445312" xlink:href="#DejaVuSans-48"/>
      </g>
     </g>
    </g>
    <g id="ytick_2">
     <g id="line2d_21">
      <path clip-path="url(#pe53b221cca)" d="M 51.207813 169.54798 
L 386.007812 169.54798 
" style="fill:none;stroke:#b0b0b0;stroke-linecap:square;stroke-width:0.8;"/>
     </g>
     <g id="line2d_22">
      <g>
       <use style="stroke:#000000;stroke-width:0.8;" x="51.207813" xlink:href="#m8a2bafa683" y="169.54798"/>
      </g>
     </g>
     <g id="text_11">
      <!-- −0.025 -->
      <g transform="translate(7.2 173.347199)scale(0.1 -0.1)">
       <use xlink:href="#DejaVuSans-8722"/>
       <use x="83.789062" xlink:href="#DejaVuSans-48"/>
       <use x="147.412109" xlink:href="#DejaVuSans-46"/>
       <use x="179.199219" xlink:href="#DejaVuSans-48"/>
       <use x="242.822266" xlink:href="#DejaVuSans-50"/>
       <use x="306.445312" xlink:href="#DejaVuSans-53"/>
      </g>
     </g>
    </g>
    <g id="ytick_3">
     <g id="line2d_23">
      <path clip-path="url(#pe53b221cca)" d="M 51.207813 140.738043 
L 386.007812 140.738043 
" style="fill:none;stroke:#b0b0b0;stroke-linecap:square;stroke-width:0.8;"/>
     </g>
     <g id="line2d_24">
      <g>
       <use style="stroke:#000000;stroke-width:0.8;" x="51.207813" xlink:href="#m8a2bafa683" y="140.738043"/>
      </g>
     </g>
     <g id="text_12">
      <!-- 0.000 -->
      <g transform="translate(15.579688 144.537261)scale(0.1 -0.1)">
       <use xlink:href="#DejaVuSans-48"/>
       <use x="63.623047" xlink:href="#DejaVuSans-46"/>
       <use x="95.410156" xlink:href="#DejaVuSans-48"/>
       <use x="159.033203" xlink:href="#DejaVuSans-48"/>
       <use x="222.65625" xlink:href="#DejaVuSans-48"/>
      </g>
     </g>
    </g>
    <g id="ytick_4">
     <g id="line2d_25">
      <path clip-path="url(#pe53b221cca)" d="M 51.207813 111.928105 
L 386.007812 111.928105 
" style="fill:none;stroke:#b0b0b0;stroke-linecap:square;stroke-width:0.8;"/>
     </g>
     <g id="line2d_26">
      <g>
       <use style="stroke:#000000;stroke-width:0.8;" x="51.207813" xlink:href="#m8a2bafa683" y="111.928105"/>
      </g>
     </g>
     <g id="text_13">
      <!-- 0.025 -->
      <g transform="translate(15.579688 115.727324)scale(0.1 -0.1)">
       <use xlink:href="#DejaVuSans-48"/>
       <use x="63.623047" xlink:href="#DejaVuSans-46"/>
       <use x="95.410156" xlink:href="#DejaVuSans-48"/>
       <use x="159.033203" xlink:href="#DejaVuSans-50"/>
       <use x="222.65625" xlink:href="#DejaVuSans-53"/>
      </g>
     </g>
    </g>
    <g id="ytick_5">
     <g id="line2d_27">
      <path clip-path="url(#pe53b221cca)" d="M 51.207813 83.118168 
L 386.007812 83.118168 
" style="fill:none;stroke:#b0b0b0;stroke-linecap:square;stroke-width:0.8;"/>
     </g>
     <g id="line2d_28">
      <g>
       <use style="stroke:#000000;stroke-width:0.8;" x="51.207813" xlink:href="#m8a2bafa683" y="83.118168"/>
      </g>
     </g>
     <g id="text_14">
      <!-- 0.050 -->
      <g transform="translate(15.579688 86.917386)scale(0.1 -0.1)">
       <use xlink:href="#DejaVuSans-48"/>
       <use x="63.623047" xlink:href="#DejaVuSans-46"/>
       <use x="95.410156" xlink:href="#DejaVuSans-48"/>
       <use x="159.033203" xlink:href="#DejaVuSans-53"/>
       <use x="222.65625" xlink:href="#DejaVuSans-48"/>
      </g>
     </g>
    </g>
    <g id="ytick_6">
     <g id="line2d_29">
      <path clip-path="url(#pe53b221cca)" d="M 51.207813 54.30823 
L 386.007812 54.30823 
" style="fill:none;stroke:#b0b0b0;stroke-linecap:square;stroke-width:0.8;"/>
     </g>
     <g id="line2d_30">
      <g>
       <use style="stroke:#000000;stroke-width:0.8;" x="51.207813" xlink:href="#m8a2bafa683" y="54.30823"/>
      </g>
     </g>
     <g id="text_15">
      <!-- 0.075 -->
      <g transform="translate(15.579688 58.107449)scale(0.1 -0.1)">
       <use xlink:href="#DejaVuSans-48"/>
       <use x="63.623047" xlink:href="#DejaVuSans-46"/>
       <use x="95.410156" xlink:href="#DejaVuSans-48"/>
       <use x="159.033203" xlink:href="#DejaVuSans-55"/>
       <use x="222.65625" xlink:href="#DejaVuSans-53"/>
      </g>
     </g>
    </g>
    <g id="ytick_7">
     <g id="line2d_31">
      <path clip-path="url(#pe53b221cca)" d="M 51.207813 25.498293 
L 386.007812 25.498293 
" style="fill:none;stroke:#b0b0b0;stroke-linecap:square;stroke-width:0.8;"/>
     </g>
     <g id="line2d_32">
      <g>
       <use style="stroke:#000000;stroke-width:0.8;" x="51.207813" xlink:href="#m8a2bafa683" y="25.498293"/>
      </g>
     </g>
     <g id="text_16">
      <!-- 0.100 -->
      <g transform="translate(15.579688 29.297511)scale(0.1 -0.1)">
       <use xlink:href="#DejaVuSans-48"/>
       <use x="63.623047" xlink:href="#DejaVuSans-46"/>
       <use x="95.410156" xlink:href="#DejaVuSans-49"/>
       <use x="159.033203" xlink:href="#DejaVuSans-48"/>
       <use x="222.65625" xlink:href="#DejaVuSans-48"/>
      </g>
     </g>
    </g>
   </g>
   <g id="line2d_33">
    <path clip-path="url(#pe53b221cca)" d="M 66.425994 140.738043 
L 67.95546 145.059057 
L 69.484925 148.961908 
L 71.014391 157.953876 
L 72.543856 154.23511 
L 74.073322 167.760408 
L 75.602787 158.786673 
L 77.132253 170.081182 
L 78.661718 186.64948 
L 80.191184 181.895012 
L 81.720649 171.4333 
L 83.250115 167.571617 
L 84.77958 182.091449 
L 86.309046 188.151573 
L 87.838511 172.300796 
L 89.367977 152.016672 
L 90.897442 148.193218 
L 92.426908 153.989271 
L 93.956373 173.251219 
L 95.485839 166.973486 
L 97.015305 180.706395 
L 98.54477 180.493491 
L 100.074236 177.052324 
L 101.603701 180.929886 
L 103.133167 175.23558 
L 104.662632 181.112795 
L 106.192098 153.396432 
L 107.721563 148.678428 
L 109.251029 161.627356 
L 110.780494 149.923506 
L 112.30996 155.24317 
L 113.839425 161.883782 
L 115.368891 160.915715 
L 116.898356 153.248811 
L 118.427822 153.341148 
L 119.957287 153.835768 
L 121.486753 159.006634 
L 123.016218 169.361895 
L 124.545684 168.684365 
L 126.075149 152.53717 
L 127.604615 142.464801 
L 130.663546 153.384082 
L 132.193011 155.441959 
L 133.722477 160.742215 
L 135.251942 156.945816 
L 136.781408 140.123443 
L 138.310873 138.409623 
L 139.840339 139.835846 
L 141.369804 141.72493 
L 142.89927 140.974472 
L 145.958201 148.870748 
L 147.487666 173.248867 
L 149.017132 170.665198 
L 150.546597 160.242302 
L 152.076063 176.530062 
L 153.605528 163.751105 
L 155.134994 162.891842 
L 158.193925 181.019282 
L 159.72339 176.668861 
L 161.252856 186.842388 
L 162.782321 183.841733 
L 164.311787 199.380799 
L 165.841252 195.406783 
L 167.370718 187.569909 
L 168.900183 190.511163 
L 170.429649 201.995051 
L 171.959114 209.392001 
L 173.48858 214.756364 
L 175.018045 213.601858 
L 176.547511 209.877211 
L 178.076977 209.076762 
L 179.606442 209.177333 
L 181.135908 197.987511 
L 182.665373 182.98247 
L 185.724304 158.660224 
L 187.25377 160.869252 
L 188.783235 164.11163 
L 190.312701 157.419851 
L 191.842166 149.469467 
L 193.371632 123.003476 
L 194.901097 126.102937 
L 197.960028 119.130619 
L 199.489494 123.697473 
L 201.018959 124.5238 
L 202.548425 121.584898 
L 204.07789 127.756768 
L 205.607356 143.108219 
L 207.136821 140.938008 
L 208.666287 135.790667 
L 210.195752 139.613532 
L 211.725218 131.985445 
L 213.254683 127.859691 
L 214.784149 135.287225 
L 217.84308 135.815956 
L 219.372545 137.420383 
L 220.902011 125.101347 
L 222.431476 106.442822 
L 223.960942 106.822756 
L 225.490407 118.051395 
L 227.019873 117.773796 
L 228.549338 122.205967 
L 230.078804 116.089382 
L 231.608269 122.24596 
L 233.137735 122.824095 
L 234.6672 123.719822 
L 236.196666 126.76047 
L 237.726131 120.206314 
L 239.255597 112.884645 
L 240.785062 103.318071 
L 242.314528 108.706547 
L 243.843993 110.369787 
L 246.902924 107.850225 
L 248.43239 103.630958 
L 249.961855 109.199403 
L 251.491321 103.912674 
L 253.020786 114.903118 
L 254.550252 113.587464 
L 256.079717 114.966636 
L 257.609183 112.068316 
L 259.138648 117.218598 
L 260.668114 121.039699 
L 262.19758 112.106545 
L 263.727045 105.37242 
L 265.256511 111.083193 
L 266.785976 110.99909 
L 268.315442 109.878696 
L 269.844907 116.87454 
L 271.374373 115.642401 
L 272.903838 108.36543 
L 274.433304 111.002619 
L 275.962769 118.300175 
L 277.492235 119.504083 
L 279.0217 113.919171 
L 280.551166 112.185355 
L 282.080631 119.23119 
L 283.610097 121.269659 
L 285.139562 117.704984 
L 286.669028 112.161829 
L 288.198493 115.148369 
L 289.727959 119.672878 
L 291.257424 113.582171 
L 292.78689 117.103912 
L 294.316355 132.236578 
L 295.845821 132.764133 
L 297.375286 144.09393 
L 298.904752 131.377904 
L 300.434217 132.791187 
L 301.963683 134.358562 
L 303.493148 148.01619 
L 305.022614 152.561283 
L 306.552079 153.107659 
L 308.081545 150.119943 
L 309.61101 154.876175 
L 311.140476 149.063067 
L 312.669941 149.222451 
L 314.199407 154.359794 
L 317.258338 137.675045 
L 318.787803 135.014919 
L 320.317269 145.790694 
L 321.846734 152.991797 
L 323.3762 154.629159 
L 324.905665 152.361906 
L 326.435131 159.519487 
L 327.964596 143.584019 
L 329.494062 130.006965 
L 331.023527 124.760817 
L 332.552993 128.194339 
L 334.082458 122.191852 
L 335.611924 99.261717 
L 337.141389 98.610065 
L 338.670855 96.432796 
L 340.20032 99.43404 
L 341.729786 93.486249 
L 344.788717 101.163151 
L 346.318183 95.513544 
L 347.847648 95.915239 
L 349.377114 93.298047 
L 350.906579 80.753755 
L 352.436045 80.013295 
L 353.96551 79.90155 
L 355.494976 76.246302 
L 357.024441 68.435894 
L 358.553907 65.038837 
L 360.083372 60.718999 
L 361.612838 48.929282 
L 363.142303 43.025601 
L 364.671769 38.287601 
L 366.201234 36.703758 
L 367.7307 31.676984 
L 369.260165 31.140607 
L 370.789631 17.083636 
L 370.789631 17.083636 
" style="fill:none;stroke:#ff7f50;stroke-linecap:square;stroke-width:1.5;"/>
   </g>
   <g id="line2d_34">
    <path clip-path="url(#pe53b221cca)" d="M 66.425994 140.738043 
L 67.95546 145.059057 
L 69.484925 148.961908 
L 71.014391 157.953876 
L 72.543856 154.23511 
L 74.073322 167.760408 
L 75.602787 158.786673 
L 77.132253 170.081182 
L 78.661718 186.64948 
L 80.191184 181.895012 
L 81.720649 171.4333 
L 83.250115 167.571617 
L 84.77958 182.091449 
L 86.309046 188.151573 
L 87.838511 172.300796 
L 89.367977 152.016672 
L 90.897442 148.193218 
L 92.426908 153.989271 
L 93.956373 173.251219 
L 95.485839 166.973486 
L 97.015305 180.706395 
L 98.54477 180.493491 
L 100.074236 177.052324 
L 101.603701 180.929886 
L 103.133167 175.23558 
L 104.662632 181.112795 
L 106.192098 153.396432 
L 107.721563 148.678428 
L 109.251029 161.627356 
L 110.780494 149.923506 
L 112.30996 155.24317 
L 113.839425 161.883782 
L 115.368891 160.915715 
L 116.898356 153.248811 
L 118.427822 153.341148 
L 119.957287 153.835768 
L 121.486753 159.006634 
L 123.016218 169.361895 
L 124.545684 168.684365 
L 126.075149 152.53717 
L 127.604615 142.464801 
L 130.663546 153.384082 
L 132.193011 155.441959 
L 133.722477 160.742215 
L 135.251942 156.945816 
L 136.781408 140.123443 
L 138.310873 138.409623 
L 139.840339 139.835846 
L 141.369804 141.72493 
L 142.89927 140.974472 
L 145.958201 148.870748 
L 147.487666 173.248867 
L 149.017132 170.665198 
L 150.546597 160.242302 
L 152.076063 176.530062 
L 153.605528 163.751105 
L 155.134994 162.891842 
L 158.193925 181.019282 
L 159.72339 176.668861 
L 161.252856 186.842388 
L 162.782321 183.841733 
L 164.311787 199.380799 
L 165.841252 195.406783 
L 167.370718 187.569909 
L 168.900183 190.511163 
L 170.429649 201.995051 
L 171.959114 209.392001 
L 173.48858 214.756364 
L 175.018045 213.601858 
L 176.547511 209.877211 
L 178.076977 209.076762 
L 179.606442 209.177333 
L 181.135908 197.987511 
L 182.665373 182.98247 
L 185.724304 158.660224 
L 187.25377 160.869252 
L 188.783235 164.11163 
L 190.312701 157.419851 
L 191.842166 149.469467 
L 193.371632 123.003476 
L 194.901097 126.102937 
L 197.960028 119.130619 
L 199.489494 123.697473 
L 201.018959 124.5238 
L 202.548425 121.584898 
L 204.07789 127.756768 
L 205.607356 143.108219 
L 207.136821 140.938008 
L 208.666287 135.790667 
L 210.195752 139.613532 
L 211.725218 131.985445 
L 213.254683 127.859691 
L 214.784149 135.287225 
L 217.84308 135.815956 
L 219.372545 137.420383 
L 220.902011 125.101347 
L 222.431476 106.442822 
L 223.960942 106.822756 
L 225.490407 118.051395 
L 227.019873 117.773796 
L 228.549338 122.205967 
L 230.078804 116.089382 
L 231.608269 122.24596 
L 233.137735 122.824095 
L 234.6672 123.719822 
L 236.196666 126.76047 
L 237.726131 120.206314 
L 239.255597 112.884645 
L 240.785062 103.318071 
L 242.314528 108.706547 
L 243.843993 110.369787 
L 246.902924 107.850225 
L 248.43239 103.630958 
L 249.961855 109.199403 
L 251.491321 103.912674 
L 253.020786 114.903118 
L 254.550252 113.587464 
L 256.079717 114.966636 
L 257.609183 112.068316 
L 259.138648 117.218598 
L 260.668114 121.039699 
L 262.19758 112.106545 
L 263.727045 105.37242 
L 265.256511 111.083193 
L 266.785976 110.99909 
L 268.315442 109.878696 
L 269.844907 116.87454 
L 271.374373 115.642401 
L 272.903838 108.36543 
L 274.433304 111.002619 
L 275.962769 118.300175 
L 277.492235 119.504083 
L 279.0217 113.919171 
L 280.551166 112.185355 
L 282.080631 119.23119 
L 283.610097 121.269659 
L 285.139562 117.704984 
L 286.669028 112.161829 
L 288.198493 115.148369 
L 289.727959 119.672878 
L 291.257424 113.582171 
L 292.78689 117.103912 
L 294.316355 132.236578 
L 295.845821 132.764133 
L 297.375286 140.738043 
L 298.904752 131.626423 
L 329.494062 128.219056 
L 346.318183 126.652408 
L 364.671769 125.164353 
L 370.789631 124.714269 
L 370.789631 124.714269 
" style="fill:none;stroke:#0000ff;stroke-linecap:square;stroke-width:1.5;"/>
   </g>
   <g id="patch_4">
    <path d="M 51.207813 224.64 
L 51.207813 7.2 
" style="fill:none;stroke:#000000;stroke-linecap:square;stroke-linejoin:miter;stroke-width:0.8;"/>
   </g>
   <g id="patch_5">
    <path d="M 386.007812 224.64 
L 386.007812 7.2 
" style="fill:none;stroke:#000000;stroke-linecap:square;stroke-linejoin:miter;stroke-width:0.8;"/>
   </g>
   <g id="patch_6">
    <path d="M 51.207813 224.64 
L 386.007813 224.64 
" style="fill:none;stroke:#000000;stroke-linecap:square;stroke-linejoin:miter;stroke-width:0.8;"/>
   </g>
   <g id="patch_7">
    <path d="M 51.207813 7.2 
L 386.007813 7.2 
" style="fill:none;stroke:#000000;stroke-linecap:square;stroke-linejoin:miter;stroke-width:0.8;"/>
   </g>
   <g id="legend_1">
    <g id="patch_8">
     <path d="M 267.982813 219.64 
L 379.007812 219.64 
Q 381.007812 219.64 381.007812 217.64 
L 381.007812 189.28375 
Q 381.007812 187.28375 379.007812 187.28375 
L 267.982813 187.28375 
Q 265.982813 187.28375 265.982813 189.28375 
L 265.982813 217.64 
Q 265.982813 219.64 267.982813 219.64 
z
" style="fill:#ffffff;opacity:0.8;stroke:#cccccc;stroke-linejoin:miter;"/>
    </g>
    <g id="line2d_35">
     <path d="M 269.982813 195.382187 
L 289.982813 195.382187 
" style="fill:none;stroke:#ff7f50;stroke-linecap:square;stroke-width:1.5;"/>
    </g>
    <g id="line2d_36"/>
    <g id="text_17">
     <!-- nikkei stock -->
     <g transform="translate(297.982813 198.882187)scale(0.1 -0.1)">
      <defs>
       <path d="M 54.890625 33.015625 
L 54.890625 0 
L 45.90625 0 
L 45.90625 32.71875 
Q 45.90625 40.484375 42.875 44.328125 
Q 39.84375 48.1875 33.796875 48.1875 
Q 26.515625 48.1875 22.3125 43.546875 
Q 18.109375 38.921875 18.109375 30.90625 
L 18.109375 0 
L 9.078125 0 
L 9.078125 54.6875 
L 18.109375 54.6875 
L 18.109375 46.1875 
Q 21.34375 51.125 25.703125 53.5625 
Q 30.078125 56 35.796875 56 
Q 45.21875 56 50.046875 50.171875 
Q 54.890625 44.34375 54.890625 33.015625 
z
" id="DejaVuSans-110"/>
       <path d="M 9.421875 54.6875 
L 18.40625 54.6875 
L 18.40625 0 
L 9.421875 0 
z
M 9.421875 75.984375 
L 18.40625 75.984375 
L 18.40625 64.59375 
L 9.421875 64.59375 
z
" id="DejaVuSans-105"/>
       <path d="M 9.078125 75.984375 
L 18.109375 75.984375 
L 18.109375 31.109375 
L 44.921875 54.6875 
L 56.390625 54.6875 
L 27.390625 29.109375 
L 57.625 0 
L 45.90625 0 
L 18.109375 26.703125 
L 18.109375 0 
L 9.078125 0 
z
" id="DejaVuSans-107"/>
       <path d="M 56.203125 29.59375 
L 56.203125 25.203125 
L 14.890625 25.203125 
Q 15.484375 15.921875 20.484375 11.0625 
Q 25.484375 6.203125 34.421875 6.203125 
Q 39.59375 6.203125 44.453125 7.46875 
Q 49.3125 8.734375 54.109375 11.28125 
L 54.109375 2.78125 
Q 49.265625 0.734375 44.1875 -0.34375 
Q 39.109375 -1.421875 33.890625 -1.421875 
Q 20.796875 -1.421875 13.15625 6.1875 
Q 5.515625 13.8125 5.515625 26.8125 
Q 5.515625 40.234375 12.765625 48.109375 
Q 20.015625 56 32.328125 56 
Q 43.359375 56 49.78125 48.890625 
Q 56.203125 41.796875 56.203125 29.59375 
z
M 47.21875 32.234375 
Q 47.125 39.59375 43.09375 43.984375 
Q 39.0625 48.390625 32.421875 48.390625 
Q 24.90625 48.390625 20.390625 44.140625 
Q 15.875 39.890625 15.1875 32.171875 
z
" id="DejaVuSans-101"/>
       <path id="DejaVuSans-32"/>
       <path d="M 44.28125 53.078125 
L 44.28125 44.578125 
Q 40.484375 46.53125 36.375 47.5 
Q 32.28125 48.484375 27.875 48.484375 
Q 21.1875 48.484375 17.84375 46.4375 
Q 14.5 44.390625 14.5 40.28125 
Q 14.5 37.15625 16.890625 35.375 
Q 19.28125 33.59375 26.515625 31.984375 
L 29.59375 31.296875 
Q 39.15625 29.25 43.1875 25.515625 
Q 47.21875 21.78125 47.21875 15.09375 
Q 47.21875 7.46875 41.1875 3.015625 
Q 35.15625 -1.421875 24.609375 -1.421875 
Q 20.21875 -1.421875 15.453125 -0.5625 
Q 10.6875 0.296875 5.421875 2 
L 5.421875 11.28125 
Q 10.40625 8.6875 15.234375 7.390625 
Q 20.0625 6.109375 24.8125 6.109375 
Q 31.15625 6.109375 34.5625 8.28125 
Q 37.984375 10.453125 37.984375 14.40625 
Q 37.984375 18.0625 35.515625 20.015625 
Q 33.0625 21.96875 24.703125 23.78125 
L 21.578125 24.515625 
Q 13.234375 26.265625 9.515625 29.90625 
Q 5.8125 33.546875 5.8125 39.890625 
Q 5.8125 47.609375 11.28125 51.796875 
Q 16.75 56 26.8125 56 
Q 31.78125 56 36.171875 55.265625 
Q 40.578125 54.546875 44.28125 53.078125 
z
" id="DejaVuSans-115"/>
       <path d="M 18.3125 70.21875 
L 18.3125 54.6875 
L 36.8125 54.6875 
L 36.8125 47.703125 
L 18.3125 47.703125 
L 18.3125 18.015625 
Q 18.3125 11.328125 20.140625 9.421875 
Q 21.96875 7.515625 27.59375 7.515625 
L 36.8125 7.515625 
L 36.8125 0 
L 27.59375 0 
Q 17.1875 0 13.234375 3.875 
Q 9.28125 7.765625 9.28125 18.015625 
L 9.28125 47.703125 
L 2.6875 47.703125 
L 2.6875 54.6875 
L 9.28125 54.6875 
L 9.28125 70.21875 
z
" id="DejaVuSans-116"/>
       <path d="M 30.609375 48.390625 
Q 23.390625 48.390625 19.1875 42.75 
Q 14.984375 37.109375 14.984375 27.296875 
Q 14.984375 17.484375 19.15625 11.84375 
Q 23.34375 6.203125 30.609375 6.203125 
Q 37.796875 6.203125 41.984375 11.859375 
Q 46.1875 17.53125 46.1875 27.296875 
Q 46.1875 37.015625 41.984375 42.703125 
Q 37.796875 48.390625 30.609375 48.390625 
z
M 30.609375 56 
Q 42.328125 56 49.015625 48.375 
Q 55.71875 40.765625 55.71875 27.296875 
Q 55.71875 13.875 49.015625 6.21875 
Q 42.328125 -1.421875 30.609375 -1.421875 
Q 18.84375 -1.421875 12.171875 6.21875 
Q 5.515625 13.875 5.515625 27.296875 
Q 5.515625 40.765625 12.171875 48.375 
Q 18.84375 56 30.609375 56 
z
" id="DejaVuSans-111"/>
       <path d="M 48.78125 52.59375 
L 48.78125 44.1875 
Q 44.96875 46.296875 41.140625 47.34375 
Q 37.3125 48.390625 33.40625 48.390625 
Q 24.65625 48.390625 19.8125 42.84375 
Q 14.984375 37.3125 14.984375 27.296875 
Q 14.984375 17.28125 19.8125 11.734375 
Q 24.65625 6.203125 33.40625 6.203125 
Q 37.3125 6.203125 41.140625 7.25 
Q 44.96875 8.296875 48.78125 10.40625 
L 48.78125 2.09375 
Q 45.015625 0.34375 40.984375 -0.53125 
Q 36.96875 -1.421875 32.421875 -1.421875 
Q 20.0625 -1.421875 12.78125 6.34375 
Q 5.515625 14.109375 5.515625 27.296875 
Q 5.515625 40.671875 12.859375 48.328125 
Q 20.21875 56 33.015625 56 
Q 37.15625 56 41.109375 55.140625 
Q 45.0625 54.296875 48.78125 52.59375 
z
" id="DejaVuSans-99"/>
      </defs>
      <use xlink:href="#DejaVuSans-110"/>
      <use x="63.378906" xlink:href="#DejaVuSans-105"/>
      <use x="91.162109" xlink:href="#DejaVuSans-107"/>
      <use x="149.072266" xlink:href="#DejaVuSans-107"/>
      <use x="203.357422" xlink:href="#DejaVuSans-101"/>
      <use x="264.880859" xlink:href="#DejaVuSans-105"/>
      <use x="292.664062" xlink:href="#DejaVuSans-32"/>
      <use x="324.451172" xlink:href="#DejaVuSans-115"/>
      <use x="376.550781" xlink:href="#DejaVuSans-116"/>
      <use x="415.759766" xlink:href="#DejaVuSans-111"/>
      <use x="476.941406" xlink:href="#DejaVuSans-99"/>
      <use x="531.921875" xlink:href="#DejaVuSans-107"/>
     </g>
    </g>
    <g id="line2d_37">
     <path d="M 269.982813 210.060312 
L 289.982813 210.060312 
" style="fill:none;stroke:#0000ff;stroke-linecap:square;stroke-width:1.5;"/>
    </g>
    <g id="line2d_38"/>
    <g id="text_18">
     <!-- lstm pred result -->
     <g transform="translate(297.982813 213.560312)scale(0.1 -0.1)">
      <defs>
       <path d="M 9.421875 75.984375 
L 18.40625 75.984375 
L 18.40625 0 
L 9.421875 0 
z
" id="DejaVuSans-108"/>
       <path d="M 52 44.1875 
Q 55.375 50.25 60.0625 53.125 
Q 64.75 56 71.09375 56 
Q 79.640625 56 84.28125 50.015625 
Q 88.921875 44.046875 88.921875 33.015625 
L 88.921875 0 
L 79.890625 0 
L 79.890625 32.71875 
Q 79.890625 40.578125 77.09375 44.375 
Q 74.3125 48.1875 68.609375 48.1875 
Q 61.625 48.1875 57.5625 43.546875 
Q 53.515625 38.921875 53.515625 30.90625 
L 53.515625 0 
L 44.484375 0 
L 44.484375 32.71875 
Q 44.484375 40.625 41.703125 44.40625 
Q 38.921875 48.1875 33.109375 48.1875 
Q 26.21875 48.1875 22.15625 43.53125 
Q 18.109375 38.875 18.109375 30.90625 
L 18.109375 0 
L 9.078125 0 
L 9.078125 54.6875 
L 18.109375 54.6875 
L 18.109375 46.1875 
Q 21.1875 51.21875 25.484375 53.609375 
Q 29.78125 56 35.6875 56 
Q 41.65625 56 45.828125 52.96875 
Q 50 49.953125 52 44.1875 
z
" id="DejaVuSans-109"/>
       <path d="M 18.109375 8.203125 
L 18.109375 -20.796875 
L 9.078125 -20.796875 
L 9.078125 54.6875 
L 18.109375 54.6875 
L 18.109375 46.390625 
Q 20.953125 51.265625 25.265625 53.625 
Q 29.59375 56 35.59375 56 
Q 45.5625 56 51.78125 48.09375 
Q 58.015625 40.1875 58.015625 27.296875 
Q 58.015625 14.40625 51.78125 6.484375 
Q 45.5625 -1.421875 35.59375 -1.421875 
Q 29.59375 -1.421875 25.265625 0.953125 
Q 20.953125 3.328125 18.109375 8.203125 
z
M 48.6875 27.296875 
Q 48.6875 37.203125 44.609375 42.84375 
Q 40.53125 48.484375 33.40625 48.484375 
Q 26.265625 48.484375 22.1875 42.84375 
Q 18.109375 37.203125 18.109375 27.296875 
Q 18.109375 17.390625 22.1875 11.75 
Q 26.265625 6.109375 33.40625 6.109375 
Q 40.53125 6.109375 44.609375 11.75 
Q 48.6875 17.390625 48.6875 27.296875 
z
" id="DejaVuSans-112"/>
       <path d="M 41.109375 46.296875 
Q 39.59375 47.171875 37.8125 47.578125 
Q 36.03125 48 33.890625 48 
Q 26.265625 48 22.1875 43.046875 
Q 18.109375 38.09375 18.109375 28.8125 
L 18.109375 0 
L 9.078125 0 
L 9.078125 54.6875 
L 18.109375 54.6875 
L 18.109375 46.1875 
Q 20.953125 51.171875 25.484375 53.578125 
Q 30.03125 56 36.53125 56 
Q 37.453125 56 38.578125 55.875 
Q 39.703125 55.765625 41.0625 55.515625 
z
" id="DejaVuSans-114"/>
       <path d="M 45.40625 46.390625 
L 45.40625 75.984375 
L 54.390625 75.984375 
L 54.390625 0 
L 45.40625 0 
L 45.40625 8.203125 
Q 42.578125 3.328125 38.25 0.953125 
Q 33.9375 -1.421875 27.875 -1.421875 
Q 17.96875 -1.421875 11.734375 6.484375 
Q 5.515625 14.40625 5.515625 27.296875 
Q 5.515625 40.1875 11.734375 48.09375 
Q 17.96875 56 27.875 56 
Q 33.9375 56 38.25 53.625 
Q 42.578125 51.265625 45.40625 46.390625 
z
M 14.796875 27.296875 
Q 14.796875 17.390625 18.875 11.75 
Q 22.953125 6.109375 30.078125 6.109375 
Q 37.203125 6.109375 41.296875 11.75 
Q 45.40625 17.390625 45.40625 27.296875 
Q 45.40625 37.203125 41.296875 42.84375 
Q 37.203125 48.484375 30.078125 48.484375 
Q 22.953125 48.484375 18.875 42.84375 
Q 14.796875 37.203125 14.796875 27.296875 
z
" id="DejaVuSans-100"/>
       <path d="M 8.5 21.578125 
L 8.5 54.6875 
L 17.484375 54.6875 
L 17.484375 21.921875 
Q 17.484375 14.15625 20.5 10.265625 
Q 23.53125 6.390625 29.59375 6.390625 
Q 36.859375 6.390625 41.078125 11.03125 
Q 45.3125 15.671875 45.3125 23.6875 
L 45.3125 54.6875 
L 54.296875 54.6875 
L 54.296875 0 
L 45.3125 0 
L 45.3125 8.40625 
Q 42.046875 3.421875 37.71875 1 
Q 33.40625 -1.421875 27.6875 -1.421875 
Q 18.265625 -1.421875 13.375 4.4375 
Q 8.5 10.296875 8.5 21.578125 
z
M 31.109375 56 
z
" id="DejaVuSans-117"/>
      </defs>
      <use xlink:href="#DejaVuSans-108"/>
      <use x="27.783203" xlink:href="#DejaVuSans-115"/>
      <use x="79.882812" xlink:href="#DejaVuSans-116"/>
      <use x="119.091797" xlink:href="#DejaVuSans-109"/>
      <use x="216.503906" xlink:href="#DejaVuSans-32"/>
      <use x="248.291016" xlink:href="#DejaVuSans-112"/>
      <use x="311.767578" xlink:href="#DejaVuSans-114"/>
      <use x="350.630859" xlink:href="#DejaVuSans-101"/>
      <use x="412.154297" xlink:href="#DejaVuSans-100"/>
      <use x="475.630859" xlink:href="#DejaVuSans-32"/>
      <use x="507.417969" xlink:href="#DejaVuSans-114"/>
      <use x="546.28125" xlink:href="#DejaVuSans-101"/>
      <use x="607.804688" xlink:href="#DejaVuSans-115"/>
      <use x="659.904297" xlink:href="#DejaVuSans-117"/>
      <use x="723.283203" xlink:href="#DejaVuSans-108"/>
      <use x="751.066406" xlink:href="#DejaVuSans-116"/>
     </g>
    </g>
   </g>
  </g>
 </g>
 <defs>
  <clipPath id="pe53b221cca">
   <rect height="217.44" width="334.8" x="51.207813" y="7.2"/>
  </clipPath>
 </defs>
</svg>
