<?xml version="1.0" encoding="utf-8" standalone="no"?>
<!DOCTYPE svg PUBLIC "-//W3C//DTD SVG 1.1//EN"
  "http://www.w3.org/Graphics/SVG/1.1/DTD/svg11.dtd">
<!-- Created with matplotlib (https://matplotlib.org/) -->
<svg height="532.5414pt" version="1.1" viewBox="0 0 1216.056036 532.5414" width="1216.056036pt" xmlns="http://www.w3.org/2000/svg" xmlns:xlink="http://www.w3.org/1999/xlink">
 <metadata>
  <rdf:RDF xmlns:cc="http://creativecommons.org/ns#" xmlns:dc="http://purl.org/dc/elements/1.1/" xmlns:rdf="http://www.w3.org/1999/02/22-rdf-syntax-ns#">
   <cc:Work>
    <dc:type rdf:resource="http://purl.org/dc/dcmitype/StillImage"/>
    <dc:date>2021-09-18T00:03:39.454133</dc:date>
    <dc:format>image/svg+xml</dc:format>
    <dc:creator>
     <cc:Agent>
      <dc:title>Matplotlib v3.3.2, https://matplotlib.org/</dc:title>
     </cc:Agent>
    </dc:creator>
   </cc:Work>
  </rdf:RDF>
 </metadata>
 <defs>
  <style type="text/css">*{stroke-linecap:butt;stroke-linejoin:round;}</style>
 </defs>
 <g id="figure_1">
  <g id="patch_1">
   <path d="M -0 532.5414 
L 1216.056036 532.5414 
L 1216.056036 -0 
L -0 -0 
z
" style="fill:#ffffff;"/>
  </g>
  <g id="axes_1">
   <g id="patch_2">
    <path clip-path="url(#p388a2f78b4)" d="M 173.027746 487.730697 
L 184.845006 487.730697 
L 178.936376 496.25276 
z
" style="fill:#778899;"/>
   </g>
   <g id="patch_3">
    <path clip-path="url(#p388a2f78b4)" d="M 218.478746 487.730697 
L 230.296006 487.730697 
L 224.387376 496.25276 
z
" style="fill:#778899;"/>
   </g>
   <g id="patch_4">
    <path clip-path="url(#p388a2f78b4)" d="M 263.929746 487.730697 
L 275.747006 487.730697 
L 269.838376 496.25276 
z
" style="fill:#778899;"/>
   </g>
   <g id="line2d_1">
    <path clip-path="url(#p388a2f78b4)" d="M 63.490836 43.5608 
L 1204.310936 43.5608 
" style="fill:none;stroke:#000000;stroke-linecap:square;stroke-width:2;"/>
   </g>
   <g id="line2d_2">
    <path clip-path="url(#p388a2f78b4)" d="M 63.490836 89.0118 
L 1204.310936 89.0118 
" style="fill:none;stroke:#000000;stroke-linecap:square;stroke-width:2;"/>
   </g>
   <g id="line2d_3">
    <path clip-path="url(#p388a2f78b4)" d="M 63.490836 134.4628 
L 1204.310936 134.4628 
" style="fill:none;stroke:#000000;stroke-linecap:square;stroke-width:2;"/>
   </g>
   <g id="line2d_4">
    <path clip-path="url(#p388a2f78b4)" d="M 63.490836 179.9138 
L 1204.310936 179.9138 
" style="fill:none;stroke:#000000;stroke-linecap:square;stroke-width:2;"/>
   </g>
   <g id="line2d_5">
    <path clip-path="url(#p388a2f78b4)" d="M 63.490836 223.887642 
L 1204.310936 223.887642 
" style="fill:none;stroke:#778899;stroke-linecap:square;stroke-width:2;"/>
   </g>
   <g id="line2d_6">
    <path clip-path="url(#p388a2f78b4)" d="M 63.490836 226.841957 
L 1204.310936 226.841957 
" style="fill:none;stroke:#778899;stroke-linecap:square;stroke-width:2;"/>
   </g>
   <g id="line2d_7">
    <path clip-path="url(#p388a2f78b4)" d="M 63.490836 316.2668 
L 1204.310936 316.2668 
" style="fill:none;stroke:#000000;stroke-linecap:square;stroke-width:2;"/>
   </g>
   <g id="line2d_8">
    <path clip-path="url(#p388a2f78b4)" d="M 63.490836 361.7178 
L 1204.310936 361.7178 
" style="fill:none;stroke:#000000;stroke-linecap:square;stroke-width:2;"/>
   </g>
   <g id="line2d_9">
    <path clip-path="url(#p388a2f78b4)" d="M 63.490836 407.1688 
L 1204.310936 407.1688 
" style="fill:none;stroke:#000000;stroke-linecap:square;stroke-width:2;"/>
   </g>
   <g id="line2d_10">
    <path clip-path="url(#p388a2f78b4)" d="M 63.490836 452.6198 
L 1204.310936 452.6198 
" style="fill:none;stroke:#000000;stroke-linecap:square;stroke-width:2;"/>
   </g>
   <g id="line2d_11">
    <path clip-path="url(#p388a2f78b4)" d="M 63.490836 496.593642 
L 1204.310936 496.593642 
" style="fill:none;stroke:#778899;stroke-linecap:square;stroke-width:2;"/>
   </g>
   <g id="line2d_12">
    <path clip-path="url(#p388a2f78b4)" d="M 63.490836 499.547957 
L 1204.310936 499.547957 
" style="fill:none;stroke:#778899;stroke-linecap:square;stroke-width:2;"/>
   </g>
   <g id="patch_5">
    <path clip-path="url(#p388a2f78b4)" d="M 760.936431 66.2863 
L 778.662321 66.2863 
L 778.662321 20.8353 
L 760.936431 20.8353 
z
" style="fill:#bdbdbd;opacity:0.6;"/>
   </g>
   <g id="patch_6">
    <path clip-path="url(#p388a2f78b4)" d="M 760.936431 111.7373 
L 778.662321 111.7373 
L 778.662321 66.2863 
L 760.936431 66.2863 
z
" style="fill:#bdbdbd;opacity:0.6;"/>
   </g>
   <g id="patch_7">
    <path clip-path="url(#p388a2f78b4)" d="M 760.936431 157.1883 
L 778.662321 157.1883 
L 778.662321 111.7373 
L 760.936431 111.7373 
z
" style="fill:#bdbdbd;opacity:0.6;"/>
   </g>
   <g id="patch_8">
    <path clip-path="url(#p388a2f78b4)" d="M 760.936431 202.6393 
L 778.662321 202.6393 
L 778.662321 157.1883 
L 760.936431 157.1883 
z
" style="fill:#bdbdbd;opacity:0.6;"/>
   </g>
   <g id="patch_9">
    <path clip-path="url(#p388a2f78b4)" d="M 124.622431 338.9923 
L 142.348321 338.9923 
L 142.348321 293.5413 
L 124.622431 293.5413 
z
" style="fill:#bdbdbd;opacity:0.6;"/>
   </g>
   <g id="patch_10">
    <path clip-path="url(#p388a2f78b4)" d="M 124.622431 384.4433 
L 142.348321 384.4433 
L 142.348321 338.9923 
L 124.622431 338.9923 
z
" style="fill:#bdbdbd;opacity:0.6;"/>
   </g>
   <g id="patch_11">
    <path clip-path="url(#p388a2f78b4)" d="M 124.622431 429.8943 
L 142.348321 429.8943 
L 142.348321 384.4433 
L 124.622431 384.4433 
z
" style="fill:#bdbdbd;opacity:0.6;"/>
   </g>
   <g id="patch_12">
    <path clip-path="url(#p388a2f78b4)" d="M 124.622431 475.3453 
L 142.348321 475.3453 
L 142.348321 429.8943 
L 124.622431 429.8943 
z
" style="fill:#bdbdbd;opacity:0.6;"/>
   </g>
   <g id="line2d_13">
    <path clip-path="url(#p388a2f78b4)" d="M 156.210876 179.9138 
L 156.210876 43.5608 
" style="fill:none;stroke:#bb8bff;stroke-linecap:square;stroke-width:2;"/>
   </g>
   <g id="line2d_14">
    <path clip-path="url(#p388a2f78b4)" d="M 247.112876 179.9138 
L 247.112876 89.0118 
" style="fill:none;stroke:#bb8bff;stroke-linecap:square;stroke-width:2;"/>
   </g>
   <g id="line2d_15">
    <path clip-path="url(#p388a2f78b4)" d="M 338.014876 179.9138 
L 338.014876 89.0118 
" style="fill:none;stroke:#bb8bff;stroke-linecap:square;stroke-width:2;"/>
   </g>
   <g id="line2d_16">
    <path clip-path="url(#p388a2f78b4)" d="M 428.916876 179.9138 
L 428.916876 134.4628 
" style="fill:none;stroke:#bb8bff;stroke-linecap:square;stroke-width:2;"/>
   </g>
   <g id="line2d_17">
    <path clip-path="url(#p388a2f78b4)" d="M 519.818876 179.9138 
L 519.818876 134.4628 
" style="fill:none;stroke:#bb8bff;stroke-linecap:square;stroke-width:2;"/>
   </g>
   <g id="line2d_18">
    <path clip-path="url(#p388a2f78b4)" d="M 610.720876 179.9138 
L 610.720876 134.4628 
" style="fill:none;stroke:#bb8bff;stroke-linecap:square;stroke-width:2;"/>
   </g>
   <g id="line2d_19">
    <path clip-path="url(#p388a2f78b4)" d="M 701.622876 179.9138 
L 701.622876 134.4628 
" style="fill:none;stroke:#bb8bff;stroke-linecap:square;stroke-width:2;"/>
   </g>
   <g id="line2d_20">
    <path clip-path="url(#p388a2f78b4)" d="M 815.250376 134.4628 
L 815.250376 43.5608 
" style="fill:none;stroke:#6fa4ff;stroke-linecap:square;stroke-width:2;"/>
   </g>
   <g id="line2d_21">
    <path clip-path="url(#p388a2f78b4)" d="M 928.877876 89.0118 
L 928.877876 43.5608 
" style="fill:none;stroke:#bb8bff;stroke-linecap:square;stroke-width:2;"/>
   </g>
   <g id="line2d_22">
    <path clip-path="url(#p388a2f78b4)" d="M 1065.230876 134.4628 
L 1065.230876 43.5608 
" style="fill:none;stroke:#bb8bff;stroke-linecap:square;stroke-width:2;"/>
   </g>
   <g id="line2d_23">
    <path clip-path="url(#p388a2f78b4)" d="M 1156.132876 134.4628 
L 1156.132876 89.0118 
" style="fill:none;stroke:#bb8bff;stroke-linecap:square;stroke-width:2;"/>
   </g>
   <g id="line2d_24">
    <path clip-path="url(#p388a2f78b4)" d="M 180.413534 316.2668 
L 180.413534 487.730697 
" style="fill:none;stroke:#778899;stroke-linecap:square;stroke-width:2;"/>
   </g>
   <g id="line2d_25">
    <path clip-path="url(#p388a2f78b4)" d="M 177.459219 316.2668 
L 177.459219 487.730697 
" style="fill:none;stroke:#778899;stroke-linecap:square;stroke-width:2;"/>
   </g>
   <g id="line2d_26">
    <path clip-path="url(#p388a2f78b4)" d="M 225.864534 361.7178 
L 225.864534 487.730697 
" style="fill:none;stroke:#778899;stroke-linecap:square;stroke-width:2;"/>
   </g>
   <g id="line2d_27">
    <path clip-path="url(#p388a2f78b4)" d="M 222.910219 361.7178 
L 222.910219 487.730697 
" style="fill:none;stroke:#778899;stroke-linecap:square;stroke-width:2;"/>
   </g>
   <g id="line2d_28">
    <path clip-path="url(#p388a2f78b4)" d="M 271.315534 407.1688 
L 271.315534 487.730697 
" style="fill:none;stroke:#778899;stroke-linecap:square;stroke-width:2;"/>
   </g>
   <g id="line2d_29">
    <path clip-path="url(#p388a2f78b4)" d="M 268.361219 407.1688 
L 268.361219 487.730697 
" style="fill:none;stroke:#778899;stroke-linecap:square;stroke-width:2;"/>
   </g>
   <g id="line2d_30">
    <path clip-path="url(#p388a2f78b4)" d="M 72.581036 229.9099 
L 77.126136 220.8197 
" style="fill:none;stroke:#778899;stroke-linecap:square;stroke-width:1.5;"/>
   </g>
   <g id="line2d_31">
    <path clip-path="url(#p388a2f78b4)" d="M 1204.310936 43.5608 
L 1204.310936 225.3648 
" style="fill:none;stroke:#000000;stroke-linecap:square;stroke-width:1.5;"/>
   </g>
   <g id="line2d_32">
    <path clip-path="url(#p388a2f78b4)" d="M 72.581036 502.6159 
L 77.126136 493.5257 
" style="fill:none;stroke:#778899;stroke-linecap:square;stroke-width:1.5;"/>
   </g>
   <g id="line2d_33">
    <path clip-path="url(#p388a2f78b4)" d="M 63.036326 316.2668 
L 63.036326 498.0708 
" style="fill:none;stroke:#000000;stroke-linecap:square;stroke-width:1.5;"/>
   </g>
   <g id="line2d_34">
    <path clip-path="url(#p388a2f78b4)" d="M 809.341746 49.46943 
L 821.159006 37.65217 
" style="fill:none;stroke:#6fa4ff;stroke-linecap:square;stroke-width:2;"/>
   </g>
   <g id="line2d_35">
    <path clip-path="url(#p388a2f78b4)" d="M 809.341746 37.65217 
L 821.159006 49.46943 
" style="fill:none;stroke:#6fa4ff;stroke-linecap:square;stroke-width:2;"/>
   </g>
   <g id="line2d_36">
    <path clip-path="url(#p388a2f78b4)" d="M 809.341746 140.37143 
L 821.159006 128.55417 
" style="fill:none;stroke:#6fa4ff;stroke-linecap:square;stroke-width:2;"/>
   </g>
   <g id="line2d_37">
    <path clip-path="url(#p388a2f78b4)" d="M 809.341746 128.55417 
L 821.159006 140.37143 
" style="fill:none;stroke:#6fa4ff;stroke-linecap:square;stroke-width:2;"/>
   </g>
   <g id="patch_13">
    <path clip-path="url(#p388a2f78b4)" d="M 73.262801 194.685375 
L 102.805951 194.685375 
L 102.805951 165.142225 
L 73.262801 165.142225 
z
" style="fill:#05bab6;stroke:#05bab6;stroke-linejoin:miter;stroke-width:1.5;"/>
   </g>
   <g id="patch_14">
    <path clip-path="url(#p388a2f78b4)" d="M 73.262801 58.332375 
L 102.805951 58.332375 
L 102.805951 28.789225 
L 73.262801 28.789225 
z
" style="fill:#6fa4ff;stroke:#6fa4ff;stroke-linejoin:miter;stroke-width:1.5;"/>
   </g>
   <g id="patch_15">
    <path clip-path="url(#p388a2f78b4)" d="M 73.262801 103.783375 
L 102.805951 103.783375 
L 102.805951 74.240225 
L 73.262801 74.240225 
z
" style="fill:#6fa4ff;stroke:#6fa4ff;stroke-linejoin:miter;stroke-width:1.5;"/>
   </g>
   <g id="patch_16">
    <path clip-path="url(#p388a2f78b4)" d="M 73.262801 149.234375 
L 102.805951 149.234375 
L 102.805951 119.691225 
L 73.262801 119.691225 
z
" style="fill:#6fa4ff;stroke:#6fa4ff;stroke-linejoin:miter;stroke-width:1.5;"/>
   </g>
   <g id="patch_17">
    <path clip-path="url(#p388a2f78b4)" d="M 156.210876 47.992272 
C 157.386116 47.992272 158.51338 47.525345 159.344401 46.694324 
C 160.175421 45.863304 160.642349 44.73604 160.642349 43.5608 
C 160.642349 42.38556 160.175421 41.258296 159.344401 40.427276 
C 158.51338 39.596255 157.386116 39.129327 156.210876 39.129327 
C 155.035636 39.129327 153.908372 39.596255 153.077352 40.427276 
C 152.246332 41.258296 151.779404 42.38556 151.779404 43.5608 
C 151.779404 44.73604 152.246332 45.863304 153.077352 46.694324 
C 153.908372 47.525345 155.035636 47.992272 156.210876 47.992272 
z
" style="fill:#bb8bff;stroke:#bb8bff;stroke-linejoin:miter;stroke-width:1.5;"/>
   </g>
   <g id="patch_18">
    <path clip-path="url(#p388a2f78b4)" d="M 156.210876 184.345272 
C 157.386116 184.345272 158.51338 183.878345 159.344401 183.047324 
C 160.175421 182.216304 160.642349 181.08904 160.642349 179.9138 
C 160.642349 178.73856 160.175421 177.611296 159.344401 176.780276 
C 158.51338 175.949255 157.386116 175.482327 156.210876 175.482327 
C 155.035636 175.482327 153.908372 175.949255 153.077352 176.780276 
C 152.246332 177.611296 151.779404 178.73856 151.779404 179.9138 
C 151.779404 181.08904 152.246332 182.216304 153.077352 183.047324 
C 153.908372 183.878345 155.035636 184.345272 156.210876 184.345272 
z
" style="fill:#bb8bff;stroke:#bb8bff;stroke-linejoin:miter;stroke-width:1.5;"/>
   </g>
   <g id="patch_19">
    <path clip-path="url(#p388a2f78b4)" d="M 247.112876 93.443272 
C 248.288116 93.443272 249.41538 92.976345 250.246401 92.145324 
C 251.077421 91.314304 251.544349 90.18704 251.544349 89.0118 
C 251.544349 87.83656 251.077421 86.709296 250.246401 85.878276 
C 249.41538 85.047255 248.288116 84.580327 247.112876 84.580327 
C 245.937636 84.580327 244.810372 85.047255 243.979352 85.878276 
C 243.148332 86.709296 242.681404 87.83656 242.681404 89.0118 
C 242.681404 90.18704 243.148332 91.314304 243.979352 92.145324 
C 244.810372 92.976345 245.937636 93.443272 247.112876 93.443272 
z
" style="fill:#bb8bff;stroke:#bb8bff;stroke-linejoin:miter;stroke-width:1.5;"/>
   </g>
   <g id="patch_20">
    <path clip-path="url(#p388a2f78b4)" d="M 247.112876 184.345272 
C 248.288116 184.345272 249.41538 183.878345 250.246401 183.047324 
C 251.077421 182.216304 251.544349 181.08904 251.544349 179.9138 
C 251.544349 178.73856 251.077421 177.611296 250.246401 176.780276 
C 249.41538 175.949255 248.288116 175.482327 247.112876 175.482327 
C 245.937636 175.482327 244.810372 175.949255 243.979352 176.780276 
C 243.148332 177.611296 242.681404 178.73856 242.681404 179.9138 
C 242.681404 181.08904 243.148332 182.216304 243.979352 183.047324 
C 244.810372 183.878345 245.937636 184.345272 247.112876 184.345272 
z
" style="fill:#bb8bff;stroke:#bb8bff;stroke-linejoin:miter;stroke-width:1.5;"/>
   </g>
   <g id="patch_21">
    <path clip-path="url(#p388a2f78b4)" d="M 338.014876 93.443272 
C 339.190116 93.443272 340.31738 92.976345 341.148401 92.145324 
C 341.979421 91.314304 342.446349 90.18704 342.446349 89.0118 
C 342.446349 87.83656 341.979421 86.709296 341.148401 85.878276 
C 340.31738 85.047255 339.190116 84.580327 338.014876 84.580327 
C 336.839636 84.580327 335.712372 85.047255 334.881352 85.878276 
C 334.050332 86.709296 333.583404 87.83656 333.583404 89.0118 
C 333.583404 90.18704 334.050332 91.314304 334.881352 92.145324 
C 335.712372 92.976345 336.839636 93.443272 338.014876 93.443272 
z
" style="fill:#bb8bff;stroke:#bb8bff;stroke-linejoin:miter;stroke-width:1.5;"/>
   </g>
   <g id="patch_22">
    <path clip-path="url(#p388a2f78b4)" d="M 338.014876 184.345272 
C 339.190116 184.345272 340.31738 183.878345 341.148401 183.047324 
C 341.979421 182.216304 342.446349 181.08904 342.446349 179.9138 
C 342.446349 178.73856 341.979421 177.611296 341.148401 176.780276 
C 340.31738 175.949255 339.190116 175.482327 338.014876 175.482327 
C 336.839636 175.482327 335.712372 175.949255 334.881352 176.780276 
C 334.050332 177.611296 333.583404 178.73856 333.583404 179.9138 
C 333.583404 181.08904 334.050332 182.216304 334.881352 183.047324 
C 335.712372 183.878345 336.839636 184.345272 338.014876 184.345272 
z
" style="fill:#bb8bff;stroke:#bb8bff;stroke-linejoin:miter;stroke-width:1.5;"/>
   </g>
   <g id="patch_23">
    <path clip-path="url(#p388a2f78b4)" d="M 428.916876 138.894272 
C 430.092116 138.894272 431.21938 138.427345 432.050401 137.596324 
C 432.881421 136.765304 433.348349 135.63804 433.348349 134.4628 
C 433.348349 133.28756 432.881421 132.160296 432.050401 131.329276 
C 431.21938 130.498255 430.092116 130.031327 428.916876 130.031327 
C 427.741636 130.031327 426.614372 130.498255 425.783352 131.329276 
C 424.952332 132.160296 424.485404 133.28756 424.485404 134.4628 
C 424.485404 135.63804 424.952332 136.765304 425.783352 137.596324 
C 426.614372 138.427345 427.741636 138.894272 428.916876 138.894272 
z
" style="fill:#bb8bff;stroke:#bb8bff;stroke-linejoin:miter;stroke-width:1.5;"/>
   </g>
   <g id="patch_24">
    <path clip-path="url(#p388a2f78b4)" d="M 428.916876 184.345272 
C 430.092116 184.345272 431.21938 183.878345 432.050401 183.047324 
C 432.881421 182.216304 433.348349 181.08904 433.348349 179.9138 
C 433.348349 178.73856 432.881421 177.611296 432.050401 176.780276 
C 431.21938 175.949255 430.092116 175.482327 428.916876 175.482327 
C 427.741636 175.482327 426.614372 175.949255 425.783352 176.780276 
C 424.952332 177.611296 424.485404 178.73856 424.485404 179.9138 
C 424.485404 181.08904 424.952332 182.216304 425.783352 183.047324 
C 426.614372 183.878345 427.741636 184.345272 428.916876 184.345272 
z
" style="fill:#bb8bff;stroke:#bb8bff;stroke-linejoin:miter;stroke-width:1.5;"/>
   </g>
   <g id="patch_25">
    <path clip-path="url(#p388a2f78b4)" d="M 519.818876 138.894272 
C 520.994116 138.894272 522.12138 138.427345 522.952401 137.596324 
C 523.783421 136.765304 524.250349 135.63804 524.250349 134.4628 
C 524.250349 133.28756 523.783421 132.160296 522.952401 131.329276 
C 522.12138 130.498255 520.994116 130.031327 519.818876 130.031327 
C 518.643636 130.031327 517.516372 130.498255 516.685352 131.329276 
C 515.854332 132.160296 515.387404 133.28756 515.387404 134.4628 
C 515.387404 135.63804 515.854332 136.765304 516.685352 137.596324 
C 517.516372 138.427345 518.643636 138.894272 519.818876 138.894272 
z
" style="fill:#bb8bff;stroke:#bb8bff;stroke-linejoin:miter;stroke-width:1.5;"/>
   </g>
   <g id="patch_26">
    <path clip-path="url(#p388a2f78b4)" d="M 519.818876 184.345272 
C 520.994116 184.345272 522.12138 183.878345 522.952401 183.047324 
C 523.783421 182.216304 524.250349 181.08904 524.250349 179.9138 
C 524.250349 178.73856 523.783421 177.611296 522.952401 176.780276 
C 522.12138 175.949255 520.994116 175.482327 519.818876 175.482327 
C 518.643636 175.482327 517.516372 175.949255 516.685352 176.780276 
C 515.854332 177.611296 515.387404 178.73856 515.387404 179.9138 
C 515.387404 181.08904 515.854332 182.216304 516.685352 183.047324 
C 517.516372 183.878345 518.643636 184.345272 519.818876 184.345272 
z
" style="fill:#bb8bff;stroke:#bb8bff;stroke-linejoin:miter;stroke-width:1.5;"/>
   </g>
   <g id="patch_27">
    <path clip-path="url(#p388a2f78b4)" d="M 610.720876 138.894272 
C 611.896116 138.894272 613.02338 138.427345 613.854401 137.596324 
C 614.685421 136.765304 615.152349 135.63804 615.152349 134.4628 
C 615.152349 133.28756 614.685421 132.160296 613.854401 131.329276 
C 613.02338 130.498255 611.896116 130.031327 610.720876 130.031327 
C 609.545636 130.031327 608.418372 130.498255 607.587352 131.329276 
C 606.756332 132.160296 606.289404 133.28756 606.289404 134.4628 
C 606.289404 135.63804 606.756332 136.765304 607.587352 137.596324 
C 608.418372 138.427345 609.545636 138.894272 610.720876 138.894272 
z
" style="fill:#bb8bff;stroke:#bb8bff;stroke-linejoin:miter;stroke-width:1.5;"/>
   </g>
   <g id="patch_28">
    <path clip-path="url(#p388a2f78b4)" d="M 610.720876 184.345272 
C 611.896116 184.345272 613.02338 183.878345 613.854401 183.047324 
C 614.685421 182.216304 615.152349 181.08904 615.152349 179.9138 
C 615.152349 178.73856 614.685421 177.611296 613.854401 176.780276 
C 613.02338 175.949255 611.896116 175.482327 610.720876 175.482327 
C 609.545636 175.482327 608.418372 175.949255 607.587352 176.780276 
C 606.756332 177.611296 606.289404 178.73856 606.289404 179.9138 
C 606.289404 181.08904 606.756332 182.216304 607.587352 183.047324 
C 608.418372 183.878345 609.545636 184.345272 610.720876 184.345272 
z
" style="fill:#bb8bff;stroke:#bb8bff;stroke-linejoin:miter;stroke-width:1.5;"/>
   </g>
   <g id="patch_29">
    <path clip-path="url(#p388a2f78b4)" d="M 701.622876 138.894272 
C 702.798116 138.894272 703.92538 138.427345 704.756401 137.596324 
C 705.587421 136.765304 706.054349 135.63804 706.054349 134.4628 
C 706.054349 133.28756 705.587421 132.160296 704.756401 131.329276 
C 703.92538 130.498255 702.798116 130.031327 701.622876 130.031327 
C 700.447636 130.031327 699.320372 130.498255 698.489352 131.329276 
C 697.658332 132.160296 697.191404 133.28756 697.191404 134.4628 
C 697.191404 135.63804 697.658332 136.765304 698.489352 137.596324 
C 699.320372 138.427345 700.447636 138.894272 701.622876 138.894272 
z
" style="fill:#bb8bff;stroke:#bb8bff;stroke-linejoin:miter;stroke-width:1.5;"/>
   </g>
   <g id="patch_30">
    <path clip-path="url(#p388a2f78b4)" d="M 701.622876 184.345272 
C 702.798116 184.345272 703.92538 183.878345 704.756401 183.047324 
C 705.587421 182.216304 706.054349 181.08904 706.054349 179.9138 
C 706.054349 178.73856 705.587421 177.611296 704.756401 176.780276 
C 703.92538 175.949255 702.798116 175.482327 701.622876 175.482327 
C 700.447636 175.482327 699.320372 175.949255 698.489352 176.780276 
C 697.658332 177.611296 697.191404 178.73856 697.191404 179.9138 
C 697.191404 181.08904 697.658332 182.216304 698.489352 183.047324 
C 699.320372 183.878345 700.447636 184.345272 701.622876 184.345272 
z
" style="fill:#bb8bff;stroke:#bb8bff;stroke-linejoin:miter;stroke-width:1.5;"/>
   </g>
   <g id="patch_31">
    <path clip-path="url(#p388a2f78b4)" d="M 845.929801 58.332375 
L 875.472951 58.332375 
L 875.472951 28.789225 
L 845.929801 28.789225 
z
" style="fill:#6fa4ff;stroke:#6fa4ff;stroke-linejoin:miter;stroke-width:1.5;"/>
   </g>
   <g id="patch_32">
    <path clip-path="url(#p388a2f78b4)" d="M 928.877876 47.992272 
C 930.053116 47.992272 931.18038 47.525345 932.011401 46.694324 
C 932.842421 45.863304 933.309349 44.73604 933.309349 43.5608 
C 933.309349 42.38556 932.842421 41.258296 932.011401 40.427276 
C 931.18038 39.596255 930.053116 39.129327 928.877876 39.129327 
C 927.702636 39.129327 926.575372 39.596255 925.744352 40.427276 
C 924.913332 41.258296 924.446404 42.38556 924.446404 43.5608 
C 924.446404 44.73604 924.913332 45.863304 925.744352 46.694324 
C 926.575372 47.525345 927.702636 47.992272 928.877876 47.992272 
z
" style="fill:#bb8bff;stroke:#bb8bff;stroke-linejoin:miter;stroke-width:1.5;"/>
   </g>
   <g id="patch_33">
    <path clip-path="url(#p388a2f78b4)" d="M 928.877876 93.443272 
C 930.053116 93.443272 931.18038 92.976345 932.011401 92.145324 
C 932.842421 91.314304 933.309349 90.18704 933.309349 89.0118 
C 933.309349 87.83656 932.842421 86.709296 932.011401 85.878276 
C 931.18038 85.047255 930.053116 84.580327 928.877876 84.580327 
C 927.702636 84.580327 926.575372 85.047255 925.744352 85.878276 
C 924.913332 86.709296 924.446404 87.83656 924.446404 89.0118 
C 924.446404 90.18704 924.913332 91.314304 925.744352 92.145324 
C 926.575372 92.976345 927.702636 93.443272 928.877876 93.443272 
z
" style="fill:#bb8bff;stroke:#bb8bff;stroke-linejoin:miter;stroke-width:1.5;"/>
   </g>
   <g id="patch_34">
    <path clip-path="url(#p388a2f78b4)" d="M 982.282801 103.783375 
L 1011.825951 103.783375 
L 1011.825951 74.240225 
L 982.282801 74.240225 
z
" style="fill:#6fa4ff;stroke:#6fa4ff;stroke-linejoin:miter;stroke-width:1.5;"/>
   </g>
   <g id="patch_35">
    <path clip-path="url(#p388a2f78b4)" d="M 1065.230876 47.992272 
C 1066.406116 47.992272 1067.53338 47.525345 1068.364401 46.694324 
C 1069.195421 45.863304 1069.662349 44.73604 1069.662349 43.5608 
C 1069.662349 42.38556 1069.195421 41.258296 1068.364401 40.427276 
C 1067.53338 39.596255 1066.406116 39.129327 1065.230876 39.129327 
C 1064.055636 39.129327 1062.928372 39.596255 1062.097352 40.427276 
C 1061.266332 41.258296 1060.799404 42.38556 1060.799404 43.5608 
C 1060.799404 44.73604 1061.266332 45.863304 1062.097352 46.694324 
C 1062.928372 47.525345 1064.055636 47.992272 1065.230876 47.992272 
z
" style="fill:#bb8bff;stroke:#bb8bff;stroke-linejoin:miter;stroke-width:1.5;"/>
   </g>
   <g id="patch_36">
    <path clip-path="url(#p388a2f78b4)" d="M 1065.230876 138.894272 
C 1066.406116 138.894272 1067.53338 138.427345 1068.364401 137.596324 
C 1069.195421 136.765304 1069.662349 135.63804 1069.662349 134.4628 
C 1069.662349 133.28756 1069.195421 132.160296 1068.364401 131.329276 
C 1067.53338 130.498255 1066.406116 130.031327 1065.230876 130.031327 
C 1064.055636 130.031327 1062.928372 130.498255 1062.097352 131.329276 
C 1061.266332 132.160296 1060.799404 133.28756 1060.799404 134.4628 
C 1060.799404 135.63804 1061.266332 136.765304 1062.097352 137.596324 
C 1062.928372 138.427345 1064.055636 138.894272 1065.230876 138.894272 
z
" style="fill:#bb8bff;stroke:#bb8bff;stroke-linejoin:miter;stroke-width:1.5;"/>
   </g>
   <g id="patch_37">
    <path clip-path="url(#p388a2f78b4)" d="M 1156.132876 93.443272 
C 1157.308116 93.443272 1158.43538 92.976345 1159.266401 92.145324 
C 1160.097421 91.314304 1160.564349 90.18704 1160.564349 89.0118 
C 1160.564349 87.83656 1160.097421 86.709296 1159.266401 85.878276 
C 1158.43538 85.047255 1157.308116 84.580327 1156.132876 84.580327 
C 1154.957636 84.580327 1153.830372 85.047255 1152.999352 85.878276 
C 1152.168332 86.709296 1151.701404 87.83656 1151.701404 89.0118 
C 1151.701404 90.18704 1152.168332 91.314304 1152.999352 92.145324 
C 1153.830372 92.976345 1154.957636 93.443272 1156.132876 93.443272 
z
" style="fill:#bb8bff;stroke:#bb8bff;stroke-linejoin:miter;stroke-width:1.5;"/>
   </g>
   <g id="patch_38">
    <path clip-path="url(#p388a2f78b4)" d="M 1156.132876 138.894272 
C 1157.308116 138.894272 1158.43538 138.427345 1159.266401 137.596324 
C 1160.097421 136.765304 1160.564349 135.63804 1160.564349 134.4628 
C 1160.564349 133.28756 1160.097421 132.160296 1159.266401 131.329276 
C 1158.43538 130.498255 1157.308116 130.031327 1156.132876 130.031327 
C 1154.957636 130.031327 1153.830372 130.498255 1152.999352 131.329276 
C 1152.168332 132.160296 1151.701404 133.28756 1151.701404 134.4628 
C 1151.701404 135.63804 1152.168332 136.765304 1152.999352 137.596324 
C 1153.830372 138.427345 1154.957636 138.894272 1156.132876 138.894272 
z
" style="fill:#bb8bff;stroke:#bb8bff;stroke-linejoin:miter;stroke-width:1.5;"/>
   </g>
   <g id="patch_39">
    <path clip-path="url(#p388a2f78b4)" d="M 73.262801 421.940375 
L 102.805951 421.940375 
L 102.805951 392.397225 
L 73.262801 392.397225 
z
" style="fill:#6fa4ff;stroke:#6fa4ff;stroke-linejoin:miter;stroke-width:1.5;"/>
   </g>
   <g id="patch_40">
    <path clip-path="url(#p388a2f78b4)" d="M 164.164801 331.038375 
L 193.707951 331.038375 
L 193.707951 301.495225 
L 164.164801 301.495225 
z
" style="stroke:#000000;stroke-linejoin:miter;stroke-width:1.5;"/>
   </g>
   <g id="patch_41">
    <path clip-path="url(#p388a2f78b4)" d="M 189.276479 320.698272 
C 189.276479 317.956959 188.186335 315.325118 186.247933 313.386716 
C 184.309531 311.448314 181.67769 310.35817 178.936376 310.35817 
C 176.195062 310.35817 173.563221 311.448314 171.62482 313.386716 
C 169.686418 315.325118 168.596274 317.956959 168.596274 320.698272 
" style="fill:none;stroke:#ffffff;stroke-linejoin:miter;stroke-width:2;"/>
   </g>
   <g id="patch_42">
    <path clip-path="url(#p388a2f78b4)" d="M 209.615801 376.489375 
L 239.158951 376.489375 
L 239.158951 346.946225 
L 209.615801 346.946225 
z
" style="stroke:#000000;stroke-linejoin:miter;stroke-width:1.5;"/>
   </g>
   <g id="patch_43">
    <path clip-path="url(#p388a2f78b4)" d="M 234.727479 366.149272 
C 234.727479 363.407959 233.637335 360.776118 231.698933 358.837716 
C 229.760531 356.899314 227.12869 355.80917 224.387376 355.80917 
C 221.646062 355.80917 219.014221 356.899314 217.07582 358.837716 
C 215.137418 360.776118 214.047274 363.407959 214.047274 366.149272 
" style="fill:none;stroke:#ffffff;stroke-linejoin:miter;stroke-width:2;"/>
   </g>
   <g id="patch_44">
    <path clip-path="url(#p388a2f78b4)" d="M 255.066801 421.940375 
L 284.609951 421.940375 
L 284.609951 392.397225 
L 255.066801 392.397225 
z
" style="stroke:#000000;stroke-linejoin:miter;stroke-width:1.5;"/>
   </g>
   <g id="patch_45">
    <path clip-path="url(#p388a2f78b4)" d="M 280.178479 411.600272 
C 280.178479 408.858959 279.088335 406.227118 277.149933 404.288716 
C 275.211531 402.350314 272.57969 401.26017 269.838376 401.26017 
C 267.097062 401.26017 264.465221 402.350314 262.52682 404.288716 
C 260.588418 406.227118 259.498274 408.858959 259.498274 411.600272 
" style="fill:none;stroke:#ffffff;stroke-linejoin:miter;stroke-width:2;"/>
   </g>
   <g id="line2d_38">
    <path clip-path="url(#p388a2f78b4)" d="M 178.936376 320.698272 
L 189.276479 310.35817 
" style="fill:none;stroke:#ffffff;stroke-linecap:square;stroke-width:2;"/>
   </g>
   <g id="line2d_39">
    <path clip-path="url(#p388a2f78b4)" d="M 224.387376 366.149272 
L 234.727479 355.80917 
" style="fill:none;stroke:#ffffff;stroke-linecap:square;stroke-width:2;"/>
   </g>
   <g id="line2d_40">
    <path clip-path="url(#p388a2f78b4)" d="M 269.838376 411.600272 
L 280.178479 401.26017 
" style="fill:none;stroke:#ffffff;stroke-linecap:square;stroke-width:2;"/>
   </g>
   <g id="line2d_41">
    <path clip-path="url(#p388a2f78b4)" d="M 769.799376 20.8353 
L 769.799376 66.2863 
" style="fill:none;stroke:#000000;stroke-dasharray:3.7,1.6;stroke-dashoffset:0;"/>
   </g>
   <g id="line2d_42">
    <path clip-path="url(#p388a2f78b4)" d="M 769.799376 66.2863 
L 769.799376 111.7373 
" style="fill:none;stroke:#000000;stroke-dasharray:3.7,1.6;stroke-dashoffset:0;"/>
   </g>
   <g id="line2d_43">
    <path clip-path="url(#p388a2f78b4)" d="M 769.799376 111.7373 
L 769.799376 157.1883 
" style="fill:none;stroke:#000000;stroke-dasharray:3.7,1.6;stroke-dashoffset:0;"/>
   </g>
   <g id="line2d_44">
    <path clip-path="url(#p388a2f78b4)" d="M 769.799376 157.1883 
L 769.799376 202.6393 
" style="fill:none;stroke:#000000;stroke-dasharray:3.7,1.6;stroke-dashoffset:0;"/>
   </g>
   <g id="line2d_45">
    <path clip-path="url(#p388a2f78b4)" d="M 133.485376 293.5413 
L 133.485376 338.9923 
" style="fill:none;stroke:#000000;stroke-dasharray:3.7,1.6;stroke-dashoffset:0;"/>
   </g>
   <g id="line2d_46">
    <path clip-path="url(#p388a2f78b4)" d="M 133.485376 338.9923 
L 133.485376 384.4433 
" style="fill:none;stroke:#000000;stroke-dasharray:3.7,1.6;stroke-dashoffset:0;"/>
   </g>
   <g id="line2d_47">
    <path clip-path="url(#p388a2f78b4)" d="M 133.485376 384.4433 
L 133.485376 429.8943 
" style="fill:none;stroke:#000000;stroke-dasharray:3.7,1.6;stroke-dashoffset:0;"/>
   </g>
   <g id="line2d_48">
    <path clip-path="url(#p388a2f78b4)" d="M 133.485376 429.8943 
L 133.485376 475.3453 
" style="fill:none;stroke:#000000;stroke-dasharray:3.7,1.6;stroke-dashoffset:0;"/>
   </g>
   <g id="text_1">
    <g clip-path="url(#p388a2f78b4)">
     <!-- X -->
     <g transform="translate(83.581876 183.500987)scale(0.13 -0.13)">
      <defs>
       <path d="M 6.296875 72.90625 
L 16.890625 72.90625 
L 35.015625 45.796875 
L 53.21875 72.90625 
L 63.8125 72.90625 
L 40.375 37.890625 
L 65.375 0 
L 54.78125 0 
L 34.28125 31 
L 13.625 0 
L 2.984375 0 
L 29 38.921875 
z
" id="DejaVuSans-88"/>
      </defs>
      <use xlink:href="#DejaVuSans-88"/>
     </g>
    </g>
   </g>
   <g id="text_2">
    <g clip-path="url(#p388a2f78b4)">
     <!-- H -->
     <g transform="translate(83.146173 47.147987)scale(0.13 -0.13)">
      <defs>
       <path d="M 9.8125 72.90625 
L 19.671875 72.90625 
L 19.671875 43.015625 
L 55.515625 43.015625 
L 55.515625 72.90625 
L 65.375 72.90625 
L 65.375 0 
L 55.515625 0 
L 55.515625 34.71875 
L 19.671875 34.71875 
L 19.671875 0 
L 9.8125 0 
z
" id="DejaVuSans-72"/>
      </defs>
      <use xlink:href="#DejaVuSans-72"/>
     </g>
    </g>
   </g>
   <g id="text_3">
    <g clip-path="url(#p388a2f78b4)">
     <!-- H -->
     <g transform="translate(83.146173 92.598987)scale(0.13 -0.13)">
      <use xlink:href="#DejaVuSans-72"/>
     </g>
    </g>
   </g>
   <g id="text_4">
    <g clip-path="url(#p388a2f78b4)">
     <!-- H -->
     <g transform="translate(83.146173 138.049987)scale(0.13 -0.13)">
      <use xlink:href="#DejaVuSans-72"/>
     </g>
    </g>
   </g>
   <g id="text_5">
    <g clip-path="url(#p388a2f78b4)">
     <!-- P ($\pi$/4) -->
     <g transform="translate(161.725786 156.4494)scale(0.08 -0.08)">
      <defs>
       <path d="M 19.671875 64.796875 
L 19.671875 37.40625 
L 32.078125 37.40625 
Q 38.96875 37.40625 42.71875 40.96875 
Q 46.484375 44.53125 46.484375 51.125 
Q 46.484375 57.671875 42.71875 61.234375 
Q 38.96875 64.796875 32.078125 64.796875 
z
M 9.8125 72.90625 
L 32.078125 72.90625 
Q 44.34375 72.90625 50.609375 67.359375 
Q 56.890625 61.8125 56.890625 51.125 
Q 56.890625 40.328125 50.609375 34.8125 
Q 44.34375 29.296875 32.078125 29.296875 
L 19.671875 29.296875 
L 19.671875 0 
L 9.8125 0 
z
" id="DejaVuSans-80"/>
       <path id="DejaVuSans-32"/>
       <path d="M 31 75.875 
Q 24.46875 64.65625 21.28125 53.65625 
Q 18.109375 42.671875 18.109375 31.390625 
Q 18.109375 20.125 21.3125 9.0625 
Q 24.515625 -2 31 -13.1875 
L 23.1875 -13.1875 
Q 15.875 -1.703125 12.234375 9.375 
Q 8.59375 20.453125 8.59375 31.390625 
Q 8.59375 42.28125 12.203125 53.3125 
Q 15.828125 64.359375 23.1875 75.875 
z
" id="DejaVuSans-40"/>
       <path d="M 9.125 54.6875 
L 61.53125 54.6875 
L 59.765625 45.703125 
L 52.875 45.703125 
L 46.34375 12.109375 
Q 45.65625 8.59375 46.578125 7.03125 
Q 47.46875 5.515625 50.140625 5.515625 
Q 50.875 5.515625 51.953125 5.671875 
Q 53.078125 5.765625 53.421875 5.8125 
L 52.15625 -0.6875 
Q 50.34375 -1.3125 48.484375 -1.609375 
Q 46.578125 -1.90625 44.78125 -1.90625 
Q 38.921875 -1.90625 37.3125 1.265625 
Q 35.6875 4.5 37.359375 13.09375 
L 43.703125 45.703125 
L 23.53125 45.703125 
L 14.65625 0 
L 5.46875 0 
L 14.359375 45.703125 
L 7.375 45.703125 
z
" id="DejaVuSans-Oblique-960"/>
       <path d="M 25.390625 72.90625 
L 33.6875 72.90625 
L 8.296875 -9.28125 
L 0 -9.28125 
z
" id="DejaVuSans-47"/>
       <path d="M 37.796875 64.3125 
L 12.890625 25.390625 
L 37.796875 25.390625 
z
M 35.203125 72.90625 
L 47.609375 72.90625 
L 47.609375 25.390625 
L 58.015625 25.390625 
L 58.015625 17.1875 
L 47.609375 17.1875 
L 47.609375 0 
L 37.796875 0 
L 37.796875 17.1875 
L 4.890625 17.1875 
L 4.890625 26.703125 
z
" id="DejaVuSans-52"/>
       <path d="M 8.015625 75.875 
L 15.828125 75.875 
Q 23.140625 64.359375 26.78125 53.3125 
Q 30.421875 42.28125 30.421875 31.390625 
Q 30.421875 20.453125 26.78125 9.375 
Q 23.140625 -1.703125 15.828125 -13.1875 
L 8.015625 -13.1875 
Q 14.5 -2 17.703125 9.0625 
Q 20.90625 20.125 20.90625 31.390625 
Q 20.90625 42.671875 17.703125 53.65625 
Q 14.5 64.65625 8.015625 75.875 
z
" id="DejaVuSans-41"/>
      </defs>
      <use transform="translate(0 0.125)" xlink:href="#DejaVuSans-80"/>
      <use transform="translate(60.302734 0.125)" xlink:href="#DejaVuSans-32"/>
      <use transform="translate(92.089844 0.125)" xlink:href="#DejaVuSans-40"/>
      <use transform="translate(131.103516 0.125)" xlink:href="#DejaVuSans-Oblique-960"/>
      <use transform="translate(191.308594 0.125)" xlink:href="#DejaVuSans-47"/>
      <use transform="translate(225 0.125)" xlink:href="#DejaVuSans-52"/>
      <use transform="translate(288.623047 0.125)" xlink:href="#DejaVuSans-41"/>
     </g>
    </g>
   </g>
   <g id="text_6">
    <g clip-path="url(#p388a2f78b4)">
     <!-- P ($\pi$/4) -->
     <g transform="translate(252.627786 156.4494)scale(0.08 -0.08)">
      <use transform="translate(0 0.125)" xlink:href="#DejaVuSans-80"/>
      <use transform="translate(60.302734 0.125)" xlink:href="#DejaVuSans-32"/>
      <use transform="translate(92.089844 0.125)" xlink:href="#DejaVuSans-40"/>
      <use transform="translate(131.103516 0.125)" xlink:href="#DejaVuSans-Oblique-960"/>
      <use transform="translate(191.308594 0.125)" xlink:href="#DejaVuSans-47"/>
      <use transform="translate(225 0.125)" xlink:href="#DejaVuSans-52"/>
      <use transform="translate(288.623047 0.125)" xlink:href="#DejaVuSans-41"/>
     </g>
    </g>
   </g>
   <g id="text_7">
    <g clip-path="url(#p388a2f78b4)">
     <!-- P ($\pi$/4) -->
     <g transform="translate(343.529786 156.4494)scale(0.08 -0.08)">
      <use transform="translate(0 0.125)" xlink:href="#DejaVuSans-80"/>
      <use transform="translate(60.302734 0.125)" xlink:href="#DejaVuSans-32"/>
      <use transform="translate(92.089844 0.125)" xlink:href="#DejaVuSans-40"/>
      <use transform="translate(131.103516 0.125)" xlink:href="#DejaVuSans-Oblique-960"/>
      <use transform="translate(191.308594 0.125)" xlink:href="#DejaVuSans-47"/>
      <use transform="translate(225 0.125)" xlink:href="#DejaVuSans-52"/>
      <use transform="translate(288.623047 0.125)" xlink:href="#DejaVuSans-41"/>
     </g>
    </g>
   </g>
   <g id="text_8">
    <g clip-path="url(#p388a2f78b4)">
     <!-- P ($\pi$/4) -->
     <g transform="translate(434.431786 156.4494)scale(0.08 -0.08)">
      <use transform="translate(0 0.125)" xlink:href="#DejaVuSans-80"/>
      <use transform="translate(60.302734 0.125)" xlink:href="#DejaVuSans-32"/>
      <use transform="translate(92.089844 0.125)" xlink:href="#DejaVuSans-40"/>
      <use transform="translate(131.103516 0.125)" xlink:href="#DejaVuSans-Oblique-960"/>
      <use transform="translate(191.308594 0.125)" xlink:href="#DejaVuSans-47"/>
      <use transform="translate(225 0.125)" xlink:href="#DejaVuSans-52"/>
      <use transform="translate(288.623047 0.125)" xlink:href="#DejaVuSans-41"/>
     </g>
    </g>
   </g>
   <g id="text_9">
    <g clip-path="url(#p388a2f78b4)">
     <!-- P ($\pi$/4) -->
     <g transform="translate(525.333786 156.4494)scale(0.08 -0.08)">
      <use transform="translate(0 0.125)" xlink:href="#DejaVuSans-80"/>
      <use transform="translate(60.302734 0.125)" xlink:href="#DejaVuSans-32"/>
      <use transform="translate(92.089844 0.125)" xlink:href="#DejaVuSans-40"/>
      <use transform="translate(131.103516 0.125)" xlink:href="#DejaVuSans-Oblique-960"/>
      <use transform="translate(191.308594 0.125)" xlink:href="#DejaVuSans-47"/>
      <use transform="translate(225 0.125)" xlink:href="#DejaVuSans-52"/>
      <use transform="translate(288.623047 0.125)" xlink:href="#DejaVuSans-41"/>
     </g>
    </g>
   </g>
   <g id="text_10">
    <g clip-path="url(#p388a2f78b4)">
     <!-- P ($\pi$/4) -->
     <g transform="translate(616.235786 156.4494)scale(0.08 -0.08)">
      <use transform="translate(0 0.125)" xlink:href="#DejaVuSans-80"/>
      <use transform="translate(60.302734 0.125)" xlink:href="#DejaVuSans-32"/>
      <use transform="translate(92.089844 0.125)" xlink:href="#DejaVuSans-40"/>
      <use transform="translate(131.103516 0.125)" xlink:href="#DejaVuSans-Oblique-960"/>
      <use transform="translate(191.308594 0.125)" xlink:href="#DejaVuSans-47"/>
      <use transform="translate(225 0.125)" xlink:href="#DejaVuSans-52"/>
      <use transform="translate(288.623047 0.125)" xlink:href="#DejaVuSans-41"/>
     </g>
    </g>
   </g>
   <g id="text_11">
    <g clip-path="url(#p388a2f78b4)">
     <!-- P ($\pi$/4) -->
     <g transform="translate(707.137786 156.4494)scale(0.08 -0.08)">
      <use transform="translate(0 0.125)" xlink:href="#DejaVuSans-80"/>
      <use transform="translate(60.302734 0.125)" xlink:href="#DejaVuSans-32"/>
      <use transform="translate(92.089844 0.125)" xlink:href="#DejaVuSans-40"/>
      <use transform="translate(131.103516 0.125)" xlink:href="#DejaVuSans-Oblique-960"/>
      <use transform="translate(191.308594 0.125)" xlink:href="#DejaVuSans-47"/>
      <use transform="translate(225 0.125)" xlink:href="#DejaVuSans-52"/>
      <use transform="translate(288.623047 0.125)" xlink:href="#DejaVuSans-41"/>
     </g>
    </g>
   </g>
   <g id="text_12">
    <g clip-path="url(#p388a2f78b4)">
     <!-- H -->
     <g transform="translate(855.813173 47.147987)scale(0.13 -0.13)">
      <use xlink:href="#DejaVuSans-72"/>
     </g>
    </g>
   </g>
   <g id="text_13">
    <g clip-path="url(#p388a2f78b4)">
     <!-- P ($-$$\pi$/2) -->
     <g transform="translate(932.708577 65.5474)scale(0.08 -0.08)">
      <defs>
       <path d="M 10.59375 35.5 
L 73.1875 35.5 
L 73.1875 27.203125 
L 10.59375 27.203125 
z
" id="DejaVuSans-8722"/>
       <path d="M 19.1875 8.296875 
L 53.609375 8.296875 
L 53.609375 0 
L 7.328125 0 
L 7.328125 8.296875 
Q 12.9375 14.109375 22.625 23.890625 
Q 32.328125 33.6875 34.8125 36.53125 
Q 39.546875 41.84375 41.421875 45.53125 
Q 43.3125 49.21875 43.3125 52.78125 
Q 43.3125 58.59375 39.234375 62.25 
Q 35.15625 65.921875 28.609375 65.921875 
Q 23.96875 65.921875 18.8125 64.3125 
Q 13.671875 62.703125 7.8125 59.421875 
L 7.8125 69.390625 
Q 13.765625 71.78125 18.9375 73 
Q 24.125 74.21875 28.421875 74.21875 
Q 39.75 74.21875 46.484375 68.546875 
Q 53.21875 62.890625 53.21875 53.421875 
Q 53.21875 48.921875 51.53125 44.890625 
Q 49.859375 40.875 45.40625 35.40625 
Q 44.1875 33.984375 37.640625 27.21875 
Q 31.109375 20.453125 19.1875 8.296875 
z
" id="DejaVuSans-50"/>
      </defs>
      <use transform="translate(0 0.125)" xlink:href="#DejaVuSans-80"/>
      <use transform="translate(60.302734 0.125)" xlink:href="#DejaVuSans-32"/>
      <use transform="translate(92.089844 0.125)" xlink:href="#DejaVuSans-40"/>
      <use transform="translate(131.103516 0.125)" xlink:href="#DejaVuSans-8722"/>
      <use transform="translate(214.892578 0.125)" xlink:href="#DejaVuSans-Oblique-960"/>
      <use transform="translate(275.097656 0.125)" xlink:href="#DejaVuSans-47"/>
      <use transform="translate(305.164062 0.125)" xlink:href="#DejaVuSans-50"/>
      <use transform="translate(368.787109 0.125)" xlink:href="#DejaVuSans-41"/>
     </g>
    </g>
   </g>
   <g id="text_14">
    <g clip-path="url(#p388a2f78b4)">
     <!-- H -->
     <g transform="translate(992.166173 92.598987)scale(0.13 -0.13)">
      <use xlink:href="#DejaVuSans-72"/>
     </g>
    </g>
   </g>
   <g id="text_15">
    <g clip-path="url(#p388a2f78b4)">
     <!-- P ($-$$\pi$/4) -->
     <g transform="translate(1068.901577 110.9984)scale(0.08 -0.08)">
      <use transform="translate(0 0.125)" xlink:href="#DejaVuSans-80"/>
      <use transform="translate(60.302734 0.125)" xlink:href="#DejaVuSans-32"/>
      <use transform="translate(92.089844 0.125)" xlink:href="#DejaVuSans-40"/>
      <use transform="translate(131.103516 0.125)" xlink:href="#DejaVuSans-8722"/>
      <use transform="translate(214.892578 0.125)" xlink:href="#DejaVuSans-Oblique-960"/>
      <use transform="translate(275.097656 0.125)" xlink:href="#DejaVuSans-47"/>
      <use transform="translate(308.789062 0.125)" xlink:href="#DejaVuSans-52"/>
      <use transform="translate(372.412109 0.125)" xlink:href="#DejaVuSans-41"/>
     </g>
    </g>
   </g>
   <g id="text_16">
    <g clip-path="url(#p388a2f78b4)">
     <!-- P ($-$$\pi$/2) -->
     <g transform="translate(1159.963577 110.9984)scale(0.08 -0.08)">
      <use transform="translate(0 0.125)" xlink:href="#DejaVuSans-80"/>
      <use transform="translate(60.302734 0.125)" xlink:href="#DejaVuSans-32"/>
      <use transform="translate(92.089844 0.125)" xlink:href="#DejaVuSans-40"/>
      <use transform="translate(131.103516 0.125)" xlink:href="#DejaVuSans-8722"/>
      <use transform="translate(214.892578 0.125)" xlink:href="#DejaVuSans-Oblique-960"/>
      <use transform="translate(275.097656 0.125)" xlink:href="#DejaVuSans-47"/>
      <use transform="translate(305.164062 0.125)" xlink:href="#DejaVuSans-50"/>
      <use transform="translate(368.787109 0.125)" xlink:href="#DejaVuSans-41"/>
     </g>
    </g>
   </g>
   <g id="text_17">
    <g clip-path="url(#p388a2f78b4)">
     <!-- H -->
     <g transform="translate(83.146173 410.755987)scale(0.13 -0.13)">
      <use xlink:href="#DejaVuSans-72"/>
     </g>
    </g>
   </g>
   <g id="text_18">
    <g clip-path="url(#p388a2f78b4)">
     <!-- 0 -->
     <g transform="translate(190.299126 491.362825)scale(0.104 -0.104)">
      <defs>
       <path d="M 31.78125 66.40625 
Q 24.171875 66.40625 20.328125 58.90625 
Q 16.5 51.421875 16.5 36.375 
Q 16.5 21.390625 20.328125 13.890625 
Q 24.171875 6.390625 31.78125 6.390625 
Q 39.453125 6.390625 43.28125 13.890625 
Q 47.125 21.390625 47.125 36.375 
Q 47.125 51.421875 43.28125 58.90625 
Q 39.453125 66.40625 31.78125 66.40625 
z
M 31.78125 74.21875 
Q 44.046875 74.21875 50.515625 64.515625 
Q 56.984375 54.828125 56.984375 36.375 
Q 56.984375 17.96875 50.515625 8.265625 
Q 44.046875 -1.421875 31.78125 -1.421875 
Q 19.53125 -1.421875 13.0625 8.265625 
Q 6.59375 17.96875 6.59375 36.375 
Q 6.59375 54.828125 13.0625 64.515625 
Q 19.53125 74.21875 31.78125 74.21875 
z
" id="DejaVuSans-48"/>
      </defs>
      <use xlink:href="#DejaVuSans-48"/>
     </g>
    </g>
   </g>
   <g id="text_19">
    <g clip-path="url(#p388a2f78b4)">
     <!-- 1 -->
     <g transform="translate(235.750126 491.362825)scale(0.104 -0.104)">
      <defs>
       <path d="M 12.40625 8.296875 
L 28.515625 8.296875 
L 28.515625 63.921875 
L 10.984375 60.40625 
L 10.984375 69.390625 
L 28.421875 72.90625 
L 38.28125 72.90625 
L 38.28125 8.296875 
L 54.390625 8.296875 
L 54.390625 0 
L 12.40625 0 
z
" id="DejaVuSans-49"/>
      </defs>
      <use xlink:href="#DejaVuSans-49"/>
     </g>
    </g>
   </g>
   <g id="text_20">
    <g clip-path="url(#p388a2f78b4)">
     <!-- 2 -->
     <g transform="translate(281.201126 491.362825)scale(0.104 -0.104)">
      <use xlink:href="#DejaVuSans-50"/>
     </g>
    </g>
   </g>
   <g id="text_21">
    <g clip-path="url(#p388a2f78b4)">
     <!-- ${q}_{0}$ -->
     <g transform="translate(36.363136 48.011777)scale(0.1625 -0.1625)">
      <defs>
       <path d="M 41.703125 8.203125 
Q 38.09375 3.46875 33.171875 1.015625 
Q 28.265625 -1.421875 22.3125 -1.421875 
Q 14.015625 -1.421875 9.296875 4.171875 
Q 4.59375 9.765625 4.59375 19.578125 
Q 4.59375 27.484375 7.5 34.859375 
Q 10.40625 42.234375 15.828125 48.09375 
Q 19.34375 51.90625 23.90625 53.953125 
Q 28.46875 56 33.5 56 
Q 39.546875 56 43.453125 53.609375 
Q 47.359375 51.21875 49.125 46.390625 
L 50.6875 54.59375 
L 59.71875 54.59375 
L 45.125 -20.609375 
L 36.078125 -20.609375 
z
M 13.921875 20.90625 
Q 13.921875 13.671875 16.9375 9.890625 
Q 19.96875 6.109375 25.6875 6.109375 
Q 34.1875 6.109375 40.1875 14.234375 
Q 46.1875 22.359375 46.1875 33.984375 
Q 46.1875 41.015625 43.078125 44.75 
Q 39.984375 48.484375 34.1875 48.484375 
Q 29.9375 48.484375 26.3125 46.5 
Q 22.703125 44.53125 20.015625 40.71875 
Q 17.1875 36.71875 15.546875 31.34375 
Q 13.921875 25.984375 13.921875 20.90625 
z
" id="DejaVuSans-Oblique-113"/>
      </defs>
      <use xlink:href="#DejaVuSans-Oblique-113"/>
      <use transform="translate(63.476562 -16.40625)scale(0.7)" xlink:href="#DejaVuSans-48"/>
     </g>
    </g>
   </g>
   <g id="text_22">
    <g clip-path="url(#p388a2f78b4)">
     <!-- ${q}_{1}$ -->
     <g transform="translate(36.363136 93.462777)scale(0.1625 -0.1625)">
      <use xlink:href="#DejaVuSans-Oblique-113"/>
      <use transform="translate(63.476562 -16.40625)scale(0.7)" xlink:href="#DejaVuSans-49"/>
     </g>
    </g>
   </g>
   <g id="text_23">
    <g clip-path="url(#p388a2f78b4)">
     <!-- ${q}_{2}$ -->
     <g transform="translate(36.363136 138.913777)scale(0.1625 -0.1625)">
      <use xlink:href="#DejaVuSans-Oblique-113"/>
      <use transform="translate(63.476562 -16.40625)scale(0.7)" xlink:href="#DejaVuSans-50"/>
     </g>
    </g>
   </g>
   <g id="text_24">
    <g clip-path="url(#p388a2f78b4)">
     <!-- ${q}_{3}$ -->
     <g transform="translate(36.363136 184.364777)scale(0.1625 -0.1625)">
      <defs>
       <path d="M 40.578125 39.3125 
Q 47.65625 37.796875 51.625 33 
Q 55.609375 28.21875 55.609375 21.1875 
Q 55.609375 10.40625 48.1875 4.484375 
Q 40.765625 -1.421875 27.09375 -1.421875 
Q 22.515625 -1.421875 17.65625 -0.515625 
Q 12.796875 0.390625 7.625 2.203125 
L 7.625 11.71875 
Q 11.71875 9.328125 16.59375 8.109375 
Q 21.484375 6.890625 26.8125 6.890625 
Q 36.078125 6.890625 40.9375 10.546875 
Q 45.796875 14.203125 45.796875 21.1875 
Q 45.796875 27.640625 41.28125 31.265625 
Q 36.765625 34.90625 28.71875 34.90625 
L 20.21875 34.90625 
L 20.21875 43.015625 
L 29.109375 43.015625 
Q 36.375 43.015625 40.234375 45.921875 
Q 44.09375 48.828125 44.09375 54.296875 
Q 44.09375 59.90625 40.109375 62.90625 
Q 36.140625 65.921875 28.71875 65.921875 
Q 24.65625 65.921875 20.015625 65.03125 
Q 15.375 64.15625 9.8125 62.3125 
L 9.8125 71.09375 
Q 15.4375 72.65625 20.34375 73.4375 
Q 25.25 74.21875 29.59375 74.21875 
Q 40.828125 74.21875 47.359375 69.109375 
Q 53.90625 64.015625 53.90625 55.328125 
Q 53.90625 49.265625 50.4375 45.09375 
Q 46.96875 40.921875 40.578125 39.3125 
z
" id="DejaVuSans-51"/>
      </defs>
      <use xlink:href="#DejaVuSans-Oblique-113"/>
      <use transform="translate(63.476562 -16.40625)scale(0.7)" xlink:href="#DejaVuSans-51"/>
     </g>
    </g>
   </g>
   <g id="text_25">
    <g clip-path="url(#p388a2f78b4)">
     <!-- 3 -->
     <g transform="translate(68.035936 218.656825)scale(0.104 -0.104)">
      <use xlink:href="#DejaVuSans-51"/>
     </g>
    </g>
   </g>
   <g id="text_26">
    <g clip-path="url(#p388a2f78b4)">
     <!-- c -->
     <g transform="translate(45.465675 229.848784)scale(0.1625 -0.1625)">
      <defs>
       <path d="M 48.78125 52.59375 
L 48.78125 44.1875 
Q 44.96875 46.296875 41.140625 47.34375 
Q 37.3125 48.390625 33.40625 48.390625 
Q 24.65625 48.390625 19.8125 42.84375 
Q 14.984375 37.3125 14.984375 27.296875 
Q 14.984375 17.28125 19.8125 11.734375 
Q 24.65625 6.203125 33.40625 6.203125 
Q 37.3125 6.203125 41.140625 7.25 
Q 44.96875 8.296875 48.78125 10.40625 
L 48.78125 2.09375 
Q 45.015625 0.34375 40.984375 -0.53125 
Q 36.96875 -1.421875 32.421875 -1.421875 
Q 20.0625 -1.421875 12.78125 6.34375 
Q 5.515625 14.109375 5.515625 27.296875 
Q 5.515625 40.671875 12.859375 48.328125 
Q 20.21875 56 33.015625 56 
Q 37.15625 56 41.109375 55.140625 
Q 45.0625 54.296875 48.78125 52.59375 
z
" id="DejaVuSans-99"/>
      </defs>
      <use xlink:href="#DejaVuSans-99"/>
     </g>
    </g>
   </g>
   <g id="text_27">
    <g clip-path="url(#p388a2f78b4)">
     <!-- ${q}_{0}$ -->
     <g transform="translate(36.363136 320.717777)scale(0.1625 -0.1625)">
      <use xlink:href="#DejaVuSans-Oblique-113"/>
      <use transform="translate(63.476562 -16.40625)scale(0.7)" xlink:href="#DejaVuSans-48"/>
     </g>
    </g>
   </g>
   <g id="text_28">
    <g clip-path="url(#p388a2f78b4)">
     <!-- ${q}_{1}$ -->
     <g transform="translate(36.363136 366.168777)scale(0.1625 -0.1625)">
      <use xlink:href="#DejaVuSans-Oblique-113"/>
      <use transform="translate(63.476562 -16.40625)scale(0.7)" xlink:href="#DejaVuSans-49"/>
     </g>
    </g>
   </g>
   <g id="text_29">
    <g clip-path="url(#p388a2f78b4)">
     <!-- ${q}_{2}$ -->
     <g transform="translate(36.363136 411.619777)scale(0.1625 -0.1625)">
      <use xlink:href="#DejaVuSans-Oblique-113"/>
      <use transform="translate(63.476562 -16.40625)scale(0.7)" xlink:href="#DejaVuSans-50"/>
     </g>
    </g>
   </g>
   <g id="text_30">
    <g clip-path="url(#p388a2f78b4)">
     <!-- ${q}_{3}$ -->
     <g transform="translate(36.363136 457.070777)scale(0.1625 -0.1625)">
      <use xlink:href="#DejaVuSans-Oblique-113"/>
      <use transform="translate(63.476562 -16.40625)scale(0.7)" xlink:href="#DejaVuSans-51"/>
     </g>
    </g>
   </g>
   <g id="text_31">
    <g clip-path="url(#p388a2f78b4)">
     <!-- 3 -->
     <g transform="translate(68.035936 491.362825)scale(0.104 -0.104)">
      <use xlink:href="#DejaVuSans-51"/>
     </g>
    </g>
   </g>
   <g id="text_32">
    <g clip-path="url(#p388a2f78b4)">
     <!-- c -->
     <g transform="translate(45.465675 502.554784)scale(0.1625 -0.1625)">
      <use xlink:href="#DejaVuSans-99"/>
     </g>
    </g>
   </g>
  </g>
 </g>
 <defs>
  <clipPath id="p388a2f78b4">
   <rect height="518.1414" width="1201.656036" x="7.2" y="7.2"/>
  </clipPath>
 </defs>
</svg>
