<?xml version="1.0" encoding="utf-8" standalone="no"?>
<!DOCTYPE svg PUBLIC "-//W3C//DTD SVG 1.1//EN"
  "http://www.w3.org/Graphics/SVG/1.1/DTD/svg11.dtd">
<!-- Created with matplotlib (https://matplotlib.org/) -->
<svg height="277.314375pt" version="1.1" viewBox="0 0 383.982812 277.314375" width="383.982812pt" xmlns="http://www.w3.org/2000/svg" xmlns:xlink="http://www.w3.org/1999/xlink">
 <defs>
  <style type="text/css">
*{stroke-linecap:butt;stroke-linejoin:round;}
  </style>
 </defs>
 <g id="figure_1">
  <g id="patch_1">
   <path d="M -0 277.314375 
L 383.982812 277.314375 
L 383.982812 0 
L -0 0 
z
" style="fill:none;"/>
  </g>
  <g id="axes_1">
   <g id="patch_2">
    <path d="M 38.482813 239.758125 
L 373.282813 239.758125 
L 373.282813 22.318125 
L 38.482813 22.318125 
z
" style="fill:#ffffff;"/>
   </g>
   <g id="matplotlib.axis_1">
    <g id="xtick_1">
     <g id="line2d_1">
      <path clip-path="url(#pe2f14abf0d)" d="M 38.482813 239.758125 
L 38.482813 22.318125 
" style="fill:none;stroke:#b0b0b0;stroke-linecap:square;stroke-width:0.8;"/>
     </g>
     <g id="line2d_2">
      <defs>
       <path d="M 0 0 
L 0 3.5 
" id="m4b567167c6" style="stroke:#000000;stroke-width:0.8;"/>
      </defs>
      <g>
       <use style="stroke:#000000;stroke-width:0.8;" x="38.482813" xlink:href="#m4b567167c6" y="239.758125"/>
      </g>
     </g>
     <g id="text_1">
      <!-- 0 -->
      <defs>
       <path d="M 31.78125 66.40625 
Q 24.171875 66.40625 20.328125 58.90625 
Q 16.5 51.421875 16.5 36.375 
Q 16.5 21.390625 20.328125 13.890625 
Q 24.171875 6.390625 31.78125 6.390625 
Q 39.453125 6.390625 43.28125 13.890625 
Q 47.125 21.390625 47.125 36.375 
Q 47.125 51.421875 43.28125 58.90625 
Q 39.453125 66.40625 31.78125 66.40625 
z
M 31.78125 74.21875 
Q 44.046875 74.21875 50.515625 64.515625 
Q 56.984375 54.828125 56.984375 36.375 
Q 56.984375 17.96875 50.515625 8.265625 
Q 44.046875 -1.421875 31.78125 -1.421875 
Q 19.53125 -1.421875 13.0625 8.265625 
Q 6.59375 17.96875 6.59375 36.375 
Q 6.59375 54.828125 13.0625 64.515625 
Q 19.53125 74.21875 31.78125 74.21875 
z
" id="DejaVuSans-48"/>
      </defs>
      <g transform="translate(35.301563 254.356562)scale(0.1 -0.1)">
       <use xlink:href="#DejaVuSans-48"/>
      </g>
     </g>
    </g>
    <g id="xtick_2">
     <g id="line2d_3">
      <path clip-path="url(#pe2f14abf0d)" d="M 80.332813 239.758125 
L 80.332813 22.318125 
" style="fill:none;stroke:#b0b0b0;stroke-linecap:square;stroke-width:0.8;"/>
     </g>
     <g id="line2d_4">
      <g>
       <use style="stroke:#000000;stroke-width:0.8;" x="80.332813" xlink:href="#m4b567167c6" y="239.758125"/>
      </g>
     </g>
     <g id="text_2">
      <!-- 1 -->
      <defs>
       <path d="M 12.40625 8.296875 
L 28.515625 8.296875 
L 28.515625 63.921875 
L 10.984375 60.40625 
L 10.984375 69.390625 
L 28.421875 72.90625 
L 38.28125 72.90625 
L 38.28125 8.296875 
L 54.390625 8.296875 
L 54.390625 0 
L 12.40625 0 
z
" id="DejaVuSans-49"/>
      </defs>
      <g transform="translate(77.151562 254.356562)scale(0.1 -0.1)">
       <use xlink:href="#DejaVuSans-49"/>
      </g>
     </g>
    </g>
    <g id="xtick_3">
     <g id="line2d_5">
      <path clip-path="url(#pe2f14abf0d)" d="M 122.182813 239.758125 
L 122.182813 22.318125 
" style="fill:none;stroke:#b0b0b0;stroke-linecap:square;stroke-width:0.8;"/>
     </g>
     <g id="line2d_6">
      <g>
       <use style="stroke:#000000;stroke-width:0.8;" x="122.182813" xlink:href="#m4b567167c6" y="239.758125"/>
      </g>
     </g>
     <g id="text_3">
      <!-- 2 -->
      <defs>
       <path d="M 19.1875 8.296875 
L 53.609375 8.296875 
L 53.609375 0 
L 7.328125 0 
L 7.328125 8.296875 
Q 12.9375 14.109375 22.625 23.890625 
Q 32.328125 33.6875 34.8125 36.53125 
Q 39.546875 41.84375 41.421875 45.53125 
Q 43.3125 49.21875 43.3125 52.78125 
Q 43.3125 58.59375 39.234375 62.25 
Q 35.15625 65.921875 28.609375 65.921875 
Q 23.96875 65.921875 18.8125 64.3125 
Q 13.671875 62.703125 7.8125 59.421875 
L 7.8125 69.390625 
Q 13.765625 71.78125 18.9375 73 
Q 24.125 74.21875 28.421875 74.21875 
Q 39.75 74.21875 46.484375 68.546875 
Q 53.21875 62.890625 53.21875 53.421875 
Q 53.21875 48.921875 51.53125 44.890625 
Q 49.859375 40.875 45.40625 35.40625 
Q 44.1875 33.984375 37.640625 27.21875 
Q 31.109375 20.453125 19.1875 8.296875 
z
" id="DejaVuSans-50"/>
      </defs>
      <g transform="translate(119.001563 254.356562)scale(0.1 -0.1)">
       <use xlink:href="#DejaVuSans-50"/>
      </g>
     </g>
    </g>
    <g id="xtick_4">
     <g id="line2d_7">
      <path clip-path="url(#pe2f14abf0d)" d="M 164.032813 239.758125 
L 164.032813 22.318125 
" style="fill:none;stroke:#b0b0b0;stroke-linecap:square;stroke-width:0.8;"/>
     </g>
     <g id="line2d_8">
      <g>
       <use style="stroke:#000000;stroke-width:0.8;" x="164.032813" xlink:href="#m4b567167c6" y="239.758125"/>
      </g>
     </g>
     <g id="text_4">
      <!-- 3 -->
      <defs>
       <path d="M 40.578125 39.3125 
Q 47.65625 37.796875 51.625 33 
Q 55.609375 28.21875 55.609375 21.1875 
Q 55.609375 10.40625 48.1875 4.484375 
Q 40.765625 -1.421875 27.09375 -1.421875 
Q 22.515625 -1.421875 17.65625 -0.515625 
Q 12.796875 0.390625 7.625 2.203125 
L 7.625 11.71875 
Q 11.71875 9.328125 16.59375 8.109375 
Q 21.484375 6.890625 26.8125 6.890625 
Q 36.078125 6.890625 40.9375 10.546875 
Q 45.796875 14.203125 45.796875 21.1875 
Q 45.796875 27.640625 41.28125 31.265625 
Q 36.765625 34.90625 28.71875 34.90625 
L 20.21875 34.90625 
L 20.21875 43.015625 
L 29.109375 43.015625 
Q 36.375 43.015625 40.234375 45.921875 
Q 44.09375 48.828125 44.09375 54.296875 
Q 44.09375 59.90625 40.109375 62.90625 
Q 36.140625 65.921875 28.71875 65.921875 
Q 24.65625 65.921875 20.015625 65.03125 
Q 15.375 64.15625 9.8125 62.3125 
L 9.8125 71.09375 
Q 15.4375 72.65625 20.34375 73.4375 
Q 25.25 74.21875 29.59375 74.21875 
Q 40.828125 74.21875 47.359375 69.109375 
Q 53.90625 64.015625 53.90625 55.328125 
Q 53.90625 49.265625 50.4375 45.09375 
Q 46.96875 40.921875 40.578125 39.3125 
z
" id="DejaVuSans-51"/>
      </defs>
      <g transform="translate(160.851562 254.356562)scale(0.1 -0.1)">
       <use xlink:href="#DejaVuSans-51"/>
      </g>
     </g>
    </g>
    <g id="xtick_5">
     <g id="line2d_9">
      <path clip-path="url(#pe2f14abf0d)" d="M 205.882812 239.758125 
L 205.882812 22.318125 
" style="fill:none;stroke:#b0b0b0;stroke-linecap:square;stroke-width:0.8;"/>
     </g>
     <g id="line2d_10">
      <g>
       <use style="stroke:#000000;stroke-width:0.8;" x="205.882812" xlink:href="#m4b567167c6" y="239.758125"/>
      </g>
     </g>
     <g id="text_5">
      <!-- 4 -->
      <defs>
       <path d="M 37.796875 64.3125 
L 12.890625 25.390625 
L 37.796875 25.390625 
z
M 35.203125 72.90625 
L 47.609375 72.90625 
L 47.609375 25.390625 
L 58.015625 25.390625 
L 58.015625 17.1875 
L 47.609375 17.1875 
L 47.609375 0 
L 37.796875 0 
L 37.796875 17.1875 
L 4.890625 17.1875 
L 4.890625 26.703125 
z
" id="DejaVuSans-52"/>
      </defs>
      <g transform="translate(202.701562 254.356562)scale(0.1 -0.1)">
       <use xlink:href="#DejaVuSans-52"/>
      </g>
     </g>
    </g>
    <g id="xtick_6">
     <g id="line2d_11">
      <path clip-path="url(#pe2f14abf0d)" d="M 247.732812 239.758125 
L 247.732812 22.318125 
" style="fill:none;stroke:#b0b0b0;stroke-linecap:square;stroke-width:0.8;"/>
     </g>
     <g id="line2d_12">
      <g>
       <use style="stroke:#000000;stroke-width:0.8;" x="247.732812" xlink:href="#m4b567167c6" y="239.758125"/>
      </g>
     </g>
     <g id="text_6">
      <!-- 5 -->
      <defs>
       <path d="M 10.796875 72.90625 
L 49.515625 72.90625 
L 49.515625 64.59375 
L 19.828125 64.59375 
L 19.828125 46.734375 
Q 21.96875 47.46875 24.109375 47.828125 
Q 26.265625 48.1875 28.421875 48.1875 
Q 40.625 48.1875 47.75 41.5 
Q 54.890625 34.8125 54.890625 23.390625 
Q 54.890625 11.625 47.5625 5.09375 
Q 40.234375 -1.421875 26.90625 -1.421875 
Q 22.3125 -1.421875 17.546875 -0.640625 
Q 12.796875 0.140625 7.71875 1.703125 
L 7.71875 11.625 
Q 12.109375 9.234375 16.796875 8.0625 
Q 21.484375 6.890625 26.703125 6.890625 
Q 35.15625 6.890625 40.078125 11.328125 
Q 45.015625 15.765625 45.015625 23.390625 
Q 45.015625 31 40.078125 35.4375 
Q 35.15625 39.890625 26.703125 39.890625 
Q 22.75 39.890625 18.8125 39.015625 
Q 14.890625 38.140625 10.796875 36.28125 
z
" id="DejaVuSans-53"/>
      </defs>
      <g transform="translate(244.551562 254.356562)scale(0.1 -0.1)">
       <use xlink:href="#DejaVuSans-53"/>
      </g>
     </g>
    </g>
    <g id="xtick_7">
     <g id="line2d_13">
      <path clip-path="url(#pe2f14abf0d)" d="M 289.582813 239.758125 
L 289.582813 22.318125 
" style="fill:none;stroke:#b0b0b0;stroke-linecap:square;stroke-width:0.8;"/>
     </g>
     <g id="line2d_14">
      <g>
       <use style="stroke:#000000;stroke-width:0.8;" x="289.582813" xlink:href="#m4b567167c6" y="239.758125"/>
      </g>
     </g>
     <g id="text_7">
      <!-- 6 -->
      <defs>
       <path d="M 33.015625 40.375 
Q 26.375 40.375 22.484375 35.828125 
Q 18.609375 31.296875 18.609375 23.390625 
Q 18.609375 15.53125 22.484375 10.953125 
Q 26.375 6.390625 33.015625 6.390625 
Q 39.65625 6.390625 43.53125 10.953125 
Q 47.40625 15.53125 47.40625 23.390625 
Q 47.40625 31.296875 43.53125 35.828125 
Q 39.65625 40.375 33.015625 40.375 
z
M 52.59375 71.296875 
L 52.59375 62.3125 
Q 48.875 64.0625 45.09375 64.984375 
Q 41.3125 65.921875 37.59375 65.921875 
Q 27.828125 65.921875 22.671875 59.328125 
Q 17.53125 52.734375 16.796875 39.40625 
Q 19.671875 43.65625 24.015625 45.921875 
Q 28.375 48.1875 33.59375 48.1875 
Q 44.578125 48.1875 50.953125 41.515625 
Q 57.328125 34.859375 57.328125 23.390625 
Q 57.328125 12.15625 50.6875 5.359375 
Q 44.046875 -1.421875 33.015625 -1.421875 
Q 20.359375 -1.421875 13.671875 8.265625 
Q 6.984375 17.96875 6.984375 36.375 
Q 6.984375 53.65625 15.1875 63.9375 
Q 23.390625 74.21875 37.203125 74.21875 
Q 40.921875 74.21875 44.703125 73.484375 
Q 48.484375 72.75 52.59375 71.296875 
z
" id="DejaVuSans-54"/>
      </defs>
      <g transform="translate(286.401563 254.356562)scale(0.1 -0.1)">
       <use xlink:href="#DejaVuSans-54"/>
      </g>
     </g>
    </g>
    <g id="xtick_8">
     <g id="line2d_15">
      <path clip-path="url(#pe2f14abf0d)" d="M 331.432813 239.758125 
L 331.432813 22.318125 
" style="fill:none;stroke:#b0b0b0;stroke-linecap:square;stroke-width:0.8;"/>
     </g>
     <g id="line2d_16">
      <g>
       <use style="stroke:#000000;stroke-width:0.8;" x="331.432813" xlink:href="#m4b567167c6" y="239.758125"/>
      </g>
     </g>
     <g id="text_8">
      <!-- 7 -->
      <defs>
       <path d="M 8.203125 72.90625 
L 55.078125 72.90625 
L 55.078125 68.703125 
L 28.609375 0 
L 18.3125 0 
L 43.21875 64.59375 
L 8.203125 64.59375 
z
" id="DejaVuSans-55"/>
      </defs>
      <g transform="translate(328.251563 254.356562)scale(0.1 -0.1)">
       <use xlink:href="#DejaVuSans-55"/>
      </g>
     </g>
    </g>
    <g id="xtick_9">
     <g id="line2d_17">
      <path clip-path="url(#pe2f14abf0d)" d="M 373.282813 239.758125 
L 373.282813 22.318125 
" style="fill:none;stroke:#b0b0b0;stroke-linecap:square;stroke-width:0.8;"/>
     </g>
     <g id="line2d_18">
      <g>
       <use style="stroke:#000000;stroke-width:0.8;" x="373.282813" xlink:href="#m4b567167c6" y="239.758125"/>
      </g>
     </g>
     <g id="text_9">
      <!-- 8 -->
      <defs>
       <path d="M 31.78125 34.625 
Q 24.75 34.625 20.71875 30.859375 
Q 16.703125 27.09375 16.703125 20.515625 
Q 16.703125 13.921875 20.71875 10.15625 
Q 24.75 6.390625 31.78125 6.390625 
Q 38.8125 6.390625 42.859375 10.171875 
Q 46.921875 13.96875 46.921875 20.515625 
Q 46.921875 27.09375 42.890625 30.859375 
Q 38.875 34.625 31.78125 34.625 
z
M 21.921875 38.8125 
Q 15.578125 40.375 12.03125 44.71875 
Q 8.5 49.078125 8.5 55.328125 
Q 8.5 64.0625 14.71875 69.140625 
Q 20.953125 74.21875 31.78125 74.21875 
Q 42.671875 74.21875 48.875 69.140625 
Q 55.078125 64.0625 55.078125 55.328125 
Q 55.078125 49.078125 51.53125 44.71875 
Q 48 40.375 41.703125 38.8125 
Q 48.828125 37.15625 52.796875 32.3125 
Q 56.78125 27.484375 56.78125 20.515625 
Q 56.78125 9.90625 50.3125 4.234375 
Q 43.84375 -1.421875 31.78125 -1.421875 
Q 19.734375 -1.421875 13.25 4.234375 
Q 6.78125 9.90625 6.78125 20.515625 
Q 6.78125 27.484375 10.78125 32.3125 
Q 14.796875 37.15625 21.921875 38.8125 
z
M 18.3125 54.390625 
Q 18.3125 48.734375 21.84375 45.5625 
Q 25.390625 42.390625 31.78125 42.390625 
Q 38.140625 42.390625 41.71875 45.5625 
Q 45.3125 48.734375 45.3125 54.390625 
Q 45.3125 60.0625 41.71875 63.234375 
Q 38.140625 66.40625 31.78125 66.40625 
Q 25.390625 66.40625 21.84375 63.234375 
Q 18.3125 60.0625 18.3125 54.390625 
z
" id="DejaVuSans-56"/>
      </defs>
      <g transform="translate(370.101563 254.356562)scale(0.1 -0.1)">
       <use xlink:href="#DejaVuSans-56"/>
      </g>
     </g>
    </g>
    <g id="text_10">
     <!-- $x$ -->
     <defs>
      <path d="M 60.015625 54.6875 
L 34.90625 27.875 
L 50.296875 0 
L 39.984375 0 
L 28.421875 21.6875 
L 8.296875 0 
L -2.59375 0 
L 24.3125 28.8125 
L 10.015625 54.6875 
L 20.3125 54.6875 
L 30.8125 34.90625 
L 49.125 54.6875 
z
" id="DejaVuSans-Oblique-120"/>
     </defs>
     <g transform="translate(202.882812 268.034687)scale(0.1 -0.1)">
      <use transform="translate(0 0.3125)" xlink:href="#DejaVuSans-Oblique-120"/>
     </g>
    </g>
   </g>
   <g id="matplotlib.axis_2">
    <g id="ytick_1">
     <g id="line2d_19">
      <path clip-path="url(#pe2f14abf0d)" d="M 38.482813 221.638125 
L 373.282813 221.638125 
" style="fill:none;stroke:#b0b0b0;stroke-linecap:square;stroke-width:0.8;"/>
     </g>
     <g id="line2d_20">
      <defs>
       <path d="M 0 0 
L -3.5 0 
" id="m2e5c9746c5" style="stroke:#000000;stroke-width:0.8;"/>
      </defs>
      <g>
       <use style="stroke:#000000;stroke-width:0.8;" x="38.482813" xlink:href="#m2e5c9746c5" y="221.638125"/>
      </g>
     </g>
     <g id="text_11">
      <!-- −1.0 -->
      <defs>
       <path d="M 10.59375 35.5 
L 73.1875 35.5 
L 73.1875 27.203125 
L 10.59375 27.203125 
z
" id="DejaVuSans-8722"/>
       <path d="M 10.6875 12.40625 
L 21 12.40625 
L 21 0 
L 10.6875 0 
z
" id="DejaVuSans-46"/>
      </defs>
      <g transform="translate(7.2 225.437344)scale(0.1 -0.1)">
       <use xlink:href="#DejaVuSans-8722"/>
       <use x="83.789062" xlink:href="#DejaVuSans-49"/>
       <use x="147.412109" xlink:href="#DejaVuSans-46"/>
       <use x="179.199219" xlink:href="#DejaVuSans-48"/>
      </g>
     </g>
    </g>
    <g id="ytick_2">
     <g id="line2d_21">
      <path clip-path="url(#pe2f14abf0d)" d="M 38.482813 176.338125 
L 373.282813 176.338125 
" style="fill:none;stroke:#b0b0b0;stroke-linecap:square;stroke-width:0.8;"/>
     </g>
     <g id="line2d_22">
      <g>
       <use style="stroke:#000000;stroke-width:0.8;" x="38.482813" xlink:href="#m2e5c9746c5" y="176.338125"/>
      </g>
     </g>
     <g id="text_12">
      <!-- −0.5 -->
      <g transform="translate(7.2 180.137344)scale(0.1 -0.1)">
       <use xlink:href="#DejaVuSans-8722"/>
       <use x="83.789062" xlink:href="#DejaVuSans-48"/>
       <use x="147.412109" xlink:href="#DejaVuSans-46"/>
       <use x="179.199219" xlink:href="#DejaVuSans-53"/>
      </g>
     </g>
    </g>
    <g id="ytick_3">
     <g id="line2d_23">
      <path clip-path="url(#pe2f14abf0d)" d="M 38.482813 131.038125 
L 373.282813 131.038125 
" style="fill:none;stroke:#b0b0b0;stroke-linecap:square;stroke-width:0.8;"/>
     </g>
     <g id="line2d_24">
      <g>
       <use style="stroke:#000000;stroke-width:0.8;" x="38.482813" xlink:href="#m2e5c9746c5" y="131.038125"/>
      </g>
     </g>
     <g id="text_13">
      <!-- 0.0 -->
      <g transform="translate(15.579688 134.837344)scale(0.1 -0.1)">
       <use xlink:href="#DejaVuSans-48"/>
       <use x="63.623047" xlink:href="#DejaVuSans-46"/>
       <use x="95.410156" xlink:href="#DejaVuSans-48"/>
      </g>
     </g>
    </g>
    <g id="ytick_4">
     <g id="line2d_25">
      <path clip-path="url(#pe2f14abf0d)" d="M 38.482813 85.738125 
L 373.282813 85.738125 
" style="fill:none;stroke:#b0b0b0;stroke-linecap:square;stroke-width:0.8;"/>
     </g>
     <g id="line2d_26">
      <g>
       <use style="stroke:#000000;stroke-width:0.8;" x="38.482813" xlink:href="#m2e5c9746c5" y="85.738125"/>
      </g>
     </g>
     <g id="text_14">
      <!-- 0.5 -->
      <g transform="translate(15.579688 89.537344)scale(0.1 -0.1)">
       <use xlink:href="#DejaVuSans-48"/>
       <use x="63.623047" xlink:href="#DejaVuSans-46"/>
       <use x="95.410156" xlink:href="#DejaVuSans-53"/>
      </g>
     </g>
    </g>
    <g id="ytick_5">
     <g id="line2d_27">
      <path clip-path="url(#pe2f14abf0d)" d="M 38.482813 40.438125 
L 373.282813 40.438125 
" style="fill:none;stroke:#b0b0b0;stroke-linecap:square;stroke-width:0.8;"/>
     </g>
     <g id="line2d_28">
      <g>
       <use style="stroke:#000000;stroke-width:0.8;" x="38.482813" xlink:href="#m2e5c9746c5" y="40.438125"/>
      </g>
     </g>
     <g id="text_15">
      <!-- 1.0 -->
      <g transform="translate(15.579688 44.237344)scale(0.1 -0.1)">
       <use xlink:href="#DejaVuSans-49"/>
       <use x="63.623047" xlink:href="#DejaVuSans-46"/>
       <use x="95.410156" xlink:href="#DejaVuSans-48"/>
      </g>
     </g>
    </g>
   </g>
   <g id="line2d_29">
    <defs>
     <path d="M 0 3 
C 0.795609 3 1.55874 2.683901 2.12132 2.12132 
C 2.683901 1.55874 3 0.795609 3 0 
C 3 -0.795609 2.683901 -1.55874 2.12132 -2.12132 
C 1.55874 -2.683901 0.795609 -3 0 -3 
C -0.795609 -3 -1.55874 -2.683901 -2.12132 -2.12132 
C -2.683901 -1.55874 -3 -0.795609 -3 0 
C -3 0.795609 -2.683901 1.55874 -2.12132 2.12132 
C -1.55874 2.683901 -0.795609 3 0 3 
z
" id="mbcd774f64f" style="stroke:#ff0000;"/>
    </defs>
    <g clip-path="url(#pe2f14abf0d)">
     <use style="fill:#ff0000;stroke:#ff0000;" x="38.482813" xlink:href="#mbcd774f64f" y="131.038125"/>
     <use style="fill:#ff0000;stroke:#ff0000;" x="42.710085" xlink:href="#mbcd774f64f" y="121.902164"/>
     <use style="fill:#ff0000;stroke:#ff0000;" x="46.937358" xlink:href="#mbcd774f64f" y="112.859339"/>
     <use style="fill:#ff0000;stroke:#ff0000;" x="51.164631" xlink:href="#mbcd774f64f" y="104.001834"/>
     <use style="fill:#ff0000;stroke:#ff0000;" x="55.391903" xlink:href="#mbcd774f64f" y="95.419948"/>
     <use style="fill:#ff0000;stroke:#ff0000;" x="59.619176" xlink:href="#mbcd774f64f" y="87.201166"/>
     <use style="fill:#ff0000;stroke:#ff0000;" x="63.846449" xlink:href="#mbcd774f64f" y="79.429275"/>
     <use style="fill:#ff0000;stroke:#ff0000;" x="68.073722" xlink:href="#mbcd774f64f" y="72.183503"/>
     <use style="fill:#ff0000;stroke:#ff0000;" x="72.300994" xlink:href="#mbcd774f64f" y="65.537717"/>
     <use style="fill:#ff0000;stroke:#ff0000;" x="76.528267" xlink:href="#mbcd774f64f" y="59.559666"/>
     <use style="fill:#ff0000;stroke:#ff0000;" x="80.75554" xlink:href="#mbcd774f64f" y="54.310293"/>
     <use style="fill:#ff0000;stroke:#ff0000;" x="84.982813" xlink:href="#mbcd774f64f" y="49.843112"/>
     <use style="fill:#ff0000;stroke:#ff0000;" x="89.210085" xlink:href="#mbcd774f64f" y="46.203662"/>
     <use style="fill:#ff0000;stroke:#ff0000;" x="93.437358" xlink:href="#mbcd774f64f" y="43.429046"/>
     <use style="fill:#ff0000;stroke:#ff0000;" x="97.664631" xlink:href="#mbcd774f64f" y="41.54755"/>
     <use style="fill:#ff0000;stroke:#ff0000;" x="101.891903" xlink:href="#mbcd774f64f" y="40.578353"/>
     <use style="fill:#ff0000;stroke:#ff0000;" x="106.119176" xlink:href="#mbcd774f64f" y="40.531337"/>
     <use style="fill:#ff0000;stroke:#ff0000;" x="110.346449" xlink:href="#mbcd774f64f" y="41.40698"/>
     <use style="fill:#ff0000;stroke:#ff0000;" x="114.573722" xlink:href="#mbcd774f64f" y="43.196356"/>
     <use style="fill:#ff0000;stroke:#ff0000;" x="118.800994" xlink:href="#mbcd774f64f" y="45.881223"/>
     <use style="fill:#ff0000;stroke:#ff0000;" x="123.028267" xlink:href="#mbcd774f64f" y="49.434212"/>
     <use style="fill:#ff0000;stroke:#ff0000;" x="127.25554" xlink:href="#mbcd774f64f" y="53.8191"/>
     <use style="fill:#ff0000;stroke:#ff0000;" x="131.482813" xlink:href="#mbcd774f64f" y="58.991188"/>
     <use style="fill:#ff0000;stroke:#ff0000;" x="135.710085" xlink:href="#mbcd774f64f" y="64.897749"/>
     <use style="fill:#ff0000;stroke:#ff0000;" x="139.937358" xlink:href="#mbcd774f64f" y="71.478569"/>
     <use style="fill:#ff0000;stroke:#ff0000;" x="144.164631" xlink:href="#mbcd774f64f" y="78.666561"/>
     <use style="fill:#ff0000;stroke:#ff0000;" x="148.391903" xlink:href="#mbcd774f64f" y="86.388448"/>
     <use style="fill:#ff0000;stroke:#ff0000;" x="152.619176" xlink:href="#mbcd774f64f" y="94.56551"/>
     <use style="fill:#ff0000;stroke:#ff0000;" x="156.846449" xlink:href="#mbcd774f64f" y="103.114388"/>
     <use style="fill:#ff0000;stroke:#ff0000;" x="161.073722" xlink:href="#mbcd774f64f" y="111.947931"/>
     <use style="fill:#ff0000;stroke:#ff0000;" x="165.300994" xlink:href="#mbcd774f64f" y="120.976086"/>
     <use style="fill:#ff0000;stroke:#ff0000;" x="169.528267" xlink:href="#mbcd774f64f" y="130.106817"/>
     <use style="fill:#ff0000;stroke:#ff0000;" x="173.75554" xlink:href="#mbcd774f64f" y="139.247042"/>
     <use style="fill:#ff0000;stroke:#ff0000;" x="177.982812" xlink:href="#mbcd774f64f" y="148.303582"/>
     <use style="fill:#ff0000;stroke:#ff0000;" x="182.210085" xlink:href="#mbcd774f64f" y="157.184113"/>
     <use style="fill:#ff0000;stroke:#ff0000;" x="186.437358" xlink:href="#mbcd774f64f" y="165.798101"/>
     <use style="fill:#ff0000;stroke:#ff0000;" x="190.664631" xlink:href="#mbcd774f64f" y="174.057733"/>
     <use style="fill:#ff0000;stroke:#ff0000;" x="194.891903" xlink:href="#mbcd774f64f" y="181.878808"/>
     <use style="fill:#ff0000;stroke:#ff0000;" x="199.119176" xlink:href="#mbcd774f64f" y="189.181593"/>
     <use style="fill:#ff0000;stroke:#ff0000;" x="203.346449" xlink:href="#mbcd774f64f" y="195.891643"/>
     <use style="fill:#ff0000;stroke:#ff0000;" x="207.573722" xlink:href="#mbcd774f64f" y="201.940553"/>
     <use style="fill:#ff0000;stroke:#ff0000;" x="211.800994" xlink:href="#mbcd774f64f" y="207.266657"/>
     <use style="fill:#ff0000;stroke:#ff0000;" x="216.028267" xlink:href="#mbcd774f64f" y="211.815659"/>
     <use style="fill:#ff0000;stroke:#ff0000;" x="220.25554" xlink:href="#mbcd774f64f" y="215.541185"/>
     <use style="fill:#ff0000;stroke:#ff0000;" x="224.482813" xlink:href="#mbcd774f64f" y="218.405256"/>
     <use style="fill:#ff0000;stroke:#ff0000;" x="228.710085" xlink:href="#mbcd774f64f" y="220.378674"/>
     <use style="fill:#ff0000;stroke:#ff0000;" x="232.937358" xlink:href="#mbcd774f64f" y="221.441322"/>
     <use style="fill:#ff0000;stroke:#ff0000;" x="237.164631" xlink:href="#mbcd774f64f" y="221.582366"/>
     <use style="fill:#ff0000;stroke:#ff0000;" x="241.391903" xlink:href="#mbcd774f64f" y="220.800369"/>
     <use style="fill:#ff0000;stroke:#ff0000;" x="245.619176" xlink:href="#mbcd774f64f" y="219.103302"/>
     <use style="fill:#ff0000;stroke:#ff0000;" x="249.846449" xlink:href="#mbcd774f64f" y="216.508467"/>
     <use style="fill:#ff0000;stroke:#ff0000;" x="254.073722" xlink:href="#mbcd774f64f" y="213.042316"/>
     <use style="fill:#ff0000;stroke:#ff0000;" x="258.300994" xlink:href="#mbcd774f64f" y="208.740183"/>
     <use style="fill:#ff0000;stroke:#ff0000;" x="262.528267" xlink:href="#mbcd774f64f" y="203.645927"/>
     <use style="fill:#ff0000;stroke:#ff0000;" x="266.75554" xlink:href="#mbcd774f64f" y="197.811481"/>
     <use style="fill:#ff0000;stroke:#ff0000;" x="270.982813" xlink:href="#mbcd774f64f" y="191.296322"/>
     <use style="fill:#ff0000;stroke:#ff0000;" x="275.210085" xlink:href="#mbcd774f64f" y="184.166869"/>
     <use style="fill:#ff0000;stroke:#ff0000;" x="279.437358" xlink:href="#mbcd774f64f" y="176.495802"/>
     <use style="fill:#ff0000;stroke:#ff0000;" x="283.664631" xlink:href="#mbcd774f64f" y="168.361323"/>
     <use style="fill:#ff0000;stroke:#ff0000;" x="287.891903" xlink:href="#mbcd774f64f" y="159.846358"/>
     <use style="fill:#ff0000;stroke:#ff0000;" x="292.119176" xlink:href="#mbcd774f64f" y="151.03771"/>
     <use style="fill:#ff0000;stroke:#ff0000;" x="296.346449" xlink:href="#mbcd774f64f" y="142.02518"/>
     <use style="fill:#ff0000;stroke:#ff0000;" x="300.573722" xlink:href="#mbcd774f64f" y="132.900643"/>
     <use style="fill:#ff0000;stroke:#ff0000;" x="304.800994" xlink:href="#mbcd774f64f" y="123.757119"/>
     <use style="fill:#ff0000;stroke:#ff0000;" x="309.028267" xlink:href="#mbcd774f64f" y="114.687821"/>
     <use style="fill:#ff0000;stroke:#ff0000;" x="313.25554" xlink:href="#mbcd774f64f" y="105.785203"/>
     <use style="fill:#ff0000;stroke:#ff0000;" x="317.482813" xlink:href="#mbcd774f64f" y="97.140024"/>
     <use style="fill:#ff0000;stroke:#ff0000;" x="321.710085" xlink:href="#mbcd774f64f" y="88.840413"/>
     <use style="fill:#ff0000;stroke:#ff0000;" x="325.937358" xlink:href="#mbcd774f64f" y="80.970982"/>
     <use style="fill:#ff0000;stroke:#ff0000;" x="330.164631" xlink:href="#mbcd774f64f" y="73.611954"/>
     <use style="fill:#ff0000;stroke:#ff0000;" x="334.391903" xlink:href="#mbcd774f64f" y="66.838349"/>
     <use style="fill:#ff0000;stroke:#ff0000;" x="338.619176" xlink:href="#mbcd774f64f" y="60.719221"/>
     <use style="fill:#ff0000;stroke:#ff0000;" x="342.846449" xlink:href="#mbcd774f64f" y="55.316949"/>
     <use style="fill:#ff0000;stroke:#ff0000;" x="347.073722" xlink:href="#mbcd774f64f" y="50.686607"/>
     <use style="fill:#ff0000;stroke:#ff0000;" x="351.300994" xlink:href="#mbcd774f64f" y="46.875397"/>
     <use style="fill:#ff0000;stroke:#ff0000;" x="355.528267" xlink:href="#mbcd774f64f" y="43.922174"/>
     <use style="fill:#ff0000;stroke:#ff0000;" x="359.75554" xlink:href="#mbcd774f64f" y="41.857043"/>
     <use style="fill:#ff0000;stroke:#ff0000;" x="363.982813" xlink:href="#mbcd774f64f" y="40.701056"/>
     <use style="fill:#ff0000;stroke:#ff0000;" x="368.210085" xlink:href="#mbcd774f64f" y="40.465999"/>
     <use style="fill:#ff0000;stroke:#ff0000;" x="372.437358" xlink:href="#mbcd774f64f" y="41.154267"/>
     <use style="fill:#ff0000;stroke:#ff0000;" x="376.664631" xlink:href="#mbcd774f64f" y="42.758845"/>
     <use style="fill:#ff0000;stroke:#ff0000;" x="380.891903" xlink:href="#mbcd774f64f" y="45.263374"/>
     <use style="fill:#ff0000;stroke:#ff0000;" x="385.119176" xlink:href="#mbcd774f64f" y="48.642323"/>
     <use style="fill:#ff0000;stroke:#ff0000;" x="389.346449" xlink:href="#mbcd774f64f" y="52.861244"/>
     <use style="fill:#ff0000;stroke:#ff0000;" x="393.573722" xlink:href="#mbcd774f64f" y="57.87713"/>
     <use style="fill:#ff0000;stroke:#ff0000;" x="397.800994" xlink:href="#mbcd774f64f" y="63.638845"/>
     <use style="fill:#ff0000;stroke:#ff0000;" x="402.028267" xlink:href="#mbcd774f64f" y="70.087654"/>
     <use style="fill:#ff0000;stroke:#ff0000;" x="406.25554" xlink:href="#mbcd774f64f" y="77.157814"/>
     <use style="fill:#ff0000;stroke:#ff0000;" x="410.482813" xlink:href="#mbcd774f64f" y="84.777251"/>
     <use style="fill:#ff0000;stroke:#ff0000;" x="414.710085" xlink:href="#mbcd774f64f" y="92.868287"/>
     <use style="fill:#ff0000;stroke:#ff0000;" x="418.937358" xlink:href="#mbcd774f64f" y="101.348441"/>
     <use style="fill:#ff0000;stroke:#ff0000;" x="423.164631" xlink:href="#mbcd774f64f" y="110.131262"/>
     <use style="fill:#ff0000;stroke:#ff0000;" x="427.391903" xlink:href="#mbcd774f64f" y="119.127216"/>
     <use style="fill:#ff0000;stroke:#ff0000;" x="431.619176" xlink:href="#mbcd774f64f" y="128.244594"/>
     <use style="fill:#ff0000;stroke:#ff0000;" x="435.846449" xlink:href="#mbcd774f64f" y="137.39045"/>
     <use style="fill:#ff0000;stroke:#ff0000;" x="440.073722" xlink:href="#mbcd774f64f" y="146.471548"/>
     <use style="fill:#ff0000;stroke:#ff0000;" x="444.300994" xlink:href="#mbcd774f64f" y="155.395312"/>
     <use style="fill:#ff0000;stroke:#ff0000;" x="448.528267" xlink:href="#mbcd774f64f" y="164.07077"/>
     <use style="fill:#ff0000;stroke:#ff0000;" x="452.75554" xlink:href="#mbcd774f64f" y="172.409481"/>
     <use style="fill:#ff0000;stroke:#ff0000;" x="456.982813" xlink:href="#mbcd774f64f" y="180.326438"/>
    </g>
   </g>
   <g id="line2d_30">
    <defs>
     <path d="M -3 3 
L 3 -3 
M -3 -3 
L 3 3 
" id="mc51d758fda" style="stroke:#0000ff;"/>
    </defs>
    <g clip-path="url(#pe2f14abf0d)">
     <use style="fill:#0000ff;stroke:#0000ff;" x="38.482813" xlink:href="#mc51d758fda" y="58.558125"/>
     <use style="fill:#0000ff;stroke:#0000ff;" x="42.710085" xlink:href="#mc51d758fda" y="58.927569"/>
     <use style="fill:#0000ff;stroke:#0000ff;" x="46.937358" xlink:href="#mc51d758fda" y="60.032134"/>
     <use style="fill:#0000ff;stroke:#0000ff;" x="51.164631" xlink:href="#mc51d758fda" y="61.860561"/>
     <use style="fill:#0000ff;stroke:#0000ff;" x="55.391903" xlink:href="#mc51d758fda" y="64.394209"/>
     <use style="fill:#0000ff;stroke:#0000ff;" x="59.619176" xlink:href="#mc51d758fda" y="67.60725"/>
     <use style="fill:#0000ff;stroke:#0000ff;" x="63.846449" xlink:href="#mc51d758fda" y="71.466929"/>
     <use style="fill:#0000ff;stroke:#0000ff;" x="68.073722" xlink:href="#mc51d758fda" y="75.933898"/>
     <use style="fill:#0000ff;stroke:#0000ff;" x="72.300994" xlink:href="#mc51d758fda" y="80.96262"/>
     <use style="fill:#0000ff;stroke:#0000ff;" x="76.528267" xlink:href="#mc51d758fda" y="86.50183"/>
     <use style="fill:#0000ff;stroke:#0000ff;" x="80.75554" xlink:href="#mc51d758fda" y="92.49506"/>
     <use style="fill:#0000ff;stroke:#0000ff;" x="84.982813" xlink:href="#mc51d758fda" y="98.881212"/>
     <use style="fill:#0000ff;stroke:#0000ff;" x="89.210085" xlink:href="#mc51d758fda" y="105.595183"/>
     <use style="fill:#0000ff;stroke:#0000ff;" x="93.437358" xlink:href="#mc51d758fda" y="112.568529"/>
     <use style="fill:#0000ff;stroke:#0000ff;" x="97.664631" xlink:href="#mc51d758fda" y="119.730161"/>
     <use style="fill:#0000ff;stroke:#0000ff;" x="101.891903" xlink:href="#mc51d758fda" y="127.00707"/>
     <use style="fill:#0000ff;stroke:#0000ff;" x="106.119176" xlink:href="#mc51d758fda" y="134.325073"/>
     <use style="fill:#0000ff;stroke:#0000ff;" x="110.346449" xlink:href="#mc51d758fda" y="141.609569"/>
     <use style="fill:#0000ff;stroke:#0000ff;" x="114.573722" xlink:href="#mc51d758fda" y="148.786294"/>
     <use style="fill:#0000ff;stroke:#0000ff;" x="118.800994" xlink:href="#mc51d758fda" y="155.782089"/>
     <use style="fill:#0000ff;stroke:#0000ff;" x="123.028267" xlink:href="#mc51d758fda" y="162.525634"/>
     <use style="fill:#0000ff;stroke:#0000ff;" x="127.25554" xlink:href="#mc51d758fda" y="168.948184"/>
     <use style="fill:#0000ff;stroke:#0000ff;" x="131.482813" xlink:href="#mc51d758fda" y="174.984265"/>
     <use style="fill:#0000ff;stroke:#0000ff;" x="135.710085" xlink:href="#mc51d758fda" y="180.572343"/>
     <use style="fill:#0000ff;stroke:#0000ff;" x="139.937358" xlink:href="#mc51d758fda" y="185.655451"/>
     <use style="fill:#0000ff;stroke:#0000ff;" x="144.164631" xlink:href="#mc51d758fda" y="190.18177"/>
     <use style="fill:#0000ff;stroke:#0000ff;" x="148.391903" xlink:href="#mc51d758fda" y="194.105156"/>
     <use style="fill:#0000ff;stroke:#0000ff;" x="152.619176" xlink:href="#mc51d758fda" y="197.385615"/>
     <use style="fill:#0000ff;stroke:#0000ff;" x="156.846449" xlink:href="#mc51d758fda" y="199.989702"/>
     <use style="fill:#0000ff;stroke:#0000ff;" x="161.073722" xlink:href="#mc51d758fda" y="201.890871"/>
     <use style="fill:#0000ff;stroke:#0000ff;" x="165.300994" xlink:href="#mc51d758fda" y="203.069742"/>
     <use style="fill:#0000ff;stroke:#0000ff;" x="169.528267" xlink:href="#mc51d758fda" y="203.514296"/>
     <use style="fill:#0000ff;stroke:#0000ff;" x="173.75554" xlink:href="#mc51d758fda" y="203.220001"/>
     <use style="fill:#0000ff;stroke:#0000ff;" x="177.982812" xlink:href="#mc51d758fda" y="202.189857"/>
     <use style="fill:#0000ff;stroke:#0000ff;" x="182.210085" xlink:href="#mc51d758fda" y="200.434366"/>
     <use style="fill:#0000ff;stroke:#0000ff;" x="186.437358" xlink:href="#mc51d758fda" y="197.971425"/>
     <use style="fill:#0000ff;stroke:#0000ff;" x="190.664631" xlink:href="#mc51d758fda" y="194.826141"/>
     <use style="fill:#0000ff;stroke:#0000ff;" x="194.891903" xlink:href="#mc51d758fda" y="191.030578"/>
     <use style="fill:#0000ff;stroke:#0000ff;" x="199.119176" xlink:href="#mc51d758fda" y="186.62343"/>
     <use style="fill:#0000ff;stroke:#0000ff;" x="203.346449" xlink:href="#mc51d758fda" y="181.649625"/>
     <use style="fill:#0000ff;stroke:#0000ff;" x="207.573722" xlink:href="#mc51d758fda" y="176.159868"/>
     <use style="fill:#0000ff;stroke:#0000ff;" x="211.800994" xlink:href="#mc51d758fda" y="170.210123"/>
     <use style="fill:#0000ff;stroke:#0000ff;" x="216.028267" xlink:href="#mc51d758fda" y="163.861044"/>
     <use style="fill:#0000ff;stroke:#0000ff;" x="220.25554" xlink:href="#mc51d758fda" y="157.177357"/>
     <use style="fill:#0000ff;stroke:#0000ff;" x="224.482813" xlink:href="#mc51d758fda" y="150.227196"/>
     <use style="fill:#0000ff;stroke:#0000ff;" x="228.710085" xlink:href="#mc51d758fda" y="143.081415"/>
     <use style="fill:#0000ff;stroke:#0000ff;" x="232.937358" xlink:href="#mc51d758fda" y="135.81286"/>
     <use style="fill:#0000ff;stroke:#0000ff;" x="237.164631" xlink:href="#mc51d758fda" y="128.49563"/>
     <use style="fill:#0000ff;stroke:#0000ff;" x="241.391903" xlink:href="#mc51d758fda" y="121.204319"/>
     <use style="fill:#0000ff;stroke:#0000ff;" x="245.619176" xlink:href="#mc51d758fda" y="114.013258"/>
     <use style="fill:#0000ff;stroke:#0000ff;" x="249.846449" xlink:href="#mc51d758fda" y="106.995754"/>
     <use style="fill:#0000ff;stroke:#0000ff;" x="254.073722" xlink:href="#mc51d758fda" y="100.223347"/>
     <use style="fill:#0000ff;stroke:#0000ff;" x="258.300994" xlink:href="#mc51d758fda" y="93.765077"/>
     <use style="fill:#0000ff;stroke:#0000ff;" x="262.528267" xlink:href="#mc51d758fda" y="87.686782"/>
     <use style="fill:#0000ff;stroke:#0000ff;" x="266.75554" xlink:href="#mc51d758fda" y="82.050427"/>
     <use style="fill:#0000ff;stroke:#0000ff;" x="270.982813" xlink:href="#mc51d758fda" y="76.913471"/>
     <use style="fill:#0000ff;stroke:#0000ff;" x="275.210085" xlink:href="#mc51d758fda" y="72.328281"/>
     <use style="fill:#0000ff;stroke:#0000ff;" x="279.437358" xlink:href="#mc51d758fda" y="68.341601"/>
     <use style="fill:#0000ff;stroke:#0000ff;" x="283.664631" xlink:href="#mc51d758fda" y="64.994072"/>
     <use style="fill:#0000ff;stroke:#0000ff;" x="287.891903" xlink:href="#mc51d758fda" y="62.319821"/>
     <use style="fill:#0000ff;stroke:#0000ff;" x="292.119176" xlink:href="#mc51d758fda" y="60.34611"/>
     <use style="fill:#0000ff;stroke:#0000ff;" x="296.346449" xlink:href="#mc51d758fda" y="59.093059"/>
     <use style="fill:#0000ff;stroke:#0000ff;" x="300.573722" xlink:href="#mc51d758fda" y="58.573442"/>
     <use style="fill:#0000ff;stroke:#0000ff;" x="304.800994" xlink:href="#mc51d758fda" y="58.792557"/>
     <use style="fill:#0000ff;stroke:#0000ff;" x="309.028267" xlink:href="#mc51d758fda" y="59.74817"/>
     <use style="fill:#0000ff;stroke:#0000ff;" x="313.25554" xlink:href="#mc51d758fda" y="61.430539"/>
     <use style="fill:#0000ff;stroke:#0000ff;" x="317.482813" xlink:href="#mc51d758fda" y="63.822514"/>
     <use style="fill:#0000ff;stroke:#0000ff;" x="321.710085" xlink:href="#mc51d758fda" y="66.899709"/>
     <use style="fill:#0000ff;stroke:#0000ff;" x="325.937358" xlink:href="#mc51d758fda" y="70.630755"/>
     <use style="fill:#0000ff;stroke:#0000ff;" x="330.164631" xlink:href="#mc51d758fda" y="74.977616"/>
     <use style="fill:#0000ff;stroke:#0000ff;" x="334.391903" xlink:href="#mc51d758fda" y="79.895978"/>
     <use style="fill:#0000ff;stroke:#0000ff;" x="338.619176" xlink:href="#mc51d758fda" y="85.335702"/>
     <use style="fill:#0000ff;stroke:#0000ff;" x="342.846449" xlink:href="#mc51d758fda" y="91.241333"/>
     <use style="fill:#0000ff;stroke:#0000ff;" x="347.073722" xlink:href="#mc51d758fda" y="97.552668"/>
     <use style="fill:#0000ff;stroke:#0000ff;" x="351.300994" xlink:href="#mc51d758fda" y="104.205366"/>
     <use style="fill:#0000ff;stroke:#0000ff;" x="355.528267" xlink:href="#mc51d758fda" y="111.131606"/>
     <use style="fill:#0000ff;stroke:#0000ff;" x="359.75554" xlink:href="#mc51d758fda" y="118.260782"/>
     <use style="fill:#0000ff;stroke:#0000ff;" x="363.982813" xlink:href="#mc51d758fda" y="125.520214"/>
     <use style="fill:#0000ff;stroke:#0000ff;" x="368.210085" xlink:href="#mc51d758fda" y="132.835897"/>
     <use style="fill:#0000ff;stroke:#0000ff;" x="372.437358" xlink:href="#mc51d758fda" y="140.133254"/>
     <use style="fill:#0000ff;stroke:#0000ff;" x="376.664631" xlink:href="#mc51d758fda" y="147.337891"/>
     <use style="fill:#0000ff;stroke:#0000ff;" x="380.891903" xlink:href="#mc51d758fda" y="154.376363"/>
     <use style="fill:#0000ff;stroke:#0000ff;" x="385.119176" xlink:href="#mc51d758fda" y="161.176916"/>
     <use style="fill:#0000ff;stroke:#0000ff;" x="389.346449" xlink:href="#mc51d758fda" y="167.670223"/>
     <use style="fill:#0000ff;stroke:#0000ff;" x="393.573722" xlink:href="#mc51d758fda" y="173.790089"/>
     <use style="fill:#0000ff;stroke:#0000ff;" x="397.800994" xlink:href="#mc51d758fda" y="179.474126"/>
     <use style="fill:#0000ff;stroke:#0000ff;" x="402.028267" xlink:href="#mc51d758fda" y="184.664388"/>
     <use style="fill:#0000ff;stroke:#0000ff;" x="406.25554" xlink:href="#mc51d758fda" y="189.307964"/>
     <use style="fill:#0000ff;stroke:#0000ff;" x="410.482813" xlink:href="#mc51d758fda" y="193.357516"/>
     <use style="fill:#0000ff;stroke:#0000ff;" x="414.710085" xlink:href="#mc51d758fda" y="196.771762"/>
     <use style="fill:#0000ff;stroke:#0000ff;" x="418.937358" xlink:href="#mc51d758fda" y="199.515894"/>
     <use style="fill:#0000ff;stroke:#0000ff;" x="423.164631" xlink:href="#mc51d758fda" y="201.561939"/>
     <use style="fill:#0000ff;stroke:#0000ff;" x="427.391903" xlink:href="#mc51d758fda" y="202.889038"/>
     <use style="fill:#0000ff;stroke:#0000ff;" x="431.619176" xlink:href="#mc51d758fda" y="203.483663"/>
     <use style="fill:#0000ff;stroke:#0000ff;" x="435.846449" xlink:href="#mc51d758fda" y="203.339751"/>
     <use style="fill:#0000ff;stroke:#0000ff;" x="440.073722" xlink:href="#mc51d758fda" y="202.458769"/>
     <use style="fill:#0000ff;stroke:#0000ff;" x="444.300994" xlink:href="#mc51d758fda" y="200.8497"/>
     <use style="fill:#0000ff;stroke:#0000ff;" x="448.528267" xlink:href="#mc51d758fda" y="198.528945"/>
     <use style="fill:#0000ff;stroke:#0000ff;" x="452.75554" xlink:href="#mc51d758fda" y="195.520164"/>
     <use style="fill:#0000ff;stroke:#0000ff;" x="456.982813" xlink:href="#mc51d758fda" y="191.854029"/>
    </g>
   </g>
   <g id="patch_3">
    <path d="M 38.482813 239.758125 
L 38.482813 22.318125 
" style="fill:none;stroke:#000000;stroke-linecap:square;stroke-linejoin:miter;stroke-width:0.8;"/>
   </g>
   <g id="patch_4">
    <path d="M 373.282813 239.758125 
L 373.282813 22.318125 
" style="fill:none;stroke:#000000;stroke-linecap:square;stroke-linejoin:miter;stroke-width:0.8;"/>
   </g>
   <g id="patch_5">
    <path d="M 38.482813 239.758125 
L 373.282813 239.758125 
" style="fill:none;stroke:#000000;stroke-linecap:square;stroke-linejoin:miter;stroke-width:0.8;"/>
   </g>
   <g id="patch_6">
    <path d="M 38.482813 22.318125 
L 373.282813 22.318125 
" style="fill:none;stroke:#000000;stroke-linecap:square;stroke-linejoin:miter;stroke-width:0.8;"/>
   </g>
   <g id="text_16">
    <!-- multi function -->
    <defs>
     <path d="M 52 44.1875 
Q 55.375 50.25 60.0625 53.125 
Q 64.75 56 71.09375 56 
Q 79.640625 56 84.28125 50.015625 
Q 88.921875 44.046875 88.921875 33.015625 
L 88.921875 0 
L 79.890625 0 
L 79.890625 32.71875 
Q 79.890625 40.578125 77.09375 44.375 
Q 74.3125 48.1875 68.609375 48.1875 
Q 61.625 48.1875 57.5625 43.546875 
Q 53.515625 38.921875 53.515625 30.90625 
L 53.515625 0 
L 44.484375 0 
L 44.484375 32.71875 
Q 44.484375 40.625 41.703125 44.40625 
Q 38.921875 48.1875 33.109375 48.1875 
Q 26.21875 48.1875 22.15625 43.53125 
Q 18.109375 38.875 18.109375 30.90625 
L 18.109375 0 
L 9.078125 0 
L 9.078125 54.6875 
L 18.109375 54.6875 
L 18.109375 46.1875 
Q 21.1875 51.21875 25.484375 53.609375 
Q 29.78125 56 35.6875 56 
Q 41.65625 56 45.828125 52.96875 
Q 50 49.953125 52 44.1875 
z
" id="DejaVuSans-109"/>
     <path d="M 8.5 21.578125 
L 8.5 54.6875 
L 17.484375 54.6875 
L 17.484375 21.921875 
Q 17.484375 14.15625 20.5 10.265625 
Q 23.53125 6.390625 29.59375 6.390625 
Q 36.859375 6.390625 41.078125 11.03125 
Q 45.3125 15.671875 45.3125 23.6875 
L 45.3125 54.6875 
L 54.296875 54.6875 
L 54.296875 0 
L 45.3125 0 
L 45.3125 8.40625 
Q 42.046875 3.421875 37.71875 1 
Q 33.40625 -1.421875 27.6875 -1.421875 
Q 18.265625 -1.421875 13.375 4.4375 
Q 8.5 10.296875 8.5 21.578125 
z
M 31.109375 56 
z
" id="DejaVuSans-117"/>
     <path d="M 9.421875 75.984375 
L 18.40625 75.984375 
L 18.40625 0 
L 9.421875 0 
z
" id="DejaVuSans-108"/>
     <path d="M 18.3125 70.21875 
L 18.3125 54.6875 
L 36.8125 54.6875 
L 36.8125 47.703125 
L 18.3125 47.703125 
L 18.3125 18.015625 
Q 18.3125 11.328125 20.140625 9.421875 
Q 21.96875 7.515625 27.59375 7.515625 
L 36.8125 7.515625 
L 36.8125 0 
L 27.59375 0 
Q 17.1875 0 13.234375 3.875 
Q 9.28125 7.765625 9.28125 18.015625 
L 9.28125 47.703125 
L 2.6875 47.703125 
L 2.6875 54.6875 
L 9.28125 54.6875 
L 9.28125 70.21875 
z
" id="DejaVuSans-116"/>
     <path d="M 9.421875 54.6875 
L 18.40625 54.6875 
L 18.40625 0 
L 9.421875 0 
z
M 9.421875 75.984375 
L 18.40625 75.984375 
L 18.40625 64.59375 
L 9.421875 64.59375 
z
" id="DejaVuSans-105"/>
     <path id="DejaVuSans-32"/>
     <path d="M 37.109375 75.984375 
L 37.109375 68.5 
L 28.515625 68.5 
Q 23.6875 68.5 21.796875 66.546875 
Q 19.921875 64.59375 19.921875 59.515625 
L 19.921875 54.6875 
L 34.71875 54.6875 
L 34.71875 47.703125 
L 19.921875 47.703125 
L 19.921875 0 
L 10.890625 0 
L 10.890625 47.703125 
L 2.296875 47.703125 
L 2.296875 54.6875 
L 10.890625 54.6875 
L 10.890625 58.5 
Q 10.890625 67.625 15.140625 71.796875 
Q 19.390625 75.984375 28.609375 75.984375 
z
" id="DejaVuSans-102"/>
     <path d="M 54.890625 33.015625 
L 54.890625 0 
L 45.90625 0 
L 45.90625 32.71875 
Q 45.90625 40.484375 42.875 44.328125 
Q 39.84375 48.1875 33.796875 48.1875 
Q 26.515625 48.1875 22.3125 43.546875 
Q 18.109375 38.921875 18.109375 30.90625 
L 18.109375 0 
L 9.078125 0 
L 9.078125 54.6875 
L 18.109375 54.6875 
L 18.109375 46.1875 
Q 21.34375 51.125 25.703125 53.5625 
Q 30.078125 56 35.796875 56 
Q 45.21875 56 50.046875 50.171875 
Q 54.890625 44.34375 54.890625 33.015625 
z
" id="DejaVuSans-110"/>
     <path d="M 48.78125 52.59375 
L 48.78125 44.1875 
Q 44.96875 46.296875 41.140625 47.34375 
Q 37.3125 48.390625 33.40625 48.390625 
Q 24.65625 48.390625 19.8125 42.84375 
Q 14.984375 37.3125 14.984375 27.296875 
Q 14.984375 17.28125 19.8125 11.734375 
Q 24.65625 6.203125 33.40625 6.203125 
Q 37.3125 6.203125 41.140625 7.25 
Q 44.96875 8.296875 48.78125 10.40625 
L 48.78125 2.09375 
Q 45.015625 0.34375 40.984375 -0.53125 
Q 36.96875 -1.421875 32.421875 -1.421875 
Q 20.0625 -1.421875 12.78125 6.34375 
Q 5.515625 14.109375 5.515625 27.296875 
Q 5.515625 40.671875 12.859375 48.328125 
Q 20.21875 56 33.015625 56 
Q 37.15625 56 41.109375 55.140625 
Q 45.0625 54.296875 48.78125 52.59375 
z
" id="DejaVuSans-99"/>
     <path d="M 30.609375 48.390625 
Q 23.390625 48.390625 19.1875 42.75 
Q 14.984375 37.109375 14.984375 27.296875 
Q 14.984375 17.484375 19.15625 11.84375 
Q 23.34375 6.203125 30.609375 6.203125 
Q 37.796875 6.203125 41.984375 11.859375 
Q 46.1875 17.53125 46.1875 27.296875 
Q 46.1875 37.015625 41.984375 42.703125 
Q 37.796875 48.390625 30.609375 48.390625 
z
M 30.609375 56 
Q 42.328125 56 49.015625 48.375 
Q 55.71875 40.765625 55.71875 27.296875 
Q 55.71875 13.875 49.015625 6.21875 
Q 42.328125 -1.421875 30.609375 -1.421875 
Q 18.84375 -1.421875 12.171875 6.21875 
Q 5.515625 13.875 5.515625 27.296875 
Q 5.515625 40.765625 12.171875 48.375 
Q 18.84375 56 30.609375 56 
z
" id="DejaVuSans-111"/>
    </defs>
    <g transform="translate(164.134062 16.318125)scale(0.12 -0.12)">
     <use xlink:href="#DejaVuSans-109"/>
     <use x="97.412109" xlink:href="#DejaVuSans-117"/>
     <use x="160.791016" xlink:href="#DejaVuSans-108"/>
     <use x="188.574219" xlink:href="#DejaVuSans-116"/>
     <use x="227.783203" xlink:href="#DejaVuSans-105"/>
     <use x="255.566406" xlink:href="#DejaVuSans-32"/>
     <use x="287.353516" xlink:href="#DejaVuSans-102"/>
     <use x="322.558594" xlink:href="#DejaVuSans-117"/>
     <use x="385.9375" xlink:href="#DejaVuSans-110"/>
     <use x="449.316406" xlink:href="#DejaVuSans-99"/>
     <use x="504.296875" xlink:href="#DejaVuSans-116"/>
     <use x="543.505859" xlink:href="#DejaVuSans-105"/>
     <use x="571.289062" xlink:href="#DejaVuSans-111"/>
     <use x="632.470703" xlink:href="#DejaVuSans-110"/>
    </g>
   </g>
   <g id="legend_1">
    <g id="patch_7">
     <path d="M 45.482813 234.758125 
L 115.982812 234.758125 
Q 117.982812 234.758125 117.982812 232.758125 
L 117.982812 204.358125 
Q 117.982812 202.358125 115.982812 202.358125 
L 45.482813 202.358125 
Q 43.482813 202.358125 43.482813 204.358125 
L 43.482813 232.758125 
Q 43.482813 234.758125 45.482813 234.758125 
z
" style="fill:#ffffff;opacity:0.8;stroke:#cccccc;stroke-linejoin:miter;"/>
    </g>
    <g id="line2d_31"/>
    <g id="line2d_32">
     <g>
      <use style="fill:#ff0000;stroke:#ff0000;" x="57.482813" xlink:href="#mbcd774f64f" y="210.458125"/>
     </g>
    </g>
    <g id="text_17">
     <!-- $y = \sin x$ -->
     <defs>
      <path d="M 24.8125 -5.078125 
Q 18.5625 -15.578125 14.625 -18.1875 
Q 10.6875 -20.796875 4.59375 -20.796875 
L -2.484375 -20.796875 
L -0.984375 -13.28125 
L 4.203125 -13.28125 
Q 7.953125 -13.28125 10.59375 -11.234375 
Q 13.234375 -9.1875 16.5 -3.21875 
L 19.28125 2 
L 7.171875 54.6875 
L 16.703125 54.6875 
L 25.78125 12.796875 
L 50.875 54.6875 
L 60.296875 54.6875 
z
" id="DejaVuSans-Oblique-121"/>
      <path d="M 10.59375 45.40625 
L 73.1875 45.40625 
L 73.1875 37.203125 
L 10.59375 37.203125 
z
M 10.59375 25.484375 
L 73.1875 25.484375 
L 73.1875 17.1875 
L 10.59375 17.1875 
z
" id="DejaVuSans-61"/>
      <path d="M 44.28125 53.078125 
L 44.28125 44.578125 
Q 40.484375 46.53125 36.375 47.5 
Q 32.28125 48.484375 27.875 48.484375 
Q 21.1875 48.484375 17.84375 46.4375 
Q 14.5 44.390625 14.5 40.28125 
Q 14.5 37.15625 16.890625 35.375 
Q 19.28125 33.59375 26.515625 31.984375 
L 29.59375 31.296875 
Q 39.15625 29.25 43.1875 25.515625 
Q 47.21875 21.78125 47.21875 15.09375 
Q 47.21875 7.46875 41.1875 3.015625 
Q 35.15625 -1.421875 24.609375 -1.421875 
Q 20.21875 -1.421875 15.453125 -0.5625 
Q 10.6875 0.296875 5.421875 2 
L 5.421875 11.28125 
Q 10.40625 8.6875 15.234375 7.390625 
Q 20.0625 6.109375 24.8125 6.109375 
Q 31.15625 6.109375 34.5625 8.28125 
Q 37.984375 10.453125 37.984375 14.40625 
Q 37.984375 18.0625 35.515625 20.015625 
Q 33.0625 21.96875 24.703125 23.78125 
L 21.578125 24.515625 
Q 13.234375 26.265625 9.515625 29.90625 
Q 5.8125 33.546875 5.8125 39.890625 
Q 5.8125 47.609375 11.28125 51.796875 
Q 16.75 56 26.8125 56 
Q 31.78125 56 36.171875 55.265625 
Q 40.578125 54.546875 44.28125 53.078125 
z
" id="DejaVuSans-115"/>
     </defs>
     <g transform="translate(75.482812 213.958125)scale(0.1 -0.1)">
      <use transform="translate(0 0.015625)" xlink:href="#DejaVuSans-Oblique-121"/>
      <use transform="translate(78.662109 0.015625)" xlink:href="#DejaVuSans-61"/>
      <use transform="translate(181.933594 0.015625)" xlink:href="#DejaVuSans-115"/>
      <use transform="translate(234.033203 0.015625)" xlink:href="#DejaVuSans-105"/>
      <use transform="translate(261.816406 0.015625)" xlink:href="#DejaVuSans-110"/>
      <use transform="translate(325.195312 0.015625)" xlink:href="#DejaVuSans-Oblique-120"/>
     </g>
    </g>
    <g id="line2d_33"/>
    <g id="line2d_34">
     <g>
      <use style="fill:#0000ff;stroke:#0000ff;" x="57.482813" xlink:href="#mc51d758fda" y="225.158125"/>
     </g>
    </g>
    <g id="text_18">
     <!-- $y = \sin x$ -->
     <g transform="translate(75.482812 228.658125)scale(0.1 -0.1)">
      <use transform="translate(0 0.015625)" xlink:href="#DejaVuSans-Oblique-121"/>
      <use transform="translate(78.662109 0.015625)" xlink:href="#DejaVuSans-61"/>
      <use transform="translate(181.933594 0.015625)" xlink:href="#DejaVuSans-115"/>
      <use transform="translate(234.033203 0.015625)" xlink:href="#DejaVuSans-105"/>
      <use transform="translate(261.816406 0.015625)" xlink:href="#DejaVuSans-110"/>
      <use transform="translate(325.195312 0.015625)" xlink:href="#DejaVuSans-Oblique-120"/>
     </g>
    </g>
   </g>
  </g>
 </g>
 <defs>
  <clipPath id="pe2f14abf0d">
   <rect height="217.44" width="334.8" x="38.482813" y="22.318125"/>
  </clipPath>
 </defs>
</svg>
