<?xml version="1.0" encoding="utf-8" standalone="no"?>
<!DOCTYPE svg PUBLIC "-//W3C//DTD SVG 1.1//EN"
  "http://www.w3.org/Graphics/SVG/1.1/DTD/svg11.dtd">
<!-- Created with matplotlib (https://matplotlib.org/) -->
<svg height="259.8354pt" version="1.1" viewBox="0 0 806.997036 259.8354" width="806.997036pt" xmlns="http://www.w3.org/2000/svg" xmlns:xlink="http://www.w3.org/1999/xlink">
 <metadata>
  <rdf:RDF xmlns:cc="http://creativecommons.org/ns#" xmlns:dc="http://purl.org/dc/elements/1.1/" xmlns:rdf="http://www.w3.org/1999/02/22-rdf-syntax-ns#">
   <cc:Work>
    <dc:type rdf:resource="http://purl.org/dc/dcmitype/StillImage"/>
    <dc:date>2021-09-17T15:33:17.237760</dc:date>
    <dc:format>image/svg+xml</dc:format>
    <dc:creator>
     <cc:Agent>
      <dc:title>Matplotlib v3.3.2, https://matplotlib.org/</dc:title>
     </cc:Agent>
    </dc:creator>
   </cc:Work>
  </rdf:RDF>
 </metadata>
 <defs>
  <style type="text/css">*{stroke-linecap:butt;stroke-linejoin:round;}</style>
 </defs>
 <g id="figure_1">
  <g id="patch_1">
   <path d="M 0 259.8354 
L 806.997036 259.8354 
L 806.997036 0 
L 0 0 
z
" style="fill:#ffffff;"/>
  </g>
  <g id="axes_1">
   <g id="line2d_1">
    <path clip-path="url(#p0fa23c6f9f)" d="M 63.490836 43.5608 
L 795.251936 43.5608 
" style="fill:none;stroke:#000000;stroke-linecap:square;stroke-width:2;"/>
   </g>
   <g id="line2d_2">
    <path clip-path="url(#p0fa23c6f9f)" d="M 63.490836 89.0118 
L 795.251936 89.0118 
" style="fill:none;stroke:#000000;stroke-linecap:square;stroke-width:2;"/>
   </g>
   <g id="line2d_3">
    <path clip-path="url(#p0fa23c6f9f)" d="M 63.490836 134.4628 
L 795.251936 134.4628 
" style="fill:none;stroke:#000000;stroke-linecap:square;stroke-width:2;"/>
   </g>
   <g id="line2d_4">
    <path clip-path="url(#p0fa23c6f9f)" d="M 63.490836 179.9138 
L 795.251936 179.9138 
" style="fill:none;stroke:#000000;stroke-linecap:square;stroke-width:2;"/>
   </g>
   <g id="line2d_5">
    <path clip-path="url(#p0fa23c6f9f)" d="M 63.490836 223.887642 
L 795.251936 223.887642 
" style="fill:none;stroke:#778899;stroke-linecap:square;stroke-width:2;"/>
   </g>
   <g id="line2d_6">
    <path clip-path="url(#p0fa23c6f9f)" d="M 63.490836 226.841957 
L 795.251936 226.841957 
" style="fill:none;stroke:#778899;stroke-linecap:square;stroke-width:2;"/>
   </g>
   <g id="line2d_7">
    <path clip-path="url(#p0fa23c6f9f)" d="M 201.661876 179.9138 
L 201.661876 43.5608 
" style="fill:none;stroke:#bb8bff;stroke-linecap:square;stroke-width:2;"/>
   </g>
   <g id="line2d_8">
    <path clip-path="url(#p0fa23c6f9f)" d="M 292.563876 179.9138 
L 292.563876 89.0118 
" style="fill:none;stroke:#bb8bff;stroke-linecap:square;stroke-width:2;"/>
   </g>
   <g id="line2d_9">
    <path clip-path="url(#p0fa23c6f9f)" d="M 383.465876 179.9138 
L 383.465876 89.0118 
" style="fill:none;stroke:#bb8bff;stroke-linecap:square;stroke-width:2;"/>
   </g>
   <g id="line2d_10">
    <path clip-path="url(#p0fa23c6f9f)" d="M 474.367876 179.9138 
L 474.367876 134.4628 
" style="fill:none;stroke:#bb8bff;stroke-linecap:square;stroke-width:2;"/>
   </g>
   <g id="line2d_11">
    <path clip-path="url(#p0fa23c6f9f)" d="M 565.269876 179.9138 
L 565.269876 134.4628 
" style="fill:none;stroke:#bb8bff;stroke-linecap:square;stroke-width:2;"/>
   </g>
   <g id="line2d_12">
    <path clip-path="url(#p0fa23c6f9f)" d="M 656.171876 179.9138 
L 656.171876 134.4628 
" style="fill:none;stroke:#bb8bff;stroke-linecap:square;stroke-width:2;"/>
   </g>
   <g id="line2d_13">
    <path clip-path="url(#p0fa23c6f9f)" d="M 747.073876 179.9138 
L 747.073876 134.4628 
" style="fill:none;stroke:#bb8bff;stroke-linecap:square;stroke-width:2;"/>
   </g>
   <g id="line2d_14">
    <path clip-path="url(#p0fa23c6f9f)" d="M 72.581036 229.9099 
L 77.126136 220.8197 
" style="fill:none;stroke:#778899;stroke-linecap:square;stroke-width:1.5;"/>
   </g>
   <g id="patch_2">
    <path clip-path="url(#p0fa23c6f9f)" d="M 73.262801 194.685375 
L 102.805951 194.685375 
L 102.805951 165.142225 
L 73.262801 165.142225 
z
" style="fill:#05bab6;stroke:#05bab6;stroke-linejoin:miter;stroke-width:1.5;"/>
   </g>
   <g id="patch_3">
    <path clip-path="url(#p0fa23c6f9f)" d="M 73.262801 58.332375 
L 102.805951 58.332375 
L 102.805951 28.789225 
L 73.262801 28.789225 
z
" style="fill:#6fa4ff;stroke:#6fa4ff;stroke-linejoin:miter;stroke-width:1.5;"/>
   </g>
   <g id="patch_4">
    <path clip-path="url(#p0fa23c6f9f)" d="M 73.262801 103.783375 
L 102.805951 103.783375 
L 102.805951 74.240225 
L 73.262801 74.240225 
z
" style="fill:#6fa4ff;stroke:#6fa4ff;stroke-linejoin:miter;stroke-width:1.5;"/>
   </g>
   <g id="patch_5">
    <path clip-path="url(#p0fa23c6f9f)" d="M 73.262801 149.234375 
L 102.805951 149.234375 
L 102.805951 119.691225 
L 73.262801 119.691225 
z
" style="fill:#6fa4ff;stroke:#6fa4ff;stroke-linejoin:miter;stroke-width:1.5;"/>
   </g>
   <g id="patch_6">
    <path clip-path="url(#p0fa23c6f9f)" d="M 118.713801 194.685375 
L 148.256951 194.685375 
L 148.256951 165.142225 
L 118.713801 165.142225 
z
" style="fill:#05bab6;stroke:#05bab6;stroke-linejoin:miter;stroke-width:1.5;"/>
   </g>
   <g id="patch_7">
    <path clip-path="url(#p0fa23c6f9f)" d="M 201.661876 47.992272 
C 202.837116 47.992272 203.96438 47.525345 204.795401 46.694324 
C 205.626421 45.863304 206.093349 44.73604 206.093349 43.5608 
C 206.093349 42.38556 205.626421 41.258296 204.795401 40.427276 
C 203.96438 39.596255 202.837116 39.129327 201.661876 39.129327 
C 200.486636 39.129327 199.359372 39.596255 198.528352 40.427276 
C 197.697332 41.258296 197.230404 42.38556 197.230404 43.5608 
C 197.230404 44.73604 197.697332 45.863304 198.528352 46.694324 
C 199.359372 47.525345 200.486636 47.992272 201.661876 47.992272 
z
" style="fill:#bb8bff;stroke:#bb8bff;stroke-linejoin:miter;stroke-width:1.5;"/>
   </g>
   <g id="patch_8">
    <path clip-path="url(#p0fa23c6f9f)" d="M 201.661876 184.345272 
C 202.837116 184.345272 203.96438 183.878345 204.795401 183.047324 
C 205.626421 182.216304 206.093349 181.08904 206.093349 179.9138 
C 206.093349 178.73856 205.626421 177.611296 204.795401 176.780276 
C 203.96438 175.949255 202.837116 175.482327 201.661876 175.482327 
C 200.486636 175.482327 199.359372 175.949255 198.528352 176.780276 
C 197.697332 177.611296 197.230404 178.73856 197.230404 179.9138 
C 197.230404 181.08904 197.697332 182.216304 198.528352 183.047324 
C 199.359372 183.878345 200.486636 184.345272 201.661876 184.345272 
z
" style="fill:#bb8bff;stroke:#bb8bff;stroke-linejoin:miter;stroke-width:1.5;"/>
   </g>
   <g id="patch_9">
    <path clip-path="url(#p0fa23c6f9f)" d="M 292.563876 93.443272 
C 293.739116 93.443272 294.86638 92.976345 295.697401 92.145324 
C 296.528421 91.314304 296.995349 90.18704 296.995349 89.0118 
C 296.995349 87.83656 296.528421 86.709296 295.697401 85.878276 
C 294.86638 85.047255 293.739116 84.580327 292.563876 84.580327 
C 291.388636 84.580327 290.261372 85.047255 289.430352 85.878276 
C 288.599332 86.709296 288.132404 87.83656 288.132404 89.0118 
C 288.132404 90.18704 288.599332 91.314304 289.430352 92.145324 
C 290.261372 92.976345 291.388636 93.443272 292.563876 93.443272 
z
" style="fill:#bb8bff;stroke:#bb8bff;stroke-linejoin:miter;stroke-width:1.5;"/>
   </g>
   <g id="patch_10">
    <path clip-path="url(#p0fa23c6f9f)" d="M 292.563876 184.345272 
C 293.739116 184.345272 294.86638 183.878345 295.697401 183.047324 
C 296.528421 182.216304 296.995349 181.08904 296.995349 179.9138 
C 296.995349 178.73856 296.528421 177.611296 295.697401 176.780276 
C 294.86638 175.949255 293.739116 175.482327 292.563876 175.482327 
C 291.388636 175.482327 290.261372 175.949255 289.430352 176.780276 
C 288.599332 177.611296 288.132404 178.73856 288.132404 179.9138 
C 288.132404 181.08904 288.599332 182.216304 289.430352 183.047324 
C 290.261372 183.878345 291.388636 184.345272 292.563876 184.345272 
z
" style="fill:#bb8bff;stroke:#bb8bff;stroke-linejoin:miter;stroke-width:1.5;"/>
   </g>
   <g id="patch_11">
    <path clip-path="url(#p0fa23c6f9f)" d="M 383.465876 93.443272 
C 384.641116 93.443272 385.76838 92.976345 386.599401 92.145324 
C 387.430421 91.314304 387.897349 90.18704 387.897349 89.0118 
C 387.897349 87.83656 387.430421 86.709296 386.599401 85.878276 
C 385.76838 85.047255 384.641116 84.580327 383.465876 84.580327 
C 382.290636 84.580327 381.163372 85.047255 380.332352 85.878276 
C 379.501332 86.709296 379.034404 87.83656 379.034404 89.0118 
C 379.034404 90.18704 379.501332 91.314304 380.332352 92.145324 
C 381.163372 92.976345 382.290636 93.443272 383.465876 93.443272 
z
" style="fill:#bb8bff;stroke:#bb8bff;stroke-linejoin:miter;stroke-width:1.5;"/>
   </g>
   <g id="patch_12">
    <path clip-path="url(#p0fa23c6f9f)" d="M 383.465876 184.345272 
C 384.641116 184.345272 385.76838 183.878345 386.599401 183.047324 
C 387.430421 182.216304 387.897349 181.08904 387.897349 179.9138 
C 387.897349 178.73856 387.430421 177.611296 386.599401 176.780276 
C 385.76838 175.949255 384.641116 175.482327 383.465876 175.482327 
C 382.290636 175.482327 381.163372 175.949255 380.332352 176.780276 
C 379.501332 177.611296 379.034404 178.73856 379.034404 179.9138 
C 379.034404 181.08904 379.501332 182.216304 380.332352 183.047324 
C 381.163372 183.878345 382.290636 184.345272 383.465876 184.345272 
z
" style="fill:#bb8bff;stroke:#bb8bff;stroke-linejoin:miter;stroke-width:1.5;"/>
   </g>
   <g id="patch_13">
    <path clip-path="url(#p0fa23c6f9f)" d="M 474.367876 138.894272 
C 475.543116 138.894272 476.67038 138.427345 477.501401 137.596324 
C 478.332421 136.765304 478.799349 135.63804 478.799349 134.4628 
C 478.799349 133.28756 478.332421 132.160296 477.501401 131.329276 
C 476.67038 130.498255 475.543116 130.031327 474.367876 130.031327 
C 473.192636 130.031327 472.065372 130.498255 471.234352 131.329276 
C 470.403332 132.160296 469.936404 133.28756 469.936404 134.4628 
C 469.936404 135.63804 470.403332 136.765304 471.234352 137.596324 
C 472.065372 138.427345 473.192636 138.894272 474.367876 138.894272 
z
" style="fill:#bb8bff;stroke:#bb8bff;stroke-linejoin:miter;stroke-width:1.5;"/>
   </g>
   <g id="patch_14">
    <path clip-path="url(#p0fa23c6f9f)" d="M 474.367876 184.345272 
C 475.543116 184.345272 476.67038 183.878345 477.501401 183.047324 
C 478.332421 182.216304 478.799349 181.08904 478.799349 179.9138 
C 478.799349 178.73856 478.332421 177.611296 477.501401 176.780276 
C 476.67038 175.949255 475.543116 175.482327 474.367876 175.482327 
C 473.192636 175.482327 472.065372 175.949255 471.234352 176.780276 
C 470.403332 177.611296 469.936404 178.73856 469.936404 179.9138 
C 469.936404 181.08904 470.403332 182.216304 471.234352 183.047324 
C 472.065372 183.878345 473.192636 184.345272 474.367876 184.345272 
z
" style="fill:#bb8bff;stroke:#bb8bff;stroke-linejoin:miter;stroke-width:1.5;"/>
   </g>
   <g id="patch_15">
    <path clip-path="url(#p0fa23c6f9f)" d="M 565.269876 138.894272 
C 566.445116 138.894272 567.57238 138.427345 568.403401 137.596324 
C 569.234421 136.765304 569.701349 135.63804 569.701349 134.4628 
C 569.701349 133.28756 569.234421 132.160296 568.403401 131.329276 
C 567.57238 130.498255 566.445116 130.031327 565.269876 130.031327 
C 564.094636 130.031327 562.967372 130.498255 562.136352 131.329276 
C 561.305332 132.160296 560.838404 133.28756 560.838404 134.4628 
C 560.838404 135.63804 561.305332 136.765304 562.136352 137.596324 
C 562.967372 138.427345 564.094636 138.894272 565.269876 138.894272 
z
" style="fill:#bb8bff;stroke:#bb8bff;stroke-linejoin:miter;stroke-width:1.5;"/>
   </g>
   <g id="patch_16">
    <path clip-path="url(#p0fa23c6f9f)" d="M 565.269876 184.345272 
C 566.445116 184.345272 567.57238 183.878345 568.403401 183.047324 
C 569.234421 182.216304 569.701349 181.08904 569.701349 179.9138 
C 569.701349 178.73856 569.234421 177.611296 568.403401 176.780276 
C 567.57238 175.949255 566.445116 175.482327 565.269876 175.482327 
C 564.094636 175.482327 562.967372 175.949255 562.136352 176.780276 
C 561.305332 177.611296 560.838404 178.73856 560.838404 179.9138 
C 560.838404 181.08904 561.305332 182.216304 562.136352 183.047324 
C 562.967372 183.878345 564.094636 184.345272 565.269876 184.345272 
z
" style="fill:#bb8bff;stroke:#bb8bff;stroke-linejoin:miter;stroke-width:1.5;"/>
   </g>
   <g id="patch_17">
    <path clip-path="url(#p0fa23c6f9f)" d="M 656.171876 138.894272 
C 657.347116 138.894272 658.47438 138.427345 659.305401 137.596324 
C 660.136421 136.765304 660.603349 135.63804 660.603349 134.4628 
C 660.603349 133.28756 660.136421 132.160296 659.305401 131.329276 
C 658.47438 130.498255 657.347116 130.031327 656.171876 130.031327 
C 654.996636 130.031327 653.869372 130.498255 653.038352 131.329276 
C 652.207332 132.160296 651.740404 133.28756 651.740404 134.4628 
C 651.740404 135.63804 652.207332 136.765304 653.038352 137.596324 
C 653.869372 138.427345 654.996636 138.894272 656.171876 138.894272 
z
" style="fill:#bb8bff;stroke:#bb8bff;stroke-linejoin:miter;stroke-width:1.5;"/>
   </g>
   <g id="patch_18">
    <path clip-path="url(#p0fa23c6f9f)" d="M 656.171876 184.345272 
C 657.347116 184.345272 658.47438 183.878345 659.305401 183.047324 
C 660.136421 182.216304 660.603349 181.08904 660.603349 179.9138 
C 660.603349 178.73856 660.136421 177.611296 659.305401 176.780276 
C 658.47438 175.949255 657.347116 175.482327 656.171876 175.482327 
C 654.996636 175.482327 653.869372 175.949255 653.038352 176.780276 
C 652.207332 177.611296 651.740404 178.73856 651.740404 179.9138 
C 651.740404 181.08904 652.207332 182.216304 653.038352 183.047324 
C 653.869372 183.878345 654.996636 184.345272 656.171876 184.345272 
z
" style="fill:#bb8bff;stroke:#bb8bff;stroke-linejoin:miter;stroke-width:1.5;"/>
   </g>
   <g id="patch_19">
    <path clip-path="url(#p0fa23c6f9f)" d="M 747.073876 138.894272 
C 748.249116 138.894272 749.37638 138.427345 750.207401 137.596324 
C 751.038421 136.765304 751.505349 135.63804 751.505349 134.4628 
C 751.505349 133.28756 751.038421 132.160296 750.207401 131.329276 
C 749.37638 130.498255 748.249116 130.031327 747.073876 130.031327 
C 745.898636 130.031327 744.771372 130.498255 743.940352 131.329276 
C 743.109332 132.160296 742.642404 133.28756 742.642404 134.4628 
C 742.642404 135.63804 743.109332 136.765304 743.940352 137.596324 
C 744.771372 138.427345 745.898636 138.894272 747.073876 138.894272 
z
" style="fill:#bb8bff;stroke:#bb8bff;stroke-linejoin:miter;stroke-width:1.5;"/>
   </g>
   <g id="patch_20">
    <path clip-path="url(#p0fa23c6f9f)" d="M 747.073876 184.345272 
C 748.249116 184.345272 749.37638 183.878345 750.207401 183.047324 
C 751.038421 182.216304 751.505349 181.08904 751.505349 179.9138 
C 751.505349 178.73856 751.038421 177.611296 750.207401 176.780276 
C 749.37638 175.949255 748.249116 175.482327 747.073876 175.482327 
C 745.898636 175.482327 744.771372 175.949255 743.940352 176.780276 
C 743.109332 177.611296 742.642404 178.73856 742.642404 179.9138 
C 742.642404 181.08904 743.109332 182.216304 743.940352 183.047324 
C 744.771372 183.878345 745.898636 184.345272 747.073876 184.345272 
z
" style="fill:#bb8bff;stroke:#bb8bff;stroke-linejoin:miter;stroke-width:1.5;"/>
   </g>
   <g id="text_1">
    <g clip-path="url(#p0fa23c6f9f)">
     <!-- X -->
     <g transform="translate(83.581876 183.500987)scale(0.13 -0.13)">
      <defs>
       <path d="M 6.296875 72.90625 
L 16.890625 72.90625 
L 35.015625 45.796875 
L 53.21875 72.90625 
L 63.8125 72.90625 
L 40.375 37.890625 
L 65.375 0 
L 54.78125 0 
L 34.28125 31 
L 13.625 0 
L 2.984375 0 
L 29 38.921875 
z
" id="DejaVuSans-88"/>
      </defs>
      <use xlink:href="#DejaVuSans-88"/>
     </g>
    </g>
   </g>
   <g id="text_2">
    <g clip-path="url(#p0fa23c6f9f)">
     <!-- H -->
     <g transform="translate(83.146173 47.147987)scale(0.13 -0.13)">
      <defs>
       <path d="M 9.8125 72.90625 
L 19.671875 72.90625 
L 19.671875 43.015625 
L 55.515625 43.015625 
L 55.515625 72.90625 
L 65.375 72.90625 
L 65.375 0 
L 55.515625 0 
L 55.515625 34.71875 
L 19.671875 34.71875 
L 19.671875 0 
L 9.8125 0 
z
" id="DejaVuSans-72"/>
      </defs>
      <use xlink:href="#DejaVuSans-72"/>
     </g>
    </g>
   </g>
   <g id="text_3">
    <g clip-path="url(#p0fa23c6f9f)">
     <!-- H -->
     <g transform="translate(83.146173 92.598987)scale(0.13 -0.13)">
      <use xlink:href="#DejaVuSans-72"/>
     </g>
    </g>
   </g>
   <g id="text_4">
    <g clip-path="url(#p0fa23c6f9f)">
     <!-- H -->
     <g transform="translate(83.146173 138.049987)scale(0.13 -0.13)">
      <use xlink:href="#DejaVuSans-72"/>
     </g>
    </g>
   </g>
   <g id="text_5">
    <g clip-path="url(#p0fa23c6f9f)">
     <!-- X -->
     <g transform="translate(129.032876 183.500987)scale(0.13 -0.13)">
      <use xlink:href="#DejaVuSans-88"/>
     </g>
    </g>
   </g>
   <g id="text_6">
    <g clip-path="url(#p0fa23c6f9f)">
     <!-- P ($\pi$/4) -->
     <g transform="translate(207.176786 156.4494)scale(0.08 -0.08)">
      <defs>
       <path d="M 19.671875 64.796875 
L 19.671875 37.40625 
L 32.078125 37.40625 
Q 38.96875 37.40625 42.71875 40.96875 
Q 46.484375 44.53125 46.484375 51.125 
Q 46.484375 57.671875 42.71875 61.234375 
Q 38.96875 64.796875 32.078125 64.796875 
z
M 9.8125 72.90625 
L 32.078125 72.90625 
Q 44.34375 72.90625 50.609375 67.359375 
Q 56.890625 61.8125 56.890625 51.125 
Q 56.890625 40.328125 50.609375 34.8125 
Q 44.34375 29.296875 32.078125 29.296875 
L 19.671875 29.296875 
L 19.671875 0 
L 9.8125 0 
z
" id="DejaVuSans-80"/>
       <path id="DejaVuSans-32"/>
       <path d="M 31 75.875 
Q 24.46875 64.65625 21.28125 53.65625 
Q 18.109375 42.671875 18.109375 31.390625 
Q 18.109375 20.125 21.3125 9.0625 
Q 24.515625 -2 31 -13.1875 
L 23.1875 -13.1875 
Q 15.875 -1.703125 12.234375 9.375 
Q 8.59375 20.453125 8.59375 31.390625 
Q 8.59375 42.28125 12.203125 53.3125 
Q 15.828125 64.359375 23.1875 75.875 
z
" id="DejaVuSans-40"/>
       <path d="M 9.125 54.6875 
L 61.53125 54.6875 
L 59.765625 45.703125 
L 52.875 45.703125 
L 46.34375 12.109375 
Q 45.65625 8.59375 46.578125 7.03125 
Q 47.46875 5.515625 50.140625 5.515625 
Q 50.875 5.515625 51.953125 5.671875 
Q 53.078125 5.765625 53.421875 5.8125 
L 52.15625 -0.6875 
Q 50.34375 -1.3125 48.484375 -1.609375 
Q 46.578125 -1.90625 44.78125 -1.90625 
Q 38.921875 -1.90625 37.3125 1.265625 
Q 35.6875 4.5 37.359375 13.09375 
L 43.703125 45.703125 
L 23.53125 45.703125 
L 14.65625 0 
L 5.46875 0 
L 14.359375 45.703125 
L 7.375 45.703125 
z
" id="DejaVuSans-Oblique-960"/>
       <path d="M 25.390625 72.90625 
L 33.6875 72.90625 
L 8.296875 -9.28125 
L 0 -9.28125 
z
" id="DejaVuSans-47"/>
       <path d="M 37.796875 64.3125 
L 12.890625 25.390625 
L 37.796875 25.390625 
z
M 35.203125 72.90625 
L 47.609375 72.90625 
L 47.609375 25.390625 
L 58.015625 25.390625 
L 58.015625 17.1875 
L 47.609375 17.1875 
L 47.609375 0 
L 37.796875 0 
L 37.796875 17.1875 
L 4.890625 17.1875 
L 4.890625 26.703125 
z
" id="DejaVuSans-52"/>
       <path d="M 8.015625 75.875 
L 15.828125 75.875 
Q 23.140625 64.359375 26.78125 53.3125 
Q 30.421875 42.28125 30.421875 31.390625 
Q 30.421875 20.453125 26.78125 9.375 
Q 23.140625 -1.703125 15.828125 -13.1875 
L 8.015625 -13.1875 
Q 14.5 -2 17.703125 9.0625 
Q 20.90625 20.125 20.90625 31.390625 
Q 20.90625 42.671875 17.703125 53.65625 
Q 14.5 64.65625 8.015625 75.875 
z
" id="DejaVuSans-41"/>
      </defs>
      <use transform="translate(0 0.125)" xlink:href="#DejaVuSans-80"/>
      <use transform="translate(60.302734 0.125)" xlink:href="#DejaVuSans-32"/>
      <use transform="translate(92.089844 0.125)" xlink:href="#DejaVuSans-40"/>
      <use transform="translate(131.103516 0.125)" xlink:href="#DejaVuSans-Oblique-960"/>
      <use transform="translate(191.308594 0.125)" xlink:href="#DejaVuSans-47"/>
      <use transform="translate(225 0.125)" xlink:href="#DejaVuSans-52"/>
      <use transform="translate(288.623047 0.125)" xlink:href="#DejaVuSans-41"/>
     </g>
    </g>
   </g>
   <g id="text_7">
    <g clip-path="url(#p0fa23c6f9f)">
     <!-- P ($\pi$/4) -->
     <g transform="translate(298.078786 156.4494)scale(0.08 -0.08)">
      <use transform="translate(0 0.125)" xlink:href="#DejaVuSans-80"/>
      <use transform="translate(60.302734 0.125)" xlink:href="#DejaVuSans-32"/>
      <use transform="translate(92.089844 0.125)" xlink:href="#DejaVuSans-40"/>
      <use transform="translate(131.103516 0.125)" xlink:href="#DejaVuSans-Oblique-960"/>
      <use transform="translate(191.308594 0.125)" xlink:href="#DejaVuSans-47"/>
      <use transform="translate(225 0.125)" xlink:href="#DejaVuSans-52"/>
      <use transform="translate(288.623047 0.125)" xlink:href="#DejaVuSans-41"/>
     </g>
    </g>
   </g>
   <g id="text_8">
    <g clip-path="url(#p0fa23c6f9f)">
     <!-- P ($\pi$/4) -->
     <g transform="translate(388.980786 156.4494)scale(0.08 -0.08)">
      <use transform="translate(0 0.125)" xlink:href="#DejaVuSans-80"/>
      <use transform="translate(60.302734 0.125)" xlink:href="#DejaVuSans-32"/>
      <use transform="translate(92.089844 0.125)" xlink:href="#DejaVuSans-40"/>
      <use transform="translate(131.103516 0.125)" xlink:href="#DejaVuSans-Oblique-960"/>
      <use transform="translate(191.308594 0.125)" xlink:href="#DejaVuSans-47"/>
      <use transform="translate(225 0.125)" xlink:href="#DejaVuSans-52"/>
      <use transform="translate(288.623047 0.125)" xlink:href="#DejaVuSans-41"/>
     </g>
    </g>
   </g>
   <g id="text_9">
    <g clip-path="url(#p0fa23c6f9f)">
     <!-- P ($\pi$/4) -->
     <g transform="translate(479.882786 156.4494)scale(0.08 -0.08)">
      <use transform="translate(0 0.125)" xlink:href="#DejaVuSans-80"/>
      <use transform="translate(60.302734 0.125)" xlink:href="#DejaVuSans-32"/>
      <use transform="translate(92.089844 0.125)" xlink:href="#DejaVuSans-40"/>
      <use transform="translate(131.103516 0.125)" xlink:href="#DejaVuSans-Oblique-960"/>
      <use transform="translate(191.308594 0.125)" xlink:href="#DejaVuSans-47"/>
      <use transform="translate(225 0.125)" xlink:href="#DejaVuSans-52"/>
      <use transform="translate(288.623047 0.125)" xlink:href="#DejaVuSans-41"/>
     </g>
    </g>
   </g>
   <g id="text_10">
    <g clip-path="url(#p0fa23c6f9f)">
     <!-- P ($\pi$/4) -->
     <g transform="translate(570.784786 156.4494)scale(0.08 -0.08)">
      <use transform="translate(0 0.125)" xlink:href="#DejaVuSans-80"/>
      <use transform="translate(60.302734 0.125)" xlink:href="#DejaVuSans-32"/>
      <use transform="translate(92.089844 0.125)" xlink:href="#DejaVuSans-40"/>
      <use transform="translate(131.103516 0.125)" xlink:href="#DejaVuSans-Oblique-960"/>
      <use transform="translate(191.308594 0.125)" xlink:href="#DejaVuSans-47"/>
      <use transform="translate(225 0.125)" xlink:href="#DejaVuSans-52"/>
      <use transform="translate(288.623047 0.125)" xlink:href="#DejaVuSans-41"/>
     </g>
    </g>
   </g>
   <g id="text_11">
    <g clip-path="url(#p0fa23c6f9f)">
     <!-- P ($\pi$/4) -->
     <g transform="translate(661.686786 156.4494)scale(0.08 -0.08)">
      <use transform="translate(0 0.125)" xlink:href="#DejaVuSans-80"/>
      <use transform="translate(60.302734 0.125)" xlink:href="#DejaVuSans-32"/>
      <use transform="translate(92.089844 0.125)" xlink:href="#DejaVuSans-40"/>
      <use transform="translate(131.103516 0.125)" xlink:href="#DejaVuSans-Oblique-960"/>
      <use transform="translate(191.308594 0.125)" xlink:href="#DejaVuSans-47"/>
      <use transform="translate(225 0.125)" xlink:href="#DejaVuSans-52"/>
      <use transform="translate(288.623047 0.125)" xlink:href="#DejaVuSans-41"/>
     </g>
    </g>
   </g>
   <g id="text_12">
    <g clip-path="url(#p0fa23c6f9f)">
     <!-- P ($\pi$/4) -->
     <g transform="translate(752.588786 156.4494)scale(0.08 -0.08)">
      <use transform="translate(0 0.125)" xlink:href="#DejaVuSans-80"/>
      <use transform="translate(60.302734 0.125)" xlink:href="#DejaVuSans-32"/>
      <use transform="translate(92.089844 0.125)" xlink:href="#DejaVuSans-40"/>
      <use transform="translate(131.103516 0.125)" xlink:href="#DejaVuSans-Oblique-960"/>
      <use transform="translate(191.308594 0.125)" xlink:href="#DejaVuSans-47"/>
      <use transform="translate(225 0.125)" xlink:href="#DejaVuSans-52"/>
      <use transform="translate(288.623047 0.125)" xlink:href="#DejaVuSans-41"/>
     </g>
    </g>
   </g>
   <g id="text_13">
    <g clip-path="url(#p0fa23c6f9f)">
     <!-- ${q}_{0}$ -->
     <g transform="translate(36.363136 48.011777)scale(0.1625 -0.1625)">
      <defs>
       <path d="M 41.703125 8.203125 
Q 38.09375 3.46875 33.171875 1.015625 
Q 28.265625 -1.421875 22.3125 -1.421875 
Q 14.015625 -1.421875 9.296875 4.171875 
Q 4.59375 9.765625 4.59375 19.578125 
Q 4.59375 27.484375 7.5 34.859375 
Q 10.40625 42.234375 15.828125 48.09375 
Q 19.34375 51.90625 23.90625 53.953125 
Q 28.46875 56 33.5 56 
Q 39.546875 56 43.453125 53.609375 
Q 47.359375 51.21875 49.125 46.390625 
L 50.6875 54.59375 
L 59.71875 54.59375 
L 45.125 -20.609375 
L 36.078125 -20.609375 
z
M 13.921875 20.90625 
Q 13.921875 13.671875 16.9375 9.890625 
Q 19.96875 6.109375 25.6875 6.109375 
Q 34.1875 6.109375 40.1875 14.234375 
Q 46.1875 22.359375 46.1875 33.984375 
Q 46.1875 41.015625 43.078125 44.75 
Q 39.984375 48.484375 34.1875 48.484375 
Q 29.9375 48.484375 26.3125 46.5 
Q 22.703125 44.53125 20.015625 40.71875 
Q 17.1875 36.71875 15.546875 31.34375 
Q 13.921875 25.984375 13.921875 20.90625 
z
" id="DejaVuSans-Oblique-113"/>
       <path d="M 31.78125 66.40625 
Q 24.171875 66.40625 20.328125 58.90625 
Q 16.5 51.421875 16.5 36.375 
Q 16.5 21.390625 20.328125 13.890625 
Q 24.171875 6.390625 31.78125 6.390625 
Q 39.453125 6.390625 43.28125 13.890625 
Q 47.125 21.390625 47.125 36.375 
Q 47.125 51.421875 43.28125 58.90625 
Q 39.453125 66.40625 31.78125 66.40625 
z
M 31.78125 74.21875 
Q 44.046875 74.21875 50.515625 64.515625 
Q 56.984375 54.828125 56.984375 36.375 
Q 56.984375 17.96875 50.515625 8.265625 
Q 44.046875 -1.421875 31.78125 -1.421875 
Q 19.53125 -1.421875 13.0625 8.265625 
Q 6.59375 17.96875 6.59375 36.375 
Q 6.59375 54.828125 13.0625 64.515625 
Q 19.53125 74.21875 31.78125 74.21875 
z
" id="DejaVuSans-48"/>
      </defs>
      <use xlink:href="#DejaVuSans-Oblique-113"/>
      <use transform="translate(63.476562 -16.40625)scale(0.7)" xlink:href="#DejaVuSans-48"/>
     </g>
    </g>
   </g>
   <g id="text_14">
    <g clip-path="url(#p0fa23c6f9f)">
     <!-- ${q}_{1}$ -->
     <g transform="translate(36.363136 93.462777)scale(0.1625 -0.1625)">
      <defs>
       <path d="M 12.40625 8.296875 
L 28.515625 8.296875 
L 28.515625 63.921875 
L 10.984375 60.40625 
L 10.984375 69.390625 
L 28.421875 72.90625 
L 38.28125 72.90625 
L 38.28125 8.296875 
L 54.390625 8.296875 
L 54.390625 0 
L 12.40625 0 
z
" id="DejaVuSans-49"/>
      </defs>
      <use xlink:href="#DejaVuSans-Oblique-113"/>
      <use transform="translate(63.476562 -16.40625)scale(0.7)" xlink:href="#DejaVuSans-49"/>
     </g>
    </g>
   </g>
   <g id="text_15">
    <g clip-path="url(#p0fa23c6f9f)">
     <!-- ${q}_{2}$ -->
     <g transform="translate(36.363136 138.913777)scale(0.1625 -0.1625)">
      <defs>
       <path d="M 19.1875 8.296875 
L 53.609375 8.296875 
L 53.609375 0 
L 7.328125 0 
L 7.328125 8.296875 
Q 12.9375 14.109375 22.625 23.890625 
Q 32.328125 33.6875 34.8125 36.53125 
Q 39.546875 41.84375 41.421875 45.53125 
Q 43.3125 49.21875 43.3125 52.78125 
Q 43.3125 58.59375 39.234375 62.25 
Q 35.15625 65.921875 28.609375 65.921875 
Q 23.96875 65.921875 18.8125 64.3125 
Q 13.671875 62.703125 7.8125 59.421875 
L 7.8125 69.390625 
Q 13.765625 71.78125 18.9375 73 
Q 24.125 74.21875 28.421875 74.21875 
Q 39.75 74.21875 46.484375 68.546875 
Q 53.21875 62.890625 53.21875 53.421875 
Q 53.21875 48.921875 51.53125 44.890625 
Q 49.859375 40.875 45.40625 35.40625 
Q 44.1875 33.984375 37.640625 27.21875 
Q 31.109375 20.453125 19.1875 8.296875 
z
" id="DejaVuSans-50"/>
      </defs>
      <use xlink:href="#DejaVuSans-Oblique-113"/>
      <use transform="translate(63.476562 -16.40625)scale(0.7)" xlink:href="#DejaVuSans-50"/>
     </g>
    </g>
   </g>
   <g id="text_16">
    <g clip-path="url(#p0fa23c6f9f)">
     <!-- ${q}_{3}$ -->
     <g transform="translate(36.363136 184.364777)scale(0.1625 -0.1625)">
      <defs>
       <path d="M 40.578125 39.3125 
Q 47.65625 37.796875 51.625 33 
Q 55.609375 28.21875 55.609375 21.1875 
Q 55.609375 10.40625 48.1875 4.484375 
Q 40.765625 -1.421875 27.09375 -1.421875 
Q 22.515625 -1.421875 17.65625 -0.515625 
Q 12.796875 0.390625 7.625 2.203125 
L 7.625 11.71875 
Q 11.71875 9.328125 16.59375 8.109375 
Q 21.484375 6.890625 26.8125 6.890625 
Q 36.078125 6.890625 40.9375 10.546875 
Q 45.796875 14.203125 45.796875 21.1875 
Q 45.796875 27.640625 41.28125 31.265625 
Q 36.765625 34.90625 28.71875 34.90625 
L 20.21875 34.90625 
L 20.21875 43.015625 
L 29.109375 43.015625 
Q 36.375 43.015625 40.234375 45.921875 
Q 44.09375 48.828125 44.09375 54.296875 
Q 44.09375 59.90625 40.109375 62.90625 
Q 36.140625 65.921875 28.71875 65.921875 
Q 24.65625 65.921875 20.015625 65.03125 
Q 15.375 64.15625 9.8125 62.3125 
L 9.8125 71.09375 
Q 15.4375 72.65625 20.34375 73.4375 
Q 25.25 74.21875 29.59375 74.21875 
Q 40.828125 74.21875 47.359375 69.109375 
Q 53.90625 64.015625 53.90625 55.328125 
Q 53.90625 49.265625 50.4375 45.09375 
Q 46.96875 40.921875 40.578125 39.3125 
z
" id="DejaVuSans-51"/>
      </defs>
      <use xlink:href="#DejaVuSans-Oblique-113"/>
      <use transform="translate(63.476562 -16.40625)scale(0.7)" xlink:href="#DejaVuSans-51"/>
     </g>
    </g>
   </g>
   <g id="text_17">
    <g clip-path="url(#p0fa23c6f9f)">
     <!-- 3 -->
     <g transform="translate(68.035936 218.656825)scale(0.104 -0.104)">
      <use xlink:href="#DejaVuSans-51"/>
     </g>
    </g>
   </g>
   <g id="text_18">
    <g clip-path="url(#p0fa23c6f9f)">
     <!-- c -->
     <g transform="translate(45.465675 229.848784)scale(0.1625 -0.1625)">
      <defs>
       <path d="M 48.78125 52.59375 
L 48.78125 44.1875 
Q 44.96875 46.296875 41.140625 47.34375 
Q 37.3125 48.390625 33.40625 48.390625 
Q 24.65625 48.390625 19.8125 42.84375 
Q 14.984375 37.3125 14.984375 27.296875 
Q 14.984375 17.28125 19.8125 11.734375 
Q 24.65625 6.203125 33.40625 6.203125 
Q 37.3125 6.203125 41.140625 7.25 
Q 44.96875 8.296875 48.78125 10.40625 
L 48.78125 2.09375 
Q 45.015625 0.34375 40.984375 -0.53125 
Q 36.96875 -1.421875 32.421875 -1.421875 
Q 20.0625 -1.421875 12.78125 6.34375 
Q 5.515625 14.109375 5.515625 27.296875 
Q 5.515625 40.671875 12.859375 48.328125 
Q 20.21875 56 33.015625 56 
Q 37.15625 56 41.109375 55.140625 
Q 45.0625 54.296875 48.78125 52.59375 
z
" id="DejaVuSans-99"/>
      </defs>
      <use xlink:href="#DejaVuSans-99"/>
     </g>
    </g>
   </g>
  </g>
 </g>
 <defs>
  <clipPath id="p0fa23c6f9f">
   <rect height="245.4354" width="792.597036" x="7.2" y="7.2"/>
  </clipPath>
 </defs>
</svg>
