<?xml version="1.0" encoding="utf-8" standalone="no"?>
<!DOCTYPE svg PUBLIC "-//W3C//DTD SVG 1.1//EN"
  "http://www.w3.org/Graphics/SVG/1.1/DTD/svg11.dtd">
<!-- Created with matplotlib (https://matplotlib.org/) -->
<svg height="319.078125pt" version="1.1" viewBox="0 0 469.303125 319.078125" width="469.303125pt" xmlns="http://www.w3.org/2000/svg" xmlns:xlink="http://www.w3.org/1999/xlink">
 <defs>
  <style type="text/css">
*{stroke-linecap:butt;stroke-linejoin:round;}
  </style>
 </defs>
 <g id="figure_1">
  <g id="patch_1">
   <path d="M 0 319.078125 
L 469.303125 319.078125 
L 469.303125 0 
L 0 0 
z
" style="fill:#ffffff;"/>
  </g>
  <g id="axes_1">
   <g id="LineCollection_1">
    <path clip-path="url(#pa59c2c1f17)" d="M 57.308958 274.682757 
L 434.897292 27.717243 
" style="fill:none;stroke:#000000;"/>
    <path clip-path="url(#pa59c2c1f17)" d="M 57.308958 274.682757 
L 57.308958 27.717243 
" style="fill:none;stroke:#000000;"/>
    <path clip-path="url(#pa59c2c1f17)" d="M 434.897292 27.717243 
L 57.308958 27.717243 
" style="fill:none;stroke:#000000;"/>
   </g>
   <g id="PathCollection_1">
    <defs>
     <path d="M 0 8.660254 
C 2.296726 8.660254 4.499694 7.747755 6.123724 6.123724 
C 7.747755 4.499694 8.660254 2.296726 8.660254 0 
C 8.660254 -2.296726 7.747755 -4.499694 6.123724 -6.123724 
C 4.499694 -7.747755 2.296726 -8.660254 0 -8.660254 
C -2.296726 -8.660254 -4.499694 -7.747755 -6.123724 -6.123724 
C -7.747755 -4.499694 -8.660254 -2.296726 -8.660254 0 
C -8.660254 2.296726 -7.747755 4.499694 -6.123724 6.123724 
C -4.499694 7.747755 -2.296726 8.660254 0 8.660254 
z
" id="mcd0c4ac710" style="stroke:#ff0000;"/>
    </defs>
    <g clip-path="url(#pa59c2c1f17)">
     <use style="fill:#ff0000;stroke:#ff0000;" x="57.308958" xlink:href="#mcd0c4ac710" y="274.682757"/>
     <use style="fill:#ff0000;stroke:#ff0000;" x="434.897292" xlink:href="#mcd0c4ac710" y="27.717243"/>
     <use style="fill:#ff0000;stroke:#ff0000;" x="57.308958" xlink:href="#mcd0c4ac710" y="27.717243"/>
    </g>
   </g>
  </g>
 </g>
 <defs>
  <clipPath id="pa59c2c1f17">
   <rect height="288" width="432" x="30.103125" y="7.2"/>
  </clipPath>
 </defs>
</svg>
