<?xml version="1.0" encoding="utf-8" standalone="no"?>
<!DOCTYPE svg PUBLIC "-//W3C//DTD SVG 1.1//EN"
  "http://www.w3.org/Graphics/SVG/1.1/DTD/svg11.dtd">
<!-- Created with matplotlib (https://matplotlib.org/) -->
<svg height="252.018125pt" version="1.1" viewBox="0 0 388.328125 252.018125" width="388.328125pt" xmlns="http://www.w3.org/2000/svg" xmlns:xlink="http://www.w3.org/1999/xlink">
 <defs>
  <style type="text/css">
*{stroke-linecap:butt;stroke-linejoin:round;}
  </style>
 </defs>
 <g id="figure_1">
  <g id="patch_1">
   <path d="M 0 252.018125 
L 388.328125 252.018125 
L 388.328125 0 
L 0 0 
z
" style="fill:none;"/>
  </g>
  <g id="axes_1">
   <g id="patch_2">
    <path d="M 42.828125 228.14 
L 377.628125 228.14 
L 377.628125 10.7 
L 42.828125 10.7 
z
" style="fill:#ffffff;"/>
   </g>
   <g id="matplotlib.axis_1">
    <g id="xtick_1">
     <g id="line2d_1">
      <path clip-path="url(#pdb44733a46)" d="M 58.046307 228.14 
L 58.046307 10.7 
" style="fill:none;stroke:#b0b0b0;stroke-linecap:square;stroke-width:0.8;"/>
     </g>
     <g id="line2d_2">
      <defs>
       <path d="M 0 0 
L 0 3.5 
" id="m826ad0403b" style="stroke:#000000;stroke-width:0.8;"/>
      </defs>
      <g>
       <use style="stroke:#000000;stroke-width:0.8;" x="58.046307" xlink:href="#m826ad0403b" y="228.14"/>
      </g>
     </g>
     <g id="text_1">
      <!-- 0 -->
      <defs>
       <path d="M 31.78125 66.40625 
Q 24.171875 66.40625 20.328125 58.90625 
Q 16.5 51.421875 16.5 36.375 
Q 16.5 21.390625 20.328125 13.890625 
Q 24.171875 6.390625 31.78125 6.390625 
Q 39.453125 6.390625 43.28125 13.890625 
Q 47.125 21.390625 47.125 36.375 
Q 47.125 51.421875 43.28125 58.90625 
Q 39.453125 66.40625 31.78125 66.40625 
z
M 31.78125 74.21875 
Q 44.046875 74.21875 50.515625 64.515625 
Q 56.984375 54.828125 56.984375 36.375 
Q 56.984375 17.96875 50.515625 8.265625 
Q 44.046875 -1.421875 31.78125 -1.421875 
Q 19.53125 -1.421875 13.0625 8.265625 
Q 6.59375 17.96875 6.59375 36.375 
Q 6.59375 54.828125 13.0625 64.515625 
Q 19.53125 74.21875 31.78125 74.21875 
z
" id="DejaVuSans-48"/>
      </defs>
      <g transform="translate(54.865057 242.738437)scale(0.1 -0.1)">
       <use xlink:href="#DejaVuSans-48"/>
      </g>
     </g>
    </g>
    <g id="xtick_2">
     <g id="line2d_3">
      <path clip-path="url(#pdb44733a46)" d="M 96.110794 228.14 
L 96.110794 10.7 
" style="fill:none;stroke:#b0b0b0;stroke-linecap:square;stroke-width:0.8;"/>
     </g>
     <g id="line2d_4">
      <g>
       <use style="stroke:#000000;stroke-width:0.8;" x="96.110794" xlink:href="#m826ad0403b" y="228.14"/>
      </g>
     </g>
     <g id="text_2">
      <!-- 250 -->
      <defs>
       <path d="M 19.1875 8.296875 
L 53.609375 8.296875 
L 53.609375 0 
L 7.328125 0 
L 7.328125 8.296875 
Q 12.9375 14.109375 22.625 23.890625 
Q 32.328125 33.6875 34.8125 36.53125 
Q 39.546875 41.84375 41.421875 45.53125 
Q 43.3125 49.21875 43.3125 52.78125 
Q 43.3125 58.59375 39.234375 62.25 
Q 35.15625 65.921875 28.609375 65.921875 
Q 23.96875 65.921875 18.8125 64.3125 
Q 13.671875 62.703125 7.8125 59.421875 
L 7.8125 69.390625 
Q 13.765625 71.78125 18.9375 73 
Q 24.125 74.21875 28.421875 74.21875 
Q 39.75 74.21875 46.484375 68.546875 
Q 53.21875 62.890625 53.21875 53.421875 
Q 53.21875 48.921875 51.53125 44.890625 
Q 49.859375 40.875 45.40625 35.40625 
Q 44.1875 33.984375 37.640625 27.21875 
Q 31.109375 20.453125 19.1875 8.296875 
z
" id="DejaVuSans-50"/>
       <path d="M 10.796875 72.90625 
L 49.515625 72.90625 
L 49.515625 64.59375 
L 19.828125 64.59375 
L 19.828125 46.734375 
Q 21.96875 47.46875 24.109375 47.828125 
Q 26.265625 48.1875 28.421875 48.1875 
Q 40.625 48.1875 47.75 41.5 
Q 54.890625 34.8125 54.890625 23.390625 
Q 54.890625 11.625 47.5625 5.09375 
Q 40.234375 -1.421875 26.90625 -1.421875 
Q 22.3125 -1.421875 17.546875 -0.640625 
Q 12.796875 0.140625 7.71875 1.703125 
L 7.71875 11.625 
Q 12.109375 9.234375 16.796875 8.0625 
Q 21.484375 6.890625 26.703125 6.890625 
Q 35.15625 6.890625 40.078125 11.328125 
Q 45.015625 15.765625 45.015625 23.390625 
Q 45.015625 31 40.078125 35.4375 
Q 35.15625 39.890625 26.703125 39.890625 
Q 22.75 39.890625 18.8125 39.015625 
Q 14.890625 38.140625 10.796875 36.28125 
z
" id="DejaVuSans-53"/>
      </defs>
      <g transform="translate(86.567044 242.738437)scale(0.1 -0.1)">
       <use xlink:href="#DejaVuSans-50"/>
       <use x="63.623047" xlink:href="#DejaVuSans-53"/>
       <use x="127.246094" xlink:href="#DejaVuSans-48"/>
      </g>
     </g>
    </g>
    <g id="xtick_3">
     <g id="line2d_5">
      <path clip-path="url(#pdb44733a46)" d="M 134.17528 228.14 
L 134.17528 10.7 
" style="fill:none;stroke:#b0b0b0;stroke-linecap:square;stroke-width:0.8;"/>
     </g>
     <g id="line2d_6">
      <g>
       <use style="stroke:#000000;stroke-width:0.8;" x="134.17528" xlink:href="#m826ad0403b" y="228.14"/>
      </g>
     </g>
     <g id="text_3">
      <!-- 500 -->
      <g transform="translate(124.63153 242.738437)scale(0.1 -0.1)">
       <use xlink:href="#DejaVuSans-53"/>
       <use x="63.623047" xlink:href="#DejaVuSans-48"/>
       <use x="127.246094" xlink:href="#DejaVuSans-48"/>
      </g>
     </g>
    </g>
    <g id="xtick_4">
     <g id="line2d_7">
      <path clip-path="url(#pdb44733a46)" d="M 172.239767 228.14 
L 172.239767 10.7 
" style="fill:none;stroke:#b0b0b0;stroke-linecap:square;stroke-width:0.8;"/>
     </g>
     <g id="line2d_8">
      <g>
       <use style="stroke:#000000;stroke-width:0.8;" x="172.239767" xlink:href="#m826ad0403b" y="228.14"/>
      </g>
     </g>
     <g id="text_4">
      <!-- 750 -->
      <defs>
       <path d="M 8.203125 72.90625 
L 55.078125 72.90625 
L 55.078125 68.703125 
L 28.609375 0 
L 18.3125 0 
L 43.21875 64.59375 
L 8.203125 64.59375 
z
" id="DejaVuSans-55"/>
      </defs>
      <g transform="translate(162.696017 242.738437)scale(0.1 -0.1)">
       <use xlink:href="#DejaVuSans-55"/>
       <use x="63.623047" xlink:href="#DejaVuSans-53"/>
       <use x="127.246094" xlink:href="#DejaVuSans-48"/>
      </g>
     </g>
    </g>
    <g id="xtick_5">
     <g id="line2d_9">
      <path clip-path="url(#pdb44733a46)" d="M 210.304254 228.14 
L 210.304254 10.7 
" style="fill:none;stroke:#b0b0b0;stroke-linecap:square;stroke-width:0.8;"/>
     </g>
     <g id="line2d_10">
      <g>
       <use style="stroke:#000000;stroke-width:0.8;" x="210.304254" xlink:href="#m826ad0403b" y="228.14"/>
      </g>
     </g>
     <g id="text_5">
      <!-- 1000 -->
      <defs>
       <path d="M 12.40625 8.296875 
L 28.515625 8.296875 
L 28.515625 63.921875 
L 10.984375 60.40625 
L 10.984375 69.390625 
L 28.421875 72.90625 
L 38.28125 72.90625 
L 38.28125 8.296875 
L 54.390625 8.296875 
L 54.390625 0 
L 12.40625 0 
z
" id="DejaVuSans-49"/>
      </defs>
      <g transform="translate(197.579254 242.738437)scale(0.1 -0.1)">
       <use xlink:href="#DejaVuSans-49"/>
       <use x="63.623047" xlink:href="#DejaVuSans-48"/>
       <use x="127.246094" xlink:href="#DejaVuSans-48"/>
       <use x="190.869141" xlink:href="#DejaVuSans-48"/>
      </g>
     </g>
    </g>
    <g id="xtick_6">
     <g id="line2d_11">
      <path clip-path="url(#pdb44733a46)" d="M 248.368741 228.14 
L 248.368741 10.7 
" style="fill:none;stroke:#b0b0b0;stroke-linecap:square;stroke-width:0.8;"/>
     </g>
     <g id="line2d_12">
      <g>
       <use style="stroke:#000000;stroke-width:0.8;" x="248.368741" xlink:href="#m826ad0403b" y="228.14"/>
      </g>
     </g>
     <g id="text_6">
      <!-- 1250 -->
      <g transform="translate(235.643741 242.738437)scale(0.1 -0.1)">
       <use xlink:href="#DejaVuSans-49"/>
       <use x="63.623047" xlink:href="#DejaVuSans-50"/>
       <use x="127.246094" xlink:href="#DejaVuSans-53"/>
       <use x="190.869141" xlink:href="#DejaVuSans-48"/>
      </g>
     </g>
    </g>
    <g id="xtick_7">
     <g id="line2d_13">
      <path clip-path="url(#pdb44733a46)" d="M 286.433228 228.14 
L 286.433228 10.7 
" style="fill:none;stroke:#b0b0b0;stroke-linecap:square;stroke-width:0.8;"/>
     </g>
     <g id="line2d_14">
      <g>
       <use style="stroke:#000000;stroke-width:0.8;" x="286.433228" xlink:href="#m826ad0403b" y="228.14"/>
      </g>
     </g>
     <g id="text_7">
      <!-- 1500 -->
      <g transform="translate(273.708228 242.738437)scale(0.1 -0.1)">
       <use xlink:href="#DejaVuSans-49"/>
       <use x="63.623047" xlink:href="#DejaVuSans-53"/>
       <use x="127.246094" xlink:href="#DejaVuSans-48"/>
       <use x="190.869141" xlink:href="#DejaVuSans-48"/>
      </g>
     </g>
    </g>
    <g id="xtick_8">
     <g id="line2d_15">
      <path clip-path="url(#pdb44733a46)" d="M 324.497714 228.14 
L 324.497714 10.7 
" style="fill:none;stroke:#b0b0b0;stroke-linecap:square;stroke-width:0.8;"/>
     </g>
     <g id="line2d_16">
      <g>
       <use style="stroke:#000000;stroke-width:0.8;" x="324.497714" xlink:href="#m826ad0403b" y="228.14"/>
      </g>
     </g>
     <g id="text_8">
      <!-- 1750 -->
      <g transform="translate(311.772714 242.738437)scale(0.1 -0.1)">
       <use xlink:href="#DejaVuSans-49"/>
       <use x="63.623047" xlink:href="#DejaVuSans-55"/>
       <use x="127.246094" xlink:href="#DejaVuSans-53"/>
       <use x="190.869141" xlink:href="#DejaVuSans-48"/>
      </g>
     </g>
    </g>
    <g id="xtick_9">
     <g id="line2d_17">
      <path clip-path="url(#pdb44733a46)" d="M 362.562201 228.14 
L 362.562201 10.7 
" style="fill:none;stroke:#b0b0b0;stroke-linecap:square;stroke-width:0.8;"/>
     </g>
     <g id="line2d_18">
      <g>
       <use style="stroke:#000000;stroke-width:0.8;" x="362.562201" xlink:href="#m826ad0403b" y="228.14"/>
      </g>
     </g>
     <g id="text_9">
      <!-- 2000 -->
      <g transform="translate(349.837201 242.738437)scale(0.1 -0.1)">
       <use xlink:href="#DejaVuSans-50"/>
       <use x="63.623047" xlink:href="#DejaVuSans-48"/>
       <use x="127.246094" xlink:href="#DejaVuSans-48"/>
       <use x="190.869141" xlink:href="#DejaVuSans-48"/>
      </g>
     </g>
    </g>
   </g>
   <g id="matplotlib.axis_2">
    <g id="ytick_1">
     <g id="line2d_19">
      <path clip-path="url(#pdb44733a46)" d="M 42.828125 218.941104 
L 377.628125 218.941104 
" style="fill:none;stroke:#b0b0b0;stroke-linecap:square;stroke-width:0.8;"/>
     </g>
     <g id="line2d_20">
      <defs>
       <path d="M 0 0 
L -3.5 0 
" id="m0039bf22dd" style="stroke:#000000;stroke-width:0.8;"/>
      </defs>
      <g>
       <use style="stroke:#000000;stroke-width:0.8;" x="42.828125" xlink:href="#m0039bf22dd" y="218.941104"/>
      </g>
     </g>
     <g id="text_10">
      <!-- 0.000 -->
      <defs>
       <path d="M 10.6875 12.40625 
L 21 12.40625 
L 21 0 
L 10.6875 0 
z
" id="DejaVuSans-46"/>
      </defs>
      <g transform="translate(7.2 222.740323)scale(0.1 -0.1)">
       <use xlink:href="#DejaVuSans-48"/>
       <use x="63.623047" xlink:href="#DejaVuSans-46"/>
       <use x="95.410156" xlink:href="#DejaVuSans-48"/>
       <use x="159.033203" xlink:href="#DejaVuSans-48"/>
       <use x="222.65625" xlink:href="#DejaVuSans-48"/>
      </g>
     </g>
    </g>
    <g id="ytick_2">
     <g id="line2d_21">
      <path clip-path="url(#pdb44733a46)" d="M 42.828125 189.021495 
L 377.628125 189.021495 
" style="fill:none;stroke:#b0b0b0;stroke-linecap:square;stroke-width:0.8;"/>
     </g>
     <g id="line2d_22">
      <g>
       <use style="stroke:#000000;stroke-width:0.8;" x="42.828125" xlink:href="#m0039bf22dd" y="189.021495"/>
      </g>
     </g>
     <g id="text_11">
      <!-- 0.001 -->
      <g transform="translate(7.2 192.820714)scale(0.1 -0.1)">
       <use xlink:href="#DejaVuSans-48"/>
       <use x="63.623047" xlink:href="#DejaVuSans-46"/>
       <use x="95.410156" xlink:href="#DejaVuSans-48"/>
       <use x="159.033203" xlink:href="#DejaVuSans-48"/>
       <use x="222.65625" xlink:href="#DejaVuSans-49"/>
      </g>
     </g>
    </g>
    <g id="ytick_3">
     <g id="line2d_23">
      <path clip-path="url(#pdb44733a46)" d="M 42.828125 159.101887 
L 377.628125 159.101887 
" style="fill:none;stroke:#b0b0b0;stroke-linecap:square;stroke-width:0.8;"/>
     </g>
     <g id="line2d_24">
      <g>
       <use style="stroke:#000000;stroke-width:0.8;" x="42.828125" xlink:href="#m0039bf22dd" y="159.101887"/>
      </g>
     </g>
     <g id="text_12">
      <!-- 0.002 -->
      <g transform="translate(7.2 162.901106)scale(0.1 -0.1)">
       <use xlink:href="#DejaVuSans-48"/>
       <use x="63.623047" xlink:href="#DejaVuSans-46"/>
       <use x="95.410156" xlink:href="#DejaVuSans-48"/>
       <use x="159.033203" xlink:href="#DejaVuSans-48"/>
       <use x="222.65625" xlink:href="#DejaVuSans-50"/>
      </g>
     </g>
    </g>
    <g id="ytick_4">
     <g id="line2d_25">
      <path clip-path="url(#pdb44733a46)" d="M 42.828125 129.182278 
L 377.628125 129.182278 
" style="fill:none;stroke:#b0b0b0;stroke-linecap:square;stroke-width:0.8;"/>
     </g>
     <g id="line2d_26">
      <g>
       <use style="stroke:#000000;stroke-width:0.8;" x="42.828125" xlink:href="#m0039bf22dd" y="129.182278"/>
      </g>
     </g>
     <g id="text_13">
      <!-- 0.003 -->
      <defs>
       <path d="M 40.578125 39.3125 
Q 47.65625 37.796875 51.625 33 
Q 55.609375 28.21875 55.609375 21.1875 
Q 55.609375 10.40625 48.1875 4.484375 
Q 40.765625 -1.421875 27.09375 -1.421875 
Q 22.515625 -1.421875 17.65625 -0.515625 
Q 12.796875 0.390625 7.625 2.203125 
L 7.625 11.71875 
Q 11.71875 9.328125 16.59375 8.109375 
Q 21.484375 6.890625 26.8125 6.890625 
Q 36.078125 6.890625 40.9375 10.546875 
Q 45.796875 14.203125 45.796875 21.1875 
Q 45.796875 27.640625 41.28125 31.265625 
Q 36.765625 34.90625 28.71875 34.90625 
L 20.21875 34.90625 
L 20.21875 43.015625 
L 29.109375 43.015625 
Q 36.375 43.015625 40.234375 45.921875 
Q 44.09375 48.828125 44.09375 54.296875 
Q 44.09375 59.90625 40.109375 62.90625 
Q 36.140625 65.921875 28.71875 65.921875 
Q 24.65625 65.921875 20.015625 65.03125 
Q 15.375 64.15625 9.8125 62.3125 
L 9.8125 71.09375 
Q 15.4375 72.65625 20.34375 73.4375 
Q 25.25 74.21875 29.59375 74.21875 
Q 40.828125 74.21875 47.359375 69.109375 
Q 53.90625 64.015625 53.90625 55.328125 
Q 53.90625 49.265625 50.4375 45.09375 
Q 46.96875 40.921875 40.578125 39.3125 
z
" id="DejaVuSans-51"/>
      </defs>
      <g transform="translate(7.2 132.981497)scale(0.1 -0.1)">
       <use xlink:href="#DejaVuSans-48"/>
       <use x="63.623047" xlink:href="#DejaVuSans-46"/>
       <use x="95.410156" xlink:href="#DejaVuSans-48"/>
       <use x="159.033203" xlink:href="#DejaVuSans-48"/>
       <use x="222.65625" xlink:href="#DejaVuSans-51"/>
      </g>
     </g>
    </g>
    <g id="ytick_5">
     <g id="line2d_27">
      <path clip-path="url(#pdb44733a46)" d="M 42.828125 99.26267 
L 377.628125 99.26267 
" style="fill:none;stroke:#b0b0b0;stroke-linecap:square;stroke-width:0.8;"/>
     </g>
     <g id="line2d_28">
      <g>
       <use style="stroke:#000000;stroke-width:0.8;" x="42.828125" xlink:href="#m0039bf22dd" y="99.26267"/>
      </g>
     </g>
     <g id="text_14">
      <!-- 0.004 -->
      <defs>
       <path d="M 37.796875 64.3125 
L 12.890625 25.390625 
L 37.796875 25.390625 
z
M 35.203125 72.90625 
L 47.609375 72.90625 
L 47.609375 25.390625 
L 58.015625 25.390625 
L 58.015625 17.1875 
L 47.609375 17.1875 
L 47.609375 0 
L 37.796875 0 
L 37.796875 17.1875 
L 4.890625 17.1875 
L 4.890625 26.703125 
z
" id="DejaVuSans-52"/>
      </defs>
      <g transform="translate(7.2 103.061889)scale(0.1 -0.1)">
       <use xlink:href="#DejaVuSans-48"/>
       <use x="63.623047" xlink:href="#DejaVuSans-46"/>
       <use x="95.410156" xlink:href="#DejaVuSans-48"/>
       <use x="159.033203" xlink:href="#DejaVuSans-48"/>
       <use x="222.65625" xlink:href="#DejaVuSans-52"/>
      </g>
     </g>
    </g>
    <g id="ytick_6">
     <g id="line2d_29">
      <path clip-path="url(#pdb44733a46)" d="M 42.828125 69.343061 
L 377.628125 69.343061 
" style="fill:none;stroke:#b0b0b0;stroke-linecap:square;stroke-width:0.8;"/>
     </g>
     <g id="line2d_30">
      <g>
       <use style="stroke:#000000;stroke-width:0.8;" x="42.828125" xlink:href="#m0039bf22dd" y="69.343061"/>
      </g>
     </g>
     <g id="text_15">
      <!-- 0.005 -->
      <g transform="translate(7.2 73.14228)scale(0.1 -0.1)">
       <use xlink:href="#DejaVuSans-48"/>
       <use x="63.623047" xlink:href="#DejaVuSans-46"/>
       <use x="95.410156" xlink:href="#DejaVuSans-48"/>
       <use x="159.033203" xlink:href="#DejaVuSans-48"/>
       <use x="222.65625" xlink:href="#DejaVuSans-53"/>
      </g>
     </g>
    </g>
    <g id="ytick_7">
     <g id="line2d_31">
      <path clip-path="url(#pdb44733a46)" d="M 42.828125 39.423453 
L 377.628125 39.423453 
" style="fill:none;stroke:#b0b0b0;stroke-linecap:square;stroke-width:0.8;"/>
     </g>
     <g id="line2d_32">
      <g>
       <use style="stroke:#000000;stroke-width:0.8;" x="42.828125" xlink:href="#m0039bf22dd" y="39.423453"/>
      </g>
     </g>
     <g id="text_16">
      <!-- 0.006 -->
      <defs>
       <path d="M 33.015625 40.375 
Q 26.375 40.375 22.484375 35.828125 
Q 18.609375 31.296875 18.609375 23.390625 
Q 18.609375 15.53125 22.484375 10.953125 
Q 26.375 6.390625 33.015625 6.390625 
Q 39.65625 6.390625 43.53125 10.953125 
Q 47.40625 15.53125 47.40625 23.390625 
Q 47.40625 31.296875 43.53125 35.828125 
Q 39.65625 40.375 33.015625 40.375 
z
M 52.59375 71.296875 
L 52.59375 62.3125 
Q 48.875 64.0625 45.09375 64.984375 
Q 41.3125 65.921875 37.59375 65.921875 
Q 27.828125 65.921875 22.671875 59.328125 
Q 17.53125 52.734375 16.796875 39.40625 
Q 19.671875 43.65625 24.015625 45.921875 
Q 28.375 48.1875 33.59375 48.1875 
Q 44.578125 48.1875 50.953125 41.515625 
Q 57.328125 34.859375 57.328125 23.390625 
Q 57.328125 12.15625 50.6875 5.359375 
Q 44.046875 -1.421875 33.015625 -1.421875 
Q 20.359375 -1.421875 13.671875 8.265625 
Q 6.984375 17.96875 6.984375 36.375 
Q 6.984375 53.65625 15.1875 63.9375 
Q 23.390625 74.21875 37.203125 74.21875 
Q 40.921875 74.21875 44.703125 73.484375 
Q 48.484375 72.75 52.59375 71.296875 
z
" id="DejaVuSans-54"/>
      </defs>
      <g transform="translate(7.2 43.222671)scale(0.1 -0.1)">
       <use xlink:href="#DejaVuSans-48"/>
       <use x="63.623047" xlink:href="#DejaVuSans-46"/>
       <use x="95.410156" xlink:href="#DejaVuSans-48"/>
       <use x="159.033203" xlink:href="#DejaVuSans-48"/>
       <use x="222.65625" xlink:href="#DejaVuSans-54"/>
      </g>
     </g>
    </g>
   </g>
   <g id="line2d_33">
    <path clip-path="url(#pdb44733a46)" d="M 58.046307 20.583636 
L 58.655339 22.360024 
L 58.807597 22.808498 
L 58.959855 22.809881 
L 59.26437 23.777426 
L 59.721144 25.099543 
L 62.461787 32.325058 
L 62.766303 33.194619 
L 65.050172 38.808726 
L 65.20243 38.890897 
L 65.659204 40.258772 
L 65.811462 40.455839 
L 67.334042 44.083642 
L 68.399847 46.592476 
L 69.008879 48.014379 
L 69.161137 48.2283 
L 69.617911 49.422106 
L 71.14049 52.727776 
L 71.445006 53.408682 
L 71.597264 53.610965 
L 72.206296 55.086281 
L 72.66307 55.884724 
L 72.967586 56.780386 
L 73.272102 57.222269 
L 73.881133 58.557665 
L 74.490165 59.750345 
L 75.099197 61.283596 
L 82.25532 75.14769 
L 82.559836 75.628132 
L 83.473384 77.406896 
L 85.909511 81.563299 
L 86.214027 82.29285 
L 86.975317 83.420782 
L 87.432091 84.214797 
L 87.584349 84.345598 
L 88.19338 85.551577 
L 88.345638 85.703767 
L 88.802412 86.511211 
L 88.95467 86.621228 
L 89.259186 87.229106 
L 89.868218 88.274494 
L 90.324992 88.996115 
L 91.086281 90.102992 
L 92.304345 92.112489 
L 95.65402 96.813762 
L 96.719825 98.214639 
L 97.785631 99.593531 
L 99.764984 102.126463 
L 99.917242 102.160401 
L 100.221758 102.756155 
L 100.983048 103.722186 
L 101.439822 104.279063 
L 103.875949 107.169577 
L 104.028207 107.207171 
L 104.484981 107.948488 
L 104.941755 108.484543 
L 105.094012 108.533167 
L 105.398528 108.876916 
L 106.616592 110.199836 
L 106.921108 110.417932 
L 107.225624 111.008375 
L 107.682398 111.488367 
L 107.986913 111.8327 
L 108.139171 111.912079 
L 108.443687 112.29262 
L 109.204977 112.937084 
L 109.814009 113.657093 
L 110.575299 114.391778 
L 110.879814 114.839074 
L 111.032072 114.804811 
L 111.336588 115.289687 
L 112.250136 116.212804 
L 112.70691 116.581341 
L 112.859168 116.686996 
L 113.163684 117.085235 
L 113.620458 117.481576 
L 114.229489 118.068935 
L 114.534005 118.372098 
L 115.599811 119.249192 
L 116.056585 119.68713 
L 116.817874 120.316572 
L 117.274648 120.740714 
L 118.340454 121.621253 
L 125.039804 126.473996 
L 125.192062 126.492493 
L 125.648835 126.860741 
L 133.261733 131.320185 
L 134.17528 131.763452 
L 134.479796 132.007807 
L 135.241086 132.384893 
L 136.002376 132.768456 
L 136.154634 132.747925 
L 136.611408 133.062773 
L 137.372697 133.441326 
L 138.895277 134.185526 
L 144.985595 136.670773 
L 145.290111 136.712242 
L 145.442368 136.803367 
L 145.594626 136.762925 
L 145.899142 137.060464 
L 146.203658 137.146172 
L 147.726238 137.695877 
L 148.487527 137.949015 
L 148.944301 138.129568 
L 151.684944 138.977455 
L 151.98946 139.150925 
L 152.141718 139.082186 
L 152.446234 139.298061 
L 155.339135 140.174142 
L 156.100425 140.40597 
L 156.557199 140.52452 
L 157.318488 140.732157 
L 157.623004 140.777159 
L 158.079778 140.956996 
L 162.190743 141.9572 
L 162.495259 142.062899 
L 162.799774 142.159169 
L 163.10429 142.23833 
L 163.408806 142.350697 
L 164.017838 142.407825 
L 164.322354 142.578184 
L 166.149449 143.020374 
L 176.046216 145.141419 
L 176.50299 145.211576 
L 177.416537 145.382587 
L 178.177827 145.517982 
L 178.482343 145.606984 
L 179.548149 145.795198 
L 179.852665 145.688304 
L 180.15718 145.870392 
L 180.91847 145.987991 
L 181.222986 146.072482 
L 181.67976 146.19026 
L 182.136534 146.262053 
L 183.050081 146.401162 
L 183.811371 146.596167 
L 184.115887 146.583939 
L 184.420403 146.694883 
L 185.638467 146.906651 
L 187.008788 147.093361 
L 187.313304 147.093743 
L 187.61782 147.240429 
L 187.770078 147.204697 
L 188.226852 147.351516 
L 188.531368 147.375353 
L 189.597173 147.560434 
L 189.749431 147.54318 
L 190.053947 147.655638 
L 196.448781 148.593395 
L 196.601039 148.506786 
L 198.123618 148.922064 
L 198.73265 148.981791 
L 200.864261 149.339036 
L 201.321035 149.339307 
L 201.473293 149.387706 
L 201.625551 149.317142 
L 201.930067 149.457829 
L 202.691357 149.568948 
L 205.736516 150.014629 
L 206.345547 150.130126 
L 208.020385 150.326317 
L 208.324901 150.34169 
L 208.629417 150.335097 
L 209.08619 150.487161 
L 209.390706 150.483825 
L 210.304254 150.673445 
L 210.60877 150.70416 
L 214.262961 151.218787 
L 215.328766 151.343625 
L 218.982957 151.8031 
L 219.744247 151.902743 
L 219.896505 151.838749 
L 220.353278 152.010938 
L 232.83843 153.563228 
L 233.904236 153.691268 
L 235.274557 153.815703 
L 237.558427 154.124115 
L 238.77649 154.249937 
L 239.690038 154.370292 
L 240.603585 154.470403 
L 241.973907 154.638261 
L 242.582939 154.677832 
L 243.191971 154.761794 
L 243.95326 154.813483 
L 244.410034 154.887151 
L 245.171324 154.960811 
L 245.323582 154.901901 
L 245.780356 155.086494 
L 246.23713 155.124021 
L 247.607451 155.277885 
L 253.240995 155.880364 
L 253.545511 155.875396 
L 254.002285 155.980749 
L 254.611317 156.015214 
L 262.680988 156.86728 
L 263.137762 156.952649 
L 264.660341 157.098004 
L 265.117115 157.17153 
L 266.030663 157.244795 
L 266.487436 157.31886 
L 273.491302 158.034365 
L 274.100334 158.121876 
L 280.038394 158.709397 
L 280.190652 158.592337 
L 280.647426 158.800088 
L 281.104199 158.829237 
L 282.017747 158.943583 
L 282.779037 158.984865 
L 283.540327 159.076151 
L 332.110612 163.446803 
L 332.567386 163.501736 
L 334.089965 163.59725 
L 335.003513 163.689197 
L 335.612544 163.701473 
L 337.135124 163.860506 
L 338.505445 163.986473 
L 348.858986 164.796665 
L 349.163502 164.778579 
L 349.924792 164.897202 
L 350.686081 164.863778 
L 350.990597 164.962207 
L 353.426724 165.159012 
L 353.73124 165.110841 
L 354.035756 165.228935 
L 360.582848 165.730563 
L 360.735106 165.632296 
L 361.19188 165.759071 
L 362.409943 165.813334 
L 362.409943 165.813334 
" style="fill:none;stroke:#1f77b4;stroke-linecap:square;stroke-width:1.5;"/>
   </g>
   <g id="line2d_34">
    <path clip-path="url(#pdb44733a46)" d="M 58.046307 216.603974 
L 58.655339 216.63016 
L 58.807597 216.007026 
L 58.959855 216.558006 
L 59.112112 216.003778 
L 59.416628 216.474316 
L 59.873402 216.37023 
L 60.02566 216.657521 
L 60.634692 216.674408 
L 60.939208 216.37246 
L 61.54824 216.637811 
L 61.700498 216.458231 
L 62.005013 216.662236 
L 62.309529 216.683761 
L 62.614045 216.632674 
L 62.766303 216.459229 
L 62.918561 216.714035 
L 65.050172 216.790532 
L 65.811462 216.797601 
L 66.115978 216.766189 
L 66.420494 216.810757 
L 66.572752 216.718033 
L 66.72501 216.764533 
L 66.877268 216.575314 
L 67.029526 216.766329 
L 67.4863 216.759319 
L 67.638557 216.827958 
L 67.790815 216.477047 
L 67.943073 216.729084 
L 68.095331 216.698808 
L 68.247589 216.541705 
L 68.399847 216.834728 
L 68.552105 216.829701 
L 68.704363 216.64855 
L 69.161137 216.850425 
L 69.465653 216.810762 
L 69.922427 216.863422 
L 71.14049 216.8772 
L 72.815328 216.817457 
L 72.967586 216.725439 
L 73.119844 216.476171 
L 73.272102 216.79335 
L 74.033391 216.915264 
L 74.337907 216.752347 
L 74.490165 216.933679 
L 75.099197 216.944171 
L 75.555971 216.909491 
L 75.708229 216.688307 
L 75.860487 216.80909 
L 76.012745 216.786864 
L 76.31726 216.976897 
L 76.926292 216.86737 
L 77.07855 216.760918 
L 77.230808 216.922906 
L 77.383066 216.642886 
L 77.687582 217.014024 
L 84.843706 217.050196 
L 84.995963 216.955086 
L 85.148221 217.129815 
L 85.452737 216.318153 
L 85.604995 216.934279 
L 85.757253 216.862736 
L 85.909511 217.133531 
L 86.366285 217.133708 
L 86.518543 217.044787 
L 86.670801 217.114154 
L 86.823059 216.998346 
L 86.975317 217.160244 
L 87.584349 217.126891 
L 88.650154 217.130956 
L 88.802412 217.041481 
L 88.95467 217.16344 
L 89.259186 217.017146 
L 89.411444 216.996191 
L 89.71596 217.148138 
L 91.238539 217.163145 
L 92.304345 217.181087 
L 92.456603 217.12318 
L 92.761119 217.171699 
L 97.024341 217.210594 
L 97.176599 217.09933 
L 97.633373 217.246943 
L 97.785631 217.208066 
L 98.090147 216.821156 
L 98.242405 217.200441 
L 98.546921 217.221706 
L 98.851437 217.262429 
L 99.155953 217.288265 
L 99.30821 217.182761 
L 99.612726 217.282858 
L 99.764984 217.041516 
L 99.917242 217.282049 
L 102.048854 217.297507 
L 102.353369 217.082035 
L 102.810143 217.258818 
L 103.266917 217.324343 
L 103.875949 217.110977 
L 104.180465 217.323302 
L 104.789497 217.284308 
L 104.941755 217.04091 
L 105.094012 217.230526 
L 105.24627 217.127623 
L 105.398528 217.193962 
L 105.550786 217.021998 
L 106.00756 217.251295 
L 106.616592 216.972466 
L 106.76885 216.878129 
L 106.921108 217.322645 
L 107.225624 217.329329 
L 108.291429 217.325546 
L 108.443687 217.169065 
L 108.748203 217.254671 
L 108.900461 217.083936 
L 109.509493 217.368944 
L 109.814009 217.373428 
L 110.727557 217.44837 
L 110.879814 217.27624 
L 111.18433 217.422174 
L 111.336588 217.307282 
L 111.94562 217.447822 
L 112.097878 217.365513 
L 112.402394 217.45481 
L 112.70691 217.36689 
L 113.011426 217.476103 
L 113.315942 217.461654 
L 113.4682 217.339205 
L 113.772715 217.42266 
L 114.229489 217.475587 
L 115.752069 217.504763 
L 116.056585 217.377288 
L 116.361101 217.469309 
L 116.513359 217.421687 
L 116.817874 217.518858 
L 117.731422 217.399605 
L 118.188196 217.534299 
L 118.340454 217.458937 
L 118.64497 217.558371 
L 119.558517 217.499513 
L 119.710775 217.267214 
L 120.015291 217.302018 
L 120.167549 217.479126 
L 120.624323 217.462066 
L 121.081097 217.540814 
L 121.385613 217.539185 
L 121.537871 217.465372 
L 121.690129 217.215402 
L 122.451418 217.445863 
L 122.603676 217.347305 
L 122.755934 217.467276 
L 122.908192 217.251869 
L 123.364966 217.530729 
L 124.126256 217.510628 
L 124.430772 217.416661 
L 124.58303 217.496593 
L 124.735288 217.444783 
L 124.887546 217.550102 
L 125.192062 217.439031 
L 125.953351 217.50036 
L 126.105609 217.364248 
L 126.410125 217.435978 
L 126.866899 217.539792 
L 127.323673 217.422282 
L 127.628189 217.538444 
L 127.932705 217.480571 
L 128.084963 217.382041 
L 128.389478 217.394851 
L 128.541736 217.27125 
L 128.846252 217.534984 
L 129.303026 217.322924 
L 130.368832 217.567098 
L 132.348185 217.548938 
L 132.652701 217.31822 
L 132.804959 217.411569 
L 132.957217 217.298597 
L 133.109475 217.369528 
L 133.261733 217.284611 
L 133.566249 217.572395 
L 134.479796 217.510139 
L 134.632054 217.40277 
L 134.784312 217.58816 
L 135.241086 217.486112 
L 135.545602 217.56831 
L 135.69786 217.426548 
L 135.850118 217.453287 
L 136.002376 217.222182 
L 136.306892 217.540121 
L 136.45915 217.581266 
L 136.611408 217.475147 
L 137.220439 217.588626 
L 137.372697 217.407733 
L 137.677213 217.555752 
L 138.133987 217.506353 
L 138.590761 217.553703 
L 139.047535 217.333584 
L 139.199793 217.597748 
L 139.808824 217.567176 
L 140.11334 217.338862 
L 140.265598 217.304316 
L 140.417856 217.430262 
L 140.722372 217.358815 
L 141.026888 217.497797 
L 141.179146 217.513413 
L 141.331404 217.374352 
L 141.63592 217.586596 
L 142.092694 217.437558 
L 142.39721 217.614382 
L 142.701725 217.573043 
L 142.853983 217.583218 
L 143.006241 217.401714 
L 143.158499 217.504014 
L 143.310757 217.347332 
L 143.615273 217.430105 
L 143.767531 217.552468 
L 143.919789 217.438781 
L 144.072047 217.5134 
L 144.528821 217.42062 
L 144.833337 217.373374 
L 144.985595 217.243609 
L 145.137853 217.365855 
L 145.442368 217.203766 
L 145.594626 217.586934 
L 146.0514 217.597301 
L 146.203658 217.453659 
L 146.355916 217.502528 
L 146.660432 217.377821 
L 146.964948 217.547781 
L 149.096559 217.578508 
L 149.401075 217.68156 
L 149.553333 217.613681 
L 149.857849 217.654307 
L 150.162365 217.302355 
L 150.314623 217.489828 
L 150.619139 217.468777 
L 150.771397 217.502193 
L 151.075913 217.725526 
L 151.837202 217.62428 
L 152.141718 217.688745 
L 152.75075 217.583823 
L 153.055266 217.674465 
L 153.51204 217.632759 
L 153.664298 217.513047 
L 153.816556 217.565436 
L 153.968814 217.495964 
L 154.273329 217.686118 
L 154.730103 217.602036 
L 155.186877 217.677239 
L 155.795909 217.576971 
L 156.100425 217.689878 
L 156.557199 217.624873 
L 156.709457 217.453282 
L 157.16623 217.501588 
L 157.318488 217.501095 
L 157.470746 217.335529 
L 157.775262 217.542907 
L 158.384294 217.711703 
L 158.536552 217.57086 
L 158.841068 217.72955 
L 159.145584 217.378659 
L 159.297842 217.363057 
L 159.4501 217.575035 
L 159.906873 217.642483 
L 160.059131 217.70346 
L 160.211389 217.579598 
L 160.515905 217.733111 
L 160.820421 217.690939 
L 161.429453 217.672849 
L 162.343001 217.365316 
L 162.495259 217.540288 
L 162.799774 217.369518 
L 162.952032 217.664394 
L 165.692675 217.680843 
L 165.844933 217.573853 
L 166.149449 217.716923 
L 166.301707 217.614217 
L 167.215255 217.81468 
L 167.672029 217.77791 
L 168.433319 217.729504 
L 168.737834 217.615446 
L 169.194608 217.740645 
L 169.346866 217.729116 
L 169.499124 217.590226 
L 169.651382 217.679064 
L 169.80364 217.624318 
L 170.108156 217.784206 
L 170.412672 217.778984 
L 171.173962 217.559022 
L 171.32622 217.766431 
L 171.630735 217.760825 
L 171.782993 217.615565 
L 171.935251 217.768462 
L 172.087509 217.623032 
L 172.392025 217.751538 
L 172.696541 217.81416 
L 173.153315 217.768719 
L 173.305573 217.667151 
L 173.457831 217.70308 
L 173.610089 217.556767 
L 173.762347 217.618184 
L 174.066863 217.486925 
L 174.523636 217.687477 
L 175.437184 217.72389 
L 175.7417 217.55283 
L 176.046216 217.826321 
L 176.655248 217.703969 
L 176.807506 217.657644 
L 176.959764 217.782738 
L 177.264279 217.570198 
L 177.568795 217.731204 
L 177.873311 217.577105 
L 178.177827 217.566848 
L 178.330085 217.730153 
L 179.395891 217.753331 
L 179.700407 217.864896 
L 181.984276 217.700642 
L 182.136534 217.822775 
L 182.288792 217.782903 
L 182.593308 217.891101 
L 183.202339 217.733833 
L 183.354597 217.848933 
L 183.659113 217.758489 
L 183.963629 217.909916 
L 184.268145 217.838457 
L 184.724919 217.769928 
L 184.877177 217.88611 
L 185.181693 217.839422 
L 185.638467 217.780099 
L 186.09524 217.787963 
L 186.85653 217.912024 
L 187.313304 217.896487 
L 187.922336 217.616829 
L 188.074594 217.698964 
L 188.226852 217.493703 
L 188.683625 217.760689 
L 188.835883 217.845084 
L 189.140399 217.676263 
L 189.597173 217.909257 
L 189.749431 217.73186 
L 189.901689 217.875947 
L 190.206205 217.748574 
L 190.510721 217.583538 
L 190.815237 217.750324 
L 190.967495 217.754392 
L 191.119753 217.486835 
L 191.424269 217.626029 
L 191.576526 217.671424 
L 191.881042 217.877386 
L 192.185558 217.776334 
L 192.337816 217.930122 
L 192.490074 217.764288 
L 192.642332 217.782356 
L 192.79459 217.579662 
L 193.099106 217.632439 
L 193.251364 217.754621 
L 193.55588 217.686464 
L 193.708138 217.873132 
L 193.860396 217.856634 
L 194.012654 217.639186 
L 194.164912 217.749774 
L 194.469427 217.699826 
L 194.773943 217.423117 
L 194.926201 217.54796 
L 195.078459 217.818915 
L 195.382975 217.757151 
L 195.535233 217.496755 
L 195.839749 217.766892 
L 196.296523 217.904787 
L 196.753297 217.916109 
L 197.362328 217.657724 
L 197.514586 217.901728 
L 197.666844 217.835041 
L 197.819102 217.611711 
L 197.97136 217.741689 
L 198.275876 217.47855 
L 198.428134 217.625451 
L 198.73265 217.602447 
L 199.037166 217.78346 
L 199.189424 217.826731 
L 199.49394 217.586612 
L 199.646198 217.594038 
L 199.798456 217.811551 
L 200.102972 217.642098 
L 200.255229 217.581915 
L 200.407487 217.804559 
L 200.559745 217.658814 
L 200.864261 217.88921 
L 201.016519 217.779743 
L 201.168777 217.900206 
L 201.777809 217.798042 
L 202.082325 217.915989 
L 202.234583 217.834433 
L 202.386841 217.939384 
L 203.604904 217.522172 
L 203.757162 217.566091 
L 203.90942 217.91879 
L 204.213936 217.875625 
L 204.366194 217.824048 
L 204.518452 217.898465 
L 205.127484 217.588122 
L 205.432 217.718376 
L 205.584258 217.847073 
L 206.041031 217.597232 
L 206.193289 217.77558 
L 206.345547 217.64133 
L 206.650063 217.916011 
L 206.954579 217.86313 
L 207.106837 217.589047 
L 207.259095 217.645104 
L 207.411353 217.920341 
L 208.172643 217.64155 
L 208.477159 217.406836 
L 208.629417 217.508231 
L 208.781675 217.791354 
L 209.238448 217.42251 
L 209.542964 217.553319 
L 209.695222 217.828629 
L 209.84748 217.867051 
L 209.999738 217.701869 
L 210.304254 217.922755 
L 211.065544 217.605636 
L 211.674575 217.908383 
L 211.826833 217.755094 
L 212.131349 217.950215 
L 213.044897 217.849792 
L 213.349413 217.572429 
L 213.653929 217.87896 
L 213.958445 217.813617 
L 214.110703 217.64013 
L 214.262961 217.835307 
L 214.415219 217.796672 
L 214.719734 217.946145 
L 214.871992 217.890405 
L 215.176508 217.622093 
L 215.481024 217.765171 
L 216.090056 217.760341 
L 216.242314 217.928212 
L 217.764893 217.649707 
L 218.069409 217.863575 
L 218.678441 217.571249 
L 218.982957 217.61351 
L 219.135215 217.611972 
L 219.287473 217.780896 
L 219.591989 217.622996 
L 219.744247 217.380284 
L 220.048763 217.745552 
L 220.505536 217.732547 
L 220.657794 217.549429 
L 220.810052 217.564078 
L 220.96231 217.411629 
L 221.114568 217.929812 
L 221.875858 217.88118 
L 222.180374 217.9176 
L 222.48489 217.782023 
L 222.637148 217.956917 
L 222.941664 217.882642 
L 223.246179 217.932076 
L 223.398437 217.781376 
L 223.702953 217.901634 
L 224.007469 217.675237 
L 224.768759 217.643067 
L 224.921017 217.723414 
L 225.073275 217.5058 
L 225.225533 217.64145 
L 225.377791 217.587912 
L 225.530049 217.321132 
L 225.834565 217.934261 
L 226.291338 217.720861 
L 226.443596 217.618177 
L 226.90037 217.827881 
L 227.204886 217.64278 
L 227.357144 217.887615 
L 227.813918 217.812936 
L 228.118434 217.905074 
L 228.270692 217.827848 
L 228.42295 217.559686 
L 228.727466 217.864635 
L 228.879724 217.697623 
L 230.097787 217.773511 
L 230.250045 217.951946 
L 230.402303 217.882395 
L 230.706819 217.964937 
L 231.011335 217.870539 
L 231.315851 217.974189 
L 231.620367 217.887014 
L 231.772625 217.984591 
L 231.924882 217.823125 
L 232.07714 217.879293 
L 232.229398 217.767887 
L 232.381656 217.824685 
L 232.533914 217.750867 
L 232.686172 217.92495 
L 232.83843 217.892321 
L 232.990688 217.705429 
L 233.295204 218.041535 
L 233.447462 217.819403 
L 234.208752 218.061745 
L 234.513268 217.89019 
L 234.817783 217.964059 
L 234.970041 217.939848 
L 235.122299 218.040126 
L 235.274557 217.959369 
L 235.579073 218.031191 
L 235.883589 217.855668 
L 236.340363 218.014465 
L 236.492621 217.946202 
L 236.644879 217.704561 
L 236.797137 218.019475 
L 237.101653 217.942444 
L 237.406169 217.72201 
L 237.710684 217.837808 
L 238.0152 218.00357 
L 239.081006 217.631424 
L 239.385522 217.968493 
L 239.690038 218.05088 
L 239.994554 217.725531 
L 240.146812 217.795794 
L 240.29907 217.738833 
L 240.755843 218.01898 
L 241.517133 217.857563 
L 241.669391 217.985976 
L 241.973907 217.641333 
L 242.126165 217.820534 
L 242.735197 217.837461 
L 242.887455 217.870052 
L 243.191971 217.628853 
L 243.648744 217.810424 
L 243.801002 217.537214 
L 244.105518 217.786235 
L 244.257776 217.613275 
L 244.562292 217.835794 
L 244.71455 217.794654 
L 245.019066 218.088149 
L 245.323582 218.065429 
L 245.780356 217.63723 
L 245.932614 217.722357 
L 246.084872 218.012775 
L 246.998419 217.9112 
L 247.302935 217.809075 
L 247.455193 218.007389 
L 247.607451 217.843967 
L 247.911967 217.927844 
L 248.520999 217.814179 
L 248.673257 217.765003 
L 248.825515 217.946474 
L 249.13003 217.78962 
L 249.586804 218.072333 
L 250.500352 217.650672 
L 250.65261 217.65875 
L 250.804868 217.836129 
L 250.957126 217.767189 
L 251.4139 218.002989 
L 251.566158 217.860699 
L 251.870674 217.838131 
L 253.088737 217.895582 
L 253.240995 217.640201 
L 253.393253 217.619687 
L 253.697769 217.995194 
L 253.850027 217.896113 
L 254.154543 218.093225 
L 254.459059 217.994583 
L 254.763575 217.830679 
L 254.915832 217.901079 
L 255.06809 217.843153 
L 255.220348 218.003234 
L 255.372606 217.866291 
L 255.677122 217.937653 
L 255.82938 218.074074 
L 255.981638 217.995512 
L 256.286154 218.064649 
L 256.59067 217.930438 
L 256.742928 217.986183 
L 257.047444 217.774006 
L 257.35196 217.919105 
L 258.265507 217.650269 
L 258.417765 217.41657 
L 258.874539 217.88682 
L 259.331313 218.064178 
L 259.635829 217.840792 
L 259.788087 217.951629 
L 259.940345 217.787334 
L 260.092603 217.960699 
L 260.397119 217.917216 
L 260.549377 217.917046 
L 260.701634 218.039621 
L 261.158408 217.999673 
L 261.310666 217.760719 
L 261.76744 217.846929 
L 261.919698 217.760865 
L 262.071956 217.973874 
L 262.224214 217.975718 
L 262.52873 217.666147 
L 262.833246 218.057992 
L 262.985504 217.890394 
L 263.29002 217.979019 
L 263.442278 217.86282 
L 263.746793 218.094404 
L 264.355825 217.861759 
L 264.508083 218.022311 
L 264.660341 217.898524 
L 264.812599 217.92142 
L 265.117115 217.796349 
L 265.269373 218.016552 
L 266.639694 217.945722 
L 267.096468 218.049849 
L 267.553242 217.683819 
L 268.010016 217.882207 
L 268.162274 218.122358 
L 268.314532 218.10326 
L 268.619048 217.871944 
L 268.923564 217.780753 
L 269.22808 217.99172 
L 269.380337 218.063776 
L 269.989369 217.665728 
L 270.293885 217.847387 
L 270.598401 217.852921 
L 270.750659 217.769394 
L 271.207433 218.078004 
L 271.359691 218.018619 
L 271.664207 218.060181 
L 272.120981 217.951572 
L 272.425496 217.927736 
L 272.577754 217.762941 
L 273.034528 217.821531 
L 273.186786 217.724581 
L 273.339044 217.968532 
L 273.491302 217.8259 
L 273.64356 217.974215 
L 273.795818 217.893226 
L 273.948076 218.050317 
L 274.40485 217.946194 
L 274.557108 217.808462 
L 274.861624 217.926162 
L 275.166139 217.778539 
L 275.318397 217.743041 
L 275.470655 217.992421 
L 275.927429 217.827378 
L 276.079687 217.959894 
L 276.384203 217.852551 
L 276.536461 217.568586 
L 276.840977 217.908389 
L 276.993235 217.782671 
L 277.145493 217.904308 
L 277.297751 217.716521 
L 277.602267 217.915776 
L 277.754525 217.739959 
L 278.05904 218.043955 
L 278.211298 217.840511 
L 278.515814 217.902527 
L 278.668072 217.81323 
L 278.82033 217.92862 
L 279.124846 217.90301 
L 279.277104 217.986788 
L 279.58162 217.750259 
L 280.190652 218.161651 
L 280.647426 218.089848 
L 280.951941 218.067729 
L 281.104199 217.966036 
L 281.256457 218.01581 
L 281.560973 217.88098 
L 281.713231 217.981337 
L 282.017747 217.72111 
L 282.474521 217.875664 
L 282.779037 218.084481 
L 282.931295 217.917419 
L 283.388069 217.98261 
L 283.844842 217.850883 
L 283.9971 217.726715 
L 284.149358 217.87365 
L 284.606132 217.716908 
L 284.75839 218.055661 
L 285.215164 217.991698 
L 285.367422 217.902853 
L 285.51968 218.057083 
L 286.28097 217.803412 
L 286.433228 217.629022 
L 286.890001 218.114145 
L 287.651291 217.90342 
L 287.803549 218.178015 
L 288.108065 217.979918 
L 288.260323 217.76497 
L 288.412581 218.075831 
L 289.630644 218.029304 
L 289.782902 218.13138 
L 289.93516 218.078525 
L 290.239676 217.775228 
L 290.391934 217.915471 
L 290.544192 217.700849 
L 290.69645 218.049344 
L 291.305482 217.706847 
L 291.45774 217.611047 
L 291.609998 217.992443 
L 291.914514 217.734161 
L 292.21903 217.890216 
L 292.371287 217.933156 
L 292.675803 218.130211 
L 292.828061 218.00128 
L 292.980319 218.101548 
L 293.132577 218.051908 
L 293.437093 217.815676 
L 293.741609 217.855634 
L 293.893867 218.067799 
L 294.350641 217.966835 
L 294.655157 218.16534 
L 294.807415 218.045812 
L 294.959673 218.127392 
L 295.111931 217.995721 
L 295.264188 218.150864 
L 295.568704 217.88993 
L 296.177736 218.165862 
L 296.329994 218.09008 
L 296.482252 217.886088 
L 296.939026 218.106306 
L 298.613863 217.93569 
L 298.918379 217.700315 
L 299.375153 217.945351 
L 299.984185 217.881038 
L 300.745475 218.007157 
L 301.04999 218.028997 
L 301.202248 218.133509 
L 301.354506 218.042088 
L 301.659022 218.145058 
L 301.81128 217.990717 
L 301.963538 218.094796 
L 302.420312 217.773785 
L 302.724828 217.957128 
L 303.790634 217.734966 
L 303.942891 218.041748 
L 305.008697 218.219838 
L 305.313213 218.058745 
L 305.465471 218.109108 
L 305.617729 217.959298 
L 305.922245 218.010572 
L 306.074503 217.890337 
L 306.683535 218.09948 
L 307.292566 218.102143 
L 307.901598 217.968682 
L 308.206114 218.192042 
L 309.880951 217.797354 
L 310.033209 217.823286 
L 310.185467 217.692613 
L 311.099015 218.065614 
L 311.555789 217.926295 
L 311.860305 218.059605 
L 312.012563 217.933123 
L 312.317079 217.963093 
L 312.621594 217.886802 
L 313.078368 218.074351 
L 313.382884 218.176311 
L 313.991916 217.941134 
L 314.144174 218.183896 
L 314.44869 218.201317 
L 314.600948 218.089607 
L 314.753206 218.152441 
L 315.057722 218.041375 
L 315.20998 218.144969 
L 315.514495 217.88161 
L 315.666753 217.804135 
L 315.971269 218.027041 
L 316.123527 217.895766 
L 316.275785 217.996023 
L 316.428043 217.898659 
L 316.884817 218.093925 
L 317.189333 218.126754 
L 318.255139 217.868258 
L 318.559654 217.818139 
L 318.86417 218.076506 
L 319.016428 218.17565 
L 319.168686 218.064355 
L 319.320944 218.138705 
L 319.777718 217.780761 
L 319.929976 218.026039 
L 320.38675 217.69335 
L 320.691266 217.941646 
L 320.843524 217.908662 
L 320.995782 218.038098 
L 321.452555 217.93715 
L 321.604813 218.111556 
L 322.213845 217.997794 
L 322.366103 217.8196 
L 322.518361 217.854976 
L 322.975135 217.66214 
L 323.127393 217.594036 
L 323.431909 217.791892 
L 323.584167 217.839384 
L 323.888683 217.739463 
L 324.80223 217.963363 
L 324.954488 218.139887 
L 326.020294 217.94051 
L 326.32481 217.993002 
L 326.477068 218.02152 
L 326.629326 217.903241 
L 327.238357 218.132801 
L 327.695131 217.748133 
L 327.999647 217.848511 
L 328.608679 217.983957 
L 328.760937 217.910636 
L 328.913195 217.698944 
L 329.065453 217.740586 
L 329.369969 218.09208 
L 329.522227 218.144162 
L 329.826742 217.947534 
L 329.979 218.077167 
L 330.131258 218.033934 
L 330.435774 218.089113 
L 331.197064 217.695895 
L 331.653838 218.034904 
L 332.26287 218.106877 
L 332.415128 217.916644 
L 332.719643 217.925326 
L 332.871901 217.9123 
L 333.024159 218.028195 
L 333.328675 217.779949 
L 333.480933 218.037281 
L 333.785449 217.801344 
L 333.937707 218.062749 
L 334.546739 217.934134 
L 334.851255 217.859078 
L 335.003513 218.173112 
L 335.155771 218.212108 
L 335.460287 217.870226 
L 335.612544 217.731961 
L 335.91706 217.974365 
L 336.069318 218.120014 
L 336.67835 218.076127 
L 336.982866 218.137694 
L 337.287382 217.928508 
L 337.43964 217.756071 
L 337.591898 217.969635 
L 337.896414 217.684551 
L 338.048672 217.797669 
L 338.20093 218.058767 
L 338.657703 217.896379 
L 338.809961 217.9306 
L 339.114477 217.768267 
L 339.266735 217.825631 
L 339.418993 218.033819 
L 340.484799 217.851433 
L 340.637057 218.066991 
L 341.246089 217.702537 
L 341.398346 217.88382 
L 341.85512 217.745165 
L 342.311894 218.077806 
L 342.768668 218.014149 
L 343.073184 218.193369 
L 343.529958 217.797799 
L 343.682216 217.898253 
L 343.986732 217.664761 
L 344.13899 217.928784 
L 344.291247 217.917526 
L 344.443505 217.777192 
L 344.748021 217.946102 
L 344.900279 218.077334 
L 345.052537 217.858374 
L 345.204795 217.893999 
L 345.357053 217.775439 
L 345.661569 217.963032 
L 345.813827 217.967812 
L 346.118343 218.09738 
L 346.270601 218.139968 
L 346.727375 217.809342 
L 346.879633 217.763783 
L 347.031891 218.102886 
L 347.336406 217.683774 
L 347.640922 217.866367 
L 347.79318 217.805498 
L 347.945438 217.594189 
L 348.249954 217.829856 
L 348.402212 217.780825 
L 348.55447 217.883559 
L 348.858986 217.686879 
L 349.011244 217.549257 
L 349.163502 217.799891 
L 349.468018 217.620036 
L 349.772534 217.850019 
L 349.924792 217.793331 
L 350.077049 217.566974 
L 350.381565 217.79848 
L 350.533823 217.684444 
L 350.686081 218.051025 
L 350.838339 218.091792 
L 350.990597 217.903268 
L 351.295113 217.843159 
L 351.447371 217.673635 
L 351.599629 217.718187 
L 351.751887 218.018704 
L 351.904145 218.060094 
L 352.056403 217.966822 
L 352.360919 218.154874 
L 352.665435 217.942383 
L 352.96995 217.748972 
L 353.122208 217.899121 
L 353.578982 217.495476 
L 353.883498 217.942966 
L 354.035756 217.986372 
L 354.340272 217.880276 
L 354.49253 217.998268 
L 354.644788 217.962341 
L 354.949304 218.09694 
L 355.25382 217.862948 
L 355.406078 218.044492 
L 355.558336 217.875128 
L 355.710594 217.950674 
L 356.015109 217.70062 
L 356.167367 217.735971 
L 356.624141 218.168502 
L 356.776399 218.025826 
L 357.233173 218.030861 
L 357.537689 218.010853 
L 357.689947 218.119472 
L 358.146721 218.011003 
L 358.298979 218.099569 
L 358.603495 217.790946 
L 358.90801 217.908599 
L 359.060268 217.914055 
L 359.212526 218.091719 
L 359.364784 218.062619 
L 359.821558 217.768329 
L 359.973816 218.155592 
L 360.278332 217.855166 
L 360.582848 218.256364 
L 361.039622 218.101205 
L 361.19188 218.154191 
L 361.344138 217.893479 
L 361.496395 218.039 
L 361.648653 218.02763 
L 362.105427 217.620541 
L 362.257685 217.653573 
L 362.409943 217.824295 
L 362.409943 217.824295 
" style="fill:none;stroke:#ff7f0e;stroke-linecap:square;stroke-width:1.5;"/>
   </g>
   <g id="patch_3">
    <path d="M 42.828125 228.14 
L 42.828125 10.7 
" style="fill:none;stroke:#000000;stroke-linecap:square;stroke-linejoin:miter;stroke-width:0.8;"/>
   </g>
   <g id="patch_4">
    <path d="M 377.628125 228.14 
L 377.628125 10.7 
" style="fill:none;stroke:#000000;stroke-linecap:square;stroke-linejoin:miter;stroke-width:0.8;"/>
   </g>
   <g id="patch_5">
    <path d="M 42.828125 228.14 
L 377.628125 228.14 
" style="fill:none;stroke:#000000;stroke-linecap:square;stroke-linejoin:miter;stroke-width:0.8;"/>
   </g>
   <g id="patch_6">
    <path d="M 42.828125 10.7 
L 377.628125 10.7 
" style="fill:none;stroke:#000000;stroke-linecap:square;stroke-linejoin:miter;stroke-width:0.8;"/>
   </g>
   <g id="legend_1">
    <g id="patch_7">
     <path d="M 299.4875 48.334375 
L 370.628125 48.334375 
Q 372.628125 48.334375 372.628125 46.334375 
L 372.628125 17.7 
Q 372.628125 15.7 370.628125 15.7 
L 299.4875 15.7 
Q 297.4875 15.7 297.4875 17.7 
L 297.4875 46.334375 
Q 297.4875 48.334375 299.4875 48.334375 
z
" style="fill:#ffffff;opacity:0.8;stroke:#cccccc;stroke-linejoin:miter;"/>
    </g>
    <g id="line2d_35">
     <path d="M 301.4875 23.798437 
L 321.4875 23.798437 
" style="fill:none;stroke:#1f77b4;stroke-linecap:square;stroke-width:1.5;"/>
    </g>
    <g id="line2d_36"/>
    <g id="text_17">
     <!-- loss -->
     <defs>
      <path d="M 9.421875 75.984375 
L 18.40625 75.984375 
L 18.40625 0 
L 9.421875 0 
z
" id="DejaVuSans-108"/>
      <path d="M 30.609375 48.390625 
Q 23.390625 48.390625 19.1875 42.75 
Q 14.984375 37.109375 14.984375 27.296875 
Q 14.984375 17.484375 19.15625 11.84375 
Q 23.34375 6.203125 30.609375 6.203125 
Q 37.796875 6.203125 41.984375 11.859375 
Q 46.1875 17.53125 46.1875 27.296875 
Q 46.1875 37.015625 41.984375 42.703125 
Q 37.796875 48.390625 30.609375 48.390625 
z
M 30.609375 56 
Q 42.328125 56 49.015625 48.375 
Q 55.71875 40.765625 55.71875 27.296875 
Q 55.71875 13.875 49.015625 6.21875 
Q 42.328125 -1.421875 30.609375 -1.421875 
Q 18.84375 -1.421875 12.171875 6.21875 
Q 5.515625 13.875 5.515625 27.296875 
Q 5.515625 40.765625 12.171875 48.375 
Q 18.84375 56 30.609375 56 
z
" id="DejaVuSans-111"/>
      <path d="M 44.28125 53.078125 
L 44.28125 44.578125 
Q 40.484375 46.53125 36.375 47.5 
Q 32.28125 48.484375 27.875 48.484375 
Q 21.1875 48.484375 17.84375 46.4375 
Q 14.5 44.390625 14.5 40.28125 
Q 14.5 37.15625 16.890625 35.375 
Q 19.28125 33.59375 26.515625 31.984375 
L 29.59375 31.296875 
Q 39.15625 29.25 43.1875 25.515625 
Q 47.21875 21.78125 47.21875 15.09375 
Q 47.21875 7.46875 41.1875 3.015625 
Q 35.15625 -1.421875 24.609375 -1.421875 
Q 20.21875 -1.421875 15.453125 -0.5625 
Q 10.6875 0.296875 5.421875 2 
L 5.421875 11.28125 
Q 10.40625 8.6875 15.234375 7.390625 
Q 20.0625 6.109375 24.8125 6.109375 
Q 31.15625 6.109375 34.5625 8.28125 
Q 37.984375 10.453125 37.984375 14.40625 
Q 37.984375 18.0625 35.515625 20.015625 
Q 33.0625 21.96875 24.703125 23.78125 
L 21.578125 24.515625 
Q 13.234375 26.265625 9.515625 29.90625 
Q 5.8125 33.546875 5.8125 39.890625 
Q 5.8125 47.609375 11.28125 51.796875 
Q 16.75 56 26.8125 56 
Q 31.78125 56 36.171875 55.265625 
Q 40.578125 54.546875 44.28125 53.078125 
z
" id="DejaVuSans-115"/>
     </defs>
     <g transform="translate(329.4875 27.298437)scale(0.1 -0.1)">
      <use xlink:href="#DejaVuSans-108"/>
      <use x="27.783203" xlink:href="#DejaVuSans-111"/>
      <use x="88.964844" xlink:href="#DejaVuSans-115"/>
      <use x="141.064453" xlink:href="#DejaVuSans-115"/>
     </g>
    </g>
    <g id="line2d_37">
     <path d="M 301.4875 38.476562 
L 321.4875 38.476562 
" style="fill:none;stroke:#ff7f0e;stroke-linecap:square;stroke-width:1.5;"/>
    </g>
    <g id="line2d_38"/>
    <g id="text_18">
     <!-- val_loss -->
     <defs>
      <path d="M 2.984375 54.6875 
L 12.5 54.6875 
L 29.59375 8.796875 
L 46.6875 54.6875 
L 56.203125 54.6875 
L 35.6875 0 
L 23.484375 0 
z
" id="DejaVuSans-118"/>
      <path d="M 34.28125 27.484375 
Q 23.390625 27.484375 19.1875 25 
Q 14.984375 22.515625 14.984375 16.5 
Q 14.984375 11.71875 18.140625 8.90625 
Q 21.296875 6.109375 26.703125 6.109375 
Q 34.1875 6.109375 38.703125 11.40625 
Q 43.21875 16.703125 43.21875 25.484375 
L 43.21875 27.484375 
z
M 52.203125 31.203125 
L 52.203125 0 
L 43.21875 0 
L 43.21875 8.296875 
Q 40.140625 3.328125 35.546875 0.953125 
Q 30.953125 -1.421875 24.3125 -1.421875 
Q 15.921875 -1.421875 10.953125 3.296875 
Q 6 8.015625 6 15.921875 
Q 6 25.140625 12.171875 29.828125 
Q 18.359375 34.515625 30.609375 34.515625 
L 43.21875 34.515625 
L 43.21875 35.40625 
Q 43.21875 41.609375 39.140625 45 
Q 35.0625 48.390625 27.6875 48.390625 
Q 23 48.390625 18.546875 47.265625 
Q 14.109375 46.140625 10.015625 43.890625 
L 10.015625 52.203125 
Q 14.9375 54.109375 19.578125 55.046875 
Q 24.21875 56 28.609375 56 
Q 40.484375 56 46.34375 49.84375 
Q 52.203125 43.703125 52.203125 31.203125 
z
" id="DejaVuSans-97"/>
      <path d="M 50.984375 -16.609375 
L 50.984375 -23.578125 
L -0.984375 -23.578125 
L -0.984375 -16.609375 
z
" id="DejaVuSans-95"/>
     </defs>
     <g transform="translate(329.4875 41.976562)scale(0.1 -0.1)">
      <use xlink:href="#DejaVuSans-118"/>
      <use x="59.179688" xlink:href="#DejaVuSans-97"/>
      <use x="120.458984" xlink:href="#DejaVuSans-108"/>
      <use x="148.242188" xlink:href="#DejaVuSans-95"/>
      <use x="198.242188" xlink:href="#DejaVuSans-108"/>
      <use x="226.025391" xlink:href="#DejaVuSans-111"/>
      <use x="287.207031" xlink:href="#DejaVuSans-115"/>
      <use x="339.306641" xlink:href="#DejaVuSans-115"/>
     </g>
    </g>
   </g>
  </g>
 </g>
 <defs>
  <clipPath id="pdb44733a46">
   <rect height="217.44" width="334.8" x="42.828125" y="10.7"/>
  </clipPath>
 </defs>
</svg>
