<?xml version="1.0" encoding="utf-8" standalone="no"?>
<!DOCTYPE svg PUBLIC "-//W3C//DTD SVG 1.1//EN"
  "http://www.w3.org/Graphics/SVG/1.1/DTD/svg11.dtd">
<!-- Created with matplotlib (https://matplotlib.org/) -->
<svg height="250.183366pt" version="1.1" viewBox="0 0 393.644015 250.183366" width="393.644015pt" xmlns="http://www.w3.org/2000/svg" xmlns:xlink="http://www.w3.org/1999/xlink">
 <metadata>
  <rdf:RDF xmlns:cc="http://creativecommons.org/ns#" xmlns:dc="http://purl.org/dc/elements/1.1/" xmlns:rdf="http://www.w3.org/1999/02/22-rdf-syntax-ns#">
   <cc:Work>
    <dc:type rdf:resource="http://purl.org/dc/dcmitype/StillImage"/>
    <dc:date>2020-12-30T03:45:17.422334</dc:date>
    <dc:format>image/svg+xml</dc:format>
    <dc:creator>
     <cc:Agent>
      <dc:title>Matplotlib v3.3.2, https://matplotlib.org/</dc:title>
     </cc:Agent>
    </dc:creator>
   </cc:Work>
  </rdf:RDF>
 </metadata>
 <defs>
  <style type="text/css">*{stroke-linecap:butt;stroke-linejoin:round;}</style>
 </defs>
 <g id="figure_1">
  <g id="patch_1">
   <path d="M 0 250.183366 
L 393.644015 250.183366 
L 393.644015 0 
L 0 0 
z
" style="fill:none;"/>
  </g>
  <g id="axes_1">
   <g id="patch_2">
    <path d="M 46.0125 226.305241 
L 380.8125 226.305241 
L 380.8125 8.865241 
L 46.0125 8.865241 
z
" style="fill:#ffffff;"/>
   </g>
   <g id="matplotlib.axis_1">
    <g id="xtick_1">
     <g id="line2d_1">
      <path clip-path="url(#p14990eeaae)" d="M 61.230682 226.305241 
L 61.230682 8.865241 
" style="fill:none;stroke:#b0b0b0;stroke-linecap:square;stroke-width:0.8;"/>
     </g>
     <g id="line2d_2">
      <defs>
       <path d="M 0 0 
L 0 3.5 
" id="mc5fdf3aca5" style="stroke:#000000;stroke-width:0.8;"/>
      </defs>
      <g>
       <use style="stroke:#000000;stroke-width:0.8;" x="61.230682" xlink:href="#mc5fdf3aca5" y="226.305241"/>
      </g>
     </g>
     <g id="text_1">
      <!-- 0 -->
      <g transform="translate(58.049432 240.903678)scale(0.1 -0.1)">
       <defs>
        <path d="M 31.78125 66.40625 
Q 24.171875 66.40625 20.328125 58.90625 
Q 16.5 51.421875 16.5 36.375 
Q 16.5 21.390625 20.328125 13.890625 
Q 24.171875 6.390625 31.78125 6.390625 
Q 39.453125 6.390625 43.28125 13.890625 
Q 47.125 21.390625 47.125 36.375 
Q 47.125 51.421875 43.28125 58.90625 
Q 39.453125 66.40625 31.78125 66.40625 
z
M 31.78125 74.21875 
Q 44.046875 74.21875 50.515625 64.515625 
Q 56.984375 54.828125 56.984375 36.375 
Q 56.984375 17.96875 50.515625 8.265625 
Q 44.046875 -1.421875 31.78125 -1.421875 
Q 19.53125 -1.421875 13.0625 8.265625 
Q 6.59375 17.96875 6.59375 36.375 
Q 6.59375 54.828125 13.0625 64.515625 
Q 19.53125 74.21875 31.78125 74.21875 
z
" id="DejaVuSans-48"/>
       </defs>
       <use xlink:href="#DejaVuSans-48"/>
      </g>
     </g>
    </g>
    <g id="xtick_2">
     <g id="line2d_3">
      <path clip-path="url(#p14990eeaae)" d="M 123.728348 226.305241 
L 123.728348 8.865241 
" style="fill:none;stroke:#b0b0b0;stroke-linecap:square;stroke-width:0.8;"/>
     </g>
     <g id="line2d_4">
      <g>
       <use style="stroke:#000000;stroke-width:0.8;" x="123.728348" xlink:href="#mc5fdf3aca5" y="226.305241"/>
      </g>
     </g>
     <g id="text_2">
      <!-- 200 -->
      <g transform="translate(114.184598 240.903678)scale(0.1 -0.1)">
       <defs>
        <path d="M 19.1875 8.296875 
L 53.609375 8.296875 
L 53.609375 0 
L 7.328125 0 
L 7.328125 8.296875 
Q 12.9375 14.109375 22.625 23.890625 
Q 32.328125 33.6875 34.8125 36.53125 
Q 39.546875 41.84375 41.421875 45.53125 
Q 43.3125 49.21875 43.3125 52.78125 
Q 43.3125 58.59375 39.234375 62.25 
Q 35.15625 65.921875 28.609375 65.921875 
Q 23.96875 65.921875 18.8125 64.3125 
Q 13.671875 62.703125 7.8125 59.421875 
L 7.8125 69.390625 
Q 13.765625 71.78125 18.9375 73 
Q 24.125 74.21875 28.421875 74.21875 
Q 39.75 74.21875 46.484375 68.546875 
Q 53.21875 62.890625 53.21875 53.421875 
Q 53.21875 48.921875 51.53125 44.890625 
Q 49.859375 40.875 45.40625 35.40625 
Q 44.1875 33.984375 37.640625 27.21875 
Q 31.109375 20.453125 19.1875 8.296875 
z
" id="DejaVuSans-50"/>
       </defs>
       <use xlink:href="#DejaVuSans-50"/>
       <use x="63.623047" xlink:href="#DejaVuSans-48"/>
       <use x="127.246094" xlink:href="#DejaVuSans-48"/>
      </g>
     </g>
    </g>
    <g id="xtick_3">
     <g id="line2d_5">
      <path clip-path="url(#p14990eeaae)" d="M 186.226015 226.305241 
L 186.226015 8.865241 
" style="fill:none;stroke:#b0b0b0;stroke-linecap:square;stroke-width:0.8;"/>
     </g>
     <g id="line2d_6">
      <g>
       <use style="stroke:#000000;stroke-width:0.8;" x="186.226015" xlink:href="#mc5fdf3aca5" y="226.305241"/>
      </g>
     </g>
     <g id="text_3">
      <!-- 400 -->
      <g transform="translate(176.682265 240.903678)scale(0.1 -0.1)">
       <defs>
        <path d="M 37.796875 64.3125 
L 12.890625 25.390625 
L 37.796875 25.390625 
z
M 35.203125 72.90625 
L 47.609375 72.90625 
L 47.609375 25.390625 
L 58.015625 25.390625 
L 58.015625 17.1875 
L 47.609375 17.1875 
L 47.609375 0 
L 37.796875 0 
L 37.796875 17.1875 
L 4.890625 17.1875 
L 4.890625 26.703125 
z
" id="DejaVuSans-52"/>
       </defs>
       <use xlink:href="#DejaVuSans-52"/>
       <use x="63.623047" xlink:href="#DejaVuSans-48"/>
       <use x="127.246094" xlink:href="#DejaVuSans-48"/>
      </g>
     </g>
    </g>
    <g id="xtick_4">
     <g id="line2d_7">
      <path clip-path="url(#p14990eeaae)" d="M 248.723682 226.305241 
L 248.723682 8.865241 
" style="fill:none;stroke:#b0b0b0;stroke-linecap:square;stroke-width:0.8;"/>
     </g>
     <g id="line2d_8">
      <g>
       <use style="stroke:#000000;stroke-width:0.8;" x="248.723682" xlink:href="#mc5fdf3aca5" y="226.305241"/>
      </g>
     </g>
     <g id="text_4">
      <!-- 600 -->
      <g transform="translate(239.179932 240.903678)scale(0.1 -0.1)">
       <defs>
        <path d="M 33.015625 40.375 
Q 26.375 40.375 22.484375 35.828125 
Q 18.609375 31.296875 18.609375 23.390625 
Q 18.609375 15.53125 22.484375 10.953125 
Q 26.375 6.390625 33.015625 6.390625 
Q 39.65625 6.390625 43.53125 10.953125 
Q 47.40625 15.53125 47.40625 23.390625 
Q 47.40625 31.296875 43.53125 35.828125 
Q 39.65625 40.375 33.015625 40.375 
z
M 52.59375 71.296875 
L 52.59375 62.3125 
Q 48.875 64.0625 45.09375 64.984375 
Q 41.3125 65.921875 37.59375 65.921875 
Q 27.828125 65.921875 22.671875 59.328125 
Q 17.53125 52.734375 16.796875 39.40625 
Q 19.671875 43.65625 24.015625 45.921875 
Q 28.375 48.1875 33.59375 48.1875 
Q 44.578125 48.1875 50.953125 41.515625 
Q 57.328125 34.859375 57.328125 23.390625 
Q 57.328125 12.15625 50.6875 5.359375 
Q 44.046875 -1.421875 33.015625 -1.421875 
Q 20.359375 -1.421875 13.671875 8.265625 
Q 6.984375 17.96875 6.984375 36.375 
Q 6.984375 53.65625 15.1875 63.9375 
Q 23.390625 74.21875 37.203125 74.21875 
Q 40.921875 74.21875 44.703125 73.484375 
Q 48.484375 72.75 52.59375 71.296875 
z
" id="DejaVuSans-54"/>
       </defs>
       <use xlink:href="#DejaVuSans-54"/>
       <use x="63.623047" xlink:href="#DejaVuSans-48"/>
       <use x="127.246094" xlink:href="#DejaVuSans-48"/>
      </g>
     </g>
    </g>
    <g id="xtick_5">
     <g id="line2d_9">
      <path clip-path="url(#p14990eeaae)" d="M 311.221348 226.305241 
L 311.221348 8.865241 
" style="fill:none;stroke:#b0b0b0;stroke-linecap:square;stroke-width:0.8;"/>
     </g>
     <g id="line2d_10">
      <g>
       <use style="stroke:#000000;stroke-width:0.8;" x="311.221348" xlink:href="#mc5fdf3aca5" y="226.305241"/>
      </g>
     </g>
     <g id="text_5">
      <!-- 800 -->
      <g transform="translate(301.677598 240.903678)scale(0.1 -0.1)">
       <defs>
        <path d="M 31.78125 34.625 
Q 24.75 34.625 20.71875 30.859375 
Q 16.703125 27.09375 16.703125 20.515625 
Q 16.703125 13.921875 20.71875 10.15625 
Q 24.75 6.390625 31.78125 6.390625 
Q 38.8125 6.390625 42.859375 10.171875 
Q 46.921875 13.96875 46.921875 20.515625 
Q 46.921875 27.09375 42.890625 30.859375 
Q 38.875 34.625 31.78125 34.625 
z
M 21.921875 38.8125 
Q 15.578125 40.375 12.03125 44.71875 
Q 8.5 49.078125 8.5 55.328125 
Q 8.5 64.0625 14.71875 69.140625 
Q 20.953125 74.21875 31.78125 74.21875 
Q 42.671875 74.21875 48.875 69.140625 
Q 55.078125 64.0625 55.078125 55.328125 
Q 55.078125 49.078125 51.53125 44.71875 
Q 48 40.375 41.703125 38.8125 
Q 48.828125 37.15625 52.796875 32.3125 
Q 56.78125 27.484375 56.78125 20.515625 
Q 56.78125 9.90625 50.3125 4.234375 
Q 43.84375 -1.421875 31.78125 -1.421875 
Q 19.734375 -1.421875 13.25 4.234375 
Q 6.78125 9.90625 6.78125 20.515625 
Q 6.78125 27.484375 10.78125 32.3125 
Q 14.796875 37.15625 21.921875 38.8125 
z
M 18.3125 54.390625 
Q 18.3125 48.734375 21.84375 45.5625 
Q 25.390625 42.390625 31.78125 42.390625 
Q 38.140625 42.390625 41.71875 45.5625 
Q 45.3125 48.734375 45.3125 54.390625 
Q 45.3125 60.0625 41.71875 63.234375 
Q 38.140625 66.40625 31.78125 66.40625 
Q 25.390625 66.40625 21.84375 63.234375 
Q 18.3125 60.0625 18.3125 54.390625 
z
" id="DejaVuSans-56"/>
       </defs>
       <use xlink:href="#DejaVuSans-56"/>
       <use x="63.623047" xlink:href="#DejaVuSans-48"/>
       <use x="127.246094" xlink:href="#DejaVuSans-48"/>
      </g>
     </g>
    </g>
    <g id="xtick_6">
     <g id="line2d_11">
      <path clip-path="url(#p14990eeaae)" d="M 373.719015 226.305241 
L 373.719015 8.865241 
" style="fill:none;stroke:#b0b0b0;stroke-linecap:square;stroke-width:0.8;"/>
     </g>
     <g id="line2d_12">
      <g>
       <use style="stroke:#000000;stroke-width:0.8;" x="373.719015" xlink:href="#mc5fdf3aca5" y="226.305241"/>
      </g>
     </g>
     <g id="text_6">
      <!-- 1000 -->
      <g transform="translate(360.994015 240.903678)scale(0.1 -0.1)">
       <defs>
        <path d="M 12.40625 8.296875 
L 28.515625 8.296875 
L 28.515625 63.921875 
L 10.984375 60.40625 
L 10.984375 69.390625 
L 28.421875 72.90625 
L 38.28125 72.90625 
L 38.28125 8.296875 
L 54.390625 8.296875 
L 54.390625 0 
L 12.40625 0 
z
" id="DejaVuSans-49"/>
       </defs>
       <use xlink:href="#DejaVuSans-49"/>
       <use x="63.623047" xlink:href="#DejaVuSans-48"/>
       <use x="127.246094" xlink:href="#DejaVuSans-48"/>
       <use x="190.869141" xlink:href="#DejaVuSans-48"/>
      </g>
     </g>
    </g>
   </g>
   <g id="matplotlib.axis_2">
    <g id="ytick_1">
     <g id="line2d_13">
      <path clip-path="url(#p14990eeaae)" d="M 46.0125 190.45177 
L 380.8125 190.45177 
" style="fill:none;stroke:#b0b0b0;stroke-linecap:square;stroke-width:0.8;"/>
     </g>
     <g id="line2d_14">
      <defs>
       <path d="M 0 0 
L -3.5 0 
" id="m6dbe20a1f6" style="stroke:#000000;stroke-width:0.8;"/>
      </defs>
      <g>
       <use style="stroke:#000000;stroke-width:0.8;" x="46.0125" xlink:href="#m6dbe20a1f6" y="190.45177"/>
      </g>
     </g>
     <g id="text_7">
      <!-- 18000 -->
      <g transform="translate(7.2 194.250988)scale(0.1 -0.1)">
       <use xlink:href="#DejaVuSans-49"/>
       <use x="63.623047" xlink:href="#DejaVuSans-56"/>
       <use x="127.246094" xlink:href="#DejaVuSans-48"/>
       <use x="190.869141" xlink:href="#DejaVuSans-48"/>
       <use x="254.492188" xlink:href="#DejaVuSans-48"/>
      </g>
     </g>
    </g>
    <g id="ytick_2">
     <g id="line2d_15">
      <path clip-path="url(#p14990eeaae)" d="M 46.0125 154.561259 
L 380.8125 154.561259 
" style="fill:none;stroke:#b0b0b0;stroke-linecap:square;stroke-width:0.8;"/>
     </g>
     <g id="line2d_16">
      <g>
       <use style="stroke:#000000;stroke-width:0.8;" x="46.0125" xlink:href="#m6dbe20a1f6" y="154.561259"/>
      </g>
     </g>
     <g id="text_8">
      <!-- 20000 -->
      <g transform="translate(7.2 158.360478)scale(0.1 -0.1)">
       <use xlink:href="#DejaVuSans-50"/>
       <use x="63.623047" xlink:href="#DejaVuSans-48"/>
       <use x="127.246094" xlink:href="#DejaVuSans-48"/>
       <use x="190.869141" xlink:href="#DejaVuSans-48"/>
       <use x="254.492188" xlink:href="#DejaVuSans-48"/>
      </g>
     </g>
    </g>
    <g id="ytick_3">
     <g id="line2d_17">
      <path clip-path="url(#p14990eeaae)" d="M 46.0125 118.670749 
L 380.8125 118.670749 
" style="fill:none;stroke:#b0b0b0;stroke-linecap:square;stroke-width:0.8;"/>
     </g>
     <g id="line2d_18">
      <g>
       <use style="stroke:#000000;stroke-width:0.8;" x="46.0125" xlink:href="#m6dbe20a1f6" y="118.670749"/>
      </g>
     </g>
     <g id="text_9">
      <!-- 22000 -->
      <g transform="translate(7.2 122.469968)scale(0.1 -0.1)">
       <use xlink:href="#DejaVuSans-50"/>
       <use x="63.623047" xlink:href="#DejaVuSans-50"/>
       <use x="127.246094" xlink:href="#DejaVuSans-48"/>
       <use x="190.869141" xlink:href="#DejaVuSans-48"/>
       <use x="254.492188" xlink:href="#DejaVuSans-48"/>
      </g>
     </g>
    </g>
    <g id="ytick_4">
     <g id="line2d_19">
      <path clip-path="url(#p14990eeaae)" d="M 46.0125 82.780239 
L 380.8125 82.780239 
" style="fill:none;stroke:#b0b0b0;stroke-linecap:square;stroke-width:0.8;"/>
     </g>
     <g id="line2d_20">
      <g>
       <use style="stroke:#000000;stroke-width:0.8;" x="46.0125" xlink:href="#m6dbe20a1f6" y="82.780239"/>
      </g>
     </g>
     <g id="text_10">
      <!-- 24000 -->
      <g transform="translate(7.2 86.579458)scale(0.1 -0.1)">
       <use xlink:href="#DejaVuSans-50"/>
       <use x="63.623047" xlink:href="#DejaVuSans-52"/>
       <use x="127.246094" xlink:href="#DejaVuSans-48"/>
       <use x="190.869141" xlink:href="#DejaVuSans-48"/>
       <use x="254.492188" xlink:href="#DejaVuSans-48"/>
      </g>
     </g>
    </g>
    <g id="ytick_5">
     <g id="line2d_21">
      <path clip-path="url(#p14990eeaae)" d="M 46.0125 46.889729 
L 380.8125 46.889729 
" style="fill:none;stroke:#b0b0b0;stroke-linecap:square;stroke-width:0.8;"/>
     </g>
     <g id="line2d_22">
      <g>
       <use style="stroke:#000000;stroke-width:0.8;" x="46.0125" xlink:href="#m6dbe20a1f6" y="46.889729"/>
      </g>
     </g>
     <g id="text_11">
      <!-- 26000 -->
      <g transform="translate(7.2 50.688948)scale(0.1 -0.1)">
       <use xlink:href="#DejaVuSans-50"/>
       <use x="63.623047" xlink:href="#DejaVuSans-54"/>
       <use x="127.246094" xlink:href="#DejaVuSans-48"/>
       <use x="190.869141" xlink:href="#DejaVuSans-48"/>
       <use x="254.492188" xlink:href="#DejaVuSans-48"/>
      </g>
     </g>
    </g>
    <g id="ytick_6">
     <g id="line2d_23">
      <path clip-path="url(#p14990eeaae)" d="M 46.0125 10.999219 
L 380.8125 10.999219 
" style="fill:none;stroke:#b0b0b0;stroke-linecap:square;stroke-width:0.8;"/>
     </g>
     <g id="line2d_24">
      <g>
       <use style="stroke:#000000;stroke-width:0.8;" x="46.0125" xlink:href="#m6dbe20a1f6" y="10.999219"/>
      </g>
     </g>
     <g id="text_12">
      <!-- 28000 -->
      <g transform="translate(7.2 14.798437)scale(0.1 -0.1)">
       <use xlink:href="#DejaVuSans-50"/>
       <use x="63.623047" xlink:href="#DejaVuSans-56"/>
       <use x="127.246094" xlink:href="#DejaVuSans-48"/>
       <use x="190.869141" xlink:href="#DejaVuSans-48"/>
       <use x="254.492188" xlink:href="#DejaVuSans-48"/>
      </g>
     </g>
    </g>
   </g>
   <g id="line2d_25">
    <path clip-path="url(#p14990eeaae)" d="M 61.230682 161.844162 
L 61.855658 164.353447 
L 62.168147 167.097097 
L 62.480635 165.962418 
L 62.793123 170.089289 
L 63.105612 167.351202 
L 63.4181 170.797408 
L 63.730588 175.852766 
L 64.043077 174.402072 
L 64.355565 171.20997 
L 64.668053 170.031684 
L 64.980542 174.462009 
L 65.29303 176.311088 
L 65.918007 165.285523 
L 66.230495 164.118902 
L 66.542983 165.887407 
L 66.855472 171.764658 
L 67.16796 169.849181 
L 67.480448 174.039398 
L 67.792937 173.974436 
L 68.105425 172.92446 
L 68.417913 174.10759 
L 68.730402 172.370131 
L 69.04289 174.1634 
L 69.355378 165.706519 
L 69.667867 164.266951 
L 69.980355 168.217957 
L 70.292843 164.646852 
L 70.91782 168.296199 
L 71.230308 168.00082 
L 71.542797 165.661476 
L 71.855285 165.68965 
L 72.167773 165.84057 
L 72.480262 167.418317 
L 72.79275 170.577938 
L 73.105238 170.371209 
L 73.417727 165.444339 
L 73.730215 162.371034 
L 74.355192 165.702751 
L 74.66768 166.330655 
L 74.980168 167.947881 
L 75.292657 166.789515 
L 75.605145 161.656634 
L 75.917633 161.133709 
L 76.54261 162.145283 
L 76.855098 161.916302 
L 77.480075 164.325632 
L 77.792563 171.76394 
L 78.105052 170.975605 
L 78.41754 167.795347 
L 78.730028 172.765106 
L 79.042517 168.865961 
L 79.355005 168.60378 
L 79.979982 174.134867 
L 80.29247 172.807456 
L 80.604958 175.911627 
L 80.917447 174.99606 
L 81.229935 179.737376 
L 81.542423 178.524815 
L 81.854912 176.133609 
L 82.1674 177.031052 
L 82.792377 182.792017 
L 83.104865 184.428804 
L 83.417353 184.076538 
L 83.729842 182.940065 
L 84.04233 182.69583 
L 84.354818 182.726517 
L 84.979795 174.73388 
L 85.604772 167.312619 
L 85.91726 167.986643 
L 86.229748 168.975965 
L 86.854725 164.508314 
L 87.167213 156.43295 
L 87.479702 157.378665 
L 88.104678 155.251255 
L 88.417167 156.644704 
L 88.729655 156.896834 
L 89.042143 156.00011 
L 89.354632 157.883285 
L 89.66712 162.567356 
L 89.979608 161.905176 
L 90.292097 160.334607 
L 90.604585 161.501048 
L 90.917073 159.173549 
L 91.229562 157.914689 
L 91.54205 160.180996 
L 92.167027 160.342323 
L 92.479515 160.83187 
L 92.792003 157.073057 
L 93.104492 151.379925 
L 93.41698 151.495851 
L 93.729468 154.921959 
L 94.041957 154.837257 
L 94.354445 156.189612 
L 94.666933 154.323305 
L 94.979422 156.201815 
L 95.604398 156.651523 
L 95.916887 157.579292 
L 96.541863 153.345468 
L 96.854352 150.426493 
L 97.16684 152.070637 
L 97.479328 152.578129 
L 98.104305 151.809355 
L 98.416793 150.521962 
L 98.729282 152.221019 
L 99.04177 150.60792 
L 99.354258 153.96135 
L 99.666747 153.559914 
L 99.979235 153.98073 
L 100.291723 153.096388 
L 100.9167 155.833757 
L 101.541677 151.053321 
L 101.854165 152.795805 
L 102.166653 152.770144 
L 102.479142 152.428286 
L 102.79163 154.562875 
L 103.104118 154.186921 
L 103.416607 151.966555 
L 103.729095 152.77122 
L 104.041583 154.997868 
L 104.354072 155.365207 
L 104.66656 153.661125 
L 104.979048 153.132099 
L 105.291537 155.281941 
L 105.604025 155.903923 
L 105.916513 154.816262 
L 106.229002 153.124921 
L 106.54149 154.036181 
L 106.853978 155.41671 
L 107.166467 153.558299 
L 107.478955 154.632861 
L 107.791443 159.250175 
L 108.103932 159.411144 
L 108.41642 162.868118 
L 108.728908 158.988174 
L 109.353885 159.89764 
L 109.666373 164.064887 
L 109.978862 165.451696 
L 110.29135 165.618408 
L 110.603838 164.706789 
L 110.916327 166.158022 
L 111.228815 164.384313 
L 111.541303 164.432944 
L 111.853792 166.000462 
L 112.478768 160.909573 
L 112.791257 160.097909 
L 113.416233 165.583056 
L 113.728722 166.082652 
L 114.04121 165.390862 
L 114.353698 167.5748 
L 114.978675 158.569871 
L 115.291163 156.969154 
L 115.603652 158.016798 
L 115.91614 156.185305 
L 116.228628 149.188809 
L 116.541117 148.989976 
L 116.853605 148.325642 
L 117.166093 149.241389 
L 117.478582 147.426585 
L 118.103558 149.768979 
L 118.416047 148.045158 
L 118.728535 148.167724 
L 119.041023 147.36916 
L 119.353512 143.541617 
L 119.666 143.315686 
L 119.978488 143.28159 
L 120.290977 142.166292 
L 120.603465 139.783162 
L 121.228442 137.428566 
L 121.54093 133.83126 
L 122.165907 130.584245 
L 122.478395 130.10098 
L 122.790883 128.567199 
L 123.103372 128.403538 
L 123.41586 124.114442 
L 123.728348 122.167023 
L 124.040837 123.917583 
L 124.353325 123.340464 
L 124.665813 118.519112 
L 125.29079 118.462405 
L 125.603278 111.132307 
L 125.915767 108.996103 
L 126.228255 108.830469 
L 126.540743 101.845278 
L 126.853232 102.272016 
L 127.16572 103.081527 
L 127.478208 106.442494 
L 127.790697 111.833787 
L 128.103185 111.851373 
L 128.415673 118.16254 
L 128.728162 112.369811 
L 129.04065 111.550072 
L 129.353138 113.973399 
L 129.978115 109.282689 
L 130.290603 108.785606 
L 130.603092 109.770082 
L 130.91558 109.945048 
L 131.853045 103.973047 
L 132.478022 107.501981 
L 132.79051 115.493721 
L 133.415487 104.115712 
L 133.727975 101.825 
L 134.040463 103.127108 
L 134.352952 105.06699 
L 134.66544 106.208667 
L 134.977928 108.743075 
L 135.290417 102.488257 
L 135.602905 103.094268 
L 135.915393 102.668606 
L 136.227882 103.128364 
L 136.852858 101.816925 
L 137.165347 102.6512 
L 137.477835 102.318853 
L 137.790323 104.602028 
L 138.102812 104.943706 
L 138.4153 91.639273 
L 139.040277 85.472207 
L 139.977742 88.992528 
L 140.29023 87.89679 
L 140.602718 83.645021 
L 141.227695 87.026625 
L 141.540183 86.224651 
L 141.852672 86.076244 
L 142.16516 80.552336 
L 142.477648 83.842957 
L 142.790137 88.711325 
L 143.102625 89.386246 
L 143.415113 89.431827 
L 143.727602 95.486018 
L 144.04009 98.961655 
L 144.352578 92.002126 
L 144.665067 95.798983 
L 144.977555 106.43065 
L 145.290043 125.665092 
L 145.602532 125.034675 
L 145.91502 120.629294 
L 146.227508 129.749791 
L 146.852485 133.849384 
L 147.78995 115.993138 
L 148.102438 120.014849 
L 148.414927 119.194571 
L 148.727415 123.400401 
L 149.039903 120.59484 
L 149.66488 111.674612 
L 150.289857 123.615205 
L 150.602345 133.356428 
L 150.914833 135.860689 
L 151.227322 129.119195 
L 151.53981 132.080879 
L 152.164787 128.196091 
L 152.477275 121.828576 
L 152.789763 119.243203 
L 153.102252 122.667337 
L 153.41474 122.188917 
L 153.727228 124.47586 
L 154.039717 127.986131 
L 154.352205 129.779401 
L 154.664693 125.992593 
L 154.977182 143.473604 
L 155.28967 140.8134 
L 155.602158 130.921616 
L 155.914647 136.054138 
L 156.227135 133.761273 
L 156.539623 128.463475 
L 156.852112 129.642837 
L 157.1646 131.370786 
L 157.477088 130.881598 
L 157.789577 125.033778 
L 158.102065 126.431713 
L 158.727042 122.361729 
L 159.03953 124.28582 
L 159.352018 124.767111 
L 159.664507 122.641316 
L 159.976995 121.622205 
L 160.289483 121.405786 
L 160.601972 115.83181 
L 160.91446 115.239975 
L 161.226948 115.759311 
L 161.539437 117.090849 
L 161.851925 113.679815 
L 162.164413 114.806777 
L 162.476902 112.935266 
L 162.78939 110.274703 
L 163.101878 109.554021 
L 163.414367 110.186592 
L 163.726855 110.287444 
L 164.039343 109.542177 
L 164.351832 111.333293 
L 164.66432 109.748727 
L 164.976808 105.059632 
L 165.289297 103.132671 
L 165.601785 103.991172 
L 165.914273 105.799874 
L 166.53925 101.975202 
L 166.851738 100.682964 
L 167.164227 101.437203 
L 167.789203 110.828493 
L 168.101692 110.581208 
L 168.41418 110.037467 
L 168.726668 112.238631 
L 169.039157 118.338403 
L 169.351645 115.049038 
L 169.664133 115.59583 
L 169.976622 110.129885 
L 170.601598 107.441865 
L 170.914087 103.897139 
L 171.226575 106.20777 
L 171.851552 102.908534 
L 172.16404 101.328814 
L 172.476528 105.416204 
L 172.789017 103.385878 
L 173.101505 106.462054 
L 173.413993 113.673355 
L 173.726482 108.703416 
L 174.03897 106.23397 
L 174.663947 112.602561 
L 174.976435 112.533472 
L 175.288923 113.793767 
L 175.601412 113.818532 
L 175.9139 113.20624 
L 176.226388 122.045713 
L 176.538877 122.519289 
L 176.851365 123.748539 
L 177.163853 126.800129 
L 178.101318 115.137508 
L 178.413807 119.887258 
L 178.726295 115.297759 
L 179.038783 107.951151 
L 179.66376 104.418807 
L 179.976248 104.948372 
L 180.288737 106.147115 
L 180.601225 111.546662 
L 181.226202 107.647876 
L 181.53869 108.139217 
L 181.851178 105.880269 
L 182.163667 108.893456 
L 182.476155 108.734103 
L 182.788643 105.271027 
L 183.101132 109.473268 
L 183.41362 109.24626 
L 183.726108 109.566762 
L 184.038597 106.777711 
L 184.351085 107.108442 
L 184.663573 107.932488 
L 184.976062 113.321628 
L 185.28855 121.229204 
L 185.601038 112.280803 
L 185.913527 115.005969 
L 186.226015 115.224542 
L 186.538503 113.818711 
L 186.850992 115.099644 
L 187.16348 114.727638 
L 187.475968 112.164697 
L 187.788457 111.29848 
L 188.413433 104.321005 
L 188.725922 104.072823 
L 189.350898 103.06735 
L 189.663387 103.145412 
L 189.975875 105.976635 
L 190.288363 106.164701 
L 191.225828 113.160479 
L 191.538317 111.975554 
L 191.850805 106.742718 
L 192.163293 107.820869 
L 192.78827 99.026617 
L 193.413247 88.656951 
L 193.725735 88.613703 
L 194.038223 85.114378 
L 194.6632 82.173869 
L 194.975688 86.427792 
L 195.288177 80.626091 
L 195.600665 78.370013 
L 195.913153 77.923894 
L 196.850618 86.661439 
L 197.163107 92.302171 
L 197.475595 91.644477 
L 197.788083 108.067616 
L 198.100572 106.204898 
L 198.41306 113.802202 
L 199.038037 103.576636 
L 199.663013 109.122438 
L 199.975502 107.637648 
L 200.28799 118.477299 
L 200.600478 117.034501 
L 200.912967 131.793576 
L 201.225455 133.30331 
L 201.537943 133.927805 
L 201.850432 128.409819 
L 202.16292 120.098115 
L 202.475408 124.27595 
L 202.787897 114.298208 
L 203.100385 120.483399 
L 203.412873 116.019338 
L 203.725362 117.131046 
L 204.03785 109.932846 
L 204.350338 114.179949 
L 204.662827 113.827684 
L 204.975315 122.071016 
L 205.287803 121.425705 
L 205.600292 122.194838 
L 205.91278 124.40713 
L 206.225268 121.880079 
L 206.537757 126.151767 
L 206.850245 127.50807 
L 207.78771 119.524943 
L 208.100198 115.49408 
L 208.725175 112.370888 
L 209.037663 108.356534 
L 209.350152 118.023823 
L 209.66264 120.118393 
L 209.975128 127.614306 
L 210.287617 124.436919 
L 210.600105 132.677021 
L 210.912593 133.959748 
L 211.225082 125.799502 
L 211.53757 121.969267 
L 211.850058 129.889584 
L 212.162547 127.519913 
L 212.475035 134.544225 
L 212.787523 136.832783 
L 213.100012 147.516311 
L 213.4125 151.578938 
L 213.724988 169.711721 
L 214.037477 166.637339 
L 214.349965 153.168349 
L 214.662453 154.296208 
L 214.974942 162.421999 
L 215.28743 153.861933 
L 215.912407 146.897559 
L 216.224895 151.621827 
L 216.849872 144.596439 
L 217.16236 146.615998 
L 217.474848 147.342422 
L 217.787337 142.608463 
L 218.099825 141.652699 
L 218.412313 143.382981 
L 219.03729 144.249378 
L 219.349778 140.679528 
L 219.662267 142.914789 
L 219.974755 142.634125 
L 220.287243 144.574007 
L 220.599732 140.680784 
L 220.91222 140.4134 
L 221.224708 138.701781 
L 221.537197 139.407389 
L 221.849685 138.87603 
L 222.162173 141.079348 
L 222.474662 148.582439 
L 222.78715 139.052791 
L 223.099638 134.023274 
L 223.412127 134.108873 
L 223.724615 138.399224 
L 224.037103 131.558134 
L 224.349592 131.184873 
L 224.66208 128.872806 
L 224.974568 128.285279 
L 225.287057 128.980119 
L 225.599545 127.136782 
L 225.912033 128.551586 
L 226.224522 126.62929 
L 226.53701 129.70421 
L 227.161987 121.864287 
L 227.786963 125.906097 
L 228.099452 128.432789 
L 228.41194 136.157324 
L 228.724428 134.371232 
L 229.036917 127.577159 
L 229.349405 131.407574 
L 229.661893 131.465357 
L 230.28687 126.127003 
L 230.599358 126.443737 
L 230.911847 125.68878 
L 231.224335 125.358228 
L 231.536823 137.026771 
L 231.849312 128.928437 
L 232.1618 129.819598 
L 232.474288 136.010173 
L 232.786777 132.922691 
L 233.099265 127.481331 
L 233.411753 127.548088 
L 233.724242 123.817269 
L 234.03673 123.606592 
L 234.349218 122.125211 
L 234.661707 122.948001 
L 234.974195 122.213322 
L 235.286683 124.277385 
L 235.599172 123.850109 
L 235.91166 120.993583 
L 236.224148 115.636027 
L 236.849125 113.682507 
L 237.161613 117.053523 
L 237.474102 115.071649 
L 237.78659 114.760478 
L 238.099078 114.009649 
L 238.411567 115.081698 
L 238.724055 113.151148 
L 239.036543 114.027773 
L 239.66152 125.802373 
L 239.974008 129.399679 
L 240.286497 130.426327 
L 240.911473 135.409545 
L 241.223962 133.232247 
L 241.53645 135.485812 
L 241.848938 132.128076 
L 242.161427 131.201383 
L 242.473915 131.72682 
L 242.786403 131.530857 
L 243.098892 133.903759 
L 243.41138 134.512462 
L 244.036357 131.947726 
L 244.348845 136.555529 
L 244.661333 137.647318 
L 244.973822 143.772752 
L 245.28631 147.187913 
L 245.598798 147.229905 
L 245.911287 140.633947 
L 246.223775 140.670914 
L 246.536263 138.684913 
L 246.848752 134.203803 
L 247.16124 132.950148 
L 247.786217 136.041756 
L 248.098705 134.518383 
L 248.411193 134.390793 
L 248.723682 137.10573 
L 249.03617 130.624622 
L 249.348658 128.309864 
L 249.661147 131.974644 
L 249.973635 131.483841 
L 250.598612 135.062125 
L 250.9111 130.547457 
L 251.223588 131.66455 
L 251.536077 123.516507 
L 251.848565 123.080437 
L 252.161053 125.16406 
L 252.78603 123.222025 
L 253.098518 127.026957 
L 253.411007 126.474243 
L 253.723495 127.04257 
L 254.035983 125.067694 
L 254.348472 124.307354 
L 254.66096 127.010807 
L 254.973448 128.19645 
L 255.285937 135.786216 
L 255.598425 128.23575 
L 255.910913 129.136601 
L 256.223402 125.474154 
L 256.53589 123.88259 
L 256.848378 123.039522 
L 257.160867 124.805335 
L 257.473355 125.547371 
L 257.785843 123.887255 
L 258.098332 127.257015 
L 258.41082 126.907801 
L 259.035797 141.635472 
L 259.348285 144.057722 
L 259.660773 145.291458 
L 260.28575 142.27199 
L 260.598238 146.388272 
L 260.910727 142.804784 
L 261.223215 147.281767 
L 261.535703 147.045607 
L 262.16068 142.408374 
L 262.473168 143.460863 
L 262.785657 143.29146 
L 263.098145 141.803798 
L 263.410633 149.87683 
L 263.723122 146.376788 
L 264.03561 145.957945 
L 264.348098 146.289753 
L 264.660587 141.92116 
L 264.973075 143.431792 
L 265.285563 143.342604 
L 265.598052 142.912277 
L 265.91054 135.073789 
L 266.848005 129.57967 
L 267.78547 118.880888 
L 268.097958 118.647062 
L 268.410447 119.375818 
L 268.722935 117.873083 
L 269.035423 117.251459 
L 269.347912 116.89704 
L 269.6604 118.309152 
L 269.972888 117.80507 
L 270.597865 123.052263 
L 270.910353 120.730147 
L 271.222842 122.643649 
L 271.53533 130.483393 
L 271.847818 129.254861 
L 272.160307 129.882047 
L 272.472795 126.068142 
L 272.785283 128.426149 
L 273.097772 126.710582 
L 273.41026 122.280078 
L 274.035237 110.184079 
L 274.347725 110.562006 
L 274.972702 108.820599 
L 275.28519 107.448146 
L 275.597678 105.201041 
L 276.222655 103.107368 
L 276.535143 101.189738 
L 276.847632 103.540746 
L 277.16012 102.03478 
L 277.472608 103.403465 
L 277.785097 96.203469 
L 278.097585 95.273367 
L 278.410073 94.797818 
L 278.722562 93.693287 
L 279.03505 94.770541 
L 279.347538 91.393782 
L 279.972515 98.185343 
L 280.597492 93.24663 
L 281.534957 100.033166 
L 281.847445 98.699834 
L 282.159933 95.470944 
L 282.78491 92.8696 
L 283.097398 93.383373 
L 283.409887 95.451204 
L 283.722375 91.223482 
L 284.034863 93.909707 
L 284.347352 98.298757 
L 284.65984 95.340303 
L 284.972328 94.365696 
L 285.284817 92.996473 
L 285.909793 93.693467 
L 286.222282 93.10217 
L 286.53477 82.365704 
L 286.847258 83.635331 
L 287.159747 81.593699 
L 287.472235 83.956909 
L 288.097212 86.070861 
L 288.722188 85.820524 
L 289.034677 86.676692 
L 289.347165 84.127569 
L 289.659653 85.692395 
L 289.972142 88.942281 
L 290.28463 97.049229 
L 290.597118 90.394052 
L 290.909607 97.051024 
L 291.222095 87.448338 
L 291.534583 85.461799 
L 291.847072 82.328557 
L 292.15956 84.277232 
L 292.472048 83.980238 
L 292.784537 82.039818 
L 293.097025 81.281631 
L 293.409513 85.210744 
L 293.722002 82.217655 
L 294.03449 86.45112 
L 294.346978 85.881538 
L 294.659467 94.56112 
L 294.971955 96.854523 
L 295.284443 93.917064 
L 295.596932 101.124776 
L 295.90942 97.043487 
L 296.221908 101.229038 
L 296.534397 99.207505 
L 296.846885 94.990908 
L 297.159373 85.048699 
L 297.471862 85.867182 
L 297.78435 88.415408 
L 298.096838 85.270861 
L 298.409327 85.871668 
L 299.034303 91.335819 
L 299.346792 97.247704 
L 299.65928 93.53483 
L 299.971768 92.127025 
L 300.284257 93.785346 
L 300.596745 107.806512 
L 300.909233 111.022661 
L 301.221722 119.599775 
L 301.53421 134.050551 
L 301.846698 130.441401 
L 302.159187 135.131393 
L 302.471675 134.820402 
L 302.784163 130.709862 
L 303.096652 141.106804 
L 303.40914 159.967088 
L 303.721628 156.945825 
L 304.034117 165.040212 
L 304.971582 208.360416 
L 305.28407 208.190116 
L 305.596558 213.304155 
L 305.909047 216.421604 
L 306.221535 210.410841 
L 306.846512 162.6971 
L 307.159 178.525353 
L 307.471488 165.518094 
L 307.783977 170.981706 
L 308.096465 173.995791 
L 308.408953 189.27797 
L 308.721442 193.704885 
L 309.03393 193.678506 
L 309.346418 180.109919 
L 309.971395 166.167533 
L 310.283883 166.301584 
L 310.596372 163.560805 
L 310.90886 171.72769 
L 311.221348 161.042906 
L 311.533837 162.635009 
L 311.846325 167.298802 
L 312.158813 156.404955 
L 312.471302 160.498985 
L 312.78379 167.467846 
L 313.096278 170.030967 
L 313.408767 164.800104 
L 313.721255 167.804858 
L 314.033743 158.451432 
L 314.346232 158.667313 
L 314.65872 151.085443 
L 314.971208 161.392121 
L 315.283697 160.397595 
L 315.596185 151.347444 
L 315.908673 147.550766 
L 316.221162 147.984682 
L 316.53365 149.768979 
L 316.846138 156.090554 
L 317.471115 152.16144 
L 317.783603 146.782889 
L 318.096092 143.881141 
L 318.40858 144.649916 
L 318.721068 147.595629 
L 319.033557 141.252161 
L 319.346045 131.74979 
L 319.658533 129.092815 
L 319.971022 120.172588 
L 320.28351 120.862044 
L 320.595998 117.551145 
L 321.220975 107.65667 
L 321.533463 106.185518 
L 321.845952 103.170894 
L 322.15844 97.529444 
L 322.470928 99.091938 
L 322.783417 98.483235 
L 323.095905 110.184259 
L 323.408393 113.188833 
L 323.720882 127.087971 
L 324.03337 108.222842 
L 324.658347 112.291929 
L 324.970835 110.078741 
L 325.283323 110.823828 
L 325.595812 108.817907 
L 325.9083 109.082241 
L 326.220788 114.008751 
L 326.533277 109.481343 
L 326.845765 118.759758 
L 327.158253 113.500003 
L 327.470742 116.486273 
L 327.78323 116.05146 
L 328.095718 113.170887 
L 328.408207 105.849941 
L 328.720695 107.63998 
L 329.033183 110.799063 
L 329.345672 109.172505 
L 329.65816 113.45209 
L 329.970648 104.58839 
L 330.283137 108.136705 
L 330.595625 101.703511 
L 330.908113 104.846443 
L 331.220602 106.173315 
L 331.53309 105.795388 
L 331.845578 102.803196 
L 332.158067 105.182916 
L 332.470555 105.824638 
L 332.783043 106.873897 
L 333.095532 111.544509 
L 333.40802 112.58318 
L 333.720508 123.874873 
L 334.345485 108.376274 
L 334.657973 109.431635 
L 335.28295 112.749892 
L 335.595438 105.207501 
L 335.907927 103.525672 
L 336.220415 96.246179 
L 336.532903 95.532855 
L 336.845392 98.989291 
L 337.15788 99.808851 
L 337.470368 98.74057 
L 337.782857 102.867799 
L 338.095345 102.155731 
L 338.407833 100.985521 
L 338.720322 95.399881 
L 339.03281 95.505937 
L 339.345298 96.977448 
L 339.657787 102.83137 
L 339.970275 98.217465 
L 340.282763 98.247793 
L 340.595252 96.290324 
L 340.90774 92.37144 
L 341.220228 97.039 
L 341.532717 99.111318 
L 341.845205 95.806161 
L 342.157693 100.141556 
L 342.78267 93.430927 
L 343.095158 90.688713 
L 343.407647 92.562377 
L 343.720135 92.191987 
L 344.032623 94.994318 
L 344.345112 94.259819 
L 344.6576 94.507643 
L 344.970088 99.149542 
L 345.282577 97.053536 
L 345.595065 91.544343 
L 345.907553 91.051207 
L 346.220042 97.403469 
L 346.53253 97.403469 
L 346.845018 100.188931 
L 347.157507 95.124062 
L 347.469995 92.942099 
L 347.782483 93.137881 
L 348.094972 89.113658 
L 348.40746 89.604999 
L 348.719948 90.69966 
L 349.032437 89.926399 
L 349.344925 89.478664 
L 349.969902 93.356634 
L 350.28239 88.681895 
L 350.594878 90.549817 
L 350.907367 89.250221 
L 351.219855 92.214598 
L 351.532343 91.455155 
L 351.844832 91.854437 
L 352.15732 92.007689 
L 352.782297 94.768746 
L 353.094785 101.135902 
L 353.719762 88.249414 
L 354.03225 80.890963 
L 354.344738 76.943904 
L 354.657227 67.709096 
L 354.969715 66.529196 
L 355.282203 58.561323 
L 355.594692 55.48766 
L 355.90718 57.910448 
L 356.219668 48.559894 
L 356.532157 46.627369 
L 356.844645 51.768326 
L 357.469622 55.371195 
L 357.78211 43.918174 
L 358.094598 41.562501 
L 358.407087 37.247564 
L 358.719575 35.320244 
L 359.032063 39.108307 
L 359.344552 32.757123 
L 359.969528 32.365378 
L 360.282017 33.408535 
L 360.594505 37.065778 
L 360.906993 38.507859 
L 361.219482 32.211587 
L 361.53197 33.318809 
L 361.844458 35.180091 
L 362.156947 33.745906 
L 362.469435 34.546265 
L 363.094412 32.41383 
L 363.719388 34.06928 
L 364.031877 39.058599 
L 364.344365 37.472239 
L 364.656853 34.896018 
L 364.969342 35.106695 
L 365.28183 31.563943 
L 365.594318 18.748877 
L 365.594318 18.748877 
" style="fill:none;stroke:#1f77b4;stroke-linecap:square;stroke-width:1.5;"/>
   </g>
   <g id="line2d_26">
    <path clip-path="url(#p14990eeaae)" d="M 61.230682 163.1626 
L 61.54317 164.353447 
L 61.855658 167.097097 
L 62.168147 165.962418 
L 62.480635 170.089289 
L 62.793123 167.351202 
L 63.105612 170.797408 
L 63.4181 175.852766 
L 63.730588 174.402072 
L 64.043077 171.20997 
L 64.355565 170.031684 
L 64.668053 174.462009 
L 64.980542 176.311088 
L 65.605518 165.285523 
L 65.918007 164.118902 
L 66.230495 165.887407 
L 66.542983 171.764658 
L 66.855472 169.849181 
L 67.16796 174.039398 
L 67.480448 173.974436 
L 67.792937 172.92446 
L 68.105425 174.10759 
L 68.417913 172.370131 
L 68.730402 174.1634 
L 69.04289 165.706519 
L 69.355378 164.266951 
L 69.667867 168.217957 
L 69.980355 164.646852 
L 70.605332 168.296199 
L 70.91782 168.00082 
L 71.230308 165.661476 
L 71.542797 165.68965 
L 71.855285 165.84057 
L 72.167773 167.418317 
L 72.480262 170.577938 
L 72.79275 170.371209 
L 73.105238 165.444339 
L 73.417727 162.371034 
L 74.042703 165.702751 
L 74.355192 166.330655 
L 74.66768 167.947881 
L 74.980168 166.789515 
L 75.292657 161.656634 
L 75.605145 161.133709 
L 76.230122 162.145283 
L 76.54261 161.916302 
L 77.167587 164.325632 
L 77.480075 171.76394 
L 77.792563 170.975605 
L 78.105052 167.795347 
L 78.41754 172.765106 
L 78.730028 168.865961 
L 79.042517 168.60378 
L 79.667493 174.134867 
L 79.979982 172.807456 
L 80.29247 175.911627 
L 80.604958 174.99606 
L 80.917447 179.737376 
L 81.229935 178.524815 
L 81.542423 176.133609 
L 81.854912 177.031052 
L 82.479888 182.792017 
L 82.792377 184.428804 
L 83.104865 184.076538 
L 83.417353 182.940065 
L 83.729842 182.69583 
L 84.04233 182.726517 
L 84.667307 174.73388 
L 85.292283 167.312619 
L 85.604772 167.986643 
L 85.91726 168.975965 
L 86.542237 164.508314 
L 86.854725 156.43295 
L 87.167213 157.378665 
L 87.79219 155.251255 
L 88.104678 156.644704 
L 88.417167 156.896834 
L 88.729655 156.00011 
L 89.042143 157.883285 
L 89.354632 162.567356 
L 89.66712 161.905176 
L 89.979608 160.334607 
L 90.292097 161.501048 
L 90.604585 159.173549 
L 90.917073 157.914689 
L 91.229562 160.180996 
L 91.854538 160.342323 
L 92.167027 160.83187 
L 92.479515 132.702782 
L 365.594318 132.702782 
L 365.594318 132.702782 
" style="fill:none;stroke:#ff7f0e;stroke-linecap:square;stroke-width:1.5;"/>
   </g>
   <g id="patch_3">
    <path d="M 46.0125 226.305241 
L 46.0125 8.865241 
" style="fill:none;stroke:#000000;stroke-linecap:square;stroke-linejoin:miter;stroke-width:0.8;"/>
   </g>
   <g id="patch_4">
    <path d="M 380.8125 226.305241 
L 380.8125 8.865241 
" style="fill:none;stroke:#000000;stroke-linecap:square;stroke-linejoin:miter;stroke-width:0.8;"/>
   </g>
   <g id="patch_5">
    <path d="M 46.0125 226.305241 
L 380.8125 226.305241 
" style="fill:none;stroke:#000000;stroke-linecap:square;stroke-linejoin:miter;stroke-width:0.8;"/>
   </g>
   <g id="patch_6">
    <path d="M 46.0125 8.865241 
L 380.8125 8.865241 
" style="fill:none;stroke:#000000;stroke-linecap:square;stroke-linejoin:miter;stroke-width:0.8;"/>
   </g>
   <g id="legend_1">
    <g id="patch_7">
     <path d="M 53.0125 46.221491 
L 164.0375 46.221491 
Q 166.0375 46.221491 166.0375 44.221491 
L 166.0375 15.865241 
Q 166.0375 13.865241 164.0375 13.865241 
L 53.0125 13.865241 
Q 51.0125 13.865241 51.0125 15.865241 
L 51.0125 44.221491 
Q 51.0125 46.221491 53.0125 46.221491 
z
" style="fill:#ffffff;opacity:0.8;stroke:#cccccc;stroke-linejoin:miter;"/>
    </g>
    <g id="line2d_27">
     <path d="M 55.0125 21.963678 
L 75.0125 21.963678 
" style="fill:none;stroke:#1f77b4;stroke-linecap:square;stroke-width:1.5;"/>
    </g>
    <g id="line2d_28"/>
    <g id="text_13">
     <!-- nikkei stock -->
     <g transform="translate(83.0125 25.463678)scale(0.1 -0.1)">
      <defs>
       <path d="M 54.890625 33.015625 
L 54.890625 0 
L 45.90625 0 
L 45.90625 32.71875 
Q 45.90625 40.484375 42.875 44.328125 
Q 39.84375 48.1875 33.796875 48.1875 
Q 26.515625 48.1875 22.3125 43.546875 
Q 18.109375 38.921875 18.109375 30.90625 
L 18.109375 0 
L 9.078125 0 
L 9.078125 54.6875 
L 18.109375 54.6875 
L 18.109375 46.1875 
Q 21.34375 51.125 25.703125 53.5625 
Q 30.078125 56 35.796875 56 
Q 45.21875 56 50.046875 50.171875 
Q 54.890625 44.34375 54.890625 33.015625 
z
" id="DejaVuSans-110"/>
       <path d="M 9.421875 54.6875 
L 18.40625 54.6875 
L 18.40625 0 
L 9.421875 0 
z
M 9.421875 75.984375 
L 18.40625 75.984375 
L 18.40625 64.59375 
L 9.421875 64.59375 
z
" id="DejaVuSans-105"/>
       <path d="M 9.078125 75.984375 
L 18.109375 75.984375 
L 18.109375 31.109375 
L 44.921875 54.6875 
L 56.390625 54.6875 
L 27.390625 29.109375 
L 57.625 0 
L 45.90625 0 
L 18.109375 26.703125 
L 18.109375 0 
L 9.078125 0 
z
" id="DejaVuSans-107"/>
       <path d="M 56.203125 29.59375 
L 56.203125 25.203125 
L 14.890625 25.203125 
Q 15.484375 15.921875 20.484375 11.0625 
Q 25.484375 6.203125 34.421875 6.203125 
Q 39.59375 6.203125 44.453125 7.46875 
Q 49.3125 8.734375 54.109375 11.28125 
L 54.109375 2.78125 
Q 49.265625 0.734375 44.1875 -0.34375 
Q 39.109375 -1.421875 33.890625 -1.421875 
Q 20.796875 -1.421875 13.15625 6.1875 
Q 5.515625 13.8125 5.515625 26.8125 
Q 5.515625 40.234375 12.765625 48.109375 
Q 20.015625 56 32.328125 56 
Q 43.359375 56 49.78125 48.890625 
Q 56.203125 41.796875 56.203125 29.59375 
z
M 47.21875 32.234375 
Q 47.125 39.59375 43.09375 43.984375 
Q 39.0625 48.390625 32.421875 48.390625 
Q 24.90625 48.390625 20.390625 44.140625 
Q 15.875 39.890625 15.1875 32.171875 
z
" id="DejaVuSans-101"/>
       <path id="DejaVuSans-32"/>
       <path d="M 44.28125 53.078125 
L 44.28125 44.578125 
Q 40.484375 46.53125 36.375 47.5 
Q 32.28125 48.484375 27.875 48.484375 
Q 21.1875 48.484375 17.84375 46.4375 
Q 14.5 44.390625 14.5 40.28125 
Q 14.5 37.15625 16.890625 35.375 
Q 19.28125 33.59375 26.515625 31.984375 
L 29.59375 31.296875 
Q 39.15625 29.25 43.1875 25.515625 
Q 47.21875 21.78125 47.21875 15.09375 
Q 47.21875 7.46875 41.1875 3.015625 
Q 35.15625 -1.421875 24.609375 -1.421875 
Q 20.21875 -1.421875 15.453125 -0.5625 
Q 10.6875 0.296875 5.421875 2 
L 5.421875 11.28125 
Q 10.40625 8.6875 15.234375 7.390625 
Q 20.0625 6.109375 24.8125 6.109375 
Q 31.15625 6.109375 34.5625 8.28125 
Q 37.984375 10.453125 37.984375 14.40625 
Q 37.984375 18.0625 35.515625 20.015625 
Q 33.0625 21.96875 24.703125 23.78125 
L 21.578125 24.515625 
Q 13.234375 26.265625 9.515625 29.90625 
Q 5.8125 33.546875 5.8125 39.890625 
Q 5.8125 47.609375 11.28125 51.796875 
Q 16.75 56 26.8125 56 
Q 31.78125 56 36.171875 55.265625 
Q 40.578125 54.546875 44.28125 53.078125 
z
" id="DejaVuSans-115"/>
       <path d="M 18.3125 70.21875 
L 18.3125 54.6875 
L 36.8125 54.6875 
L 36.8125 47.703125 
L 18.3125 47.703125 
L 18.3125 18.015625 
Q 18.3125 11.328125 20.140625 9.421875 
Q 21.96875 7.515625 27.59375 7.515625 
L 36.8125 7.515625 
L 36.8125 0 
L 27.59375 0 
Q 17.1875 0 13.234375 3.875 
Q 9.28125 7.765625 9.28125 18.015625 
L 9.28125 47.703125 
L 2.6875 47.703125 
L 2.6875 54.6875 
L 9.28125 54.6875 
L 9.28125 70.21875 
z
" id="DejaVuSans-116"/>
       <path d="M 30.609375 48.390625 
Q 23.390625 48.390625 19.1875 42.75 
Q 14.984375 37.109375 14.984375 27.296875 
Q 14.984375 17.484375 19.15625 11.84375 
Q 23.34375 6.203125 30.609375 6.203125 
Q 37.796875 6.203125 41.984375 11.859375 
Q 46.1875 17.53125 46.1875 27.296875 
Q 46.1875 37.015625 41.984375 42.703125 
Q 37.796875 48.390625 30.609375 48.390625 
z
M 30.609375 56 
Q 42.328125 56 49.015625 48.375 
Q 55.71875 40.765625 55.71875 27.296875 
Q 55.71875 13.875 49.015625 6.21875 
Q 42.328125 -1.421875 30.609375 -1.421875 
Q 18.84375 -1.421875 12.171875 6.21875 
Q 5.515625 13.875 5.515625 27.296875 
Q 5.515625 40.765625 12.171875 48.375 
Q 18.84375 56 30.609375 56 
z
" id="DejaVuSans-111"/>
       <path d="M 48.78125 52.59375 
L 48.78125 44.1875 
Q 44.96875 46.296875 41.140625 47.34375 
Q 37.3125 48.390625 33.40625 48.390625 
Q 24.65625 48.390625 19.8125 42.84375 
Q 14.984375 37.3125 14.984375 27.296875 
Q 14.984375 17.28125 19.8125 11.734375 
Q 24.65625 6.203125 33.40625 6.203125 
Q 37.3125 6.203125 41.140625 7.25 
Q 44.96875 8.296875 48.78125 10.40625 
L 48.78125 2.09375 
Q 45.015625 0.34375 40.984375 -0.53125 
Q 36.96875 -1.421875 32.421875 -1.421875 
Q 20.0625 -1.421875 12.78125 6.34375 
Q 5.515625 14.109375 5.515625 27.296875 
Q 5.515625 40.671875 12.859375 48.328125 
Q 20.21875 56 33.015625 56 
Q 37.15625 56 41.109375 55.140625 
Q 45.0625 54.296875 48.78125 52.59375 
z
" id="DejaVuSans-99"/>
      </defs>
      <use xlink:href="#DejaVuSans-110"/>
      <use x="63.378906" xlink:href="#DejaVuSans-105"/>
      <use x="91.162109" xlink:href="#DejaVuSans-107"/>
      <use x="149.072266" xlink:href="#DejaVuSans-107"/>
      <use x="203.357422" xlink:href="#DejaVuSans-101"/>
      <use x="264.880859" xlink:href="#DejaVuSans-105"/>
      <use x="292.664062" xlink:href="#DejaVuSans-32"/>
      <use x="324.451172" xlink:href="#DejaVuSans-115"/>
      <use x="376.550781" xlink:href="#DejaVuSans-116"/>
      <use x="415.759766" xlink:href="#DejaVuSans-111"/>
      <use x="476.941406" xlink:href="#DejaVuSans-99"/>
      <use x="531.921875" xlink:href="#DejaVuSans-107"/>
     </g>
    </g>
    <g id="line2d_29">
     <path d="M 55.0125 36.641803 
L 75.0125 36.641803 
" style="fill:none;stroke:#ff7f0e;stroke-linecap:square;stroke-width:1.5;"/>
    </g>
    <g id="line2d_30"/>
    <g id="text_14">
     <!-- lstm pred result -->
     <g transform="translate(83.0125 40.141803)scale(0.1 -0.1)">
      <defs>
       <path d="M 9.421875 75.984375 
L 18.40625 75.984375 
L 18.40625 0 
L 9.421875 0 
z
" id="DejaVuSans-108"/>
       <path d="M 52 44.1875 
Q 55.375 50.25 60.0625 53.125 
Q 64.75 56 71.09375 56 
Q 79.640625 56 84.28125 50.015625 
Q 88.921875 44.046875 88.921875 33.015625 
L 88.921875 0 
L 79.890625 0 
L 79.890625 32.71875 
Q 79.890625 40.578125 77.09375 44.375 
Q 74.3125 48.1875 68.609375 48.1875 
Q 61.625 48.1875 57.5625 43.546875 
Q 53.515625 38.921875 53.515625 30.90625 
L 53.515625 0 
L 44.484375 0 
L 44.484375 32.71875 
Q 44.484375 40.625 41.703125 44.40625 
Q 38.921875 48.1875 33.109375 48.1875 
Q 26.21875 48.1875 22.15625 43.53125 
Q 18.109375 38.875 18.109375 30.90625 
L 18.109375 0 
L 9.078125 0 
L 9.078125 54.6875 
L 18.109375 54.6875 
L 18.109375 46.1875 
Q 21.1875 51.21875 25.484375 53.609375 
Q 29.78125 56 35.6875 56 
Q 41.65625 56 45.828125 52.96875 
Q 50 49.953125 52 44.1875 
z
" id="DejaVuSans-109"/>
       <path d="M 18.109375 8.203125 
L 18.109375 -20.796875 
L 9.078125 -20.796875 
L 9.078125 54.6875 
L 18.109375 54.6875 
L 18.109375 46.390625 
Q 20.953125 51.265625 25.265625 53.625 
Q 29.59375 56 35.59375 56 
Q 45.5625 56 51.78125 48.09375 
Q 58.015625 40.1875 58.015625 27.296875 
Q 58.015625 14.40625 51.78125 6.484375 
Q 45.5625 -1.421875 35.59375 -1.421875 
Q 29.59375 -1.421875 25.265625 0.953125 
Q 20.953125 3.328125 18.109375 8.203125 
z
M 48.6875 27.296875 
Q 48.6875 37.203125 44.609375 42.84375 
Q 40.53125 48.484375 33.40625 48.484375 
Q 26.265625 48.484375 22.1875 42.84375 
Q 18.109375 37.203125 18.109375 27.296875 
Q 18.109375 17.390625 22.1875 11.75 
Q 26.265625 6.109375 33.40625 6.109375 
Q 40.53125 6.109375 44.609375 11.75 
Q 48.6875 17.390625 48.6875 27.296875 
z
" id="DejaVuSans-112"/>
       <path d="M 41.109375 46.296875 
Q 39.59375 47.171875 37.8125 47.578125 
Q 36.03125 48 33.890625 48 
Q 26.265625 48 22.1875 43.046875 
Q 18.109375 38.09375 18.109375 28.8125 
L 18.109375 0 
L 9.078125 0 
L 9.078125 54.6875 
L 18.109375 54.6875 
L 18.109375 46.1875 
Q 20.953125 51.171875 25.484375 53.578125 
Q 30.03125 56 36.53125 56 
Q 37.453125 56 38.578125 55.875 
Q 39.703125 55.765625 41.0625 55.515625 
z
" id="DejaVuSans-114"/>
       <path d="M 45.40625 46.390625 
L 45.40625 75.984375 
L 54.390625 75.984375 
L 54.390625 0 
L 45.40625 0 
L 45.40625 8.203125 
Q 42.578125 3.328125 38.25 0.953125 
Q 33.9375 -1.421875 27.875 -1.421875 
Q 17.96875 -1.421875 11.734375 6.484375 
Q 5.515625 14.40625 5.515625 27.296875 
Q 5.515625 40.1875 11.734375 48.09375 
Q 17.96875 56 27.875 56 
Q 33.9375 56 38.25 53.625 
Q 42.578125 51.265625 45.40625 46.390625 
z
M 14.796875 27.296875 
Q 14.796875 17.390625 18.875 11.75 
Q 22.953125 6.109375 30.078125 6.109375 
Q 37.203125 6.109375 41.296875 11.75 
Q 45.40625 17.390625 45.40625 27.296875 
Q 45.40625 37.203125 41.296875 42.84375 
Q 37.203125 48.484375 30.078125 48.484375 
Q 22.953125 48.484375 18.875 42.84375 
Q 14.796875 37.203125 14.796875 27.296875 
z
" id="DejaVuSans-100"/>
       <path d="M 8.5 21.578125 
L 8.5 54.6875 
L 17.484375 54.6875 
L 17.484375 21.921875 
Q 17.484375 14.15625 20.5 10.265625 
Q 23.53125 6.390625 29.59375 6.390625 
Q 36.859375 6.390625 41.078125 11.03125 
Q 45.3125 15.671875 45.3125 23.6875 
L 45.3125 54.6875 
L 54.296875 54.6875 
L 54.296875 0 
L 45.3125 0 
L 45.3125 8.40625 
Q 42.046875 3.421875 37.71875 1 
Q 33.40625 -1.421875 27.6875 -1.421875 
Q 18.265625 -1.421875 13.375 4.4375 
Q 8.5 10.296875 8.5 21.578125 
z
M 31.109375 56 
z
" id="DejaVuSans-117"/>
      </defs>
      <use xlink:href="#DejaVuSans-108"/>
      <use x="27.783203" xlink:href="#DejaVuSans-115"/>
      <use x="79.882812" xlink:href="#DejaVuSans-116"/>
      <use x="119.091797" xlink:href="#DejaVuSans-109"/>
      <use x="216.503906" xlink:href="#DejaVuSans-32"/>
      <use x="248.291016" xlink:href="#DejaVuSans-112"/>
      <use x="311.767578" xlink:href="#DejaVuSans-114"/>
      <use x="350.630859" xlink:href="#DejaVuSans-101"/>
      <use x="412.154297" xlink:href="#DejaVuSans-100"/>
      <use x="475.630859" xlink:href="#DejaVuSans-32"/>
      <use x="507.417969" xlink:href="#DejaVuSans-114"/>
      <use x="546.28125" xlink:href="#DejaVuSans-101"/>
      <use x="607.804688" xlink:href="#DejaVuSans-115"/>
      <use x="659.904297" xlink:href="#DejaVuSans-117"/>
      <use x="723.283203" xlink:href="#DejaVuSans-108"/>
      <use x="751.066406" xlink:href="#DejaVuSans-116"/>
     </g>
    </g>
   </g>
  </g>
 </g>
 <defs>
  <clipPath id="p14990eeaae">
   <rect height="217.44" width="334.8" x="46.0125" y="8.865241"/>
  </clipPath>
 </defs>
</svg>
