<?xml version="1.0" encoding="utf-8" standalone="no"?>
<!DOCTYPE svg PUBLIC "-//W3C//DTD SVG 1.1//EN"
  "http://www.w3.org/Graphics/SVG/1.1/DTD/svg11.dtd">
<!-- Created with matplotlib (https://matplotlib.org/) -->
<svg height="252.018125pt" version="1.1" viewBox="0 0 393.644015 252.018125" width="393.644015pt" xmlns="http://www.w3.org/2000/svg" xmlns:xlink="http://www.w3.org/1999/xlink">
 <defs>
  <style type="text/css">
*{stroke-linecap:butt;stroke-linejoin:round;}
  </style>
 </defs>
 <g id="figure_1">
  <g id="patch_1">
   <path d="M 0 252.018125 
L 393.644015 252.018125 
L 393.644015 0 
L 0 0 
z
" style="fill:none;"/>
  </g>
  <g id="axes_1">
   <g id="patch_2">
    <path d="M 46.0125 228.14 
L 380.8125 228.14 
L 380.8125 10.7 
L 46.0125 10.7 
z
" style="fill:#ffffff;"/>
   </g>
   <g id="matplotlib.axis_1">
    <g id="xtick_1">
     <g id="line2d_1">
      <path clip-path="url(#p8236f0d9e1)" d="M 61.230682 228.14 
L 61.230682 10.7 
" style="fill:none;stroke:#b0b0b0;stroke-linecap:square;stroke-width:0.8;"/>
     </g>
     <g id="line2d_2">
      <defs>
       <path d="M 0 0 
L 0 3.5 
" id="mf85a318bf3" style="stroke:#000000;stroke-width:0.8;"/>
      </defs>
      <g>
       <use style="stroke:#000000;stroke-width:0.8;" x="61.230682" xlink:href="#mf85a318bf3" y="228.14"/>
      </g>
     </g>
     <g id="text_1">
      <!-- 0 -->
      <defs>
       <path d="M 31.78125 66.40625 
Q 24.171875 66.40625 20.328125 58.90625 
Q 16.5 51.421875 16.5 36.375 
Q 16.5 21.390625 20.328125 13.890625 
Q 24.171875 6.390625 31.78125 6.390625 
Q 39.453125 6.390625 43.28125 13.890625 
Q 47.125 21.390625 47.125 36.375 
Q 47.125 51.421875 43.28125 58.90625 
Q 39.453125 66.40625 31.78125 66.40625 
z
M 31.78125 74.21875 
Q 44.046875 74.21875 50.515625 64.515625 
Q 56.984375 54.828125 56.984375 36.375 
Q 56.984375 17.96875 50.515625 8.265625 
Q 44.046875 -1.421875 31.78125 -1.421875 
Q 19.53125 -1.421875 13.0625 8.265625 
Q 6.59375 17.96875 6.59375 36.375 
Q 6.59375 54.828125 13.0625 64.515625 
Q 19.53125 74.21875 31.78125 74.21875 
z
" id="DejaVuSans-48"/>
      </defs>
      <g transform="translate(58.049432 242.738437)scale(0.1 -0.1)">
       <use xlink:href="#DejaVuSans-48"/>
      </g>
     </g>
    </g>
    <g id="xtick_2">
     <g id="line2d_3">
      <path clip-path="url(#p8236f0d9e1)" d="M 123.728348 228.14 
L 123.728348 10.7 
" style="fill:none;stroke:#b0b0b0;stroke-linecap:square;stroke-width:0.8;"/>
     </g>
     <g id="line2d_4">
      <g>
       <use style="stroke:#000000;stroke-width:0.8;" x="123.728348" xlink:href="#mf85a318bf3" y="228.14"/>
      </g>
     </g>
     <g id="text_2">
      <!-- 200 -->
      <defs>
       <path d="M 19.1875 8.296875 
L 53.609375 8.296875 
L 53.609375 0 
L 7.328125 0 
L 7.328125 8.296875 
Q 12.9375 14.109375 22.625 23.890625 
Q 32.328125 33.6875 34.8125 36.53125 
Q 39.546875 41.84375 41.421875 45.53125 
Q 43.3125 49.21875 43.3125 52.78125 
Q 43.3125 58.59375 39.234375 62.25 
Q 35.15625 65.921875 28.609375 65.921875 
Q 23.96875 65.921875 18.8125 64.3125 
Q 13.671875 62.703125 7.8125 59.421875 
L 7.8125 69.390625 
Q 13.765625 71.78125 18.9375 73 
Q 24.125 74.21875 28.421875 74.21875 
Q 39.75 74.21875 46.484375 68.546875 
Q 53.21875 62.890625 53.21875 53.421875 
Q 53.21875 48.921875 51.53125 44.890625 
Q 49.859375 40.875 45.40625 35.40625 
Q 44.1875 33.984375 37.640625 27.21875 
Q 31.109375 20.453125 19.1875 8.296875 
z
" id="DejaVuSans-50"/>
      </defs>
      <g transform="translate(114.184598 242.738437)scale(0.1 -0.1)">
       <use xlink:href="#DejaVuSans-50"/>
       <use x="63.623047" xlink:href="#DejaVuSans-48"/>
       <use x="127.246094" xlink:href="#DejaVuSans-48"/>
      </g>
     </g>
    </g>
    <g id="xtick_3">
     <g id="line2d_5">
      <path clip-path="url(#p8236f0d9e1)" d="M 186.226015 228.14 
L 186.226015 10.7 
" style="fill:none;stroke:#b0b0b0;stroke-linecap:square;stroke-width:0.8;"/>
     </g>
     <g id="line2d_6">
      <g>
       <use style="stroke:#000000;stroke-width:0.8;" x="186.226015" xlink:href="#mf85a318bf3" y="228.14"/>
      </g>
     </g>
     <g id="text_3">
      <!-- 400 -->
      <defs>
       <path d="M 37.796875 64.3125 
L 12.890625 25.390625 
L 37.796875 25.390625 
z
M 35.203125 72.90625 
L 47.609375 72.90625 
L 47.609375 25.390625 
L 58.015625 25.390625 
L 58.015625 17.1875 
L 47.609375 17.1875 
L 47.609375 0 
L 37.796875 0 
L 37.796875 17.1875 
L 4.890625 17.1875 
L 4.890625 26.703125 
z
" id="DejaVuSans-52"/>
      </defs>
      <g transform="translate(176.682265 242.738437)scale(0.1 -0.1)">
       <use xlink:href="#DejaVuSans-52"/>
       <use x="63.623047" xlink:href="#DejaVuSans-48"/>
       <use x="127.246094" xlink:href="#DejaVuSans-48"/>
      </g>
     </g>
    </g>
    <g id="xtick_4">
     <g id="line2d_7">
      <path clip-path="url(#p8236f0d9e1)" d="M 248.723682 228.14 
L 248.723682 10.7 
" style="fill:none;stroke:#b0b0b0;stroke-linecap:square;stroke-width:0.8;"/>
     </g>
     <g id="line2d_8">
      <g>
       <use style="stroke:#000000;stroke-width:0.8;" x="248.723682" xlink:href="#mf85a318bf3" y="228.14"/>
      </g>
     </g>
     <g id="text_4">
      <!-- 600 -->
      <defs>
       <path d="M 33.015625 40.375 
Q 26.375 40.375 22.484375 35.828125 
Q 18.609375 31.296875 18.609375 23.390625 
Q 18.609375 15.53125 22.484375 10.953125 
Q 26.375 6.390625 33.015625 6.390625 
Q 39.65625 6.390625 43.53125 10.953125 
Q 47.40625 15.53125 47.40625 23.390625 
Q 47.40625 31.296875 43.53125 35.828125 
Q 39.65625 40.375 33.015625 40.375 
z
M 52.59375 71.296875 
L 52.59375 62.3125 
Q 48.875 64.0625 45.09375 64.984375 
Q 41.3125 65.921875 37.59375 65.921875 
Q 27.828125 65.921875 22.671875 59.328125 
Q 17.53125 52.734375 16.796875 39.40625 
Q 19.671875 43.65625 24.015625 45.921875 
Q 28.375 48.1875 33.59375 48.1875 
Q 44.578125 48.1875 50.953125 41.515625 
Q 57.328125 34.859375 57.328125 23.390625 
Q 57.328125 12.15625 50.6875 5.359375 
Q 44.046875 -1.421875 33.015625 -1.421875 
Q 20.359375 -1.421875 13.671875 8.265625 
Q 6.984375 17.96875 6.984375 36.375 
Q 6.984375 53.65625 15.1875 63.9375 
Q 23.390625 74.21875 37.203125 74.21875 
Q 40.921875 74.21875 44.703125 73.484375 
Q 48.484375 72.75 52.59375 71.296875 
z
" id="DejaVuSans-54"/>
      </defs>
      <g transform="translate(239.179932 242.738437)scale(0.1 -0.1)">
       <use xlink:href="#DejaVuSans-54"/>
       <use x="63.623047" xlink:href="#DejaVuSans-48"/>
       <use x="127.246094" xlink:href="#DejaVuSans-48"/>
      </g>
     </g>
    </g>
    <g id="xtick_5">
     <g id="line2d_9">
      <path clip-path="url(#p8236f0d9e1)" d="M 311.221348 228.14 
L 311.221348 10.7 
" style="fill:none;stroke:#b0b0b0;stroke-linecap:square;stroke-width:0.8;"/>
     </g>
     <g id="line2d_10">
      <g>
       <use style="stroke:#000000;stroke-width:0.8;" x="311.221348" xlink:href="#mf85a318bf3" y="228.14"/>
      </g>
     </g>
     <g id="text_5">
      <!-- 800 -->
      <defs>
       <path d="M 31.78125 34.625 
Q 24.75 34.625 20.71875 30.859375 
Q 16.703125 27.09375 16.703125 20.515625 
Q 16.703125 13.921875 20.71875 10.15625 
Q 24.75 6.390625 31.78125 6.390625 
Q 38.8125 6.390625 42.859375 10.171875 
Q 46.921875 13.96875 46.921875 20.515625 
Q 46.921875 27.09375 42.890625 30.859375 
Q 38.875 34.625 31.78125 34.625 
z
M 21.921875 38.8125 
Q 15.578125 40.375 12.03125 44.71875 
Q 8.5 49.078125 8.5 55.328125 
Q 8.5 64.0625 14.71875 69.140625 
Q 20.953125 74.21875 31.78125 74.21875 
Q 42.671875 74.21875 48.875 69.140625 
Q 55.078125 64.0625 55.078125 55.328125 
Q 55.078125 49.078125 51.53125 44.71875 
Q 48 40.375 41.703125 38.8125 
Q 48.828125 37.15625 52.796875 32.3125 
Q 56.78125 27.484375 56.78125 20.515625 
Q 56.78125 9.90625 50.3125 4.234375 
Q 43.84375 -1.421875 31.78125 -1.421875 
Q 19.734375 -1.421875 13.25 4.234375 
Q 6.78125 9.90625 6.78125 20.515625 
Q 6.78125 27.484375 10.78125 32.3125 
Q 14.796875 37.15625 21.921875 38.8125 
z
M 18.3125 54.390625 
Q 18.3125 48.734375 21.84375 45.5625 
Q 25.390625 42.390625 31.78125 42.390625 
Q 38.140625 42.390625 41.71875 45.5625 
Q 45.3125 48.734375 45.3125 54.390625 
Q 45.3125 60.0625 41.71875 63.234375 
Q 38.140625 66.40625 31.78125 66.40625 
Q 25.390625 66.40625 21.84375 63.234375 
Q 18.3125 60.0625 18.3125 54.390625 
z
" id="DejaVuSans-56"/>
      </defs>
      <g transform="translate(301.677598 242.738437)scale(0.1 -0.1)">
       <use xlink:href="#DejaVuSans-56"/>
       <use x="63.623047" xlink:href="#DejaVuSans-48"/>
       <use x="127.246094" xlink:href="#DejaVuSans-48"/>
      </g>
     </g>
    </g>
    <g id="xtick_6">
     <g id="line2d_11">
      <path clip-path="url(#p8236f0d9e1)" d="M 373.719015 228.14 
L 373.719015 10.7 
" style="fill:none;stroke:#b0b0b0;stroke-linecap:square;stroke-width:0.8;"/>
     </g>
     <g id="line2d_12">
      <g>
       <use style="stroke:#000000;stroke-width:0.8;" x="373.719015" xlink:href="#mf85a318bf3" y="228.14"/>
      </g>
     </g>
     <g id="text_6">
      <!-- 1000 -->
      <defs>
       <path d="M 12.40625 8.296875 
L 28.515625 8.296875 
L 28.515625 63.921875 
L 10.984375 60.40625 
L 10.984375 69.390625 
L 28.421875 72.90625 
L 38.28125 72.90625 
L 38.28125 8.296875 
L 54.390625 8.296875 
L 54.390625 0 
L 12.40625 0 
z
" id="DejaVuSans-49"/>
      </defs>
      <g transform="translate(360.994015 242.738437)scale(0.1 -0.1)">
       <use xlink:href="#DejaVuSans-49"/>
       <use x="63.623047" xlink:href="#DejaVuSans-48"/>
       <use x="127.246094" xlink:href="#DejaVuSans-48"/>
       <use x="190.869141" xlink:href="#DejaVuSans-48"/>
      </g>
     </g>
    </g>
   </g>
   <g id="matplotlib.axis_2">
    <g id="ytick_1">
     <g id="line2d_13">
      <path clip-path="url(#p8236f0d9e1)" d="M 46.0125 218.47217 
L 380.8125 218.47217 
" style="fill:none;stroke:#b0b0b0;stroke-linecap:square;stroke-width:0.8;"/>
     </g>
     <g id="line2d_14">
      <defs>
       <path d="M 0 0 
L -3.5 0 
" id="m933f2a30f7" style="stroke:#000000;stroke-width:0.8;"/>
      </defs>
      <g>
       <use style="stroke:#000000;stroke-width:0.8;" x="46.0125" xlink:href="#m933f2a30f7" y="218.47217"/>
      </g>
     </g>
     <g id="text_7">
      <!-- 0 -->
      <g transform="translate(32.65 222.271388)scale(0.1 -0.1)">
       <use xlink:href="#DejaVuSans-48"/>
      </g>
     </g>
    </g>
    <g id="ytick_2">
     <g id="line2d_15">
      <path clip-path="url(#p8236f0d9e1)" d="M 46.0125 182.58138 
L 380.8125 182.58138 
" style="fill:none;stroke:#b0b0b0;stroke-linecap:square;stroke-width:0.8;"/>
     </g>
     <g id="line2d_16">
      <g>
       <use style="stroke:#000000;stroke-width:0.8;" x="46.0125" xlink:href="#m933f2a30f7" y="182.58138"/>
      </g>
     </g>
     <g id="text_8">
      <!-- 5000 -->
      <defs>
       <path d="M 10.796875 72.90625 
L 49.515625 72.90625 
L 49.515625 64.59375 
L 19.828125 64.59375 
L 19.828125 46.734375 
Q 21.96875 47.46875 24.109375 47.828125 
Q 26.265625 48.1875 28.421875 48.1875 
Q 40.625 48.1875 47.75 41.5 
Q 54.890625 34.8125 54.890625 23.390625 
Q 54.890625 11.625 47.5625 5.09375 
Q 40.234375 -1.421875 26.90625 -1.421875 
Q 22.3125 -1.421875 17.546875 -0.640625 
Q 12.796875 0.140625 7.71875 1.703125 
L 7.71875 11.625 
Q 12.109375 9.234375 16.796875 8.0625 
Q 21.484375 6.890625 26.703125 6.890625 
Q 35.15625 6.890625 40.078125 11.328125 
Q 45.015625 15.765625 45.015625 23.390625 
Q 45.015625 31 40.078125 35.4375 
Q 35.15625 39.890625 26.703125 39.890625 
Q 22.75 39.890625 18.8125 39.015625 
Q 14.890625 38.140625 10.796875 36.28125 
z
" id="DejaVuSans-53"/>
      </defs>
      <g transform="translate(13.5625 186.380599)scale(0.1 -0.1)">
       <use xlink:href="#DejaVuSans-53"/>
       <use x="63.623047" xlink:href="#DejaVuSans-48"/>
       <use x="127.246094" xlink:href="#DejaVuSans-48"/>
       <use x="190.869141" xlink:href="#DejaVuSans-48"/>
      </g>
     </g>
    </g>
    <g id="ytick_3">
     <g id="line2d_17">
      <path clip-path="url(#p8236f0d9e1)" d="M 46.0125 146.690591 
L 380.8125 146.690591 
" style="fill:none;stroke:#b0b0b0;stroke-linecap:square;stroke-width:0.8;"/>
     </g>
     <g id="line2d_18">
      <g>
       <use style="stroke:#000000;stroke-width:0.8;" x="46.0125" xlink:href="#m933f2a30f7" y="146.690591"/>
      </g>
     </g>
     <g id="text_9">
      <!-- 10000 -->
      <g transform="translate(7.2 150.489809)scale(0.1 -0.1)">
       <use xlink:href="#DejaVuSans-49"/>
       <use x="63.623047" xlink:href="#DejaVuSans-48"/>
       <use x="127.246094" xlink:href="#DejaVuSans-48"/>
       <use x="190.869141" xlink:href="#DejaVuSans-48"/>
       <use x="254.492188" xlink:href="#DejaVuSans-48"/>
      </g>
     </g>
    </g>
    <g id="ytick_4">
     <g id="line2d_19">
      <path clip-path="url(#p8236f0d9e1)" d="M 46.0125 110.799801 
L 380.8125 110.799801 
" style="fill:none;stroke:#b0b0b0;stroke-linecap:square;stroke-width:0.8;"/>
     </g>
     <g id="line2d_20">
      <g>
       <use style="stroke:#000000;stroke-width:0.8;" x="46.0125" xlink:href="#m933f2a30f7" y="110.799801"/>
      </g>
     </g>
     <g id="text_10">
      <!-- 15000 -->
      <g transform="translate(7.2 114.59902)scale(0.1 -0.1)">
       <use xlink:href="#DejaVuSans-49"/>
       <use x="63.623047" xlink:href="#DejaVuSans-53"/>
       <use x="127.246094" xlink:href="#DejaVuSans-48"/>
       <use x="190.869141" xlink:href="#DejaVuSans-48"/>
       <use x="254.492188" xlink:href="#DejaVuSans-48"/>
      </g>
     </g>
    </g>
    <g id="ytick_5">
     <g id="line2d_21">
      <path clip-path="url(#p8236f0d9e1)" d="M 46.0125 74.909012 
L 380.8125 74.909012 
" style="fill:none;stroke:#b0b0b0;stroke-linecap:square;stroke-width:0.8;"/>
     </g>
     <g id="line2d_22">
      <g>
       <use style="stroke:#000000;stroke-width:0.8;" x="46.0125" xlink:href="#m933f2a30f7" y="74.909012"/>
      </g>
     </g>
     <g id="text_11">
      <!-- 20000 -->
      <g transform="translate(7.2 78.708231)scale(0.1 -0.1)">
       <use xlink:href="#DejaVuSans-50"/>
       <use x="63.623047" xlink:href="#DejaVuSans-48"/>
       <use x="127.246094" xlink:href="#DejaVuSans-48"/>
       <use x="190.869141" xlink:href="#DejaVuSans-48"/>
       <use x="254.492188" xlink:href="#DejaVuSans-48"/>
      </g>
     </g>
    </g>
    <g id="ytick_6">
     <g id="line2d_23">
      <path clip-path="url(#p8236f0d9e1)" d="M 46.0125 39.018223 
L 380.8125 39.018223 
" style="fill:none;stroke:#b0b0b0;stroke-linecap:square;stroke-width:0.8;"/>
     </g>
     <g id="line2d_24">
      <g>
       <use style="stroke:#000000;stroke-width:0.8;" x="46.0125" xlink:href="#m933f2a30f7" y="39.018223"/>
      </g>
     </g>
     <g id="text_12">
      <!-- 25000 -->
      <g transform="translate(7.2 42.817441)scale(0.1 -0.1)">
       <use xlink:href="#DejaVuSans-50"/>
       <use x="63.623047" xlink:href="#DejaVuSans-53"/>
       <use x="127.246094" xlink:href="#DejaVuSans-48"/>
       <use x="190.869141" xlink:href="#DejaVuSans-48"/>
       <use x="254.492188" xlink:href="#DejaVuSans-48"/>
      </g>
     </g>
    </g>
   </g>
   <g id="line2d_25">
    <path clip-path="url(#p8236f0d9e1)" d="M 61.230682 77.822196 
L 61.855658 78.825917 
L 62.168147 79.923386 
L 62.480635 79.469511 
L 62.793123 81.120272 
L 63.105612 80.025029 
L 63.4181 81.403522 
L 63.730588 83.425681 
L 64.043077 82.845399 
L 64.355565 81.568548 
L 64.668053 81.09723 
L 64.980542 82.869374 
L 65.29303 83.609011 
L 65.918007 79.198751 
L 66.230495 78.732099 
L 66.542983 79.439506 
L 66.855472 81.790425 
L 67.16796 81.024228 
L 67.480448 82.700328 
L 67.792937 82.674343 
L 68.105425 82.254349 
L 68.417913 82.727605 
L 68.730402 82.032616 
L 69.04289 82.749929 
L 69.355378 79.36715 
L 69.667867 78.791319 
L 69.980355 80.371734 
L 70.292843 78.94328 
L 70.91782 80.40303 
L 71.230308 80.284878 
L 71.542797 79.349133 
L 72.167773 79.420771 
L 72.480262 80.051875 
L 72.79275 81.315733 
L 73.105238 81.233041 
L 73.417727 79.262278 
L 73.730215 78.032946 
L 74.355192 79.365643 
L 74.66768 79.616807 
L 74.980168 80.263702 
L 75.292657 79.800352 
L 75.605145 77.747184 
L 75.917633 77.538012 
L 76.54261 77.942645 
L 76.855098 77.851052 
L 77.480075 78.814791 
L 77.792563 81.790138 
L 78.105052 81.474801 
L 78.41754 80.202688 
L 78.730028 82.190607 
L 79.042517 80.630937 
L 79.355005 80.526064 
L 79.979982 82.738516 
L 80.29247 82.207548 
L 80.604958 83.449225 
L 80.917447 83.082996 
L 81.229935 84.979537 
L 81.542423 84.494509 
L 81.854912 83.538019 
L 82.1674 83.896999 
L 82.792377 86.201403 
L 83.104865 86.856123 
L 83.417353 86.715215 
L 83.729842 86.260623 
L 84.354818 86.175202 
L 84.979795 82.978123 
L 85.604772 80.009596 
L 86.229748 80.674939 
L 86.854725 78.887865 
L 87.167213 75.657694 
L 87.479702 76.035983 
L 88.104678 75.185012 
L 88.417167 75.742396 
L 88.729655 75.843249 
L 89.042143 75.484557 
L 89.354632 76.237833 
L 89.66712 78.111475 
L 89.979608 77.846601 
L 90.292097 77.218369 
L 90.604585 77.684949 
L 90.917073 76.753942 
L 91.229562 76.250394 
L 91.54205 77.156924 
L 92.167027 77.221455 
L 92.479515 77.417276 
L 92.792003 75.913739 
L 93.104492 73.636468 
L 93.41698 73.682839 
L 93.729468 75.053293 
L 94.041957 75.019412 
L 94.354445 75.560358 
L 94.666933 74.81383 
L 94.979422 75.565239 
L 95.604398 75.745124 
L 95.916887 76.116235 
L 96.541863 74.422692 
L 96.854352 73.255093 
L 97.16684 73.912755 
L 97.479328 74.115754 
L 98.104305 73.808241 
L 98.416793 73.29328 
L 98.729282 73.972908 
L 99.04177 73.327664 
L 99.354258 74.669046 
L 99.666747 74.508471 
L 99.979235 74.676799 
L 100.291723 74.323059 
L 100.9167 75.418015 
L 101.541677 73.505826 
L 101.854165 74.202825 
L 102.166653 74.19256 
L 102.479142 74.055816 
L 102.79163 74.909658 
L 103.104118 74.759276 
L 103.416607 73.871122 
L 103.729095 74.192991 
L 104.041583 75.083657 
L 104.354072 75.230593 
L 104.66656 74.548956 
L 104.979048 74.337343 
L 105.291537 75.197287 
L 105.604025 75.446082 
L 105.916513 75.011014 
L 106.229002 74.334472 
L 106.54149 74.698979 
L 106.853978 75.251195 
L 107.166467 74.507825 
L 107.478955 74.937653 
L 107.791443 76.784593 
L 108.103932 76.848981 
L 108.41642 78.231781 
L 108.728908 76.679792 
L 109.353885 77.043581 
L 109.666373 78.710493 
L 109.978862 79.265221 
L 110.29135 79.331906 
L 110.603838 78.967255 
L 110.916327 79.547753 
L 111.228815 78.838264 
L 111.541303 78.857717 
L 111.853792 79.484729 
L 112.478768 77.448357 
L 112.791257 77.123689 
L 113.416233 79.317765 
L 113.728722 79.517605 
L 114.04121 79.240887 
L 114.353698 80.114468 
L 114.978675 76.512469 
L 115.291163 75.872177 
L 115.603652 76.291238 
L 115.91614 75.558635 
L 116.228628 72.760015 
L 116.541117 72.680481 
L 116.853605 72.414746 
L 117.166093 72.781047 
L 117.478582 72.05512 
L 118.103558 72.992085 
L 118.416047 72.302551 
L 118.728535 72.351578 
L 119.041023 72.03215 
L 119.353512 70.501121 
L 119.978488 70.397109 
L 120.290977 69.950986 
L 120.603465 68.997727 
L 121.228442 68.055881 
L 121.54093 66.616948 
L 122.165907 65.318132 
L 122.478395 65.124824 
L 122.790883 64.511307 
L 123.103372 64.445842 
L 123.41586 62.73019 
L 123.728348 61.951217 
L 124.040837 62.651446 
L 124.353325 62.420596 
L 124.665813 60.492041 
L 125.29079 60.469358 
L 125.603278 57.537296 
L 125.915767 56.682808 
L 126.228255 56.616553 
L 126.540743 53.822455 
L 126.853232 53.993152 
L 127.16572 54.316959 
L 127.478208 55.661356 
L 127.790697 57.81789 
L 128.103185 57.824924 
L 128.415673 60.349411 
L 128.728162 58.032301 
L 129.04065 57.704403 
L 129.353138 58.673742 
L 129.978115 56.797443 
L 130.290603 56.598608 
L 130.603092 56.992402 
L 130.91558 57.062389 
L 131.853045 54.67357 
L 132.478022 56.085154 
L 132.79051 59.281875 
L 133.415487 54.730636 
L 133.727975 53.814344 
L 134.040463 54.335191 
L 134.352952 55.11115 
L 134.66544 55.567824 
L 134.977928 56.581596 
L 135.290417 54.079649 
L 135.602905 54.322055 
L 135.915393 54.151789 
L 136.227882 54.335694 
L 136.852858 53.811114 
L 137.165347 54.144826 
L 137.477835 54.011887 
L 137.790323 54.925164 
L 138.102812 55.061836 
L 138.4153 49.740022 
L 139.040277 47.273176 
L 139.977742 48.681315 
L 140.29023 48.243017 
L 140.602718 46.542296 
L 141.227695 47.894948 
L 141.540183 47.574156 
L 141.852672 47.514793 
L 142.16516 45.305212 
L 142.477648 46.621471 
L 142.790137 48.568833 
L 143.102625 48.838804 
L 143.415113 48.857036 
L 143.727602 51.278732 
L 144.04009 52.668997 
L 144.352578 49.885164 
L 144.665067 51.403919 
L 144.977555 55.656618 
L 145.290043 63.350455 
L 145.602532 63.098286 
L 145.91502 61.33612 
L 146.227508 64.984347 
L 146.852485 66.624197 
L 147.78995 59.481643 
L 148.102438 61.09034 
L 148.414927 60.762227 
L 148.727415 62.444571 
L 149.039903 61.322338 
L 149.66488 57.75422 
L 150.289857 62.530494 
L 150.602345 66.427013 
L 150.914833 67.428725 
L 151.227322 64.732107 
L 151.53981 65.91679 
L 152.164787 64.362862 
L 152.477275 61.815837 
L 152.789763 60.781679 
L 153.102252 62.151344 
L 153.41474 61.959974 
L 153.727228 62.874758 
L 154.039717 64.278878 
L 154.352205 64.996191 
L 154.664693 63.481456 
L 154.977182 70.473915 
L 155.28967 69.409825 
L 155.602158 65.453081 
L 155.914647 67.506106 
L 156.227135 66.588953 
L 156.539623 64.469817 
L 156.852112 64.941565 
L 157.1646 65.63275 
L 157.477088 65.437074 
L 157.789577 63.097927 
L 158.102065 63.657106 
L 158.727042 62.0291 
L 159.03953 62.798742 
L 159.352018 62.99126 
L 159.664507 62.140935 
L 159.976995 61.733288 
L 160.289483 61.646719 
L 160.601972 59.417112 
L 160.91446 59.180376 
L 161.226948 59.388112 
L 161.539437 59.920731 
L 161.851925 58.556307 
L 162.164413 59.007095 
L 162.476902 58.258485 
L 162.78939 57.194251 
L 163.101878 56.905977 
L 163.414367 57.159007 
L 163.726855 57.199348 
L 164.039343 56.901239 
L 164.351832 57.617691 
L 164.66432 56.98386 
L 164.976808 55.108207 
L 165.289297 54.337416 
L 165.601785 54.680819 
L 165.914273 55.404306 
L 166.53925 53.874425 
L 166.851738 53.357526 
L 167.164227 53.659224 
L 167.789203 57.415769 
L 168.101692 57.316854 
L 168.41418 57.099356 
L 168.726668 57.979829 
L 169.039157 60.419757 
L 169.351645 59.104 
L 169.664133 59.322719 
L 169.976622 57.136324 
L 170.601598 56.061107 
L 170.914087 54.643206 
L 171.226575 55.567466 
L 171.851552 54.247761 
L 172.16404 53.615868 
L 172.476528 55.250837 
L 172.789017 54.4387 
L 173.101505 55.66918 
L 173.413993 58.553723 
L 173.726482 56.565732 
L 174.03897 55.577946 
L 174.663947 58.125402 
L 174.976435 58.097766 
L 175.288923 58.601888 
L 175.601412 58.611794 
L 175.9139 58.366875 
L 176.226388 61.902692 
L 176.538877 62.092124 
L 176.851365 62.583828 
L 177.163853 63.804473 
L 178.101318 59.139389 
L 178.413807 61.039303 
L 178.726295 59.20349 
L 179.038783 56.264824 
L 179.66376 54.851875 
L 179.976248 55.063702 
L 180.288737 55.543203 
L 180.601225 57.703039 
L 181.226202 56.143513 
L 181.53869 56.340051 
L 181.851178 55.436464 
L 182.163667 56.641749 
L 182.476155 56.578007 
L 182.788643 55.192766 
L 183.101132 56.873675 
L 183.41362 56.782871 
L 183.726108 56.911073 
L 184.038597 55.795444 
L 184.351085 55.927737 
L 184.663573 56.257358 
L 184.976062 58.413031 
L 185.28855 61.576086 
L 185.601038 57.996698 
L 185.913527 59.086773 
L 186.226015 59.174203 
L 186.538503 58.611866 
L 186.850992 59.124243 
L 187.16348 58.97544 
L 187.475968 57.950255 
L 187.788457 57.603765 
L 188.413433 54.812754 
L 188.725922 54.71348 
L 189.350898 54.311288 
L 189.663387 54.342513 
L 189.975875 55.475011 
L 190.288363 55.550238 
L 191.225828 58.348571 
L 191.538317 57.874597 
L 191.850805 55.781446 
L 192.163293 56.21271 
L 192.78827 52.694982 
L 193.413247 48.547084 
L 193.725735 48.529784 
L 194.038223 47.130043 
L 194.6632 45.95383 
L 194.975688 47.655413 
L 195.288177 45.334714 
L 195.600665 44.432276 
L 195.913153 44.253827 
L 196.850618 47.748872 
L 197.163107 50.005183 
L 197.475595 49.742103 
L 197.788083 56.31141 
L 198.100572 55.566317 
L 198.41306 58.605262 
L 199.038037 54.515004 
L 199.663013 56.733342 
L 199.975502 56.139421 
L 200.28799 60.475316 
L 200.600478 59.898192 
L 200.912967 65.801868 
L 201.225455 66.405766 
L 201.537943 66.655566 
L 201.850432 64.448354 
L 202.16292 61.123647 
L 202.475408 62.794794 
L 202.787897 58.803666 
L 203.100385 61.277762 
L 203.412873 59.492123 
L 203.725362 59.93681 
L 204.03785 57.057508 
L 204.350338 58.756362 
L 204.662827 58.615455 
L 204.975315 61.912814 
L 205.287803 61.654687 
L 205.600292 61.962343 
L 205.91278 62.847266 
L 206.225268 61.836438 
L 206.537757 63.545127 
L 206.850245 64.087652 
L 207.78771 60.894376 
L 208.100198 59.282019 
L 208.725175 58.032732 
L 209.037663 56.426978 
L 209.350152 60.293924 
L 209.66264 61.131758 
L 209.975128 64.130146 
L 210.287617 62.859182 
L 210.600105 66.155248 
L 210.912593 66.668343 
L 211.225082 63.404219 
L 211.53757 61.872113 
L 211.850058 65.040265 
L 212.162547 64.092389 
L 212.475035 66.902136 
L 212.787523 67.817566 
L 213.100012 72.091011 
L 213.4125 73.716074 
L 213.724988 80.969243 
L 214.037477 79.739481 
L 214.349965 74.351843 
L 214.662453 74.802991 
L 214.974942 78.053332 
L 215.28743 74.629279 
L 215.912407 71.843508 
L 216.224895 73.73323 
L 216.849872 70.923053 
L 217.16236 71.730883 
L 217.474848 72.021454 
L 217.787337 70.127856 
L 218.099825 69.745548 
L 218.412313 70.437666 
L 219.03729 70.784227 
L 219.349778 69.356276 
L 219.662267 70.250387 
L 219.974755 70.138121 
L 220.287243 70.91408 
L 220.599732 69.356779 
L 220.91222 69.249824 
L 221.224708 68.565171 
L 221.537197 68.847417 
L 221.849685 68.634871 
L 222.162173 69.516205 
L 222.474662 72.517465 
L 222.78715 68.705576 
L 223.099638 66.693754 
L 223.412127 66.727994 
L 223.724615 68.444148 
L 224.037103 65.70769 
L 224.349592 65.558385 
L 224.66208 64.633551 
L 224.974568 64.398538 
L 225.287057 64.676476 
L 225.599545 63.939136 
L 225.912033 64.505062 
L 226.224522 63.736137 
L 226.53701 64.966115 
L 227.161987 61.830121 
L 227.786963 63.446858 
L 228.099452 64.457542 
L 228.41194 67.54738 
L 228.724428 66.832938 
L 229.036917 64.115288 
L 229.349405 65.647465 
L 229.661893 65.670579 
L 230.28687 63.535221 
L 230.599358 63.661915 
L 230.911847 63.35993 
L 231.224335 63.227708 
L 231.536823 67.895162 
L 231.849312 64.655803 
L 232.1618 65.01227 
L 232.474288 67.488519 
L 232.786777 66.253517 
L 233.099265 64.076956 
L 233.411753 64.103659 
L 233.724242 62.61132 
L 234.03673 62.527048 
L 234.349218 61.934492 
L 234.661707 62.26361 
L 234.974195 61.969736 
L 235.286683 62.795368 
L 235.599172 62.624456 
L 235.91166 61.481837 
L 236.224148 59.338798 
L 236.849125 58.557384 
L 237.161613 59.905801 
L 237.474102 59.113045 
L 237.78659 58.988576 
L 238.099078 58.688241 
L 238.411567 59.117065 
L 238.724055 58.344838 
L 239.036543 58.695491 
L 239.66152 63.405368 
L 239.974008 64.844301 
L 240.286497 65.254964 
L 240.911473 67.248266 
L 241.223962 66.377341 
L 241.53645 67.278774 
L 241.848938 65.935669 
L 242.161427 65.564988 
L 242.473915 65.775165 
L 242.786403 65.696779 
L 243.098892 66.645947 
L 243.41138 66.88943 
L 244.036357 65.863528 
L 244.348845 67.706664 
L 244.661333 68.143383 
L 244.973822 70.593575 
L 245.28631 71.95965 
L 245.598798 71.976447 
L 245.911287 69.338044 
L 246.223775 69.352831 
L 246.536263 68.558424 
L 246.848752 66.765966 
L 247.16124 66.2645 
L 247.786217 67.501153 
L 248.098705 66.891799 
L 248.411193 66.840762 
L 248.723682 67.926746 
L 249.03617 65.334282 
L 249.348658 64.408372 
L 249.661147 65.874295 
L 249.973635 65.677973 
L 250.598612 67.109297 
L 250.9111 65.303416 
L 251.223588 65.750257 
L 251.536077 62.491014 
L 251.848565 62.316585 
L 252.161053 63.150041 
L 252.78603 62.373221 
L 253.098518 63.895205 
L 253.411007 63.674118 
L 253.723495 63.90145 
L 254.035983 63.111494 
L 254.348472 62.807356 
L 254.66096 63.888745 
L 254.973448 64.363006 
L 255.285937 67.398936 
L 255.598425 64.378726 
L 255.910913 64.73907 
L 256.223402 63.274079 
L 256.53589 62.637449 
L 256.848378 62.300219 
L 257.160867 63.006549 
L 257.473355 63.303366 
L 257.785843 62.639315 
L 258.098332 63.987229 
L 258.41082 63.847542 
L 259.035797 69.738657 
L 259.348285 70.707564 
L 259.660773 71.201063 
L 260.28575 69.993266 
L 260.598238 71.639792 
L 260.910727 70.206385 
L 261.223215 71.997192 
L 261.535703 71.902728 
L 262.16068 70.04782 
L 262.473168 70.468819 
L 262.785657 70.401057 
L 263.098145 69.805988 
L 263.410633 73.035226 
L 263.723122 71.635198 
L 264.03561 71.467659 
L 264.348098 71.600384 
L 264.660587 69.852933 
L 264.973075 70.45719 
L 265.285563 70.421515 
L 265.598052 70.249383 
L 265.91054 67.113963 
L 266.848005 64.916298 
L 267.78547 60.636752 
L 268.097958 60.543221 
L 268.410447 60.834726 
L 268.722935 60.233627 
L 269.347912 59.843207 
L 269.6604 60.408056 
L 269.972888 60.206422 
L 270.597865 62.305315 
L 270.910353 61.376462 
L 271.222842 62.141869 
L 271.53533 65.27779 
L 271.847818 64.786374 
L 272.160307 65.03725 
L 272.472795 63.511676 
L 272.785283 64.454886 
L 273.097772 63.768654 
L 273.41026 61.996439 
L 274.035237 57.158002 
L 274.347725 57.309174 
L 274.972702 56.612605 
L 275.28519 56.06362 
L 275.597678 55.164771 
L 276.222655 54.327295 
L 276.535143 53.560237 
L 276.847632 54.500648 
L 277.16012 53.898257 
L 277.472608 54.445735 
L 277.785097 51.565714 
L 278.097585 51.19367 
L 278.410073 51.003449 
L 278.722562 50.561634 
L 279.03505 50.992538 
L 279.347538 49.641824 
L 279.972515 52.35847 
L 280.597492 50.382969 
L 281.534957 53.097605 
L 281.847445 52.564268 
L 282.159933 51.272702 
L 282.78491 50.232156 
L 283.097398 50.437667 
L 283.409887 51.264806 
L 283.722375 49.573704 
L 284.034863 50.648202 
L 284.347352 52.403836 
L 284.65984 51.220445 
L 285.284817 50.282906 
L 285.909793 50.561705 
L 286.222282 50.325185 
L 286.53477 46.030565 
L 286.847258 46.53842 
L 287.159747 45.721761 
L 287.472235 46.667052 
L 288.097212 47.512639 
L 288.722188 47.412504 
L 289.034677 47.754974 
L 289.347165 46.735316 
L 289.659653 47.361252 
L 289.972142 48.661216 
L 290.28463 51.904021 
L 290.597118 49.241929 
L 290.909607 51.904739 
L 291.222095 48.063635 
L 291.534583 47.269013 
L 291.847072 46.015706 
L 292.15956 46.795182 
L 292.472048 46.676384 
L 292.784537 45.90021 
L 293.097025 45.596932 
L 293.409513 47.16859 
L 293.722002 45.971345 
L 294.03449 47.664744 
L 294.346978 47.43691 
L 294.659467 50.908769 
L 294.971955 51.826138 
L 295.284443 50.651145 
L 295.596932 53.534252 
L 295.90942 51.901724 
L 296.221908 53.575957 
L 296.534397 52.767338 
L 296.846885 51.080686 
L 297.159373 47.103771 
L 297.471862 47.431167 
L 297.78435 48.450466 
L 298.096838 47.192637 
L 298.409327 47.432962 
L 299.034303 49.618639 
L 299.346792 51.983411 
L 299.65928 50.49825 
L 299.971768 49.935124 
L 300.284257 50.598458 
L 300.596745 56.206968 
L 300.909233 57.493437 
L 301.221722 60.924309 
L 301.53421 66.704665 
L 301.846698 65.260993 
L 302.159187 67.137005 
L 302.471675 67.012608 
L 302.784163 65.368379 
L 303.096652 69.527188 
L 303.40914 77.07136 
L 303.721628 75.862846 
L 304.034117 79.100625 
L 304.971582 96.428842 
L 305.28407 96.360721 
L 305.596558 98.406353 
L 305.909047 99.653342 
L 306.221535 97.249018 
L 306.846512 78.163373 
L 307.159 84.494724 
L 307.471488 79.29178 
L 307.783977 81.477242 
L 308.096465 82.682885 
L 308.408953 88.795804 
L 308.721442 90.566584 
L 309.03393 90.556032 
L 309.346418 85.128555 
L 309.971395 79.551557 
L 310.283883 79.605178 
L 310.596372 78.508858 
L 310.90886 81.775638 
L 311.221348 77.501691 
L 311.533837 78.138537 
L 311.846325 80.004068 
L 312.158813 75.646496 
L 312.471302 77.284121 
L 312.78379 80.071687 
L 313.096278 81.096943 
L 313.408767 79.004582 
L 313.721255 80.206492 
L 314.033743 76.465093 
L 314.346232 76.551446 
L 314.65872 73.518675 
L 314.971208 77.641378 
L 315.283697 77.243564 
L 315.596185 73.623476 
L 315.908673 72.104793 
L 316.221162 72.278361 
L 316.53365 72.992085 
L 316.846138 75.520735 
L 317.471115 73.949077 
L 317.783603 71.797639 
L 318.096092 70.636931 
L 318.40858 70.944444 
L 318.721068 72.122738 
L 319.033557 69.585331 
L 319.346045 65.784353 
L 319.658533 64.721555 
L 319.971022 61.153436 
L 320.28351 61.429221 
L 320.595998 60.104851 
L 321.220975 56.14703 
L 321.533463 55.558565 
L 321.845952 54.352706 
L 322.15844 52.096108 
L 322.470928 52.721111 
L 322.783417 52.477627 
L 323.095905 57.158074 
L 323.408393 58.359912 
L 323.720882 63.919611 
L 324.03337 56.373501 
L 324.658347 58.001148 
L 324.970835 57.115866 
L 325.283323 57.413903 
L 325.595812 56.611529 
L 325.9083 56.717263 
L 326.220788 58.687883 
L 326.533277 56.876905 
L 326.845765 60.5883 
L 327.158253 58.484382 
L 327.470742 59.678899 
L 327.78323 59.504972 
L 328.095718 58.352734 
L 328.408207 55.424333 
L 328.720695 56.140354 
L 329.033183 57.403997 
L 329.345672 56.753369 
L 329.65816 58.465216 
L 329.970648 54.919709 
L 330.283137 56.339046 
L 330.595625 53.765748 
L 330.908113 55.02293 
L 331.220602 55.553683 
L 331.53309 55.402511 
L 331.845578 54.205625 
L 332.158067 55.157521 
L 332.470555 55.414212 
L 332.783043 55.833919 
L 333.095532 57.702178 
L 333.40802 58.11765 
L 333.720508 62.634362 
L 334.345485 56.434874 
L 334.657973 56.857022 
L 335.28295 58.184335 
L 335.595438 55.167355 
L 335.907927 54.494618 
L 336.220415 51.582798 
L 336.532903 51.297467 
L 336.845392 52.680052 
L 337.15788 53.007878 
L 337.470368 52.580562 
L 337.782857 54.231467 
L 338.095345 53.946637 
L 338.407833 53.47855 
L 338.720322 51.244276 
L 339.03281 51.286699 
L 339.345298 51.875308 
L 339.657787 54.216895 
L 339.970275 52.371319 
L 340.282763 52.38345 
L 340.595252 51.600457 
L 340.90774 50.03289 
L 341.220228 51.899929 
L 341.532717 52.728863 
L 341.845205 51.40679 
L 342.157693 53.140961 
L 342.78267 50.456689 
L 343.095158 49.359795 
L 343.407647 50.109266 
L 343.720135 49.961109 
L 344.032623 51.08205 
L 344.345112 50.788248 
L 344.6576 50.887378 
L 344.970088 52.744152 
L 345.282577 51.905744 
L 345.595065 49.702049 
L 345.907553 49.504793 
L 346.220042 52.045718 
L 346.53253 52.045718 
L 346.845018 53.159911 
L 347.157507 51.133948 
L 347.469995 50.261156 
L 347.782483 50.33947 
L 348.094972 48.729768 
L 348.40746 48.926306 
L 348.719948 49.364173 
L 349.344925 48.875771 
L 349.969902 50.426971 
L 350.28239 48.557061 
L 350.594878 49.304236 
L 350.907367 48.784393 
L 351.219855 49.970153 
L 351.532343 49.666374 
L 352.15732 49.887389 
L 352.782297 50.991821 
L 353.094785 53.538703 
L 353.719762 48.384068 
L 354.03225 45.440664 
L 354.344738 43.861828 
L 354.657227 40.167876 
L 354.969715 39.695912 
L 355.282203 36.508739 
L 355.594692 35.279264 
L 355.90718 36.248387 
L 356.219668 32.508136 
L 356.532157 31.73512 
L 356.844645 33.791519 
L 357.469622 35.232677 
L 357.78211 30.651433 
L 358.094598 29.709157 
L 358.407087 27.983169 
L 358.719575 27.212234 
L 359.032063 28.727472 
L 359.344552 26.186978 
L 359.969528 26.030279 
L 360.282017 26.447545 
L 360.594505 27.910454 
L 360.906993 28.487291 
L 361.219482 25.968762 
L 361.53197 26.411655 
L 361.844458 27.156173 
L 362.156947 26.582495 
L 362.469435 26.902641 
L 363.094412 26.04966 
L 363.719388 26.711845 
L 364.031877 28.707588 
L 364.344365 28.073039 
L 364.656853 27.042543 
L 364.969342 27.126814 
L 365.28183 25.709702 
L 365.594318 20.583636 
L 365.594318 20.583636 
" style="fill:none;stroke:#1f77b4;stroke-linecap:square;stroke-width:1.5;"/>
   </g>
   <g id="line2d_26">
    <path clip-path="url(#p8236f0d9e1)" d="M 61.230682 78.349575 
L 61.54317 78.825917 
L 61.855658 79.923386 
L 62.168147 79.469511 
L 62.480635 81.120272 
L 62.793123 80.025029 
L 63.105612 81.403522 
L 63.4181 83.425681 
L 63.730588 82.845399 
L 64.043077 81.568548 
L 64.355565 81.09723 
L 64.668053 82.869374 
L 64.980542 83.609011 
L 65.605518 79.198751 
L 65.918007 78.732099 
L 66.230495 79.439506 
L 66.542983 81.790425 
L 66.855472 81.024228 
L 67.16796 82.700328 
L 67.480448 82.674343 
L 67.792937 82.254349 
L 68.105425 82.727605 
L 68.417913 82.032616 
L 68.730402 82.749929 
L 69.04289 79.36715 
L 69.355378 78.791319 
L 69.667867 80.371734 
L 69.980355 78.94328 
L 70.605332 80.40303 
L 70.91782 80.284878 
L 71.230308 79.349133 
L 71.855285 79.420771 
L 72.167773 80.051875 
L 72.480262 81.315733 
L 72.79275 81.233041 
L 73.105238 79.262278 
L 73.417727 78.032946 
L 74.042703 79.365643 
L 74.355192 79.616807 
L 74.66768 80.263702 
L 74.980168 79.800352 
L 75.292657 77.747184 
L 75.605145 77.538012 
L 76.230122 77.942645 
L 76.54261 77.851052 
L 77.167587 78.814791 
L 77.480075 81.790138 
L 77.792563 81.474801 
L 78.105052 80.202688 
L 78.41754 82.190607 
L 78.730028 80.630937 
L 79.042517 80.526064 
L 79.667493 82.738516 
L 79.979982 82.207548 
L 80.29247 83.449225 
L 80.604958 83.082996 
L 80.917447 84.979537 
L 81.229935 84.494509 
L 81.542423 83.538019 
L 81.854912 83.896999 
L 82.479888 86.201403 
L 82.792377 86.856123 
L 83.104865 86.715215 
L 83.417353 86.260623 
L 84.04233 86.175202 
L 84.667307 82.978123 
L 85.292283 80.009596 
L 85.91726 80.674939 
L 86.542237 78.887865 
L 86.854725 75.657694 
L 87.167213 76.035983 
L 87.79219 75.185012 
L 88.104678 75.742396 
L 88.417167 75.843249 
L 88.729655 75.484557 
L 89.042143 76.237833 
L 89.354632 78.111475 
L 89.66712 77.846601 
L 89.979608 77.218369 
L 90.292097 77.684949 
L 90.604585 76.753942 
L 90.917073 76.250394 
L 91.229562 77.156924 
L 91.854538 77.221455 
L 92.167027 77.417276 
L 92.479515 218.17194 
L 93.41698 218.221415 
L 163.414367 218.25616 
L 365.594318 218.25616 
L 365.594318 218.25616 
" style="fill:none;stroke:#ff7f0e;stroke-linecap:square;stroke-width:1.5;"/>
   </g>
   <g id="patch_3">
    <path d="M 46.0125 228.14 
L 46.0125 10.7 
" style="fill:none;stroke:#000000;stroke-linecap:square;stroke-linejoin:miter;stroke-width:0.8;"/>
   </g>
   <g id="patch_4">
    <path d="M 380.8125 228.14 
L 380.8125 10.7 
" style="fill:none;stroke:#000000;stroke-linecap:square;stroke-linejoin:miter;stroke-width:0.8;"/>
   </g>
   <g id="patch_5">
    <path d="M 46.0125 228.14 
L 380.8125 228.14 
" style="fill:none;stroke:#000000;stroke-linecap:square;stroke-linejoin:miter;stroke-width:0.8;"/>
   </g>
   <g id="patch_6">
    <path d="M 46.0125 10.7 
L 380.8125 10.7 
" style="fill:none;stroke:#000000;stroke-linecap:square;stroke-linejoin:miter;stroke-width:0.8;"/>
   </g>
   <g id="legend_1">
    <g id="patch_7">
     <path d="M 262.34375 135.598125 
L 373.8125 135.598125 
Q 375.8125 135.598125 375.8125 133.598125 
L 375.8125 105.241875 
Q 375.8125 103.241875 373.8125 103.241875 
L 262.34375 103.241875 
Q 260.34375 103.241875 260.34375 105.241875 
L 260.34375 133.598125 
Q 260.34375 135.598125 262.34375 135.598125 
z
" style="fill:#ffffff;opacity:0.8;stroke:#cccccc;stroke-linejoin:miter;"/>
    </g>
    <g id="line2d_27">
     <path d="M 264.34375 111.340312 
L 284.34375 111.340312 
" style="fill:none;stroke:#1f77b4;stroke-linecap:square;stroke-width:1.5;"/>
    </g>
    <g id="line2d_28"/>
    <g id="text_13">
     <!-- nikkei stock -->
     <defs>
      <path d="M 54.890625 33.015625 
L 54.890625 0 
L 45.90625 0 
L 45.90625 32.71875 
Q 45.90625 40.484375 42.875 44.328125 
Q 39.84375 48.1875 33.796875 48.1875 
Q 26.515625 48.1875 22.3125 43.546875 
Q 18.109375 38.921875 18.109375 30.90625 
L 18.109375 0 
L 9.078125 0 
L 9.078125 54.6875 
L 18.109375 54.6875 
L 18.109375 46.1875 
Q 21.34375 51.125 25.703125 53.5625 
Q 30.078125 56 35.796875 56 
Q 45.21875 56 50.046875 50.171875 
Q 54.890625 44.34375 54.890625 33.015625 
z
" id="DejaVuSans-110"/>
      <path d="M 9.421875 54.6875 
L 18.40625 54.6875 
L 18.40625 0 
L 9.421875 0 
z
M 9.421875 75.984375 
L 18.40625 75.984375 
L 18.40625 64.59375 
L 9.421875 64.59375 
z
" id="DejaVuSans-105"/>
      <path d="M 9.078125 75.984375 
L 18.109375 75.984375 
L 18.109375 31.109375 
L 44.921875 54.6875 
L 56.390625 54.6875 
L 27.390625 29.109375 
L 57.625 0 
L 45.90625 0 
L 18.109375 26.703125 
L 18.109375 0 
L 9.078125 0 
z
" id="DejaVuSans-107"/>
      <path d="M 56.203125 29.59375 
L 56.203125 25.203125 
L 14.890625 25.203125 
Q 15.484375 15.921875 20.484375 11.0625 
Q 25.484375 6.203125 34.421875 6.203125 
Q 39.59375 6.203125 44.453125 7.46875 
Q 49.3125 8.734375 54.109375 11.28125 
L 54.109375 2.78125 
Q 49.265625 0.734375 44.1875 -0.34375 
Q 39.109375 -1.421875 33.890625 -1.421875 
Q 20.796875 -1.421875 13.15625 6.1875 
Q 5.515625 13.8125 5.515625 26.8125 
Q 5.515625 40.234375 12.765625 48.109375 
Q 20.015625 56 32.328125 56 
Q 43.359375 56 49.78125 48.890625 
Q 56.203125 41.796875 56.203125 29.59375 
z
M 47.21875 32.234375 
Q 47.125 39.59375 43.09375 43.984375 
Q 39.0625 48.390625 32.421875 48.390625 
Q 24.90625 48.390625 20.390625 44.140625 
Q 15.875 39.890625 15.1875 32.171875 
z
" id="DejaVuSans-101"/>
      <path id="DejaVuSans-32"/>
      <path d="M 44.28125 53.078125 
L 44.28125 44.578125 
Q 40.484375 46.53125 36.375 47.5 
Q 32.28125 48.484375 27.875 48.484375 
Q 21.1875 48.484375 17.84375 46.4375 
Q 14.5 44.390625 14.5 40.28125 
Q 14.5 37.15625 16.890625 35.375 
Q 19.28125 33.59375 26.515625 31.984375 
L 29.59375 31.296875 
Q 39.15625 29.25 43.1875 25.515625 
Q 47.21875 21.78125 47.21875 15.09375 
Q 47.21875 7.46875 41.1875 3.015625 
Q 35.15625 -1.421875 24.609375 -1.421875 
Q 20.21875 -1.421875 15.453125 -0.5625 
Q 10.6875 0.296875 5.421875 2 
L 5.421875 11.28125 
Q 10.40625 8.6875 15.234375 7.390625 
Q 20.0625 6.109375 24.8125 6.109375 
Q 31.15625 6.109375 34.5625 8.28125 
Q 37.984375 10.453125 37.984375 14.40625 
Q 37.984375 18.0625 35.515625 20.015625 
Q 33.0625 21.96875 24.703125 23.78125 
L 21.578125 24.515625 
Q 13.234375 26.265625 9.515625 29.90625 
Q 5.8125 33.546875 5.8125 39.890625 
Q 5.8125 47.609375 11.28125 51.796875 
Q 16.75 56 26.8125 56 
Q 31.78125 56 36.171875 55.265625 
Q 40.578125 54.546875 44.28125 53.078125 
z
" id="DejaVuSans-115"/>
      <path d="M 18.3125 70.21875 
L 18.3125 54.6875 
L 36.8125 54.6875 
L 36.8125 47.703125 
L 18.3125 47.703125 
L 18.3125 18.015625 
Q 18.3125 11.328125 20.140625 9.421875 
Q 21.96875 7.515625 27.59375 7.515625 
L 36.8125 7.515625 
L 36.8125 0 
L 27.59375 0 
Q 17.1875 0 13.234375 3.875 
Q 9.28125 7.765625 9.28125 18.015625 
L 9.28125 47.703125 
L 2.6875 47.703125 
L 2.6875 54.6875 
L 9.28125 54.6875 
L 9.28125 70.21875 
z
" id="DejaVuSans-116"/>
      <path d="M 30.609375 48.390625 
Q 23.390625 48.390625 19.1875 42.75 
Q 14.984375 37.109375 14.984375 27.296875 
Q 14.984375 17.484375 19.15625 11.84375 
Q 23.34375 6.203125 30.609375 6.203125 
Q 37.796875 6.203125 41.984375 11.859375 
Q 46.1875 17.53125 46.1875 27.296875 
Q 46.1875 37.015625 41.984375 42.703125 
Q 37.796875 48.390625 30.609375 48.390625 
z
M 30.609375 56 
Q 42.328125 56 49.015625 48.375 
Q 55.71875 40.765625 55.71875 27.296875 
Q 55.71875 13.875 49.015625 6.21875 
Q 42.328125 -1.421875 30.609375 -1.421875 
Q 18.84375 -1.421875 12.171875 6.21875 
Q 5.515625 13.875 5.515625 27.296875 
Q 5.515625 40.765625 12.171875 48.375 
Q 18.84375 56 30.609375 56 
z
" id="DejaVuSans-111"/>
      <path d="M 48.78125 52.59375 
L 48.78125 44.1875 
Q 44.96875 46.296875 41.140625 47.34375 
Q 37.3125 48.390625 33.40625 48.390625 
Q 24.65625 48.390625 19.8125 42.84375 
Q 14.984375 37.3125 14.984375 27.296875 
Q 14.984375 17.28125 19.8125 11.734375 
Q 24.65625 6.203125 33.40625 6.203125 
Q 37.3125 6.203125 41.140625 7.25 
Q 44.96875 8.296875 48.78125 10.40625 
L 48.78125 2.09375 
Q 45.015625 0.34375 40.984375 -0.53125 
Q 36.96875 -1.421875 32.421875 -1.421875 
Q 20.0625 -1.421875 12.78125 6.34375 
Q 5.515625 14.109375 5.515625 27.296875 
Q 5.515625 40.671875 12.859375 48.328125 
Q 20.21875 56 33.015625 56 
Q 37.15625 56 41.109375 55.140625 
Q 45.0625 54.296875 48.78125 52.59375 
z
" id="DejaVuSans-99"/>
     </defs>
     <g transform="translate(292.34375 114.840312)scale(0.1 -0.1)">
      <use xlink:href="#DejaVuSans-110"/>
      <use x="63.378906" xlink:href="#DejaVuSans-105"/>
      <use x="91.162109" xlink:href="#DejaVuSans-107"/>
      <use x="149.072266" xlink:href="#DejaVuSans-107"/>
      <use x="206.935547" xlink:href="#DejaVuSans-101"/>
      <use x="268.458984" xlink:href="#DejaVuSans-105"/>
      <use x="296.242188" xlink:href="#DejaVuSans-32"/>
      <use x="328.029297" xlink:href="#DejaVuSans-115"/>
      <use x="380.128906" xlink:href="#DejaVuSans-116"/>
      <use x="419.337891" xlink:href="#DejaVuSans-111"/>
      <use x="480.519531" xlink:href="#DejaVuSans-99"/>
      <use x="535.5" xlink:href="#DejaVuSans-107"/>
     </g>
    </g>
    <g id="line2d_29">
     <path d="M 264.34375 126.018437 
L 284.34375 126.018437 
" style="fill:none;stroke:#ff7f0e;stroke-linecap:square;stroke-width:1.5;"/>
    </g>
    <g id="line2d_30"/>
    <g id="text_14">
     <!-- lstm pred result -->
     <defs>
      <path d="M 9.421875 75.984375 
L 18.40625 75.984375 
L 18.40625 0 
L 9.421875 0 
z
" id="DejaVuSans-108"/>
      <path d="M 52 44.1875 
Q 55.375 50.25 60.0625 53.125 
Q 64.75 56 71.09375 56 
Q 79.640625 56 84.28125 50.015625 
Q 88.921875 44.046875 88.921875 33.015625 
L 88.921875 0 
L 79.890625 0 
L 79.890625 32.71875 
Q 79.890625 40.578125 77.09375 44.375 
Q 74.3125 48.1875 68.609375 48.1875 
Q 61.625 48.1875 57.5625 43.546875 
Q 53.515625 38.921875 53.515625 30.90625 
L 53.515625 0 
L 44.484375 0 
L 44.484375 32.71875 
Q 44.484375 40.625 41.703125 44.40625 
Q 38.921875 48.1875 33.109375 48.1875 
Q 26.21875 48.1875 22.15625 43.53125 
Q 18.109375 38.875 18.109375 30.90625 
L 18.109375 0 
L 9.078125 0 
L 9.078125 54.6875 
L 18.109375 54.6875 
L 18.109375 46.1875 
Q 21.1875 51.21875 25.484375 53.609375 
Q 29.78125 56 35.6875 56 
Q 41.65625 56 45.828125 52.96875 
Q 50 49.953125 52 44.1875 
z
" id="DejaVuSans-109"/>
      <path d="M 18.109375 8.203125 
L 18.109375 -20.796875 
L 9.078125 -20.796875 
L 9.078125 54.6875 
L 18.109375 54.6875 
L 18.109375 46.390625 
Q 20.953125 51.265625 25.265625 53.625 
Q 29.59375 56 35.59375 56 
Q 45.5625 56 51.78125 48.09375 
Q 58.015625 40.1875 58.015625 27.296875 
Q 58.015625 14.40625 51.78125 6.484375 
Q 45.5625 -1.421875 35.59375 -1.421875 
Q 29.59375 -1.421875 25.265625 0.953125 
Q 20.953125 3.328125 18.109375 8.203125 
z
M 48.6875 27.296875 
Q 48.6875 37.203125 44.609375 42.84375 
Q 40.53125 48.484375 33.40625 48.484375 
Q 26.265625 48.484375 22.1875 42.84375 
Q 18.109375 37.203125 18.109375 27.296875 
Q 18.109375 17.390625 22.1875 11.75 
Q 26.265625 6.109375 33.40625 6.109375 
Q 40.53125 6.109375 44.609375 11.75 
Q 48.6875 17.390625 48.6875 27.296875 
z
" id="DejaVuSans-112"/>
      <path d="M 41.109375 46.296875 
Q 39.59375 47.171875 37.8125 47.578125 
Q 36.03125 48 33.890625 48 
Q 26.265625 48 22.1875 43.046875 
Q 18.109375 38.09375 18.109375 28.8125 
L 18.109375 0 
L 9.078125 0 
L 9.078125 54.6875 
L 18.109375 54.6875 
L 18.109375 46.1875 
Q 20.953125 51.171875 25.484375 53.578125 
Q 30.03125 56 36.53125 56 
Q 37.453125 56 38.578125 55.875 
Q 39.703125 55.765625 41.0625 55.515625 
z
" id="DejaVuSans-114"/>
      <path d="M 45.40625 46.390625 
L 45.40625 75.984375 
L 54.390625 75.984375 
L 54.390625 0 
L 45.40625 0 
L 45.40625 8.203125 
Q 42.578125 3.328125 38.25 0.953125 
Q 33.9375 -1.421875 27.875 -1.421875 
Q 17.96875 -1.421875 11.734375 6.484375 
Q 5.515625 14.40625 5.515625 27.296875 
Q 5.515625 40.1875 11.734375 48.09375 
Q 17.96875 56 27.875 56 
Q 33.9375 56 38.25 53.625 
Q 42.578125 51.265625 45.40625 46.390625 
z
M 14.796875 27.296875 
Q 14.796875 17.390625 18.875 11.75 
Q 22.953125 6.109375 30.078125 6.109375 
Q 37.203125 6.109375 41.296875 11.75 
Q 45.40625 17.390625 45.40625 27.296875 
Q 45.40625 37.203125 41.296875 42.84375 
Q 37.203125 48.484375 30.078125 48.484375 
Q 22.953125 48.484375 18.875 42.84375 
Q 14.796875 37.203125 14.796875 27.296875 
z
" id="DejaVuSans-100"/>
      <path d="M 8.5 21.578125 
L 8.5 54.6875 
L 17.484375 54.6875 
L 17.484375 21.921875 
Q 17.484375 14.15625 20.5 10.265625 
Q 23.53125 6.390625 29.59375 6.390625 
Q 36.859375 6.390625 41.078125 11.03125 
Q 45.3125 15.671875 45.3125 23.6875 
L 45.3125 54.6875 
L 54.296875 54.6875 
L 54.296875 0 
L 45.3125 0 
L 45.3125 8.40625 
Q 42.046875 3.421875 37.71875 1 
Q 33.40625 -1.421875 27.6875 -1.421875 
Q 18.265625 -1.421875 13.375 4.4375 
Q 8.5 10.296875 8.5 21.578125 
z
M 31.109375 56 
z
" id="DejaVuSans-117"/>
     </defs>
     <g transform="translate(292.34375 129.518437)scale(0.1 -0.1)">
      <use xlink:href="#DejaVuSans-108"/>
      <use x="27.783203" xlink:href="#DejaVuSans-115"/>
      <use x="79.882812" xlink:href="#DejaVuSans-116"/>
      <use x="119.091797" xlink:href="#DejaVuSans-109"/>
      <use x="216.503906" xlink:href="#DejaVuSans-32"/>
      <use x="248.291016" xlink:href="#DejaVuSans-112"/>
      <use x="311.767578" xlink:href="#DejaVuSans-114"/>
      <use x="352.849609" xlink:href="#DejaVuSans-101"/>
      <use x="414.373047" xlink:href="#DejaVuSans-100"/>
      <use x="477.849609" xlink:href="#DejaVuSans-32"/>
      <use x="509.636719" xlink:href="#DejaVuSans-114"/>
      <use x="550.71875" xlink:href="#DejaVuSans-101"/>
      <use x="612.242188" xlink:href="#DejaVuSans-115"/>
      <use x="664.341797" xlink:href="#DejaVuSans-117"/>
      <use x="727.720703" xlink:href="#DejaVuSans-108"/>
      <use x="755.503906" xlink:href="#DejaVuSans-116"/>
     </g>
    </g>
   </g>
  </g>
 </g>
 <defs>
  <clipPath id="p8236f0d9e1">
   <rect height="217.44" width="334.8" x="46.0125" y="10.7"/>
  </clipPath>
 </defs>
</svg>
