<?xml version="1.0" encoding="utf-8" standalone="no"?>
<!DOCTYPE svg PUBLIC "-//W3C//DTD SVG 1.1//EN"
  "http://www.w3.org/Graphics/SVG/1.1/DTD/svg11.dtd">
<!-- Created with matplotlib (https://matplotlib.org/) -->
<svg height="319.078125pt" version="1.1" viewBox="0 0 469.303125 319.078125" width="469.303125pt" xmlns="http://www.w3.org/2000/svg" xmlns:xlink="http://www.w3.org/1999/xlink">
 <defs>
  <style type="text/css">
*{stroke-linecap:butt;stroke-linejoin:round;}
  </style>
 </defs>
 <g id="figure_1">
  <g id="patch_1">
   <path d="M 0 319.078125 
L 469.303125 319.078125 
L 469.303125 0 
L 0 0 
z
" style="fill:#ffffff;"/>
  </g>
  <g id="axes_1">
   <g id="LineCollection_1">
    <path clip-path="url(#p0446cb64a4)" d="M 56.672724 275.296132 
L 56.672724 275.296132 
" style="fill:none;stroke:#000000;stroke-width:6.39921;"/>
    <path clip-path="url(#p0446cb64a4)" d="M 56.672724 275.296132 
L 56.672724 27.103868 
" style="fill:none;stroke:#000000;stroke-width:1.43353;"/>
    <path clip-path="url(#p0446cb64a4)" d="M 56.672724 275.296132 
L 435.533526 275.296132 
" style="fill:none;stroke:#000000;stroke-width:9.44669;"/>
    <path clip-path="url(#p0446cb64a4)" d="M 56.672724 275.296132 
L 435.533526 27.103868 
" style="fill:none;stroke:#000000;stroke-width:5.21848;"/>
    <path clip-path="url(#p0446cb64a4)" d="M 56.672724 275.296132 
L 246.103125 151.2 
" style="fill:none;"/>
    <path clip-path="url(#p0446cb64a4)" d="M 56.672724 27.103868 
L 56.672724 27.103868 
" style="fill:none;stroke:#000000;stroke-width:2.64556;"/>
    <path clip-path="url(#p0446cb64a4)" d="M 56.672724 27.103868 
L 435.533526 275.296132 
" style="fill:none;"/>
    <path clip-path="url(#p0446cb64a4)" d="M 56.672724 27.103868 
L 435.533526 27.103868 
" style="fill:none;stroke:#000000;stroke-width:4.5615;"/>
    <path clip-path="url(#p0446cb64a4)" d="M 56.672724 27.103868 
L 246.103125 151.2 
" style="fill:none;stroke:#000000;stroke-width:5.68434;"/>
    <path clip-path="url(#p0446cb64a4)" d="M 435.533526 275.296132 
L 435.533526 275.296132 
" style="fill:none;"/>
    <path clip-path="url(#p0446cb64a4)" d="M 435.533526 275.296132 
L 435.533526 27.103868 
" style="fill:none;stroke:#000000;stroke-width:6.17635;"/>
    <path clip-path="url(#p0446cb64a4)" d="M 435.533526 275.296132 
L 246.103125 151.2 
" style="fill:none;stroke:#000000;stroke-width:6.12096;"/>
    <path clip-path="url(#p0446cb64a4)" d="M 435.533526 27.103868 
L 435.533526 27.103868 
" style="fill:none;stroke:#000000;stroke-width:6.16934;"/>
    <path clip-path="url(#p0446cb64a4)" d="M 435.533526 27.103868 
L 246.103125 151.2 
" style="fill:none;stroke:#000000;stroke-width:9.43748;"/>
    <path clip-path="url(#p0446cb64a4)" d="M 246.103125 151.2 
L 246.103125 151.2 
" style="fill:none;"/>
   </g>
   <g id="PathCollection_1">
    <defs>
     <path d="M 0 15.811388 
C 4.193229 15.811388 8.215279 14.145401 11.18034 11.18034 
C 14.145401 8.215279 15.811388 4.193229 15.811388 0 
C 15.811388 -4.193229 14.145401 -8.215279 11.18034 -11.18034 
C 8.215279 -14.145401 4.193229 -15.811388 0 -15.811388 
C -4.193229 -15.811388 -8.215279 -14.145401 -11.18034 -11.18034 
C -14.145401 -8.215279 -15.811388 -4.193229 -15.811388 0 
C -15.811388 4.193229 -14.145401 8.215279 -11.18034 11.18034 
C -8.215279 14.145401 -4.193229 15.811388 0 15.811388 
z
" id="mc6e596d194" style="stroke:#000000;"/>
    </defs>
    <g clip-path="url(#p0446cb64a4)">
     <use style="stroke:#000000;" x="56.672724" xlink:href="#mc6e596d194" y="275.296132"/>
     <use style="stroke:#000000;" x="56.672724" xlink:href="#mc6e596d194" y="27.103868"/>
     <use style="stroke:#000000;" x="435.533526" xlink:href="#mc6e596d194" y="275.296132"/>
     <use style="stroke:#000000;" x="435.533526" xlink:href="#mc6e596d194" y="27.103868"/>
     <use style="stroke:#000000;" x="246.103125" xlink:href="#mc6e596d194" y="151.2"/>
    </g>
   </g>
   <g id="text_1">
    <g clip-path="url(#p0446cb64a4)">
     <!-- A -->
     <defs>
      <path d="M 34.1875 63.1875 
L 20.796875 26.90625 
L 47.609375 26.90625 
z
M 28.609375 72.90625 
L 39.796875 72.90625 
L 67.578125 0 
L 57.328125 0 
L 50.6875 18.703125 
L 17.828125 18.703125 
L 11.1875 0 
L 0.78125 0 
z
" id="DejaVuSans-65"/>
     </defs>
     <g transform="translate(51.200224 279.711132)scale(0.16 -0.16)">
      <use xlink:href="#DejaVuSans-65"/>
     </g>
    </g>
   </g>
   <g id="text_2">
    <g clip-path="url(#p0446cb64a4)">
     <!-- B -->
     <defs>
      <path d="M 19.671875 34.8125 
L 19.671875 8.109375 
L 35.5 8.109375 
Q 43.453125 8.109375 47.28125 11.40625 
Q 51.125 14.703125 51.125 21.484375 
Q 51.125 28.328125 47.28125 31.5625 
Q 43.453125 34.8125 35.5 34.8125 
z
M 19.671875 64.796875 
L 19.671875 42.828125 
L 34.28125 42.828125 
Q 41.5 42.828125 45.03125 45.53125 
Q 48.578125 48.25 48.578125 53.8125 
Q 48.578125 59.328125 45.03125 62.0625 
Q 41.5 64.796875 34.28125 64.796875 
z
M 9.8125 72.90625 
L 35.015625 72.90625 
Q 46.296875 72.90625 52.390625 68.21875 
Q 58.5 63.53125 58.5 54.890625 
Q 58.5 48.1875 55.375 44.234375 
Q 52.25 40.28125 46.1875 39.3125 
Q 53.46875 37.75 57.5 32.78125 
Q 61.53125 27.828125 61.53125 20.40625 
Q 61.53125 10.640625 54.890625 5.3125 
Q 48.25 0 35.984375 0 
L 9.8125 0 
z
" id="DejaVuSans-66"/>
     </defs>
     <g transform="translate(51.183974 31.518868)scale(0.16 -0.16)">
      <use xlink:href="#DejaVuSans-66"/>
     </g>
    </g>
   </g>
   <g id="text_3">
    <g clip-path="url(#p0446cb64a4)">
     <!-- C -->
     <defs>
      <path d="M 64.40625 67.28125 
L 64.40625 56.890625 
Q 59.421875 61.53125 53.78125 63.8125 
Q 48.140625 66.109375 41.796875 66.109375 
Q 29.296875 66.109375 22.65625 58.46875 
Q 16.015625 50.828125 16.015625 36.375 
Q 16.015625 21.96875 22.65625 14.328125 
Q 29.296875 6.6875 41.796875 6.6875 
Q 48.140625 6.6875 53.78125 8.984375 
Q 59.421875 11.28125 64.40625 15.921875 
L 64.40625 5.609375 
Q 59.234375 2.09375 53.4375 0.328125 
Q 47.65625 -1.421875 41.21875 -1.421875 
Q 24.65625 -1.421875 15.125 8.703125 
Q 5.609375 18.84375 5.609375 36.375 
Q 5.609375 53.953125 15.125 64.078125 
Q 24.65625 74.21875 41.21875 74.21875 
Q 47.75 74.21875 53.53125 72.484375 
Q 59.328125 70.75 64.40625 67.28125 
z
" id="DejaVuSans-67"/>
     </defs>
     <g transform="translate(429.947276 279.711132)scale(0.16 -0.16)">
      <use xlink:href="#DejaVuSans-67"/>
     </g>
    </g>
   </g>
   <g id="text_4">
    <g clip-path="url(#p0446cb64a4)">
     <!-- D -->
     <defs>
      <path d="M 19.671875 64.796875 
L 19.671875 8.109375 
L 31.59375 8.109375 
Q 46.6875 8.109375 53.6875 14.9375 
Q 60.6875 21.78125 60.6875 36.53125 
Q 60.6875 51.171875 53.6875 57.984375 
Q 46.6875 64.796875 31.59375 64.796875 
z
M 9.8125 72.90625 
L 30.078125 72.90625 
Q 51.265625 72.90625 61.171875 64.09375 
Q 71.09375 55.28125 71.09375 36.53125 
Q 71.09375 17.671875 61.125 8.828125 
Q 51.171875 0 30.078125 0 
L 9.8125 0 
z
" id="DejaVuSans-68"/>
     </defs>
     <g transform="translate(429.373526 31.518868)scale(0.16 -0.16)">
      <use xlink:href="#DejaVuSans-68"/>
     </g>
    </g>
   </g>
   <g id="text_5">
    <g clip-path="url(#p0446cb64a4)">
     <!-- E -->
     <defs>
      <path d="M 9.8125 72.90625 
L 55.90625 72.90625 
L 55.90625 64.59375 
L 19.671875 64.59375 
L 19.671875 43.015625 
L 54.390625 43.015625 
L 54.390625 34.71875 
L 19.671875 34.71875 
L 19.671875 8.296875 
L 56.78125 8.296875 
L 56.78125 0 
L 9.8125 0 
z
" id="DejaVuSans-69"/>
     </defs>
     <g transform="translate(241.048125 155.615)scale(0.16 -0.16)">
      <use xlink:href="#DejaVuSans-69"/>
     </g>
    </g>
   </g>
  </g>
 </g>
 <defs>
  <clipPath id="p0446cb64a4">
   <rect height="288" width="432" x="30.103125" y="7.2"/>
  </clipPath>
 </defs>
</svg>
