<?xml version="1.0" encoding="utf-8" standalone="no"?>
<!DOCTYPE svg PUBLIC "-//W3C//DTD SVG 1.1//EN"
  "http://www.w3.org/Graphics/SVG/1.1/DTD/svg11.dtd">
<!-- Created with matplotlib (https://matplotlib.org/) -->
<svg height="248.518125pt" version="1.1" viewBox="0 0 378.465625 248.518125" width="378.465625pt" xmlns="http://www.w3.org/2000/svg" xmlns:xlink="http://www.w3.org/1999/xlink">
 <metadata>
  <rdf:RDF xmlns:cc="http://creativecommons.org/ns#" xmlns:dc="http://purl.org/dc/elements/1.1/" xmlns:rdf="http://www.w3.org/1999/02/22-rdf-syntax-ns#">
   <cc:Work>
    <dc:type rdf:resource="http://purl.org/dc/dcmitype/StillImage"/>
    <dc:date>2020-12-10T00:06:35.795604</dc:date>
    <dc:format>image/svg+xml</dc:format>
    <dc:creator>
     <cc:Agent>
      <dc:title>Matplotlib v3.3.2, https://matplotlib.org/</dc:title>
     </cc:Agent>
    </dc:creator>
   </cc:Work>
  </rdf:RDF>
 </metadata>
 <defs>
  <style type="text/css">*{stroke-linecap:butt;stroke-linejoin:round;}</style>
 </defs>
 <g id="figure_1">
  <g id="patch_1">
   <path d="M 0 248.518125 
L 378.465625 248.518125 
L 378.465625 0 
L 0 0 
z
" style="fill:none;"/>
  </g>
  <g id="axes_1">
   <g id="patch_2">
    <path d="M 36.465625 224.64 
L 371.265625 224.64 
L 371.265625 7.2 
L 36.465625 7.2 
z
" style="fill:#ffffff;"/>
   </g>
   <g id="matplotlib.axis_1">
    <g id="xtick_1">
     <g id="line2d_1">
      <path clip-path="url(#pef9d89fc2f)" d="M 51.683807 224.64 
L 51.683807 7.2 
" style="fill:none;stroke:#b0b0b0;stroke-linecap:square;stroke-width:0.8;"/>
     </g>
     <g id="line2d_2">
      <defs>
       <path d="M 0 0 
L 0 3.5 
" id="m5844a1bf5e" style="stroke:#000000;stroke-width:0.8;"/>
      </defs>
      <g>
       <use style="stroke:#000000;stroke-width:0.8;" x="51.683807" xlink:href="#m5844a1bf5e" y="224.64"/>
      </g>
     </g>
     <g id="text_1">
      <!-- 0 -->
      <g transform="translate(48.502557 239.238437)scale(0.1 -0.1)">
       <defs>
        <path d="M 31.78125 66.40625 
Q 24.171875 66.40625 20.328125 58.90625 
Q 16.5 51.421875 16.5 36.375 
Q 16.5 21.390625 20.328125 13.890625 
Q 24.171875 6.390625 31.78125 6.390625 
Q 39.453125 6.390625 43.28125 13.890625 
Q 47.125 21.390625 47.125 36.375 
Q 47.125 51.421875 43.28125 58.90625 
Q 39.453125 66.40625 31.78125 66.40625 
z
M 31.78125 74.21875 
Q 44.046875 74.21875 50.515625 64.515625 
Q 56.984375 54.828125 56.984375 36.375 
Q 56.984375 17.96875 50.515625 8.265625 
Q 44.046875 -1.421875 31.78125 -1.421875 
Q 19.53125 -1.421875 13.0625 8.265625 
Q 6.59375 17.96875 6.59375 36.375 
Q 6.59375 54.828125 13.0625 64.515625 
Q 19.53125 74.21875 31.78125 74.21875 
z
" id="DejaVuSans-48"/>
       </defs>
       <use xlink:href="#DejaVuSans-48"/>
      </g>
     </g>
    </g>
    <g id="xtick_2">
     <g id="line2d_3">
      <path clip-path="url(#pef9d89fc2f)" d="M 89.920445 224.64 
L 89.920445 7.2 
" style="fill:none;stroke:#b0b0b0;stroke-linecap:square;stroke-width:0.8;"/>
     </g>
     <g id="line2d_4">
      <g>
       <use style="stroke:#000000;stroke-width:0.8;" x="89.920445" xlink:href="#m5844a1bf5e" y="224.64"/>
      </g>
     </g>
     <g id="text_2">
      <!-- 25 -->
      <g transform="translate(83.557945 239.238437)scale(0.1 -0.1)">
       <defs>
        <path d="M 19.1875 8.296875 
L 53.609375 8.296875 
L 53.609375 0 
L 7.328125 0 
L 7.328125 8.296875 
Q 12.9375 14.109375 22.625 23.890625 
Q 32.328125 33.6875 34.8125 36.53125 
Q 39.546875 41.84375 41.421875 45.53125 
Q 43.3125 49.21875 43.3125 52.78125 
Q 43.3125 58.59375 39.234375 62.25 
Q 35.15625 65.921875 28.609375 65.921875 
Q 23.96875 65.921875 18.8125 64.3125 
Q 13.671875 62.703125 7.8125 59.421875 
L 7.8125 69.390625 
Q 13.765625 71.78125 18.9375 73 
Q 24.125 74.21875 28.421875 74.21875 
Q 39.75 74.21875 46.484375 68.546875 
Q 53.21875 62.890625 53.21875 53.421875 
Q 53.21875 48.921875 51.53125 44.890625 
Q 49.859375 40.875 45.40625 35.40625 
Q 44.1875 33.984375 37.640625 27.21875 
Q 31.109375 20.453125 19.1875 8.296875 
z
" id="DejaVuSans-50"/>
        <path d="M 10.796875 72.90625 
L 49.515625 72.90625 
L 49.515625 64.59375 
L 19.828125 64.59375 
L 19.828125 46.734375 
Q 21.96875 47.46875 24.109375 47.828125 
Q 26.265625 48.1875 28.421875 48.1875 
Q 40.625 48.1875 47.75 41.5 
Q 54.890625 34.8125 54.890625 23.390625 
Q 54.890625 11.625 47.5625 5.09375 
Q 40.234375 -1.421875 26.90625 -1.421875 
Q 22.3125 -1.421875 17.546875 -0.640625 
Q 12.796875 0.140625 7.71875 1.703125 
L 7.71875 11.625 
Q 12.109375 9.234375 16.796875 8.0625 
Q 21.484375 6.890625 26.703125 6.890625 
Q 35.15625 6.890625 40.078125 11.328125 
Q 45.015625 15.765625 45.015625 23.390625 
Q 45.015625 31 40.078125 35.4375 
Q 35.15625 39.890625 26.703125 39.890625 
Q 22.75 39.890625 18.8125 39.015625 
Q 14.890625 38.140625 10.796875 36.28125 
z
" id="DejaVuSans-53"/>
       </defs>
       <use xlink:href="#DejaVuSans-50"/>
       <use x="63.623047" xlink:href="#DejaVuSans-53"/>
      </g>
     </g>
    </g>
    <g id="xtick_3">
     <g id="line2d_5">
      <path clip-path="url(#pef9d89fc2f)" d="M 128.157082 224.64 
L 128.157082 7.2 
" style="fill:none;stroke:#b0b0b0;stroke-linecap:square;stroke-width:0.8;"/>
     </g>
     <g id="line2d_6">
      <g>
       <use style="stroke:#000000;stroke-width:0.8;" x="128.157082" xlink:href="#m5844a1bf5e" y="224.64"/>
      </g>
     </g>
     <g id="text_3">
      <!-- 50 -->
      <g transform="translate(121.794582 239.238437)scale(0.1 -0.1)">
       <use xlink:href="#DejaVuSans-53"/>
       <use x="63.623047" xlink:href="#DejaVuSans-48"/>
      </g>
     </g>
    </g>
    <g id="xtick_4">
     <g id="line2d_7">
      <path clip-path="url(#pef9d89fc2f)" d="M 166.39372 224.64 
L 166.39372 7.2 
" style="fill:none;stroke:#b0b0b0;stroke-linecap:square;stroke-width:0.8;"/>
     </g>
     <g id="line2d_8">
      <g>
       <use style="stroke:#000000;stroke-width:0.8;" x="166.39372" xlink:href="#m5844a1bf5e" y="224.64"/>
      </g>
     </g>
     <g id="text_4">
      <!-- 75 -->
      <g transform="translate(160.03122 239.238437)scale(0.1 -0.1)">
       <defs>
        <path d="M 8.203125 72.90625 
L 55.078125 72.90625 
L 55.078125 68.703125 
L 28.609375 0 
L 18.3125 0 
L 43.21875 64.59375 
L 8.203125 64.59375 
z
" id="DejaVuSans-55"/>
       </defs>
       <use xlink:href="#DejaVuSans-55"/>
       <use x="63.623047" xlink:href="#DejaVuSans-53"/>
      </g>
     </g>
    </g>
    <g id="xtick_5">
     <g id="line2d_9">
      <path clip-path="url(#pef9d89fc2f)" d="M 204.630358 224.64 
L 204.630358 7.2 
" style="fill:none;stroke:#b0b0b0;stroke-linecap:square;stroke-width:0.8;"/>
     </g>
     <g id="line2d_10">
      <g>
       <use style="stroke:#000000;stroke-width:0.8;" x="204.630358" xlink:href="#m5844a1bf5e" y="224.64"/>
      </g>
     </g>
     <g id="text_5">
      <!-- 100 -->
      <g transform="translate(195.086608 239.238437)scale(0.1 -0.1)">
       <defs>
        <path d="M 12.40625 8.296875 
L 28.515625 8.296875 
L 28.515625 63.921875 
L 10.984375 60.40625 
L 10.984375 69.390625 
L 28.421875 72.90625 
L 38.28125 72.90625 
L 38.28125 8.296875 
L 54.390625 8.296875 
L 54.390625 0 
L 12.40625 0 
z
" id="DejaVuSans-49"/>
       </defs>
       <use xlink:href="#DejaVuSans-49"/>
       <use x="63.623047" xlink:href="#DejaVuSans-48"/>
       <use x="127.246094" xlink:href="#DejaVuSans-48"/>
      </g>
     </g>
    </g>
    <g id="xtick_6">
     <g id="line2d_11">
      <path clip-path="url(#pef9d89fc2f)" d="M 242.866995 224.64 
L 242.866995 7.2 
" style="fill:none;stroke:#b0b0b0;stroke-linecap:square;stroke-width:0.8;"/>
     </g>
     <g id="line2d_12">
      <g>
       <use style="stroke:#000000;stroke-width:0.8;" x="242.866995" xlink:href="#m5844a1bf5e" y="224.64"/>
      </g>
     </g>
     <g id="text_6">
      <!-- 125 -->
      <g transform="translate(233.323245 239.238437)scale(0.1 -0.1)">
       <use xlink:href="#DejaVuSans-49"/>
       <use x="63.623047" xlink:href="#DejaVuSans-50"/>
       <use x="127.246094" xlink:href="#DejaVuSans-53"/>
      </g>
     </g>
    </g>
    <g id="xtick_7">
     <g id="line2d_13">
      <path clip-path="url(#pef9d89fc2f)" d="M 281.103633 224.64 
L 281.103633 7.2 
" style="fill:none;stroke:#b0b0b0;stroke-linecap:square;stroke-width:0.8;"/>
     </g>
     <g id="line2d_14">
      <g>
       <use style="stroke:#000000;stroke-width:0.8;" x="281.103633" xlink:href="#m5844a1bf5e" y="224.64"/>
      </g>
     </g>
     <g id="text_7">
      <!-- 150 -->
      <g transform="translate(271.559883 239.238437)scale(0.1 -0.1)">
       <use xlink:href="#DejaVuSans-49"/>
       <use x="63.623047" xlink:href="#DejaVuSans-53"/>
       <use x="127.246094" xlink:href="#DejaVuSans-48"/>
      </g>
     </g>
    </g>
    <g id="xtick_8">
     <g id="line2d_15">
      <path clip-path="url(#pef9d89fc2f)" d="M 319.340271 224.64 
L 319.340271 7.2 
" style="fill:none;stroke:#b0b0b0;stroke-linecap:square;stroke-width:0.8;"/>
     </g>
     <g id="line2d_16">
      <g>
       <use style="stroke:#000000;stroke-width:0.8;" x="319.340271" xlink:href="#m5844a1bf5e" y="224.64"/>
      </g>
     </g>
     <g id="text_8">
      <!-- 175 -->
      <g transform="translate(309.796521 239.238437)scale(0.1 -0.1)">
       <use xlink:href="#DejaVuSans-49"/>
       <use x="63.623047" xlink:href="#DejaVuSans-55"/>
       <use x="127.246094" xlink:href="#DejaVuSans-53"/>
      </g>
     </g>
    </g>
    <g id="xtick_9">
     <g id="line2d_17">
      <path clip-path="url(#pef9d89fc2f)" d="M 357.576909 224.64 
L 357.576909 7.2 
" style="fill:none;stroke:#b0b0b0;stroke-linecap:square;stroke-width:0.8;"/>
     </g>
     <g id="line2d_18">
      <g>
       <use style="stroke:#000000;stroke-width:0.8;" x="357.576909" xlink:href="#m5844a1bf5e" y="224.64"/>
      </g>
     </g>
     <g id="text_9">
      <!-- 200 -->
      <g transform="translate(348.033159 239.238437)scale(0.1 -0.1)">
       <use xlink:href="#DejaVuSans-50"/>
       <use x="63.623047" xlink:href="#DejaVuSans-48"/>
       <use x="127.246094" xlink:href="#DejaVuSans-48"/>
      </g>
     </g>
    </g>
   </g>
   <g id="matplotlib.axis_2">
    <g id="ytick_1">
     <g id="line2d_19">
      <path clip-path="url(#pef9d89fc2f)" d="M 36.465625 192.84652 
L 371.265625 192.84652 
" style="fill:none;stroke:#b0b0b0;stroke-linecap:square;stroke-width:0.8;"/>
     </g>
     <g id="line2d_20">
      <defs>
       <path d="M 0 0 
L -3.5 0 
" id="m2815426b4f" style="stroke:#000000;stroke-width:0.8;"/>
      </defs>
      <g>
       <use style="stroke:#000000;stroke-width:0.8;" x="36.465625" xlink:href="#m2815426b4f" y="192.84652"/>
      </g>
     </g>
     <g id="text_10">
      <!-- 0.05 -->
      <g transform="translate(7.2 196.645739)scale(0.1 -0.1)">
       <defs>
        <path d="M 10.6875 12.40625 
L 21 12.40625 
L 21 0 
L 10.6875 0 
z
" id="DejaVuSans-46"/>
       </defs>
       <use xlink:href="#DejaVuSans-48"/>
       <use x="63.623047" xlink:href="#DejaVuSans-46"/>
       <use x="95.410156" xlink:href="#DejaVuSans-48"/>
       <use x="159.033203" xlink:href="#DejaVuSans-53"/>
      </g>
     </g>
    </g>
    <g id="ytick_2">
     <g id="line2d_21">
      <path clip-path="url(#pef9d89fc2f)" d="M 36.465625 160.814225 
L 371.265625 160.814225 
" style="fill:none;stroke:#b0b0b0;stroke-linecap:square;stroke-width:0.8;"/>
     </g>
     <g id="line2d_22">
      <g>
       <use style="stroke:#000000;stroke-width:0.8;" x="36.465625" xlink:href="#m2815426b4f" y="160.814225"/>
      </g>
     </g>
     <g id="text_11">
      <!-- 0.10 -->
      <g transform="translate(7.2 164.613444)scale(0.1 -0.1)">
       <use xlink:href="#DejaVuSans-48"/>
       <use x="63.623047" xlink:href="#DejaVuSans-46"/>
       <use x="95.410156" xlink:href="#DejaVuSans-49"/>
       <use x="159.033203" xlink:href="#DejaVuSans-48"/>
      </g>
     </g>
    </g>
    <g id="ytick_3">
     <g id="line2d_23">
      <path clip-path="url(#pef9d89fc2f)" d="M 36.465625 128.78193 
L 371.265625 128.78193 
" style="fill:none;stroke:#b0b0b0;stroke-linecap:square;stroke-width:0.8;"/>
     </g>
     <g id="line2d_24">
      <g>
       <use style="stroke:#000000;stroke-width:0.8;" x="36.465625" xlink:href="#m2815426b4f" y="128.78193"/>
      </g>
     </g>
     <g id="text_12">
      <!-- 0.15 -->
      <g transform="translate(7.2 132.581148)scale(0.1 -0.1)">
       <use xlink:href="#DejaVuSans-48"/>
       <use x="63.623047" xlink:href="#DejaVuSans-46"/>
       <use x="95.410156" xlink:href="#DejaVuSans-49"/>
       <use x="159.033203" xlink:href="#DejaVuSans-53"/>
      </g>
     </g>
    </g>
    <g id="ytick_4">
     <g id="line2d_25">
      <path clip-path="url(#pef9d89fc2f)" d="M 36.465625 96.749634 
L 371.265625 96.749634 
" style="fill:none;stroke:#b0b0b0;stroke-linecap:square;stroke-width:0.8;"/>
     </g>
     <g id="line2d_26">
      <g>
       <use style="stroke:#000000;stroke-width:0.8;" x="36.465625" xlink:href="#m2815426b4f" y="96.749634"/>
      </g>
     </g>
     <g id="text_13">
      <!-- 0.20 -->
      <g transform="translate(7.2 100.548853)scale(0.1 -0.1)">
       <use xlink:href="#DejaVuSans-48"/>
       <use x="63.623047" xlink:href="#DejaVuSans-46"/>
       <use x="95.410156" xlink:href="#DejaVuSans-50"/>
       <use x="159.033203" xlink:href="#DejaVuSans-48"/>
      </g>
     </g>
    </g>
    <g id="ytick_5">
     <g id="line2d_27">
      <path clip-path="url(#pef9d89fc2f)" d="M 36.465625 64.717339 
L 371.265625 64.717339 
" style="fill:none;stroke:#b0b0b0;stroke-linecap:square;stroke-width:0.8;"/>
     </g>
     <g id="line2d_28">
      <g>
       <use style="stroke:#000000;stroke-width:0.8;" x="36.465625" xlink:href="#m2815426b4f" y="64.717339"/>
      </g>
     </g>
     <g id="text_14">
      <!-- 0.25 -->
      <g transform="translate(7.2 68.516558)scale(0.1 -0.1)">
       <use xlink:href="#DejaVuSans-48"/>
       <use x="63.623047" xlink:href="#DejaVuSans-46"/>
       <use x="95.410156" xlink:href="#DejaVuSans-50"/>
       <use x="159.033203" xlink:href="#DejaVuSans-53"/>
      </g>
     </g>
    </g>
    <g id="ytick_6">
     <g id="line2d_29">
      <path clip-path="url(#pef9d89fc2f)" d="M 36.465625 32.685044 
L 371.265625 32.685044 
" style="fill:none;stroke:#b0b0b0;stroke-linecap:square;stroke-width:0.8;"/>
     </g>
     <g id="line2d_30">
      <g>
       <use style="stroke:#000000;stroke-width:0.8;" x="36.465625" xlink:href="#m2815426b4f" y="32.685044"/>
      </g>
     </g>
     <g id="text_15">
      <!-- 0.30 -->
      <g transform="translate(7.2 36.484263)scale(0.1 -0.1)">
       <defs>
        <path d="M 40.578125 39.3125 
Q 47.65625 37.796875 51.625 33 
Q 55.609375 28.21875 55.609375 21.1875 
Q 55.609375 10.40625 48.1875 4.484375 
Q 40.765625 -1.421875 27.09375 -1.421875 
Q 22.515625 -1.421875 17.65625 -0.515625 
Q 12.796875 0.390625 7.625 2.203125 
L 7.625 11.71875 
Q 11.71875 9.328125 16.59375 8.109375 
Q 21.484375 6.890625 26.8125 6.890625 
Q 36.078125 6.890625 40.9375 10.546875 
Q 45.796875 14.203125 45.796875 21.1875 
Q 45.796875 27.640625 41.28125 31.265625 
Q 36.765625 34.90625 28.71875 34.90625 
L 20.21875 34.90625 
L 20.21875 43.015625 
L 29.109375 43.015625 
Q 36.375 43.015625 40.234375 45.921875 
Q 44.09375 48.828125 44.09375 54.296875 
Q 44.09375 59.90625 40.109375 62.90625 
Q 36.140625 65.921875 28.71875 65.921875 
Q 24.65625 65.921875 20.015625 65.03125 
Q 15.375 64.15625 9.8125 62.3125 
L 9.8125 71.09375 
Q 15.4375 72.65625 20.34375 73.4375 
Q 25.25 74.21875 29.59375 74.21875 
Q 40.828125 74.21875 47.359375 69.109375 
Q 53.90625 64.015625 53.90625 55.328125 
Q 53.90625 49.265625 50.4375 45.09375 
Q 46.96875 40.921875 40.578125 39.3125 
z
" id="DejaVuSans-51"/>
       </defs>
       <use xlink:href="#DejaVuSans-48"/>
       <use x="63.623047" xlink:href="#DejaVuSans-46"/>
       <use x="95.410156" xlink:href="#DejaVuSans-51"/>
       <use x="159.033203" xlink:href="#DejaVuSans-48"/>
      </g>
     </g>
    </g>
   </g>
   <g id="line2d_31">
    <path clip-path="url(#pef9d89fc2f)" d="M 51.683807 17.083636 
L 53.213272 161.526669 
L 54.742738 176.702268 
L 56.272203 181.921305 
L 57.801669 185.44513 
L 59.331134 187.462144 
L 62.390065 190.730441 
L 65.448996 192.989682 
L 66.978462 194.042209 
L 68.507927 194.91875 
L 71.566858 196.344242 
L 73.096324 196.938737 
L 74.625789 197.684309 
L 76.155255 198.298656 
L 77.68472 198.784912 
L 79.214186 199.136419 
L 80.743651 199.664684 
L 82.273117 200.008286 
L 83.802583 200.514847 
L 88.390979 201.471615 
L 89.920445 201.576014 
L 99.097238 202.908246 
L 103.685634 203.311988 
L 105.2151 203.499197 
L 106.744565 203.479052 
L 111.332962 203.931347 
L 115.921358 204.148546 
L 120.509755 204.394747 
L 137.333875 204.999488 
L 141.922272 204.972166 
L 144.981203 205.138252 
L 149.569599 205.20969 
L 154.157996 205.292269 
L 158.746392 205.281745 
L 160.275858 205.400854 
L 161.805323 205.369527 
L 164.864255 205.516471 
L 172.511582 205.563955 
L 177.099979 205.61298 
L 178.629444 205.536362 
L 181.688375 205.61687 
L 186.276772 205.728507 
L 189.335703 205.720462 
L 190.865168 205.799995 
L 196.98303 205.682559 
L 198.512496 205.784098 
L 201.571427 205.84721 
L 206.159823 205.885161 
L 207.689289 205.8173 
L 210.74822 205.893841 
L 226.042875 206.017789 
L 232.160737 205.9665 
L 235.219668 206.049867 
L 250.514323 206.085604 
L 258.161651 206.079129 
L 261.220582 206.12607 
L 287.221495 206.233834 
L 288.750961 206.140827 
L 290.280426 206.268205 
L 293.339357 206.263283 
L 302.51615 206.273069 
L 310.163478 206.337277 
L 314.751874 206.326607 
L 319.340271 206.318563 
L 320.869736 206.188557 
L 322.399202 206.325372 
L 328.517064 206.37097 
L 356.047443 206.395799 
L 356.047443 206.395799 
" style="fill:none;stroke:#1f77b4;stroke-linecap:square;stroke-width:1.5;"/>
   </g>
   <g id="line2d_32">
    <path clip-path="url(#pef9d89fc2f)" d="M 51.683807 137.190596 
L 53.213272 176.292447 
L 54.742738 183.55182 
L 56.272203 187.764229 
L 57.801669 189.968648 
L 59.331134 191.785448 
L 60.8606 192.968945 
L 62.390065 195.854196 
L 63.919531 196.945561 
L 65.448996 196.659136 
L 66.978462 198.449085 
L 68.507927 199.496668 
L 70.037393 200.2519 
L 71.566858 199.712881 
L 73.096324 202.434476 
L 74.625789 203.026714 
L 76.155255 202.580426 
L 77.68472 202.689317 
L 79.214186 204.892493 
L 80.743651 204.518687 
L 82.273117 205.908309 
L 83.802583 205.854169 
L 85.332048 207.078289 
L 86.861514 206.848612 
L 88.390979 207.624025 
L 89.920445 208.126182 
L 91.44991 208.277361 
L 94.508841 207.955313 
L 96.038307 209.067253 
L 97.567772 209.034139 
L 99.097238 209.725345 
L 100.626703 209.572954 
L 102.156169 209.027791 
L 103.685634 209.515142 
L 105.2151 208.637962 
L 106.744565 210.201105 
L 108.274031 210.532923 
L 109.803496 210.655941 
L 112.862427 211.116891 
L 114.391893 209.977173 
L 115.921358 211.027048 
L 117.450824 211.070472 
L 118.980289 209.985274 
L 120.509755 211.25679 
L 122.03922 210.958296 
L 123.568686 211.31605 
L 125.098151 210.816732 
L 126.627617 210.440058 
L 128.157082 211.644221 
L 129.686548 210.703761 
L 131.216013 210.769035 
L 132.745479 211.370146 
L 134.274944 211.742798 
L 135.80441 211.761502 
L 137.333875 211.10105 
L 138.863341 212.126145 
L 140.392806 212.433723 
L 141.922272 212.498216 
L 143.451737 211.856407 
L 144.981203 212.829271 
L 146.510668 212.998229 
L 148.040134 211.956551 
L 149.569599 212.701383 
L 151.099065 211.474334 
L 152.62853 212.221573 
L 154.157996 211.604325 
L 155.687461 213.325512 
L 157.216927 213.386047 
L 160.275858 212.456914 
L 161.805323 212.936536 
L 163.334789 212.120043 
L 164.864255 212.932417 
L 166.39372 211.970995 
L 167.923186 212.77493 
L 169.452651 213.418346 
L 170.982117 212.304241 
L 172.511582 213.553684 
L 174.041048 213.198972 
L 175.570513 213.214128 
L 177.099979 212.057733 
L 180.15891 212.548921 
L 181.688375 212.303932 
L 183.217841 213.294422 
L 184.747306 213.56268 
L 186.276772 212.515466 
L 187.806237 213.215243 
L 189.335703 213.145733 
L 190.865168 213.57089 
L 192.394634 213.302131 
L 193.924099 214.095472 
L 195.453565 214.174668 
L 198.512496 213.621694 
L 200.041961 213.169138 
L 201.571427 213.480819 
L 203.100892 212.569628 
L 204.630358 213.641603 
L 206.159823 214.115072 
L 207.689289 213.703405 
L 209.218754 213.738562 
L 210.74822 214.114196 
L 212.277685 213.395275 
L 213.807151 214.156366 
L 215.336616 213.554136 
L 216.866082 213.722425 
L 221.454478 213.685347 
L 222.983944 213.100924 
L 224.513409 213.39774 
L 226.042875 214.311043 
L 227.57234 213.832402 
L 229.101806 214.347048 
L 232.160737 214.177409 
L 233.690202 213.992982 
L 235.219668 213.94653 
L 236.749133 213.596958 
L 238.278599 213.11951 
L 239.808064 213.321954 
L 241.33753 214.122068 
L 242.866995 213.061519 
L 244.396461 213.759173 
L 245.925927 214.199824 
L 248.984858 214.286528 
L 250.514323 213.263668 
L 252.043789 214.361228 
L 253.573254 214.222997 
L 255.10272 213.552198 
L 256.632185 213.828396 
L 258.161651 213.231836 
L 259.691116 213.259933 
L 261.220582 212.601647 
L 262.750047 213.087758 
L 264.279513 212.809432 
L 265.808978 213.737616 
L 267.338444 214.06032 
L 268.867909 212.81782 
L 270.397375 213.731522 
L 273.456306 213.264622 
L 276.515237 214.273918 
L 278.044702 213.366253 
L 279.574168 213.240989 
L 281.103633 212.898983 
L 282.633099 213.959691 
L 284.162564 213.186036 
L 285.69203 213.228175 
L 287.221495 212.770128 
L 288.750961 213.399046 
L 290.280426 213.238866 
L 291.809892 214.518461 
L 293.339357 213.175718 
L 294.868823 212.549259 
L 296.398288 213.550234 
L 297.927754 213.980274 
L 299.457219 213.540221 
L 300.986685 212.866877 
L 302.51615 213.834255 
L 304.045616 214.29271 
L 305.575081 212.838855 
L 307.104547 213.842014 
L 308.634012 214.429668 
L 310.163478 213.226559 
L 313.222409 214.403629 
L 314.751874 214.067389 
L 316.28134 213.940458 
L 319.340271 213.194171 
L 320.869736 214.435647 
L 322.399202 214.756364 
L 323.928667 213.710433 
L 325.458133 213.71331 
L 326.987599 213.274319 
L 328.517064 214.010304 
L 330.04653 213.13226 
L 331.575995 213.129176 
L 333.105461 213.694535 
L 336.164392 213.834105 
L 337.693857 214.070325 
L 339.223323 213.474752 
L 340.752788 214.237419 
L 342.282254 214.692819 
L 343.811719 214.293737 
L 345.341185 214.489182 
L 346.87065 214.375394 
L 348.400116 212.673306 
L 349.929581 212.976977 
L 351.459047 212.765899 
L 352.988512 213.565597 
L 354.517978 213.895302 
L 356.047443 213.672434 
L 356.047443 213.672434 
" style="fill:none;stroke:#ff7f0e;stroke-linecap:square;stroke-width:1.5;"/>
   </g>
   <g id="patch_3">
    <path d="M 36.465625 224.64 
L 36.465625 7.2 
" style="fill:none;stroke:#000000;stroke-linecap:square;stroke-linejoin:miter;stroke-width:0.8;"/>
   </g>
   <g id="patch_4">
    <path d="M 371.265625 224.64 
L 371.265625 7.2 
" style="fill:none;stroke:#000000;stroke-linecap:square;stroke-linejoin:miter;stroke-width:0.8;"/>
   </g>
   <g id="patch_5">
    <path d="M 36.465625 224.64 
L 371.265625 224.64 
" style="fill:none;stroke:#000000;stroke-linecap:square;stroke-linejoin:miter;stroke-width:0.8;"/>
   </g>
   <g id="patch_6">
    <path d="M 36.465625 7.2 
L 371.265625 7.2 
" style="fill:none;stroke:#000000;stroke-linecap:square;stroke-linejoin:miter;stroke-width:0.8;"/>
   </g>
  </g>
 </g>
 <defs>
  <clipPath id="pef9d89fc2f">
   <rect height="217.44" width="334.8" x="36.465625" y="7.2"/>
  </clipPath>
 </defs>
</svg>
