<?xml version="1.0" encoding="utf-8" standalone="no"?>
<!DOCTYPE svg PUBLIC "-//W3C//DTD SVG 1.1//EN"
  "http://www.w3.org/Graphics/SVG/1.1/DTD/svg11.dtd">
<!-- Created with matplotlib (https://matplotlib.org/) -->
<svg height="248.51043pt" version="1.1" viewBox="0 0 273.158554 248.51043" width="273.158554pt" xmlns="http://www.w3.org/2000/svg" xmlns:xlink="http://www.w3.org/1999/xlink">
 <metadata>
  <rdf:RDF xmlns:cc="http://creativecommons.org/ns#" xmlns:dc="http://purl.org/dc/elements/1.1/" xmlns:rdf="http://www.w3.org/1999/02/22-rdf-syntax-ns#">
   <cc:Work>
    <dc:type rdf:resource="http://purl.org/dc/dcmitype/StillImage"/>
    <dc:date>2022-01-16T12:01:26.275769</dc:date>
    <dc:format>image/svg+xml</dc:format>
    <dc:creator>
     <cc:Agent>
      <dc:title>Matplotlib v3.3.2, https://matplotlib.org/</dc:title>
     </cc:Agent>
    </dc:creator>
   </cc:Work>
  </rdf:RDF>
 </metadata>
 <defs>
  <style type="text/css">*{stroke-linecap:butt;stroke-linejoin:round;}</style>
 </defs>
 <g id="figure_1">
  <g id="patch_1">
   <path d="M 0 248.51043 
L 273.158554 248.51043 
L 273.158554 0 
L 0 0 
z
" style="fill:none;"/>
  </g>
  <g id="axes_1">
   <g id="patch_2">
    <path clip-path="url(#p2536ea3555)" d="M 142.301274 56.089682 
C 132.85693 48.336661 121.596223 43.108129 109.579052 40.896215 
C 97.561881 38.684301 85.177492 39.560652 73.591551 43.44278 
C 62.005609 47.324909 51.593394 54.087071 43.33494 63.092786 
C 35.076486 72.098501 29.239293 83.056067 26.372778 94.934116 
C 23.506264 106.812166 23.703277 119.225959 26.945274 131.007063 
C 30.187271 142.788168 36.369241 153.554983 44.909314 162.294097 
C 53.449387 171.033211 64.070943 177.461557 75.774241 180.974074 
C 87.477539 184.486591 99.8835 184.969506 111.824429 182.377365 
C 109.318579 177.255136 107.428723 171.853876 106.194447 166.286734 
C 104.960172 160.719591 104.390158 155.025713 104.496346 149.324377 
C 97.459458 141.53279 92.758268 131.91392 90.93382 121.57477 
C 89.109373 111.23562 90.234449 100.588646 94.179569 90.859173 
C 98.124689 81.129699 104.732471 72.70586 113.242447 66.557126 
C 121.752424 60.408392 131.82511 56.780053 142.301274 56.089682 
" style="fill:#ff0000;opacity:0.4;"/>
   </g>
   <g id="patch_3">
    <path clip-path="url(#p2536ea3555)" d="M 142.301274 56.089682 
C 146.287696 59.362202 149.911789 63.052717 153.111378 67.09791 
C 156.310966 71.143103 159.067647 75.519707 161.334125 80.152635 
C 166.374346 79.058502 171.517379 78.507905 176.674989 78.510288 
C 181.8326 78.512671 186.975122 79.068023 192.014329 80.166813 
C 186.523792 72.191707 179.054037 65.77848 170.339903 61.558031 
C 161.625768 57.337583 151.96269 55.453002 142.301274 56.089682 
" style="fill:#008000;opacity:0.4;"/>
   </g>
   <g id="patch_4">
    <path clip-path="url(#p2536ea3555)" d="M 142.301274 56.089682 
C 131.82511 56.780053 121.752424 60.408392 113.242447 66.557126 
C 104.732471 72.70586 98.124689 81.129699 94.179569 90.859173 
C 90.234449 100.588646 89.109373 111.23562 90.93382 121.57477 
C 92.758268 131.91392 97.459458 141.53279 104.496346 149.324377 
C 104.798854 133.082456 110.577439 117.409078 120.890579 104.857957 
C 131.203719 92.306836 145.459127 83.598785 161.334125 80.152635 
C 159.067647 75.519707 156.310966 71.143103 153.111378 67.09791 
C 149.911789 63.052717 146.287696 59.362202 142.301274 56.089682 
" style="fill:#b25900;opacity:0.4;"/>
   </g>
   <g id="patch_5">
    <path clip-path="url(#p2536ea3555)" d="M 111.824429 182.377365 
C 117.194006 193.353366 125.264598 202.787698 135.27657 209.792367 
C 145.288542 216.797035 156.917598 221.145153 169.069168 222.427459 
C 181.220738 223.709765 193.501222 221.884724 204.754736 217.124116 
C 216.00825 212.363508 225.870283 204.821534 233.412583 195.20807 
C 240.954883 185.594607 245.933149 174.221044 247.878808 162.157903 
C 249.824467 150.094762 248.674498 137.732778 244.537139 126.235508 
C 240.399781 114.738237 233.409046 104.478086 224.222928 96.420779 
C 215.036811 88.363471 203.952857 82.769989 192.014329 80.166813 
C 197.967885 88.814461 201.366148 98.967079 201.818026 109.456237 
C 202.269904 119.945395 199.757369 130.352653 194.569581 139.480274 
C 189.381793 148.607896 181.725705 156.091757 172.482432 161.070565 
C 163.239159 166.049373 152.777438 168.32451 142.301274 167.634139 
C 137.893832 171.252283 133.072996 174.335253 127.939755 176.818467 
C 122.806515 179.301681 117.396965 181.167677 111.824429 182.377365 
" style="fill:#0000ff;opacity:0.4;"/>
   </g>
   <g id="patch_6">
    <path clip-path="url(#p2536ea3555)" d="M 111.824429 182.377365 
C 117.396965 181.167677 122.806515 179.301681 127.939755 176.818467 
C 133.072996 174.335253 137.893832 171.252283 142.301274 167.634139 
C 135.11763 167.160742 128.092644 165.303859 121.613342 162.165789 
C 115.134039 159.02772 109.321633 154.667171 104.496346 149.324377 
C 104.390158 155.025713 104.960172 160.719591 106.194447 166.286734 
C 107.428723 171.853876 109.318579 177.255136 111.824429 182.377365 
" style="fill:#b200b2;opacity:0.4;"/>
   </g>
   <g id="patch_7">
    <path clip-path="url(#p2536ea3555)" d="M 161.334125 80.152635 
C 168.472768 94.7448 170.478769 111.328611 167.025283 127.202014 
C 163.571798 143.075417 154.85716 157.3268 142.301274 167.634139 
C 152.777438 168.32451 163.239159 166.049373 172.482432 161.070565 
C 181.725705 156.091757 189.381793 148.607896 194.569581 139.480274 
C 199.757369 130.352653 202.269904 119.945395 201.818026 109.456237 
C 201.366148 98.967079 197.967885 88.814461 192.014329 80.166813 
C 186.975122 79.068023 181.8326 78.512671 176.674989 78.510288 
C 171.517379 78.507905 166.374346 79.058502 161.334125 80.152635 
" style="fill:#0059b2;opacity:0.4;"/>
   </g>
   <g id="patch_8">
    <path clip-path="url(#p2536ea3555)" d="M 104.496346 149.324377 
C 109.321633 154.667171 115.134039 159.02772 121.613342 162.165789 
C 128.092644 165.303859 135.11763 167.160742 142.301274 167.634139 
C 154.85716 157.3268 163.571798 143.075417 167.025283 127.202014 
C 170.478769 111.328611 168.472768 94.7448 161.334125 80.152635 
C 145.459127 83.598785 131.203719 92.306836 120.890579 104.857957 
C 110.577439 117.409078 104.798854 133.082456 104.496346 149.324377 
" style="fill:#663366;opacity:0.4;"/>
   </g>
   <g id="text_1">
    <!-- 30 -->
    <g transform="translate(48.147683 101.38059)scale(0.1 -0.1)">
     <defs>
      <path d="M 37.203125 37.796875 
Q 54.78125 34.625 54.78125 19.96875 
Q 54.78125 11.1875 48.875 5.5625 
Q 42.328125 -0.484375 30.375 -0.484375 
Q 12.453125 -0.484375 4.5 13.765625 
L 11.8125 17.671875 
Q 17.328125 6.890625 30.28125 6.890625 
Q 37.890625 6.890625 42.09375 10.796875 
Q 46.09375 14.5 46.09375 20.171875 
Q 46.09375 26.859375 40.09375 30.90625 
Q 34.625 34.578125 25.6875 34.578125 
L 21.296875 34.578125 
L 21.296875 41.703125 
L 25.875 41.703125 
Q 34.859375 41.703125 39.59375 45.125 
Q 44.671875 48.734375 44.671875 54.828125 
Q 44.671875 61.46875 38.96875 64.65625 
Q 35.296875 66.84375 30.171875 66.84375 
Q 19.34375 66.84375 14.109375 55.90625 
L 6.78125 59.421875 
Q 14.015625 73.828125 30.28125 73.828125 
Q 40.578125 73.828125 46.96875 68.65625 
Q 53.375 63.578125 53.375 55.21875 
Q 53.375 47.3125 47.171875 42.28125 
Q 43.171875 39.0625 37.203125 38.1875 
z
" id="IPAexGothic-51"/>
      <path d="M 31.84375 73.828125 
Q 45.015625 73.828125 52.09375 61.625 
Q 57.71875 51.953125 57.71875 36.625 
Q 57.71875 21.4375 52.09375 11.578125 
Q 45.125 -0.484375 31.5 -0.484375 
Q 17.921875 -0.484375 10.9375 11.578125 
Q 5.328125 21.4375 5.328125 36.71875 
Q 5.328125 58.015625 15.625 67.71875 
Q 22.171875 73.828125 31.84375 73.828125 
z
M 31.5 66.65625 
Q 23.6875 66.65625 19.1875 58.734375 
Q 14.59375 50.734375 14.59375 36.625 
Q 14.59375 22.75 19.09375 14.796875 
Q 23.640625 6.984375 31.5 6.984375 
Q 40.921875 6.984375 45.453125 18.015625 
Q 48.4375 25.34375 48.4375 37.109375 
Q 48.4375 50.875 43.84375 58.734375 
Q 39.203125 66.65625 31.5 66.65625 
z
" id="IPAexGothic-48"/>
     </defs>
     <use xlink:href="#IPAexGothic-51"/>
     <use x="62.988281" xlink:href="#IPAexGothic-48"/>
    </g>
   </g>
   <g id="text_2">
    <!-- 0 -->
    <g transform="translate(164.721945 69.450652)scale(0.1 -0.1)">
     <use xlink:href="#IPAexGothic-48"/>
    </g>
   </g>
   <g id="text_3">
    <!-- 10 -->
    <g transform="translate(103.106696 95.789957)scale(0.1 -0.1)">
     <defs>
      <path d="M 38.484375 0.984375 
L 29.6875 0.984375 
L 29.6875 64.109375 
Q 21.4375 61.28125 12.3125 59.328125 
L 10.6875 66.109375 
Q 23.734375 69.390625 32.90625 73.921875 
L 38.484375 73.921875 
z
" id="IPAexGothic-49"/>
     </defs>
     <use xlink:href="#IPAexGothic-49"/>
     <use x="62.988281" xlink:href="#IPAexGothic-48"/>
    </g>
   </g>
   <g id="text_4">
    <!-- 30 -->
    <g transform="translate(206.843966 178.240708)scale(0.1 -0.1)">
     <use xlink:href="#IPAexGothic-51"/>
     <use x="62.988281" xlink:href="#IPAexGothic-48"/>
    </g>
   </g>
   <g id="text_5">
    <!-- 0 -->
    <g transform="translate(115.957082 170.137492)scale(0.1 -0.1)">
     <use xlink:href="#IPAexGothic-48"/>
    </g>
   </g>
   <g id="text_6">
    <!-- 10 -->
    <g transform="translate(177.155798 131.653574)scale(0.1 -0.1)">
     <use xlink:href="#IPAexGothic-49"/>
     <use x="62.988281" xlink:href="#IPAexGothic-48"/>
    </g>
   </g>
   <g id="text_7">
    <!-- 10 -->
    <g transform="translate(132.665596 129.136406)scale(0.1 -0.1)">
     <use xlink:href="#IPAexGothic-49"/>
     <use x="62.988281" xlink:href="#IPAexGothic-48"/>
    </g>
   </g>
   <g id="text_8">
    <!-- Group:A -->
    <g transform="translate(13.525506 39.704101)scale(0.12 -0.12)">
     <defs>
      <path d="M 68.796875 12.203125 
Q 65.1875 7.71875 58.296875 3.90625 
Q 50.140625 -0.484375 40.484375 -0.484375 
Q 25.09375 -0.484375 15.4375 9.8125 
Q 5.90625 19.921875 5.90625 36.328125 
Q 5.90625 53.21875 15.828125 63.71875 
Q 25.296875 73.828125 39.59375 73.828125 
Q 59.375 73.828125 67.578125 56.6875 
L 59.625 52.984375 
Q 53.46875 66.21875 39.703125 66.21875 
Q 29.546875 66.21875 22.703125 58.5 
Q 15.53125 50.25 15.53125 36.375 
Q 15.53125 23.921875 21.828125 15.96875 
Q 28.8125 7.171875 41.015625 7.171875 
Q 54.046875 7.171875 60.59375 15.09375 
L 60.59375 29 
L 44.671875 29 
L 44.671875 35.796875 
L 68.796875 35.796875 
z
" id="IPAexGothic-71"/>
      <path d="M 36.078125 51.8125 
L 34.578125 43.265625 
Q 32.90625 43.609375 31.59375 43.609375 
Q 25.828125 43.609375 22.078125 38.1875 
Q 17.390625 31.34375 17.390625 26.171875 
L 17.390625 0.984375 
L 8.796875 0.984375 
L 8.796875 50.78125 
L 16.890625 50.78125 
L 16.5 35.984375 
L 16.703125 35.984375 
Q 22.21875 52.203125 32.765625 52.203125 
Q 34.46875 52.203125 36.078125 51.8125 
z
" id="IPAexGothic-114"/>
      <path d="M 29.984375 52.203125 
Q 40.53125 52.203125 47.75 45.125 
Q 55.171875 37.703125 55.171875 25.59375 
Q 55.171875 13.875 47.90625 6.59375 
Q 40.765625 -0.484375 29.984375 -0.484375 
Q 19.1875 -0.484375 12.203125 6.5 
Q 4.890625 13.765625 4.890625 25.875 
Q 4.890625 37.703125 12.3125 45.125 
Q 19.390625 52.203125 29.984375 52.203125 
z
M 29.984375 45.609375 
Q 23.734375 45.609375 19.390625 41.109375 
Q 13.875 35.59375 13.875 25.78125 
Q 13.875 16.109375 19.28125 10.6875 
Q 23.6875 6.296875 29.984375 6.296875 
Q 36.421875 6.296875 40.765625 10.796875 
Q 46.1875 16.21875 46.1875 26.125 
Q 46.1875 35.453125 40.671875 41.109375 
Q 36.1875 45.609375 29.984375 45.609375 
z
" id="IPAexGothic-111"/>
      <path d="M 51.3125 0.984375 
L 43.3125 0.984375 
L 43.3125 10.0625 
Q 35.9375 0 25.390625 0 
Q 16.75 0 11.921875 5.859375 
Q 8.109375 10.59375 8.109375 19.390625 
L 8.109375 50.78125 
L 16.703125 50.78125 
L 16.703125 19.671875 
Q 16.703125 7.28125 27.09375 7.28125 
Q 37.59375 7.28125 42.71875 20.171875 
L 42.71875 50.78125 
L 51.3125 50.78125 
z
" id="IPAexGothic-117"/>
      <path d="M 16.796875 42 
Q 23.828125 52.203125 34.46875 52.203125 
Q 43.265625 52.203125 49.5625 45.90625 
Q 56.890625 38.578125 56.890625 25.6875 
Q 56.890625 13.140625 49.65625 5.8125 
Q 43.359375 -0.484375 34.375 -0.484375 
Q 24.515625 -0.484375 17.28125 7.765625 
L 17.28125 -19 
L 8.796875 -19 
L 8.796875 50.78125 
L 16.796875 50.78125 
z
M 17.28125 30.46875 
L 17.28125 20.171875 
Q 17.28125 14.015625 23.6875 9.375 
Q 27.984375 6.296875 32.90625 6.296875 
Q 38.578125 6.296875 42.578125 10.296875 
Q 47.90625 15.578125 47.90625 25.484375 
Q 47.90625 34.375 43.5 39.984375 
Q 39.109375 45.3125 32.8125 45.3125 
Q 25.875 45.3125 20.90625 38.8125 
Q 17.28125 34.125 17.28125 30.46875 
z
" id="IPAexGothic-112"/>
      <path d="M 21.390625 39.984375 
L 10.5 39.984375 
L 10.5 50.78125 
L 21.390625 50.78125 
z
M 21.390625 0.984375 
L 10.5 0.984375 
L 10.5 11.765625 
L 21.390625 11.765625 
z
" id="IPAexGothic-58"/>
      <path d="M 63.375 0.984375 
L 53.8125 0.984375 
L 45.90625 22.015625 
L 17.1875 22.015625 
L 9.421875 0.984375 
L -0.09375 0.984375 
L 28.21875 72.90625 
L 35.296875 72.90625 
z
M 43.40625 29.109375 
L 36.1875 48.09375 
Q 33.203125 56.0625 31.6875 62.5 
L 31.390625 62.5 
Q 29.640625 55.671875 26.8125 48.09375 
L 19.734375 29.109375 
z
" id="IPAexGothic-65"/>
     </defs>
     <use xlink:href="#IPAexGothic-71"/>
     <use x="75.292969" xlink:href="#IPAexGothic-114"/>
     <use x="112.304688" xlink:href="#IPAexGothic-111"/>
     <use x="172.705078" xlink:href="#IPAexGothic-117"/>
     <use x="233.105469" xlink:href="#IPAexGothic-112"/>
     <use x="295.214844" xlink:href="#IPAexGothic-58"/>
     <use x="327.197266" xlink:href="#IPAexGothic-65"/>
    </g>
   </g>
   <g id="text_9">
    <!-- Group:B -->
    <g transform="translate(173.923221 55.968712)scale(0.12 -0.12)">
     <defs>
      <path d="M 42 37.890625 
Q 59.625 34.765625 59.625 20.90625 
Q 59.625 8.6875 47.515625 3.46875 
Q 41.75 0.984375 32.71875 0.984375 
L 9.515625 0.984375 
L 9.515625 72.40625 
L 29.9375 72.40625 
Q 38.96875 72.40625 44.828125 70.3125 
Q 56.9375 65.96875 56.9375 54.546875 
Q 56.9375 40.765625 42 38.234375 
z
M 18.109375 41.5 
L 28.8125 41.5 
Q 47.859375 41.5 47.859375 53.609375 
Q 47.859375 65.328125 29.390625 65.328125 
L 18.109375 65.328125 
z
M 18.109375 8.15625 
L 31.5 8.15625 
Q 50.34375 8.15625 50.34375 21.390625 
Q 50.34375 29.640625 41.015625 32.8125 
Q 35.59375 34.71875 29.296875 34.71875 
L 18.109375 34.71875 
z
" id="IPAexGothic-66"/>
     </defs>
     <use xlink:href="#IPAexGothic-71"/>
     <use x="75.292969" xlink:href="#IPAexGothic-114"/>
     <use x="112.304688" xlink:href="#IPAexGothic-111"/>
     <use x="172.705078" xlink:href="#IPAexGothic-117"/>
     <use x="233.105469" xlink:href="#IPAexGothic-112"/>
     <use x="295.214844" xlink:href="#IPAexGothic-58"/>
     <use x="327.197266" xlink:href="#IPAexGothic-66"/>
    </g>
   </g>
   <g id="text_10">
    <!-- Group:C -->
    <g transform="translate(152.657581 239.03043)scale(0.12 -0.12)">
     <defs>
      <path d="M 68.015625 17 
Q 65.328125 10.84375 60.296875 6.6875 
Q 51.765625 -0.484375 39.984375 -0.484375 
Q 24.8125 -0.484375 14.984375 10.203125 
Q 5.90625 20.21875 5.90625 36.421875 
Q 5.90625 53.21875 15.828125 63.71875 
Q 25.296875 73.828125 39.59375 73.828125 
Q 59.578125 73.828125 67.53125 56.6875 
L 59.515625 52.984375 
Q 53.515625 66.21875 39.703125 66.21875 
Q 29.546875 66.21875 22.703125 58.5 
Q 15.53125 50.25 15.53125 36.28125 
Q 15.53125 24.21875 21.625 16.5 
Q 28.765625 7.375 40.046875 7.375 
Q 54 7.375 60.59375 20.609375 
z
" id="IPAexGothic-67"/>
     </defs>
     <use xlink:href="#IPAexGothic-71"/>
     <use x="75.292969" xlink:href="#IPAexGothic-114"/>
     <use x="112.304688" xlink:href="#IPAexGothic-111"/>
     <use x="172.705078" xlink:href="#IPAexGothic-117"/>
     <use x="233.105469" xlink:href="#IPAexGothic-112"/>
     <use x="295.214844" xlink:href="#IPAexGothic-58"/>
     <use x="327.197266" xlink:href="#IPAexGothic-67"/>
    </g>
   </g>
   <g id="text_11">
    <!-- Group:A,Group:B,Group:Cのベン図 -->
    <g transform="translate(38.379902 16.545)scale(0.12 -0.12)">
     <defs>
      <path d="M 17.96875 11.375 
Q 16.0625 -2.484375 8.796875 -15.71875 
L 2.390625 -14.015625 
Q 7.71875 -1.5625 8.890625 11.375 
z
" id="IPAexGothic-44"/>
      <path d="M 48.734375 7.328125 
Q 82.421875 11.96875 82.421875 37.890625 
Q 82.421875 53.953125 68.953125 61.328125 
Q 63.140625 64.3125 55.421875 64.984375 
Q 53.03125 39.453125 44.53125 21.875 
Q 36.28125 4.78125 26.90625 4.78125 
Q 21.625 4.78125 16.9375 10.40625 
Q 9.515625 19.4375 9.515625 31.296875 
Q 9.515625 47.265625 21.828125 59.28125 
Q 34.125 71.296875 53.609375 71.296875 
Q 67.28125 71.296875 77 64.40625 
Q 90.828125 54.78125 90.828125 37.890625 
Q 90.828125 6.84375 53.609375 0.09375 
z
M 47.703125 64.796875 
Q 37.15625 63.1875 29.546875 56.890625 
Q 17.140625 46.578125 17.140625 31.109375 
Q 17.140625 21.34375 22.40625 15.28125 
Q 24.703125 12.703125 26.859375 12.703125 
Q 31.59375 12.703125 37.75 25.390625 
Q 45.453125 41.21875 47.703125 64.796875 
z
" id="IPAexGothic-12398"/>
      <path d="M 6.6875 31.109375 
Q 17.484375 39.796875 32.8125 57.515625 
Q 36.8125 62.109375 40.09375 62.109375 
Q 43.3125 62.109375 49.703125 56 
Q 67.625 38.671875 92.96875 21.1875 
L 87.5 13.484375 
Q 62.40625 32.515625 44 50.640625 
Q 41.453125 53.03125 40.375 53.03125 
Q 39.265625 53.03125 35.796875 48.828125 
Q 26.65625 37.25 12.109375 23.875 
z
M 83.6875 58.109375 
Q 78.03125 66.546875 71.875 71.6875 
L 76.609375 75.296875 
Q 82.625 70.453125 88.671875 62.40625 
z
M 74.359375 50.78125 
Q 69.875 58.453125 62.890625 64.703125 
L 67.78125 68.453125 
Q 73.578125 63.671875 79.59375 55.078125 
z
" id="IPAexGothic-12505"/>
      <path d="M 38.1875 48.1875 
Q 28.375 57.125 16.5 63.8125 
L 21.578125 70.609375 
Q 32.234375 65.484375 44 55.609375 
z
M 17.1875 9.515625 
Q 62.25 17.28125 81.5 59.8125 
L 87.796875 54.203125 
Q 68.953125 12.40625 22.40625 1.609375 
z
" id="IPAexGothic-12531"/>
      <path d="M 52.734375 22.3125 
Q 40.71875 11.671875 25.390625 6.984375 
L 21.1875 12.984375 
Q 35.890625 17.046875 46.34375 25.484375 
L 43.609375 26.703125 
Q 33.40625 31.59375 20.90625 36.375 
L 24.609375 41.703125 
Q 36.8125 37.109375 51.515625 30.328125 
Q 63.578125 43.109375 69.09375 65.28125 
L 75.828125 62.703125 
Q 69.625 40.4375 57.71875 27.296875 
Q 67.390625 22.40625 78.125 16.40625 
L 73.53125 10.40625 
Q 64.265625 16.265625 53.609375 21.78125 
z
M 33.296875 41.890625 
Q 29.640625 54.15625 25.390625 60.984375 
L 31.84375 63.8125 
Q 36.421875 55.671875 39.984375 44.828125 
z
M 49.515625 44.28125 
Q 45.84375 56.296875 41.609375 63.375 
L 47.796875 66.015625 
Q 52.59375 58.25 56.203125 47.21875 
z
M 90.140625 77.875 
L 90.140625 -6.984375 
L 82.8125 -6.984375 
L 82.8125 -2 
L 17.140625 -2 
L 17.140625 -6.984375 
L 9.8125 -6.984375 
L 9.8125 77.875 
z
M 17.140625 71.484375 
L 17.140625 4.296875 
L 82.8125 4.296875 
L 82.8125 71.484375 
z
" id="IPAexGothic-22259"/>
     </defs>
     <use xlink:href="#IPAexGothic-71"/>
     <use x="75.292969" xlink:href="#IPAexGothic-114"/>
     <use x="112.304688" xlink:href="#IPAexGothic-111"/>
     <use x="172.705078" xlink:href="#IPAexGothic-117"/>
     <use x="233.105469" xlink:href="#IPAexGothic-112"/>
     <use x="295.214844" xlink:href="#IPAexGothic-58"/>
     <use x="327.197266" xlink:href="#IPAexGothic-65"/>
     <use x="390.917969" xlink:href="#IPAexGothic-44"/>
     <use x="417.333984" xlink:href="#IPAexGothic-71"/>
     <use x="492.626953" xlink:href="#IPAexGothic-114"/>
     <use x="529.638672" xlink:href="#IPAexGothic-111"/>
     <use x="590.039062" xlink:href="#IPAexGothic-117"/>
     <use x="650.439453" xlink:href="#IPAexGothic-112"/>
     <use x="712.548828" xlink:href="#IPAexGothic-58"/>
     <use x="744.53125" xlink:href="#IPAexGothic-66"/>
     <use x="810.449219" xlink:href="#IPAexGothic-44"/>
     <use x="836.865234" xlink:href="#IPAexGothic-71"/>
     <use x="912.158203" xlink:href="#IPAexGothic-114"/>
     <use x="949.169922" xlink:href="#IPAexGothic-111"/>
     <use x="1009.570312" xlink:href="#IPAexGothic-117"/>
     <use x="1069.970703" xlink:href="#IPAexGothic-112"/>
     <use x="1132.080078" xlink:href="#IPAexGothic-58"/>
     <use x="1164.0625" xlink:href="#IPAexGothic-67"/>
     <use x="1236.572266" xlink:href="#IPAexGothic-12398"/>
     <use x="1336.572266" xlink:href="#IPAexGothic-12505"/>
     <use x="1436.572266" xlink:href="#IPAexGothic-12531"/>
     <use x="1536.572266" xlink:href="#IPAexGothic-22259"/>
    </g>
   </g>
  </g>
 </g>
 <defs>
  <clipPath id="p2536ea3555">
   <rect height="217.44" width="258.758554" x="7.2" y="22.545"/>
  </clipPath>
 </defs>
</svg>
