<?xml version="1.0" encoding="utf-8" standalone="no"?>
<!DOCTYPE svg PUBLIC "-//W3C//DTD SVG 1.1//EN"
  "http://www.w3.org/Graphics/SVG/1.1/DTD/svg11.dtd">
<!-- Created with matplotlib (https://matplotlib.org/) -->
<svg height="245.042633pt" version="1.1" viewBox="0 0 349.2 245.042633" width="349.2pt" xmlns="http://www.w3.org/2000/svg" xmlns:xlink="http://www.w3.org/1999/xlink">
 <metadata>
  <rdf:RDF xmlns:cc="http://creativecommons.org/ns#" xmlns:dc="http://purl.org/dc/elements/1.1/" xmlns:rdf="http://www.w3.org/1999/02/22-rdf-syntax-ns#">
   <cc:Work>
    <dc:type rdf:resource="http://purl.org/dc/dcmitype/StillImage"/>
    <dc:date>2022-01-16T12:01:25.268743</dc:date>
    <dc:format>image/svg+xml</dc:format>
    <dc:creator>
     <cc:Agent>
      <dc:title>Matplotlib v3.3.2, https://matplotlib.org/</dc:title>
     </cc:Agent>
    </dc:creator>
   </cc:Work>
  </rdf:RDF>
 </metadata>
 <defs>
  <style type="text/css">*{stroke-linecap:butt;stroke-linejoin:round;}</style>
 </defs>
 <g id="figure_1">
  <g id="patch_1">
   <path d="M 0 245.042633 
L 349.2 245.042633 
L 349.2 0 
L 0 0 
z
" style="fill:none;"/>
  </g>
  <g id="axes_1">
   <g id="patch_2">
    <path clip-path="url(#p0a90128875)" d="M 174.6 193.38566 
C 166.004129 185.257817 159.156385 175.46087 154.47676 164.595699 
C 149.797135 153.730527 147.383298 142.023899 147.383298 130.193817 
C 147.383298 118.363735 149.797135 106.657106 154.47676 95.791935 
C 159.156385 84.926763 166.004129 75.129817 174.6 67.001973 
C 162.25378 55.327978 146.752852 47.524252 130.021947 44.559775 
C 113.291042 41.595297 96.052544 43.598063 80.446935 50.319393 
C 64.841325 57.040723 51.542403 68.190411 42.201477 82.384016 
C 32.860551 96.577621 27.880932 113.20231 27.880932 130.193817 
C 27.880932 147.185324 32.860551 163.810013 42.201477 178.003617 
C 51.542403 192.197222 64.841325 203.346911 80.446935 210.06824 
C 96.052544 216.78957 113.291042 218.792336 130.021947 215.827859 
C 146.752852 212.863381 162.25378 205.059655 174.6 193.38566 
" style="fill:#ff0000;opacity:0.4;"/>
   </g>
   <g id="patch_3">
    <path clip-path="url(#p0a90128875)" d="M 174.6 67.001973 
C 183.195871 75.129817 190.043615 84.926763 194.72324 95.791935 
C 199.402865 106.657106 201.816702 118.363735 201.816702 130.193817 
C 201.816702 142.023899 199.402865 153.730527 194.72324 164.595699 
C 190.043615 175.46087 183.195871 185.257817 174.6 193.38566 
C 186.94622 205.059655 202.447148 212.863381 219.178053 215.827859 
C 235.908958 218.792336 253.147456 216.78957 268.753065 210.06824 
C 284.358675 203.346911 297.657597 192.197222 306.998523 178.003617 
C 316.339449 163.810013 321.319068 147.185324 321.319068 130.193817 
C 321.319068 113.20231 316.339449 96.577621 306.998523 82.384016 
C 297.657597 68.190411 284.358675 57.040723 268.753065 50.319393 
C 253.147456 43.598063 235.908958 41.595297 219.178053 44.559775 
C 202.447148 47.524252 186.94622 55.327978 174.6 67.001973 
" style="fill:#008000;opacity:0.4;"/>
   </g>
   <g id="patch_4">
    <path clip-path="url(#p0a90128875)" d="M 174.6 193.38566 
C 183.195871 185.257817 190.043615 175.46087 194.72324 164.595699 
C 199.402865 153.730527 201.816702 142.023899 201.816702 130.193817 
C 201.816702 118.363735 199.402865 106.657106 194.72324 95.791935 
C 190.043615 84.926763 183.195871 75.129817 174.6 67.001973 
C 166.004129 75.129817 159.156385 84.926763 154.47676 95.791935 
C 149.797135 106.657106 147.383298 118.363735 147.383298 130.193817 
C 147.383298 142.023899 149.797135 153.730527 154.47676 164.595699 
C 159.156385 175.46087 166.004129 185.257817 174.6 193.38566 
" style="fill:#b25900;opacity:0.4;"/>
   </g>
   <g id="text_1">
    <!-- 40 -->
    <g transform="translate(81.333677 132.989129)scale(0.1 -0.1)">
     <defs>
      <path d="M 59.578125 18.109375 
L 47.796875 18.109375 
L 47.796875 0.984375 
L 39.796875 0.984375 
L 39.796875 18.109375 
L 3.078125 18.109375 
L 3.078125 26.125 
L 38.375 73.09375 
L 47.796875 73.09375 
L 47.796875 25.53125 
L 59.578125 25.53125 
z
M 40.28125 64.203125 
L 39.984375 64.203125 
Q 35.59375 57.125 31.296875 51.3125 
L 11.859375 25.53125 
L 39.796875 25.53125 
L 39.796875 49.125 
Q 39.796875 54.390625 40.28125 64.203125 
z
" id="IPAexGothic-52"/>
      <path d="M 31.84375 73.828125 
Q 45.015625 73.828125 52.09375 61.625 
Q 57.71875 51.953125 57.71875 36.625 
Q 57.71875 21.4375 52.09375 11.578125 
Q 45.125 -0.484375 31.5 -0.484375 
Q 17.921875 -0.484375 10.9375 11.578125 
Q 5.328125 21.4375 5.328125 36.71875 
Q 5.328125 58.015625 15.625 67.71875 
Q 22.171875 73.828125 31.84375 73.828125 
z
M 31.5 66.65625 
Q 23.6875 66.65625 19.1875 58.734375 
Q 14.59375 50.734375 14.59375 36.625 
Q 14.59375 22.75 19.09375 14.796875 
Q 23.640625 6.984375 31.5 6.984375 
Q 40.921875 6.984375 45.453125 18.015625 
Q 48.4375 25.34375 48.4375 37.109375 
Q 48.4375 50.875 43.84375 58.734375 
Q 39.203125 66.65625 31.5 66.65625 
z
" id="IPAexGothic-48"/>
     </defs>
     <use xlink:href="#IPAexGothic-52"/>
     <use x="62.988281" xlink:href="#IPAexGothic-48"/>
    </g>
   </g>
   <g id="text_2">
    <!-- 40 -->
    <g transform="translate(255.269448 132.989129)scale(0.1 -0.1)">
     <use xlink:href="#IPAexGothic-52"/>
     <use x="62.988281" xlink:href="#IPAexGothic-48"/>
    </g>
   </g>
   <g id="text_3">
    <!-- 10 -->
    <g transform="translate(168.301562 132.989129)scale(0.1 -0.1)">
     <defs>
      <path d="M 38.484375 0.984375 
L 29.6875 0.984375 
L 29.6875 64.109375 
Q 21.4375 61.28125 12.3125 59.328125 
L 10.6875 66.109375 
Q 23.734375 69.390625 32.90625 73.921875 
L 38.484375 73.921875 
z
" id="IPAexGothic-49"/>
     </defs>
     <use xlink:href="#IPAexGothic-49"/>
     <use x="62.988281" xlink:href="#IPAexGothic-48"/>
    </g>
   </g>
   <g id="text_4">
    <!-- Group:A -->
    <g transform="translate(67.936317 234.84724)scale(0.12 -0.12)">
     <defs>
      <path d="M 68.796875 12.203125 
Q 65.1875 7.71875 58.296875 3.90625 
Q 50.140625 -0.484375 40.484375 -0.484375 
Q 25.09375 -0.484375 15.4375 9.8125 
Q 5.90625 19.921875 5.90625 36.328125 
Q 5.90625 53.21875 15.828125 63.71875 
Q 25.296875 73.828125 39.59375 73.828125 
Q 59.375 73.828125 67.578125 56.6875 
L 59.625 52.984375 
Q 53.46875 66.21875 39.703125 66.21875 
Q 29.546875 66.21875 22.703125 58.5 
Q 15.53125 50.25 15.53125 36.375 
Q 15.53125 23.921875 21.828125 15.96875 
Q 28.8125 7.171875 41.015625 7.171875 
Q 54.046875 7.171875 60.59375 15.09375 
L 60.59375 29 
L 44.671875 29 
L 44.671875 35.796875 
L 68.796875 35.796875 
z
" id="IPAexGothic-71"/>
      <path d="M 36.078125 51.8125 
L 34.578125 43.265625 
Q 32.90625 43.609375 31.59375 43.609375 
Q 25.828125 43.609375 22.078125 38.1875 
Q 17.390625 31.34375 17.390625 26.171875 
L 17.390625 0.984375 
L 8.796875 0.984375 
L 8.796875 50.78125 
L 16.890625 50.78125 
L 16.5 35.984375 
L 16.703125 35.984375 
Q 22.21875 52.203125 32.765625 52.203125 
Q 34.46875 52.203125 36.078125 51.8125 
z
" id="IPAexGothic-114"/>
      <path d="M 29.984375 52.203125 
Q 40.53125 52.203125 47.75 45.125 
Q 55.171875 37.703125 55.171875 25.59375 
Q 55.171875 13.875 47.90625 6.59375 
Q 40.765625 -0.484375 29.984375 -0.484375 
Q 19.1875 -0.484375 12.203125 6.5 
Q 4.890625 13.765625 4.890625 25.875 
Q 4.890625 37.703125 12.3125 45.125 
Q 19.390625 52.203125 29.984375 52.203125 
z
M 29.984375 45.609375 
Q 23.734375 45.609375 19.390625 41.109375 
Q 13.875 35.59375 13.875 25.78125 
Q 13.875 16.109375 19.28125 10.6875 
Q 23.6875 6.296875 29.984375 6.296875 
Q 36.421875 6.296875 40.765625 10.796875 
Q 46.1875 16.21875 46.1875 26.125 
Q 46.1875 35.453125 40.671875 41.109375 
Q 36.1875 45.609375 29.984375 45.609375 
z
" id="IPAexGothic-111"/>
      <path d="M 51.3125 0.984375 
L 43.3125 0.984375 
L 43.3125 10.0625 
Q 35.9375 0 25.390625 0 
Q 16.75 0 11.921875 5.859375 
Q 8.109375 10.59375 8.109375 19.390625 
L 8.109375 50.78125 
L 16.703125 50.78125 
L 16.703125 19.671875 
Q 16.703125 7.28125 27.09375 7.28125 
Q 37.59375 7.28125 42.71875 20.171875 
L 42.71875 50.78125 
L 51.3125 50.78125 
z
" id="IPAexGothic-117"/>
      <path d="M 16.796875 42 
Q 23.828125 52.203125 34.46875 52.203125 
Q 43.265625 52.203125 49.5625 45.90625 
Q 56.890625 38.578125 56.890625 25.6875 
Q 56.890625 13.140625 49.65625 5.8125 
Q 43.359375 -0.484375 34.375 -0.484375 
Q 24.515625 -0.484375 17.28125 7.765625 
L 17.28125 -19 
L 8.796875 -19 
L 8.796875 50.78125 
L 16.796875 50.78125 
z
M 17.28125 30.46875 
L 17.28125 20.171875 
Q 17.28125 14.015625 23.6875 9.375 
Q 27.984375 6.296875 32.90625 6.296875 
Q 38.578125 6.296875 42.578125 10.296875 
Q 47.90625 15.578125 47.90625 25.484375 
Q 47.90625 34.375 43.5 39.984375 
Q 39.109375 45.3125 32.8125 45.3125 
Q 25.875 45.3125 20.90625 38.8125 
Q 17.28125 34.125 17.28125 30.46875 
z
" id="IPAexGothic-112"/>
      <path d="M 21.390625 39.984375 
L 10.5 39.984375 
L 10.5 50.78125 
L 21.390625 50.78125 
z
M 21.390625 0.984375 
L 10.5 0.984375 
L 10.5 11.765625 
L 21.390625 11.765625 
z
" id="IPAexGothic-58"/>
      <path d="M 63.375 0.984375 
L 53.8125 0.984375 
L 45.90625 22.015625 
L 17.1875 22.015625 
L 9.421875 0.984375 
L -0.09375 0.984375 
L 28.21875 72.90625 
L 35.296875 72.90625 
z
M 43.40625 29.109375 
L 36.1875 48.09375 
Q 33.203125 56.0625 31.6875 62.5 
L 31.390625 62.5 
Q 29.640625 55.671875 26.8125 48.09375 
L 19.734375 29.109375 
z
" id="IPAexGothic-65"/>
     </defs>
     <use xlink:href="#IPAexGothic-71"/>
     <use x="75.292969" xlink:href="#IPAexGothic-114"/>
     <use x="112.304688" xlink:href="#IPAexGothic-111"/>
     <use x="172.705078" xlink:href="#IPAexGothic-117"/>
     <use x="233.105469" xlink:href="#IPAexGothic-112"/>
     <use x="295.214844" xlink:href="#IPAexGothic-58"/>
     <use x="327.197266" xlink:href="#IPAexGothic-65"/>
    </g>
   </g>
   <g id="text_5">
    <!-- Group:B -->
    <g transform="translate(234.351183 234.84724)scale(0.12 -0.12)">
     <defs>
      <path d="M 42 37.890625 
Q 59.625 34.765625 59.625 20.90625 
Q 59.625 8.6875 47.515625 3.46875 
Q 41.75 0.984375 32.71875 0.984375 
L 9.515625 0.984375 
L 9.515625 72.40625 
L 29.9375 72.40625 
Q 38.96875 72.40625 44.828125 70.3125 
Q 56.9375 65.96875 56.9375 54.546875 
Q 56.9375 40.765625 42 38.234375 
z
M 18.109375 41.5 
L 28.8125 41.5 
Q 47.859375 41.5 47.859375 53.609375 
Q 47.859375 65.328125 29.390625 65.328125 
L 18.109375 65.328125 
z
M 18.109375 8.15625 
L 31.5 8.15625 
Q 50.34375 8.15625 50.34375 21.390625 
Q 50.34375 29.640625 41.015625 32.8125 
Q 35.59375 34.71875 29.296875 34.71875 
L 18.109375 34.71875 
z
" id="IPAexGothic-66"/>
     </defs>
     <use xlink:href="#IPAexGothic-71"/>
     <use x="75.292969" xlink:href="#IPAexGothic-114"/>
     <use x="112.304688" xlink:href="#IPAexGothic-111"/>
     <use x="172.705078" xlink:href="#IPAexGothic-117"/>
     <use x="233.105469" xlink:href="#IPAexGothic-112"/>
     <use x="295.214844" xlink:href="#IPAexGothic-58"/>
     <use x="327.197266" xlink:href="#IPAexGothic-66"/>
    </g>
   </g>
   <g id="text_6">
    <!-- Group:AとGroup:Bのベン図 -->
    <g transform="translate(97.555312 16.545)scale(0.12 -0.12)">
     <defs>
      <path d="M 81.59375 0.875 
Q 65.625 -1.125 53.90625 -1.125 
Q 38.71875 -1.125 30.328125 1.765625 
Q 18.5 5.8125 18.5 16.21875 
Q 18.5 24.75 24.90625 31.390625 
Q 30.328125 37.015625 41.5 42.578125 
Q 34.859375 58.34375 30.8125 76.21875 
L 38.921875 77.78125 
Q 42.28125 60.6875 48.09375 46.09375 
Q 66.40625 53.859375 74.3125 56.5 
L 77.78125 49.21875 
Q 49.703125 40.234375 37.640625 32.46875 
Q 26.421875 25.203125 26.421875 17.390625 
Q 26.421875 6.296875 51.90625 6.296875 
Q 64.453125 6.296875 80.21875 8.796875 
z
" id="IPAexGothic-12392"/>
      <path d="M 48.734375 7.328125 
Q 82.421875 11.96875 82.421875 37.890625 
Q 82.421875 53.953125 68.953125 61.328125 
Q 63.140625 64.3125 55.421875 64.984375 
Q 53.03125 39.453125 44.53125 21.875 
Q 36.28125 4.78125 26.90625 4.78125 
Q 21.625 4.78125 16.9375 10.40625 
Q 9.515625 19.4375 9.515625 31.296875 
Q 9.515625 47.265625 21.828125 59.28125 
Q 34.125 71.296875 53.609375 71.296875 
Q 67.28125 71.296875 77 64.40625 
Q 90.828125 54.78125 90.828125 37.890625 
Q 90.828125 6.84375 53.609375 0.09375 
z
M 47.703125 64.796875 
Q 37.15625 63.1875 29.546875 56.890625 
Q 17.140625 46.578125 17.140625 31.109375 
Q 17.140625 21.34375 22.40625 15.28125 
Q 24.703125 12.703125 26.859375 12.703125 
Q 31.59375 12.703125 37.75 25.390625 
Q 45.453125 41.21875 47.703125 64.796875 
z
" id="IPAexGothic-12398"/>
      <path d="M 6.6875 31.109375 
Q 17.484375 39.796875 32.8125 57.515625 
Q 36.8125 62.109375 40.09375 62.109375 
Q 43.3125 62.109375 49.703125 56 
Q 67.625 38.671875 92.96875 21.1875 
L 87.5 13.484375 
Q 62.40625 32.515625 44 50.640625 
Q 41.453125 53.03125 40.375 53.03125 
Q 39.265625 53.03125 35.796875 48.828125 
Q 26.65625 37.25 12.109375 23.875 
z
M 83.6875 58.109375 
Q 78.03125 66.546875 71.875 71.6875 
L 76.609375 75.296875 
Q 82.625 70.453125 88.671875 62.40625 
z
M 74.359375 50.78125 
Q 69.875 58.453125 62.890625 64.703125 
L 67.78125 68.453125 
Q 73.578125 63.671875 79.59375 55.078125 
z
" id="IPAexGothic-12505"/>
      <path d="M 38.1875 48.1875 
Q 28.375 57.125 16.5 63.8125 
L 21.578125 70.609375 
Q 32.234375 65.484375 44 55.609375 
z
M 17.1875 9.515625 
Q 62.25 17.28125 81.5 59.8125 
L 87.796875 54.203125 
Q 68.953125 12.40625 22.40625 1.609375 
z
" id="IPAexGothic-12531"/>
      <path d="M 52.734375 22.3125 
Q 40.71875 11.671875 25.390625 6.984375 
L 21.1875 12.984375 
Q 35.890625 17.046875 46.34375 25.484375 
L 43.609375 26.703125 
Q 33.40625 31.59375 20.90625 36.375 
L 24.609375 41.703125 
Q 36.8125 37.109375 51.515625 30.328125 
Q 63.578125 43.109375 69.09375 65.28125 
L 75.828125 62.703125 
Q 69.625 40.4375 57.71875 27.296875 
Q 67.390625 22.40625 78.125 16.40625 
L 73.53125 10.40625 
Q 64.265625 16.265625 53.609375 21.78125 
z
M 33.296875 41.890625 
Q 29.640625 54.15625 25.390625 60.984375 
L 31.84375 63.8125 
Q 36.421875 55.671875 39.984375 44.828125 
z
M 49.515625 44.28125 
Q 45.84375 56.296875 41.609375 63.375 
L 47.796875 66.015625 
Q 52.59375 58.25 56.203125 47.21875 
z
M 90.140625 77.875 
L 90.140625 -6.984375 
L 82.8125 -6.984375 
L 82.8125 -2 
L 17.140625 -2 
L 17.140625 -6.984375 
L 9.8125 -6.984375 
L 9.8125 77.875 
z
M 17.140625 71.484375 
L 17.140625 4.296875 
L 82.8125 4.296875 
L 82.8125 71.484375 
z
" id="IPAexGothic-22259"/>
     </defs>
     <use xlink:href="#IPAexGothic-71"/>
     <use x="75.292969" xlink:href="#IPAexGothic-114"/>
     <use x="112.304688" xlink:href="#IPAexGothic-111"/>
     <use x="172.705078" xlink:href="#IPAexGothic-117"/>
     <use x="233.105469" xlink:href="#IPAexGothic-112"/>
     <use x="295.214844" xlink:href="#IPAexGothic-58"/>
     <use x="327.197266" xlink:href="#IPAexGothic-65"/>
     <use x="390.917969" xlink:href="#IPAexGothic-12392"/>
     <use x="490.917969" xlink:href="#IPAexGothic-71"/>
     <use x="566.210938" xlink:href="#IPAexGothic-114"/>
     <use x="603.222656" xlink:href="#IPAexGothic-111"/>
     <use x="663.623047" xlink:href="#IPAexGothic-117"/>
     <use x="724.023438" xlink:href="#IPAexGothic-112"/>
     <use x="786.132812" xlink:href="#IPAexGothic-58"/>
     <use x="818.115234" xlink:href="#IPAexGothic-66"/>
     <use x="884.033203" xlink:href="#IPAexGothic-12398"/>
     <use x="984.033203" xlink:href="#IPAexGothic-12505"/>
     <use x="1084.033203" xlink:href="#IPAexGothic-12531"/>
     <use x="1184.033203" xlink:href="#IPAexGothic-22259"/>
    </g>
   </g>
  </g>
 </g>
 <defs>
  <clipPath id="p0a90128875">
   <rect height="215.297633" width="334.8" x="7.2" y="22.545"/>
  </clipPath>
 </defs>
</svg>
