<?xml version="1.0" encoding="utf-8" standalone="no"?>
<!DOCTYPE svg PUBLIC "-//W3C//DTD SVG 1.1//EN"
  "http://www.w3.org/Graphics/SVG/1.1/DTD/svg11.dtd">
<svg xmlns:xlink="http://www.w3.org/1999/xlink" width="390.731719pt" height="294.993687pt" viewBox="0 0 390.731719 294.993687" xmlns="http://www.w3.org/2000/svg" version="1.1">
 <metadata>
  <rdf:RDF xmlns:dc="http://purl.org/dc/elements/1.1/" xmlns:cc="http://creativecommons.org/ns#" xmlns:rdf="http://www.w3.org/1999/02/22-rdf-syntax-ns#">
   <cc:Work>
    <dc:type rdf:resource="http://purl.org/dc/dcmitype/StillImage"/>
    <dc:date>2022-02-08T23:44:34.276985</dc:date>
    <dc:format>image/svg+xml</dc:format>
    <dc:creator>
     <cc:Agent>
      <dc:title>Matplotlib v3.5.1, https://matplotlib.org/</dc:title>
     </cc:Agent>
    </dc:creator>
   </cc:Work>
  </rdf:RDF>
 </metadata>
 <defs>
  <style type="text/css">*{stroke-linejoin: round; stroke-linecap: butt}</style>
 </defs>
 <g id="figure_1">
  <g id="patch_1">
   <path d="M 0 294.993687 
L 390.731719 294.993687 
L 390.731719 0 
L 0 0 
z
" style="fill: #ffffff"/>
  </g>
  <g id="axes_1">
   <g id="patch_2">
    <path d="M 48.731719 252.69525 
L 383.531719 252.69525 
L 383.531719 35.25525 
L 48.731719 35.25525 
z
" style="fill: #eaeaf2"/>
   </g>
   <g id="matplotlib.axis_1">
    <g id="xtick_1">
     <g id="line2d_1">
      <path d="M 63.949901 252.69525 
L 63.949901 35.25525 
" clip-path="url(#p78bb9ef972)" style="fill: none; stroke: #ffffff; stroke-linecap: round"/>
     </g>
     <g id="text_1">
      <!-- 0 -->
      <g style="fill: #262626" transform="translate(60.48576 270.434937)scale(0.11 -0.11)">
       <defs>
        <path id="IPAexGothic-30" d="M 2038 4725 
Q 2881 4725 3334 3944 
Q 3694 3325 3694 2344 
Q 3694 1372 3334 741 
Q 2888 -31 2016 -31 
Q 1147 -31 700 741 
Q 341 1372 341 2350 
Q 341 3713 1000 4334 
Q 1419 4725 2038 4725 
z
M 2016 4266 
Q 1516 4266 1228 3759 
Q 934 3247 934 2344 
Q 934 1456 1222 947 
Q 1513 447 2016 447 
Q 2619 447 2909 1153 
Q 3100 1622 3100 2375 
Q 3100 3256 2806 3759 
Q 2509 4266 2016 4266 
z
" transform="scale(0.015625)"/>
       </defs>
       <use xlink:href="#IPAexGothic-30"/>
      </g>
     </g>
    </g>
    <g id="xtick_2">
     <g id="line2d_2">
      <path d="M 115.275978 252.69525 
L 115.275978 35.25525 
" clip-path="url(#p78bb9ef972)" style="fill: none; stroke: #ffffff; stroke-linecap: round"/>
     </g>
     <g id="text_2">
      <!-- 100 -->
      <g style="fill: #262626" transform="translate(104.883556 270.434937)scale(0.11 -0.11)">
       <defs>
        <path id="IPAexGothic-31" d="M 2463 63 
L 1900 63 
L 1900 4103 
Q 1372 3922 788 3797 
L 684 4231 
Q 1519 4441 2106 4731 
L 2463 4731 
L 2463 63 
z
" transform="scale(0.015625)"/>
       </defs>
       <use xlink:href="#IPAexGothic-31"/>
       <use xlink:href="#IPAexGothic-30" x="62.988281"/>
       <use xlink:href="#IPAexGothic-30" x="125.976562"/>
      </g>
     </g>
    </g>
    <g id="xtick_3">
     <g id="line2d_3">
      <path d="M 166.602054 252.69525 
L 166.602054 35.25525 
" clip-path="url(#p78bb9ef972)" style="fill: none; stroke: #ffffff; stroke-linecap: round"/>
     </g>
     <g id="text_3">
      <!-- 200 -->
      <g style="fill: #262626" transform="translate(156.209633 270.434937)scale(0.11 -0.11)">
       <defs>
        <path id="IPAexGothic-32" d="M 3659 63 
L 447 63 
L 447 594 
Q 825 1475 1894 2203 
L 2072 2322 
Q 2619 2697 2791 2906 
Q 2988 3153 2988 3444 
Q 2988 3772 2756 4003 
Q 2500 4259 2084 4259 
Q 1250 4259 991 3328 
L 497 3506 
Q 853 4725 2116 4725 
Q 2806 4725 3216 4316 
Q 3575 3947 3575 3425 
Q 3575 3038 3344 2722 
Q 3131 2416 2366 1938 
L 2231 1856 
Q 1256 1253 978 569 
L 3659 569 
L 3659 63 
z
" transform="scale(0.015625)"/>
       </defs>
       <use xlink:href="#IPAexGothic-32"/>
       <use xlink:href="#IPAexGothic-30" x="62.988281"/>
       <use xlink:href="#IPAexGothic-30" x="125.976562"/>
      </g>
     </g>
    </g>
    <g id="xtick_4">
     <g id="line2d_4">
      <path d="M 217.928131 252.69525 
L 217.928131 35.25525 
" clip-path="url(#p78bb9ef972)" style="fill: none; stroke: #ffffff; stroke-linecap: round"/>
     </g>
     <g id="text_4">
      <!-- 300 -->
      <g style="fill: #262626" transform="translate(207.53571 270.434937)scale(0.11 -0.11)">
       <defs>
        <path id="IPAexGothic-33" d="M 2381 2419 
Q 3506 2216 3506 1278 
Q 3506 716 3128 356 
Q 2709 -31 1944 -31 
Q 797 -31 288 881 
L 756 1131 
Q 1109 441 1938 441 
Q 2425 441 2694 691 
Q 2950 928 2950 1291 
Q 2950 1719 2566 1978 
Q 2216 2213 1644 2213 
L 1363 2213 
L 1363 2669 
L 1656 2669 
Q 2231 2669 2534 2888 
Q 2859 3119 2859 3509 
Q 2859 3934 2494 4138 
Q 2259 4278 1931 4278 
Q 1238 4278 903 3578 
L 434 3803 
Q 897 4725 1938 4725 
Q 2597 4725 3006 4394 
Q 3416 4069 3416 3534 
Q 3416 3028 3019 2706 
Q 2763 2500 2381 2444 
L 2381 2419 
z
" transform="scale(0.015625)"/>
       </defs>
       <use xlink:href="#IPAexGothic-33"/>
       <use xlink:href="#IPAexGothic-30" x="62.988281"/>
       <use xlink:href="#IPAexGothic-30" x="125.976562"/>
      </g>
     </g>
    </g>
    <g id="xtick_5">
     <g id="line2d_5">
      <path d="M 269.254208 252.69525 
L 269.254208 35.25525 
" clip-path="url(#p78bb9ef972)" style="fill: none; stroke: #ffffff; stroke-linecap: round"/>
     </g>
     <g id="text_5">
      <!-- 400 -->
      <g style="fill: #262626" transform="translate(258.861787 270.434937)scale(0.11 -0.11)">
       <defs>
        <path id="IPAexGothic-34" d="M 3813 1159 
L 3059 1159 
L 3059 63 
L 2547 63 
L 2547 1159 
L 197 1159 
L 197 1672 
L 2456 4678 
L 3059 4678 
L 3059 1634 
L 3813 1634 
L 3813 1159 
z
M 2578 4109 
L 2559 4109 
Q 2278 3656 2003 3284 
L 759 1634 
L 2547 1634 
L 2547 3144 
Q 2547 3481 2578 4109 
z
" transform="scale(0.015625)"/>
       </defs>
       <use xlink:href="#IPAexGothic-34"/>
       <use xlink:href="#IPAexGothic-30" x="62.988281"/>
       <use xlink:href="#IPAexGothic-30" x="125.976562"/>
      </g>
     </g>
    </g>
    <g id="xtick_6">
     <g id="line2d_6">
      <path d="M 320.580285 252.69525 
L 320.580285 35.25525 
" clip-path="url(#p78bb9ef972)" style="fill: none; stroke: #ffffff; stroke-linecap: round"/>
     </g>
     <g id="text_6">
      <!-- 500 -->
      <g style="fill: #262626" transform="translate(310.187863 270.434937)scale(0.11 -0.11)">
       <defs>
        <path id="IPAexGothic-35" d="M 1178 2603 
Q 1634 2963 2172 2963 
Q 2816 2963 3241 2528 
Q 3638 2113 3638 1497 
Q 3638 938 3297 513 
Q 2869 -31 2031 -31 
Q 959 -31 469 784 
L 938 1028 
Q 1309 434 2013 434 
Q 2466 434 2769 716 
Q 3081 1013 3081 1503 
Q 3081 1966 2806 2241 
Q 2519 2528 2056 2528 
Q 1406 2528 1072 2028 
L 591 2091 
L 884 4634 
L 3406 4634 
L 3406 4153 
L 1341 4153 
L 1134 2603 
L 1178 2603 
z
" transform="scale(0.015625)"/>
       </defs>
       <use xlink:href="#IPAexGothic-35"/>
       <use xlink:href="#IPAexGothic-30" x="62.988281"/>
       <use xlink:href="#IPAexGothic-30" x="125.976562"/>
      </g>
     </g>
    </g>
    <g id="xtick_7">
     <g id="line2d_7">
      <path d="M 371.906362 252.69525 
L 371.906362 35.25525 
" clip-path="url(#p78bb9ef972)" style="fill: none; stroke: #ffffff; stroke-linecap: round"/>
     </g>
     <g id="text_7">
      <!-- 600 -->
      <g style="fill: #262626" transform="translate(361.51394 270.434937)scale(0.11 -0.11)">
       <defs>
        <path id="IPAexGothic-36" d="M 1056 2328 
Q 1509 2981 2234 2981 
Q 2906 2981 3316 2513 
Q 3675 2106 3675 1522 
Q 3675 884 3272 434 
Q 2853 -31 2178 -31 
Q 1375 -31 922 581 
Q 481 1178 481 2228 
Q 481 3425 1013 4109 
Q 1494 4725 2272 4725 
Q 3191 4725 3609 4025 
L 3150 3775 
Q 2894 4266 2300 4266 
Q 1119 4266 1031 2328 
L 1056 2328 
z
M 2141 2547 
Q 1684 2547 1384 2206 
Q 1116 1900 1116 1541 
Q 1116 1156 1353 844 
Q 1672 428 2159 428 
Q 2669 428 2941 844 
Q 3125 1128 3125 1503 
Q 3125 1944 2881 2228 
Q 2600 2547 2141 2547 
z
" transform="scale(0.015625)"/>
       </defs>
       <use xlink:href="#IPAexGothic-36"/>
       <use xlink:href="#IPAexGothic-30" x="62.988281"/>
       <use xlink:href="#IPAexGothic-30" x="125.976562"/>
      </g>
     </g>
    </g>
    <g id="text_8">
     <!-- Iteration -->
     <g style="fill: #262626" transform="translate(192.440156 285.513687)scale(0.12 -0.12)">
      <defs>
       <path id="IPAexGothic-49" d="M 1203 63 
L 634 63 
L 634 4634 
L 1203 4634 
L 1203 63 
z
" transform="scale(0.015625)"/>
       <path id="IPAexGothic-74" d="M 2125 241 
Q 1769 -6 1397 -6 
Q 653 -6 653 831 
L 653 2859 
L 219 2859 
L 219 3250 
L 653 3250 
L 653 3966 
L 1178 4228 
L 1178 3250 
L 2063 3250 
L 2063 2859 
L 1178 2859 
L 1178 906 
Q 1178 416 1513 416 
Q 1738 416 1941 588 
L 2125 241 
z
" transform="scale(0.015625)"/>
       <path id="IPAexGothic-65" d="M 863 1594 
Q 891 1041 1209 722 
Q 1534 397 1997 397 
Q 2606 397 2963 966 
L 3322 728 
Q 2869 -31 1931 -31 
Q 1222 -31 766 422 
Q 306 884 306 1641 
Q 306 2444 788 2925 
Q 1216 3353 1856 3353 
Q 2459 3353 2866 2956 
Q 3322 2494 3322 1722 
L 3322 1594 
L 863 1594 
z
M 2756 1997 
Q 2709 2431 2450 2681 
Q 2194 2938 1844 2938 
Q 1438 2938 1150 2591 
Q 953 2356 894 1997 
L 2756 1997 
z
" transform="scale(0.015625)"/>
       <path id="IPAexGothic-72" d="M 2309 3316 
L 2213 2769 
Q 2106 2791 2022 2791 
Q 1653 2791 1413 2444 
Q 1113 2006 1113 1675 
L 1113 63 
L 563 63 
L 563 3250 
L 1081 3250 
L 1056 2303 
L 1069 2303 
Q 1422 3341 2097 3341 
Q 2206 3341 2309 3316 
z
" transform="scale(0.015625)"/>
       <path id="IPAexGothic-61" d="M 3156 63 
L 2672 63 
Q 2559 303 2531 556 
L 2509 556 
Q 2147 -25 1428 -25 
Q 934 -25 622 288 
Q 347 563 347 959 
Q 347 1947 2050 1997 
L 2478 2009 
L 2478 2175 
Q 2478 2509 2288 2700 
Q 2088 2900 1775 2900 
Q 1238 2900 969 2378 
L 494 2597 
Q 938 3328 1788 3328 
Q 2375 3328 2691 3000 
Q 2984 2706 2984 2169 
L 2984 997 
Q 2984 400 3156 63 
z
M 2491 1625 
L 2141 1619 
Q 903 1591 903 953 
Q 903 728 1050 581 
Q 1231 403 1525 403 
Q 1934 403 2234 703 
Q 2491 969 2491 1344 
L 2491 1625 
z
" transform="scale(0.015625)"/>
       <path id="IPAexGothic-69" d="M 1178 3928 
L 550 3928 
L 550 4569 
L 1178 4569 
L 1178 3928 
z
M 1138 63 
L 588 63 
L 588 3250 
L 1138 3250 
L 1138 63 
z
" transform="scale(0.015625)"/>
       <path id="IPAexGothic-6f" d="M 1919 3341 
Q 2594 3341 3056 2888 
Q 3531 2413 3531 1638 
Q 3531 888 3066 422 
Q 2609 -31 1919 -31 
Q 1228 -31 781 416 
Q 313 881 313 1656 
Q 313 2413 788 2888 
Q 1241 3341 1919 3341 
z
M 1919 2919 
Q 1519 2919 1241 2631 
Q 888 2278 888 1650 
Q 888 1031 1234 684 
Q 1516 403 1919 403 
Q 2331 403 2609 691 
Q 2956 1038 2956 1672 
Q 2956 2269 2603 2631 
Q 2316 2919 1919 2919 
z
" transform="scale(0.015625)"/>
       <path id="IPAexGothic-6e" d="M 3328 63 
L 2778 63 
L 2778 2041 
Q 2778 2853 2106 2853 
Q 1428 2853 1113 2041 
L 1113 63 
L 563 63 
L 563 3250 
L 1075 3250 
L 1075 2675 
Q 1525 3316 2222 3316 
Q 3328 3316 3328 2072 
L 3328 63 
z
" transform="scale(0.015625)"/>
      </defs>
      <use xlink:href="#IPAexGothic-49"/>
      <use xlink:href="#IPAexGothic-74" x="28.90625"/>
      <use xlink:href="#IPAexGothic-65" x="63.525391"/>
      <use xlink:href="#IPAexGothic-72" x="120.410156"/>
      <use xlink:href="#IPAexGothic-61" x="157.421875"/>
      <use xlink:href="#IPAexGothic-74" x="212.402344"/>
      <use xlink:href="#IPAexGothic-69" x="247.021484"/>
      <use xlink:href="#IPAexGothic-6f" x="274.023438"/>
      <use xlink:href="#IPAexGothic-6e" x="334.423828"/>
     </g>
    </g>
   </g>
   <g id="matplotlib.axis_2">
    <g id="ytick_1">
     <g id="line2d_8">
      <path d="M 48.731719 243.536386 
L 383.531719 243.536386 
" clip-path="url(#p78bb9ef972)" style="fill: none; stroke: #ffffff; stroke-linecap: round"/>
     </g>
     <g id="text_9">
      <!-- 0.2 -->
      <g style="fill: #262626" transform="translate(22.46875 247.65623)scale(0.11 -0.11)">
       <defs>
        <path id="IPAexGothic-2e" d="M 1184 63 
L 494 63 
L 494 753 
L 1184 753 
L 1184 63 
z
" transform="scale(0.015625)"/>
       </defs>
       <use xlink:href="#IPAexGothic-30"/>
       <use xlink:href="#IPAexGothic-2e" x="62.988281"/>
       <use xlink:href="#IPAexGothic-32" x="89.404297"/>
      </g>
     </g>
    </g>
    <g id="ytick_2">
     <g id="line2d_9">
      <path d="M 48.731719 200.33119 
L 383.531719 200.33119 
" clip-path="url(#p78bb9ef972)" style="fill: none; stroke: #ffffff; stroke-linecap: round"/>
     </g>
     <g id="text_10">
      <!-- 0.4 -->
      <g style="fill: #262626" transform="translate(22.46875 204.451034)scale(0.11 -0.11)">
       <use xlink:href="#IPAexGothic-30"/>
       <use xlink:href="#IPAexGothic-2e" x="62.988281"/>
       <use xlink:href="#IPAexGothic-34" x="89.404297"/>
      </g>
     </g>
    </g>
    <g id="ytick_3">
     <g id="line2d_10">
      <path d="M 48.731719 157.125994 
L 383.531719 157.125994 
" clip-path="url(#p78bb9ef972)" style="fill: none; stroke: #ffffff; stroke-linecap: round"/>
     </g>
     <g id="text_11">
      <!-- 0.6 -->
      <g style="fill: #262626" transform="translate(22.46875 161.245838)scale(0.11 -0.11)">
       <use xlink:href="#IPAexGothic-30"/>
       <use xlink:href="#IPAexGothic-2e" x="62.988281"/>
       <use xlink:href="#IPAexGothic-36" x="89.404297"/>
      </g>
     </g>
    </g>
    <g id="ytick_4">
     <g id="line2d_11">
      <path d="M 48.731719 113.920798 
L 383.531719 113.920798 
" clip-path="url(#p78bb9ef972)" style="fill: none; stroke: #ffffff; stroke-linecap: round"/>
     </g>
     <g id="text_12">
      <!-- 0.8 -->
      <g style="fill: #262626" transform="translate(22.46875 118.040642)scale(0.11 -0.11)">
       <defs>
        <path id="IPAexGothic-38" d="M 2541 2425 
Q 3700 2031 3700 1197 
Q 3700 541 3100 197 
Q 2663 -56 2016 -56 
Q 1366 -56 928 197 
Q 347 531 347 1178 
Q 347 1988 1409 2381 
L 1409 2400 
Q 481 2734 481 3509 
Q 481 4100 981 4456 
Q 1406 4756 2019 4756 
Q 2703 4756 3131 4403 
Q 3553 4069 3553 3566 
Q 3553 2706 2541 2444 
L 2541 2425 
z
M 2022 2625 
Q 2997 2856 2997 3528 
Q 2997 3916 2675 4150 
Q 2413 4347 2016 4347 
Q 1606 4347 1331 4128 
Q 1050 3897 1050 3522 
Q 1050 3150 1350 2925 
Q 1494 2809 1722 2722 
Q 1984 2616 2022 2625 
z
M 1978 2209 
Q 922 1931 922 1216 
Q 922 775 1313 556 
Q 1606 391 2009 391 
Q 2575 391 2881 697 
Q 3106 922 3106 1250 
Q 3106 1594 2794 1850 
Q 2609 1994 2350 2100 
Q 2047 2222 1978 2209 
z
" transform="scale(0.015625)"/>
       </defs>
       <use xlink:href="#IPAexGothic-30"/>
       <use xlink:href="#IPAexGothic-2e" x="62.988281"/>
       <use xlink:href="#IPAexGothic-38" x="89.404297"/>
      </g>
     </g>
    </g>
    <g id="ytick_5">
     <g id="line2d_12">
      <path d="M 48.731719 70.715602 
L 383.531719 70.715602 
" clip-path="url(#p78bb9ef972)" style="fill: none; stroke: #ffffff; stroke-linecap: round"/>
     </g>
     <g id="text_13">
      <!-- 1.0 -->
      <g style="fill: #262626" transform="translate(22.46875 74.835446)scale(0.11 -0.11)">
       <use xlink:href="#IPAexGothic-31"/>
       <use xlink:href="#IPAexGothic-2e" x="62.988281"/>
       <use xlink:href="#IPAexGothic-30" x="89.404297"/>
      </g>
     </g>
    </g>
    <g id="text_14">
     <!-- rmse -->
     <g style="fill: #262626" transform="translate(16.18875 157.607437)rotate(-90)scale(0.12 -0.12)">
      <defs>
       <path id="IPAexGothic-6d" d="M 5022 63 
L 4472 63 
L 4472 2059 
Q 4472 2869 3847 2869 
Q 3550 2869 3303 2594 
Q 3128 2397 3059 2103 
L 3059 63 
L 2509 63 
L 2509 2066 
Q 2509 2869 1919 2869 
Q 1606 2869 1369 2594 
Q 1113 2306 1113 2041 
L 1113 63 
L 563 63 
L 563 3250 
L 1075 3250 
L 1075 2700 
Q 1391 3316 2028 3316 
Q 2725 3316 2956 2647 
Q 3303 3316 3953 3316 
Q 4478 3316 4772 2944 
Q 5022 2638 5022 2072 
L 5022 63 
z
" transform="scale(0.015625)"/>
       <path id="IPAexGothic-73" d="M 2234 2547 
Q 1938 2931 1484 2931 
Q 891 2931 891 2475 
Q 891 2153 1531 1944 
L 1741 1875 
Q 2650 1578 2650 894 
Q 2650 434 2272 172 
Q 1972 -31 1497 -31 
Q 766 -31 256 503 
L 603 819 
Q 997 397 1516 397 
Q 2131 397 2131 875 
Q 2131 1238 1453 1478 
L 1234 1553 
Q 378 1853 378 2431 
Q 378 2797 628 3047 
Q 928 3347 1453 3347 
Q 2156 3347 2606 2859 
L 2234 2547 
z
" transform="scale(0.015625)"/>
      </defs>
      <use xlink:href="#IPAexGothic-72"/>
      <use xlink:href="#IPAexGothic-6d" x="37.011719"/>
      <use xlink:href="#IPAexGothic-73" x="124.121094"/>
      <use xlink:href="#IPAexGothic-65" x="170.3125"/>
     </g>
    </g>
   </g>
   <g id="line2d_13">
    <path d="M 63.949901 49.307987 
L 65.489683 81.102305 
L 66.516204 97.049246 
L 67.542726 112.077685 
L 69.082508 130.406267 
L 70.10903 139.66128 
L 71.135551 147.904077 
L 74.215116 166.816195 
L 75.241637 171.49186 
L 76.268159 175.326213 
L 77.294681 179.053981 
L 78.321202 181.741331 
L 78.834463 183.366733 
L 79.860984 185.959005 
L 80.887506 187.79407 
L 81.400767 188.793676 
L 82.940549 190.682677 
L 83.967071 192.204637 
L 84.480331 192.701533 
L 85.506853 194.361782 
L 86.020114 195.111102 
L 88.073157 197.214054 
L 89.099678 197.837277 
L 91.152721 198.839608 
L 91.665982 199.413458 
L 92.179243 199.574191 
L 92.692504 200.129247 
L 93.205764 200.350836 
L 93.719025 200.787527 
L 94.232286 201.055473 
L 94.745547 201.542852 
L 95.258808 201.84676 
L 96.79859 203.149507 
L 98.851633 204.380089 
L 100.391415 204.825557 
L 100.904676 205.265924 
L 102.444458 205.842684 
L 102.957719 205.93321 
L 105.010762 206.73875 
L 111.169891 209.140268 
L 112.196413 209.469289 
L 113.222934 209.91501 
L 114.249456 210.145389 
L 116.81576 210.614071 
L 119.382064 211.299196 
L 120.408585 211.477247 
L 124.514671 212.723364 
L 125.541193 212.904051 
L 126.567714 213.167549 
L 133.753365 214.994667 
L 134.779887 215.174117 
L 146.584884 218.116914 
L 158.903143 220.464036 
L 159.929664 220.685116 
L 164.035751 221.315557 
L 165.575533 221.587503 
L 168.655098 222.123265 
L 171.221401 222.455852 
L 174.300966 223.00131 
L 175.840748 223.169887 
L 176.86727 223.367689 
L 182.513138 224.0765 
L 185.079442 224.409856 
L 186.105964 224.829691 
L 198.937483 226.624765 
L 202.530308 227.02484 
L 208.176177 227.88004 
L 209.715959 228.202939 
L 211.255741 228.474281 
L 213.308785 228.741053 
L 218.441392 229.363294 
L 219.981175 229.500523 
L 221.007696 229.683006 
L 223.574 229.908965 
L 225.113782 230.067701 
L 228.193347 230.444782 
L 242.051388 232.156861 
L 244.617691 232.407691 
L 246.157474 232.61072 
L 248.210517 232.849798 
L 251.290081 233.192365 
L 254.369646 233.578739 
L 258.988993 234.05781 
L 266.174644 234.572746 
L 273.873555 235.392409 
L 275.926598 235.575315 
L 277.979641 235.810167 
L 282.085728 236.164217 
L 283.112249 236.273889 
L 286.705075 236.544387 
L 294.917247 237.327638 
L 296.457029 237.508625 
L 302.102898 238.007687 
L 304.155941 238.181292 
L 306.722245 238.422124 
L 307.748766 238.556822 
L 313.907895 239.004073 
L 329.818979 240.23912 
L 333.411805 240.449472 
L 337.517891 240.795663 
L 344.190281 241.129384 
L 347.783106 241.335184 
L 351.889192 241.504448 
L 352.915714 241.596697 
L 356.508539 241.825957 
L 358.048322 241.909182 
L 360.101365 242.095042 
L 368.313537 242.811614 
L 368.313537 242.811614 
" clip-path="url(#p78bb9ef972)" style="fill: none; stroke: #4c72b0; stroke-width: 1.5; stroke-linecap: round"/>
   </g>
   <g id="line2d_14">
    <path d="M 63.949901 45.138886 
L 65.489683 76.565926 
L 66.002944 85.126313 
L 68.569247 118.333315 
L 69.595769 128.36412 
L 71.135551 139.583547 
L 71.648812 142.412854 
L 72.162073 145.933702 
L 72.675334 148.24135 
L 73.701855 154.146776 
L 75.241637 160.060306 
L 75.754898 161.384432 
L 76.78142 164.800889 
L 77.294681 166.169626 
L 77.807941 166.975784 
L 79.860984 171.364337 
L 80.374245 171.816757 
L 81.914028 173.608855 
L 83.967071 175.413877 
L 84.480331 175.618916 
L 84.993592 176.311309 
L 87.046635 178.138894 
L 88.073157 178.841537 
L 89.099678 179.108669 
L 89.612939 179.140423 
L 90.639461 179.4787 
L 91.152721 179.536117 
L 91.665982 179.954425 
L 92.179243 180.006498 
L 92.692504 180.395701 
L 93.205764 180.513134 
L 93.719025 180.798586 
L 94.232286 180.893939 
L 94.745547 181.234107 
L 95.258808 181.436569 
L 96.285329 182.074502 
L 97.825111 182.812342 
L 98.851633 183.176358 
L 102.444458 183.643895 
L 107.577066 184.291985 
L 108.603588 184.549558 
L 109.630109 184.690789 
L 110.656631 184.89254 
L 112.196413 184.998237 
L 113.222934 185.241551 
L 114.249456 185.348218 
L 120.408585 185.530061 
L 122.461628 185.82591 
L 126.054454 186.068904 
L 128.107497 186.124019 
L 133.240104 186.400242 
L 136.83293 186.541757 
L 137.859451 186.682359 
L 138.372712 186.69564 
L 139.399234 186.841179 
L 140.939016 186.903495 
L 141.965538 186.930137 
L 142.992059 187.117321 
L 143.50532 187.114235 
L 144.531841 187.274801 
L 150.17771 187.401784 
L 151.204231 187.46652 
L 155.310318 187.445278 
L 155.823578 187.551661 
L 158.903143 187.615797 
L 166.088794 187.77183 
L 167.628576 187.777405 
L 170.708141 187.819969 
L 172.761184 187.889765 
L 185.079442 187.897191 
L 187.132485 188.064012 
L 191.751832 188.172396 
L 194.318136 188.191787 
L 208.176177 188.269854 
L 209.715959 188.331214 
L 219.467914 188.435384 
L 221.007696 188.441247 
L 227.166825 188.410948 
L 228.706608 188.410508 
L 234.865737 188.479549 
L 237.945301 188.497559 
L 240.511605 188.449026 
L 243.077909 188.470827 
L 252.829864 188.554297 
L 254.369646 188.577238 
L 259.502254 188.594269 
L 268.740948 188.638622 
L 275.413338 188.65412 
L 280.545945 188.68646 
L 305.695723 188.678234 
L 308.775288 188.727628 
L 319.040503 188.742438 
L 321.606807 188.708322 
L 331.358762 188.71169 
L 335.464848 188.664379 
L 341.110716 188.636043 
L 368.313537 188.613998 
L 368.313537 188.613998 
" clip-path="url(#p78bb9ef972)" style="fill: none; stroke: #dd8452; stroke-width: 1.5; stroke-linecap: round"/>
   </g>
   <g id="patch_3">
    <path d="M 48.731719 252.69525 
L 48.731719 35.25525 
" style="fill: none; stroke: #ffffff; stroke-width: 1.25; stroke-linejoin: miter; stroke-linecap: square"/>
   </g>
   <g id="patch_4">
    <path d="M 383.531719 252.69525 
L 383.531719 35.25525 
" style="fill: none; stroke: #ffffff; stroke-width: 1.25; stroke-linejoin: miter; stroke-linecap: square"/>
   </g>
   <g id="patch_5">
    <path d="M 48.731719 252.69525 
L 383.531719 252.69525 
" style="fill: none; stroke: #ffffff; stroke-width: 1.25; stroke-linejoin: miter; stroke-linecap: square"/>
   </g>
   <g id="patch_6">
    <path d="M 48.731719 35.25525 
L 383.531719 35.25525 
" style="fill: none; stroke: #ffffff; stroke-width: 1.25; stroke-linejoin: miter; stroke-linecap: square"/>
   </g>
   <g id="text_15">
    <!-- kFold : 1  -->
    <g style="fill: #262626" transform="translate(190.045781 16.18875)scale(0.12 -0.12)">
     <defs>
      <path id="IPAexGothic-6b" d="M 3244 63 
L 2578 63 
L 1484 1613 
L 1119 1259 
L 1119 63 
L 581 63 
L 581 4794 
L 1119 4794 
L 1119 1766 
L 2463 3250 
L 3153 3250 
L 1828 1925 
L 3244 63 
z
" transform="scale(0.015625)"/>
      <path id="IPAexGothic-46" d="M 3469 4141 
L 1172 4141 
L 1172 2656 
L 3206 2656 
L 3206 2188 
L 1172 2188 
L 1172 63 
L 609 63 
L 609 4634 
L 3469 4634 
L 3469 4141 
z
" transform="scale(0.015625)"/>
      <path id="IPAexGothic-6c" d="M 1131 63 
L 581 63 
L 581 4794 
L 1131 4794 
L 1131 63 
z
" transform="scale(0.015625)"/>
      <path id="IPAexGothic-64" d="M 3391 63 
L 2891 63 
L 2891 619 
Q 2441 -31 1753 -31 
Q 1181 -31 788 372 
Q 313 844 313 1663 
Q 313 2466 772 2938 
Q 1169 3341 1753 3341 
Q 2384 3341 2847 2809 
L 2847 4794 
L 3391 4794 
L 3391 63 
z
M 2847 1303 
L 2847 2097 
Q 2847 2413 2456 2706 
Q 2181 2906 1853 2906 
Q 1484 2906 1228 2650 
Q 888 2309 888 1678 
Q 888 1109 1169 750 
Q 1441 409 1847 409 
Q 2322 409 2656 875 
Q 2847 1134 2847 1303 
z
" transform="scale(0.015625)"/>
      <path id="IPAexGothic-20" transform="scale(0.015625)"/>
      <path id="IPAexGothic-3a" d="M 1369 2559 
L 672 2559 
L 672 3250 
L 1369 3250 
L 1369 2559 
z
M 1369 63 
L 672 63 
L 672 753 
L 1369 753 
L 1369 63 
z
" transform="scale(0.015625)"/>
     </defs>
     <use xlink:href="#IPAexGothic-6b"/>
     <use xlink:href="#IPAexGothic-46" x="51.806641"/>
     <use xlink:href="#IPAexGothic-6f" x="108.984375"/>
     <use xlink:href="#IPAexGothic-6c" x="169.384766"/>
     <use xlink:href="#IPAexGothic-64" x="196.386719"/>
     <use xlink:href="#IPAexGothic-20" x="258.789062"/>
     <use xlink:href="#IPAexGothic-3a" x="285.791016"/>
     <use xlink:href="#IPAexGothic-20" x="317.773438"/>
     <use xlink:href="#IPAexGothic-31" x="344.775391"/>
     <use xlink:href="#IPAexGothic-20" x="407.763672"/>
    </g>
    <!--  RMSE -->
    <g style="fill: #262626" transform="translate(198.131719 29.25525)scale(0.12 -0.12)">
     <defs>
      <path id="IPAexGothic-52" d="M 4072 63 
L 3394 63 
Q 3138 641 2828 1197 
Q 2584 1641 2344 1825 
Q 2050 2044 1625 2044 
L 1172 2044 
L 1172 63 
L 609 63 
L 609 4634 
L 2009 4634 
Q 2713 4634 3131 4378 
Q 3688 4044 3688 3381 
Q 3688 2784 3181 2459 
Q 2906 2272 2522 2216 
L 2522 2197 
Q 2941 2050 3247 1581 
Q 3516 1166 4072 63 
z
M 1172 2478 
L 1869 2478 
Q 3106 2478 3106 3369 
Q 3106 4181 1928 4181 
L 1172 4181 
L 1172 2478 
z
" transform="scale(0.015625)"/>
      <path id="IPAexGothic-4d" d="M 5147 63 
L 4597 63 
L 4597 2534 
Q 4597 3281 4634 4134 
L 4609 4134 
Q 4356 3409 4066 2675 
L 3066 209 
L 2650 209 
L 1641 2725 
Q 1328 3506 1128 4141 
L 1103 4141 
Q 1141 3131 1141 2553 
L 1141 63 
L 609 63 
L 609 4634 
L 1416 4634 
L 2503 1944 
Q 2697 1472 2869 906 
L 2888 906 
Q 3028 1416 3234 1931 
L 4316 4634 
L 5147 4634 
L 5147 63 
z
" transform="scale(0.015625)"/>
      <path id="IPAexGothic-53" d="M 2919 3641 
Q 2563 4259 1853 4259 
Q 1453 4259 1213 4009 
Q 1028 3803 1028 3534 
Q 1028 3238 1266 3047 
Q 1444 2913 1984 2688 
L 2200 2597 
Q 2925 2306 3191 1953 
Q 3422 1644 3422 1259 
Q 3422 644 2969 288 
Q 2559 -31 1931 -31 
Q 881 -31 313 766 
L 753 1100 
Q 1203 459 1938 459 
Q 2288 459 2534 625 
Q 2841 847 2841 1216 
Q 2841 1503 2616 1728 
Q 2375 1959 1728 2206 
L 1541 2278 
Q 453 2694 453 3481 
Q 453 4006 806 4347 
Q 1203 4725 1863 4725 
Q 2841 4725 3359 3956 
L 2919 3641 
z
" transform="scale(0.015625)"/>
      <path id="IPAexGothic-45" d="M 3547 63 
L 609 63 
L 609 4634 
L 3469 4634 
L 3469 4147 
L 1166 4147 
L 1166 2650 
L 3206 2650 
L 3206 2191 
L 1166 2191 
L 1166 556 
L 3547 556 
L 3547 63 
z
" transform="scale(0.015625)"/>
     </defs>
     <use xlink:href="#IPAexGothic-20"/>
     <use xlink:href="#IPAexGothic-52" x="27.001953"/>
     <use xlink:href="#IPAexGothic-4d" x="91.796875"/>
     <use xlink:href="#IPAexGothic-53" x="181.982422"/>
     <use xlink:href="#IPAexGothic-45" x="240.478516"/>
    </g>
   </g>
   <g id="legend_1">
    <g id="patch_7">
     <path d="M 293.689219 75.714625 
L 375.831719 75.714625 
Q 378.031719 75.714625 378.031719 73.514625 
L 378.031719 42.95525 
Q 378.031719 40.75525 375.831719 40.75525 
L 293.689219 40.75525 
Q 291.489219 40.75525 291.489219 42.95525 
L 291.489219 73.514625 
Q 291.489219 75.714625 293.689219 75.714625 
z
" style="fill: #eaeaf2; opacity: 0.8; stroke: #cccccc; stroke-linejoin: miter"/>
    </g>
    <g id="line2d_15">
     <path d="M 295.889219 49.544937 
L 306.889219 49.544937 
L 317.889219 49.544937 
" style="fill: none; stroke: #4c72b0; stroke-width: 1.5; stroke-linecap: round"/>
    </g>
    <g id="text_16">
     <!-- train loss -->
     <g style="fill: #262626" transform="translate(326.689219 53.394937)scale(0.11 -0.11)">
      <use xlink:href="#IPAexGothic-74"/>
      <use xlink:href="#IPAexGothic-72" x="34.619141"/>
      <use xlink:href="#IPAexGothic-61" x="71.630859"/>
      <use xlink:href="#IPAexGothic-69" x="126.611328"/>
      <use xlink:href="#IPAexGothic-6e" x="153.613281"/>
      <use xlink:href="#IPAexGothic-20" x="214.013672"/>
      <use xlink:href="#IPAexGothic-6c" x="241.015625"/>
      <use xlink:href="#IPAexGothic-6f" x="268.017578"/>
      <use xlink:href="#IPAexGothic-73" x="328.417969"/>
      <use xlink:href="#IPAexGothic-73" x="374.609375"/>
     </g>
    </g>
    <g id="line2d_16">
     <path d="M 295.889219 65.374625 
L 306.889219 65.374625 
L 317.889219 65.374625 
" style="fill: none; stroke: #dd8452; stroke-width: 1.5; stroke-linecap: round"/>
    </g>
    <g id="text_17">
     <!-- valid loss -->
     <g style="fill: #262626" transform="translate(326.689219 69.224625)scale(0.11 -0.11)">
      <defs>
       <path id="IPAexGothic-76" d="M 3103 3250 
L 1747 6 
L 1375 6 
L 25 3250 
L 628 3250 
L 1338 1388 
L 1522 844 
L 1569 703 
L 1588 703 
Q 1641 884 1822 1388 
L 2516 3250 
L 3103 3250 
z
" transform="scale(0.015625)"/>
      </defs>
      <use xlink:href="#IPAexGothic-76"/>
      <use xlink:href="#IPAexGothic-61" x="48.583984"/>
      <use xlink:href="#IPAexGothic-6c" x="103.564453"/>
      <use xlink:href="#IPAexGothic-69" x="130.566406"/>
      <use xlink:href="#IPAexGothic-64" x="157.568359"/>
      <use xlink:href="#IPAexGothic-20" x="219.970703"/>
      <use xlink:href="#IPAexGothic-6c" x="246.972656"/>
      <use xlink:href="#IPAexGothic-6f" x="273.974609"/>
      <use xlink:href="#IPAexGothic-73" x="334.375"/>
      <use xlink:href="#IPAexGothic-73" x="380.566406"/>
     </g>
    </g>
   </g>
  </g>
 </g>
 <defs>
  <clipPath id="p78bb9ef972">
   <rect x="48.731719" y="35.25525" width="334.8" height="217.44"/>
  </clipPath>
 </defs>
</svg>
