<?xml version="1.0" encoding="utf-8" standalone="no"?>
<!DOCTYPE svg PUBLIC "-//W3C//DTD SVG 1.1//EN"
  "http://www.w3.org/Graphics/SVG/1.1/DTD/svg11.dtd">
<svg xmlns:xlink="http://www.w3.org/1999/xlink" width="390.731719pt" height="294.993687pt" viewBox="0 0 390.731719 294.993687" xmlns="http://www.w3.org/2000/svg" version="1.1">
 <metadata>
  <rdf:RDF xmlns:dc="http://purl.org/dc/elements/1.1/" xmlns:cc="http://creativecommons.org/ns#" xmlns:rdf="http://www.w3.org/1999/02/22-rdf-syntax-ns#">
   <cc:Work>
    <dc:type rdf:resource="http://purl.org/dc/dcmitype/StillImage"/>
    <dc:date>2022-02-08T23:44:31.776066</dc:date>
    <dc:format>image/svg+xml</dc:format>
    <dc:creator>
     <cc:Agent>
      <dc:title>Matplotlib v3.5.1, https://matplotlib.org/</dc:title>
     </cc:Agent>
    </dc:creator>
   </cc:Work>
  </rdf:RDF>
 </metadata>
 <defs>
  <style type="text/css">*{stroke-linejoin: round; stroke-linecap: butt}</style>
 </defs>
 <g id="figure_1">
  <g id="patch_1">
   <path d="M 0 294.993687 
L 390.731719 294.993687 
L 390.731719 0 
L 0 0 
z
" style="fill: #ffffff"/>
  </g>
  <g id="axes_1">
   <g id="patch_2">
    <path d="M 48.731719 252.69525 
L 383.531719 252.69525 
L 383.531719 35.25525 
L 48.731719 35.25525 
z
" style="fill: #eaeaf2"/>
   </g>
   <g id="matplotlib.axis_1">
    <g id="xtick_1">
     <g id="line2d_1">
      <path d="M 63.949901 252.69525 
L 63.949901 35.25525 
" clip-path="url(#p083a065523)" style="fill: none; stroke: #ffffff; stroke-linecap: round"/>
     </g>
     <g id="text_1">
      <!-- 0 -->
      <g style="fill: #262626" transform="translate(60.48576 270.434937)scale(0.11 -0.11)">
       <defs>
        <path id="IPAexGothic-30" d="M 2038 4725 
Q 2881 4725 3334 3944 
Q 3694 3325 3694 2344 
Q 3694 1372 3334 741 
Q 2888 -31 2016 -31 
Q 1147 -31 700 741 
Q 341 1372 341 2350 
Q 341 3713 1000 4334 
Q 1419 4725 2038 4725 
z
M 2016 4266 
Q 1516 4266 1228 3759 
Q 934 3247 934 2344 
Q 934 1456 1222 947 
Q 1513 447 2016 447 
Q 2619 447 2909 1153 
Q 3100 1622 3100 2375 
Q 3100 3256 2806 3759 
Q 2509 4266 2016 4266 
z
" transform="scale(0.015625)"/>
       </defs>
       <use xlink:href="#IPAexGothic-30"/>
      </g>
     </g>
    </g>
    <g id="xtick_2">
     <g id="line2d_2">
      <path d="M 129.616273 252.69525 
L 129.616273 35.25525 
" clip-path="url(#p083a065523)" style="fill: none; stroke: #ffffff; stroke-linecap: round"/>
     </g>
     <g id="text_2">
      <!-- 200 -->
      <g style="fill: #262626" transform="translate(119.223851 270.434937)scale(0.11 -0.11)">
       <defs>
        <path id="IPAexGothic-32" d="M 3659 63 
L 447 63 
L 447 594 
Q 825 1475 1894 2203 
L 2072 2322 
Q 2619 2697 2791 2906 
Q 2988 3153 2988 3444 
Q 2988 3772 2756 4003 
Q 2500 4259 2084 4259 
Q 1250 4259 991 3328 
L 497 3506 
Q 853 4725 2116 4725 
Q 2806 4725 3216 4316 
Q 3575 3947 3575 3425 
Q 3575 3038 3344 2722 
Q 3131 2416 2366 1938 
L 2231 1856 
Q 1256 1253 978 569 
L 3659 569 
L 3659 63 
z
" transform="scale(0.015625)"/>
       </defs>
       <use xlink:href="#IPAexGothic-32"/>
       <use xlink:href="#IPAexGothic-30" x="62.988281"/>
       <use xlink:href="#IPAexGothic-30" x="125.976562"/>
      </g>
     </g>
    </g>
    <g id="xtick_3">
     <g id="line2d_3">
      <path d="M 195.282645 252.69525 
L 195.282645 35.25525 
" clip-path="url(#p083a065523)" style="fill: none; stroke: #ffffff; stroke-linecap: round"/>
     </g>
     <g id="text_3">
      <!-- 400 -->
      <g style="fill: #262626" transform="translate(184.890224 270.434937)scale(0.11 -0.11)">
       <defs>
        <path id="IPAexGothic-34" d="M 3813 1159 
L 3059 1159 
L 3059 63 
L 2547 63 
L 2547 1159 
L 197 1159 
L 197 1672 
L 2456 4678 
L 3059 4678 
L 3059 1634 
L 3813 1634 
L 3813 1159 
z
M 2578 4109 
L 2559 4109 
Q 2278 3656 2003 3284 
L 759 1634 
L 2547 1634 
L 2547 3144 
Q 2547 3481 2578 4109 
z
" transform="scale(0.015625)"/>
       </defs>
       <use xlink:href="#IPAexGothic-34"/>
       <use xlink:href="#IPAexGothic-30" x="62.988281"/>
       <use xlink:href="#IPAexGothic-30" x="125.976562"/>
      </g>
     </g>
    </g>
    <g id="xtick_4">
     <g id="line2d_4">
      <path d="M 260.949018 252.69525 
L 260.949018 35.25525 
" clip-path="url(#p083a065523)" style="fill: none; stroke: #ffffff; stroke-linecap: round"/>
     </g>
     <g id="text_4">
      <!-- 600 -->
      <g style="fill: #262626" transform="translate(250.556596 270.434937)scale(0.11 -0.11)">
       <defs>
        <path id="IPAexGothic-36" d="M 1056 2328 
Q 1509 2981 2234 2981 
Q 2906 2981 3316 2513 
Q 3675 2106 3675 1522 
Q 3675 884 3272 434 
Q 2853 -31 2178 -31 
Q 1375 -31 922 581 
Q 481 1178 481 2228 
Q 481 3425 1013 4109 
Q 1494 4725 2272 4725 
Q 3191 4725 3609 4025 
L 3150 3775 
Q 2894 4266 2300 4266 
Q 1119 4266 1031 2328 
L 1056 2328 
z
M 2141 2547 
Q 1684 2547 1384 2206 
Q 1116 1900 1116 1541 
Q 1116 1156 1353 844 
Q 1672 428 2159 428 
Q 2669 428 2941 844 
Q 3125 1128 3125 1503 
Q 3125 1944 2881 2228 
Q 2600 2547 2141 2547 
z
" transform="scale(0.015625)"/>
       </defs>
       <use xlink:href="#IPAexGothic-36"/>
       <use xlink:href="#IPAexGothic-30" x="62.988281"/>
       <use xlink:href="#IPAexGothic-30" x="125.976562"/>
      </g>
     </g>
    </g>
    <g id="xtick_5">
     <g id="line2d_5">
      <path d="M 326.61539 252.69525 
L 326.61539 35.25525 
" clip-path="url(#p083a065523)" style="fill: none; stroke: #ffffff; stroke-linecap: round"/>
     </g>
     <g id="text_5">
      <!-- 800 -->
      <g style="fill: #262626" transform="translate(316.222969 270.434937)scale(0.11 -0.11)">
       <defs>
        <path id="IPAexGothic-38" d="M 2541 2425 
Q 3700 2031 3700 1197 
Q 3700 541 3100 197 
Q 2663 -56 2016 -56 
Q 1366 -56 928 197 
Q 347 531 347 1178 
Q 347 1988 1409 2381 
L 1409 2400 
Q 481 2734 481 3509 
Q 481 4100 981 4456 
Q 1406 4756 2019 4756 
Q 2703 4756 3131 4403 
Q 3553 4069 3553 3566 
Q 3553 2706 2541 2444 
L 2541 2425 
z
M 2022 2625 
Q 2997 2856 2997 3528 
Q 2997 3916 2675 4150 
Q 2413 4347 2016 4347 
Q 1606 4347 1331 4128 
Q 1050 3897 1050 3522 
Q 1050 3150 1350 2925 
Q 1494 2809 1722 2722 
Q 1984 2616 2022 2625 
z
M 1978 2209 
Q 922 1931 922 1216 
Q 922 775 1313 556 
Q 1606 391 2009 391 
Q 2575 391 2881 697 
Q 3106 922 3106 1250 
Q 3106 1594 2794 1850 
Q 2609 1994 2350 2100 
Q 2047 2222 1978 2209 
z
" transform="scale(0.015625)"/>
       </defs>
       <use xlink:href="#IPAexGothic-38"/>
       <use xlink:href="#IPAexGothic-30" x="62.988281"/>
       <use xlink:href="#IPAexGothic-30" x="125.976562"/>
      </g>
     </g>
    </g>
    <g id="text_6">
     <!-- Iteration -->
     <g style="fill: #262626" transform="translate(192.440156 285.513687)scale(0.12 -0.12)">
      <defs>
       <path id="IPAexGothic-49" d="M 1203 63 
L 634 63 
L 634 4634 
L 1203 4634 
L 1203 63 
z
" transform="scale(0.015625)"/>
       <path id="IPAexGothic-74" d="M 2125 241 
Q 1769 -6 1397 -6 
Q 653 -6 653 831 
L 653 2859 
L 219 2859 
L 219 3250 
L 653 3250 
L 653 3966 
L 1178 4228 
L 1178 3250 
L 2063 3250 
L 2063 2859 
L 1178 2859 
L 1178 906 
Q 1178 416 1513 416 
Q 1738 416 1941 588 
L 2125 241 
z
" transform="scale(0.015625)"/>
       <path id="IPAexGothic-65" d="M 863 1594 
Q 891 1041 1209 722 
Q 1534 397 1997 397 
Q 2606 397 2963 966 
L 3322 728 
Q 2869 -31 1931 -31 
Q 1222 -31 766 422 
Q 306 884 306 1641 
Q 306 2444 788 2925 
Q 1216 3353 1856 3353 
Q 2459 3353 2866 2956 
Q 3322 2494 3322 1722 
L 3322 1594 
L 863 1594 
z
M 2756 1997 
Q 2709 2431 2450 2681 
Q 2194 2938 1844 2938 
Q 1438 2938 1150 2591 
Q 953 2356 894 1997 
L 2756 1997 
z
" transform="scale(0.015625)"/>
       <path id="IPAexGothic-72" d="M 2309 3316 
L 2213 2769 
Q 2106 2791 2022 2791 
Q 1653 2791 1413 2444 
Q 1113 2006 1113 1675 
L 1113 63 
L 563 63 
L 563 3250 
L 1081 3250 
L 1056 2303 
L 1069 2303 
Q 1422 3341 2097 3341 
Q 2206 3341 2309 3316 
z
" transform="scale(0.015625)"/>
       <path id="IPAexGothic-61" d="M 3156 63 
L 2672 63 
Q 2559 303 2531 556 
L 2509 556 
Q 2147 -25 1428 -25 
Q 934 -25 622 288 
Q 347 563 347 959 
Q 347 1947 2050 1997 
L 2478 2009 
L 2478 2175 
Q 2478 2509 2288 2700 
Q 2088 2900 1775 2900 
Q 1238 2900 969 2378 
L 494 2597 
Q 938 3328 1788 3328 
Q 2375 3328 2691 3000 
Q 2984 2706 2984 2169 
L 2984 997 
Q 2984 400 3156 63 
z
M 2491 1625 
L 2141 1619 
Q 903 1591 903 953 
Q 903 728 1050 581 
Q 1231 403 1525 403 
Q 1934 403 2234 703 
Q 2491 969 2491 1344 
L 2491 1625 
z
" transform="scale(0.015625)"/>
       <path id="IPAexGothic-69" d="M 1178 3928 
L 550 3928 
L 550 4569 
L 1178 4569 
L 1178 3928 
z
M 1138 63 
L 588 63 
L 588 3250 
L 1138 3250 
L 1138 63 
z
" transform="scale(0.015625)"/>
       <path id="IPAexGothic-6f" d="M 1919 3341 
Q 2594 3341 3056 2888 
Q 3531 2413 3531 1638 
Q 3531 888 3066 422 
Q 2609 -31 1919 -31 
Q 1228 -31 781 416 
Q 313 881 313 1656 
Q 313 2413 788 2888 
Q 1241 3341 1919 3341 
z
M 1919 2919 
Q 1519 2919 1241 2631 
Q 888 2278 888 1650 
Q 888 1031 1234 684 
Q 1516 403 1919 403 
Q 2331 403 2609 691 
Q 2956 1038 2956 1672 
Q 2956 2269 2603 2631 
Q 2316 2919 1919 2919 
z
" transform="scale(0.015625)"/>
       <path id="IPAexGothic-6e" d="M 3328 63 
L 2778 63 
L 2778 2041 
Q 2778 2853 2106 2853 
Q 1428 2853 1113 2041 
L 1113 63 
L 563 63 
L 563 3250 
L 1075 3250 
L 1075 2675 
Q 1525 3316 2222 3316 
Q 3328 3316 3328 2072 
L 3328 63 
z
" transform="scale(0.015625)"/>
      </defs>
      <use xlink:href="#IPAexGothic-49"/>
      <use xlink:href="#IPAexGothic-74" x="28.90625"/>
      <use xlink:href="#IPAexGothic-65" x="63.525391"/>
      <use xlink:href="#IPAexGothic-72" x="120.410156"/>
      <use xlink:href="#IPAexGothic-61" x="157.421875"/>
      <use xlink:href="#IPAexGothic-74" x="212.402344"/>
      <use xlink:href="#IPAexGothic-69" x="247.021484"/>
      <use xlink:href="#IPAexGothic-6f" x="274.023438"/>
      <use xlink:href="#IPAexGothic-6e" x="334.423828"/>
     </g>
    </g>
   </g>
   <g id="matplotlib.axis_2">
    <g id="ytick_1">
     <g id="line2d_6">
      <path d="M 48.731719 234.672766 
L 383.531719 234.672766 
" clip-path="url(#p083a065523)" style="fill: none; stroke: #ffffff; stroke-linecap: round"/>
     </g>
     <g id="text_7">
      <!-- 0.2 -->
      <g style="fill: #262626" transform="translate(22.46875 238.792609)scale(0.11 -0.11)">
       <defs>
        <path id="IPAexGothic-2e" d="M 1184 63 
L 494 63 
L 494 753 
L 1184 753 
L 1184 63 
z
" transform="scale(0.015625)"/>
       </defs>
       <use xlink:href="#IPAexGothic-30"/>
       <use xlink:href="#IPAexGothic-2e" x="62.988281"/>
       <use xlink:href="#IPAexGothic-32" x="89.404297"/>
      </g>
     </g>
    </g>
    <g id="ytick_2">
     <g id="line2d_7">
      <path d="M 48.731719 192.947671 
L 383.531719 192.947671 
" clip-path="url(#p083a065523)" style="fill: none; stroke: #ffffff; stroke-linecap: round"/>
     </g>
     <g id="text_8">
      <!-- 0.4 -->
      <g style="fill: #262626" transform="translate(22.46875 197.067514)scale(0.11 -0.11)">
       <use xlink:href="#IPAexGothic-30"/>
       <use xlink:href="#IPAexGothic-2e" x="62.988281"/>
       <use xlink:href="#IPAexGothic-34" x="89.404297"/>
      </g>
     </g>
    </g>
    <g id="ytick_3">
     <g id="line2d_8">
      <path d="M 48.731719 151.222576 
L 383.531719 151.222576 
" clip-path="url(#p083a065523)" style="fill: none; stroke: #ffffff; stroke-linecap: round"/>
     </g>
     <g id="text_9">
      <!-- 0.6 -->
      <g style="fill: #262626" transform="translate(22.46875 155.342419)scale(0.11 -0.11)">
       <use xlink:href="#IPAexGothic-30"/>
       <use xlink:href="#IPAexGothic-2e" x="62.988281"/>
       <use xlink:href="#IPAexGothic-36" x="89.404297"/>
      </g>
     </g>
    </g>
    <g id="ytick_4">
     <g id="line2d_9">
      <path d="M 48.731719 109.497481 
L 383.531719 109.497481 
" clip-path="url(#p083a065523)" style="fill: none; stroke: #ffffff; stroke-linecap: round"/>
     </g>
     <g id="text_10">
      <!-- 0.8 -->
      <g style="fill: #262626" transform="translate(22.46875 113.617324)scale(0.11 -0.11)">
       <use xlink:href="#IPAexGothic-30"/>
       <use xlink:href="#IPAexGothic-2e" x="62.988281"/>
       <use xlink:href="#IPAexGothic-38" x="89.404297"/>
      </g>
     </g>
    </g>
    <g id="ytick_5">
     <g id="line2d_10">
      <path d="M 48.731719 67.772386 
L 383.531719 67.772386 
" clip-path="url(#p083a065523)" style="fill: none; stroke: #ffffff; stroke-linecap: round"/>
     </g>
     <g id="text_11">
      <!-- 1.0 -->
      <g style="fill: #262626" transform="translate(22.46875 71.892229)scale(0.11 -0.11)">
       <defs>
        <path id="IPAexGothic-31" d="M 2463 63 
L 1900 63 
L 1900 4103 
Q 1372 3922 788 3797 
L 684 4231 
Q 1519 4441 2106 4731 
L 2463 4731 
L 2463 63 
z
" transform="scale(0.015625)"/>
       </defs>
       <use xlink:href="#IPAexGothic-31"/>
       <use xlink:href="#IPAexGothic-2e" x="62.988281"/>
       <use xlink:href="#IPAexGothic-30" x="89.404297"/>
      </g>
     </g>
    </g>
    <g id="text_12">
     <!-- rmse -->
     <g style="fill: #262626" transform="translate(16.18875 157.607437)rotate(-90)scale(0.12 -0.12)">
      <defs>
       <path id="IPAexGothic-6d" d="M 5022 63 
L 4472 63 
L 4472 2059 
Q 4472 2869 3847 2869 
Q 3550 2869 3303 2594 
Q 3128 2397 3059 2103 
L 3059 63 
L 2509 63 
L 2509 2066 
Q 2509 2869 1919 2869 
Q 1606 2869 1369 2594 
Q 1113 2306 1113 2041 
L 1113 63 
L 563 63 
L 563 3250 
L 1075 3250 
L 1075 2700 
Q 1391 3316 2028 3316 
Q 2725 3316 2956 2647 
Q 3303 3316 3953 3316 
Q 4478 3316 4772 2944 
Q 5022 2638 5022 2072 
L 5022 63 
z
" transform="scale(0.015625)"/>
       <path id="IPAexGothic-73" d="M 2234 2547 
Q 1938 2931 1484 2931 
Q 891 2931 891 2475 
Q 891 2153 1531 1944 
L 1741 1875 
Q 2650 1578 2650 894 
Q 2650 434 2272 172 
Q 1972 -31 1497 -31 
Q 766 -31 256 503 
L 603 819 
Q 997 397 1516 397 
Q 2131 397 2131 875 
Q 2131 1238 1453 1478 
L 1234 1553 
Q 378 1853 378 2431 
Q 378 2797 628 3047 
Q 928 3347 1453 3347 
Q 2156 3347 2606 2859 
L 2234 2547 
z
" transform="scale(0.015625)"/>
      </defs>
      <use xlink:href="#IPAexGothic-72"/>
      <use xlink:href="#IPAexGothic-6d" x="37.011719"/>
      <use xlink:href="#IPAexGothic-73" x="124.121094"/>
      <use xlink:href="#IPAexGothic-65" x="170.3125"/>
     </g>
    </g>
   </g>
   <g id="line2d_11">
    <path d="M 63.949901 45.138886 
L 65.263228 85.049612 
L 67.233219 124.583996 
L 68.218215 137.745609 
L 69.20321 148.549347 
L 69.859874 154.495714 
L 70.516538 160.208555 
L 71.173202 164.839483 
L 72.814861 173.59686 
L 74.128188 178.805386 
L 74.784852 180.71649 
L 75.113184 181.713432 
L 76.098179 183.641551 
L 76.426511 184.801507 
L 79.381498 190.413992 
L 80.366494 191.350378 
L 80.694826 191.883189 
L 81.351489 192.281475 
L 81.679821 192.726213 
L 82.008153 192.919934 
L 82.336485 193.531216 
L 82.664817 193.857751 
L 82.993149 194.410813 
L 83.32148 194.596611 
L 83.649812 195.064848 
L 83.978144 195.300908 
L 84.96314 196.720788 
L 86.276467 197.832917 
L 89.231454 199.243535 
L 90.873113 200.018954 
L 93.8281 201.395614 
L 94.813096 201.647646 
L 96.126423 202.354192 
L 96.783087 202.412014 
L 97.439751 202.641303 
L 102.036397 204.53538 
L 105.976379 206.347375 
L 107.289706 206.872006 
L 107.94637 207.09593 
L 108.603034 207.274571 
L 110.901357 208.0838 
L 111.229689 208.138203 
L 111.886352 208.402081 
L 113.19968 208.86561 
L 114.513007 209.271425 
L 116.154667 209.839343 
L 117.139662 210.018582 
L 118.45299 210.387809 
L 122.392972 211.500556 
L 123.377968 211.77991 
L 128.302946 212.969113 
L 128.959609 213.105855 
L 129.944605 213.377983 
L 133.884587 214.480919 
L 135.526247 214.981104 
L 136.839574 215.261934 
L 137.82457 215.614851 
L 138.481233 215.733689 
L 139.466229 216.024776 
L 140.451224 216.302854 
L 144.391207 217.237946 
L 145.704534 217.546031 
L 147.346194 217.834065 
L 150.629512 218.591667 
L 151.614508 218.833977 
L 152.599503 218.918678 
L 153.584499 219.145208 
L 155.882822 219.593712 
L 156.867818 219.767872 
L 159.822804 220.285259 
L 160.479468 220.444613 
L 193.640986 225.307561 
L 196.924305 225.67806 
L 198.894296 225.908518 
L 200.207623 226.05212 
L 201.192619 226.192655 
L 209.400916 227.306891 
L 210.714243 227.514799 
L 217.937544 228.659861 
L 218.594208 228.79666 
L 222.205858 229.158783 
L 223.519186 229.316951 
L 226.145841 229.653891 
L 227.130836 229.771299 
L 230.742487 230.273044 
L 246.830748 232.111567 
L 250.77073 232.444578 
L 251.755726 232.589857 
L 262.590677 233.671611 
L 272.112301 234.453982 
L 273.097297 234.564679 
L 275.39562 234.79035 
L 278.350607 235.166513 
L 281.962257 235.534708 
L 283.275585 235.658901 
L 284.917244 235.815758 
L 291.483881 236.444107 
L 293.782204 236.61186 
L 300.02051 237.241833 
L 308.88547 238.036451 
L 313.810448 238.441819 
L 315.452107 238.614886 
L 318.407094 238.812475 
L 322.675408 239.168439 
L 324.317067 239.358773 
L 333.182028 240.087441 
L 337.778674 240.470908 
L 341.390324 240.706089 
L 343.688647 240.893625 
L 351.568612 241.534361 
L 355.508594 241.771681 
L 358.135249 241.979762 
L 361.090236 242.240994 
L 368.313537 242.811614 
L 368.313537 242.811614 
" clip-path="url(#p083a065523)" style="fill: none; stroke: #4c72b0; stroke-width: 1.5; stroke-linecap: round"/>
   </g>
   <g id="line2d_12">
    <path d="M 63.949901 50.658224 
L 64.934896 80.052524 
L 65.919892 101.300759 
L 67.233219 123.515169 
L 67.889883 131.207276 
L 68.546547 137.756998 
L 68.874879 140.314153 
L 69.20321 143.750886 
L 69.859874 148.831608 
L 70.188206 151.757628 
L 71.173202 157.002659 
L 71.501533 158.184895 
L 72.486529 162.782119 
L 73.143193 164.49696 
L 73.799856 166.230189 
L 74.128188 167.070655 
L 74.45652 167.515502 
L 75.113184 168.870513 
L 76.098179 169.863109 
L 76.426511 170.782775 
L 76.754843 171.217438 
L 77.083175 171.410087 
L 77.411507 171.769567 
L 78.068171 172.749675 
L 79.053166 173.907357 
L 79.381498 174.159661 
L 80.366494 174.334712 
L 80.694826 174.719249 
L 81.351489 174.772192 
L 81.679821 175.071505 
L 82.008153 175.131222 
L 82.336485 175.417067 
L 82.664817 175.527626 
L 82.993149 175.898451 
L 83.32148 175.941293 
L 83.649812 176.254816 
L 83.978144 176.285884 
L 84.634808 176.841658 
L 85.619803 177.406816 
L 87.261463 177.773856 
L 88.246458 177.92368 
L 88.903122 177.987592 
L 92.186441 178.446571 
L 93.8281 178.693881 
L 94.484764 178.670997 
L 96.783087 179.037364 
L 98.753078 179.183384 
L 99.738074 179.242571 
L 102.036397 179.673167 
L 103.021392 179.826636 
L 105.319715 180.038978 
L 107.618038 180.24621 
L 114.184676 180.776747 
L 115.826335 180.863709 
L 116.81133 180.927085 
L 119.109653 181.029442 
L 120.422981 181.060547 
L 122.392972 181.10849 
L 124.034631 181.148424 
L 130.601269 181.424429 
L 132.57126 181.477853 
L 133.884587 181.54204 
L 146.361198 181.760394 
L 147.346194 181.78393 
L 148.987853 181.804076 
L 151.614508 181.884973 
L 164.747782 182.036284 
L 168.031101 182.012539 
L 169.016097 182.042531 
L 170.986088 182.041651 
L 172.299415 182.072917 
L 173.941074 182.068012 
L 184.119362 182.159697 
L 185.43269 182.229332 
L 191.342663 182.30024 
L 194.29765 182.33356 
L 197.252637 182.335303 
L 204.475938 182.362128 
L 205.460933 182.399571 
L 208.41592 182.409905 
L 215.310889 182.424429 
L 216.952548 182.436579 
L 217.937544 182.446351 
L 219.907535 182.405881 
L 221.549194 182.426201 
L 239.935779 182.475804 
L 242.234102 182.46924 
L 256.02404 182.482236 
L 257.994031 182.49741 
L 262.919009 182.552447 
L 267.843987 182.573619 
L 278.022275 182.518609 
L 281.962257 182.572246 
L 351.896944 182.654903 
L 359.120245 182.675709 
L 365.686882 182.663942 
L 368.313537 182.650384 
L 368.313537 182.650384 
" clip-path="url(#p083a065523)" style="fill: none; stroke: #dd8452; stroke-width: 1.5; stroke-linecap: round"/>
   </g>
   <g id="patch_3">
    <path d="M 48.731719 252.69525 
L 48.731719 35.25525 
" style="fill: none; stroke: #ffffff; stroke-width: 1.25; stroke-linejoin: miter; stroke-linecap: square"/>
   </g>
   <g id="patch_4">
    <path d="M 383.531719 252.69525 
L 383.531719 35.25525 
" style="fill: none; stroke: #ffffff; stroke-width: 1.25; stroke-linejoin: miter; stroke-linecap: square"/>
   </g>
   <g id="patch_5">
    <path d="M 48.731719 252.69525 
L 383.531719 252.69525 
" style="fill: none; stroke: #ffffff; stroke-width: 1.25; stroke-linejoin: miter; stroke-linecap: square"/>
   </g>
   <g id="patch_6">
    <path d="M 48.731719 35.25525 
L 383.531719 35.25525 
" style="fill: none; stroke: #ffffff; stroke-width: 1.25; stroke-linejoin: miter; stroke-linecap: square"/>
   </g>
   <g id="text_13">
    <!-- kFold : 0  -->
    <g style="fill: #262626" transform="translate(190.045781 16.18875)scale(0.12 -0.12)">
     <defs>
      <path id="IPAexGothic-6b" d="M 3244 63 
L 2578 63 
L 1484 1613 
L 1119 1259 
L 1119 63 
L 581 63 
L 581 4794 
L 1119 4794 
L 1119 1766 
L 2463 3250 
L 3153 3250 
L 1828 1925 
L 3244 63 
z
" transform="scale(0.015625)"/>
      <path id="IPAexGothic-46" d="M 3469 4141 
L 1172 4141 
L 1172 2656 
L 3206 2656 
L 3206 2188 
L 1172 2188 
L 1172 63 
L 609 63 
L 609 4634 
L 3469 4634 
L 3469 4141 
z
" transform="scale(0.015625)"/>
      <path id="IPAexGothic-6c" d="M 1131 63 
L 581 63 
L 581 4794 
L 1131 4794 
L 1131 63 
z
" transform="scale(0.015625)"/>
      <path id="IPAexGothic-64" d="M 3391 63 
L 2891 63 
L 2891 619 
Q 2441 -31 1753 -31 
Q 1181 -31 788 372 
Q 313 844 313 1663 
Q 313 2466 772 2938 
Q 1169 3341 1753 3341 
Q 2384 3341 2847 2809 
L 2847 4794 
L 3391 4794 
L 3391 63 
z
M 2847 1303 
L 2847 2097 
Q 2847 2413 2456 2706 
Q 2181 2906 1853 2906 
Q 1484 2906 1228 2650 
Q 888 2309 888 1678 
Q 888 1109 1169 750 
Q 1441 409 1847 409 
Q 2322 409 2656 875 
Q 2847 1134 2847 1303 
z
" transform="scale(0.015625)"/>
      <path id="IPAexGothic-20" transform="scale(0.015625)"/>
      <path id="IPAexGothic-3a" d="M 1369 2559 
L 672 2559 
L 672 3250 
L 1369 3250 
L 1369 2559 
z
M 1369 63 
L 672 63 
L 672 753 
L 1369 753 
L 1369 63 
z
" transform="scale(0.015625)"/>
     </defs>
     <use xlink:href="#IPAexGothic-6b"/>
     <use xlink:href="#IPAexGothic-46" x="51.806641"/>
     <use xlink:href="#IPAexGothic-6f" x="108.984375"/>
     <use xlink:href="#IPAexGothic-6c" x="169.384766"/>
     <use xlink:href="#IPAexGothic-64" x="196.386719"/>
     <use xlink:href="#IPAexGothic-20" x="258.789062"/>
     <use xlink:href="#IPAexGothic-3a" x="285.791016"/>
     <use xlink:href="#IPAexGothic-20" x="317.773438"/>
     <use xlink:href="#IPAexGothic-30" x="344.775391"/>
     <use xlink:href="#IPAexGothic-20" x="407.763672"/>
    </g>
    <!--  RMSE -->
    <g style="fill: #262626" transform="translate(198.131719 29.25525)scale(0.12 -0.12)">
     <defs>
      <path id="IPAexGothic-52" d="M 4072 63 
L 3394 63 
Q 3138 641 2828 1197 
Q 2584 1641 2344 1825 
Q 2050 2044 1625 2044 
L 1172 2044 
L 1172 63 
L 609 63 
L 609 4634 
L 2009 4634 
Q 2713 4634 3131 4378 
Q 3688 4044 3688 3381 
Q 3688 2784 3181 2459 
Q 2906 2272 2522 2216 
L 2522 2197 
Q 2941 2050 3247 1581 
Q 3516 1166 4072 63 
z
M 1172 2478 
L 1869 2478 
Q 3106 2478 3106 3369 
Q 3106 4181 1928 4181 
L 1172 4181 
L 1172 2478 
z
" transform="scale(0.015625)"/>
      <path id="IPAexGothic-4d" d="M 5147 63 
L 4597 63 
L 4597 2534 
Q 4597 3281 4634 4134 
L 4609 4134 
Q 4356 3409 4066 2675 
L 3066 209 
L 2650 209 
L 1641 2725 
Q 1328 3506 1128 4141 
L 1103 4141 
Q 1141 3131 1141 2553 
L 1141 63 
L 609 63 
L 609 4634 
L 1416 4634 
L 2503 1944 
Q 2697 1472 2869 906 
L 2888 906 
Q 3028 1416 3234 1931 
L 4316 4634 
L 5147 4634 
L 5147 63 
z
" transform="scale(0.015625)"/>
      <path id="IPAexGothic-53" d="M 2919 3641 
Q 2563 4259 1853 4259 
Q 1453 4259 1213 4009 
Q 1028 3803 1028 3534 
Q 1028 3238 1266 3047 
Q 1444 2913 1984 2688 
L 2200 2597 
Q 2925 2306 3191 1953 
Q 3422 1644 3422 1259 
Q 3422 644 2969 288 
Q 2559 -31 1931 -31 
Q 881 -31 313 766 
L 753 1100 
Q 1203 459 1938 459 
Q 2288 459 2534 625 
Q 2841 847 2841 1216 
Q 2841 1503 2616 1728 
Q 2375 1959 1728 2206 
L 1541 2278 
Q 453 2694 453 3481 
Q 453 4006 806 4347 
Q 1203 4725 1863 4725 
Q 2841 4725 3359 3956 
L 2919 3641 
z
" transform="scale(0.015625)"/>
      <path id="IPAexGothic-45" d="M 3547 63 
L 609 63 
L 609 4634 
L 3469 4634 
L 3469 4147 
L 1166 4147 
L 1166 2650 
L 3206 2650 
L 3206 2191 
L 1166 2191 
L 1166 556 
L 3547 556 
L 3547 63 
z
" transform="scale(0.015625)"/>
     </defs>
     <use xlink:href="#IPAexGothic-20"/>
     <use xlink:href="#IPAexGothic-52" x="27.001953"/>
     <use xlink:href="#IPAexGothic-4d" x="91.796875"/>
     <use xlink:href="#IPAexGothic-53" x="181.982422"/>
     <use xlink:href="#IPAexGothic-45" x="240.478516"/>
    </g>
   </g>
   <g id="legend_1">
    <g id="patch_7">
     <path d="M 293.689219 75.714625 
L 375.831719 75.714625 
Q 378.031719 75.714625 378.031719 73.514625 
L 378.031719 42.95525 
Q 378.031719 40.75525 375.831719 40.75525 
L 293.689219 40.75525 
Q 291.489219 40.75525 291.489219 42.95525 
L 291.489219 73.514625 
Q 291.489219 75.714625 293.689219 75.714625 
z
" style="fill: #eaeaf2; opacity: 0.8; stroke: #cccccc; stroke-linejoin: miter"/>
    </g>
    <g id="line2d_13">
     <path d="M 295.889219 49.544937 
L 306.889219 49.544937 
L 317.889219 49.544937 
" style="fill: none; stroke: #4c72b0; stroke-width: 1.5; stroke-linecap: round"/>
    </g>
    <g id="text_14">
     <!-- train loss -->
     <g style="fill: #262626" transform="translate(326.689219 53.394937)scale(0.11 -0.11)">
      <use xlink:href="#IPAexGothic-74"/>
      <use xlink:href="#IPAexGothic-72" x="34.619141"/>
      <use xlink:href="#IPAexGothic-61" x="71.630859"/>
      <use xlink:href="#IPAexGothic-69" x="126.611328"/>
      <use xlink:href="#IPAexGothic-6e" x="153.613281"/>
      <use xlink:href="#IPAexGothic-20" x="214.013672"/>
      <use xlink:href="#IPAexGothic-6c" x="241.015625"/>
      <use xlink:href="#IPAexGothic-6f" x="268.017578"/>
      <use xlink:href="#IPAexGothic-73" x="328.417969"/>
      <use xlink:href="#IPAexGothic-73" x="374.609375"/>
     </g>
    </g>
    <g id="line2d_14">
     <path d="M 295.889219 65.374625 
L 306.889219 65.374625 
L 317.889219 65.374625 
" style="fill: none; stroke: #dd8452; stroke-width: 1.5; stroke-linecap: round"/>
    </g>
    <g id="text_15">
     <!-- valid loss -->
     <g style="fill: #262626" transform="translate(326.689219 69.224625)scale(0.11 -0.11)">
      <defs>
       <path id="IPAexGothic-76" d="M 3103 3250 
L 1747 6 
L 1375 6 
L 25 3250 
L 628 3250 
L 1338 1388 
L 1522 844 
L 1569 703 
L 1588 703 
Q 1641 884 1822 1388 
L 2516 3250 
L 3103 3250 
z
" transform="scale(0.015625)"/>
      </defs>
      <use xlink:href="#IPAexGothic-76"/>
      <use xlink:href="#IPAexGothic-61" x="48.583984"/>
      <use xlink:href="#IPAexGothic-6c" x="103.564453"/>
      <use xlink:href="#IPAexGothic-69" x="130.566406"/>
      <use xlink:href="#IPAexGothic-64" x="157.568359"/>
      <use xlink:href="#IPAexGothic-20" x="219.970703"/>
      <use xlink:href="#IPAexGothic-6c" x="246.972656"/>
      <use xlink:href="#IPAexGothic-6f" x="273.974609"/>
      <use xlink:href="#IPAexGothic-73" x="334.375"/>
      <use xlink:href="#IPAexGothic-73" x="380.566406"/>
     </g>
    </g>
   </g>
  </g>
 </g>
 <defs>
  <clipPath id="p083a065523">
   <rect x="48.731719" y="35.25525" width="334.8" height="217.44"/>
  </clipPath>
 </defs>
</svg>
