<?xml version="1.0" encoding="utf-8" standalone="no"?>
<!DOCTYPE svg PUBLIC "-//W3C//DTD SVG 1.1//EN"
  "http://www.w3.org/Graphics/SVG/1.1/DTD/svg11.dtd">
<svg xmlns:xlink="http://www.w3.org/1999/xlink" width="276.592812pt" height="420.067187pt" viewBox="0 0 276.592812 420.067187" xmlns="http://www.w3.org/2000/svg" version="1.1">
 <metadata>
  <rdf:RDF xmlns:dc="http://purl.org/dc/elements/1.1/" xmlns:cc="http://creativecommons.org/ns#" xmlns:rdf="http://www.w3.org/1999/02/22-rdf-syntax-ns#">
   <cc:Work>
    <dc:type rdf:resource="http://purl.org/dc/dcmitype/StillImage"/>
    <dc:date>2022-02-08T23:44:47.380328</dc:date>
    <dc:format>image/svg+xml</dc:format>
    <dc:creator>
     <cc:Agent>
      <dc:title>Matplotlib v3.5.1, https://matplotlib.org/</dc:title>
     </cc:Agent>
    </dc:creator>
   </cc:Work>
  </rdf:RDF>
 </metadata>
 <defs>
  <style type="text/css">*{stroke-linejoin: round; stroke-linecap: butt}</style>
 </defs>
 <g id="figure_1">
  <g id="patch_1">
   <path d="M 0 420.067187 
L 276.592812 420.067187 
L 276.592812 0 
L 0 0 
z
" style="fill: #ffffff"/>
  </g>
  <g id="axes_1">
   <g id="patch_2">
    <path d="M 89.687813 377.76875 
L 269.392812 377.76875 
L 269.392812 22.18875 
L 89.687813 22.18875 
z
" style="fill: #eaeaf2"/>
   </g>
   <g id="matplotlib.axis_1">
    <g id="xtick_1">
     <g id="line2d_1">
      <path d="M 89.687813 377.76875 
L 89.687813 22.18875 
" clip-path="url(#pe580c33325)" style="fill: none; stroke: #ffffff; stroke-linecap: round"/>
     </g>
     <g id="text_1">
      <!-- 0 -->
      <g style="fill: #262626" transform="translate(86.223672 395.508437)scale(0.11 -0.11)">
       <defs>
        <path id="IPAexGothic-30" d="M 2038 4725 
Q 2881 4725 3334 3944 
Q 3694 3325 3694 2344 
Q 3694 1372 3334 741 
Q 2888 -31 2016 -31 
Q 1147 -31 700 741 
Q 341 1372 341 2350 
Q 341 3713 1000 4334 
Q 1419 4725 2038 4725 
z
M 2016 4266 
Q 1516 4266 1228 3759 
Q 934 3247 934 2344 
Q 934 1456 1222 947 
Q 1513 447 2016 447 
Q 2619 447 2909 1153 
Q 3100 1622 3100 2375 
Q 3100 3256 2806 3759 
Q 2509 4266 2016 4266 
z
" transform="scale(0.015625)"/>
       </defs>
       <use xlink:href="#IPAexGothic-30"/>
      </g>
     </g>
    </g>
    <g id="xtick_2">
     <g id="line2d_2">
      <path d="M 153.585752 377.76875 
L 153.585752 22.18875 
" clip-path="url(#pe580c33325)" style="fill: none; stroke: #ffffff; stroke-linecap: round"/>
     </g>
     <g id="text_2">
      <!-- 20000 -->
      <g style="fill: #262626" transform="translate(136.265049 395.508437)scale(0.11 -0.11)">
       <defs>
        <path id="IPAexGothic-32" d="M 3659 63 
L 447 63 
L 447 594 
Q 825 1475 1894 2203 
L 2072 2322 
Q 2619 2697 2791 2906 
Q 2988 3153 2988 3444 
Q 2988 3772 2756 4003 
Q 2500 4259 2084 4259 
Q 1250 4259 991 3328 
L 497 3506 
Q 853 4725 2116 4725 
Q 2806 4725 3216 4316 
Q 3575 3947 3575 3425 
Q 3575 3038 3344 2722 
Q 3131 2416 2366 1938 
L 2231 1856 
Q 1256 1253 978 569 
L 3659 569 
L 3659 63 
z
" transform="scale(0.015625)"/>
       </defs>
       <use xlink:href="#IPAexGothic-32"/>
       <use xlink:href="#IPAexGothic-30" x="62.988281"/>
       <use xlink:href="#IPAexGothic-30" x="125.976562"/>
       <use xlink:href="#IPAexGothic-30" x="188.964844"/>
       <use xlink:href="#IPAexGothic-30" x="251.953125"/>
      </g>
     </g>
    </g>
    <g id="xtick_3">
     <g id="line2d_3">
      <path d="M 217.483692 377.76875 
L 217.483692 22.18875 
" clip-path="url(#pe580c33325)" style="fill: none; stroke: #ffffff; stroke-linecap: round"/>
     </g>
     <g id="text_3">
      <!-- 40000 -->
      <g style="fill: #262626" transform="translate(200.162989 395.508437)scale(0.11 -0.11)">
       <defs>
        <path id="IPAexGothic-34" d="M 3813 1159 
L 3059 1159 
L 3059 63 
L 2547 63 
L 2547 1159 
L 197 1159 
L 197 1672 
L 2456 4678 
L 3059 4678 
L 3059 1634 
L 3813 1634 
L 3813 1159 
z
M 2578 4109 
L 2559 4109 
Q 2278 3656 2003 3284 
L 759 1634 
L 2547 1634 
L 2547 3144 
Q 2547 3481 2578 4109 
z
" transform="scale(0.015625)"/>
       </defs>
       <use xlink:href="#IPAexGothic-34"/>
       <use xlink:href="#IPAexGothic-30" x="62.988281"/>
       <use xlink:href="#IPAexGothic-30" x="125.976562"/>
       <use xlink:href="#IPAexGothic-30" x="188.964844"/>
       <use xlink:href="#IPAexGothic-30" x="251.953125"/>
      </g>
     </g>
    </g>
    <g id="text_4">
     <!-- importance -->
     <g style="fill: #262626" transform="translate(147.444062 410.587187)scale(0.12 -0.12)">
      <defs>
       <path id="IPAexGothic-69" d="M 1178 3928 
L 550 3928 
L 550 4569 
L 1178 4569 
L 1178 3928 
z
M 1138 63 
L 588 63 
L 588 3250 
L 1138 3250 
L 1138 63 
z
" transform="scale(0.015625)"/>
       <path id="IPAexGothic-6d" d="M 5022 63 
L 4472 63 
L 4472 2059 
Q 4472 2869 3847 2869 
Q 3550 2869 3303 2594 
Q 3128 2397 3059 2103 
L 3059 63 
L 2509 63 
L 2509 2066 
Q 2509 2869 1919 2869 
Q 1606 2869 1369 2594 
Q 1113 2306 1113 2041 
L 1113 63 
L 563 63 
L 563 3250 
L 1075 3250 
L 1075 2700 
Q 1391 3316 2028 3316 
Q 2725 3316 2956 2647 
Q 3303 3316 3953 3316 
Q 4478 3316 4772 2944 
Q 5022 2638 5022 2072 
L 5022 63 
z
" transform="scale(0.015625)"/>
       <path id="IPAexGothic-70" d="M 1075 2688 
Q 1525 3341 2206 3341 
Q 2769 3341 3172 2938 
Q 3641 2469 3641 1644 
Q 3641 841 3178 372 
Q 2775 -31 2200 -31 
Q 1569 -31 1106 497 
L 1106 -1216 
L 563 -1216 
L 563 3250 
L 1075 3250 
L 1075 2688 
z
M 1106 1950 
L 1106 1291 
Q 1106 897 1516 600 
Q 1791 403 2106 403 
Q 2469 403 2725 659 
Q 3066 997 3066 1631 
Q 3066 2200 2784 2559 
Q 2503 2900 2100 2900 
Q 1656 2900 1338 2484 
Q 1106 2184 1106 1950 
z
" transform="scale(0.015625)"/>
       <path id="IPAexGothic-6f" d="M 1919 3341 
Q 2594 3341 3056 2888 
Q 3531 2413 3531 1638 
Q 3531 888 3066 422 
Q 2609 -31 1919 -31 
Q 1228 -31 781 416 
Q 313 881 313 1656 
Q 313 2413 788 2888 
Q 1241 3341 1919 3341 
z
M 1919 2919 
Q 1519 2919 1241 2631 
Q 888 2278 888 1650 
Q 888 1031 1234 684 
Q 1516 403 1919 403 
Q 2331 403 2609 691 
Q 2956 1038 2956 1672 
Q 2956 2269 2603 2631 
Q 2316 2919 1919 2919 
z
" transform="scale(0.015625)"/>
       <path id="IPAexGothic-72" d="M 2309 3316 
L 2213 2769 
Q 2106 2791 2022 2791 
Q 1653 2791 1413 2444 
Q 1113 2006 1113 1675 
L 1113 63 
L 563 63 
L 563 3250 
L 1081 3250 
L 1056 2303 
L 1069 2303 
Q 1422 3341 2097 3341 
Q 2206 3341 2309 3316 
z
" transform="scale(0.015625)"/>
       <path id="IPAexGothic-74" d="M 2125 241 
Q 1769 -6 1397 -6 
Q 653 -6 653 831 
L 653 2859 
L 219 2859 
L 219 3250 
L 653 3250 
L 653 3966 
L 1178 4228 
L 1178 3250 
L 2063 3250 
L 2063 2859 
L 1178 2859 
L 1178 906 
Q 1178 416 1513 416 
Q 1738 416 1941 588 
L 2125 241 
z
" transform="scale(0.015625)"/>
       <path id="IPAexGothic-61" d="M 3156 63 
L 2672 63 
Q 2559 303 2531 556 
L 2509 556 
Q 2147 -25 1428 -25 
Q 934 -25 622 288 
Q 347 563 347 959 
Q 347 1947 2050 1997 
L 2478 2009 
L 2478 2175 
Q 2478 2509 2288 2700 
Q 2088 2900 1775 2900 
Q 1238 2900 969 2378 
L 494 2597 
Q 938 3328 1788 3328 
Q 2375 3328 2691 3000 
Q 2984 2706 2984 2169 
L 2984 997 
Q 2984 400 3156 63 
z
M 2491 1625 
L 2141 1619 
Q 903 1591 903 953 
Q 903 728 1050 581 
Q 1231 403 1525 403 
Q 1934 403 2234 703 
Q 2491 969 2491 1344 
L 2491 1625 
z
" transform="scale(0.015625)"/>
       <path id="IPAexGothic-6e" d="M 3328 63 
L 2778 63 
L 2778 2041 
Q 2778 2853 2106 2853 
Q 1428 2853 1113 2041 
L 1113 63 
L 563 63 
L 563 3250 
L 1075 3250 
L 1075 2675 
Q 1525 3316 2222 3316 
Q 3328 3316 3328 2072 
L 3328 63 
z
" transform="scale(0.015625)"/>
       <path id="IPAexGothic-63" d="M 3269 784 
Q 2834 -31 1900 -31 
Q 1228 -31 788 409 
Q 313 891 313 1663 
Q 313 2428 788 2913 
Q 1222 3347 1881 3347 
Q 2813 3347 3206 2541 
L 2763 2309 
Q 2484 2900 1900 2900 
Q 1516 2900 1234 2619 
Q 881 2266 881 1650 
Q 881 1069 1222 728 
Q 1522 428 1956 428 
Q 2547 428 2847 1016 
L 3269 784 
z
" transform="scale(0.015625)"/>
       <path id="IPAexGothic-65" d="M 863 1594 
Q 891 1041 1209 722 
Q 1534 397 1997 397 
Q 2606 397 2963 966 
L 3322 728 
Q 2869 -31 1931 -31 
Q 1222 -31 766 422 
Q 306 884 306 1641 
Q 306 2444 788 2925 
Q 1216 3353 1856 3353 
Q 2459 3353 2866 2956 
Q 3322 2494 3322 1722 
L 3322 1594 
L 863 1594 
z
M 2756 1997 
Q 2709 2431 2450 2681 
Q 2194 2938 1844 2938 
Q 1438 2938 1150 2591 
Q 953 2356 894 1997 
L 2756 1997 
z
" transform="scale(0.015625)"/>
      </defs>
      <use xlink:href="#IPAexGothic-69"/>
      <use xlink:href="#IPAexGothic-6d" x="27.001953"/>
      <use xlink:href="#IPAexGothic-70" x="114.111328"/>
      <use xlink:href="#IPAexGothic-6f" x="176.220703"/>
      <use xlink:href="#IPAexGothic-72" x="236.621094"/>
      <use xlink:href="#IPAexGothic-74" x="273.632812"/>
      <use xlink:href="#IPAexGothic-61" x="308.251953"/>
      <use xlink:href="#IPAexGothic-6e" x="363.232422"/>
      <use xlink:href="#IPAexGothic-63" x="423.632812"/>
      <use xlink:href="#IPAexGothic-65" x="478.027344"/>
     </g>
    </g>
   </g>
   <g id="matplotlib.axis_2">
    <g id="ytick_1">
     <g id="text_5">
      <!-- MedInc -->
      <g style="fill: #262626" transform="translate(41.337188 48.532344)scale(0.11 -0.11)">
       <defs>
        <path id="IPAexGothic-4d" d="M 5147 63 
L 4597 63 
L 4597 2534 
Q 4597 3281 4634 4134 
L 4609 4134 
Q 4356 3409 4066 2675 
L 3066 209 
L 2650 209 
L 1641 2725 
Q 1328 3506 1128 4141 
L 1103 4141 
Q 1141 3131 1141 2553 
L 1141 63 
L 609 63 
L 609 4634 
L 1416 4634 
L 2503 1944 
Q 2697 1472 2869 906 
L 2888 906 
Q 3028 1416 3234 1931 
L 4316 4634 
L 5147 4634 
L 5147 63 
z
" transform="scale(0.015625)"/>
        <path id="IPAexGothic-64" d="M 3391 63 
L 2891 63 
L 2891 619 
Q 2441 -31 1753 -31 
Q 1181 -31 788 372 
Q 313 844 313 1663 
Q 313 2466 772 2938 
Q 1169 3341 1753 3341 
Q 2384 3341 2847 2809 
L 2847 4794 
L 3391 4794 
L 3391 63 
z
M 2847 1303 
L 2847 2097 
Q 2847 2413 2456 2706 
Q 2181 2906 1853 2906 
Q 1484 2906 1228 2650 
Q 888 2309 888 1678 
Q 888 1109 1169 750 
Q 1441 409 1847 409 
Q 2322 409 2656 875 
Q 2847 1134 2847 1303 
z
" transform="scale(0.015625)"/>
        <path id="IPAexGothic-49" d="M 1203 63 
L 634 63 
L 634 4634 
L 1203 4634 
L 1203 63 
z
" transform="scale(0.015625)"/>
       </defs>
       <use xlink:href="#IPAexGothic-4d"/>
       <use xlink:href="#IPAexGothic-65" x="90.185547"/>
       <use xlink:href="#IPAexGothic-64" x="147.070312"/>
       <use xlink:href="#IPAexGothic-49" x="209.472656"/>
       <use xlink:href="#IPAexGothic-6e" x="238.378906"/>
       <use xlink:href="#IPAexGothic-63" x="298.779297"/>
      </g>
     </g>
    </g>
    <g id="ytick_2">
     <g id="text_6">
      <!-- Longitude -->
      <g style="fill: #262626" transform="translate(28.460313 92.979844)scale(0.11 -0.11)">
       <defs>
        <path id="IPAexGothic-4c" d="M 3347 63 
L 609 63 
L 609 4634 
L 1178 4634 
L 1178 563 
L 3347 563 
L 3347 63 
z
" transform="scale(0.015625)"/>
        <path id="IPAexGothic-67" d="M 1331 1150 
Q 1006 1122 1006 900 
Q 1006 613 1763 575 
L 2131 556 
Q 3303 497 3303 -294 
Q 3303 -700 2925 -959 
Q 2519 -1253 1794 -1253 
Q 1138 -1253 738 -1028 
Q 353 -809 353 -428 
Q 353 84 1075 247 
L 1075 269 
Q 506 413 506 778 
Q 506 1116 994 1297 
Q 456 1575 456 2181 
Q 456 2650 769 2963 
Q 1128 3322 1738 3322 
Q 2125 3322 2422 3153 
Q 2650 3453 3259 3463 
L 3259 3013 
Q 2838 3003 2703 2938 
Q 3034 2613 3034 2169 
Q 3034 1728 2734 1425 
Q 2400 1094 1813 1094 
Q 1563 1094 1331 1150 
z
M 1734 2919 
Q 1409 2919 1197 2706 
Q 988 2497 988 2181 
Q 988 1872 1184 1684 
Q 1397 1472 1756 1472 
Q 2094 1472 2297 1678 
Q 2503 1881 2503 2203 
Q 2503 2497 2297 2700 
Q 2081 2919 1734 2919 
z
M 1753 159 
Q 903 159 903 -366 
Q 903 -875 1800 -875 
Q 2378 -875 2638 -606 
Q 2772 -481 2772 -313 
Q 2772 159 1753 159 
z
" transform="scale(0.015625)"/>
        <path id="IPAexGothic-75" d="M 3284 63 
L 2772 63 
L 2772 644 
Q 2300 0 1625 0 
Q 1072 0 763 375 
Q 519 678 519 1241 
L 519 3250 
L 1069 3250 
L 1069 1259 
Q 1069 466 1734 466 
Q 2406 466 2734 1291 
L 2734 3250 
L 3284 3250 
L 3284 63 
z
" transform="scale(0.015625)"/>
       </defs>
       <use xlink:href="#IPAexGothic-4c"/>
       <use xlink:href="#IPAexGothic-6f" x="52.587891"/>
       <use xlink:href="#IPAexGothic-6e" x="112.988281"/>
       <use xlink:href="#IPAexGothic-67" x="173.388672"/>
       <use xlink:href="#IPAexGothic-69" x="228.90625"/>
       <use xlink:href="#IPAexGothic-74" x="255.908203"/>
       <use xlink:href="#IPAexGothic-75" x="290.527344"/>
       <use xlink:href="#IPAexGothic-64" x="350.927734"/>
       <use xlink:href="#IPAexGothic-65" x="413.330078"/>
      </g>
     </g>
    </g>
    <g id="ytick_3">
     <g id="text_7">
      <!-- Latitude -->
      <g style="fill: #262626" transform="translate(37.999375 137.427344)scale(0.11 -0.11)">
       <use xlink:href="#IPAexGothic-4c"/>
       <use xlink:href="#IPAexGothic-61" x="52.587891"/>
       <use xlink:href="#IPAexGothic-74" x="107.568359"/>
       <use xlink:href="#IPAexGothic-69" x="142.1875"/>
       <use xlink:href="#IPAexGothic-74" x="169.189453"/>
       <use xlink:href="#IPAexGothic-75" x="203.808594"/>
       <use xlink:href="#IPAexGothic-64" x="264.208984"/>
       <use xlink:href="#IPAexGothic-65" x="326.611328"/>
      </g>
     </g>
    </g>
    <g id="ytick_4">
     <g id="text_8">
      <!-- AveOccup -->
      <g style="fill: #262626" transform="translate(27.368906 181.874844)scale(0.11 -0.11)">
       <defs>
        <path id="IPAexGothic-41" d="M 4056 63 
L 3444 63 
L 2938 1409 
L 1100 1409 
L 603 63 
L -6 63 
L 1806 4666 
L 2259 4666 
L 4056 63 
z
M 2778 1863 
L 2316 3078 
Q 2125 3588 2028 4000 
L 2009 4000 
Q 1897 3563 1716 3078 
L 1263 1863 
L 2778 1863 
z
" transform="scale(0.015625)"/>
        <path id="IPAexGothic-76" d="M 3103 3250 
L 1747 6 
L 1375 6 
L 25 3250 
L 628 3250 
L 1338 1388 
L 1522 844 
L 1569 703 
L 1588 703 
Q 1641 884 1822 1388 
L 2516 3250 
L 3103 3250 
z
" transform="scale(0.015625)"/>
        <path id="IPAexGothic-4f" d="M 2541 4725 
Q 3456 4725 4044 4138 
Q 4709 3472 4709 2331 
Q 4709 1219 4031 550 
Q 3450 -31 2541 -31 
Q 1638 -31 1056 550 
Q 378 1219 378 2356 
Q 378 3469 1044 4138 
Q 1631 4725 2541 4725 
z
M 2541 4266 
Q 1953 4266 1531 3844 
Q 994 3303 994 2350 
Q 994 1391 1531 863 
Q 1947 447 2541 447 
Q 3131 447 3556 863 
Q 4094 1400 4094 2375 
Q 4094 3297 3550 3844 
Q 3138 4266 2541 4266 
z
" transform="scale(0.015625)"/>
       </defs>
       <use xlink:href="#IPAexGothic-41"/>
       <use xlink:href="#IPAexGothic-76" x="63.720703"/>
       <use xlink:href="#IPAexGothic-65" x="112.304688"/>
       <use xlink:href="#IPAexGothic-4f" x="169.189453"/>
       <use xlink:href="#IPAexGothic-63" x="248.876953"/>
       <use xlink:href="#IPAexGothic-63" x="303.271484"/>
       <use xlink:href="#IPAexGothic-75" x="357.666016"/>
       <use xlink:href="#IPAexGothic-70" x="418.066406"/>
      </g>
     </g>
    </g>
    <g id="ytick_5">
     <g id="text_9">
      <!-- AveRooms -->
      <g style="fill: #262626" transform="translate(26.4975 226.322344)scale(0.11 -0.11)">
       <defs>
        <path id="IPAexGothic-52" d="M 4072 63 
L 3394 63 
Q 3138 641 2828 1197 
Q 2584 1641 2344 1825 
Q 2050 2044 1625 2044 
L 1172 2044 
L 1172 63 
L 609 63 
L 609 4634 
L 2009 4634 
Q 2713 4634 3131 4378 
Q 3688 4044 3688 3381 
Q 3688 2784 3181 2459 
Q 2906 2272 2522 2216 
L 2522 2197 
Q 2941 2050 3247 1581 
Q 3516 1166 4072 63 
z
M 1172 2478 
L 1869 2478 
Q 3106 2478 3106 3369 
Q 3106 4181 1928 4181 
L 1172 4181 
L 1172 2478 
z
" transform="scale(0.015625)"/>
        <path id="IPAexGothic-73" d="M 2234 2547 
Q 1938 2931 1484 2931 
Q 891 2931 891 2475 
Q 891 2153 1531 1944 
L 1741 1875 
Q 2650 1578 2650 894 
Q 2650 434 2272 172 
Q 1972 -31 1497 -31 
Q 766 -31 256 503 
L 603 819 
Q 997 397 1516 397 
Q 2131 397 2131 875 
Q 2131 1238 1453 1478 
L 1234 1553 
Q 378 1853 378 2431 
Q 378 2797 628 3047 
Q 928 3347 1453 3347 
Q 2156 3347 2606 2859 
L 2234 2547 
z
" transform="scale(0.015625)"/>
       </defs>
       <use xlink:href="#IPAexGothic-41"/>
       <use xlink:href="#IPAexGothic-76" x="63.720703"/>
       <use xlink:href="#IPAexGothic-65" x="112.304688"/>
       <use xlink:href="#IPAexGothic-52" x="169.189453"/>
       <use xlink:href="#IPAexGothic-6f" x="233.984375"/>
       <use xlink:href="#IPAexGothic-6f" x="294.384766"/>
       <use xlink:href="#IPAexGothic-6d" x="354.785156"/>
       <use xlink:href="#IPAexGothic-73" x="441.894531"/>
      </g>
     </g>
    </g>
    <g id="ytick_6">
     <g id="text_10">
      <!-- HouseAge -->
      <g style="fill: #262626" transform="translate(27.936094 270.738047)scale(0.11 -0.11)">
       <defs>
        <path id="IPAexGothic-48" d="M 4181 63 
L 3619 63 
L 3619 2200 
L 1172 2200 
L 1172 63 
L 609 63 
L 609 4634 
L 1172 4634 
L 1172 2669 
L 3619 2669 
L 3619 4634 
L 4181 4634 
L 4181 63 
z
" transform="scale(0.015625)"/>
       </defs>
       <use xlink:href="#IPAexGothic-48"/>
       <use xlink:href="#IPAexGothic-6f" x="75"/>
       <use xlink:href="#IPAexGothic-75" x="135.400391"/>
       <use xlink:href="#IPAexGothic-73" x="195.800781"/>
       <use xlink:href="#IPAexGothic-65" x="241.992188"/>
       <use xlink:href="#IPAexGothic-41" x="298.876953"/>
       <use xlink:href="#IPAexGothic-67" x="362.597656"/>
       <use xlink:href="#IPAexGothic-65" x="418.115234"/>
      </g>
     </g>
    </g>
    <g id="ytick_7">
     <g id="text_11">
      <!-- AveBedrms -->
      <g style="fill: #262626" transform="translate(22.46875 315.217344)scale(0.11 -0.11)">
       <defs>
        <path id="IPAexGothic-42" d="M 2688 2425 
Q 3816 2225 3816 1338 
Q 3816 556 3041 222 
Q 2672 63 2094 63 
L 609 63 
L 609 4634 
L 1916 4634 
Q 2494 4634 2869 4500 
Q 3644 4222 3644 3491 
Q 3644 2609 2688 2447 
L 2688 2425 
z
M 1159 2656 
L 1844 2656 
Q 3063 2656 3063 3431 
Q 3063 4181 1881 4181 
L 1159 4181 
L 1159 2656 
z
M 1159 522 
L 2016 522 
Q 3222 522 3222 1369 
Q 3222 1897 2625 2100 
Q 2278 2222 1875 2222 
L 1159 2222 
L 1159 522 
z
" transform="scale(0.015625)"/>
       </defs>
       <use xlink:href="#IPAexGothic-41"/>
       <use xlink:href="#IPAexGothic-76" x="63.720703"/>
       <use xlink:href="#IPAexGothic-65" x="112.304688"/>
       <use xlink:href="#IPAexGothic-42" x="169.189453"/>
       <use xlink:href="#IPAexGothic-65" x="235.107422"/>
       <use xlink:href="#IPAexGothic-64" x="291.992188"/>
       <use xlink:href="#IPAexGothic-72" x="354.394531"/>
       <use xlink:href="#IPAexGothic-6d" x="391.40625"/>
       <use xlink:href="#IPAexGothic-73" x="478.515625"/>
      </g>
     </g>
    </g>
    <g id="ytick_8">
     <g id="text_12">
      <!-- Population -->
      <g style="fill: #262626" transform="translate(24.147969 359.664844)scale(0.11 -0.11)">
       <defs>
        <path id="IPAexGothic-50" d="M 609 4634 
L 1941 4634 
Q 3688 4634 3688 3322 
Q 3688 1934 1906 1934 
L 1172 1934 
L 1172 63 
L 609 63 
L 609 4634 
z
M 1172 2381 
L 1800 2381 
Q 3100 2381 3100 3316 
Q 3100 4181 1894 4181 
L 1172 4181 
L 1172 2381 
z
" transform="scale(0.015625)"/>
        <path id="IPAexGothic-6c" d="M 1131 63 
L 581 63 
L 581 4794 
L 1131 4794 
L 1131 63 
z
" transform="scale(0.015625)"/>
       </defs>
       <use xlink:href="#IPAexGothic-50"/>
       <use xlink:href="#IPAexGothic-6f" x="62.109375"/>
       <use xlink:href="#IPAexGothic-70" x="122.509766"/>
       <use xlink:href="#IPAexGothic-75" x="184.619141"/>
       <use xlink:href="#IPAexGothic-6c" x="245.019531"/>
       <use xlink:href="#IPAexGothic-61" x="272.021484"/>
       <use xlink:href="#IPAexGothic-74" x="327.001953"/>
       <use xlink:href="#IPAexGothic-69" x="361.621094"/>
       <use xlink:href="#IPAexGothic-6f" x="388.623047"/>
       <use xlink:href="#IPAexGothic-6e" x="449.023438"/>
      </g>
     </g>
    </g>
    <g id="text_13">
     <!-- feature -->
     <g style="fill: #262626" transform="translate(16.18875 219.864062)rotate(-90)scale(0.12 -0.12)">
      <defs>
       <path id="IPAexGothic-66" d="M 2456 4622 
L 2228 4244 
Q 1991 4422 1741 4422 
Q 1184 4422 1184 3672 
L 1184 3250 
L 2053 3250 
L 2053 2859 
L 1184 2859 
L 1184 63 
L 641 63 
L 641 2859 
L 122 2859 
L 122 3250 
L 641 3250 
L 641 3659 
Q 641 4188 891 4484 
Q 1200 4844 1709 4844 
Q 2116 4844 2456 4622 
z
" transform="scale(0.015625)"/>
      </defs>
      <use xlink:href="#IPAexGothic-66"/>
      <use xlink:href="#IPAexGothic-65" x="30.615234"/>
      <use xlink:href="#IPAexGothic-61" x="87.5"/>
      <use xlink:href="#IPAexGothic-74" x="142.480469"/>
      <use xlink:href="#IPAexGothic-75" x="177.099609"/>
      <use xlink:href="#IPAexGothic-72" x="237.5"/>
      <use xlink:href="#IPAexGothic-65" x="274.511719"/>
     </g>
    </g>
   </g>
   <g id="patch_3">
    <path d="M 89.687813 26.6335 
L 260.835432 26.6335 
L 260.835432 62.1915 
L 89.687813 62.1915 
z
" clip-path="url(#pe580c33325)" style="fill: #5875a4; stroke: #ffffff; stroke-linejoin: miter"/>
   </g>
   <g id="patch_4">
    <path d="M 89.687813 71.081 
L 151.758399 71.081 
L 151.758399 106.639 
L 89.687813 106.639 
z
" clip-path="url(#pe580c33325)" style="fill: #cc8963; stroke: #ffffff; stroke-linejoin: miter"/>
   </g>
   <g id="patch_5">
    <path d="M 89.687813 115.5285 
L 144.191657 115.5285 
L 144.191657 151.0865 
L 89.687813 151.0865 
z
" clip-path="url(#pe580c33325)" style="fill: #5f9e6e; stroke: #ffffff; stroke-linejoin: miter"/>
   </g>
   <g id="patch_6">
    <path d="M 89.687813 159.976 
L 133.444839 159.976 
L 133.444839 195.534 
L 89.687813 195.534 
z
" clip-path="url(#pe580c33325)" style="fill: #b55d60; stroke: #ffffff; stroke-linejoin: miter"/>
   </g>
   <g id="patch_7">
    <path d="M 89.687813 204.4235 
L 117.989249 204.4235 
L 117.989249 239.9815 
L 89.687813 239.9815 
z
" clip-path="url(#pe580c33325)" style="fill: #857aab; stroke: #ffffff; stroke-linejoin: miter"/>
   </g>
   <g id="patch_8">
    <path d="M 89.687813 248.871 
L 109.021614 248.871 
L 109.021614 284.429 
L 89.687813 284.429 
z
" clip-path="url(#pe580c33325)" style="fill: #8d7866; stroke: #ffffff; stroke-linejoin: miter"/>
   </g>
   <g id="patch_9">
    <path d="M 89.687813 293.3185 
L 100.044607 293.3185 
L 100.044607 328.8765 
L 89.687813 328.8765 
z
" clip-path="url(#pe580c33325)" style="fill: #d095bf; stroke: #ffffff; stroke-linejoin: miter"/>
   </g>
   <g id="patch_10">
    <path d="M 89.687813 337.766 
L 97.460798 337.766 
L 97.460798 373.324 
L 89.687813 373.324 
z
" clip-path="url(#pe580c33325)" style="fill: #8c8c8c; stroke: #ffffff; stroke-linejoin: miter"/>
   </g>
   <g id="line2d_4">
    <path clip-path="url(#pe580c33325)" style="fill: none; stroke: #424242; stroke-width: 2.7; stroke-linecap: round"/>
   </g>
   <g id="line2d_5">
    <path clip-path="url(#pe580c33325)" style="fill: none; stroke: #424242; stroke-width: 2.7; stroke-linecap: round"/>
   </g>
   <g id="line2d_6">
    <path clip-path="url(#pe580c33325)" style="fill: none; stroke: #424242; stroke-width: 2.7; stroke-linecap: round"/>
   </g>
   <g id="line2d_7">
    <path clip-path="url(#pe580c33325)" style="fill: none; stroke: #424242; stroke-width: 2.7; stroke-linecap: round"/>
   </g>
   <g id="line2d_8">
    <path clip-path="url(#pe580c33325)" style="fill: none; stroke: #424242; stroke-width: 2.7; stroke-linecap: round"/>
   </g>
   <g id="line2d_9">
    <path clip-path="url(#pe580c33325)" style="fill: none; stroke: #424242; stroke-width: 2.7; stroke-linecap: round"/>
   </g>
   <g id="line2d_10">
    <path clip-path="url(#pe580c33325)" style="fill: none; stroke: #424242; stroke-width: 2.7; stroke-linecap: round"/>
   </g>
   <g id="line2d_11">
    <path clip-path="url(#pe580c33325)" style="fill: none; stroke: #424242; stroke-width: 2.7; stroke-linecap: round"/>
   </g>
   <g id="patch_11">
    <path d="M 89.687813 377.76875 
L 89.687813 22.18875 
" style="fill: none; stroke: #ffffff; stroke-width: 1.25; stroke-linejoin: miter; stroke-linecap: square"/>
   </g>
   <g id="patch_12">
    <path d="M 269.392812 377.76875 
L 269.392812 22.18875 
" style="fill: none; stroke: #ffffff; stroke-width: 1.25; stroke-linejoin: miter; stroke-linecap: square"/>
   </g>
   <g id="patch_13">
    <path d="M 89.687813 377.76875 
L 269.392812 377.76875 
" style="fill: none; stroke: #ffffff; stroke-width: 1.25; stroke-linejoin: miter; stroke-linecap: square"/>
   </g>
   <g id="patch_14">
    <path d="M 89.687813 22.18875 
L 269.392812 22.18875 
" style="fill: none; stroke: #ffffff; stroke-width: 1.25; stroke-linejoin: miter; stroke-linecap: square"/>
   </g>
   <g id="text_14">
    <!-- LGBM importance -->
    <g style="fill: #262626" transform="translate(128.784062 16.18875)scale(0.12 -0.12)">
     <defs>
      <path id="IPAexGothic-47" d="M 4403 781 
Q 4172 494 3731 250 
Q 3209 -31 2591 -31 
Q 1606 -31 988 628 
Q 378 1275 378 2325 
Q 378 3406 1013 4078 
Q 1619 4725 2534 4725 
Q 3800 4725 4325 3628 
L 3816 3391 
Q 3422 4238 2541 4238 
Q 1891 4238 1453 3744 
Q 994 3216 994 2328 
Q 994 1531 1397 1022 
Q 1844 459 2625 459 
Q 3459 459 3878 966 
L 3878 1856 
L 2859 1856 
L 2859 2291 
L 4403 2291 
L 4403 781 
z
" transform="scale(0.015625)"/>
      <path id="IPAexGothic-20" transform="scale(0.015625)"/>
     </defs>
     <use xlink:href="#IPAexGothic-4c"/>
     <use xlink:href="#IPAexGothic-47" x="52.587891"/>
     <use xlink:href="#IPAexGothic-42" x="127.880859"/>
     <use xlink:href="#IPAexGothic-4d" x="193.798828"/>
     <use xlink:href="#IPAexGothic-20" x="283.984375"/>
     <use xlink:href="#IPAexGothic-69" x="310.986328"/>
     <use xlink:href="#IPAexGothic-6d" x="337.988281"/>
     <use xlink:href="#IPAexGothic-70" x="425.097656"/>
     <use xlink:href="#IPAexGothic-6f" x="487.207031"/>
     <use xlink:href="#IPAexGothic-72" x="547.607422"/>
     <use xlink:href="#IPAexGothic-74" x="584.619141"/>
     <use xlink:href="#IPAexGothic-61" x="619.238281"/>
     <use xlink:href="#IPAexGothic-6e" x="674.21875"/>
     <use xlink:href="#IPAexGothic-63" x="734.619141"/>
     <use xlink:href="#IPAexGothic-65" x="789.013672"/>
    </g>
   </g>
  </g>
 </g>
 <defs>
  <clipPath id="pe580c33325">
   <rect x="89.687813" y="22.18875" width="179.705" height="355.58"/>
  </clipPath>
 </defs>
</svg>
