<?xml version="1.0" encoding="utf-8" standalone="no"?>
<!DOCTYPE svg PUBLIC "-//W3C//DTD SVG 1.1//EN"
  "http://www.w3.org/Graphics/SVG/1.1/DTD/svg11.dtd">
<svg xmlns:xlink="http://www.w3.org/1999/xlink" width="394.030655pt" height="294.993687pt" viewBox="0 0 394.030655 294.993687" xmlns="http://www.w3.org/2000/svg" version="1.1">
 <metadata>
  <rdf:RDF xmlns:dc="http://purl.org/dc/elements/1.1/" xmlns:cc="http://creativecommons.org/ns#" xmlns:rdf="http://www.w3.org/1999/02/22-rdf-syntax-ns#">
   <cc:Work>
    <dc:type rdf:resource="http://purl.org/dc/dcmitype/StillImage"/>
    <dc:date>2022-02-08T23:44:42.653451</dc:date>
    <dc:format>image/svg+xml</dc:format>
    <dc:creator>
     <cc:Agent>
      <dc:title>Matplotlib v3.5.1, https://matplotlib.org/</dc:title>
     </cc:Agent>
    </dc:creator>
   </cc:Work>
  </rdf:RDF>
 </metadata>
 <defs>
  <style type="text/css">*{stroke-linejoin: round; stroke-linecap: butt}</style>
 </defs>
 <g id="figure_1">
  <g id="patch_1">
   <path d="M 0 294.993687 
L 394.030655 294.993687 
L 394.030655 0 
L 0 0 
z
" style="fill: #ffffff"/>
  </g>
  <g id="axes_1">
   <g id="patch_2">
    <path d="M 48.731719 252.69525 
L 383.531719 252.69525 
L 383.531719 35.25525 
L 48.731719 35.25525 
z
" style="fill: #eaeaf2"/>
   </g>
   <g id="matplotlib.axis_1">
    <g id="xtick_1">
     <g id="line2d_1">
      <path d="M 63.949901 252.69525 
L 63.949901 35.25525 
" clip-path="url(#pdd7c73f7c7)" style="fill: none; stroke: #ffffff; stroke-linecap: round"/>
     </g>
     <g id="text_1">
      <!-- 0 -->
      <g style="fill: #262626" transform="translate(60.48576 270.434937)scale(0.11 -0.11)">
       <defs>
        <path id="IPAexGothic-30" d="M 2038 4725 
Q 2881 4725 3334 3944 
Q 3694 3325 3694 2344 
Q 3694 1372 3334 741 
Q 2888 -31 2016 -31 
Q 1147 -31 700 741 
Q 341 1372 341 2350 
Q 341 3713 1000 4334 
Q 1419 4725 2038 4725 
z
M 2016 4266 
Q 1516 4266 1228 3759 
Q 934 3247 934 2344 
Q 934 1456 1222 947 
Q 1513 447 2016 447 
Q 2619 447 2909 1153 
Q 3100 1622 3100 2375 
Q 3100 3256 2806 3759 
Q 2509 4266 2016 4266 
z
" transform="scale(0.015625)"/>
       </defs>
       <use xlink:href="#IPAexGothic-30"/>
      </g>
     </g>
    </g>
    <g id="xtick_2">
     <g id="line2d_2">
      <path d="M 126.447567 252.69525 
L 126.447567 35.25525 
" clip-path="url(#pdd7c73f7c7)" style="fill: none; stroke: #ffffff; stroke-linecap: round"/>
     </g>
     <g id="text_2">
      <!-- 100 -->
      <g style="fill: #262626" transform="translate(116.055145 270.434937)scale(0.11 -0.11)">
       <defs>
        <path id="IPAexGothic-31" d="M 2463 63 
L 1900 63 
L 1900 4103 
Q 1372 3922 788 3797 
L 684 4231 
Q 1519 4441 2106 4731 
L 2463 4731 
L 2463 63 
z
" transform="scale(0.015625)"/>
       </defs>
       <use xlink:href="#IPAexGothic-31"/>
       <use xlink:href="#IPAexGothic-30" x="62.988281"/>
       <use xlink:href="#IPAexGothic-30" x="125.976562"/>
      </g>
     </g>
    </g>
    <g id="xtick_3">
     <g id="line2d_3">
      <path d="M 188.945234 252.69525 
L 188.945234 35.25525 
" clip-path="url(#pdd7c73f7c7)" style="fill: none; stroke: #ffffff; stroke-linecap: round"/>
     </g>
     <g id="text_3">
      <!-- 200 -->
      <g style="fill: #262626" transform="translate(178.552812 270.434937)scale(0.11 -0.11)">
       <defs>
        <path id="IPAexGothic-32" d="M 3659 63 
L 447 63 
L 447 594 
Q 825 1475 1894 2203 
L 2072 2322 
Q 2619 2697 2791 2906 
Q 2988 3153 2988 3444 
Q 2988 3772 2756 4003 
Q 2500 4259 2084 4259 
Q 1250 4259 991 3328 
L 497 3506 
Q 853 4725 2116 4725 
Q 2806 4725 3216 4316 
Q 3575 3947 3575 3425 
Q 3575 3038 3344 2722 
Q 3131 2416 2366 1938 
L 2231 1856 
Q 1256 1253 978 569 
L 3659 569 
L 3659 63 
z
" transform="scale(0.015625)"/>
       </defs>
       <use xlink:href="#IPAexGothic-32"/>
       <use xlink:href="#IPAexGothic-30" x="62.988281"/>
       <use xlink:href="#IPAexGothic-30" x="125.976562"/>
      </g>
     </g>
    </g>
    <g id="xtick_4">
     <g id="line2d_4">
      <path d="M 251.4429 252.69525 
L 251.4429 35.25525 
" clip-path="url(#pdd7c73f7c7)" style="fill: none; stroke: #ffffff; stroke-linecap: round"/>
     </g>
     <g id="text_4">
      <!-- 300 -->
      <g style="fill: #262626" transform="translate(241.050479 270.434937)scale(0.11 -0.11)">
       <defs>
        <path id="IPAexGothic-33" d="M 2381 2419 
Q 3506 2216 3506 1278 
Q 3506 716 3128 356 
Q 2709 -31 1944 -31 
Q 797 -31 288 881 
L 756 1131 
Q 1109 441 1938 441 
Q 2425 441 2694 691 
Q 2950 928 2950 1291 
Q 2950 1719 2566 1978 
Q 2216 2213 1644 2213 
L 1363 2213 
L 1363 2669 
L 1656 2669 
Q 2231 2669 2534 2888 
Q 2859 3119 2859 3509 
Q 2859 3934 2494 4138 
Q 2259 4278 1931 4278 
Q 1238 4278 903 3578 
L 434 3803 
Q 897 4725 1938 4725 
Q 2597 4725 3006 4394 
Q 3416 4069 3416 3534 
Q 3416 3028 3019 2706 
Q 2763 2500 2381 2444 
L 2381 2419 
z
" transform="scale(0.015625)"/>
       </defs>
       <use xlink:href="#IPAexGothic-33"/>
       <use xlink:href="#IPAexGothic-30" x="62.988281"/>
       <use xlink:href="#IPAexGothic-30" x="125.976562"/>
      </g>
     </g>
    </g>
    <g id="xtick_5">
     <g id="line2d_5">
      <path d="M 313.940567 252.69525 
L 313.940567 35.25525 
" clip-path="url(#pdd7c73f7c7)" style="fill: none; stroke: #ffffff; stroke-linecap: round"/>
     </g>
     <g id="text_5">
      <!-- 400 -->
      <g style="fill: #262626" transform="translate(303.548145 270.434937)scale(0.11 -0.11)">
       <defs>
        <path id="IPAexGothic-34" d="M 3813 1159 
L 3059 1159 
L 3059 63 
L 2547 63 
L 2547 1159 
L 197 1159 
L 197 1672 
L 2456 4678 
L 3059 4678 
L 3059 1634 
L 3813 1634 
L 3813 1159 
z
M 2578 4109 
L 2559 4109 
Q 2278 3656 2003 3284 
L 759 1634 
L 2547 1634 
L 2547 3144 
Q 2547 3481 2578 4109 
z
" transform="scale(0.015625)"/>
       </defs>
       <use xlink:href="#IPAexGothic-34"/>
       <use xlink:href="#IPAexGothic-30" x="62.988281"/>
       <use xlink:href="#IPAexGothic-30" x="125.976562"/>
      </g>
     </g>
    </g>
    <g id="xtick_6">
     <g id="line2d_6">
      <path d="M 376.438234 252.69525 
L 376.438234 35.25525 
" clip-path="url(#pdd7c73f7c7)" style="fill: none; stroke: #ffffff; stroke-linecap: round"/>
     </g>
     <g id="text_6">
      <!-- 500 -->
      <g style="fill: #262626" transform="translate(366.045812 270.434937)scale(0.11 -0.11)">
       <defs>
        <path id="IPAexGothic-35" d="M 1178 2603 
Q 1634 2963 2172 2963 
Q 2816 2963 3241 2528 
Q 3638 2113 3638 1497 
Q 3638 938 3297 513 
Q 2869 -31 2031 -31 
Q 959 -31 469 784 
L 938 1028 
Q 1309 434 2013 434 
Q 2466 434 2769 716 
Q 3081 1013 3081 1503 
Q 3081 1966 2806 2241 
Q 2519 2528 2056 2528 
Q 1406 2528 1072 2028 
L 591 2091 
L 884 4634 
L 3406 4634 
L 3406 4153 
L 1341 4153 
L 1134 2603 
L 1178 2603 
z
" transform="scale(0.015625)"/>
       </defs>
       <use xlink:href="#IPAexGothic-35"/>
       <use xlink:href="#IPAexGothic-30" x="62.988281"/>
       <use xlink:href="#IPAexGothic-30" x="125.976562"/>
      </g>
     </g>
    </g>
    <g id="text_7">
     <!-- Iteration -->
     <g style="fill: #262626" transform="translate(192.440156 285.513687)scale(0.12 -0.12)">
      <defs>
       <path id="IPAexGothic-49" d="M 1203 63 
L 634 63 
L 634 4634 
L 1203 4634 
L 1203 63 
z
" transform="scale(0.015625)"/>
       <path id="IPAexGothic-74" d="M 2125 241 
Q 1769 -6 1397 -6 
Q 653 -6 653 831 
L 653 2859 
L 219 2859 
L 219 3250 
L 653 3250 
L 653 3966 
L 1178 4228 
L 1178 3250 
L 2063 3250 
L 2063 2859 
L 1178 2859 
L 1178 906 
Q 1178 416 1513 416 
Q 1738 416 1941 588 
L 2125 241 
z
" transform="scale(0.015625)"/>
       <path id="IPAexGothic-65" d="M 863 1594 
Q 891 1041 1209 722 
Q 1534 397 1997 397 
Q 2606 397 2963 966 
L 3322 728 
Q 2869 -31 1931 -31 
Q 1222 -31 766 422 
Q 306 884 306 1641 
Q 306 2444 788 2925 
Q 1216 3353 1856 3353 
Q 2459 3353 2866 2956 
Q 3322 2494 3322 1722 
L 3322 1594 
L 863 1594 
z
M 2756 1997 
Q 2709 2431 2450 2681 
Q 2194 2938 1844 2938 
Q 1438 2938 1150 2591 
Q 953 2356 894 1997 
L 2756 1997 
z
" transform="scale(0.015625)"/>
       <path id="IPAexGothic-72" d="M 2309 3316 
L 2213 2769 
Q 2106 2791 2022 2791 
Q 1653 2791 1413 2444 
Q 1113 2006 1113 1675 
L 1113 63 
L 563 63 
L 563 3250 
L 1081 3250 
L 1056 2303 
L 1069 2303 
Q 1422 3341 2097 3341 
Q 2206 3341 2309 3316 
z
" transform="scale(0.015625)"/>
       <path id="IPAexGothic-61" d="M 3156 63 
L 2672 63 
Q 2559 303 2531 556 
L 2509 556 
Q 2147 -25 1428 -25 
Q 934 -25 622 288 
Q 347 563 347 959 
Q 347 1947 2050 1997 
L 2478 2009 
L 2478 2175 
Q 2478 2509 2288 2700 
Q 2088 2900 1775 2900 
Q 1238 2900 969 2378 
L 494 2597 
Q 938 3328 1788 3328 
Q 2375 3328 2691 3000 
Q 2984 2706 2984 2169 
L 2984 997 
Q 2984 400 3156 63 
z
M 2491 1625 
L 2141 1619 
Q 903 1591 903 953 
Q 903 728 1050 581 
Q 1231 403 1525 403 
Q 1934 403 2234 703 
Q 2491 969 2491 1344 
L 2491 1625 
z
" transform="scale(0.015625)"/>
       <path id="IPAexGothic-69" d="M 1178 3928 
L 550 3928 
L 550 4569 
L 1178 4569 
L 1178 3928 
z
M 1138 63 
L 588 63 
L 588 3250 
L 1138 3250 
L 1138 63 
z
" transform="scale(0.015625)"/>
       <path id="IPAexGothic-6f" d="M 1919 3341 
Q 2594 3341 3056 2888 
Q 3531 2413 3531 1638 
Q 3531 888 3066 422 
Q 2609 -31 1919 -31 
Q 1228 -31 781 416 
Q 313 881 313 1656 
Q 313 2413 788 2888 
Q 1241 3341 1919 3341 
z
M 1919 2919 
Q 1519 2919 1241 2631 
Q 888 2278 888 1650 
Q 888 1031 1234 684 
Q 1516 403 1919 403 
Q 2331 403 2609 691 
Q 2956 1038 2956 1672 
Q 2956 2269 2603 2631 
Q 2316 2919 1919 2919 
z
" transform="scale(0.015625)"/>
       <path id="IPAexGothic-6e" d="M 3328 63 
L 2778 63 
L 2778 2041 
Q 2778 2853 2106 2853 
Q 1428 2853 1113 2041 
L 1113 63 
L 563 63 
L 563 3250 
L 1075 3250 
L 1075 2675 
Q 1525 3316 2222 3316 
Q 3328 3316 3328 2072 
L 3328 63 
z
" transform="scale(0.015625)"/>
      </defs>
      <use xlink:href="#IPAexGothic-49"/>
      <use xlink:href="#IPAexGothic-74" x="28.90625"/>
      <use xlink:href="#IPAexGothic-65" x="63.525391"/>
      <use xlink:href="#IPAexGothic-72" x="120.410156"/>
      <use xlink:href="#IPAexGothic-61" x="157.421875"/>
      <use xlink:href="#IPAexGothic-74" x="212.402344"/>
      <use xlink:href="#IPAexGothic-69" x="247.021484"/>
      <use xlink:href="#IPAexGothic-6f" x="274.023438"/>
      <use xlink:href="#IPAexGothic-6e" x="334.423828"/>
     </g>
    </g>
   </g>
   <g id="matplotlib.axis_2">
    <g id="ytick_1">
     <g id="line2d_7">
      <path d="M 48.731719 248.589554 
L 383.531719 248.589554 
" clip-path="url(#pdd7c73f7c7)" style="fill: none; stroke: #ffffff; stroke-linecap: round"/>
     </g>
     <g id="text_8">
      <!-- 0.2 -->
      <g style="fill: #262626" transform="translate(22.46875 252.709398)scale(0.11 -0.11)">
       <defs>
        <path id="IPAexGothic-2e" d="M 1184 63 
L 494 63 
L 494 753 
L 1184 753 
L 1184 63 
z
" transform="scale(0.015625)"/>
       </defs>
       <use xlink:href="#IPAexGothic-30"/>
       <use xlink:href="#IPAexGothic-2e" x="62.988281"/>
       <use xlink:href="#IPAexGothic-32" x="89.404297"/>
      </g>
     </g>
    </g>
    <g id="ytick_2">
     <g id="line2d_8">
      <path d="M 48.731719 204.096565 
L 383.531719 204.096565 
" clip-path="url(#pdd7c73f7c7)" style="fill: none; stroke: #ffffff; stroke-linecap: round"/>
     </g>
     <g id="text_9">
      <!-- 0.4 -->
      <g style="fill: #262626" transform="translate(22.46875 208.216409)scale(0.11 -0.11)">
       <use xlink:href="#IPAexGothic-30"/>
       <use xlink:href="#IPAexGothic-2e" x="62.988281"/>
       <use xlink:href="#IPAexGothic-34" x="89.404297"/>
      </g>
     </g>
    </g>
    <g id="ytick_3">
     <g id="line2d_9">
      <path d="M 48.731719 159.603576 
L 383.531719 159.603576 
" clip-path="url(#pdd7c73f7c7)" style="fill: none; stroke: #ffffff; stroke-linecap: round"/>
     </g>
     <g id="text_10">
      <!-- 0.6 -->
      <g style="fill: #262626" transform="translate(22.46875 163.72342)scale(0.11 -0.11)">
       <defs>
        <path id="IPAexGothic-36" d="M 1056 2328 
Q 1509 2981 2234 2981 
Q 2906 2981 3316 2513 
Q 3675 2106 3675 1522 
Q 3675 884 3272 434 
Q 2853 -31 2178 -31 
Q 1375 -31 922 581 
Q 481 1178 481 2228 
Q 481 3425 1013 4109 
Q 1494 4725 2272 4725 
Q 3191 4725 3609 4025 
L 3150 3775 
Q 2894 4266 2300 4266 
Q 1119 4266 1031 2328 
L 1056 2328 
z
M 2141 2547 
Q 1684 2547 1384 2206 
Q 1116 1900 1116 1541 
Q 1116 1156 1353 844 
Q 1672 428 2159 428 
Q 2669 428 2941 844 
Q 3125 1128 3125 1503 
Q 3125 1944 2881 2228 
Q 2600 2547 2141 2547 
z
" transform="scale(0.015625)"/>
       </defs>
       <use xlink:href="#IPAexGothic-30"/>
       <use xlink:href="#IPAexGothic-2e" x="62.988281"/>
       <use xlink:href="#IPAexGothic-36" x="89.404297"/>
      </g>
     </g>
    </g>
    <g id="ytick_4">
     <g id="line2d_10">
      <path d="M 48.731719 115.110587 
L 383.531719 115.110587 
" clip-path="url(#pdd7c73f7c7)" style="fill: none; stroke: #ffffff; stroke-linecap: round"/>
     </g>
     <g id="text_11">
      <!-- 0.8 -->
      <g style="fill: #262626" transform="translate(22.46875 119.230431)scale(0.11 -0.11)">
       <defs>
        <path id="IPAexGothic-38" d="M 2541 2425 
Q 3700 2031 3700 1197 
Q 3700 541 3100 197 
Q 2663 -56 2016 -56 
Q 1366 -56 928 197 
Q 347 531 347 1178 
Q 347 1988 1409 2381 
L 1409 2400 
Q 481 2734 481 3509 
Q 481 4100 981 4456 
Q 1406 4756 2019 4756 
Q 2703 4756 3131 4403 
Q 3553 4069 3553 3566 
Q 3553 2706 2541 2444 
L 2541 2425 
z
M 2022 2625 
Q 2997 2856 2997 3528 
Q 2997 3916 2675 4150 
Q 2413 4347 2016 4347 
Q 1606 4347 1331 4128 
Q 1050 3897 1050 3522 
Q 1050 3150 1350 2925 
Q 1494 2809 1722 2722 
Q 1984 2616 2022 2625 
z
M 1978 2209 
Q 922 1931 922 1216 
Q 922 775 1313 556 
Q 1606 391 2009 391 
Q 2575 391 2881 697 
Q 3106 922 3106 1250 
Q 3106 1594 2794 1850 
Q 2609 1994 2350 2100 
Q 2047 2222 1978 2209 
z
" transform="scale(0.015625)"/>
       </defs>
       <use xlink:href="#IPAexGothic-30"/>
       <use xlink:href="#IPAexGothic-2e" x="62.988281"/>
       <use xlink:href="#IPAexGothic-38" x="89.404297"/>
      </g>
     </g>
    </g>
    <g id="ytick_5">
     <g id="line2d_11">
      <path d="M 48.731719 70.617598 
L 383.531719 70.617598 
" clip-path="url(#pdd7c73f7c7)" style="fill: none; stroke: #ffffff; stroke-linecap: round"/>
     </g>
     <g id="text_12">
      <!-- 1.0 -->
      <g style="fill: #262626" transform="translate(22.46875 74.737442)scale(0.11 -0.11)">
       <use xlink:href="#IPAexGothic-31"/>
       <use xlink:href="#IPAexGothic-2e" x="62.988281"/>
       <use xlink:href="#IPAexGothic-30" x="89.404297"/>
      </g>
     </g>
    </g>
    <g id="text_13">
     <!-- rmse -->
     <g style="fill: #262626" transform="translate(16.18875 157.607437)rotate(-90)scale(0.12 -0.12)">
      <defs>
       <path id="IPAexGothic-6d" d="M 5022 63 
L 4472 63 
L 4472 2059 
Q 4472 2869 3847 2869 
Q 3550 2869 3303 2594 
Q 3128 2397 3059 2103 
L 3059 63 
L 2509 63 
L 2509 2066 
Q 2509 2869 1919 2869 
Q 1606 2869 1369 2594 
Q 1113 2306 1113 2041 
L 1113 63 
L 563 63 
L 563 3250 
L 1075 3250 
L 1075 2700 
Q 1391 3316 2028 3316 
Q 2725 3316 2956 2647 
Q 3303 3316 3953 3316 
Q 4478 3316 4772 2944 
Q 5022 2638 5022 2072 
L 5022 63 
z
" transform="scale(0.015625)"/>
       <path id="IPAexGothic-73" d="M 2234 2547 
Q 1938 2931 1484 2931 
Q 891 2931 891 2475 
Q 891 2153 1531 1944 
L 1741 1875 
Q 2650 1578 2650 894 
Q 2650 434 2272 172 
Q 1972 -31 1497 -31 
Q 766 -31 256 503 
L 603 819 
Q 997 397 1516 397 
Q 2131 397 2131 875 
Q 2131 1238 1453 1478 
L 1234 1553 
Q 378 1853 378 2431 
Q 378 2797 628 3047 
Q 928 3347 1453 3347 
Q 2156 3347 2606 2859 
L 2234 2547 
z
" transform="scale(0.015625)"/>
      </defs>
      <use xlink:href="#IPAexGothic-72"/>
      <use xlink:href="#IPAexGothic-6d" x="37.011719"/>
      <use xlink:href="#IPAexGothic-73" x="124.121094"/>
      <use xlink:href="#IPAexGothic-65" x="170.3125"/>
     </g>
    </g>
   </g>
   <g id="line2d_12">
    <path d="M 63.949901 48.233753 
L 65.824831 81.149578 
L 66.449807 90.341481 
L 69.574691 126.078516 
L 70.824644 137.138201 
L 72.699574 149.761707 
L 73.324551 153.182136 
L 73.949527 157.225156 
L 74.574504 159.98155 
L 75.824457 166.877624 
L 77.699387 174.2167 
L 78.324364 175.981022 
L 79.574317 180.067104 
L 80.199294 182.062654 
L 80.824271 183.29347 
L 82.699201 187.71696 
L 83.324177 189.133736 
L 83.949154 189.951405 
L 85.199107 192.013794 
L 87.074037 193.973787 
L 87.699014 195.209238 
L 90.198921 197.974258 
L 90.823897 198.756827 
L 91.448874 199.214402 
L 92.073851 200.018048 
L 93.323804 201.021136 
L 95.198734 201.9247 
L 95.823711 202.572264 
L 96.448687 202.893337 
L 97.073664 203.053719 
L 97.698641 203.701773 
L 98.323617 203.878954 
L 98.948594 204.459682 
L 99.573571 204.690467 
L 100.198547 205.288812 
L 100.823524 205.549265 
L 101.448501 206.084628 
L 102.073477 206.383273 
L 105.198361 208.624419 
L 107.073291 209.435329 
L 108.323244 209.775242 
L 108.948221 210.085421 
L 112.073104 211.031618 
L 114.573011 211.883332 
L 115.197987 212.050641 
L 115.822964 212.379879 
L 116.447941 212.447415 
L 122.072731 214.242843 
L 124.572637 214.850158 
L 125.822591 215.136233 
L 127.072544 215.351641 
L 128.322497 215.589338 
L 128.947474 215.770336 
L 130.197427 215.96599 
L 132.072357 216.451217 
L 135.822217 217.037689 
L 137.07217 217.51522 
L 139.572077 218.10309 
L 143.321937 218.845904 
L 144.57189 219.151467 
L 148.32175 219.849193 
L 149.571704 220.069424 
L 158.321377 221.7599 
L 160.821284 222.161258 
L 164.571144 222.851399 
L 169.570957 223.558478 
L 172.070864 224.017112 
L 176.4457 224.511451 
L 177.695654 224.676752 
L 182.07049 225.291335 
L 183.94542 225.464432 
L 188.945234 226.242946 
L 200.194814 227.63478 
L 201.444767 227.792766 
L 203.319697 227.951143 
L 218.944114 229.849248 
L 220.819044 230.094454 
L 233.318577 231.393708 
L 237.068437 231.831755 
L 242.06825 232.35907 
L 249.56797 233.124444 
L 251.4429 233.334413 
L 254.567784 233.578372 
L 258.94262 233.954911 
L 260.192574 234.079142 
L 261.442527 234.256226 
L 264.56741 234.49946 
L 267.067317 234.692024 
L 270.817177 235.162497 
L 273.317084 235.465356 
L 277.69192 235.744707 
L 290.191454 236.820519 
L 292.69136 237.103516 
L 298.941127 237.567647 
L 307.6908 238.395194 
L 313.31559 238.793911 
L 315.815497 238.986785 
L 320.81531 239.363829 
L 323.315217 239.604342 
L 332.06489 240.156599 
L 334.564797 240.392175 
L 340.189587 240.858064 
L 343.31447 241.032525 
L 346.439354 241.270274 
L 348.93926 241.508554 
L 357.688934 242.094479 
L 360.18884 242.26654 
L 368.313537 242.811614 
L 368.313537 242.811614 
" clip-path="url(#pdd7c73f7c7)" style="fill: none; stroke: #4c72b0; stroke-width: 1.5; stroke-linecap: round"/>
   </g>
   <g id="line2d_13">
    <path d="M 63.949901 45.138886 
L 65.824831 77.036735 
L 66.449807 85.863621 
L 67.074784 92.625519 
L 67.699761 100.796178 
L 69.574691 119.582003 
L 70.824644 129.958343 
L 72.699574 141.33162 
L 73.324551 144.242228 
L 73.949527 148.092667 
L 74.574504 150.491366 
L 75.824457 156.950515 
L 77.699387 163.316051 
L 78.324364 164.716884 
L 79.574317 168.265144 
L 80.199294 170.02883 
L 80.824271 170.947019 
L 82.074224 173.659384 
L 82.699201 174.694119 
L 83.324177 175.945488 
L 83.949154 176.488973 
L 85.199107 177.97394 
L 87.074037 179.111176 
L 87.699014 180.224726 
L 88.323991 180.721476 
L 88.948967 180.92259 
L 90.823897 182.640143 
L 91.448874 182.956866 
L 92.073851 183.536031 
L 93.323804 184.267175 
L 94.573757 184.401753 
L 95.198734 184.479396 
L 95.823711 184.949971 
L 97.073664 185.090203 
L 97.698641 185.583109 
L 98.323617 185.626063 
L 98.948594 186.017984 
L 99.573571 186.062809 
L 100.198547 186.513213 
L 100.823524 186.616903 
L 101.448501 186.981243 
L 102.073477 187.066314 
L 103.948407 187.967853 
L 107.073291 189.023264 
L 108.323244 189.061674 
L 108.948221 189.260876 
L 110.823151 189.28894 
L 111.448127 189.475257 
L 114.573011 189.667287 
L 115.197987 189.663279 
L 115.822964 189.891111 
L 117.072917 189.876937 
L 117.697894 190.088552 
L 120.197801 190.374115 
L 121.447754 190.362779 
L 122.072731 190.490451 
L 123.322684 190.583352 
L 124.572637 190.740598 
L 126.447567 190.733974 
L 127.697521 190.797781 
L 133.947287 190.93384 
L 136.447194 191.150692 
L 137.697147 191.35405 
L 139.572077 191.415381 
L 143.321937 191.61763 
L 145.196867 191.785147 
L 147.696774 191.820718 
L 150.19668 191.849994 
L 166.446074 192.331272 
L 175.820724 192.437334 
L 183.320444 192.589248 
L 189.57021 192.683087 
L 202.069744 192.814302 
L 205.819604 192.853986 
L 209.569464 192.893257 
L 213.9443 192.907906 
L 217.069184 192.977188 
L 231.443647 193.190358 
L 238.31839 193.228697 
L 244.568157 193.26628 
L 262.067504 193.289411 
L 275.192014 193.336986 
L 278.941874 193.305278 
L 285.19164 193.355776 
L 334.564797 193.294613 
L 340.814564 193.311642 
L 345.1894 193.325085 
L 350.189214 193.312464 
L 353.939074 193.332508 
L 368.313537 193.288409 
L 368.313537 193.288409 
" clip-path="url(#pdd7c73f7c7)" style="fill: none; stroke: #dd8452; stroke-width: 1.5; stroke-linecap: round"/>
   </g>
   <g id="patch_3">
    <path d="M 48.731719 252.69525 
L 48.731719 35.25525 
" style="fill: none; stroke: #ffffff; stroke-width: 1.25; stroke-linejoin: miter; stroke-linecap: square"/>
   </g>
   <g id="patch_4">
    <path d="M 383.531719 252.69525 
L 383.531719 35.25525 
" style="fill: none; stroke: #ffffff; stroke-width: 1.25; stroke-linejoin: miter; stroke-linecap: square"/>
   </g>
   <g id="patch_5">
    <path d="M 48.731719 252.69525 
L 383.531719 252.69525 
" style="fill: none; stroke: #ffffff; stroke-width: 1.25; stroke-linejoin: miter; stroke-linecap: square"/>
   </g>
   <g id="patch_6">
    <path d="M 48.731719 35.25525 
L 383.531719 35.25525 
" style="fill: none; stroke: #ffffff; stroke-width: 1.25; stroke-linejoin: miter; stroke-linecap: square"/>
   </g>
   <g id="text_14">
    <!-- kFold : 3  -->
    <g style="fill: #262626" transform="translate(190.045781 16.18875)scale(0.12 -0.12)">
     <defs>
      <path id="IPAexGothic-6b" d="M 3244 63 
L 2578 63 
L 1484 1613 
L 1119 1259 
L 1119 63 
L 581 63 
L 581 4794 
L 1119 4794 
L 1119 1766 
L 2463 3250 
L 3153 3250 
L 1828 1925 
L 3244 63 
z
" transform="scale(0.015625)"/>
      <path id="IPAexGothic-46" d="M 3469 4141 
L 1172 4141 
L 1172 2656 
L 3206 2656 
L 3206 2188 
L 1172 2188 
L 1172 63 
L 609 63 
L 609 4634 
L 3469 4634 
L 3469 4141 
z
" transform="scale(0.015625)"/>
      <path id="IPAexGothic-6c" d="M 1131 63 
L 581 63 
L 581 4794 
L 1131 4794 
L 1131 63 
z
" transform="scale(0.015625)"/>
      <path id="IPAexGothic-64" d="M 3391 63 
L 2891 63 
L 2891 619 
Q 2441 -31 1753 -31 
Q 1181 -31 788 372 
Q 313 844 313 1663 
Q 313 2466 772 2938 
Q 1169 3341 1753 3341 
Q 2384 3341 2847 2809 
L 2847 4794 
L 3391 4794 
L 3391 63 
z
M 2847 1303 
L 2847 2097 
Q 2847 2413 2456 2706 
Q 2181 2906 1853 2906 
Q 1484 2906 1228 2650 
Q 888 2309 888 1678 
Q 888 1109 1169 750 
Q 1441 409 1847 409 
Q 2322 409 2656 875 
Q 2847 1134 2847 1303 
z
" transform="scale(0.015625)"/>
      <path id="IPAexGothic-20" transform="scale(0.015625)"/>
      <path id="IPAexGothic-3a" d="M 1369 2559 
L 672 2559 
L 672 3250 
L 1369 3250 
L 1369 2559 
z
M 1369 63 
L 672 63 
L 672 753 
L 1369 753 
L 1369 63 
z
" transform="scale(0.015625)"/>
     </defs>
     <use xlink:href="#IPAexGothic-6b"/>
     <use xlink:href="#IPAexGothic-46" x="51.806641"/>
     <use xlink:href="#IPAexGothic-6f" x="108.984375"/>
     <use xlink:href="#IPAexGothic-6c" x="169.384766"/>
     <use xlink:href="#IPAexGothic-64" x="196.386719"/>
     <use xlink:href="#IPAexGothic-20" x="258.789062"/>
     <use xlink:href="#IPAexGothic-3a" x="285.791016"/>
     <use xlink:href="#IPAexGothic-20" x="317.773438"/>
     <use xlink:href="#IPAexGothic-33" x="344.775391"/>
     <use xlink:href="#IPAexGothic-20" x="407.763672"/>
    </g>
    <!--  RMSE -->
    <g style="fill: #262626" transform="translate(198.131719 29.25525)scale(0.12 -0.12)">
     <defs>
      <path id="IPAexGothic-52" d="M 4072 63 
L 3394 63 
Q 3138 641 2828 1197 
Q 2584 1641 2344 1825 
Q 2050 2044 1625 2044 
L 1172 2044 
L 1172 63 
L 609 63 
L 609 4634 
L 2009 4634 
Q 2713 4634 3131 4378 
Q 3688 4044 3688 3381 
Q 3688 2784 3181 2459 
Q 2906 2272 2522 2216 
L 2522 2197 
Q 2941 2050 3247 1581 
Q 3516 1166 4072 63 
z
M 1172 2478 
L 1869 2478 
Q 3106 2478 3106 3369 
Q 3106 4181 1928 4181 
L 1172 4181 
L 1172 2478 
z
" transform="scale(0.015625)"/>
      <path id="IPAexGothic-4d" d="M 5147 63 
L 4597 63 
L 4597 2534 
Q 4597 3281 4634 4134 
L 4609 4134 
Q 4356 3409 4066 2675 
L 3066 209 
L 2650 209 
L 1641 2725 
Q 1328 3506 1128 4141 
L 1103 4141 
Q 1141 3131 1141 2553 
L 1141 63 
L 609 63 
L 609 4634 
L 1416 4634 
L 2503 1944 
Q 2697 1472 2869 906 
L 2888 906 
Q 3028 1416 3234 1931 
L 4316 4634 
L 5147 4634 
L 5147 63 
z
" transform="scale(0.015625)"/>
      <path id="IPAexGothic-53" d="M 2919 3641 
Q 2563 4259 1853 4259 
Q 1453 4259 1213 4009 
Q 1028 3803 1028 3534 
Q 1028 3238 1266 3047 
Q 1444 2913 1984 2688 
L 2200 2597 
Q 2925 2306 3191 1953 
Q 3422 1644 3422 1259 
Q 3422 644 2969 288 
Q 2559 -31 1931 -31 
Q 881 -31 313 766 
L 753 1100 
Q 1203 459 1938 459 
Q 2288 459 2534 625 
Q 2841 847 2841 1216 
Q 2841 1503 2616 1728 
Q 2375 1959 1728 2206 
L 1541 2278 
Q 453 2694 453 3481 
Q 453 4006 806 4347 
Q 1203 4725 1863 4725 
Q 2841 4725 3359 3956 
L 2919 3641 
z
" transform="scale(0.015625)"/>
      <path id="IPAexGothic-45" d="M 3547 63 
L 609 63 
L 609 4634 
L 3469 4634 
L 3469 4147 
L 1166 4147 
L 1166 2650 
L 3206 2650 
L 3206 2191 
L 1166 2191 
L 1166 556 
L 3547 556 
L 3547 63 
z
" transform="scale(0.015625)"/>
     </defs>
     <use xlink:href="#IPAexGothic-20"/>
     <use xlink:href="#IPAexGothic-52" x="27.001953"/>
     <use xlink:href="#IPAexGothic-4d" x="91.796875"/>
     <use xlink:href="#IPAexGothic-53" x="181.982422"/>
     <use xlink:href="#IPAexGothic-45" x="240.478516"/>
    </g>
   </g>
   <g id="legend_1">
    <g id="patch_7">
     <path d="M 293.689219 75.714625 
L 375.831719 75.714625 
Q 378.031719 75.714625 378.031719 73.514625 
L 378.031719 42.95525 
Q 378.031719 40.75525 375.831719 40.75525 
L 293.689219 40.75525 
Q 291.489219 40.75525 291.489219 42.95525 
L 291.489219 73.514625 
Q 291.489219 75.714625 293.689219 75.714625 
z
" style="fill: #eaeaf2; opacity: 0.8; stroke: #cccccc; stroke-linejoin: miter"/>
    </g>
    <g id="line2d_14">
     <path d="M 295.889219 49.544937 
L 306.889219 49.544937 
L 317.889219 49.544937 
" style="fill: none; stroke: #4c72b0; stroke-width: 1.5; stroke-linecap: round"/>
    </g>
    <g id="text_15">
     <!-- train loss -->
     <g style="fill: #262626" transform="translate(326.689219 53.394937)scale(0.11 -0.11)">
      <use xlink:href="#IPAexGothic-74"/>
      <use xlink:href="#IPAexGothic-72" x="34.619141"/>
      <use xlink:href="#IPAexGothic-61" x="71.630859"/>
      <use xlink:href="#IPAexGothic-69" x="126.611328"/>
      <use xlink:href="#IPAexGothic-6e" x="153.613281"/>
      <use xlink:href="#IPAexGothic-20" x="214.013672"/>
      <use xlink:href="#IPAexGothic-6c" x="241.015625"/>
      <use xlink:href="#IPAexGothic-6f" x="268.017578"/>
      <use xlink:href="#IPAexGothic-73" x="328.417969"/>
      <use xlink:href="#IPAexGothic-73" x="374.609375"/>
     </g>
    </g>
    <g id="line2d_15">
     <path d="M 295.889219 65.374625 
L 306.889219 65.374625 
L 317.889219 65.374625 
" style="fill: none; stroke: #dd8452; stroke-width: 1.5; stroke-linecap: round"/>
    </g>
    <g id="text_16">
     <!-- valid loss -->
     <g style="fill: #262626" transform="translate(326.689219 69.224625)scale(0.11 -0.11)">
      <defs>
       <path id="IPAexGothic-76" d="M 3103 3250 
L 1747 6 
L 1375 6 
L 25 3250 
L 628 3250 
L 1338 1388 
L 1522 844 
L 1569 703 
L 1588 703 
Q 1641 884 1822 1388 
L 2516 3250 
L 3103 3250 
z
" transform="scale(0.015625)"/>
      </defs>
      <use xlink:href="#IPAexGothic-76"/>
      <use xlink:href="#IPAexGothic-61" x="48.583984"/>
      <use xlink:href="#IPAexGothic-6c" x="103.564453"/>
      <use xlink:href="#IPAexGothic-69" x="130.566406"/>
      <use xlink:href="#IPAexGothic-64" x="157.568359"/>
      <use xlink:href="#IPAexGothic-20" x="219.970703"/>
      <use xlink:href="#IPAexGothic-6c" x="246.972656"/>
      <use xlink:href="#IPAexGothic-6f" x="273.974609"/>
      <use xlink:href="#IPAexGothic-73" x="334.375"/>
      <use xlink:href="#IPAexGothic-73" x="380.566406"/>
     </g>
    </g>
   </g>
  </g>
 </g>
 <defs>
  <clipPath id="pdd7c73f7c7">
   <rect x="48.731719" y="35.25525" width="334.8" height="217.44"/>
  </clipPath>
 </defs>
</svg>
