<?xml version="1.0" encoding="utf-8" standalone="no"?>
<!DOCTYPE svg PUBLIC "-//W3C//DTD SVG 1.1//EN"
  "http://www.w3.org/Graphics/SVG/1.1/DTD/svg11.dtd">
<svg xmlns:xlink="http://www.w3.org/1999/xlink" width="394.030655pt" height="266.938437pt" viewBox="0 0 394.030655 266.938437" xmlns="http://www.w3.org/2000/svg" version="1.1">
 <metadata>
  <rdf:RDF xmlns:dc="http://purl.org/dc/elements/1.1/" xmlns:cc="http://creativecommons.org/ns#" xmlns:rdf="http://www.w3.org/1999/02/22-rdf-syntax-ns#">
   <cc:Work>
    <dc:type rdf:resource="http://purl.org/dc/dcmitype/StillImage"/>
    <dc:date>2022-02-08T00:50:53.477795</dc:date>
    <dc:format>image/svg+xml</dc:format>
    <dc:creator>
     <cc:Agent>
      <dc:title>Matplotlib v3.5.1, https://matplotlib.org/</dc:title>
     </cc:Agent>
    </dc:creator>
   </cc:Work>
  </rdf:RDF>
 </metadata>
 <defs>
  <style type="text/css">*{stroke-linejoin: round; stroke-linecap: butt}</style>
 </defs>
 <g id="figure_1">
  <g id="patch_1">
   <path d="M 0 266.938437 
L 394.030655 266.938437 
L 394.030655 0 
L 0 0 
z
" style="fill: #ffffff"/>
  </g>
  <g id="axes_1">
   <g id="patch_2">
    <path d="M 48.731719 224.64 
L 383.531719 224.64 
L 383.531719 7.2 
L 48.731719 7.2 
z
" style="fill: #eaeaf2"/>
   </g>
   <g id="matplotlib.axis_1">
    <g id="xtick_1">
     <g id="line2d_1">
      <path d="M 63.949901 224.64 
L 63.949901 7.2 
" clip-path="url(#p9bb6e300ad)" style="fill: none; stroke: #ffffff; stroke-linecap: round"/>
     </g>
     <g id="text_1">
      <!-- 0 -->
      <g style="fill: #262626" transform="translate(60.48576 242.379687)scale(0.11 -0.11)">
       <defs>
        <path id="IPAexGothic-30" d="M 2038 4725 
Q 2881 4725 3334 3944 
Q 3694 3325 3694 2344 
Q 3694 1372 3334 741 
Q 2888 -31 2016 -31 
Q 1147 -31 700 741 
Q 341 1372 341 2350 
Q 341 3713 1000 4334 
Q 1419 4725 2038 4725 
z
M 2016 4266 
Q 1516 4266 1228 3759 
Q 934 3247 934 2344 
Q 934 1456 1222 947 
Q 1513 447 2016 447 
Q 2619 447 2909 1153 
Q 3100 1622 3100 2375 
Q 3100 3256 2806 3759 
Q 2509 4266 2016 4266 
z
" transform="scale(0.015625)"/>
       </defs>
       <use xlink:href="#IPAexGothic-30"/>
      </g>
     </g>
    </g>
    <g id="xtick_2">
     <g id="line2d_2">
      <path d="M 126.447567 224.64 
L 126.447567 7.2 
" clip-path="url(#p9bb6e300ad)" style="fill: none; stroke: #ffffff; stroke-linecap: round"/>
     </g>
     <g id="text_2">
      <!-- 100 -->
      <g style="fill: #262626" transform="translate(116.055145 242.379687)scale(0.11 -0.11)">
       <defs>
        <path id="IPAexGothic-31" d="M 2463 63 
L 1900 63 
L 1900 4103 
Q 1372 3922 788 3797 
L 684 4231 
Q 1519 4441 2106 4731 
L 2463 4731 
L 2463 63 
z
" transform="scale(0.015625)"/>
       </defs>
       <use xlink:href="#IPAexGothic-31"/>
       <use xlink:href="#IPAexGothic-30" x="62.988281"/>
       <use xlink:href="#IPAexGothic-30" x="125.976562"/>
      </g>
     </g>
    </g>
    <g id="xtick_3">
     <g id="line2d_3">
      <path d="M 188.945234 224.64 
L 188.945234 7.2 
" clip-path="url(#p9bb6e300ad)" style="fill: none; stroke: #ffffff; stroke-linecap: round"/>
     </g>
     <g id="text_3">
      <!-- 200 -->
      <g style="fill: #262626" transform="translate(178.552812 242.379687)scale(0.11 -0.11)">
       <defs>
        <path id="IPAexGothic-32" d="M 3659 63 
L 447 63 
L 447 594 
Q 825 1475 1894 2203 
L 2072 2322 
Q 2619 2697 2791 2906 
Q 2988 3153 2988 3444 
Q 2988 3772 2756 4003 
Q 2500 4259 2084 4259 
Q 1250 4259 991 3328 
L 497 3506 
Q 853 4725 2116 4725 
Q 2806 4725 3216 4316 
Q 3575 3947 3575 3425 
Q 3575 3038 3344 2722 
Q 3131 2416 2366 1938 
L 2231 1856 
Q 1256 1253 978 569 
L 3659 569 
L 3659 63 
z
" transform="scale(0.015625)"/>
       </defs>
       <use xlink:href="#IPAexGothic-32"/>
       <use xlink:href="#IPAexGothic-30" x="62.988281"/>
       <use xlink:href="#IPAexGothic-30" x="125.976562"/>
      </g>
     </g>
    </g>
    <g id="xtick_4">
     <g id="line2d_4">
      <path d="M 251.4429 224.64 
L 251.4429 7.2 
" clip-path="url(#p9bb6e300ad)" style="fill: none; stroke: #ffffff; stroke-linecap: round"/>
     </g>
     <g id="text_4">
      <!-- 300 -->
      <g style="fill: #262626" transform="translate(241.050479 242.379687)scale(0.11 -0.11)">
       <defs>
        <path id="IPAexGothic-33" d="M 2381 2419 
Q 3506 2216 3506 1278 
Q 3506 716 3128 356 
Q 2709 -31 1944 -31 
Q 797 -31 288 881 
L 756 1131 
Q 1109 441 1938 441 
Q 2425 441 2694 691 
Q 2950 928 2950 1291 
Q 2950 1719 2566 1978 
Q 2216 2213 1644 2213 
L 1363 2213 
L 1363 2669 
L 1656 2669 
Q 2231 2669 2534 2888 
Q 2859 3119 2859 3509 
Q 2859 3934 2494 4138 
Q 2259 4278 1931 4278 
Q 1238 4278 903 3578 
L 434 3803 
Q 897 4725 1938 4725 
Q 2597 4725 3006 4394 
Q 3416 4069 3416 3534 
Q 3416 3028 3019 2706 
Q 2763 2500 2381 2444 
L 2381 2419 
z
" transform="scale(0.015625)"/>
       </defs>
       <use xlink:href="#IPAexGothic-33"/>
       <use xlink:href="#IPAexGothic-30" x="62.988281"/>
       <use xlink:href="#IPAexGothic-30" x="125.976562"/>
      </g>
     </g>
    </g>
    <g id="xtick_5">
     <g id="line2d_5">
      <path d="M 313.940567 224.64 
L 313.940567 7.2 
" clip-path="url(#p9bb6e300ad)" style="fill: none; stroke: #ffffff; stroke-linecap: round"/>
     </g>
     <g id="text_5">
      <!-- 400 -->
      <g style="fill: #262626" transform="translate(303.548145 242.379687)scale(0.11 -0.11)">
       <defs>
        <path id="IPAexGothic-34" d="M 3813 1159 
L 3059 1159 
L 3059 63 
L 2547 63 
L 2547 1159 
L 197 1159 
L 197 1672 
L 2456 4678 
L 3059 4678 
L 3059 1634 
L 3813 1634 
L 3813 1159 
z
M 2578 4109 
L 2559 4109 
Q 2278 3656 2003 3284 
L 759 1634 
L 2547 1634 
L 2547 3144 
Q 2547 3481 2578 4109 
z
" transform="scale(0.015625)"/>
       </defs>
       <use xlink:href="#IPAexGothic-34"/>
       <use xlink:href="#IPAexGothic-30" x="62.988281"/>
       <use xlink:href="#IPAexGothic-30" x="125.976562"/>
      </g>
     </g>
    </g>
    <g id="xtick_6">
     <g id="line2d_6">
      <path d="M 376.438234 224.64 
L 376.438234 7.2 
" clip-path="url(#p9bb6e300ad)" style="fill: none; stroke: #ffffff; stroke-linecap: round"/>
     </g>
     <g id="text_6">
      <!-- 500 -->
      <g style="fill: #262626" transform="translate(366.045812 242.379687)scale(0.11 -0.11)">
       <defs>
        <path id="IPAexGothic-35" d="M 1178 2603 
Q 1634 2963 2172 2963 
Q 2816 2963 3241 2528 
Q 3638 2113 3638 1497 
Q 3638 938 3297 513 
Q 2869 -31 2031 -31 
Q 959 -31 469 784 
L 938 1028 
Q 1309 434 2013 434 
Q 2466 434 2769 716 
Q 3081 1013 3081 1503 
Q 3081 1966 2806 2241 
Q 2519 2528 2056 2528 
Q 1406 2528 1072 2028 
L 591 2091 
L 884 4634 
L 3406 4634 
L 3406 4153 
L 1341 4153 
L 1134 2603 
L 1178 2603 
z
" transform="scale(0.015625)"/>
       </defs>
       <use xlink:href="#IPAexGothic-35"/>
       <use xlink:href="#IPAexGothic-30" x="62.988281"/>
       <use xlink:href="#IPAexGothic-30" x="125.976562"/>
      </g>
     </g>
    </g>
    <g id="text_7">
     <!-- Iteration -->
     <g style="fill: #262626" transform="translate(192.440156 257.458437)scale(0.12 -0.12)">
      <defs>
       <path id="IPAexGothic-49" d="M 1203 63 
L 634 63 
L 634 4634 
L 1203 4634 
L 1203 63 
z
" transform="scale(0.015625)"/>
       <path id="IPAexGothic-74" d="M 2125 241 
Q 1769 -6 1397 -6 
Q 653 -6 653 831 
L 653 2859 
L 219 2859 
L 219 3250 
L 653 3250 
L 653 3966 
L 1178 4228 
L 1178 3250 
L 2063 3250 
L 2063 2859 
L 1178 2859 
L 1178 906 
Q 1178 416 1513 416 
Q 1738 416 1941 588 
L 2125 241 
z
" transform="scale(0.015625)"/>
       <path id="IPAexGothic-65" d="M 863 1594 
Q 891 1041 1209 722 
Q 1534 397 1997 397 
Q 2606 397 2963 966 
L 3322 728 
Q 2869 -31 1931 -31 
Q 1222 -31 766 422 
Q 306 884 306 1641 
Q 306 2444 788 2925 
Q 1216 3353 1856 3353 
Q 2459 3353 2866 2956 
Q 3322 2494 3322 1722 
L 3322 1594 
L 863 1594 
z
M 2756 1997 
Q 2709 2431 2450 2681 
Q 2194 2938 1844 2938 
Q 1438 2938 1150 2591 
Q 953 2356 894 1997 
L 2756 1997 
z
" transform="scale(0.015625)"/>
       <path id="IPAexGothic-72" d="M 2309 3316 
L 2213 2769 
Q 2106 2791 2022 2791 
Q 1653 2791 1413 2444 
Q 1113 2006 1113 1675 
L 1113 63 
L 563 63 
L 563 3250 
L 1081 3250 
L 1056 2303 
L 1069 2303 
Q 1422 3341 2097 3341 
Q 2206 3341 2309 3316 
z
" transform="scale(0.015625)"/>
       <path id="IPAexGothic-61" d="M 3156 63 
L 2672 63 
Q 2559 303 2531 556 
L 2509 556 
Q 2147 -25 1428 -25 
Q 934 -25 622 288 
Q 347 563 347 959 
Q 347 1947 2050 1997 
L 2478 2009 
L 2478 2175 
Q 2478 2509 2288 2700 
Q 2088 2900 1775 2900 
Q 1238 2900 969 2378 
L 494 2597 
Q 938 3328 1788 3328 
Q 2375 3328 2691 3000 
Q 2984 2706 2984 2169 
L 2984 997 
Q 2984 400 3156 63 
z
M 2491 1625 
L 2141 1619 
Q 903 1591 903 953 
Q 903 728 1050 581 
Q 1231 403 1525 403 
Q 1934 403 2234 703 
Q 2491 969 2491 1344 
L 2491 1625 
z
" transform="scale(0.015625)"/>
       <path id="IPAexGothic-69" d="M 1178 3928 
L 550 3928 
L 550 4569 
L 1178 4569 
L 1178 3928 
z
M 1138 63 
L 588 63 
L 588 3250 
L 1138 3250 
L 1138 63 
z
" transform="scale(0.015625)"/>
       <path id="IPAexGothic-6f" d="M 1919 3341 
Q 2594 3341 3056 2888 
Q 3531 2413 3531 1638 
Q 3531 888 3066 422 
Q 2609 -31 1919 -31 
Q 1228 -31 781 416 
Q 313 881 313 1656 
Q 313 2413 788 2888 
Q 1241 3341 1919 3341 
z
M 1919 2919 
Q 1519 2919 1241 2631 
Q 888 2278 888 1650 
Q 888 1031 1234 684 
Q 1516 403 1919 403 
Q 2331 403 2609 691 
Q 2956 1038 2956 1672 
Q 2956 2269 2603 2631 
Q 2316 2919 1919 2919 
z
" transform="scale(0.015625)"/>
       <path id="IPAexGothic-6e" d="M 3328 63 
L 2778 63 
L 2778 2041 
Q 2778 2853 2106 2853 
Q 1428 2853 1113 2041 
L 1113 63 
L 563 63 
L 563 3250 
L 1075 3250 
L 1075 2675 
Q 1525 3316 2222 3316 
Q 3328 3316 3328 2072 
L 3328 63 
z
" transform="scale(0.015625)"/>
      </defs>
      <use xlink:href="#IPAexGothic-49"/>
      <use xlink:href="#IPAexGothic-74" x="28.90625"/>
      <use xlink:href="#IPAexGothic-65" x="63.525391"/>
      <use xlink:href="#IPAexGothic-72" x="120.410156"/>
      <use xlink:href="#IPAexGothic-61" x="157.421875"/>
      <use xlink:href="#IPAexGothic-74" x="212.402344"/>
      <use xlink:href="#IPAexGothic-69" x="247.021484"/>
      <use xlink:href="#IPAexGothic-6f" x="274.023438"/>
      <use xlink:href="#IPAexGothic-6e" x="334.423828"/>
     </g>
    </g>
   </g>
   <g id="matplotlib.axis_2">
    <g id="ytick_1">
     <g id="line2d_7">
      <path d="M 48.731719 220.534304 
L 383.531719 220.534304 
" clip-path="url(#p9bb6e300ad)" style="fill: none; stroke: #ffffff; stroke-linecap: round"/>
     </g>
     <g id="text_8">
      <!-- 0.2 -->
      <g style="fill: #262626" transform="translate(22.46875 224.654148)scale(0.11 -0.11)">
       <defs>
        <path id="IPAexGothic-2e" d="M 1184 63 
L 494 63 
L 494 753 
L 1184 753 
L 1184 63 
z
" transform="scale(0.015625)"/>
       </defs>
       <use xlink:href="#IPAexGothic-30"/>
       <use xlink:href="#IPAexGothic-2e" x="62.988281"/>
       <use xlink:href="#IPAexGothic-32" x="89.404297"/>
      </g>
     </g>
    </g>
    <g id="ytick_2">
     <g id="line2d_8">
      <path d="M 48.731719 176.041315 
L 383.531719 176.041315 
" clip-path="url(#p9bb6e300ad)" style="fill: none; stroke: #ffffff; stroke-linecap: round"/>
     </g>
     <g id="text_9">
      <!-- 0.4 -->
      <g style="fill: #262626" transform="translate(22.46875 180.161159)scale(0.11 -0.11)">
       <use xlink:href="#IPAexGothic-30"/>
       <use xlink:href="#IPAexGothic-2e" x="62.988281"/>
       <use xlink:href="#IPAexGothic-34" x="89.404297"/>
      </g>
     </g>
    </g>
    <g id="ytick_3">
     <g id="line2d_9">
      <path d="M 48.731719 131.548326 
L 383.531719 131.548326 
" clip-path="url(#p9bb6e300ad)" style="fill: none; stroke: #ffffff; stroke-linecap: round"/>
     </g>
     <g id="text_10">
      <!-- 0.6 -->
      <g style="fill: #262626" transform="translate(22.46875 135.66817)scale(0.11 -0.11)">
       <defs>
        <path id="IPAexGothic-36" d="M 1056 2328 
Q 1509 2981 2234 2981 
Q 2906 2981 3316 2513 
Q 3675 2106 3675 1522 
Q 3675 884 3272 434 
Q 2853 -31 2178 -31 
Q 1375 -31 922 581 
Q 481 1178 481 2228 
Q 481 3425 1013 4109 
Q 1494 4725 2272 4725 
Q 3191 4725 3609 4025 
L 3150 3775 
Q 2894 4266 2300 4266 
Q 1119 4266 1031 2328 
L 1056 2328 
z
M 2141 2547 
Q 1684 2547 1384 2206 
Q 1116 1900 1116 1541 
Q 1116 1156 1353 844 
Q 1672 428 2159 428 
Q 2669 428 2941 844 
Q 3125 1128 3125 1503 
Q 3125 1944 2881 2228 
Q 2600 2547 2141 2547 
z
" transform="scale(0.015625)"/>
       </defs>
       <use xlink:href="#IPAexGothic-30"/>
       <use xlink:href="#IPAexGothic-2e" x="62.988281"/>
       <use xlink:href="#IPAexGothic-36" x="89.404297"/>
      </g>
     </g>
    </g>
    <g id="ytick_4">
     <g id="line2d_10">
      <path d="M 48.731719 87.055337 
L 383.531719 87.055337 
" clip-path="url(#p9bb6e300ad)" style="fill: none; stroke: #ffffff; stroke-linecap: round"/>
     </g>
     <g id="text_11">
      <!-- 0.8 -->
      <g style="fill: #262626" transform="translate(22.46875 91.175181)scale(0.11 -0.11)">
       <defs>
        <path id="IPAexGothic-38" d="M 2541 2425 
Q 3700 2031 3700 1197 
Q 3700 541 3100 197 
Q 2663 -56 2016 -56 
Q 1366 -56 928 197 
Q 347 531 347 1178 
Q 347 1988 1409 2381 
L 1409 2400 
Q 481 2734 481 3509 
Q 481 4100 981 4456 
Q 1406 4756 2019 4756 
Q 2703 4756 3131 4403 
Q 3553 4069 3553 3566 
Q 3553 2706 2541 2444 
L 2541 2425 
z
M 2022 2625 
Q 2997 2856 2997 3528 
Q 2997 3916 2675 4150 
Q 2413 4347 2016 4347 
Q 1606 4347 1331 4128 
Q 1050 3897 1050 3522 
Q 1050 3150 1350 2925 
Q 1494 2809 1722 2722 
Q 1984 2616 2022 2625 
z
M 1978 2209 
Q 922 1931 922 1216 
Q 922 775 1313 556 
Q 1606 391 2009 391 
Q 2575 391 2881 697 
Q 3106 922 3106 1250 
Q 3106 1594 2794 1850 
Q 2609 1994 2350 2100 
Q 2047 2222 1978 2209 
z
" transform="scale(0.015625)"/>
       </defs>
       <use xlink:href="#IPAexGothic-30"/>
       <use xlink:href="#IPAexGothic-2e" x="62.988281"/>
       <use xlink:href="#IPAexGothic-38" x="89.404297"/>
      </g>
     </g>
    </g>
    <g id="ytick_5">
     <g id="line2d_11">
      <path d="M 48.731719 42.562348 
L 383.531719 42.562348 
" clip-path="url(#p9bb6e300ad)" style="fill: none; stroke: #ffffff; stroke-linecap: round"/>
     </g>
     <g id="text_12">
      <!-- 1.0 -->
      <g style="fill: #262626" transform="translate(22.46875 46.682192)scale(0.11 -0.11)">
       <use xlink:href="#IPAexGothic-31"/>
       <use xlink:href="#IPAexGothic-2e" x="62.988281"/>
       <use xlink:href="#IPAexGothic-30" x="89.404297"/>
      </g>
     </g>
    </g>
    <g id="text_13">
     <!-- rmse -->
     <g style="fill: #262626" transform="translate(16.18875 129.552187)rotate(-90)scale(0.12 -0.12)">
      <defs>
       <path id="IPAexGothic-6d" d="M 5022 63 
L 4472 63 
L 4472 2059 
Q 4472 2869 3847 2869 
Q 3550 2869 3303 2594 
Q 3128 2397 3059 2103 
L 3059 63 
L 2509 63 
L 2509 2066 
Q 2509 2869 1919 2869 
Q 1606 2869 1369 2594 
Q 1113 2306 1113 2041 
L 1113 63 
L 563 63 
L 563 3250 
L 1075 3250 
L 1075 2700 
Q 1391 3316 2028 3316 
Q 2725 3316 2956 2647 
Q 3303 3316 3953 3316 
Q 4478 3316 4772 2944 
Q 5022 2638 5022 2072 
L 5022 63 
z
" transform="scale(0.015625)"/>
       <path id="IPAexGothic-73" d="M 2234 2547 
Q 1938 2931 1484 2931 
Q 891 2931 891 2475 
Q 891 2153 1531 1944 
L 1741 1875 
Q 2650 1578 2650 894 
Q 2650 434 2272 172 
Q 1972 -31 1497 -31 
Q 766 -31 256 503 
L 603 819 
Q 997 397 1516 397 
Q 2131 397 2131 875 
Q 2131 1238 1453 1478 
L 1234 1553 
Q 378 1853 378 2431 
Q 378 2797 628 3047 
Q 928 3347 1453 3347 
Q 2156 3347 2606 2859 
L 2234 2547 
z
" transform="scale(0.015625)"/>
      </defs>
      <use xlink:href="#IPAexGothic-72"/>
      <use xlink:href="#IPAexGothic-6d" x="37.011719"/>
      <use xlink:href="#IPAexGothic-73" x="124.121094"/>
      <use xlink:href="#IPAexGothic-65" x="170.3125"/>
     </g>
    </g>
   </g>
   <g id="line2d_12">
    <path d="M 63.949901 20.178503 
L 65.824831 53.094328 
L 66.449807 62.286231 
L 69.574691 98.023266 
L 70.824644 109.082951 
L 72.699574 121.706457 
L 73.324551 125.126886 
L 73.949527 129.169906 
L 74.574504 131.9263 
L 75.824457 138.822374 
L 77.699387 146.16145 
L 78.324364 147.925772 
L 79.574317 152.011854 
L 80.199294 154.007404 
L 80.824271 155.23822 
L 82.699201 159.66171 
L 83.324177 161.078486 
L 83.949154 161.896155 
L 85.199107 163.958544 
L 87.074037 165.918537 
L 87.699014 167.153988 
L 90.198921 169.919008 
L 90.823897 170.701577 
L 91.448874 171.159152 
L 92.073851 171.962798 
L 93.323804 172.965886 
L 95.198734 173.86945 
L 95.823711 174.517014 
L 96.448687 174.838087 
L 97.073664 174.998469 
L 97.698641 175.646523 
L 98.323617 175.823704 
L 98.948594 176.404432 
L 99.573571 176.635217 
L 100.198547 177.233562 
L 100.823524 177.494015 
L 101.448501 178.029378 
L 102.073477 178.328023 
L 105.198361 180.569169 
L 107.073291 181.380079 
L 108.323244 181.719992 
L 108.948221 182.030171 
L 112.073104 182.976368 
L 114.573011 183.828082 
L 115.197987 183.995391 
L 115.822964 184.324629 
L 116.447941 184.392165 
L 122.072731 186.187593 
L 124.572637 186.794908 
L 125.822591 187.080983 
L 127.072544 187.296391 
L 128.322497 187.534088 
L 128.947474 187.715086 
L 130.197427 187.91074 
L 132.072357 188.395967 
L 135.822217 188.982439 
L 137.07217 189.45997 
L 139.572077 190.04784 
L 143.321937 190.790654 
L 144.57189 191.096217 
L 148.32175 191.793943 
L 149.571704 192.014174 
L 158.321377 193.70465 
L 160.821284 194.106008 
L 164.571144 194.796149 
L 169.570957 195.503228 
L 172.070864 195.961862 
L 176.4457 196.456201 
L 177.695654 196.621502 
L 182.07049 197.236085 
L 183.94542 197.409182 
L 188.945234 198.187696 
L 200.194814 199.57953 
L 201.444767 199.737516 
L 203.319697 199.895893 
L 218.944114 201.793998 
L 220.819044 202.039204 
L 233.318577 203.338458 
L 237.068437 203.776505 
L 242.06825 204.30382 
L 249.56797 205.069194 
L 251.4429 205.279163 
L 254.567784 205.523122 
L 258.94262 205.899661 
L 260.192574 206.023892 
L 261.442527 206.200976 
L 264.56741 206.44421 
L 267.067317 206.636774 
L 270.817177 207.107247 
L 273.317084 207.410106 
L 277.69192 207.689457 
L 290.191454 208.765269 
L 292.69136 209.048266 
L 298.941127 209.512397 
L 307.6908 210.339944 
L 313.31559 210.738661 
L 315.815497 210.931535 
L 320.81531 211.308579 
L 323.315217 211.549092 
L 332.06489 212.101349 
L 334.564797 212.336925 
L 340.189587 212.802814 
L 343.31447 212.977275 
L 346.439354 213.215024 
L 348.93926 213.453304 
L 357.688934 214.039229 
L 360.18884 214.21129 
L 368.313537 214.756364 
L 368.313537 214.756364 
" clip-path="url(#p9bb6e300ad)" style="fill: none; stroke: #4c72b0; stroke-width: 1.5; stroke-linecap: round"/>
   </g>
   <g id="line2d_13">
    <path d="M 63.949901 17.083636 
L 65.824831 48.981485 
L 66.449807 57.808371 
L 67.074784 64.570269 
L 67.699761 72.740928 
L 69.574691 91.526753 
L 70.824644 101.903093 
L 72.699574 113.27637 
L 73.324551 116.186978 
L 73.949527 120.037417 
L 74.574504 122.436116 
L 75.824457 128.895265 
L 77.699387 135.260801 
L 78.324364 136.661634 
L 79.574317 140.209894 
L 80.199294 141.97358 
L 80.824271 142.891769 
L 82.074224 145.604134 
L 82.699201 146.638869 
L 83.324177 147.890238 
L 83.949154 148.433723 
L 85.199107 149.91869 
L 87.074037 151.055926 
L 87.699014 152.169476 
L 88.323991 152.666226 
L 88.948967 152.86734 
L 90.823897 154.584893 
L 91.448874 154.901616 
L 92.073851 155.480781 
L 93.323804 156.211925 
L 94.573757 156.346503 
L 95.198734 156.424146 
L 95.823711 156.894721 
L 97.073664 157.034953 
L 97.698641 157.527859 
L 98.323617 157.570813 
L 98.948594 157.962734 
L 99.573571 158.007559 
L 100.198547 158.457963 
L 100.823524 158.561653 
L 101.448501 158.925993 
L 102.073477 159.011064 
L 103.948407 159.912603 
L 107.073291 160.968014 
L 108.323244 161.006424 
L 108.948221 161.205626 
L 110.823151 161.23369 
L 111.448127 161.420007 
L 114.573011 161.612037 
L 115.197987 161.608029 
L 115.822964 161.835861 
L 117.072917 161.821687 
L 117.697894 162.033302 
L 120.197801 162.318865 
L 121.447754 162.307529 
L 122.072731 162.435201 
L 123.322684 162.528102 
L 124.572637 162.685348 
L 126.447567 162.678724 
L 127.697521 162.742531 
L 133.947287 162.87859 
L 136.447194 163.095442 
L 137.697147 163.2988 
L 139.572077 163.360131 
L 143.321937 163.56238 
L 145.196867 163.729897 
L 147.696774 163.765468 
L 150.19668 163.794744 
L 166.446074 164.276022 
L 175.820724 164.382084 
L 183.320444 164.533998 
L 189.57021 164.627837 
L 202.069744 164.759052 
L 205.819604 164.798736 
L 209.569464 164.838007 
L 213.9443 164.852656 
L 217.069184 164.921938 
L 231.443647 165.135108 
L 238.31839 165.173447 
L 244.568157 165.21103 
L 262.067504 165.234161 
L 275.192014 165.281736 
L 278.941874 165.250028 
L 285.19164 165.300526 
L 334.564797 165.239363 
L 340.814564 165.256392 
L 345.1894 165.269835 
L 350.189214 165.257214 
L 353.939074 165.277258 
L 368.313537 165.233159 
L 368.313537 165.233159 
" clip-path="url(#p9bb6e300ad)" style="fill: none; stroke: #dd8452; stroke-width: 1.5; stroke-linecap: round"/>
   </g>
   <g id="patch_3">
    <path d="M 48.731719 224.64 
L 48.731719 7.2 
" style="fill: none; stroke: #ffffff; stroke-width: 1.25; stroke-linejoin: miter; stroke-linecap: square"/>
   </g>
   <g id="patch_4">
    <path d="M 383.531719 224.64 
L 383.531719 7.2 
" style="fill: none; stroke: #ffffff; stroke-width: 1.25; stroke-linejoin: miter; stroke-linecap: square"/>
   </g>
   <g id="patch_5">
    <path d="M 48.731719 224.64 
L 383.531719 224.64 
" style="fill: none; stroke: #ffffff; stroke-width: 1.25; stroke-linejoin: miter; stroke-linecap: square"/>
   </g>
   <g id="patch_6">
    <path d="M 48.731719 7.2 
L 383.531719 7.2 
" style="fill: none; stroke: #ffffff; stroke-width: 1.25; stroke-linejoin: miter; stroke-linecap: square"/>
   </g>
  </g>
 </g>
 <defs>
  <clipPath id="p9bb6e300ad">
   <rect x="48.731719" y="7.2" width="334.8" height="217.44"/>
  </clipPath>
 </defs>
</svg>
