<?xml version="1.0" encoding="utf-8" standalone="no"?>
<!DOCTYPE svg PUBLIC "-//W3C//DTD SVG 1.1//EN"
  "http://www.w3.org/Graphics/SVG/1.1/DTD/svg11.dtd">
<svg xmlns:xlink="http://www.w3.org/1999/xlink" width="390.731719pt" height="266.938437pt" viewBox="0 0 390.731719 266.938437" xmlns="http://www.w3.org/2000/svg" version="1.1">
 <metadata>
  <rdf:RDF xmlns:dc="http://purl.org/dc/elements/1.1/" xmlns:cc="http://creativecommons.org/ns#" xmlns:rdf="http://www.w3.org/1999/02/22-rdf-syntax-ns#">
   <cc:Work>
    <dc:type rdf:resource="http://purl.org/dc/dcmitype/StillImage"/>
    <dc:date>2022-02-08T00:50:41.748551</dc:date>
    <dc:format>image/svg+xml</dc:format>
    <dc:creator>
     <cc:Agent>
      <dc:title>Matplotlib v3.5.1, https://matplotlib.org/</dc:title>
     </cc:Agent>
    </dc:creator>
   </cc:Work>
  </rdf:RDF>
 </metadata>
 <defs>
  <style type="text/css">*{stroke-linejoin: round; stroke-linecap: butt}</style>
 </defs>
 <g id="figure_1">
  <g id="patch_1">
   <path d="M 0 266.938437 
L 390.731719 266.938437 
L 390.731719 0 
L 0 0 
z
" style="fill: #ffffff"/>
  </g>
  <g id="axes_1">
   <g id="patch_2">
    <path d="M 48.731719 224.64 
L 383.531719 224.64 
L 383.531719 7.2 
L 48.731719 7.2 
z
" style="fill: #eaeaf2"/>
   </g>
   <g id="matplotlib.axis_1">
    <g id="xtick_1">
     <g id="line2d_1">
      <path d="M 63.949901 224.64 
L 63.949901 7.2 
" clip-path="url(#pea3b09ccac)" style="fill: none; stroke: #ffffff; stroke-linecap: round"/>
     </g>
     <g id="text_1">
      <!-- 0 -->
      <g style="fill: #262626" transform="translate(60.48576 242.379687)scale(0.11 -0.11)">
       <defs>
        <path id="IPAexGothic-30" d="M 2038 4725 
Q 2881 4725 3334 3944 
Q 3694 3325 3694 2344 
Q 3694 1372 3334 741 
Q 2888 -31 2016 -31 
Q 1147 -31 700 741 
Q 341 1372 341 2350 
Q 341 3713 1000 4334 
Q 1419 4725 2038 4725 
z
M 2016 4266 
Q 1516 4266 1228 3759 
Q 934 3247 934 2344 
Q 934 1456 1222 947 
Q 1513 447 2016 447 
Q 2619 447 2909 1153 
Q 3100 1622 3100 2375 
Q 3100 3256 2806 3759 
Q 2509 4266 2016 4266 
z
" transform="scale(0.015625)"/>
       </defs>
       <use xlink:href="#IPAexGothic-30"/>
      </g>
     </g>
    </g>
    <g id="xtick_2">
     <g id="line2d_2">
      <path d="M 129.616273 224.64 
L 129.616273 7.2 
" clip-path="url(#pea3b09ccac)" style="fill: none; stroke: #ffffff; stroke-linecap: round"/>
     </g>
     <g id="text_2">
      <!-- 200 -->
      <g style="fill: #262626" transform="translate(119.223851 242.379687)scale(0.11 -0.11)">
       <defs>
        <path id="IPAexGothic-32" d="M 3659 63 
L 447 63 
L 447 594 
Q 825 1475 1894 2203 
L 2072 2322 
Q 2619 2697 2791 2906 
Q 2988 3153 2988 3444 
Q 2988 3772 2756 4003 
Q 2500 4259 2084 4259 
Q 1250 4259 991 3328 
L 497 3506 
Q 853 4725 2116 4725 
Q 2806 4725 3216 4316 
Q 3575 3947 3575 3425 
Q 3575 3038 3344 2722 
Q 3131 2416 2366 1938 
L 2231 1856 
Q 1256 1253 978 569 
L 3659 569 
L 3659 63 
z
" transform="scale(0.015625)"/>
       </defs>
       <use xlink:href="#IPAexGothic-32"/>
       <use xlink:href="#IPAexGothic-30" x="62.988281"/>
       <use xlink:href="#IPAexGothic-30" x="125.976562"/>
      </g>
     </g>
    </g>
    <g id="xtick_3">
     <g id="line2d_3">
      <path d="M 195.282645 224.64 
L 195.282645 7.2 
" clip-path="url(#pea3b09ccac)" style="fill: none; stroke: #ffffff; stroke-linecap: round"/>
     </g>
     <g id="text_3">
      <!-- 400 -->
      <g style="fill: #262626" transform="translate(184.890224 242.379687)scale(0.11 -0.11)">
       <defs>
        <path id="IPAexGothic-34" d="M 3813 1159 
L 3059 1159 
L 3059 63 
L 2547 63 
L 2547 1159 
L 197 1159 
L 197 1672 
L 2456 4678 
L 3059 4678 
L 3059 1634 
L 3813 1634 
L 3813 1159 
z
M 2578 4109 
L 2559 4109 
Q 2278 3656 2003 3284 
L 759 1634 
L 2547 1634 
L 2547 3144 
Q 2547 3481 2578 4109 
z
" transform="scale(0.015625)"/>
       </defs>
       <use xlink:href="#IPAexGothic-34"/>
       <use xlink:href="#IPAexGothic-30" x="62.988281"/>
       <use xlink:href="#IPAexGothic-30" x="125.976562"/>
      </g>
     </g>
    </g>
    <g id="xtick_4">
     <g id="line2d_4">
      <path d="M 260.949018 224.64 
L 260.949018 7.2 
" clip-path="url(#pea3b09ccac)" style="fill: none; stroke: #ffffff; stroke-linecap: round"/>
     </g>
     <g id="text_4">
      <!-- 600 -->
      <g style="fill: #262626" transform="translate(250.556596 242.379687)scale(0.11 -0.11)">
       <defs>
        <path id="IPAexGothic-36" d="M 1056 2328 
Q 1509 2981 2234 2981 
Q 2906 2981 3316 2513 
Q 3675 2106 3675 1522 
Q 3675 884 3272 434 
Q 2853 -31 2178 -31 
Q 1375 -31 922 581 
Q 481 1178 481 2228 
Q 481 3425 1013 4109 
Q 1494 4725 2272 4725 
Q 3191 4725 3609 4025 
L 3150 3775 
Q 2894 4266 2300 4266 
Q 1119 4266 1031 2328 
L 1056 2328 
z
M 2141 2547 
Q 1684 2547 1384 2206 
Q 1116 1900 1116 1541 
Q 1116 1156 1353 844 
Q 1672 428 2159 428 
Q 2669 428 2941 844 
Q 3125 1128 3125 1503 
Q 3125 1944 2881 2228 
Q 2600 2547 2141 2547 
z
" transform="scale(0.015625)"/>
       </defs>
       <use xlink:href="#IPAexGothic-36"/>
       <use xlink:href="#IPAexGothic-30" x="62.988281"/>
       <use xlink:href="#IPAexGothic-30" x="125.976562"/>
      </g>
     </g>
    </g>
    <g id="xtick_5">
     <g id="line2d_5">
      <path d="M 326.61539 224.64 
L 326.61539 7.2 
" clip-path="url(#pea3b09ccac)" style="fill: none; stroke: #ffffff; stroke-linecap: round"/>
     </g>
     <g id="text_5">
      <!-- 800 -->
      <g style="fill: #262626" transform="translate(316.222969 242.379687)scale(0.11 -0.11)">
       <defs>
        <path id="IPAexGothic-38" d="M 2541 2425 
Q 3700 2031 3700 1197 
Q 3700 541 3100 197 
Q 2663 -56 2016 -56 
Q 1366 -56 928 197 
Q 347 531 347 1178 
Q 347 1988 1409 2381 
L 1409 2400 
Q 481 2734 481 3509 
Q 481 4100 981 4456 
Q 1406 4756 2019 4756 
Q 2703 4756 3131 4403 
Q 3553 4069 3553 3566 
Q 3553 2706 2541 2444 
L 2541 2425 
z
M 2022 2625 
Q 2997 2856 2997 3528 
Q 2997 3916 2675 4150 
Q 2413 4347 2016 4347 
Q 1606 4347 1331 4128 
Q 1050 3897 1050 3522 
Q 1050 3150 1350 2925 
Q 1494 2809 1722 2722 
Q 1984 2616 2022 2625 
z
M 1978 2209 
Q 922 1931 922 1216 
Q 922 775 1313 556 
Q 1606 391 2009 391 
Q 2575 391 2881 697 
Q 3106 922 3106 1250 
Q 3106 1594 2794 1850 
Q 2609 1994 2350 2100 
Q 2047 2222 1978 2209 
z
" transform="scale(0.015625)"/>
       </defs>
       <use xlink:href="#IPAexGothic-38"/>
       <use xlink:href="#IPAexGothic-30" x="62.988281"/>
       <use xlink:href="#IPAexGothic-30" x="125.976562"/>
      </g>
     </g>
    </g>
    <g id="text_6">
     <!-- Iteration -->
     <g style="fill: #262626" transform="translate(192.440156 257.458437)scale(0.12 -0.12)">
      <defs>
       <path id="IPAexGothic-49" d="M 1203 63 
L 634 63 
L 634 4634 
L 1203 4634 
L 1203 63 
z
" transform="scale(0.015625)"/>
       <path id="IPAexGothic-74" d="M 2125 241 
Q 1769 -6 1397 -6 
Q 653 -6 653 831 
L 653 2859 
L 219 2859 
L 219 3250 
L 653 3250 
L 653 3966 
L 1178 4228 
L 1178 3250 
L 2063 3250 
L 2063 2859 
L 1178 2859 
L 1178 906 
Q 1178 416 1513 416 
Q 1738 416 1941 588 
L 2125 241 
z
" transform="scale(0.015625)"/>
       <path id="IPAexGothic-65" d="M 863 1594 
Q 891 1041 1209 722 
Q 1534 397 1997 397 
Q 2606 397 2963 966 
L 3322 728 
Q 2869 -31 1931 -31 
Q 1222 -31 766 422 
Q 306 884 306 1641 
Q 306 2444 788 2925 
Q 1216 3353 1856 3353 
Q 2459 3353 2866 2956 
Q 3322 2494 3322 1722 
L 3322 1594 
L 863 1594 
z
M 2756 1997 
Q 2709 2431 2450 2681 
Q 2194 2938 1844 2938 
Q 1438 2938 1150 2591 
Q 953 2356 894 1997 
L 2756 1997 
z
" transform="scale(0.015625)"/>
       <path id="IPAexGothic-72" d="M 2309 3316 
L 2213 2769 
Q 2106 2791 2022 2791 
Q 1653 2791 1413 2444 
Q 1113 2006 1113 1675 
L 1113 63 
L 563 63 
L 563 3250 
L 1081 3250 
L 1056 2303 
L 1069 2303 
Q 1422 3341 2097 3341 
Q 2206 3341 2309 3316 
z
" transform="scale(0.015625)"/>
       <path id="IPAexGothic-61" d="M 3156 63 
L 2672 63 
Q 2559 303 2531 556 
L 2509 556 
Q 2147 -25 1428 -25 
Q 934 -25 622 288 
Q 347 563 347 959 
Q 347 1947 2050 1997 
L 2478 2009 
L 2478 2175 
Q 2478 2509 2288 2700 
Q 2088 2900 1775 2900 
Q 1238 2900 969 2378 
L 494 2597 
Q 938 3328 1788 3328 
Q 2375 3328 2691 3000 
Q 2984 2706 2984 2169 
L 2984 997 
Q 2984 400 3156 63 
z
M 2491 1625 
L 2141 1619 
Q 903 1591 903 953 
Q 903 728 1050 581 
Q 1231 403 1525 403 
Q 1934 403 2234 703 
Q 2491 969 2491 1344 
L 2491 1625 
z
" transform="scale(0.015625)"/>
       <path id="IPAexGothic-69" d="M 1178 3928 
L 550 3928 
L 550 4569 
L 1178 4569 
L 1178 3928 
z
M 1138 63 
L 588 63 
L 588 3250 
L 1138 3250 
L 1138 63 
z
" transform="scale(0.015625)"/>
       <path id="IPAexGothic-6f" d="M 1919 3341 
Q 2594 3341 3056 2888 
Q 3531 2413 3531 1638 
Q 3531 888 3066 422 
Q 2609 -31 1919 -31 
Q 1228 -31 781 416 
Q 313 881 313 1656 
Q 313 2413 788 2888 
Q 1241 3341 1919 3341 
z
M 1919 2919 
Q 1519 2919 1241 2631 
Q 888 2278 888 1650 
Q 888 1031 1234 684 
Q 1516 403 1919 403 
Q 2331 403 2609 691 
Q 2956 1038 2956 1672 
Q 2956 2269 2603 2631 
Q 2316 2919 1919 2919 
z
" transform="scale(0.015625)"/>
       <path id="IPAexGothic-6e" d="M 3328 63 
L 2778 63 
L 2778 2041 
Q 2778 2853 2106 2853 
Q 1428 2853 1113 2041 
L 1113 63 
L 563 63 
L 563 3250 
L 1075 3250 
L 1075 2675 
Q 1525 3316 2222 3316 
Q 3328 3316 3328 2072 
L 3328 63 
z
" transform="scale(0.015625)"/>
      </defs>
      <use xlink:href="#IPAexGothic-49"/>
      <use xlink:href="#IPAexGothic-74" x="28.90625"/>
      <use xlink:href="#IPAexGothic-65" x="63.525391"/>
      <use xlink:href="#IPAexGothic-72" x="120.410156"/>
      <use xlink:href="#IPAexGothic-61" x="157.421875"/>
      <use xlink:href="#IPAexGothic-74" x="212.402344"/>
      <use xlink:href="#IPAexGothic-69" x="247.021484"/>
      <use xlink:href="#IPAexGothic-6f" x="274.023438"/>
      <use xlink:href="#IPAexGothic-6e" x="334.423828"/>
     </g>
    </g>
   </g>
   <g id="matplotlib.axis_2">
    <g id="ytick_1">
     <g id="line2d_6">
      <path d="M 48.731719 206.617516 
L 383.531719 206.617516 
" clip-path="url(#pea3b09ccac)" style="fill: none; stroke: #ffffff; stroke-linecap: round"/>
     </g>
     <g id="text_7">
      <!-- 0.2 -->
      <g style="fill: #262626" transform="translate(22.46875 210.737359)scale(0.11 -0.11)">
       <defs>
        <path id="IPAexGothic-2e" d="M 1184 63 
L 494 63 
L 494 753 
L 1184 753 
L 1184 63 
z
" transform="scale(0.015625)"/>
       </defs>
       <use xlink:href="#IPAexGothic-30"/>
       <use xlink:href="#IPAexGothic-2e" x="62.988281"/>
       <use xlink:href="#IPAexGothic-32" x="89.404297"/>
      </g>
     </g>
    </g>
    <g id="ytick_2">
     <g id="line2d_7">
      <path d="M 48.731719 164.892421 
L 383.531719 164.892421 
" clip-path="url(#pea3b09ccac)" style="fill: none; stroke: #ffffff; stroke-linecap: round"/>
     </g>
     <g id="text_8">
      <!-- 0.4 -->
      <g style="fill: #262626" transform="translate(22.46875 169.012264)scale(0.11 -0.11)">
       <use xlink:href="#IPAexGothic-30"/>
       <use xlink:href="#IPAexGothic-2e" x="62.988281"/>
       <use xlink:href="#IPAexGothic-34" x="89.404297"/>
      </g>
     </g>
    </g>
    <g id="ytick_3">
     <g id="line2d_8">
      <path d="M 48.731719 123.167326 
L 383.531719 123.167326 
" clip-path="url(#pea3b09ccac)" style="fill: none; stroke: #ffffff; stroke-linecap: round"/>
     </g>
     <g id="text_9">
      <!-- 0.6 -->
      <g style="fill: #262626" transform="translate(22.46875 127.287169)scale(0.11 -0.11)">
       <use xlink:href="#IPAexGothic-30"/>
       <use xlink:href="#IPAexGothic-2e" x="62.988281"/>
       <use xlink:href="#IPAexGothic-36" x="89.404297"/>
      </g>
     </g>
    </g>
    <g id="ytick_4">
     <g id="line2d_9">
      <path d="M 48.731719 81.442231 
L 383.531719 81.442231 
" clip-path="url(#pea3b09ccac)" style="fill: none; stroke: #ffffff; stroke-linecap: round"/>
     </g>
     <g id="text_10">
      <!-- 0.8 -->
      <g style="fill: #262626" transform="translate(22.46875 85.562074)scale(0.11 -0.11)">
       <use xlink:href="#IPAexGothic-30"/>
       <use xlink:href="#IPAexGothic-2e" x="62.988281"/>
       <use xlink:href="#IPAexGothic-38" x="89.404297"/>
      </g>
     </g>
    </g>
    <g id="ytick_5">
     <g id="line2d_10">
      <path d="M 48.731719 39.717136 
L 383.531719 39.717136 
" clip-path="url(#pea3b09ccac)" style="fill: none; stroke: #ffffff; stroke-linecap: round"/>
     </g>
     <g id="text_11">
      <!-- 1.0 -->
      <g style="fill: #262626" transform="translate(22.46875 43.836979)scale(0.11 -0.11)">
       <defs>
        <path id="IPAexGothic-31" d="M 2463 63 
L 1900 63 
L 1900 4103 
Q 1372 3922 788 3797 
L 684 4231 
Q 1519 4441 2106 4731 
L 2463 4731 
L 2463 63 
z
" transform="scale(0.015625)"/>
       </defs>
       <use xlink:href="#IPAexGothic-31"/>
       <use xlink:href="#IPAexGothic-2e" x="62.988281"/>
       <use xlink:href="#IPAexGothic-30" x="89.404297"/>
      </g>
     </g>
    </g>
    <g id="text_12">
     <!-- rmse -->
     <g style="fill: #262626" transform="translate(16.18875 129.552187)rotate(-90)scale(0.12 -0.12)">
      <defs>
       <path id="IPAexGothic-6d" d="M 5022 63 
L 4472 63 
L 4472 2059 
Q 4472 2869 3847 2869 
Q 3550 2869 3303 2594 
Q 3128 2397 3059 2103 
L 3059 63 
L 2509 63 
L 2509 2066 
Q 2509 2869 1919 2869 
Q 1606 2869 1369 2594 
Q 1113 2306 1113 2041 
L 1113 63 
L 563 63 
L 563 3250 
L 1075 3250 
L 1075 2700 
Q 1391 3316 2028 3316 
Q 2725 3316 2956 2647 
Q 3303 3316 3953 3316 
Q 4478 3316 4772 2944 
Q 5022 2638 5022 2072 
L 5022 63 
z
" transform="scale(0.015625)"/>
       <path id="IPAexGothic-73" d="M 2234 2547 
Q 1938 2931 1484 2931 
Q 891 2931 891 2475 
Q 891 2153 1531 1944 
L 1741 1875 
Q 2650 1578 2650 894 
Q 2650 434 2272 172 
Q 1972 -31 1497 -31 
Q 766 -31 256 503 
L 603 819 
Q 997 397 1516 397 
Q 2131 397 2131 875 
Q 2131 1238 1453 1478 
L 1234 1553 
Q 378 1853 378 2431 
Q 378 2797 628 3047 
Q 928 3347 1453 3347 
Q 2156 3347 2606 2859 
L 2234 2547 
z
" transform="scale(0.015625)"/>
      </defs>
      <use xlink:href="#IPAexGothic-72"/>
      <use xlink:href="#IPAexGothic-6d" x="37.011719"/>
      <use xlink:href="#IPAexGothic-73" x="124.121094"/>
      <use xlink:href="#IPAexGothic-65" x="170.3125"/>
     </g>
    </g>
   </g>
   <g id="line2d_11">
    <path d="M 63.949901 17.083636 
L 65.263228 56.994362 
L 67.233219 96.528746 
L 68.218215 109.690359 
L 69.20321 120.494097 
L 69.859874 126.440464 
L 70.516538 132.153305 
L 71.173202 136.784233 
L 72.814861 145.54161 
L 74.128188 150.750136 
L 74.784852 152.66124 
L 75.113184 153.658182 
L 76.098179 155.586301 
L 76.426511 156.746257 
L 79.381498 162.358742 
L 80.366494 163.295128 
L 80.694826 163.827939 
L 81.351489 164.226225 
L 81.679821 164.670963 
L 82.008153 164.864684 
L 82.336485 165.475966 
L 82.664817 165.802501 
L 82.993149 166.355563 
L 83.32148 166.541361 
L 83.649812 167.009598 
L 83.978144 167.245658 
L 84.96314 168.665538 
L 86.276467 169.777667 
L 89.231454 171.188285 
L 90.873113 171.963704 
L 93.8281 173.340364 
L 94.813096 173.592396 
L 96.126423 174.298942 
L 96.783087 174.356764 
L 97.439751 174.586053 
L 102.036397 176.48013 
L 105.976379 178.292125 
L 107.289706 178.816756 
L 107.94637 179.04068 
L 108.603034 179.219321 
L 110.901357 180.02855 
L 111.229689 180.082953 
L 111.886352 180.346831 
L 113.19968 180.81036 
L 114.513007 181.216175 
L 116.154667 181.784093 
L 117.139662 181.963332 
L 118.45299 182.332559 
L 122.392972 183.445306 
L 123.377968 183.72466 
L 128.302946 184.913863 
L 128.959609 185.050605 
L 129.944605 185.322733 
L 133.884587 186.425669 
L 135.526247 186.925854 
L 136.839574 187.206684 
L 137.82457 187.559601 
L 138.481233 187.678439 
L 139.466229 187.969526 
L 140.451224 188.247604 
L 144.391207 189.182696 
L 145.704534 189.490781 
L 147.346194 189.778815 
L 150.629512 190.536417 
L 151.614508 190.778727 
L 152.599503 190.863428 
L 153.584499 191.089958 
L 155.882822 191.538462 
L 156.867818 191.712622 
L 159.822804 192.230009 
L 160.479468 192.389363 
L 193.640986 197.252311 
L 196.924305 197.62281 
L 198.894296 197.853268 
L 200.207623 197.99687 
L 201.192619 198.137405 
L 209.400916 199.251641 
L 210.714243 199.459549 
L 217.937544 200.604611 
L 218.594208 200.74141 
L 222.205858 201.103533 
L 223.519186 201.261701 
L 226.145841 201.598641 
L 227.130836 201.716049 
L 230.742487 202.217794 
L 246.830748 204.056317 
L 250.77073 204.389328 
L 251.755726 204.534607 
L 262.590677 205.616361 
L 272.112301 206.398732 
L 273.097297 206.509429 
L 275.39562 206.7351 
L 278.350607 207.111263 
L 281.962257 207.479458 
L 283.275585 207.603651 
L 284.917244 207.760508 
L 291.483881 208.388857 
L 293.782204 208.55661 
L 300.02051 209.186583 
L 308.88547 209.981201 
L 313.810448 210.386569 
L 315.452107 210.559636 
L 318.407094 210.757225 
L 322.675408 211.113189 
L 324.317067 211.303523 
L 333.182028 212.032191 
L 337.778674 212.415658 
L 341.390324 212.650839 
L 343.688647 212.838375 
L 351.568612 213.479111 
L 355.508594 213.716431 
L 358.135249 213.924512 
L 361.090236 214.185744 
L 368.313537 214.756364 
L 368.313537 214.756364 
" clip-path="url(#pea3b09ccac)" style="fill: none; stroke: #4c72b0; stroke-width: 1.5; stroke-linecap: round"/>
   </g>
   <g id="line2d_12">
    <path d="M 63.949901 22.602974 
L 64.934896 51.997274 
L 65.919892 73.245509 
L 67.233219 95.459919 
L 67.889883 103.152026 
L 68.546547 109.701748 
L 68.874879 112.258903 
L 69.20321 115.695636 
L 69.859874 120.776358 
L 70.188206 123.702378 
L 71.173202 128.947409 
L 71.501533 130.129645 
L 72.486529 134.726869 
L 73.143193 136.44171 
L 73.799856 138.174939 
L 74.128188 139.015405 
L 74.45652 139.460252 
L 75.113184 140.815263 
L 76.098179 141.807859 
L 76.426511 142.727525 
L 76.754843 143.162188 
L 77.083175 143.354837 
L 77.411507 143.714317 
L 78.068171 144.694425 
L 79.053166 145.852107 
L 79.381498 146.104411 
L 80.366494 146.279462 
L 80.694826 146.663999 
L 81.351489 146.716942 
L 81.679821 147.016255 
L 82.008153 147.075972 
L 82.336485 147.361817 
L 82.664817 147.472376 
L 82.993149 147.843201 
L 83.32148 147.886043 
L 83.649812 148.199566 
L 83.978144 148.230634 
L 84.634808 148.786408 
L 85.619803 149.351566 
L 87.261463 149.718606 
L 88.246458 149.86843 
L 88.903122 149.932342 
L 92.186441 150.391321 
L 93.8281 150.638631 
L 94.484764 150.615747 
L 96.783087 150.982114 
L 98.753078 151.128134 
L 99.738074 151.187321 
L 102.036397 151.617917 
L 103.021392 151.771386 
L 105.319715 151.983728 
L 107.618038 152.19096 
L 114.184676 152.721497 
L 115.826335 152.808459 
L 116.81133 152.871835 
L 119.109653 152.974192 
L 120.422981 153.005297 
L 122.392972 153.05324 
L 124.034631 153.093174 
L 130.601269 153.369179 
L 132.57126 153.422603 
L 133.884587 153.48679 
L 146.361198 153.705144 
L 147.346194 153.72868 
L 148.987853 153.748826 
L 151.614508 153.829723 
L 164.747782 153.981034 
L 168.031101 153.957289 
L 169.016097 153.987281 
L 170.986088 153.986401 
L 172.299415 154.017667 
L 173.941074 154.012762 
L 184.119362 154.104447 
L 185.43269 154.174082 
L 191.342663 154.24499 
L 194.29765 154.27831 
L 197.252637 154.280053 
L 204.475938 154.306878 
L 205.460933 154.344321 
L 208.41592 154.354655 
L 215.310889 154.369179 
L 216.952548 154.381329 
L 217.937544 154.391101 
L 219.907535 154.350631 
L 221.549194 154.370951 
L 239.935779 154.420554 
L 242.234102 154.41399 
L 256.02404 154.426986 
L 257.994031 154.44216 
L 262.919009 154.497197 
L 267.843987 154.518369 
L 278.022275 154.463359 
L 281.962257 154.516996 
L 351.896944 154.599653 
L 359.120245 154.620459 
L 365.686882 154.608692 
L 368.313537 154.595134 
L 368.313537 154.595134 
" clip-path="url(#pea3b09ccac)" style="fill: none; stroke: #dd8452; stroke-width: 1.5; stroke-linecap: round"/>
   </g>
   <g id="patch_3">
    <path d="M 48.731719 224.64 
L 48.731719 7.2 
" style="fill: none; stroke: #ffffff; stroke-width: 1.25; stroke-linejoin: miter; stroke-linecap: square"/>
   </g>
   <g id="patch_4">
    <path d="M 383.531719 224.64 
L 383.531719 7.2 
" style="fill: none; stroke: #ffffff; stroke-width: 1.25; stroke-linejoin: miter; stroke-linecap: square"/>
   </g>
   <g id="patch_5">
    <path d="M 48.731719 224.64 
L 383.531719 224.64 
" style="fill: none; stroke: #ffffff; stroke-width: 1.25; stroke-linejoin: miter; stroke-linecap: square"/>
   </g>
   <g id="patch_6">
    <path d="M 48.731719 7.2 
L 383.531719 7.2 
" style="fill: none; stroke: #ffffff; stroke-width: 1.25; stroke-linejoin: miter; stroke-linecap: square"/>
   </g>
  </g>
 </g>
 <defs>
  <clipPath id="pea3b09ccac">
   <rect x="48.731719" y="7.2" width="334.8" height="217.44"/>
  </clipPath>
 </defs>
</svg>
