<?xml version="1.0" encoding="utf-8" standalone="no"?>
<!DOCTYPE svg PUBLIC "-//W3C//DTD SVG 1.1//EN"
  "http://www.w3.org/Graphics/SVG/1.1/DTD/svg11.dtd">
<svg xmlns:xlink="http://www.w3.org/1999/xlink" width="667.866584pt" height="368.984pt" viewBox="0 0 667.866584 368.984" xmlns="http://www.w3.org/2000/svg" version="1.1">
 <metadata>
  <rdf:RDF xmlns:dc="http://purl.org/dc/elements/1.1/" xmlns:cc="http://creativecommons.org/ns#" xmlns:rdf="http://www.w3.org/1999/02/22-rdf-syntax-ns#">
   <cc:Work>
    <dc:type rdf:resource="http://purl.org/dc/dcmitype/StillImage"/>
    <dc:date>2022-02-08T23:50:33.483137</dc:date>
    <dc:format>image/svg+xml</dc:format>
    <dc:creator>
     <cc:Agent>
      <dc:title>Matplotlib v3.5.1, https://matplotlib.org/</dc:title>
     </cc:Agent>
    </dc:creator>
   </cc:Work>
  </rdf:RDF>
 </metadata>
 <defs>
  <style type="text/css">*{stroke-linejoin: round; stroke-linecap: butt}</style>
 </defs>
 <g id="figure_1">
  <g id="patch_1">
   <path d="M 0 368.984 
L 667.866584 368.984 
L 667.866584 0 
L 0 0 
z
" style="fill: #ffffff"/>
  </g>
  <g id="axes_1">
   <g id="patch_2">
    <path d="M 146.8625 326.94875 
L 593.2625 326.94875 
L 593.2625 27.96875 
L 146.8625 27.96875 
z
" style="fill: #eaeaf2"/>
   </g>
   <g id="line2d_1">
    <path d="M 321.453307 104.281827 
L 321.453307 41.55875 
" clip-path="url(#padeaedeb86)" style="fill: none; stroke-dasharray: 1.85,0.8; stroke-dashoffset: 0; stroke: #bbbbbb; stroke-width: 0.5"/>
   </g>
   <g id="line2d_2">
    <path d="M 395.914516 139.127981 
L 395.914516 76.404904 
" clip-path="url(#padeaedeb86)" style="fill: none; stroke-dasharray: 1.85,0.8; stroke-dashoffset: 0; stroke: #bbbbbb; stroke-width: 0.5"/>
   </g>
   <g id="line2d_3">
    <path d="M 458.836443 173.974135 
L 458.836443 111.251058 
" clip-path="url(#padeaedeb86)" style="fill: none; stroke-dasharray: 1.85,0.8; stroke-dashoffset: 0; stroke: #bbbbbb; stroke-width: 0.5"/>
   </g>
   <g id="line2d_4">
    <path d="M 503.773551 208.820288 
L 503.773551 146.097212 
" clip-path="url(#padeaedeb86)" style="fill: none; stroke-dasharray: 1.85,0.8; stroke-dashoffset: 0; stroke: #bbbbbb; stroke-width: 0.5"/>
   </g>
   <g id="line2d_5">
    <path d="M 146.8625 299.420288 
L 593.2625 299.420288 
" clip-path="url(#padeaedeb86)" style="fill: none; stroke-dasharray: 0.5,2.5; stroke-dashoffset: 0; stroke: #cccccc; stroke-width: 0.5"/>
   </g>
   <g id="line2d_6">
    <path d="M 146.8625 264.574135 
L 593.2625 264.574135 
" clip-path="url(#padeaedeb86)" style="fill: none; stroke-dasharray: 0.5,2.5; stroke-dashoffset: 0; stroke: #cccccc; stroke-width: 0.5"/>
   </g>
   <g id="line2d_7">
    <path d="M 146.8625 229.727981 
L 593.2625 229.727981 
" clip-path="url(#padeaedeb86)" style="fill: none; stroke-dasharray: 0.5,2.5; stroke-dashoffset: 0; stroke: #cccccc; stroke-width: 0.5"/>
   </g>
   <g id="line2d_8">
    <path d="M 146.8625 194.881827 
L 593.2625 194.881827 
" clip-path="url(#padeaedeb86)" style="fill: none; stroke-dasharray: 0.5,2.5; stroke-dashoffset: 0; stroke: #cccccc; stroke-width: 0.5"/>
   </g>
   <g id="line2d_9">
    <path d="M 146.8625 160.035673 
L 593.2625 160.035673 
" clip-path="url(#padeaedeb86)" style="fill: none; stroke-dasharray: 0.5,2.5; stroke-dashoffset: 0; stroke: #cccccc; stroke-width: 0.5"/>
   </g>
   <g id="line2d_10">
    <path d="M 146.8625 125.189519 
L 593.2625 125.189519 
" clip-path="url(#padeaedeb86)" style="fill: none; stroke-dasharray: 0.5,2.5; stroke-dashoffset: 0; stroke: #cccccc; stroke-width: 0.5"/>
   </g>
   <g id="line2d_11">
    <path d="M 146.8625 90.343365 
L 593.2625 90.343365 
" clip-path="url(#padeaedeb86)" style="fill: none; stroke-dasharray: 0.5,2.5; stroke-dashoffset: 0; stroke: #cccccc; stroke-width: 0.5"/>
   </g>
   <g id="line2d_12">
    <path d="M 146.8625 55.497212 
L 593.2625 55.497212 
" clip-path="url(#padeaedeb86)" style="fill: none; stroke-dasharray: 0.5,2.5; stroke-dashoffset: 0; stroke: #cccccc; stroke-width: 0.5"/>
   </g>
   <g id="line2d_13">
    <path d="M 589.466582 326.94875 
L 589.466582 289.57625 
" clip-path="url(#padeaedeb86)" style="fill: none; stroke-dasharray: 1.85,0.8; stroke-dashoffset: 0; stroke: #bbbbbb; stroke-width: 0.5"/>
   </g>
   <g id="line2d_14">
    <path d="M 209.874745 326.94875 
L 209.874745 27.96875 
" clip-path="url(#padeaedeb86)" style="fill: none; stroke-dasharray: 1.85,0.8; stroke-dashoffset: 0; stroke: #bbbbbb; stroke-width: 0.5"/>
   </g>
   <g id="matplotlib.axis_1">
    <g id="xtick_1">
     <g id="line2d_15">
      <path d="M 181.233117 326.94875 
L 181.233117 27.96875 
" clip-path="url(#padeaedeb86)" style="fill: none; stroke: #ffffff; stroke-linecap: round"/>
     </g>
     <g id="line2d_16">
      <defs>
       <path id="m21548bf97a" d="M 0 0 
L 0 6 
" style="stroke: #262626; stroke-width: 1.25"/>
      </defs>
      <g>
       <use xlink:href="#m21548bf97a" x="181.233117" y="326.94875" style="fill: #262626; stroke: #262626; stroke-width: 1.25"/>
      </g>
     </g>
     <g id="text_1">
      <!-- 0.00 -->
      <g style="fill: #262626" transform="translate(167.233742 346.186562)scale(0.13 -0.13)">
       <defs>
        <path id="IPAexGothic-30" d="M 2038 4725 
Q 2881 4725 3334 3944 
Q 3694 3325 3694 2344 
Q 3694 1372 3334 741 
Q 2888 -31 2016 -31 
Q 1147 -31 700 741 
Q 341 1372 341 2350 
Q 341 3713 1000 4334 
Q 1419 4725 2038 4725 
z
M 2016 4266 
Q 1516 4266 1228 3759 
Q 934 3247 934 2344 
Q 934 1456 1222 947 
Q 1513 447 2016 447 
Q 2619 447 2909 1153 
Q 3100 1622 3100 2375 
Q 3100 3256 2806 3759 
Q 2509 4266 2016 4266 
z
" transform="scale(0.015625)"/>
        <path id="IPAexGothic-2e" d="M 1184 63 
L 494 63 
L 494 753 
L 1184 753 
L 1184 63 
z
" transform="scale(0.015625)"/>
       </defs>
       <use xlink:href="#IPAexGothic-30"/>
       <use xlink:href="#IPAexGothic-2e" x="62.988281"/>
       <use xlink:href="#IPAexGothic-30" x="89.404297"/>
       <use xlink:href="#IPAexGothic-30" x="152.392578"/>
      </g>
     </g>
    </g>
    <g id="xtick_2">
     <g id="line2d_17">
      <path d="M 232.415305 326.94875 
L 232.415305 27.96875 
" clip-path="url(#padeaedeb86)" style="fill: none; stroke: #ffffff; stroke-linecap: round"/>
     </g>
     <g id="line2d_18">
      <g>
       <use xlink:href="#m21548bf97a" x="232.415305" y="326.94875" style="fill: #262626; stroke: #262626; stroke-width: 1.25"/>
      </g>
     </g>
     <g id="text_2">
      <!-- 0.25 -->
      <g style="fill: #262626" transform="translate(218.41593 346.186562)scale(0.13 -0.13)">
       <defs>
        <path id="IPAexGothic-32" d="M 3659 63 
L 447 63 
L 447 594 
Q 825 1475 1894 2203 
L 2072 2322 
Q 2619 2697 2791 2906 
Q 2988 3153 2988 3444 
Q 2988 3772 2756 4003 
Q 2500 4259 2084 4259 
Q 1250 4259 991 3328 
L 497 3506 
Q 853 4725 2116 4725 
Q 2806 4725 3216 4316 
Q 3575 3947 3575 3425 
Q 3575 3038 3344 2722 
Q 3131 2416 2366 1938 
L 2231 1856 
Q 1256 1253 978 569 
L 3659 569 
L 3659 63 
z
" transform="scale(0.015625)"/>
        <path id="IPAexGothic-35" d="M 1178 2603 
Q 1634 2963 2172 2963 
Q 2816 2963 3241 2528 
Q 3638 2113 3638 1497 
Q 3638 938 3297 513 
Q 2869 -31 2031 -31 
Q 959 -31 469 784 
L 938 1028 
Q 1309 434 2013 434 
Q 2466 434 2769 716 
Q 3081 1013 3081 1503 
Q 3081 1966 2806 2241 
Q 2519 2528 2056 2528 
Q 1406 2528 1072 2028 
L 591 2091 
L 884 4634 
L 3406 4634 
L 3406 4153 
L 1341 4153 
L 1134 2603 
L 1178 2603 
z
" transform="scale(0.015625)"/>
       </defs>
       <use xlink:href="#IPAexGothic-30"/>
       <use xlink:href="#IPAexGothic-2e" x="62.988281"/>
       <use xlink:href="#IPAexGothic-32" x="89.404297"/>
       <use xlink:href="#IPAexGothic-35" x="152.392578"/>
      </g>
     </g>
    </g>
    <g id="xtick_3">
     <g id="line2d_19">
      <path d="M 283.597492 326.94875 
L 283.597492 27.96875 
" clip-path="url(#padeaedeb86)" style="fill: none; stroke: #ffffff; stroke-linecap: round"/>
     </g>
     <g id="line2d_20">
      <g>
       <use xlink:href="#m21548bf97a" x="283.597492" y="326.94875" style="fill: #262626; stroke: #262626; stroke-width: 1.25"/>
      </g>
     </g>
     <g id="text_3">
      <!-- 0.50 -->
      <g style="fill: #262626" transform="translate(269.598117 346.186562)scale(0.13 -0.13)">
       <use xlink:href="#IPAexGothic-30"/>
       <use xlink:href="#IPAexGothic-2e" x="62.988281"/>
       <use xlink:href="#IPAexGothic-35" x="89.404297"/>
       <use xlink:href="#IPAexGothic-30" x="152.392578"/>
      </g>
     </g>
    </g>
    <g id="xtick_4">
     <g id="line2d_21">
      <path d="M 334.77968 326.94875 
L 334.77968 27.96875 
" clip-path="url(#padeaedeb86)" style="fill: none; stroke: #ffffff; stroke-linecap: round"/>
     </g>
     <g id="line2d_22">
      <g>
       <use xlink:href="#m21548bf97a" x="334.77968" y="326.94875" style="fill: #262626; stroke: #262626; stroke-width: 1.25"/>
      </g>
     </g>
     <g id="text_4">
      <!-- 0.75 -->
      <g style="fill: #262626" transform="translate(320.780305 346.186562)scale(0.13 -0.13)">
       <defs>
        <path id="IPAexGothic-37" d="M 3597 4263 
Q 2238 2106 1778 63 
L 1131 63 
Q 1581 1834 2950 4128 
L 428 4128 
L 428 4634 
L 3597 4634 
L 3597 4263 
z
" transform="scale(0.015625)"/>
       </defs>
       <use xlink:href="#IPAexGothic-30"/>
       <use xlink:href="#IPAexGothic-2e" x="62.988281"/>
       <use xlink:href="#IPAexGothic-37" x="89.404297"/>
       <use xlink:href="#IPAexGothic-35" x="152.392578"/>
      </g>
     </g>
    </g>
    <g id="xtick_5">
     <g id="line2d_23">
      <path d="M 385.961868 326.94875 
L 385.961868 27.96875 
" clip-path="url(#padeaedeb86)" style="fill: none; stroke: #ffffff; stroke-linecap: round"/>
     </g>
     <g id="line2d_24">
      <g>
       <use xlink:href="#m21548bf97a" x="385.961868" y="326.94875" style="fill: #262626; stroke: #262626; stroke-width: 1.25"/>
      </g>
     </g>
     <g id="text_5">
      <!-- 1.00 -->
      <g style="fill: #262626" transform="translate(371.962493 346.186562)scale(0.13 -0.13)">
       <defs>
        <path id="IPAexGothic-31" d="M 2463 63 
L 1900 63 
L 1900 4103 
Q 1372 3922 788 3797 
L 684 4231 
Q 1519 4441 2106 4731 
L 2463 4731 
L 2463 63 
z
" transform="scale(0.015625)"/>
       </defs>
       <use xlink:href="#IPAexGothic-31"/>
       <use xlink:href="#IPAexGothic-2e" x="62.988281"/>
       <use xlink:href="#IPAexGothic-30" x="89.404297"/>
       <use xlink:href="#IPAexGothic-30" x="152.392578"/>
      </g>
     </g>
    </g>
    <g id="xtick_6">
     <g id="line2d_25">
      <path d="M 437.144056 326.94875 
L 437.144056 27.96875 
" clip-path="url(#padeaedeb86)" style="fill: none; stroke: #ffffff; stroke-linecap: round"/>
     </g>
     <g id="line2d_26">
      <g>
       <use xlink:href="#m21548bf97a" x="437.144056" y="326.94875" style="fill: #262626; stroke: #262626; stroke-width: 1.25"/>
      </g>
     </g>
     <g id="text_6">
      <!-- 1.25 -->
      <g style="fill: #262626" transform="translate(423.144681 346.186562)scale(0.13 -0.13)">
       <use xlink:href="#IPAexGothic-31"/>
       <use xlink:href="#IPAexGothic-2e" x="62.988281"/>
       <use xlink:href="#IPAexGothic-32" x="89.404297"/>
       <use xlink:href="#IPAexGothic-35" x="152.392578"/>
      </g>
     </g>
    </g>
    <g id="xtick_7">
     <g id="line2d_27">
      <path d="M 488.326243 326.94875 
L 488.326243 27.96875 
" clip-path="url(#padeaedeb86)" style="fill: none; stroke: #ffffff; stroke-linecap: round"/>
     </g>
     <g id="line2d_28">
      <g>
       <use xlink:href="#m21548bf97a" x="488.326243" y="326.94875" style="fill: #262626; stroke: #262626; stroke-width: 1.25"/>
      </g>
     </g>
     <g id="text_7">
      <!-- 1.50 -->
      <g style="fill: #262626" transform="translate(474.326868 346.186562)scale(0.13 -0.13)">
       <use xlink:href="#IPAexGothic-31"/>
       <use xlink:href="#IPAexGothic-2e" x="62.988281"/>
       <use xlink:href="#IPAexGothic-35" x="89.404297"/>
       <use xlink:href="#IPAexGothic-30" x="152.392578"/>
      </g>
     </g>
    </g>
    <g id="xtick_8">
     <g id="line2d_29">
      <path d="M 539.508431 326.94875 
L 539.508431 27.96875 
" clip-path="url(#padeaedeb86)" style="fill: none; stroke: #ffffff; stroke-linecap: round"/>
     </g>
     <g id="line2d_30">
      <g>
       <use xlink:href="#m21548bf97a" x="539.508431" y="326.94875" style="fill: #262626; stroke: #262626; stroke-width: 1.25"/>
      </g>
     </g>
     <g id="text_8">
      <!-- 1.75 -->
      <g style="fill: #262626" transform="translate(525.509056 346.186562)scale(0.13 -0.13)">
       <use xlink:href="#IPAexGothic-31"/>
       <use xlink:href="#IPAexGothic-2e" x="62.988281"/>
       <use xlink:href="#IPAexGothic-37" x="89.404297"/>
       <use xlink:href="#IPAexGothic-35" x="152.392578"/>
      </g>
     </g>
    </g>
    <g id="xtick_9">
     <g id="line2d_31">
      <path d="M 590.690619 326.94875 
L 590.690619 27.96875 
" clip-path="url(#padeaedeb86)" style="fill: none; stroke: #ffffff; stroke-linecap: round"/>
     </g>
     <g id="line2d_32">
      <g>
       <use xlink:href="#m21548bf97a" x="590.690619" y="326.94875" style="fill: #262626; stroke: #262626; stroke-width: 1.25"/>
      </g>
     </g>
     <g id="text_9">
      <!-- 2.00 -->
      <g style="fill: #262626" transform="translate(576.691244 346.186562)scale(0.13 -0.13)">
       <use xlink:href="#IPAexGothic-32"/>
       <use xlink:href="#IPAexGothic-2e" x="62.988281"/>
       <use xlink:href="#IPAexGothic-30" x="89.404297"/>
       <use xlink:href="#IPAexGothic-30" x="152.392578"/>
      </g>
     </g>
    </g>
   </g>
   <g id="matplotlib.axis_2">
    <g id="ytick_1">
     <g id="line2d_33">
      <path d="M 146.8625 299.420288 
L 593.2625 299.420288 
" clip-path="url(#padeaedeb86)" style="fill: none; stroke: #ffffff; stroke-linecap: round"/>
     </g>
     <g id="text_10">
      <!-- 52 = HouseAge -->
      <g style="fill: #999999" transform="translate(43.396875 304.251617)scale(0.13 -0.13)">
       <defs>
        <path id="IPAexGothic-20" transform="scale(0.015625)"/>
        <path id="IPAexGothic-3d" d="M 416 2803 
L 3922 2803 
L 3922 2438 
L 416 2438 
L 416 2803 
z
M 416 1625 
L 3922 1625 
L 3922 1259 
L 416 1259 
L 416 1625 
z
" transform="scale(0.015625)"/>
        <path id="IPAexGothic-48" d="M 4181 63 
L 3619 63 
L 3619 2200 
L 1172 2200 
L 1172 63 
L 609 63 
L 609 4634 
L 1172 4634 
L 1172 2669 
L 3619 2669 
L 3619 4634 
L 4181 4634 
L 4181 63 
z
" transform="scale(0.015625)"/>
        <path id="IPAexGothic-6f" d="M 1919 3341 
Q 2594 3341 3056 2888 
Q 3531 2413 3531 1638 
Q 3531 888 3066 422 
Q 2609 -31 1919 -31 
Q 1228 -31 781 416 
Q 313 881 313 1656 
Q 313 2413 788 2888 
Q 1241 3341 1919 3341 
z
M 1919 2919 
Q 1519 2919 1241 2631 
Q 888 2278 888 1650 
Q 888 1031 1234 684 
Q 1516 403 1919 403 
Q 2331 403 2609 691 
Q 2956 1038 2956 1672 
Q 2956 2269 2603 2631 
Q 2316 2919 1919 2919 
z
" transform="scale(0.015625)"/>
        <path id="IPAexGothic-75" d="M 3284 63 
L 2772 63 
L 2772 644 
Q 2300 0 1625 0 
Q 1072 0 763 375 
Q 519 678 519 1241 
L 519 3250 
L 1069 3250 
L 1069 1259 
Q 1069 466 1734 466 
Q 2406 466 2734 1291 
L 2734 3250 
L 3284 3250 
L 3284 63 
z
" transform="scale(0.015625)"/>
        <path id="IPAexGothic-73" d="M 2234 2547 
Q 1938 2931 1484 2931 
Q 891 2931 891 2475 
Q 891 2153 1531 1944 
L 1741 1875 
Q 2650 1578 2650 894 
Q 2650 434 2272 172 
Q 1972 -31 1497 -31 
Q 766 -31 256 503 
L 603 819 
Q 997 397 1516 397 
Q 2131 397 2131 875 
Q 2131 1238 1453 1478 
L 1234 1553 
Q 378 1853 378 2431 
Q 378 2797 628 3047 
Q 928 3347 1453 3347 
Q 2156 3347 2606 2859 
L 2234 2547 
z
" transform="scale(0.015625)"/>
        <path id="IPAexGothic-65" d="M 863 1594 
Q 891 1041 1209 722 
Q 1534 397 1997 397 
Q 2606 397 2963 966 
L 3322 728 
Q 2869 -31 1931 -31 
Q 1222 -31 766 422 
Q 306 884 306 1641 
Q 306 2444 788 2925 
Q 1216 3353 1856 3353 
Q 2459 3353 2866 2956 
Q 3322 2494 3322 1722 
L 3322 1594 
L 863 1594 
z
M 2756 1997 
Q 2709 2431 2450 2681 
Q 2194 2938 1844 2938 
Q 1438 2938 1150 2591 
Q 953 2356 894 1997 
L 2756 1997 
z
" transform="scale(0.015625)"/>
        <path id="IPAexGothic-41" d="M 4056 63 
L 3444 63 
L 2938 1409 
L 1100 1409 
L 603 63 
L -6 63 
L 1806 4666 
L 2259 4666 
L 4056 63 
z
M 2778 1863 
L 2316 3078 
Q 2125 3588 2028 4000 
L 2009 4000 
Q 1897 3563 1716 3078 
L 1263 1863 
L 2778 1863 
z
" transform="scale(0.015625)"/>
        <path id="IPAexGothic-67" d="M 1331 1150 
Q 1006 1122 1006 900 
Q 1006 613 1763 575 
L 2131 556 
Q 3303 497 3303 -294 
Q 3303 -700 2925 -959 
Q 2519 -1253 1794 -1253 
Q 1138 -1253 738 -1028 
Q 353 -809 353 -428 
Q 353 84 1075 247 
L 1075 269 
Q 506 413 506 778 
Q 506 1116 994 1297 
Q 456 1575 456 2181 
Q 456 2650 769 2963 
Q 1128 3322 1738 3322 
Q 2125 3322 2422 3153 
Q 2650 3453 3259 3463 
L 3259 3013 
Q 2838 3003 2703 2938 
Q 3034 2613 3034 2169 
Q 3034 1728 2734 1425 
Q 2400 1094 1813 1094 
Q 1563 1094 1331 1150 
z
M 1734 2919 
Q 1409 2919 1197 2706 
Q 988 2497 988 2181 
Q 988 1872 1184 1684 
Q 1397 1472 1756 1472 
Q 2094 1472 2297 1678 
Q 2503 1881 2503 2203 
Q 2503 2497 2297 2700 
Q 2081 2919 1734 2919 
z
M 1753 159 
Q 903 159 903 -366 
Q 903 -875 1800 -875 
Q 2378 -875 2638 -606 
Q 2772 -481 2772 -313 
Q 2772 159 1753 159 
z
" transform="scale(0.015625)"/>
       </defs>
       <use xlink:href="#IPAexGothic-35"/>
       <use xlink:href="#IPAexGothic-32" x="62.988281"/>
       <use xlink:href="#IPAexGothic-20" x="125.976562"/>
       <use xlink:href="#IPAexGothic-3d" x="152.978516"/>
       <use xlink:href="#IPAexGothic-20" x="220.800781"/>
       <use xlink:href="#IPAexGothic-48" x="247.802734"/>
       <use xlink:href="#IPAexGothic-6f" x="322.802734"/>
       <use xlink:href="#IPAexGothic-75" x="383.203125"/>
       <use xlink:href="#IPAexGothic-73" x="443.603516"/>
       <use xlink:href="#IPAexGothic-65" x="489.794922"/>
       <use xlink:href="#IPAexGothic-41" x="546.679688"/>
       <use xlink:href="#IPAexGothic-67" x="610.400391"/>
       <use xlink:href="#IPAexGothic-65" x="665.917969"/>
      </g>
     </g>
    </g>
    <g id="ytick_2">
     <g id="line2d_34">
      <path d="M 146.8625 264.574135 
L 593.2625 264.574135 
" clip-path="url(#padeaedeb86)" style="fill: none; stroke: #ffffff; stroke-linecap: round"/>
     </g>
     <g id="text_11">
      <!-- 193 = Population -->
      <g style="fill: #999999" transform="translate(30.732031 269.443041)scale(0.13 -0.13)">
       <defs>
        <path id="IPAexGothic-39" d="M 2984 2356 
Q 2544 1716 1813 1716 
Q 1253 1716 847 2056 
Q 366 2459 366 3163 
Q 366 3813 769 4266 
Q 1181 4725 1869 4725 
Q 2800 4725 3241 3950 
Q 3559 3378 3559 2472 
Q 3559 1250 3041 588 
Q 2553 -31 1769 -31 
Q 859 -31 391 703 
L 853 953 
Q 1156 428 1753 428 
Q 2922 428 3009 2356 
L 2984 2356 
z
M 1888 4278 
Q 1450 4278 1172 3950 
Q 922 3653 922 3200 
Q 922 2741 1159 2478 
Q 1434 2163 1906 2163 
Q 2431 2163 2728 2572 
Q 2925 2847 2925 3169 
Q 2925 3553 2694 3863 
Q 2375 4278 1888 4278 
z
" transform="scale(0.015625)"/>
        <path id="IPAexGothic-33" d="M 2381 2419 
Q 3506 2216 3506 1278 
Q 3506 716 3128 356 
Q 2709 -31 1944 -31 
Q 797 -31 288 881 
L 756 1131 
Q 1109 441 1938 441 
Q 2425 441 2694 691 
Q 2950 928 2950 1291 
Q 2950 1719 2566 1978 
Q 2216 2213 1644 2213 
L 1363 2213 
L 1363 2669 
L 1656 2669 
Q 2231 2669 2534 2888 
Q 2859 3119 2859 3509 
Q 2859 3934 2494 4138 
Q 2259 4278 1931 4278 
Q 1238 4278 903 3578 
L 434 3803 
Q 897 4725 1938 4725 
Q 2597 4725 3006 4394 
Q 3416 4069 3416 3534 
Q 3416 3028 3019 2706 
Q 2763 2500 2381 2444 
L 2381 2419 
z
" transform="scale(0.015625)"/>
        <path id="IPAexGothic-50" d="M 609 4634 
L 1941 4634 
Q 3688 4634 3688 3322 
Q 3688 1934 1906 1934 
L 1172 1934 
L 1172 63 
L 609 63 
L 609 4634 
z
M 1172 2381 
L 1800 2381 
Q 3100 2381 3100 3316 
Q 3100 4181 1894 4181 
L 1172 4181 
L 1172 2381 
z
" transform="scale(0.015625)"/>
        <path id="IPAexGothic-70" d="M 1075 2688 
Q 1525 3341 2206 3341 
Q 2769 3341 3172 2938 
Q 3641 2469 3641 1644 
Q 3641 841 3178 372 
Q 2775 -31 2200 -31 
Q 1569 -31 1106 497 
L 1106 -1216 
L 563 -1216 
L 563 3250 
L 1075 3250 
L 1075 2688 
z
M 1106 1950 
L 1106 1291 
Q 1106 897 1516 600 
Q 1791 403 2106 403 
Q 2469 403 2725 659 
Q 3066 997 3066 1631 
Q 3066 2200 2784 2559 
Q 2503 2900 2100 2900 
Q 1656 2900 1338 2484 
Q 1106 2184 1106 1950 
z
" transform="scale(0.015625)"/>
        <path id="IPAexGothic-6c" d="M 1131 63 
L 581 63 
L 581 4794 
L 1131 4794 
L 1131 63 
z
" transform="scale(0.015625)"/>
        <path id="IPAexGothic-61" d="M 3156 63 
L 2672 63 
Q 2559 303 2531 556 
L 2509 556 
Q 2147 -25 1428 -25 
Q 934 -25 622 288 
Q 347 563 347 959 
Q 347 1947 2050 1997 
L 2478 2009 
L 2478 2175 
Q 2478 2509 2288 2700 
Q 2088 2900 1775 2900 
Q 1238 2900 969 2378 
L 494 2597 
Q 938 3328 1788 3328 
Q 2375 3328 2691 3000 
Q 2984 2706 2984 2169 
L 2984 997 
Q 2984 400 3156 63 
z
M 2491 1625 
L 2141 1619 
Q 903 1591 903 953 
Q 903 728 1050 581 
Q 1231 403 1525 403 
Q 1934 403 2234 703 
Q 2491 969 2491 1344 
L 2491 1625 
z
" transform="scale(0.015625)"/>
        <path id="IPAexGothic-74" d="M 2125 241 
Q 1769 -6 1397 -6 
Q 653 -6 653 831 
L 653 2859 
L 219 2859 
L 219 3250 
L 653 3250 
L 653 3966 
L 1178 4228 
L 1178 3250 
L 2063 3250 
L 2063 2859 
L 1178 2859 
L 1178 906 
Q 1178 416 1513 416 
Q 1738 416 1941 588 
L 2125 241 
z
" transform="scale(0.015625)"/>
        <path id="IPAexGothic-69" d="M 1178 3928 
L 550 3928 
L 550 4569 
L 1178 4569 
L 1178 3928 
z
M 1138 63 
L 588 63 
L 588 3250 
L 1138 3250 
L 1138 63 
z
" transform="scale(0.015625)"/>
        <path id="IPAexGothic-6e" d="M 3328 63 
L 2778 63 
L 2778 2041 
Q 2778 2853 2106 2853 
Q 1428 2853 1113 2041 
L 1113 63 
L 563 63 
L 563 3250 
L 1075 3250 
L 1075 2675 
Q 1525 3316 2222 3316 
Q 3328 3316 3328 2072 
L 3328 63 
z
" transform="scale(0.015625)"/>
       </defs>
       <use xlink:href="#IPAexGothic-31"/>
       <use xlink:href="#IPAexGothic-39" x="62.988281"/>
       <use xlink:href="#IPAexGothic-33" x="125.976562"/>
       <use xlink:href="#IPAexGothic-20" x="188.964844"/>
       <use xlink:href="#IPAexGothic-3d" x="215.966797"/>
       <use xlink:href="#IPAexGothic-20" x="283.789062"/>
       <use xlink:href="#IPAexGothic-50" x="310.791016"/>
       <use xlink:href="#IPAexGothic-6f" x="372.900391"/>
       <use xlink:href="#IPAexGothic-70" x="433.300781"/>
       <use xlink:href="#IPAexGothic-75" x="495.410156"/>
       <use xlink:href="#IPAexGothic-6c" x="555.810547"/>
       <use xlink:href="#IPAexGothic-61" x="582.8125"/>
       <use xlink:href="#IPAexGothic-74" x="637.792969"/>
       <use xlink:href="#IPAexGothic-69" x="672.412109"/>
       <use xlink:href="#IPAexGothic-6f" x="699.414062"/>
       <use xlink:href="#IPAexGothic-6e" x="759.814453"/>
      </g>
     </g>
    </g>
    <g id="ytick_3">
     <g id="line2d_35">
      <path d="M 146.8625 229.727981 
L 593.2625 229.727981 
" clip-path="url(#padeaedeb86)" style="fill: none; stroke: #ffffff; stroke-linecap: round"/>
     </g>
     <g id="text_12">
      <!-- 4.825 = AveOccup -->
      <g style="fill: #999999" transform="translate(22.915781 234.596887)scale(0.13 -0.13)">
       <defs>
        <path id="IPAexGothic-34" d="M 3813 1159 
L 3059 1159 
L 3059 63 
L 2547 63 
L 2547 1159 
L 197 1159 
L 197 1672 
L 2456 4678 
L 3059 4678 
L 3059 1634 
L 3813 1634 
L 3813 1159 
z
M 2578 4109 
L 2559 4109 
Q 2278 3656 2003 3284 
L 759 1634 
L 2547 1634 
L 2547 3144 
Q 2547 3481 2578 4109 
z
" transform="scale(0.015625)"/>
        <path id="IPAexGothic-38" d="M 2541 2425 
Q 3700 2031 3700 1197 
Q 3700 541 3100 197 
Q 2663 -56 2016 -56 
Q 1366 -56 928 197 
Q 347 531 347 1178 
Q 347 1988 1409 2381 
L 1409 2400 
Q 481 2734 481 3509 
Q 481 4100 981 4456 
Q 1406 4756 2019 4756 
Q 2703 4756 3131 4403 
Q 3553 4069 3553 3566 
Q 3553 2706 2541 2444 
L 2541 2425 
z
M 2022 2625 
Q 2997 2856 2997 3528 
Q 2997 3916 2675 4150 
Q 2413 4347 2016 4347 
Q 1606 4347 1331 4128 
Q 1050 3897 1050 3522 
Q 1050 3150 1350 2925 
Q 1494 2809 1722 2722 
Q 1984 2616 2022 2625 
z
M 1978 2209 
Q 922 1931 922 1216 
Q 922 775 1313 556 
Q 1606 391 2009 391 
Q 2575 391 2881 697 
Q 3106 922 3106 1250 
Q 3106 1594 2794 1850 
Q 2609 1994 2350 2100 
Q 2047 2222 1978 2209 
z
" transform="scale(0.015625)"/>
        <path id="IPAexGothic-76" d="M 3103 3250 
L 1747 6 
L 1375 6 
L 25 3250 
L 628 3250 
L 1338 1388 
L 1522 844 
L 1569 703 
L 1588 703 
Q 1641 884 1822 1388 
L 2516 3250 
L 3103 3250 
z
" transform="scale(0.015625)"/>
        <path id="IPAexGothic-4f" d="M 2541 4725 
Q 3456 4725 4044 4138 
Q 4709 3472 4709 2331 
Q 4709 1219 4031 550 
Q 3450 -31 2541 -31 
Q 1638 -31 1056 550 
Q 378 1219 378 2356 
Q 378 3469 1044 4138 
Q 1631 4725 2541 4725 
z
M 2541 4266 
Q 1953 4266 1531 3844 
Q 994 3303 994 2350 
Q 994 1391 1531 863 
Q 1947 447 2541 447 
Q 3131 447 3556 863 
Q 4094 1400 4094 2375 
Q 4094 3297 3550 3844 
Q 3138 4266 2541 4266 
z
" transform="scale(0.015625)"/>
        <path id="IPAexGothic-63" d="M 3269 784 
Q 2834 -31 1900 -31 
Q 1228 -31 788 409 
Q 313 891 313 1663 
Q 313 2428 788 2913 
Q 1222 3347 1881 3347 
Q 2813 3347 3206 2541 
L 2763 2309 
Q 2484 2900 1900 2900 
Q 1516 2900 1234 2619 
Q 881 2266 881 1650 
Q 881 1069 1222 728 
Q 1522 428 1956 428 
Q 2547 428 2847 1016 
L 3269 784 
z
" transform="scale(0.015625)"/>
       </defs>
       <use xlink:href="#IPAexGothic-34"/>
       <use xlink:href="#IPAexGothic-2e" x="62.988281"/>
       <use xlink:href="#IPAexGothic-38" x="89.404297"/>
       <use xlink:href="#IPAexGothic-32" x="152.392578"/>
       <use xlink:href="#IPAexGothic-35" x="215.380859"/>
       <use xlink:href="#IPAexGothic-20" x="278.369141"/>
       <use xlink:href="#IPAexGothic-3d" x="305.371094"/>
       <use xlink:href="#IPAexGothic-20" x="373.193359"/>
       <use xlink:href="#IPAexGothic-41" x="400.195312"/>
       <use xlink:href="#IPAexGothic-76" x="463.916016"/>
       <use xlink:href="#IPAexGothic-65" x="512.5"/>
       <use xlink:href="#IPAexGothic-4f" x="569.384766"/>
       <use xlink:href="#IPAexGothic-63" x="649.072266"/>
       <use xlink:href="#IPAexGothic-63" x="703.466797"/>
       <use xlink:href="#IPAexGothic-75" x="757.861328"/>
       <use xlink:href="#IPAexGothic-70" x="818.261719"/>
      </g>
     </g>
    </g>
    <g id="ytick_4">
     <g id="line2d_36">
      <path d="M 146.8625 194.881827 
L 593.2625 194.881827 
" clip-path="url(#padeaedeb86)" style="fill: none; stroke: #ffffff; stroke-linecap: round"/>
     </g>
     <g id="text_13">
      <!-- 0.7 = AveBedrms -->
      <g style="fill: #999999" transform="translate(33.500625 199.750733)scale(0.13 -0.13)">
       <defs>
        <path id="IPAexGothic-42" d="M 2688 2425 
Q 3816 2225 3816 1338 
Q 3816 556 3041 222 
Q 2672 63 2094 63 
L 609 63 
L 609 4634 
L 1916 4634 
Q 2494 4634 2869 4500 
Q 3644 4222 3644 3491 
Q 3644 2609 2688 2447 
L 2688 2425 
z
M 1159 2656 
L 1844 2656 
Q 3063 2656 3063 3431 
Q 3063 4181 1881 4181 
L 1159 4181 
L 1159 2656 
z
M 1159 522 
L 2016 522 
Q 3222 522 3222 1369 
Q 3222 1897 2625 2100 
Q 2278 2222 1875 2222 
L 1159 2222 
L 1159 522 
z
" transform="scale(0.015625)"/>
        <path id="IPAexGothic-64" d="M 3391 63 
L 2891 63 
L 2891 619 
Q 2441 -31 1753 -31 
Q 1181 -31 788 372 
Q 313 844 313 1663 
Q 313 2466 772 2938 
Q 1169 3341 1753 3341 
Q 2384 3341 2847 2809 
L 2847 4794 
L 3391 4794 
L 3391 63 
z
M 2847 1303 
L 2847 2097 
Q 2847 2413 2456 2706 
Q 2181 2906 1853 2906 
Q 1484 2906 1228 2650 
Q 888 2309 888 1678 
Q 888 1109 1169 750 
Q 1441 409 1847 409 
Q 2322 409 2656 875 
Q 2847 1134 2847 1303 
z
" transform="scale(0.015625)"/>
        <path id="IPAexGothic-72" d="M 2309 3316 
L 2213 2769 
Q 2106 2791 2022 2791 
Q 1653 2791 1413 2444 
Q 1113 2006 1113 1675 
L 1113 63 
L 563 63 
L 563 3250 
L 1081 3250 
L 1056 2303 
L 1069 2303 
Q 1422 3341 2097 3341 
Q 2206 3341 2309 3316 
z
" transform="scale(0.015625)"/>
        <path id="IPAexGothic-6d" d="M 5022 63 
L 4472 63 
L 4472 2059 
Q 4472 2869 3847 2869 
Q 3550 2869 3303 2594 
Q 3128 2397 3059 2103 
L 3059 63 
L 2509 63 
L 2509 2066 
Q 2509 2869 1919 2869 
Q 1606 2869 1369 2594 
Q 1113 2306 1113 2041 
L 1113 63 
L 563 63 
L 563 3250 
L 1075 3250 
L 1075 2700 
Q 1391 3316 2028 3316 
Q 2725 3316 2956 2647 
Q 3303 3316 3953 3316 
Q 4478 3316 4772 2944 
Q 5022 2638 5022 2072 
L 5022 63 
z
" transform="scale(0.015625)"/>
       </defs>
       <use xlink:href="#IPAexGothic-30"/>
       <use xlink:href="#IPAexGothic-2e" x="62.988281"/>
       <use xlink:href="#IPAexGothic-37" x="89.404297"/>
       <use xlink:href="#IPAexGothic-20" x="152.392578"/>
       <use xlink:href="#IPAexGothic-3d" x="179.394531"/>
       <use xlink:href="#IPAexGothic-20" x="247.216797"/>
       <use xlink:href="#IPAexGothic-41" x="274.21875"/>
       <use xlink:href="#IPAexGothic-76" x="337.939453"/>
       <use xlink:href="#IPAexGothic-65" x="386.523438"/>
       <use xlink:href="#IPAexGothic-42" x="443.408203"/>
       <use xlink:href="#IPAexGothic-65" x="509.326172"/>
       <use xlink:href="#IPAexGothic-64" x="566.210938"/>
       <use xlink:href="#IPAexGothic-72" x="628.613281"/>
       <use xlink:href="#IPAexGothic-6d" x="665.625"/>
       <use xlink:href="#IPAexGothic-73" x="752.734375"/>
      </g>
     </g>
    </g>
    <g id="ytick_5">
     <g id="line2d_37">
      <path d="M 146.8625 160.035673 
L 593.2625 160.035673 
" clip-path="url(#padeaedeb86)" style="fill: none; stroke: #ffffff; stroke-linecap: round"/>
     </g>
     <g id="text_14">
      <!-- 1.975 = MedInc -->
      <g style="fill: #999999" transform="translate(39.42375 164.904579)scale(0.13 -0.13)">
       <defs>
        <path id="IPAexGothic-4d" d="M 5147 63 
L 4597 63 
L 4597 2534 
Q 4597 3281 4634 4134 
L 4609 4134 
Q 4356 3409 4066 2675 
L 3066 209 
L 2650 209 
L 1641 2725 
Q 1328 3506 1128 4141 
L 1103 4141 
Q 1141 3131 1141 2553 
L 1141 63 
L 609 63 
L 609 4634 
L 1416 4634 
L 2503 1944 
Q 2697 1472 2869 906 
L 2888 906 
Q 3028 1416 3234 1931 
L 4316 4634 
L 5147 4634 
L 5147 63 
z
" transform="scale(0.015625)"/>
        <path id="IPAexGothic-49" d="M 1203 63 
L 634 63 
L 634 4634 
L 1203 4634 
L 1203 63 
z
" transform="scale(0.015625)"/>
       </defs>
       <use xlink:href="#IPAexGothic-31"/>
       <use xlink:href="#IPAexGothic-2e" x="62.988281"/>
       <use xlink:href="#IPAexGothic-39" x="89.404297"/>
       <use xlink:href="#IPAexGothic-37" x="152.392578"/>
       <use xlink:href="#IPAexGothic-35" x="215.380859"/>
       <use xlink:href="#IPAexGothic-20" x="278.369141"/>
       <use xlink:href="#IPAexGothic-3d" x="305.371094"/>
       <use xlink:href="#IPAexGothic-20" x="373.193359"/>
       <use xlink:href="#IPAexGothic-4d" x="400.195312"/>
       <use xlink:href="#IPAexGothic-65" x="490.380859"/>
       <use xlink:href="#IPAexGothic-64" x="547.265625"/>
       <use xlink:href="#IPAexGothic-49" x="609.667969"/>
       <use xlink:href="#IPAexGothic-6e" x="638.574219"/>
       <use xlink:href="#IPAexGothic-63" x="698.974609"/>
      </g>
     </g>
    </g>
    <g id="ytick_6">
     <g id="line2d_38">
      <path d="M 146.8625 125.189519 
L 593.2625 125.189519 
" clip-path="url(#padeaedeb86)" style="fill: none; stroke: #ffffff; stroke-linecap: round"/>
     </g>
     <g id="text_15">
      <!-- −119.79 = Longitude -->
      <g style="fill: #999999" transform="translate(7.2 130.058425)scale(0.13 -0.13)">
       <defs>
        <path id="IPAexGothic-2212" d="M 416 2222 
L 3922 2222 
L 3922 1856 
L 416 1856 
L 416 2222 
z
" transform="scale(0.015625)"/>
        <path id="IPAexGothic-4c" d="M 3347 63 
L 609 63 
L 609 4634 
L 1178 4634 
L 1178 563 
L 3347 563 
L 3347 63 
z
" transform="scale(0.015625)"/>
       </defs>
       <use xlink:href="#IPAexGothic-2212"/>
       <use xlink:href="#IPAexGothic-31" x="67.822266"/>
       <use xlink:href="#IPAexGothic-31" x="130.810547"/>
       <use xlink:href="#IPAexGothic-39" x="193.798828"/>
       <use xlink:href="#IPAexGothic-2e" x="256.787109"/>
       <use xlink:href="#IPAexGothic-37" x="283.203125"/>
       <use xlink:href="#IPAexGothic-39" x="346.191406"/>
       <use xlink:href="#IPAexGothic-20" x="409.179688"/>
       <use xlink:href="#IPAexGothic-3d" x="436.181641"/>
       <use xlink:href="#IPAexGothic-20" x="504.003906"/>
       <use xlink:href="#IPAexGothic-4c" x="531.005859"/>
       <use xlink:href="#IPAexGothic-6f" x="583.59375"/>
       <use xlink:href="#IPAexGothic-6e" x="643.994141"/>
       <use xlink:href="#IPAexGothic-67" x="704.394531"/>
       <use xlink:href="#IPAexGothic-69" x="759.912109"/>
       <use xlink:href="#IPAexGothic-74" x="786.914062"/>
       <use xlink:href="#IPAexGothic-75" x="821.533203"/>
       <use xlink:href="#IPAexGothic-64" x="881.933594"/>
       <use xlink:href="#IPAexGothic-65" x="944.335938"/>
      </g>
     </g>
    </g>
    <g id="ytick_7">
     <g id="line2d_39">
      <path d="M 146.8625 90.343365 
L 593.2625 90.343365 
" clip-path="url(#padeaedeb86)" style="fill: none; stroke: #ffffff; stroke-linecap: round"/>
     </g>
     <g id="text_16">
      <!-- 2.8 = AveRooms -->
      <g style="fill: #999999" transform="translate(38.261875 95.212272)scale(0.13 -0.13)">
       <defs>
        <path id="IPAexGothic-52" d="M 4072 63 
L 3394 63 
Q 3138 641 2828 1197 
Q 2584 1641 2344 1825 
Q 2050 2044 1625 2044 
L 1172 2044 
L 1172 63 
L 609 63 
L 609 4634 
L 2009 4634 
Q 2713 4634 3131 4378 
Q 3688 4044 3688 3381 
Q 3688 2784 3181 2459 
Q 2906 2272 2522 2216 
L 2522 2197 
Q 2941 2050 3247 1581 
Q 3516 1166 4072 63 
z
M 1172 2478 
L 1869 2478 
Q 3106 2478 3106 3369 
Q 3106 4181 1928 4181 
L 1172 4181 
L 1172 2478 
z
" transform="scale(0.015625)"/>
       </defs>
       <use xlink:href="#IPAexGothic-32"/>
       <use xlink:href="#IPAexGothic-2e" x="62.988281"/>
       <use xlink:href="#IPAexGothic-38" x="89.404297"/>
       <use xlink:href="#IPAexGothic-20" x="152.392578"/>
       <use xlink:href="#IPAexGothic-3d" x="179.394531"/>
       <use xlink:href="#IPAexGothic-20" x="247.216797"/>
       <use xlink:href="#IPAexGothic-41" x="274.21875"/>
       <use xlink:href="#IPAexGothic-76" x="337.939453"/>
       <use xlink:href="#IPAexGothic-65" x="386.523438"/>
       <use xlink:href="#IPAexGothic-52" x="443.408203"/>
       <use xlink:href="#IPAexGothic-6f" x="508.203125"/>
       <use xlink:href="#IPAexGothic-6f" x="568.603516"/>
       <use xlink:href="#IPAexGothic-6d" x="629.003906"/>
       <use xlink:href="#IPAexGothic-73" x="716.113281"/>
      </g>
     </g>
    </g>
    <g id="ytick_8">
     <g id="line2d_40">
      <path d="M 146.8625 55.497212 
L 593.2625 55.497212 
" clip-path="url(#padeaedeb86)" style="fill: none; stroke: #ffffff; stroke-linecap: round"/>
     </g>
     <g id="text_17">
      <!-- 36.73 = Latitude -->
      <g style="fill: #999999" transform="translate(35.479063 60.366118)scale(0.13 -0.13)">
       <defs>
        <path id="IPAexGothic-36" d="M 1056 2328 
Q 1509 2981 2234 2981 
Q 2906 2981 3316 2513 
Q 3675 2106 3675 1522 
Q 3675 884 3272 434 
Q 2853 -31 2178 -31 
Q 1375 -31 922 581 
Q 481 1178 481 2228 
Q 481 3425 1013 4109 
Q 1494 4725 2272 4725 
Q 3191 4725 3609 4025 
L 3150 3775 
Q 2894 4266 2300 4266 
Q 1119 4266 1031 2328 
L 1056 2328 
z
M 2141 2547 
Q 1684 2547 1384 2206 
Q 1116 1900 1116 1541 
Q 1116 1156 1353 844 
Q 1672 428 2159 428 
Q 2669 428 2941 844 
Q 3125 1128 3125 1503 
Q 3125 1944 2881 2228 
Q 2600 2547 2141 2547 
z
" transform="scale(0.015625)"/>
       </defs>
       <use xlink:href="#IPAexGothic-33"/>
       <use xlink:href="#IPAexGothic-36" x="62.988281"/>
       <use xlink:href="#IPAexGothic-2e" x="125.976562"/>
       <use xlink:href="#IPAexGothic-37" x="152.392578"/>
       <use xlink:href="#IPAexGothic-33" x="215.380859"/>
       <use xlink:href="#IPAexGothic-20" x="278.369141"/>
       <use xlink:href="#IPAexGothic-3d" x="305.371094"/>
       <use xlink:href="#IPAexGothic-20" x="373.193359"/>
       <use xlink:href="#IPAexGothic-4c" x="400.195312"/>
       <use xlink:href="#IPAexGothic-61" x="452.783203"/>
       <use xlink:href="#IPAexGothic-74" x="507.763672"/>
       <use xlink:href="#IPAexGothic-69" x="542.382812"/>
       <use xlink:href="#IPAexGothic-74" x="569.384766"/>
       <use xlink:href="#IPAexGothic-75" x="604.003906"/>
       <use xlink:href="#IPAexGothic-64" x="664.404297"/>
       <use xlink:href="#IPAexGothic-65" x="726.806641"/>
      </g>
     </g>
    </g>
    <g id="ytick_9">
     <g id="line2d_41">
      <path d="M 146.8625 299.420288 
L 593.2625 299.420288 
" clip-path="url(#padeaedeb86)" style="fill: none; stroke: #ffffff; stroke-linecap: round"/>
     </g>
     <g id="text_18">
      <!--  HouseAge -->
      <g style="fill: #262626" transform="translate(72.100469 304.251616)scale(0.13 -0.13)">
       <use xlink:href="#IPAexGothic-20"/>
       <use xlink:href="#IPAexGothic-48" x="27.001953"/>
       <use xlink:href="#IPAexGothic-6f" x="102.001953"/>
       <use xlink:href="#IPAexGothic-75" x="162.402344"/>
       <use xlink:href="#IPAexGothic-73" x="222.802734"/>
       <use xlink:href="#IPAexGothic-65" x="268.994141"/>
       <use xlink:href="#IPAexGothic-41" x="325.878906"/>
       <use xlink:href="#IPAexGothic-67" x="389.599609"/>
       <use xlink:href="#IPAexGothic-65" x="445.117188"/>
      </g>
     </g>
    </g>
    <g id="ytick_10">
     <g id="line2d_42">
      <path d="M 146.8625 264.574134 
L 593.2625 264.574134 
" clip-path="url(#padeaedeb86)" style="fill: none; stroke: #ffffff; stroke-linecap: round"/>
     </g>
     <g id="text_19">
      <!--  Population -->
      <g style="fill: #262626" transform="translate(67.623594 269.443041)scale(0.13 -0.13)">
       <use xlink:href="#IPAexGothic-20"/>
       <use xlink:href="#IPAexGothic-50" x="27.001953"/>
       <use xlink:href="#IPAexGothic-6f" x="89.111328"/>
       <use xlink:href="#IPAexGothic-70" x="149.511719"/>
       <use xlink:href="#IPAexGothic-75" x="211.621094"/>
       <use xlink:href="#IPAexGothic-6c" x="272.021484"/>
       <use xlink:href="#IPAexGothic-61" x="299.023438"/>
       <use xlink:href="#IPAexGothic-74" x="354.003906"/>
       <use xlink:href="#IPAexGothic-69" x="388.623047"/>
       <use xlink:href="#IPAexGothic-6f" x="415.625"/>
       <use xlink:href="#IPAexGothic-6e" x="476.025391"/>
      </g>
     </g>
    </g>
    <g id="ytick_11">
     <g id="line2d_43">
      <path d="M 146.8625 229.72798 
L 593.2625 229.72798 
" clip-path="url(#padeaedeb86)" style="fill: none; stroke: #ffffff; stroke-linecap: round"/>
     </g>
     <g id="text_20">
      <!--  AveOccup -->
      <g style="fill: #262626" transform="translate(71.430156 234.596887)scale(0.13 -0.13)">
       <use xlink:href="#IPAexGothic-20"/>
       <use xlink:href="#IPAexGothic-41" x="27.001953"/>
       <use xlink:href="#IPAexGothic-76" x="90.722656"/>
       <use xlink:href="#IPAexGothic-65" x="139.306641"/>
       <use xlink:href="#IPAexGothic-4f" x="196.191406"/>
       <use xlink:href="#IPAexGothic-63" x="275.878906"/>
       <use xlink:href="#IPAexGothic-63" x="330.273438"/>
       <use xlink:href="#IPAexGothic-75" x="384.667969"/>
       <use xlink:href="#IPAexGothic-70" x="445.068359"/>
      </g>
     </g>
    </g>
    <g id="ytick_12">
     <g id="line2d_44">
      <path d="M 146.8625 194.881827 
L 593.2625 194.881827 
" clip-path="url(#padeaedeb86)" style="fill: none; stroke: #ffffff; stroke-linecap: round"/>
     </g>
     <g id="text_21">
      <!--  AveBedrms -->
      <g style="fill: #262626" transform="translate(65.639063 199.750733)scale(0.13 -0.13)">
       <use xlink:href="#IPAexGothic-20"/>
       <use xlink:href="#IPAexGothic-41" x="27.001953"/>
       <use xlink:href="#IPAexGothic-76" x="90.722656"/>
       <use xlink:href="#IPAexGothic-65" x="139.306641"/>
       <use xlink:href="#IPAexGothic-42" x="196.191406"/>
       <use xlink:href="#IPAexGothic-65" x="262.109375"/>
       <use xlink:href="#IPAexGothic-64" x="318.994141"/>
       <use xlink:href="#IPAexGothic-72" x="381.396484"/>
       <use xlink:href="#IPAexGothic-6d" x="418.408203"/>
       <use xlink:href="#IPAexGothic-73" x="505.517578"/>
      </g>
     </g>
    </g>
    <g id="ytick_13">
     <g id="line2d_45">
      <path d="M 146.8625 160.035673 
L 593.2625 160.035673 
" clip-path="url(#padeaedeb86)" style="fill: none; stroke: #ffffff; stroke-linecap: round"/>
     </g>
     <g id="text_22">
      <!--  MedInc -->
      <g style="fill: #262626" transform="translate(87.938125 164.904579)scale(0.13 -0.13)">
       <use xlink:href="#IPAexGothic-20"/>
       <use xlink:href="#IPAexGothic-4d" x="27.001953"/>
       <use xlink:href="#IPAexGothic-65" x="117.1875"/>
       <use xlink:href="#IPAexGothic-64" x="174.072266"/>
       <use xlink:href="#IPAexGothic-49" x="236.474609"/>
       <use xlink:href="#IPAexGothic-6e" x="265.380859"/>
       <use xlink:href="#IPAexGothic-63" x="325.78125"/>
      </g>
     </g>
    </g>
    <g id="ytick_14">
     <g id="line2d_46">
      <path d="M 146.8625 125.189519 
L 593.2625 125.189519 
" clip-path="url(#padeaedeb86)" style="fill: none; stroke: #ffffff; stroke-linecap: round"/>
     </g>
     <g id="text_23">
      <!--  Longitude -->
      <g style="fill: #262626" transform="translate(72.72 130.058425)scale(0.13 -0.13)">
       <use xlink:href="#IPAexGothic-20"/>
       <use xlink:href="#IPAexGothic-4c" x="27.001953"/>
       <use xlink:href="#IPAexGothic-6f" x="79.589844"/>
       <use xlink:href="#IPAexGothic-6e" x="139.990234"/>
       <use xlink:href="#IPAexGothic-67" x="200.390625"/>
       <use xlink:href="#IPAexGothic-69" x="255.908203"/>
       <use xlink:href="#IPAexGothic-74" x="282.910156"/>
       <use xlink:href="#IPAexGothic-75" x="317.529297"/>
       <use xlink:href="#IPAexGothic-64" x="377.929688"/>
       <use xlink:href="#IPAexGothic-65" x="440.332031"/>
      </g>
     </g>
    </g>
    <g id="ytick_15">
     <g id="line2d_47">
      <path d="M 146.8625 90.343365 
L 593.2625 90.343365 
" clip-path="url(#padeaedeb86)" style="fill: none; stroke: #ffffff; stroke-linecap: round"/>
     </g>
     <g id="text_24">
      <!--  AveRooms -->
      <g style="fill: #262626" transform="translate(70.400313 95.212271)scale(0.13 -0.13)">
       <use xlink:href="#IPAexGothic-20"/>
       <use xlink:href="#IPAexGothic-41" x="27.001953"/>
       <use xlink:href="#IPAexGothic-76" x="90.722656"/>
       <use xlink:href="#IPAexGothic-65" x="139.306641"/>
       <use xlink:href="#IPAexGothic-52" x="196.191406"/>
       <use xlink:href="#IPAexGothic-6f" x="260.986328"/>
       <use xlink:href="#IPAexGothic-6f" x="321.386719"/>
       <use xlink:href="#IPAexGothic-6d" x="381.787109"/>
       <use xlink:href="#IPAexGothic-73" x="468.896484"/>
      </g>
     </g>
    </g>
    <g id="ytick_16">
     <g id="line2d_48">
      <path d="M 146.8625 55.497211 
L 593.2625 55.497211 
" clip-path="url(#padeaedeb86)" style="fill: none; stroke: #ffffff; stroke-linecap: round"/>
     </g>
     <g id="text_25">
      <!--  Latitude -->
      <g style="fill: #262626" transform="translate(83.993438 60.366117)scale(0.13 -0.13)">
       <use xlink:href="#IPAexGothic-20"/>
       <use xlink:href="#IPAexGothic-4c" x="27.001953"/>
       <use xlink:href="#IPAexGothic-61" x="79.589844"/>
       <use xlink:href="#IPAexGothic-74" x="134.570312"/>
       <use xlink:href="#IPAexGothic-69" x="169.189453"/>
       <use xlink:href="#IPAexGothic-74" x="196.191406"/>
       <use xlink:href="#IPAexGothic-75" x="230.810547"/>
       <use xlink:href="#IPAexGothic-64" x="291.210938"/>
       <use xlink:href="#IPAexGothic-65" x="353.613281"/>
      </g>
     </g>
    </g>
   </g>
   <g id="patch_3">
    <path d="M 325.249225 69.435673 
L 168.119643 69.435673 
L 168.119643 41.55875 
L 325.249225 41.55875 
L 325.249225 69.435673 
z
" clip-path="url(#padeaedeb86)" style="fill: none; opacity: 0"/>
   </g>
   <g id="patch_4">
    <path d="M 399.710434 104.281827 
L 279.698204 104.281827 
L 279.698204 76.404904 
L 399.710434 76.404904 
L 399.710434 104.281827 
z
" clip-path="url(#padeaedeb86)" style="fill: none; opacity: 0"/>
   </g>
   <g id="patch_5">
    <path d="M 462.632361 139.127981 
L 354.159414 139.127981 
L 354.159414 111.251058 
L 462.632361 111.251058 
L 462.632361 139.127981 
z
" clip-path="url(#padeaedeb86)" style="fill: none; opacity: 0"/>
   </g>
   <g id="patch_6">
    <path d="M 507.56947 173.974135 
L 417.081341 173.974135 
L 417.081341 146.097212 
L 507.56947 146.097212 
L 507.56947 173.974135 
z
" clip-path="url(#padeaedeb86)" style="fill: none; opacity: 0"/>
   </g>
   <g id="patch_7">
    <path d="M 541.812453 208.820288 
L 462.018449 208.820288 
L 462.018449 180.943365 
L 541.812453 180.943365 
L 541.812453 208.820288 
z
" clip-path="url(#padeaedeb86)" style="fill: none; opacity: 0"/>
   </g>
   <g id="patch_8">
    <path d="M 570.537799 243.666442 
L 496.261433 243.666442 
L 496.261433 215.789519 
L 570.537799 215.789519 
L 570.537799 243.666442 
z
" clip-path="url(#padeaedeb86)" style="fill: none; opacity: 0"/>
   </g>
   <g id="patch_9">
    <path d="M 591.271932 278.512596 
L 524.986778 278.512596 
L 524.986778 250.635673 
L 591.271932 250.635673 
L 591.271932 278.512596 
z
" clip-path="url(#padeaedeb86)" style="fill: none; opacity: 0"/>
   </g>
   <g id="patch_10">
    <path d="M 593.2625 313.35875 
L 545.720912 313.35875 
L 545.720912 285.481827 
L 593.2625 285.481827 
L 593.2625 313.35875 
z
" clip-path="url(#padeaedeb86)" style="fill: none; opacity: 0"/>
   </g>
   <g id="patch_11">
    <path d="M 209.874745 55.497212 
L 215.634745 41.55875 
L 215.634745 41.55875 
L 321.453307 41.55875 
L 321.453307 69.435673 
L 215.634745 69.435673 
L 215.634745 69.435673 
z
" clip-path="url(#padeaedeb86)" style="fill: #008bfb; stroke: #008bfb; stroke-linejoin: miter"/>
   </g>
   <g id="patch_12">
    <path d="M 321.453307 90.343365 
L 327.213307 76.404904 
L 327.213307 76.404904 
L 395.914516 76.404904 
L 395.914516 104.281827 
L 327.213307 104.281827 
L 327.213307 104.281827 
z
" clip-path="url(#padeaedeb86)" style="fill: #008bfb; stroke: #008bfb; stroke-linejoin: miter"/>
   </g>
   <g id="patch_13">
    <path d="M 395.914516 125.189519 
L 401.674516 111.251058 
L 401.674516 111.251058 
L 458.836443 111.251058 
L 458.836443 139.127981 
L 401.674516 139.127981 
L 401.674516 139.127981 
z
" clip-path="url(#padeaedeb86)" style="fill: #008bfb; stroke: #008bfb; stroke-linejoin: miter"/>
   </g>
   <g id="patch_14">
    <path d="M 458.836443 160.035673 
L 464.596443 146.097212 
L 464.596443 146.097212 
L 503.773551 146.097212 
L 503.773551 173.974135 
L 464.596443 173.974135 
L 464.596443 173.974135 
z
" clip-path="url(#padeaedeb86)" style="fill: #008bfb; stroke: #008bfb; stroke-linejoin: miter"/>
   </g>
   <g id="patch_15">
    <path d="M 503.773551 194.881827 
L 509.533551 180.943365 
L 509.533551 180.943365 
L 538.016535 180.943365 
L 538.016535 208.820288 
L 509.533551 208.820288 
L 509.533551 208.820288 
z
" clip-path="url(#padeaedeb86)" style="fill: #008bfb; stroke: #008bfb; stroke-linejoin: miter"/>
   </g>
   <g id="patch_16">
    <path d="M 538.016535 229.727981 
L 543.776535 215.789519 
L 543.776535 215.789519 
L 566.741881 215.789519 
L 566.741881 243.666442 
L 543.776535 243.666442 
L 543.776535 243.666442 
z
" clip-path="url(#padeaedeb86)" style="fill: #008bfb; stroke: #008bfb; stroke-linejoin: miter"/>
   </g>
   <g id="patch_17">
    <path d="M 566.741881 264.574135 
L 572.501881 250.635673 
L 572.501881 250.635673 
L 587.476014 250.635673 
L 587.476014 278.512596 
L 572.501881 278.512596 
L 572.501881 278.512596 
z
" clip-path="url(#padeaedeb86)" style="fill: #008bfb; stroke: #008bfb; stroke-linejoin: miter"/>
   </g>
   <g id="patch_18">
    <path d="M 587.475809 299.420288 
L 589.466377 285.481827 
L 589.466377 285.481827 
L 589.466582 285.481827 
L 589.466582 313.35875 
L 589.466377 313.35875 
L 589.466377 313.35875 
z
" clip-path="url(#padeaedeb86)" style="fill: #008bfb; stroke: #008bfb; stroke-linejoin: miter"/>
   </g>
   <g id="patch_19">
    <path d="M 146.8625 326.94875 
L 593.2625 326.94875 
" style="fill: none; stroke: #ffffff; stroke-width: 1.25; stroke-linejoin: miter; stroke-linecap: square"/>
   </g>
   <g id="text_26">
    <!-- −0.55 -->
    <g style="fill: #ffffff" transform="translate(248.671838 58.851587)scale(0.12 -0.12)">
     <use xlink:href="#IPAexGothic-2212"/>
     <use xlink:href="#IPAexGothic-30" x="67.822266"/>
     <use xlink:href="#IPAexGothic-2e" x="130.810547"/>
     <use xlink:href="#IPAexGothic-35" x="157.226562"/>
     <use xlink:href="#IPAexGothic-35" x="220.214844"/>
    </g>
   </g>
   <g id="text_27">
    <!-- −0.36 -->
    <g style="fill: #ffffff" transform="translate(341.691724 93.69774)scale(0.12 -0.12)">
     <use xlink:href="#IPAexGothic-2212"/>
     <use xlink:href="#IPAexGothic-30" x="67.822266"/>
     <use xlink:href="#IPAexGothic-2e" x="130.810547"/>
     <use xlink:href="#IPAexGothic-33" x="157.226562"/>
     <use xlink:href="#IPAexGothic-36" x="220.214844"/>
    </g>
   </g>
   <g id="text_28">
    <!-- −0.31 -->
    <g style="fill: #ffffff" transform="translate(410.383292 128.543894)scale(0.12 -0.12)">
     <use xlink:href="#IPAexGothic-2212"/>
     <use xlink:href="#IPAexGothic-30" x="67.822266"/>
     <use xlink:href="#IPAexGothic-2e" x="130.810547"/>
     <use xlink:href="#IPAexGothic-33" x="157.226562"/>
     <use xlink:href="#IPAexGothic-31" x="220.214844"/>
    </g>
   </g>
   <g id="text_29">
    <!-- −0.22 -->
    <g style="fill: #ffffff" transform="translate(464.31281 163.390048)scale(0.12 -0.12)">
     <use xlink:href="#IPAexGothic-2212"/>
     <use xlink:href="#IPAexGothic-30" x="67.822266"/>
     <use xlink:href="#IPAexGothic-2e" x="130.810547"/>
     <use xlink:href="#IPAexGothic-32" x="157.226562"/>
     <use xlink:href="#IPAexGothic-32" x="220.214844"/>
    </g>
   </g>
   <g id="text_30">
    <!-- −0.17 -->
    <g style="fill: #ffffff" transform="translate(503.902855 198.236202)scale(0.12 -0.12)">
     <use xlink:href="#IPAexGothic-2212"/>
     <use xlink:href="#IPAexGothic-30" x="67.822266"/>
     <use xlink:href="#IPAexGothic-2e" x="130.810547"/>
     <use xlink:href="#IPAexGothic-31" x="157.226562"/>
     <use xlink:href="#IPAexGothic-37" x="220.214844"/>
    </g>
   </g>
   <g id="text_31">
    <!-- −0.14 -->
    <g style="fill: #008bfb" transform="translate(499.03216 233.082356)scale(0.12 -0.12)">
     <use xlink:href="#IPAexGothic-2212"/>
     <use xlink:href="#IPAexGothic-30" x="67.822266"/>
     <use xlink:href="#IPAexGothic-2e" x="130.810547"/>
     <use xlink:href="#IPAexGothic-31" x="157.226562"/>
     <use xlink:href="#IPAexGothic-34" x="220.214844"/>
    </g>
   </g>
   <g id="text_32">
    <!-- −0.1 -->
    <g style="fill: #008bfb" transform="translate(535.315631 267.92851)scale(0.12 -0.12)">
     <use xlink:href="#IPAexGothic-2212"/>
     <use xlink:href="#IPAexGothic-30" x="67.822266"/>
     <use xlink:href="#IPAexGothic-2e" x="130.810547"/>
     <use xlink:href="#IPAexGothic-31" x="157.226562"/>
    </g>
   </g>
   <g id="text_33">
    <!-- −0.01 -->
    <g style="fill: #008bfb" transform="translate(548.491639 302.774663)scale(0.12 -0.12)">
     <use xlink:href="#IPAexGothic-2212"/>
     <use xlink:href="#IPAexGothic-30" x="67.822266"/>
     <use xlink:href="#IPAexGothic-2e" x="130.810547"/>
     <use xlink:href="#IPAexGothic-30" x="157.226562"/>
     <use xlink:href="#IPAexGothic-31" x="220.214844"/>
    </g>
   </g>
  </g>
  <g id="axes_2">
   <g id="matplotlib.axis_3">
    <g id="xtick_10">
     <g id="line2d_49">
      <path d="M 589.466582 326.94875 
L 589.466582 27.96875 
" clip-path="url(#padeaedeb86)" style="fill: none; stroke: #ffffff; stroke-linecap: round"/>
     </g>
     <g id="line2d_50">
      <g>
       <use xlink:href="#m21548bf97a" x="589.466582" y="326.94875" style="fill: #262626; stroke: #262626; stroke-width: 1.25"/>
      </g>
     </g>
     <g id="text_34">
      <!--  -->
      <g style="fill: #262626" transform="translate(569.466582 345.4375)scale(0.12 -0.12)"/>
      <!-- $E[f(X)]$ -->
      <g style="fill: #262626" transform="translate(569.466582 358.504)scale(0.12 -0.12)">
       <defs>
        <path id="DejaVuSans-Oblique-45" d="M 1081 4666 
L 4031 4666 
L 3928 4134 
L 1606 4134 
L 1338 2753 
L 3566 2753 
L 3463 2222 
L 1234 2222 
L 909 531 
L 3284 531 
L 3181 0 
L 172 0 
L 1081 4666 
z
" transform="scale(0.015625)"/>
        <path id="DejaVuSans-5b" d="M 550 4863 
L 1875 4863 
L 1875 4416 
L 1125 4416 
L 1125 -397 
L 1875 -397 
L 1875 -844 
L 550 -844 
L 550 4863 
z
" transform="scale(0.015625)"/>
        <path id="DejaVuSans-Oblique-66" d="M 3059 4863 
L 2969 4384 
L 2419 4384 
Q 2106 4384 1964 4261 
Q 1822 4138 1753 3809 
L 1691 3500 
L 2638 3500 
L 2553 3053 
L 1606 3053 
L 1013 0 
L 434 0 
L 1031 3053 
L 481 3053 
L 563 3500 
L 1113 3500 
L 1159 3744 
Q 1278 4363 1576 4613 
Q 1875 4863 2516 4863 
L 3059 4863 
z
" transform="scale(0.015625)"/>
        <path id="DejaVuSans-28" d="M 1984 4856 
Q 1566 4138 1362 3434 
Q 1159 2731 1159 2009 
Q 1159 1288 1364 580 
Q 1569 -128 1984 -844 
L 1484 -844 
Q 1016 -109 783 600 
Q 550 1309 550 2009 
Q 550 2706 781 3412 
Q 1013 4119 1484 4856 
L 1984 4856 
z
" transform="scale(0.015625)"/>
        <path id="DejaVuSans-Oblique-58" d="M 878 4666 
L 1516 4666 
L 2316 2981 
L 3763 4666 
L 4500 4666 
L 2578 2438 
L 3738 0 
L 3103 0 
L 2163 1966 
L 459 0 
L -275 0 
L 1906 2509 
L 878 4666 
z
" transform="scale(0.015625)"/>
        <path id="DejaVuSans-29" d="M 513 4856 
L 1013 4856 
Q 1481 4119 1714 3412 
Q 1947 2706 1947 2009 
Q 1947 1309 1714 600 
Q 1481 -109 1013 -844 
L 513 -844 
Q 928 -128 1133 580 
Q 1338 1288 1338 2009 
Q 1338 2731 1133 3434 
Q 928 4138 513 4856 
z
" transform="scale(0.015625)"/>
        <path id="DejaVuSans-5d" d="M 1947 4863 
L 1947 -844 
L 622 -844 
L 622 -397 
L 1369 -397 
L 1369 4416 
L 622 4416 
L 622 4863 
L 1947 4863 
z
" transform="scale(0.015625)"/>
       </defs>
       <use xlink:href="#DejaVuSans-Oblique-45" transform="translate(0 0.015625)"/>
       <use xlink:href="#DejaVuSans-5b" transform="translate(63.183594 0.015625)"/>
       <use xlink:href="#DejaVuSans-Oblique-66" transform="translate(102.197266 0.015625)"/>
       <use xlink:href="#DejaVuSans-28" transform="translate(137.402344 0.015625)"/>
       <use xlink:href="#DejaVuSans-Oblique-58" transform="translate(176.416016 0.015625)"/>
       <use xlink:href="#DejaVuSans-29" transform="translate(244.921875 0.015625)"/>
       <use xlink:href="#DejaVuSans-5d" transform="translate(283.935547 0.015625)"/>
      </g>
     </g>
    </g>
    <g id="xtick_11">
     <g id="line2d_51">
      <path d="M 589.466584 326.94875 
L 589.466584 27.96875 
" clip-path="url(#padeaedeb86)" style="fill: none; stroke: #ffffff; stroke-linecap: round"/>
     </g>
     <g id="line2d_52">
      <g>
       <use xlink:href="#m21548bf97a" x="589.466584" y="326.94875" style="fill: #262626; stroke: #262626; stroke-width: 1.25"/>
      </g>
     </g>
     <g id="text_35">
      <!--  -->
      <g style="fill: #999999" transform="translate(611.466584 346.4375)scale(0.12 -0.12)"/>
      <!-- $ = 1.994$ -->
      <g style="fill: #999999" transform="translate(611.466584 359.504)scale(0.12 -0.12)">
       <defs>
        <path id="DejaVuSans-3d" d="M 678 2906 
L 4684 2906 
L 4684 2381 
L 678 2381 
L 678 2906 
z
M 678 1631 
L 4684 1631 
L 4684 1100 
L 678 1100 
L 678 1631 
z
" transform="scale(0.015625)"/>
        <path id="DejaVuSans-31" d="M 794 531 
L 1825 531 
L 1825 4091 
L 703 3866 
L 703 4441 
L 1819 4666 
L 2450 4666 
L 2450 531 
L 3481 531 
L 3481 0 
L 794 0 
L 794 531 
z
" transform="scale(0.015625)"/>
        <path id="DejaVuSans-2e" d="M 684 794 
L 1344 794 
L 1344 0 
L 684 0 
L 684 794 
z
" transform="scale(0.015625)"/>
        <path id="DejaVuSans-39" d="M 703 97 
L 703 672 
Q 941 559 1184 500 
Q 1428 441 1663 441 
Q 2288 441 2617 861 
Q 2947 1281 2994 2138 
Q 2813 1869 2534 1725 
Q 2256 1581 1919 1581 
Q 1219 1581 811 2004 
Q 403 2428 403 3163 
Q 403 3881 828 4315 
Q 1253 4750 1959 4750 
Q 2769 4750 3195 4129 
Q 3622 3509 3622 2328 
Q 3622 1225 3098 567 
Q 2575 -91 1691 -91 
Q 1453 -91 1209 -44 
Q 966 3 703 97 
z
M 1959 2075 
Q 2384 2075 2632 2365 
Q 2881 2656 2881 3163 
Q 2881 3666 2632 3958 
Q 2384 4250 1959 4250 
Q 1534 4250 1286 3958 
Q 1038 3666 1038 3163 
Q 1038 2656 1286 2365 
Q 1534 2075 1959 2075 
z
" transform="scale(0.015625)"/>
        <path id="DejaVuSans-34" d="M 2419 4116 
L 825 1625 
L 2419 1625 
L 2419 4116 
z
M 2253 4666 
L 3047 4666 
L 3047 1625 
L 3713 1625 
L 3713 1100 
L 3047 1100 
L 3047 0 
L 2419 0 
L 2419 1100 
L 313 1100 
L 313 1709 
L 2253 4666 
z
" transform="scale(0.015625)"/>
       </defs>
       <use xlink:href="#DejaVuSans-3d" transform="translate(19.482422 0.78125)"/>
       <use xlink:href="#DejaVuSans-31" transform="translate(122.753906 0.78125)"/>
       <use xlink:href="#DejaVuSans-2e" transform="translate(186.376953 0.78125)"/>
       <use xlink:href="#DejaVuSans-39" transform="translate(218.164062 0.78125)"/>
       <use xlink:href="#DejaVuSans-39" transform="translate(281.787109 0.78125)"/>
       <use xlink:href="#DejaVuSans-34" transform="translate(345.410156 0.78125)"/>
      </g>
     </g>
    </g>
   </g>
   <g id="patch_20">
    <path d="M 146.8625 326.94875 
L 593.2625 326.94875 
" style="fill: none; stroke: #ffffff; stroke-width: 1.25; stroke-linejoin: miter; stroke-linecap: square"/>
   </g>
  </g>
  <g id="axes_3">
   <g id="matplotlib.axis_4">
    <g id="xtick_12">
     <g id="line2d_53">
      <path d="M 209.874745 326.94875 
L 209.874745 27.96875 
" clip-path="url(#padeaedeb86)" style="fill: none; stroke: #ffffff; stroke-linecap: round"/>
     </g>
     <g id="line2d_54">
      <defs>
       <path id="mbfd7e52bec" d="M 0 0 
L 0 -6 
" style="stroke: #262626; stroke-width: 1.25"/>
      </defs>
      <g>
       <use xlink:href="#mbfd7e52bec" x="209.874745" y="27.96875" style="fill: #262626; stroke: #262626; stroke-width: 1.25"/>
      </g>
     </g>
     <g id="text_36">
      <!-- $f(x)$ -->
      <g style="fill: #262626" transform="translate(199.874745 16.18875)scale(0.12 -0.12)">
       <defs>
        <path id="DejaVuSans-Oblique-78" d="M 3841 3500 
L 2234 1784 
L 3219 0 
L 2559 0 
L 1819 1388 
L 531 0 
L -166 0 
L 1556 1844 
L 641 3500 
L 1300 3500 
L 1972 2234 
L 3144 3500 
L 3841 3500 
z
" transform="scale(0.015625)"/>
       </defs>
       <use xlink:href="#DejaVuSans-Oblique-66" transform="translate(0 0.015625)"/>
       <use xlink:href="#DejaVuSans-28" transform="translate(35.205078 0.015625)"/>
       <use xlink:href="#DejaVuSans-Oblique-78" transform="translate(74.21875 0.015625)"/>
       <use xlink:href="#DejaVuSans-29" transform="translate(133.398438 0.015625)"/>
      </g>
     </g>
    </g>
    <g id="xtick_13">
     <g id="line2d_55">
      <path d="M 209.874747 326.94875 
L 209.874747 27.96875 
" clip-path="url(#padeaedeb86)" style="fill: none; stroke: #ffffff; stroke-linecap: round"/>
     </g>
     <g id="line2d_56">
      <g>
       <use xlink:href="#mbfd7e52bec" x="209.874747" y="27.96875" style="fill: #262626; stroke: #262626; stroke-width: 1.25"/>
      </g>
     </g>
     <g id="text_37">
      <!-- $ = 0.14$ -->
      <g style="fill: #999999" transform="translate(221.874747 16.18875)scale(0.12 -0.12)">
       <defs>
        <path id="DejaVuSans-30" d="M 2034 4250 
Q 1547 4250 1301 3770 
Q 1056 3291 1056 2328 
Q 1056 1369 1301 889 
Q 1547 409 2034 409 
Q 2525 409 2770 889 
Q 3016 1369 3016 2328 
Q 3016 3291 2770 3770 
Q 2525 4250 2034 4250 
z
M 2034 4750 
Q 2819 4750 3233 4129 
Q 3647 3509 3647 2328 
Q 3647 1150 3233 529 
Q 2819 -91 2034 -91 
Q 1250 -91 836 529 
Q 422 1150 422 2328 
Q 422 3509 836 4129 
Q 1250 4750 2034 4750 
z
" transform="scale(0.015625)"/>
       </defs>
       <use xlink:href="#DejaVuSans-3d" transform="translate(19.482422 0.78125)"/>
       <use xlink:href="#DejaVuSans-30" transform="translate(122.753906 0.78125)"/>
       <use xlink:href="#DejaVuSans-2e" transform="translate(186.376953 0.78125)"/>
       <use xlink:href="#DejaVuSans-31" transform="translate(218.164062 0.78125)"/>
       <use xlink:href="#DejaVuSans-34" transform="translate(281.787109 0.78125)"/>
      </g>
     </g>
    </g>
   </g>
   <g id="patch_21">
    <path d="M 146.8625 326.94875 
L 593.2625 326.94875 
" style="fill: none; stroke: #ffffff; stroke-width: 1.25; stroke-linejoin: miter; stroke-linecap: square"/>
   </g>
  </g>
 </g>
 <defs>
  <clipPath id="padeaedeb86">
   <rect x="146.8625" y="27.96875" width="446.4" height="298.98"/>
  </clipPath>
 </defs>
</svg>
