<?xml version="1.0" encoding="utf-8" standalone="no"?>
<!DOCTYPE svg PUBLIC "-//W3C//DTD SVG 1.1//EN"
  "http://www.w3.org/Graphics/SVG/1.1/DTD/svg11.dtd">
<svg xmlns:xlink="http://www.w3.org/1999/xlink" width="390.731719pt" height="266.938437pt" viewBox="0 0 390.731719 266.938437" xmlns="http://www.w3.org/2000/svg" version="1.1">
 <metadata>
  <rdf:RDF xmlns:dc="http://purl.org/dc/elements/1.1/" xmlns:cc="http://creativecommons.org/ns#" xmlns:rdf="http://www.w3.org/1999/02/22-rdf-syntax-ns#">
   <cc:Work>
    <dc:type rdf:resource="http://purl.org/dc/dcmitype/StillImage"/>
    <dc:date>2022-02-08T00:50:44.570701</dc:date>
    <dc:format>image/svg+xml</dc:format>
    <dc:creator>
     <cc:Agent>
      <dc:title>Matplotlib v3.5.1, https://matplotlib.org/</dc:title>
     </cc:Agent>
    </dc:creator>
   </cc:Work>
  </rdf:RDF>
 </metadata>
 <defs>
  <style type="text/css">*{stroke-linejoin: round; stroke-linecap: butt}</style>
 </defs>
 <g id="figure_1">
  <g id="patch_1">
   <path d="M 0 266.938437 
L 390.731719 266.938437 
L 390.731719 0 
L 0 0 
z
" style="fill: #ffffff"/>
  </g>
  <g id="axes_1">
   <g id="patch_2">
    <path d="M 48.731719 224.64 
L 383.531719 224.64 
L 383.531719 7.2 
L 48.731719 7.2 
z
" style="fill: #eaeaf2"/>
   </g>
   <g id="matplotlib.axis_1">
    <g id="xtick_1">
     <g id="line2d_1">
      <path d="M 63.949901 224.64 
L 63.949901 7.2 
" clip-path="url(#p78c1362bcc)" style="fill: none; stroke: #ffffff; stroke-linecap: round"/>
     </g>
     <g id="text_1">
      <!-- 0 -->
      <g style="fill: #262626" transform="translate(60.48576 242.379687)scale(0.11 -0.11)">
       <defs>
        <path id="IPAexGothic-30" d="M 2038 4725 
Q 2881 4725 3334 3944 
Q 3694 3325 3694 2344 
Q 3694 1372 3334 741 
Q 2888 -31 2016 -31 
Q 1147 -31 700 741 
Q 341 1372 341 2350 
Q 341 3713 1000 4334 
Q 1419 4725 2038 4725 
z
M 2016 4266 
Q 1516 4266 1228 3759 
Q 934 3247 934 2344 
Q 934 1456 1222 947 
Q 1513 447 2016 447 
Q 2619 447 2909 1153 
Q 3100 1622 3100 2375 
Q 3100 3256 2806 3759 
Q 2509 4266 2016 4266 
z
" transform="scale(0.015625)"/>
       </defs>
       <use xlink:href="#IPAexGothic-30"/>
      </g>
     </g>
    </g>
    <g id="xtick_2">
     <g id="line2d_2">
      <path d="M 115.275978 224.64 
L 115.275978 7.2 
" clip-path="url(#p78c1362bcc)" style="fill: none; stroke: #ffffff; stroke-linecap: round"/>
     </g>
     <g id="text_2">
      <!-- 100 -->
      <g style="fill: #262626" transform="translate(104.883556 242.379687)scale(0.11 -0.11)">
       <defs>
        <path id="IPAexGothic-31" d="M 2463 63 
L 1900 63 
L 1900 4103 
Q 1372 3922 788 3797 
L 684 4231 
Q 1519 4441 2106 4731 
L 2463 4731 
L 2463 63 
z
" transform="scale(0.015625)"/>
       </defs>
       <use xlink:href="#IPAexGothic-31"/>
       <use xlink:href="#IPAexGothic-30" x="62.988281"/>
       <use xlink:href="#IPAexGothic-30" x="125.976562"/>
      </g>
     </g>
    </g>
    <g id="xtick_3">
     <g id="line2d_3">
      <path d="M 166.602054 224.64 
L 166.602054 7.2 
" clip-path="url(#p78c1362bcc)" style="fill: none; stroke: #ffffff; stroke-linecap: round"/>
     </g>
     <g id="text_3">
      <!-- 200 -->
      <g style="fill: #262626" transform="translate(156.209633 242.379687)scale(0.11 -0.11)">
       <defs>
        <path id="IPAexGothic-32" d="M 3659 63 
L 447 63 
L 447 594 
Q 825 1475 1894 2203 
L 2072 2322 
Q 2619 2697 2791 2906 
Q 2988 3153 2988 3444 
Q 2988 3772 2756 4003 
Q 2500 4259 2084 4259 
Q 1250 4259 991 3328 
L 497 3506 
Q 853 4725 2116 4725 
Q 2806 4725 3216 4316 
Q 3575 3947 3575 3425 
Q 3575 3038 3344 2722 
Q 3131 2416 2366 1938 
L 2231 1856 
Q 1256 1253 978 569 
L 3659 569 
L 3659 63 
z
" transform="scale(0.015625)"/>
       </defs>
       <use xlink:href="#IPAexGothic-32"/>
       <use xlink:href="#IPAexGothic-30" x="62.988281"/>
       <use xlink:href="#IPAexGothic-30" x="125.976562"/>
      </g>
     </g>
    </g>
    <g id="xtick_4">
     <g id="line2d_4">
      <path d="M 217.928131 224.64 
L 217.928131 7.2 
" clip-path="url(#p78c1362bcc)" style="fill: none; stroke: #ffffff; stroke-linecap: round"/>
     </g>
     <g id="text_4">
      <!-- 300 -->
      <g style="fill: #262626" transform="translate(207.53571 242.379687)scale(0.11 -0.11)">
       <defs>
        <path id="IPAexGothic-33" d="M 2381 2419 
Q 3506 2216 3506 1278 
Q 3506 716 3128 356 
Q 2709 -31 1944 -31 
Q 797 -31 288 881 
L 756 1131 
Q 1109 441 1938 441 
Q 2425 441 2694 691 
Q 2950 928 2950 1291 
Q 2950 1719 2566 1978 
Q 2216 2213 1644 2213 
L 1363 2213 
L 1363 2669 
L 1656 2669 
Q 2231 2669 2534 2888 
Q 2859 3119 2859 3509 
Q 2859 3934 2494 4138 
Q 2259 4278 1931 4278 
Q 1238 4278 903 3578 
L 434 3803 
Q 897 4725 1938 4725 
Q 2597 4725 3006 4394 
Q 3416 4069 3416 3534 
Q 3416 3028 3019 2706 
Q 2763 2500 2381 2444 
L 2381 2419 
z
" transform="scale(0.015625)"/>
       </defs>
       <use xlink:href="#IPAexGothic-33"/>
       <use xlink:href="#IPAexGothic-30" x="62.988281"/>
       <use xlink:href="#IPAexGothic-30" x="125.976562"/>
      </g>
     </g>
    </g>
    <g id="xtick_5">
     <g id="line2d_5">
      <path d="M 269.254208 224.64 
L 269.254208 7.2 
" clip-path="url(#p78c1362bcc)" style="fill: none; stroke: #ffffff; stroke-linecap: round"/>
     </g>
     <g id="text_5">
      <!-- 400 -->
      <g style="fill: #262626" transform="translate(258.861787 242.379687)scale(0.11 -0.11)">
       <defs>
        <path id="IPAexGothic-34" d="M 3813 1159 
L 3059 1159 
L 3059 63 
L 2547 63 
L 2547 1159 
L 197 1159 
L 197 1672 
L 2456 4678 
L 3059 4678 
L 3059 1634 
L 3813 1634 
L 3813 1159 
z
M 2578 4109 
L 2559 4109 
Q 2278 3656 2003 3284 
L 759 1634 
L 2547 1634 
L 2547 3144 
Q 2547 3481 2578 4109 
z
" transform="scale(0.015625)"/>
       </defs>
       <use xlink:href="#IPAexGothic-34"/>
       <use xlink:href="#IPAexGothic-30" x="62.988281"/>
       <use xlink:href="#IPAexGothic-30" x="125.976562"/>
      </g>
     </g>
    </g>
    <g id="xtick_6">
     <g id="line2d_6">
      <path d="M 320.580285 224.64 
L 320.580285 7.2 
" clip-path="url(#p78c1362bcc)" style="fill: none; stroke: #ffffff; stroke-linecap: round"/>
     </g>
     <g id="text_6">
      <!-- 500 -->
      <g style="fill: #262626" transform="translate(310.187863 242.379687)scale(0.11 -0.11)">
       <defs>
        <path id="IPAexGothic-35" d="M 1178 2603 
Q 1634 2963 2172 2963 
Q 2816 2963 3241 2528 
Q 3638 2113 3638 1497 
Q 3638 938 3297 513 
Q 2869 -31 2031 -31 
Q 959 -31 469 784 
L 938 1028 
Q 1309 434 2013 434 
Q 2466 434 2769 716 
Q 3081 1013 3081 1503 
Q 3081 1966 2806 2241 
Q 2519 2528 2056 2528 
Q 1406 2528 1072 2028 
L 591 2091 
L 884 4634 
L 3406 4634 
L 3406 4153 
L 1341 4153 
L 1134 2603 
L 1178 2603 
z
" transform="scale(0.015625)"/>
       </defs>
       <use xlink:href="#IPAexGothic-35"/>
       <use xlink:href="#IPAexGothic-30" x="62.988281"/>
       <use xlink:href="#IPAexGothic-30" x="125.976562"/>
      </g>
     </g>
    </g>
    <g id="xtick_7">
     <g id="line2d_7">
      <path d="M 371.906362 224.64 
L 371.906362 7.2 
" clip-path="url(#p78c1362bcc)" style="fill: none; stroke: #ffffff; stroke-linecap: round"/>
     </g>
     <g id="text_7">
      <!-- 600 -->
      <g style="fill: #262626" transform="translate(361.51394 242.379687)scale(0.11 -0.11)">
       <defs>
        <path id="IPAexGothic-36" d="M 1056 2328 
Q 1509 2981 2234 2981 
Q 2906 2981 3316 2513 
Q 3675 2106 3675 1522 
Q 3675 884 3272 434 
Q 2853 -31 2178 -31 
Q 1375 -31 922 581 
Q 481 1178 481 2228 
Q 481 3425 1013 4109 
Q 1494 4725 2272 4725 
Q 3191 4725 3609 4025 
L 3150 3775 
Q 2894 4266 2300 4266 
Q 1119 4266 1031 2328 
L 1056 2328 
z
M 2141 2547 
Q 1684 2547 1384 2206 
Q 1116 1900 1116 1541 
Q 1116 1156 1353 844 
Q 1672 428 2159 428 
Q 2669 428 2941 844 
Q 3125 1128 3125 1503 
Q 3125 1944 2881 2228 
Q 2600 2547 2141 2547 
z
" transform="scale(0.015625)"/>
       </defs>
       <use xlink:href="#IPAexGothic-36"/>
       <use xlink:href="#IPAexGothic-30" x="62.988281"/>
       <use xlink:href="#IPAexGothic-30" x="125.976562"/>
      </g>
     </g>
    </g>
    <g id="text_8">
     <!-- Iteration -->
     <g style="fill: #262626" transform="translate(192.440156 257.458437)scale(0.12 -0.12)">
      <defs>
       <path id="IPAexGothic-49" d="M 1203 63 
L 634 63 
L 634 4634 
L 1203 4634 
L 1203 63 
z
" transform="scale(0.015625)"/>
       <path id="IPAexGothic-74" d="M 2125 241 
Q 1769 -6 1397 -6 
Q 653 -6 653 831 
L 653 2859 
L 219 2859 
L 219 3250 
L 653 3250 
L 653 3966 
L 1178 4228 
L 1178 3250 
L 2063 3250 
L 2063 2859 
L 1178 2859 
L 1178 906 
Q 1178 416 1513 416 
Q 1738 416 1941 588 
L 2125 241 
z
" transform="scale(0.015625)"/>
       <path id="IPAexGothic-65" d="M 863 1594 
Q 891 1041 1209 722 
Q 1534 397 1997 397 
Q 2606 397 2963 966 
L 3322 728 
Q 2869 -31 1931 -31 
Q 1222 -31 766 422 
Q 306 884 306 1641 
Q 306 2444 788 2925 
Q 1216 3353 1856 3353 
Q 2459 3353 2866 2956 
Q 3322 2494 3322 1722 
L 3322 1594 
L 863 1594 
z
M 2756 1997 
Q 2709 2431 2450 2681 
Q 2194 2938 1844 2938 
Q 1438 2938 1150 2591 
Q 953 2356 894 1997 
L 2756 1997 
z
" transform="scale(0.015625)"/>
       <path id="IPAexGothic-72" d="M 2309 3316 
L 2213 2769 
Q 2106 2791 2022 2791 
Q 1653 2791 1413 2444 
Q 1113 2006 1113 1675 
L 1113 63 
L 563 63 
L 563 3250 
L 1081 3250 
L 1056 2303 
L 1069 2303 
Q 1422 3341 2097 3341 
Q 2206 3341 2309 3316 
z
" transform="scale(0.015625)"/>
       <path id="IPAexGothic-61" d="M 3156 63 
L 2672 63 
Q 2559 303 2531 556 
L 2509 556 
Q 2147 -25 1428 -25 
Q 934 -25 622 288 
Q 347 563 347 959 
Q 347 1947 2050 1997 
L 2478 2009 
L 2478 2175 
Q 2478 2509 2288 2700 
Q 2088 2900 1775 2900 
Q 1238 2900 969 2378 
L 494 2597 
Q 938 3328 1788 3328 
Q 2375 3328 2691 3000 
Q 2984 2706 2984 2169 
L 2984 997 
Q 2984 400 3156 63 
z
M 2491 1625 
L 2141 1619 
Q 903 1591 903 953 
Q 903 728 1050 581 
Q 1231 403 1525 403 
Q 1934 403 2234 703 
Q 2491 969 2491 1344 
L 2491 1625 
z
" transform="scale(0.015625)"/>
       <path id="IPAexGothic-69" d="M 1178 3928 
L 550 3928 
L 550 4569 
L 1178 4569 
L 1178 3928 
z
M 1138 63 
L 588 63 
L 588 3250 
L 1138 3250 
L 1138 63 
z
" transform="scale(0.015625)"/>
       <path id="IPAexGothic-6f" d="M 1919 3341 
Q 2594 3341 3056 2888 
Q 3531 2413 3531 1638 
Q 3531 888 3066 422 
Q 2609 -31 1919 -31 
Q 1228 -31 781 416 
Q 313 881 313 1656 
Q 313 2413 788 2888 
Q 1241 3341 1919 3341 
z
M 1919 2919 
Q 1519 2919 1241 2631 
Q 888 2278 888 1650 
Q 888 1031 1234 684 
Q 1516 403 1919 403 
Q 2331 403 2609 691 
Q 2956 1038 2956 1672 
Q 2956 2269 2603 2631 
Q 2316 2919 1919 2919 
z
" transform="scale(0.015625)"/>
       <path id="IPAexGothic-6e" d="M 3328 63 
L 2778 63 
L 2778 2041 
Q 2778 2853 2106 2853 
Q 1428 2853 1113 2041 
L 1113 63 
L 563 63 
L 563 3250 
L 1075 3250 
L 1075 2675 
Q 1525 3316 2222 3316 
Q 3328 3316 3328 2072 
L 3328 63 
z
" transform="scale(0.015625)"/>
      </defs>
      <use xlink:href="#IPAexGothic-49"/>
      <use xlink:href="#IPAexGothic-74" x="28.90625"/>
      <use xlink:href="#IPAexGothic-65" x="63.525391"/>
      <use xlink:href="#IPAexGothic-72" x="120.410156"/>
      <use xlink:href="#IPAexGothic-61" x="157.421875"/>
      <use xlink:href="#IPAexGothic-74" x="212.402344"/>
      <use xlink:href="#IPAexGothic-69" x="247.021484"/>
      <use xlink:href="#IPAexGothic-6f" x="274.023438"/>
      <use xlink:href="#IPAexGothic-6e" x="334.423828"/>
     </g>
    </g>
   </g>
   <g id="matplotlib.axis_2">
    <g id="ytick_1">
     <g id="line2d_8">
      <path d="M 48.731719 215.481136 
L 383.531719 215.481136 
" clip-path="url(#p78c1362bcc)" style="fill: none; stroke: #ffffff; stroke-linecap: round"/>
     </g>
     <g id="text_9">
      <!-- 0.2 -->
      <g style="fill: #262626" transform="translate(22.46875 219.60098)scale(0.11 -0.11)">
       <defs>
        <path id="IPAexGothic-2e" d="M 1184 63 
L 494 63 
L 494 753 
L 1184 753 
L 1184 63 
z
" transform="scale(0.015625)"/>
       </defs>
       <use xlink:href="#IPAexGothic-30"/>
       <use xlink:href="#IPAexGothic-2e" x="62.988281"/>
       <use xlink:href="#IPAexGothic-32" x="89.404297"/>
      </g>
     </g>
    </g>
    <g id="ytick_2">
     <g id="line2d_9">
      <path d="M 48.731719 172.27594 
L 383.531719 172.27594 
" clip-path="url(#p78c1362bcc)" style="fill: none; stroke: #ffffff; stroke-linecap: round"/>
     </g>
     <g id="text_10">
      <!-- 0.4 -->
      <g style="fill: #262626" transform="translate(22.46875 176.395784)scale(0.11 -0.11)">
       <use xlink:href="#IPAexGothic-30"/>
       <use xlink:href="#IPAexGothic-2e" x="62.988281"/>
       <use xlink:href="#IPAexGothic-34" x="89.404297"/>
      </g>
     </g>
    </g>
    <g id="ytick_3">
     <g id="line2d_10">
      <path d="M 48.731719 129.070744 
L 383.531719 129.070744 
" clip-path="url(#p78c1362bcc)" style="fill: none; stroke: #ffffff; stroke-linecap: round"/>
     </g>
     <g id="text_11">
      <!-- 0.6 -->
      <g style="fill: #262626" transform="translate(22.46875 133.190588)scale(0.11 -0.11)">
       <use xlink:href="#IPAexGothic-30"/>
       <use xlink:href="#IPAexGothic-2e" x="62.988281"/>
       <use xlink:href="#IPAexGothic-36" x="89.404297"/>
      </g>
     </g>
    </g>
    <g id="ytick_4">
     <g id="line2d_11">
      <path d="M 48.731719 85.865548 
L 383.531719 85.865548 
" clip-path="url(#p78c1362bcc)" style="fill: none; stroke: #ffffff; stroke-linecap: round"/>
     </g>
     <g id="text_12">
      <!-- 0.8 -->
      <g style="fill: #262626" transform="translate(22.46875 89.985392)scale(0.11 -0.11)">
       <defs>
        <path id="IPAexGothic-38" d="M 2541 2425 
Q 3700 2031 3700 1197 
Q 3700 541 3100 197 
Q 2663 -56 2016 -56 
Q 1366 -56 928 197 
Q 347 531 347 1178 
Q 347 1988 1409 2381 
L 1409 2400 
Q 481 2734 481 3509 
Q 481 4100 981 4456 
Q 1406 4756 2019 4756 
Q 2703 4756 3131 4403 
Q 3553 4069 3553 3566 
Q 3553 2706 2541 2444 
L 2541 2425 
z
M 2022 2625 
Q 2997 2856 2997 3528 
Q 2997 3916 2675 4150 
Q 2413 4347 2016 4347 
Q 1606 4347 1331 4128 
Q 1050 3897 1050 3522 
Q 1050 3150 1350 2925 
Q 1494 2809 1722 2722 
Q 1984 2616 2022 2625 
z
M 1978 2209 
Q 922 1931 922 1216 
Q 922 775 1313 556 
Q 1606 391 2009 391 
Q 2575 391 2881 697 
Q 3106 922 3106 1250 
Q 3106 1594 2794 1850 
Q 2609 1994 2350 2100 
Q 2047 2222 1978 2209 
z
" transform="scale(0.015625)"/>
       </defs>
       <use xlink:href="#IPAexGothic-30"/>
       <use xlink:href="#IPAexGothic-2e" x="62.988281"/>
       <use xlink:href="#IPAexGothic-38" x="89.404297"/>
      </g>
     </g>
    </g>
    <g id="ytick_5">
     <g id="line2d_12">
      <path d="M 48.731719 42.660352 
L 383.531719 42.660352 
" clip-path="url(#p78c1362bcc)" style="fill: none; stroke: #ffffff; stroke-linecap: round"/>
     </g>
     <g id="text_13">
      <!-- 1.0 -->
      <g style="fill: #262626" transform="translate(22.46875 46.780196)scale(0.11 -0.11)">
       <use xlink:href="#IPAexGothic-31"/>
       <use xlink:href="#IPAexGothic-2e" x="62.988281"/>
       <use xlink:href="#IPAexGothic-30" x="89.404297"/>
      </g>
     </g>
    </g>
    <g id="text_14">
     <!-- rmse -->
     <g style="fill: #262626" transform="translate(16.18875 129.552187)rotate(-90)scale(0.12 -0.12)">
      <defs>
       <path id="IPAexGothic-6d" d="M 5022 63 
L 4472 63 
L 4472 2059 
Q 4472 2869 3847 2869 
Q 3550 2869 3303 2594 
Q 3128 2397 3059 2103 
L 3059 63 
L 2509 63 
L 2509 2066 
Q 2509 2869 1919 2869 
Q 1606 2869 1369 2594 
Q 1113 2306 1113 2041 
L 1113 63 
L 563 63 
L 563 3250 
L 1075 3250 
L 1075 2700 
Q 1391 3316 2028 3316 
Q 2725 3316 2956 2647 
Q 3303 3316 3953 3316 
Q 4478 3316 4772 2944 
Q 5022 2638 5022 2072 
L 5022 63 
z
" transform="scale(0.015625)"/>
       <path id="IPAexGothic-73" d="M 2234 2547 
Q 1938 2931 1484 2931 
Q 891 2931 891 2475 
Q 891 2153 1531 1944 
L 1741 1875 
Q 2650 1578 2650 894 
Q 2650 434 2272 172 
Q 1972 -31 1497 -31 
Q 766 -31 256 503 
L 603 819 
Q 997 397 1516 397 
Q 2131 397 2131 875 
Q 2131 1238 1453 1478 
L 1234 1553 
Q 378 1853 378 2431 
Q 378 2797 628 3047 
Q 928 3347 1453 3347 
Q 2156 3347 2606 2859 
L 2234 2547 
z
" transform="scale(0.015625)"/>
      </defs>
      <use xlink:href="#IPAexGothic-72"/>
      <use xlink:href="#IPAexGothic-6d" x="37.011719"/>
      <use xlink:href="#IPAexGothic-73" x="124.121094"/>
      <use xlink:href="#IPAexGothic-65" x="170.3125"/>
     </g>
    </g>
   </g>
   <g id="line2d_13">
    <path d="M 63.949901 21.252737 
L 65.489683 53.047055 
L 66.516204 68.993996 
L 67.542726 84.022435 
L 69.082508 102.351017 
L 70.10903 111.60603 
L 71.135551 119.848827 
L 74.215116 138.760945 
L 75.241637 143.43661 
L 76.268159 147.270963 
L 77.294681 150.998731 
L 78.321202 153.686081 
L 78.834463 155.311483 
L 79.860984 157.903755 
L 80.887506 159.73882 
L 81.400767 160.738426 
L 82.940549 162.627427 
L 83.967071 164.149387 
L 84.480331 164.646283 
L 85.506853 166.306532 
L 86.020114 167.055852 
L 88.073157 169.158804 
L 89.099678 169.782027 
L 91.152721 170.784358 
L 91.665982 171.358208 
L 92.179243 171.518941 
L 92.692504 172.073997 
L 93.205764 172.295586 
L 93.719025 172.732277 
L 94.232286 173.000223 
L 94.745547 173.487602 
L 95.258808 173.79151 
L 96.79859 175.094257 
L 98.851633 176.324839 
L 100.391415 176.770307 
L 100.904676 177.210674 
L 102.444458 177.787434 
L 102.957719 177.87796 
L 105.010762 178.6835 
L 111.169891 181.085018 
L 112.196413 181.414039 
L 113.222934 181.85976 
L 114.249456 182.090139 
L 116.81576 182.558821 
L 119.382064 183.243946 
L 120.408585 183.421997 
L 124.514671 184.668114 
L 125.541193 184.848801 
L 126.567714 185.112299 
L 133.753365 186.939417 
L 134.779887 187.118867 
L 146.584884 190.061664 
L 158.903143 192.408786 
L 159.929664 192.629866 
L 164.035751 193.260307 
L 165.575533 193.532253 
L 168.655098 194.068015 
L 171.221401 194.400602 
L 174.300966 194.94606 
L 175.840748 195.114637 
L 176.86727 195.312439 
L 182.513138 196.02125 
L 185.079442 196.354606 
L 186.105964 196.774441 
L 198.937483 198.569515 
L 202.530308 198.96959 
L 208.176177 199.82479 
L 209.715959 200.147689 
L 211.255741 200.419031 
L 213.308785 200.685803 
L 218.441392 201.308044 
L 219.981175 201.445273 
L 221.007696 201.627756 
L 223.574 201.853715 
L 225.113782 202.012451 
L 228.193347 202.389532 
L 242.051388 204.101611 
L 244.617691 204.352441 
L 246.157474 204.55547 
L 248.210517 204.794548 
L 251.290081 205.137115 
L 254.369646 205.523489 
L 258.988993 206.00256 
L 266.174644 206.517496 
L 273.873555 207.337159 
L 275.926598 207.520065 
L 277.979641 207.754917 
L 282.085728 208.108967 
L 283.112249 208.218639 
L 286.705075 208.489137 
L 294.917247 209.272388 
L 296.457029 209.453375 
L 302.102898 209.952437 
L 304.155941 210.126042 
L 306.722245 210.366874 
L 307.748766 210.501572 
L 313.907895 210.948823 
L 329.818979 212.18387 
L 333.411805 212.394222 
L 337.517891 212.740413 
L 344.190281 213.074134 
L 347.783106 213.279934 
L 351.889192 213.449198 
L 352.915714 213.541447 
L 356.508539 213.770707 
L 358.048322 213.853932 
L 360.101365 214.039792 
L 368.313537 214.756364 
L 368.313537 214.756364 
" clip-path="url(#p78c1362bcc)" style="fill: none; stroke: #4c72b0; stroke-width: 1.5; stroke-linecap: round"/>
   </g>
   <g id="line2d_14">
    <path d="M 63.949901 17.083636 
L 65.489683 48.510676 
L 66.002944 57.071063 
L 68.569247 90.278065 
L 69.595769 100.30887 
L 71.135551 111.528297 
L 71.648812 114.357604 
L 72.162073 117.878452 
L 72.675334 120.1861 
L 73.701855 126.091526 
L 75.241637 132.005056 
L 75.754898 133.329182 
L 76.78142 136.745639 
L 77.294681 138.114376 
L 77.807941 138.920534 
L 79.860984 143.309087 
L 80.374245 143.761507 
L 81.914028 145.553605 
L 83.967071 147.358627 
L 84.480331 147.563666 
L 84.993592 148.256059 
L 87.046635 150.083644 
L 88.073157 150.786287 
L 89.099678 151.053419 
L 89.612939 151.085173 
L 90.639461 151.42345 
L 91.152721 151.480867 
L 91.665982 151.899175 
L 92.179243 151.951248 
L 92.692504 152.340451 
L 93.205764 152.457884 
L 93.719025 152.743336 
L 94.232286 152.838689 
L 94.745547 153.178857 
L 95.258808 153.381319 
L 96.285329 154.019252 
L 97.825111 154.757092 
L 98.851633 155.121108 
L 102.444458 155.588645 
L 107.577066 156.236735 
L 108.603588 156.494308 
L 109.630109 156.635539 
L 110.656631 156.83729 
L 112.196413 156.942987 
L 113.222934 157.186301 
L 114.249456 157.292968 
L 120.408585 157.474811 
L 122.461628 157.77066 
L 126.054454 158.013654 
L 128.107497 158.068769 
L 133.240104 158.344992 
L 136.83293 158.486507 
L 137.859451 158.627109 
L 138.372712 158.64039 
L 139.399234 158.785929 
L 140.939016 158.848245 
L 141.965538 158.874887 
L 142.992059 159.062071 
L 143.50532 159.058985 
L 144.531841 159.219551 
L 150.17771 159.346534 
L 151.204231 159.41127 
L 155.310318 159.390028 
L 155.823578 159.496411 
L 158.903143 159.560547 
L 166.088794 159.71658 
L 167.628576 159.722155 
L 170.708141 159.764719 
L 172.761184 159.834515 
L 185.079442 159.841941 
L 187.132485 160.008762 
L 191.751832 160.117146 
L 194.318136 160.136537 
L 208.176177 160.214604 
L 209.715959 160.275964 
L 219.467914 160.380134 
L 221.007696 160.385997 
L 227.166825 160.355698 
L 228.706608 160.355258 
L 234.865737 160.424299 
L 237.945301 160.442309 
L 240.511605 160.393776 
L 243.077909 160.415577 
L 252.829864 160.499047 
L 254.369646 160.521988 
L 259.502254 160.539019 
L 268.740948 160.583372 
L 275.413338 160.59887 
L 280.545945 160.63121 
L 305.695723 160.622984 
L 308.775288 160.672378 
L 319.040503 160.687188 
L 321.606807 160.653072 
L 331.358762 160.65644 
L 335.464848 160.609129 
L 341.110716 160.580793 
L 368.313537 160.558748 
L 368.313537 160.558748 
" clip-path="url(#p78c1362bcc)" style="fill: none; stroke: #dd8452; stroke-width: 1.5; stroke-linecap: round"/>
   </g>
   <g id="patch_3">
    <path d="M 48.731719 224.64 
L 48.731719 7.2 
" style="fill: none; stroke: #ffffff; stroke-width: 1.25; stroke-linejoin: miter; stroke-linecap: square"/>
   </g>
   <g id="patch_4">
    <path d="M 383.531719 224.64 
L 383.531719 7.2 
" style="fill: none; stroke: #ffffff; stroke-width: 1.25; stroke-linejoin: miter; stroke-linecap: square"/>
   </g>
   <g id="patch_5">
    <path d="M 48.731719 224.64 
L 383.531719 224.64 
" style="fill: none; stroke: #ffffff; stroke-width: 1.25; stroke-linejoin: miter; stroke-linecap: square"/>
   </g>
   <g id="patch_6">
    <path d="M 48.731719 7.2 
L 383.531719 7.2 
" style="fill: none; stroke: #ffffff; stroke-width: 1.25; stroke-linejoin: miter; stroke-linecap: square"/>
   </g>
  </g>
 </g>
 <defs>
  <clipPath id="p78c1362bcc">
   <rect x="48.731719" y="7.2" width="334.8" height="217.44"/>
  </clipPath>
 </defs>
</svg>
