<?xml version="1.0" encoding="utf-8" standalone="no"?>
<!DOCTYPE svg PUBLIC "-//W3C//DTD SVG 1.1//EN"
  "http://www.w3.org/Graphics/SVG/1.1/DTD/svg11.dtd">
<!-- Created with matplotlib (https://matplotlib.org/) -->
<svg height="302.878125pt" version="1.1" viewBox="0 0 594.142187 302.878125" width="594.142187pt" xmlns="http://www.w3.org/2000/svg" xmlns:xlink="http://www.w3.org/1999/xlink">
 <metadata>
  <rdf:RDF xmlns:cc="http://creativecommons.org/ns#" xmlns:dc="http://purl.org/dc/elements/1.1/" xmlns:rdf="http://www.w3.org/1999/02/22-rdf-syntax-ns#">
   <cc:Work>
    <dc:type rdf:resource="http://purl.org/dc/dcmitype/StillImage"/>
    <dc:date>2020-12-02T01:33:29.844987</dc:date>
    <dc:format>image/svg+xml</dc:format>
    <dc:creator>
     <cc:Agent>
      <dc:title>Matplotlib v3.3.2, https://matplotlib.org/</dc:title>
     </cc:Agent>
    </dc:creator>
   </cc:Work>
  </rdf:RDF>
 </metadata>
 <defs>
  <style type="text/css">*{stroke-linecap:butt;stroke-linejoin:round;}</style>
 </defs>
 <g id="figure_1">
  <g id="patch_1">
   <path d="M 0 302.878125 
L 594.142187 302.878125 
L 594.142187 0 
L 0 0 
z
" style="fill:none;"/>
  </g>
  <g id="axes_1">
   <g id="patch_2">
    <path d="M 28.942188 279 
L 586.942188 279 
L 586.942188 7.2 
L 28.942188 7.2 
z
" style="fill:#ffffff;"/>
   </g>
   <g id="PolyCollection_1">
    <path clip-path="url(#pc191f96388)" d="M 54.305824 187.448973 
L 54.305824 266.645455 
L 59.429791 265.73342 
L 64.553758 262.895535 
L 69.677725 259.919786 
L 74.801692 259.612464 
L 79.925659 259.797133 
L 85.049626 255.723481 
L 90.173592 254.756957 
L 95.297559 253.032901 
L 100.421526 251.214695 
L 105.545493 250.176545 
L 110.66946 245.291556 
L 115.793427 247.09986 
L 120.917394 245.222353 
L 126.041361 245.299573 
L 131.165328 240.059787 
L 136.289295 238.958455 
L 141.413262 238.86907 
L 146.537229 234.911149 
L 151.661196 233.89615 
L 156.785163 231.621684 
L 161.90913 228.480551 
L 167.033097 227.937025 
L 172.157064 225.807335 
L 177.28103 224.414403 
L 182.404997 224.922357 
L 187.528964 221.66045 
L 192.652931 222.020677 
L 197.776898 218.551319 
L 202.900865 216.433174 
L 208.024832 213.213587 
L 213.148799 212.667672 
L 218.272766 210.911707 
L 223.396733 210.044872 
L 228.5207 207.288784 
L 233.644667 207.087014 
L 238.768634 203.852431 
L 243.892601 203.268998 
L 249.016568 202.580758 
L 254.140535 200.805166 
L 259.264502 199.239742 
L 264.388468 196.030454 
L 269.512435 195.390765 
L 274.636402 191.300137 
L 279.760369 191.761052 
L 284.884336 188.824785 
L 290.008303 188.271292 
L 295.13227 186.903303 
L 300.256237 184.30704 
L 305.380204 182.368461 
L 310.504171 180.140029 
L 315.628138 177.203783 
L 320.752105 177.030414 
L 325.876072 175.18343 
L 331.000039 173.60377 
L 336.124006 172.193949 
L 341.247973 172.604115 
L 346.37194 169.496089 
L 351.495907 167.382997 
L 356.619873 167.680498 
L 361.74384 165.243186 
L 366.867807 163.239786 
L 371.991774 161.695296 
L 377.115741 160.185644 
L 382.239708 156.581389 
L 387.363675 155.582793 
L 392.487642 155.742278 
L 397.611609 153.6726 
L 402.735576 153.193792 
L 407.859543 149.281277 
L 412.98351 148.555327 
L 418.107477 144.855433 
L 423.231444 145.20212 
L 428.355411 144.794388 
L 433.479378 141.878301 
L 438.603345 140.902337 
L 443.727311 137.864049 
L 448.851278 137.618042 
L 453.975245 135.803002 
L 459.099212 135.044008 
L 464.223179 132.813988 
L 469.347146 130.445835 
L 474.471113 129.532266 
L 479.59508 126.091229 
L 484.719047 126.076059 
L 489.843014 123.314567 
L 494.966981 122.701192 
L 500.090948 121.193215 
L 505.214915 118.435766 
L 510.338882 117.161766 
L 515.462849 116.136275 
L 520.586816 115.144647 
L 525.710783 115.145751 
L 530.834749 112.487087 
L 535.958716 109.874782 
L 541.082683 109.824642 
L 546.20665 106.404757 
L 551.330617 106.79385 
L 556.454584 101.960827 
L 561.578551 101.503939 
L 561.578551 19.554545 
L 561.578551 19.554545 
L 556.454584 23.194921 
L 551.330617 23.739512 
L 546.20665 24.328256 
L 541.082683 28.564569 
L 535.958716 28.881809 
L 530.834749 31.296655 
L 525.710783 31.378561 
L 520.586816 35.789539 
L 515.462849 37.673966 
L 510.338882 35.859499 
L 505.214915 38.847949 
L 500.090948 43.175015 
L 494.966981 42.359989 
L 489.843014 43.706808 
L 484.719047 47.565088 
L 479.59508 49.002671 
L 474.471113 49.681756 
L 469.347146 51.598814 
L 464.223179 55.253391 
L 459.099212 54.982959 
L 453.975245 56.372319 
L 448.851278 57.70384 
L 443.727311 61.77921 
L 438.603345 60.242568 
L 433.479378 64.187811 
L 428.355411 64.549808 
L 423.231444 66.866107 
L 418.107477 69.048352 
L 412.98351 69.497947 
L 407.859543 72.67511 
L 402.735576 73.947009 
L 397.611609 77.102984 
L 392.487642 76.345905 
L 387.363675 80.929836 
L 382.239708 82.155142 
L 377.115741 82.994419 
L 371.991774 86.52929 
L 366.867807 86.363646 
L 361.74384 87.738021 
L 356.619873 89.045347 
L 351.495907 92.50991 
L 346.37194 95.910304 
L 341.247973 95.461616 
L 336.124006 95.977701 
L 331.000039 99.065352 
L 325.876072 99.427331 
L 320.752105 103.304305 
L 315.628138 103.300069 
L 310.504171 104.832657 
L 305.380204 107.363113 
L 300.256237 108.979025 
L 295.13227 109.984936 
L 290.008303 109.036914 
L 284.884336 113.350222 
L 279.760369 115.679998 
L 274.636402 118.068315 
L 269.512435 117.203038 
L 264.388468 119.193552 
L 259.264502 121.134522 
L 254.140535 123.542611 
L 249.016568 125.453623 
L 243.892601 126.77786 
L 238.768634 128.46308 
L 233.644667 129.641118 
L 228.5207 130.797833 
L 223.396733 133.622197 
L 218.272766 136.271605 
L 213.148799 136.160916 
L 208.024832 140.173915 
L 202.900865 138.207625 
L 197.776898 142.390807 
L 192.652931 143.786643 
L 187.528964 144.705064 
L 182.404997 145.014562 
L 177.28103 149.537997 
L 172.157064 151.290284 
L 167.033097 152.146906 
L 161.90913 152.661459 
L 156.785163 156.152185 
L 151.661196 157.345994 
L 146.537229 158.430848 
L 141.413262 161.28638 
L 136.289295 161.499563 
L 131.165328 162.256987 
L 126.041361 163.804371 
L 120.917394 165.63172 
L 115.793427 167.922867 
L 110.66946 169.653708 
L 105.545493 169.62597 
L 100.421526 172.737891 
L 95.297559 175.146334 
L 90.173592 173.511287 
L 85.049626 176.923639 
L 79.925659 178.999704 
L 74.801692 179.900097 
L 69.677725 184.179495 
L 64.553758 185.957295 
L 59.429791 184.516954 
L 54.305824 187.448973 
z
" style="fill:#1f77b4;fill-opacity:0.3;"/>
   </g>
   <g id="PathCollection_1">
    <defs>
     <path d="M 0 3 
C 0.795609 3 1.55874 2.683901 2.12132 2.12132 
C 2.683901 1.55874 3 0.795609 3 0 
C 3 -0.795609 2.683901 -1.55874 2.12132 -2.12132 
C 1.55874 -2.683901 0.795609 -3 0 -3 
C -0.795609 -3 -1.55874 -2.683901 -2.12132 -2.12132 
C -2.683901 -1.55874 -3 -0.795609 -3 0 
C -3 0.795609 -2.683901 1.55874 -2.12132 2.12132 
C -1.55874 2.683901 -0.795609 3 0 3 
z
" id="m1b33b8ac73" style="stroke:#ff7f0e;"/>
    </defs>
    <g clip-path="url(#pc191f96388)">
     <use style="fill:#ff7f0e;stroke:#ff7f0e;" x="230.143378" xlink:href="#m1b33b8ac73" y="184.348725"/>
     <use style="fill:#ff7f0e;stroke:#ff7f0e;" x="356.98339" xlink:href="#m1b33b8ac73" y="127.787493"/>
     <use style="fill:#ff7f0e;stroke:#ff7f0e;" x="546.923766" xlink:href="#m1b33b8ac73" y="70.196658"/>
     <use style="fill:#ff7f0e;stroke:#ff7f0e;" x="478.034762" xlink:href="#m1b33b8ac73" y="92.82399"/>
     <use style="fill:#ff7f0e;stroke:#ff7f0e;" x="379.415098" xlink:href="#m1b33b8ac73" y="99.588498"/>
     <use style="fill:#ff7f0e;stroke:#ff7f0e;" x="423.338027" xlink:href="#m1b33b8ac73" y="124.193077"/>
     <use style="fill:#ff7f0e;stroke:#ff7f0e;" x="128.653664" xlink:href="#m1b33b8ac73" y="200.146937"/>
     <use style="fill:#ff7f0e;stroke:#ff7f0e;" x="54.613223" xlink:href="#m1b33b8ac73" y="225.198631"/>
     <use style="fill:#ff7f0e;stroke:#ff7f0e;" x="485.543806" xlink:href="#m1b33b8ac73" y="79.495629"/>
     <use style="fill:#ff7f0e;stroke:#ff7f0e;" x="132.243211" xlink:href="#m1b33b8ac73" y="200.065353"/>
     <use style="fill:#ff7f0e;stroke:#ff7f0e;" x="123.618715" xlink:href="#m1b33b8ac73" y="211.250329"/>
     <use style="fill:#ff7f0e;stroke:#ff7f0e;" x="196.007595" xlink:href="#m1b33b8ac73" y="182.304915"/>
     <use style="fill:#ff7f0e;stroke:#ff7f0e;" x="484.569193" xlink:href="#m1b33b8ac73" y="80.346636"/>
     <use style="fill:#ff7f0e;stroke:#ff7f0e;" x="97.475677" xlink:href="#m1b33b8ac73" y="226.48229"/>
     <use style="fill:#ff7f0e;stroke:#ff7f0e;" x="202.873593" xlink:href="#m1b33b8ac73" y="173.190894"/>
     <use style="fill:#ff7f0e;stroke:#ff7f0e;" x="224.658957" xlink:href="#m1b33b8ac73" y="175.000423"/>
     <use style="fill:#ff7f0e;stroke:#ff7f0e;" x="383.405912" xlink:href="#m1b33b8ac73" y="131.285495"/>
     <use style="fill:#ff7f0e;stroke:#ff7f0e;" x="136.909982" xlink:href="#m1b33b8ac73" y="184.893553"/>
     <use style="fill:#ff7f0e;stroke:#ff7f0e;" x="299.827742" xlink:href="#m1b33b8ac73" y="118.857918"/>
     <use style="fill:#ff7f0e;stroke:#ff7f0e;" x="315.685091" xlink:href="#m1b33b8ac73" y="150.648924"/>
    </g>
   </g>
   <g id="matplotlib.axis_1">
    <g id="xtick_1">
     <g id="line2d_1">
      <path clip-path="url(#pc191f96388)" d="M 54.305824 279 
L 54.305824 7.2 
" style="fill:none;stroke:#b0b0b0;stroke-linecap:square;stroke-width:0.8;"/>
     </g>
     <g id="line2d_2">
      <defs>
       <path d="M 0 0 
L 0 3.5 
" id="m04dd77c3a5" style="stroke:#000000;stroke-width:0.8;"/>
      </defs>
      <g>
       <use style="stroke:#000000;stroke-width:0.8;" x="54.305824" xlink:href="#m04dd77c3a5" y="279"/>
      </g>
     </g>
     <g id="text_1">
      <!-- −2.0 -->
      <g transform="translate(42.164418 293.598437)scale(0.1 -0.1)">
       <defs>
        <path d="M 10.59375 35.5 
L 73.1875 35.5 
L 73.1875 27.203125 
L 10.59375 27.203125 
z
" id="DejaVuSans-8722"/>
        <path d="M 19.1875 8.296875 
L 53.609375 8.296875 
L 53.609375 0 
L 7.328125 0 
L 7.328125 8.296875 
Q 12.9375 14.109375 22.625 23.890625 
Q 32.328125 33.6875 34.8125 36.53125 
Q 39.546875 41.84375 41.421875 45.53125 
Q 43.3125 49.21875 43.3125 52.78125 
Q 43.3125 58.59375 39.234375 62.25 
Q 35.15625 65.921875 28.609375 65.921875 
Q 23.96875 65.921875 18.8125 64.3125 
Q 13.671875 62.703125 7.8125 59.421875 
L 7.8125 69.390625 
Q 13.765625 71.78125 18.9375 73 
Q 24.125 74.21875 28.421875 74.21875 
Q 39.75 74.21875 46.484375 68.546875 
Q 53.21875 62.890625 53.21875 53.421875 
Q 53.21875 48.921875 51.53125 44.890625 
Q 49.859375 40.875 45.40625 35.40625 
Q 44.1875 33.984375 37.640625 27.21875 
Q 31.109375 20.453125 19.1875 8.296875 
z
" id="DejaVuSans-50"/>
        <path d="M 10.6875 12.40625 
L 21 12.40625 
L 21 0 
L 10.6875 0 
z
" id="DejaVuSans-46"/>
        <path d="M 31.78125 66.40625 
Q 24.171875 66.40625 20.328125 58.90625 
Q 16.5 51.421875 16.5 36.375 
Q 16.5 21.390625 20.328125 13.890625 
Q 24.171875 6.390625 31.78125 6.390625 
Q 39.453125 6.390625 43.28125 13.890625 
Q 47.125 21.390625 47.125 36.375 
Q 47.125 51.421875 43.28125 58.90625 
Q 39.453125 66.40625 31.78125 66.40625 
z
M 31.78125 74.21875 
Q 44.046875 74.21875 50.515625 64.515625 
Q 56.984375 54.828125 56.984375 36.375 
Q 56.984375 17.96875 50.515625 8.265625 
Q 44.046875 -1.421875 31.78125 -1.421875 
Q 19.53125 -1.421875 13.0625 8.265625 
Q 6.59375 17.96875 6.59375 36.375 
Q 6.59375 54.828125 13.0625 64.515625 
Q 19.53125 74.21875 31.78125 74.21875 
z
" id="DejaVuSans-48"/>
       </defs>
       <use xlink:href="#DejaVuSans-8722"/>
       <use x="83.789062" xlink:href="#DejaVuSans-50"/>
       <use x="147.412109" xlink:href="#DejaVuSans-46"/>
       <use x="179.199219" xlink:href="#DejaVuSans-48"/>
      </g>
     </g>
    </g>
    <g id="xtick_2">
     <g id="line2d_3">
      <path clip-path="url(#pc191f96388)" d="M 117.714915 279 
L 117.714915 7.2 
" style="fill:none;stroke:#b0b0b0;stroke-linecap:square;stroke-width:0.8;"/>
     </g>
     <g id="line2d_4">
      <g>
       <use style="stroke:#000000;stroke-width:0.8;" x="117.714915" xlink:href="#m04dd77c3a5" y="279"/>
      </g>
     </g>
     <g id="text_2">
      <!-- −1.5 -->
      <g transform="translate(105.573509 293.598437)scale(0.1 -0.1)">
       <defs>
        <path d="M 12.40625 8.296875 
L 28.515625 8.296875 
L 28.515625 63.921875 
L 10.984375 60.40625 
L 10.984375 69.390625 
L 28.421875 72.90625 
L 38.28125 72.90625 
L 38.28125 8.296875 
L 54.390625 8.296875 
L 54.390625 0 
L 12.40625 0 
z
" id="DejaVuSans-49"/>
        <path d="M 10.796875 72.90625 
L 49.515625 72.90625 
L 49.515625 64.59375 
L 19.828125 64.59375 
L 19.828125 46.734375 
Q 21.96875 47.46875 24.109375 47.828125 
Q 26.265625 48.1875 28.421875 48.1875 
Q 40.625 48.1875 47.75 41.5 
Q 54.890625 34.8125 54.890625 23.390625 
Q 54.890625 11.625 47.5625 5.09375 
Q 40.234375 -1.421875 26.90625 -1.421875 
Q 22.3125 -1.421875 17.546875 -0.640625 
Q 12.796875 0.140625 7.71875 1.703125 
L 7.71875 11.625 
Q 12.109375 9.234375 16.796875 8.0625 
Q 21.484375 6.890625 26.703125 6.890625 
Q 35.15625 6.890625 40.078125 11.328125 
Q 45.015625 15.765625 45.015625 23.390625 
Q 45.015625 31 40.078125 35.4375 
Q 35.15625 39.890625 26.703125 39.890625 
Q 22.75 39.890625 18.8125 39.015625 
Q 14.890625 38.140625 10.796875 36.28125 
z
" id="DejaVuSans-53"/>
       </defs>
       <use xlink:href="#DejaVuSans-8722"/>
       <use x="83.789062" xlink:href="#DejaVuSans-49"/>
       <use x="147.412109" xlink:href="#DejaVuSans-46"/>
       <use x="179.199219" xlink:href="#DejaVuSans-53"/>
      </g>
     </g>
    </g>
    <g id="xtick_3">
     <g id="line2d_5">
      <path clip-path="url(#pc191f96388)" d="M 181.124006 279 
L 181.124006 7.2 
" style="fill:none;stroke:#b0b0b0;stroke-linecap:square;stroke-width:0.8;"/>
     </g>
     <g id="line2d_6">
      <g>
       <use style="stroke:#000000;stroke-width:0.8;" x="181.124006" xlink:href="#m04dd77c3a5" y="279"/>
      </g>
     </g>
     <g id="text_3">
      <!-- −1.0 -->
      <g transform="translate(168.982599 293.598437)scale(0.1 -0.1)">
       <use xlink:href="#DejaVuSans-8722"/>
       <use x="83.789062" xlink:href="#DejaVuSans-49"/>
       <use x="147.412109" xlink:href="#DejaVuSans-46"/>
       <use x="179.199219" xlink:href="#DejaVuSans-48"/>
      </g>
     </g>
    </g>
    <g id="xtick_4">
     <g id="line2d_7">
      <path clip-path="url(#pc191f96388)" d="M 244.533097 279 
L 244.533097 7.2 
" style="fill:none;stroke:#b0b0b0;stroke-linecap:square;stroke-width:0.8;"/>
     </g>
     <g id="line2d_8">
      <g>
       <use style="stroke:#000000;stroke-width:0.8;" x="244.533097" xlink:href="#m04dd77c3a5" y="279"/>
      </g>
     </g>
     <g id="text_4">
      <!-- −0.5 -->
      <g transform="translate(232.39169 293.598437)scale(0.1 -0.1)">
       <use xlink:href="#DejaVuSans-8722"/>
       <use x="83.789062" xlink:href="#DejaVuSans-48"/>
       <use x="147.412109" xlink:href="#DejaVuSans-46"/>
       <use x="179.199219" xlink:href="#DejaVuSans-53"/>
      </g>
     </g>
    </g>
    <g id="xtick_5">
     <g id="line2d_9">
      <path clip-path="url(#pc191f96388)" d="M 307.942187 279 
L 307.942187 7.2 
" style="fill:none;stroke:#b0b0b0;stroke-linecap:square;stroke-width:0.8;"/>
     </g>
     <g id="line2d_10">
      <g>
       <use style="stroke:#000000;stroke-width:0.8;" x="307.942187" xlink:href="#m04dd77c3a5" y="279"/>
      </g>
     </g>
     <g id="text_5">
      <!-- 0.0 -->
      <g transform="translate(299.990625 293.598437)scale(0.1 -0.1)">
       <use xlink:href="#DejaVuSans-48"/>
       <use x="63.623047" xlink:href="#DejaVuSans-46"/>
       <use x="95.410156" xlink:href="#DejaVuSans-48"/>
      </g>
     </g>
    </g>
    <g id="xtick_6">
     <g id="line2d_11">
      <path clip-path="url(#pc191f96388)" d="M 371.351278 279 
L 371.351278 7.2 
" style="fill:none;stroke:#b0b0b0;stroke-linecap:square;stroke-width:0.8;"/>
     </g>
     <g id="line2d_12">
      <g>
       <use style="stroke:#000000;stroke-width:0.8;" x="371.351278" xlink:href="#m04dd77c3a5" y="279"/>
      </g>
     </g>
     <g id="text_6">
      <!-- 0.5 -->
      <g transform="translate(363.399716 293.598437)scale(0.1 -0.1)">
       <use xlink:href="#DejaVuSans-48"/>
       <use x="63.623047" xlink:href="#DejaVuSans-46"/>
       <use x="95.410156" xlink:href="#DejaVuSans-53"/>
      </g>
     </g>
    </g>
    <g id="xtick_7">
     <g id="line2d_13">
      <path clip-path="url(#pc191f96388)" d="M 434.760369 279 
L 434.760369 7.2 
" style="fill:none;stroke:#b0b0b0;stroke-linecap:square;stroke-width:0.8;"/>
     </g>
     <g id="line2d_14">
      <g>
       <use style="stroke:#000000;stroke-width:0.8;" x="434.760369" xlink:href="#m04dd77c3a5" y="279"/>
      </g>
     </g>
     <g id="text_7">
      <!-- 1.0 -->
      <g transform="translate(426.808807 293.598437)scale(0.1 -0.1)">
       <use xlink:href="#DejaVuSans-49"/>
       <use x="63.623047" xlink:href="#DejaVuSans-46"/>
       <use x="95.410156" xlink:href="#DejaVuSans-48"/>
      </g>
     </g>
    </g>
    <g id="xtick_8">
     <g id="line2d_15">
      <path clip-path="url(#pc191f96388)" d="M 498.16946 279 
L 498.16946 7.2 
" style="fill:none;stroke:#b0b0b0;stroke-linecap:square;stroke-width:0.8;"/>
     </g>
     <g id="line2d_16">
      <g>
       <use style="stroke:#000000;stroke-width:0.8;" x="498.16946" xlink:href="#m04dd77c3a5" y="279"/>
      </g>
     </g>
     <g id="text_8">
      <!-- 1.5 -->
      <g transform="translate(490.217898 293.598437)scale(0.1 -0.1)">
       <use xlink:href="#DejaVuSans-49"/>
       <use x="63.623047" xlink:href="#DejaVuSans-46"/>
       <use x="95.410156" xlink:href="#DejaVuSans-53"/>
      </g>
     </g>
    </g>
    <g id="xtick_9">
     <g id="line2d_17">
      <path clip-path="url(#pc191f96388)" d="M 561.578551 279 
L 561.578551 7.2 
" style="fill:none;stroke:#b0b0b0;stroke-linecap:square;stroke-width:0.8;"/>
     </g>
     <g id="line2d_18">
      <g>
       <use style="stroke:#000000;stroke-width:0.8;" x="561.578551" xlink:href="#m04dd77c3a5" y="279"/>
      </g>
     </g>
     <g id="text_9">
      <!-- 2.0 -->
      <g transform="translate(553.626989 293.598437)scale(0.1 -0.1)">
       <use xlink:href="#DejaVuSans-50"/>
       <use x="63.623047" xlink:href="#DejaVuSans-46"/>
       <use x="95.410156" xlink:href="#DejaVuSans-48"/>
      </g>
     </g>
    </g>
   </g>
   <g id="matplotlib.axis_2">
    <g id="ytick_1">
     <g id="line2d_19">
      <path clip-path="url(#pc191f96388)" d="M 28.942188 248.408058 
L 586.942188 248.408058 
" style="fill:none;stroke:#b0b0b0;stroke-linecap:square;stroke-width:0.8;"/>
     </g>
     <g id="line2d_20">
      <defs>
       <path d="M 0 0 
L -3.5 0 
" id="m97b1afd6d2" style="stroke:#000000;stroke-width:0.8;"/>
      </defs>
      <g>
       <use style="stroke:#000000;stroke-width:0.8;" x="28.942188" xlink:href="#m97b1afd6d2" y="248.408058"/>
      </g>
     </g>
     <g id="text_10">
      <!-- −2 -->
      <g transform="translate(7.2 252.207277)scale(0.1 -0.1)">
       <use xlink:href="#DejaVuSans-8722"/>
       <use x="83.789062" xlink:href="#DejaVuSans-50"/>
      </g>
     </g>
    </g>
    <g id="ytick_2">
     <g id="line2d_21">
      <path clip-path="url(#pc191f96388)" d="M 28.942188 211.473295 
L 586.942188 211.473295 
" style="fill:none;stroke:#b0b0b0;stroke-linecap:square;stroke-width:0.8;"/>
     </g>
     <g id="line2d_22">
      <g>
       <use style="stroke:#000000;stroke-width:0.8;" x="28.942188" xlink:href="#m97b1afd6d2" y="211.473295"/>
      </g>
     </g>
     <g id="text_11">
      <!-- 0 -->
      <g transform="translate(15.579688 215.272513)scale(0.1 -0.1)">
       <use xlink:href="#DejaVuSans-48"/>
      </g>
     </g>
    </g>
    <g id="ytick_3">
     <g id="line2d_23">
      <path clip-path="url(#pc191f96388)" d="M 28.942188 174.538531 
L 586.942188 174.538531 
" style="fill:none;stroke:#b0b0b0;stroke-linecap:square;stroke-width:0.8;"/>
     </g>
     <g id="line2d_24">
      <g>
       <use style="stroke:#000000;stroke-width:0.8;" x="28.942188" xlink:href="#m97b1afd6d2" y="174.538531"/>
      </g>
     </g>
     <g id="text_12">
      <!-- 2 -->
      <g transform="translate(15.579688 178.33775)scale(0.1 -0.1)">
       <use xlink:href="#DejaVuSans-50"/>
      </g>
     </g>
    </g>
    <g id="ytick_4">
     <g id="line2d_25">
      <path clip-path="url(#pc191f96388)" d="M 28.942188 137.603767 
L 586.942188 137.603767 
" style="fill:none;stroke:#b0b0b0;stroke-linecap:square;stroke-width:0.8;"/>
     </g>
     <g id="line2d_26">
      <g>
       <use style="stroke:#000000;stroke-width:0.8;" x="28.942188" xlink:href="#m97b1afd6d2" y="137.603767"/>
      </g>
     </g>
     <g id="text_13">
      <!-- 4 -->
      <g transform="translate(15.579688 141.402986)scale(0.1 -0.1)">
       <defs>
        <path d="M 37.796875 64.3125 
L 12.890625 25.390625 
L 37.796875 25.390625 
z
M 35.203125 72.90625 
L 47.609375 72.90625 
L 47.609375 25.390625 
L 58.015625 25.390625 
L 58.015625 17.1875 
L 47.609375 17.1875 
L 47.609375 0 
L 37.796875 0 
L 37.796875 17.1875 
L 4.890625 17.1875 
L 4.890625 26.703125 
z
" id="DejaVuSans-52"/>
       </defs>
       <use xlink:href="#DejaVuSans-52"/>
      </g>
     </g>
    </g>
    <g id="ytick_5">
     <g id="line2d_27">
      <path clip-path="url(#pc191f96388)" d="M 28.942188 100.669003 
L 586.942188 100.669003 
" style="fill:none;stroke:#b0b0b0;stroke-linecap:square;stroke-width:0.8;"/>
     </g>
     <g id="line2d_28">
      <g>
       <use style="stroke:#000000;stroke-width:0.8;" x="28.942188" xlink:href="#m97b1afd6d2" y="100.669003"/>
      </g>
     </g>
     <g id="text_14">
      <!-- 6 -->
      <g transform="translate(15.579688 104.468222)scale(0.1 -0.1)">
       <defs>
        <path d="M 33.015625 40.375 
Q 26.375 40.375 22.484375 35.828125 
Q 18.609375 31.296875 18.609375 23.390625 
Q 18.609375 15.53125 22.484375 10.953125 
Q 26.375 6.390625 33.015625 6.390625 
Q 39.65625 6.390625 43.53125 10.953125 
Q 47.40625 15.53125 47.40625 23.390625 
Q 47.40625 31.296875 43.53125 35.828125 
Q 39.65625 40.375 33.015625 40.375 
z
M 52.59375 71.296875 
L 52.59375 62.3125 
Q 48.875 64.0625 45.09375 64.984375 
Q 41.3125 65.921875 37.59375 65.921875 
Q 27.828125 65.921875 22.671875 59.328125 
Q 17.53125 52.734375 16.796875 39.40625 
Q 19.671875 43.65625 24.015625 45.921875 
Q 28.375 48.1875 33.59375 48.1875 
Q 44.578125 48.1875 50.953125 41.515625 
Q 57.328125 34.859375 57.328125 23.390625 
Q 57.328125 12.15625 50.6875 5.359375 
Q 44.046875 -1.421875 33.015625 -1.421875 
Q 20.359375 -1.421875 13.671875 8.265625 
Q 6.984375 17.96875 6.984375 36.375 
Q 6.984375 53.65625 15.1875 63.9375 
Q 23.390625 74.21875 37.203125 74.21875 
Q 40.921875 74.21875 44.703125 73.484375 
Q 48.484375 72.75 52.59375 71.296875 
z
" id="DejaVuSans-54"/>
       </defs>
       <use xlink:href="#DejaVuSans-54"/>
      </g>
     </g>
    </g>
    <g id="ytick_6">
     <g id="line2d_29">
      <path clip-path="url(#pc191f96388)" d="M 28.942188 63.734239 
L 586.942188 63.734239 
" style="fill:none;stroke:#b0b0b0;stroke-linecap:square;stroke-width:0.8;"/>
     </g>
     <g id="line2d_30">
      <g>
       <use style="stroke:#000000;stroke-width:0.8;" x="28.942188" xlink:href="#m97b1afd6d2" y="63.734239"/>
      </g>
     </g>
     <g id="text_15">
      <!-- 8 -->
      <g transform="translate(15.579688 67.533458)scale(0.1 -0.1)">
       <defs>
        <path d="M 31.78125 34.625 
Q 24.75 34.625 20.71875 30.859375 
Q 16.703125 27.09375 16.703125 20.515625 
Q 16.703125 13.921875 20.71875 10.15625 
Q 24.75 6.390625 31.78125 6.390625 
Q 38.8125 6.390625 42.859375 10.171875 
Q 46.921875 13.96875 46.921875 20.515625 
Q 46.921875 27.09375 42.890625 30.859375 
Q 38.875 34.625 31.78125 34.625 
z
M 21.921875 38.8125 
Q 15.578125 40.375 12.03125 44.71875 
Q 8.5 49.078125 8.5 55.328125 
Q 8.5 64.0625 14.71875 69.140625 
Q 20.953125 74.21875 31.78125 74.21875 
Q 42.671875 74.21875 48.875 69.140625 
Q 55.078125 64.0625 55.078125 55.328125 
Q 55.078125 49.078125 51.53125 44.71875 
Q 48 40.375 41.703125 38.8125 
Q 48.828125 37.15625 52.796875 32.3125 
Q 56.78125 27.484375 56.78125 20.515625 
Q 56.78125 9.90625 50.3125 4.234375 
Q 43.84375 -1.421875 31.78125 -1.421875 
Q 19.734375 -1.421875 13.25 4.234375 
Q 6.78125 9.90625 6.78125 20.515625 
Q 6.78125 27.484375 10.78125 32.3125 
Q 14.796875 37.15625 21.921875 38.8125 
z
M 18.3125 54.390625 
Q 18.3125 48.734375 21.84375 45.5625 
Q 25.390625 42.390625 31.78125 42.390625 
Q 38.140625 42.390625 41.71875 45.5625 
Q 45.3125 48.734375 45.3125 54.390625 
Q 45.3125 60.0625 41.71875 63.234375 
Q 38.140625 66.40625 31.78125 66.40625 
Q 25.390625 66.40625 21.84375 63.234375 
Q 18.3125 60.0625 18.3125 54.390625 
z
" id="DejaVuSans-56"/>
       </defs>
       <use xlink:href="#DejaVuSans-56"/>
      </g>
     </g>
    </g>
    <g id="ytick_7">
     <g id="line2d_31">
      <path clip-path="url(#pc191f96388)" d="M 28.942188 26.799475 
L 586.942188 26.799475 
" style="fill:none;stroke:#b0b0b0;stroke-linecap:square;stroke-width:0.8;"/>
     </g>
     <g id="line2d_32">
      <g>
       <use style="stroke:#000000;stroke-width:0.8;" x="28.942188" xlink:href="#m97b1afd6d2" y="26.799475"/>
      </g>
     </g>
     <g id="text_16">
      <!-- 10 -->
      <g transform="translate(9.217188 30.598694)scale(0.1 -0.1)">
       <use xlink:href="#DejaVuSans-49"/>
       <use x="63.623047" xlink:href="#DejaVuSans-48"/>
      </g>
     </g>
    </g>
   </g>
   <g id="line2d_33">
    <path clip-path="url(#pc191f96388)" d="M 54.305824 227.047214 
L 59.429791 225.125187 
L 64.553758 224.426415 
L 69.677725 222.049641 
L 74.801692 219.75628 
L 79.925659 219.398419 
L 85.049626 216.32356 
L 90.173592 214.134122 
L 95.297559 214.089618 
L 100.421526 211.976293 
L 105.545493 209.901258 
L 110.66946 207.472632 
L 115.793427 207.511363 
L 120.917394 205.427037 
L 126.041361 204.551972 
L 131.165328 201.158387 
L 136.289295 200.229009 
L 141.413262 200.077725 
L 146.537229 196.670999 
L 151.661196 195.621072 
L 156.785163 193.886935 
L 161.90913 190.571005 
L 167.033097 190.041966 
L 172.157064 188.548809 
L 177.28103 186.9762 
L 182.404997 184.968459 
L 187.528964 183.182757 
L 192.652931 182.90366 
L 197.776898 180.471063 
L 202.900865 177.320399 
L 208.024832 176.693751 
L 213.148799 174.414294 
L 218.272766 173.591656 
L 223.396733 171.833534 
L 228.5207 169.043308 
L 233.644667 168.364066 
L 238.768634 166.157755 
L 243.892601 165.023429 
L 249.016568 164.01719 
L 254.140535 162.173889 
L 259.264502 160.187132 
L 264.388468 157.612003 
L 269.512435 156.296902 
L 274.636402 154.684226 
L 279.760369 153.720525 
L 284.884336 151.087503 
L 290.008303 148.654103 
L 295.13227 148.444119 
L 300.256237 146.643033 
L 305.380204 144.865787 
L 310.504171 142.486343 
L 315.628138 140.251926 
L 320.752105 140.167359 
L 325.876072 137.30538 
L 331.000039 136.334561 
L 336.124006 134.085825 
L 341.247973 134.032866 
L 346.37194 132.703196 
L 351.495907 129.946454 
L 356.619873 128.362922 
L 361.74384 126.490604 
L 366.867807 124.801716 
L 371.991774 124.112293 
L 377.115741 121.590032 
L 382.239708 119.368265 
L 387.363675 118.256315 
L 392.487642 116.044092 
L 397.611609 115.387792 
L 402.735576 113.5704 
L 407.859543 110.978194 
L 412.98351 109.026637 
L 418.107477 106.951892 
L 423.231444 106.034114 
L 428.355411 104.672098 
L 433.479378 103.033056 
L 438.603345 100.572453 
L 443.727311 99.821629 
L 448.851278 97.660941 
L 453.975245 96.08766 
L 459.099212 95.013484 
L 464.223179 94.033689 
L 469.347146 91.022325 
L 474.471113 89.607011 
L 479.59508 87.54695 
L 484.719047 86.820573 
L 489.843014 83.510687 
L 494.966981 82.53059 
L 500.090948 82.184115 
L 505.214915 78.641857 
L 510.338882 76.510633 
L 515.462849 76.90512 
L 520.586816 75.467093 
L 525.710783 73.262156 
L 530.834749 71.891871 
L 535.958716 69.378295 
L 541.082683 69.194605 
L 546.20665 65.366507 
L 551.330617 65.266681 
L 556.454584 62.577874 
L 561.578551 60.529242 
" style="fill:none;stroke:#1f77b4;stroke-linecap:square;stroke-width:1.5;"/>
   </g>
   <g id="patch_3">
    <path d="M 28.942188 279 
L 28.942188 7.2 
" style="fill:none;stroke:#000000;stroke-linecap:square;stroke-linejoin:miter;stroke-width:0.8;"/>
   </g>
   <g id="patch_4">
    <path d="M 586.942188 279 
L 586.942188 7.2 
" style="fill:none;stroke:#000000;stroke-linecap:square;stroke-linejoin:miter;stroke-width:0.8;"/>
   </g>
   <g id="patch_5">
    <path d="M 28.942187 279 
L 586.942188 279 
" style="fill:none;stroke:#000000;stroke-linecap:square;stroke-linejoin:miter;stroke-width:0.8;"/>
   </g>
   <g id="patch_6">
    <path d="M 28.942187 7.2 
L 586.942188 7.2 
" style="fill:none;stroke:#000000;stroke-linecap:square;stroke-linejoin:miter;stroke-width:0.8;"/>
   </g>
  </g>
 </g>
 <defs>
  <clipPath id="pc191f96388">
   <rect height="271.8" width="558" x="28.942188" y="7.2"/>
  </clipPath>
 </defs>
</svg>
