<?xml version="1.0" encoding="utf-8" standalone="no"?>
<!DOCTYPE svg PUBLIC "-//W3C//DTD SVG 1.1//EN"
  "http://www.w3.org/Graphics/SVG/1.1/DTD/svg11.dtd">
<!-- Created with matplotlib (https://matplotlib.org/) -->
<svg height="265.69625pt" version="1.1" viewBox="0 0 389.303125 265.69625" width="389.303125pt" xmlns="http://www.w3.org/2000/svg" xmlns:xlink="http://www.w3.org/1999/xlink">
 <defs>
  <style type="text/css">
*{stroke-linecap:butt;stroke-linejoin:round;}
  </style>
 </defs>
 <g id="figure_1">
  <g id="patch_1">
   <path d="M 0 265.69625 
L 389.303125 265.69625 
L 389.303125 0 
L 0 0 
z
" style="fill:none;"/>
  </g>
  <g id="axes_1">
   <g id="patch_2">
    <path d="M 43.803125 228.14 
L 378.603125 228.14 
L 378.603125 10.7 
L 43.803125 10.7 
z
" style="fill:#ffffff;"/>
   </g>
   <g id="matplotlib.axis_1">
    <g id="xtick_1">
     <g id="line2d_1">
      <path clip-path="url(#p23cadee88b)" d="M 55.883537 228.14 
L 55.883537 10.7 
" style="fill:none;stroke:#b0b0b0;stroke-linecap:square;stroke-width:0.8;"/>
     </g>
     <g id="line2d_2">
      <defs>
       <path d="M 0 0 
L 0 3.5 
" id="m78b580ef70" style="stroke:#000000;stroke-width:0.8;"/>
      </defs>
      <g>
       <use style="stroke:#000000;stroke-width:0.8;" x="55.883537" xlink:href="#m78b580ef70" y="228.14"/>
      </g>
     </g>
     <g id="text_1">
      <!-- 0.0 -->
      <defs>
       <path d="M 31.78125 66.40625 
Q 24.171875 66.40625 20.328125 58.90625 
Q 16.5 51.421875 16.5 36.375 
Q 16.5 21.390625 20.328125 13.890625 
Q 24.171875 6.390625 31.78125 6.390625 
Q 39.453125 6.390625 43.28125 13.890625 
Q 47.125 21.390625 47.125 36.375 
Q 47.125 51.421875 43.28125 58.90625 
Q 39.453125 66.40625 31.78125 66.40625 
z
M 31.78125 74.21875 
Q 44.046875 74.21875 50.515625 64.515625 
Q 56.984375 54.828125 56.984375 36.375 
Q 56.984375 17.96875 50.515625 8.265625 
Q 44.046875 -1.421875 31.78125 -1.421875 
Q 19.53125 -1.421875 13.0625 8.265625 
Q 6.59375 17.96875 6.59375 36.375 
Q 6.59375 54.828125 13.0625 64.515625 
Q 19.53125 74.21875 31.78125 74.21875 
z
" id="DejaVuSans-48"/>
       <path d="M 10.6875 12.40625 
L 21 12.40625 
L 21 0 
L 10.6875 0 
z
" id="DejaVuSans-46"/>
      </defs>
      <g transform="translate(47.931975 242.738437)scale(0.1 -0.1)">
       <use xlink:href="#DejaVuSans-48"/>
       <use x="63.623047" xlink:href="#DejaVuSans-46"/>
       <use x="95.410156" xlink:href="#DejaVuSans-48"/>
      </g>
     </g>
    </g>
    <g id="xtick_2">
     <g id="line2d_3">
      <path clip-path="url(#p23cadee88b)" d="M 118.011372 228.14 
L 118.011372 10.7 
" style="fill:none;stroke:#b0b0b0;stroke-linecap:square;stroke-width:0.8;"/>
     </g>
     <g id="line2d_4">
      <g>
       <use style="stroke:#000000;stroke-width:0.8;" x="118.011372" xlink:href="#m78b580ef70" y="228.14"/>
      </g>
     </g>
     <g id="text_2">
      <!-- 0.2 -->
      <defs>
       <path d="M 19.1875 8.296875 
L 53.609375 8.296875 
L 53.609375 0 
L 7.328125 0 
L 7.328125 8.296875 
Q 12.9375 14.109375 22.625 23.890625 
Q 32.328125 33.6875 34.8125 36.53125 
Q 39.546875 41.84375 41.421875 45.53125 
Q 43.3125 49.21875 43.3125 52.78125 
Q 43.3125 58.59375 39.234375 62.25 
Q 35.15625 65.921875 28.609375 65.921875 
Q 23.96875 65.921875 18.8125 64.3125 
Q 13.671875 62.703125 7.8125 59.421875 
L 7.8125 69.390625 
Q 13.765625 71.78125 18.9375 73 
Q 24.125 74.21875 28.421875 74.21875 
Q 39.75 74.21875 46.484375 68.546875 
Q 53.21875 62.890625 53.21875 53.421875 
Q 53.21875 48.921875 51.53125 44.890625 
Q 49.859375 40.875 45.40625 35.40625 
Q 44.1875 33.984375 37.640625 27.21875 
Q 31.109375 20.453125 19.1875 8.296875 
z
" id="DejaVuSans-50"/>
      </defs>
      <g transform="translate(110.05981 242.738437)scale(0.1 -0.1)">
       <use xlink:href="#DejaVuSans-48"/>
       <use x="63.623047" xlink:href="#DejaVuSans-46"/>
       <use x="95.410156" xlink:href="#DejaVuSans-50"/>
      </g>
     </g>
    </g>
    <g id="xtick_3">
     <g id="line2d_5">
      <path clip-path="url(#p23cadee88b)" d="M 180.139207 228.14 
L 180.139207 10.7 
" style="fill:none;stroke:#b0b0b0;stroke-linecap:square;stroke-width:0.8;"/>
     </g>
     <g id="line2d_6">
      <g>
       <use style="stroke:#000000;stroke-width:0.8;" x="180.139207" xlink:href="#m78b580ef70" y="228.14"/>
      </g>
     </g>
     <g id="text_3">
      <!-- 0.4 -->
      <defs>
       <path d="M 37.796875 64.3125 
L 12.890625 25.390625 
L 37.796875 25.390625 
z
M 35.203125 72.90625 
L 47.609375 72.90625 
L 47.609375 25.390625 
L 58.015625 25.390625 
L 58.015625 17.1875 
L 47.609375 17.1875 
L 47.609375 0 
L 37.796875 0 
L 37.796875 17.1875 
L 4.890625 17.1875 
L 4.890625 26.703125 
z
" id="DejaVuSans-52"/>
      </defs>
      <g transform="translate(172.187645 242.738437)scale(0.1 -0.1)">
       <use xlink:href="#DejaVuSans-48"/>
       <use x="63.623047" xlink:href="#DejaVuSans-46"/>
       <use x="95.410156" xlink:href="#DejaVuSans-52"/>
      </g>
     </g>
    </g>
    <g id="xtick_4">
     <g id="line2d_7">
      <path clip-path="url(#p23cadee88b)" d="M 242.267043 228.14 
L 242.267043 10.7 
" style="fill:none;stroke:#b0b0b0;stroke-linecap:square;stroke-width:0.8;"/>
     </g>
     <g id="line2d_8">
      <g>
       <use style="stroke:#000000;stroke-width:0.8;" x="242.267043" xlink:href="#m78b580ef70" y="228.14"/>
      </g>
     </g>
     <g id="text_4">
      <!-- 0.6 -->
      <defs>
       <path d="M 33.015625 40.375 
Q 26.375 40.375 22.484375 35.828125 
Q 18.609375 31.296875 18.609375 23.390625 
Q 18.609375 15.53125 22.484375 10.953125 
Q 26.375 6.390625 33.015625 6.390625 
Q 39.65625 6.390625 43.53125 10.953125 
Q 47.40625 15.53125 47.40625 23.390625 
Q 47.40625 31.296875 43.53125 35.828125 
Q 39.65625 40.375 33.015625 40.375 
z
M 52.59375 71.296875 
L 52.59375 62.3125 
Q 48.875 64.0625 45.09375 64.984375 
Q 41.3125 65.921875 37.59375 65.921875 
Q 27.828125 65.921875 22.671875 59.328125 
Q 17.53125 52.734375 16.796875 39.40625 
Q 19.671875 43.65625 24.015625 45.921875 
Q 28.375 48.1875 33.59375 48.1875 
Q 44.578125 48.1875 50.953125 41.515625 
Q 57.328125 34.859375 57.328125 23.390625 
Q 57.328125 12.15625 50.6875 5.359375 
Q 44.046875 -1.421875 33.015625 -1.421875 
Q 20.359375 -1.421875 13.671875 8.265625 
Q 6.984375 17.96875 6.984375 36.375 
Q 6.984375 53.65625 15.1875 63.9375 
Q 23.390625 74.21875 37.203125 74.21875 
Q 40.921875 74.21875 44.703125 73.484375 
Q 48.484375 72.75 52.59375 71.296875 
z
" id="DejaVuSans-54"/>
      </defs>
      <g transform="translate(234.31548 242.738437)scale(0.1 -0.1)">
       <use xlink:href="#DejaVuSans-48"/>
       <use x="63.623047" xlink:href="#DejaVuSans-46"/>
       <use x="95.410156" xlink:href="#DejaVuSans-54"/>
      </g>
     </g>
    </g>
    <g id="xtick_5">
     <g id="line2d_9">
      <path clip-path="url(#p23cadee88b)" d="M 304.394878 228.14 
L 304.394878 10.7 
" style="fill:none;stroke:#b0b0b0;stroke-linecap:square;stroke-width:0.8;"/>
     </g>
     <g id="line2d_10">
      <g>
       <use style="stroke:#000000;stroke-width:0.8;" x="304.394878" xlink:href="#m78b580ef70" y="228.14"/>
      </g>
     </g>
     <g id="text_5">
      <!-- 0.8 -->
      <defs>
       <path d="M 31.78125 34.625 
Q 24.75 34.625 20.71875 30.859375 
Q 16.703125 27.09375 16.703125 20.515625 
Q 16.703125 13.921875 20.71875 10.15625 
Q 24.75 6.390625 31.78125 6.390625 
Q 38.8125 6.390625 42.859375 10.171875 
Q 46.921875 13.96875 46.921875 20.515625 
Q 46.921875 27.09375 42.890625 30.859375 
Q 38.875 34.625 31.78125 34.625 
z
M 21.921875 38.8125 
Q 15.578125 40.375 12.03125 44.71875 
Q 8.5 49.078125 8.5 55.328125 
Q 8.5 64.0625 14.71875 69.140625 
Q 20.953125 74.21875 31.78125 74.21875 
Q 42.671875 74.21875 48.875 69.140625 
Q 55.078125 64.0625 55.078125 55.328125 
Q 55.078125 49.078125 51.53125 44.71875 
Q 48 40.375 41.703125 38.8125 
Q 48.828125 37.15625 52.796875 32.3125 
Q 56.78125 27.484375 56.78125 20.515625 
Q 56.78125 9.90625 50.3125 4.234375 
Q 43.84375 -1.421875 31.78125 -1.421875 
Q 19.734375 -1.421875 13.25 4.234375 
Q 6.78125 9.90625 6.78125 20.515625 
Q 6.78125 27.484375 10.78125 32.3125 
Q 14.796875 37.15625 21.921875 38.8125 
z
M 18.3125 54.390625 
Q 18.3125 48.734375 21.84375 45.5625 
Q 25.390625 42.390625 31.78125 42.390625 
Q 38.140625 42.390625 41.71875 45.5625 
Q 45.3125 48.734375 45.3125 54.390625 
Q 45.3125 60.0625 41.71875 63.234375 
Q 38.140625 66.40625 31.78125 66.40625 
Q 25.390625 66.40625 21.84375 63.234375 
Q 18.3125 60.0625 18.3125 54.390625 
z
" id="DejaVuSans-56"/>
      </defs>
      <g transform="translate(296.443315 242.738437)scale(0.1 -0.1)">
       <use xlink:href="#DejaVuSans-48"/>
       <use x="63.623047" xlink:href="#DejaVuSans-46"/>
       <use x="95.410156" xlink:href="#DejaVuSans-56"/>
      </g>
     </g>
    </g>
    <g id="xtick_6">
     <g id="line2d_11">
      <path clip-path="url(#p23cadee88b)" d="M 366.522713 228.14 
L 366.522713 10.7 
" style="fill:none;stroke:#b0b0b0;stroke-linecap:square;stroke-width:0.8;"/>
     </g>
     <g id="line2d_12">
      <g>
       <use style="stroke:#000000;stroke-width:0.8;" x="366.522713" xlink:href="#m78b580ef70" y="228.14"/>
      </g>
     </g>
     <g id="text_6">
      <!-- 1.0 -->
      <defs>
       <path d="M 12.40625 8.296875 
L 28.515625 8.296875 
L 28.515625 63.921875 
L 10.984375 60.40625 
L 10.984375 69.390625 
L 28.421875 72.90625 
L 38.28125 72.90625 
L 38.28125 8.296875 
L 54.390625 8.296875 
L 54.390625 0 
L 12.40625 0 
z
" id="DejaVuSans-49"/>
      </defs>
      <g transform="translate(358.57115 242.738437)scale(0.1 -0.1)">
       <use xlink:href="#DejaVuSans-49"/>
       <use x="63.623047" xlink:href="#DejaVuSans-46"/>
       <use x="95.410156" xlink:href="#DejaVuSans-48"/>
      </g>
     </g>
    </g>
    <g id="text_7">
     <!-- $x$ -->
     <defs>
      <path d="M 60.015625 54.6875 
L 34.90625 27.875 
L 50.296875 0 
L 39.984375 0 
L 28.421875 21.6875 
L 8.296875 0 
L -2.59375 0 
L 24.3125 28.8125 
L 10.015625 54.6875 
L 20.3125 54.6875 
L 30.8125 34.90625 
L 49.125 54.6875 
z
" id="DejaVuSans-Oblique-120"/>
     </defs>
     <g transform="translate(208.203125 256.416562)scale(0.1 -0.1)">
      <use transform="translate(0 0.3125)" xlink:href="#DejaVuSans-Oblique-120"/>
     </g>
    </g>
   </g>
   <g id="matplotlib.axis_2">
    <g id="ytick_1">
     <g id="line2d_13">
      <path clip-path="url(#p23cadee88b)" d="M 43.803125 218.262141 
L 378.603125 218.262141 
" style="fill:none;stroke:#b0b0b0;stroke-linecap:square;stroke-width:0.8;"/>
     </g>
     <g id="line2d_14">
      <defs>
       <path d="M 0 0 
L -3.5 0 
" id="mfc84b1aeb8" style="stroke:#000000;stroke-width:0.8;"/>
      </defs>
      <g>
       <use style="stroke:#000000;stroke-width:0.8;" x="43.803125" xlink:href="#mfc84b1aeb8" y="218.262141"/>
      </g>
     </g>
     <g id="text_8">
      <!-- 0.0 -->
      <g transform="translate(20.9 222.06136)scale(0.1 -0.1)">
       <use xlink:href="#DejaVuSans-48"/>
       <use x="63.623047" xlink:href="#DejaVuSans-46"/>
       <use x="95.410156" xlink:href="#DejaVuSans-48"/>
      </g>
     </g>
    </g>
    <g id="ytick_2">
     <g id="line2d_15">
      <path clip-path="url(#p23cadee88b)" d="M 43.803125 170.588518 
L 378.603125 170.588518 
" style="fill:none;stroke:#b0b0b0;stroke-linecap:square;stroke-width:0.8;"/>
     </g>
     <g id="line2d_16">
      <g>
       <use style="stroke:#000000;stroke-width:0.8;" x="43.803125" xlink:href="#mfc84b1aeb8" y="170.588518"/>
      </g>
     </g>
     <g id="text_9">
      <!-- 0.5 -->
      <defs>
       <path d="M 10.796875 72.90625 
L 49.515625 72.90625 
L 49.515625 64.59375 
L 19.828125 64.59375 
L 19.828125 46.734375 
Q 21.96875 47.46875 24.109375 47.828125 
Q 26.265625 48.1875 28.421875 48.1875 
Q 40.625 48.1875 47.75 41.5 
Q 54.890625 34.8125 54.890625 23.390625 
Q 54.890625 11.625 47.5625 5.09375 
Q 40.234375 -1.421875 26.90625 -1.421875 
Q 22.3125 -1.421875 17.546875 -0.640625 
Q 12.796875 0.140625 7.71875 1.703125 
L 7.71875 11.625 
Q 12.109375 9.234375 16.796875 8.0625 
Q 21.484375 6.890625 26.703125 6.890625 
Q 35.15625 6.890625 40.078125 11.328125 
Q 45.015625 15.765625 45.015625 23.390625 
Q 45.015625 31 40.078125 35.4375 
Q 35.15625 39.890625 26.703125 39.890625 
Q 22.75 39.890625 18.8125 39.015625 
Q 14.890625 38.140625 10.796875 36.28125 
z
" id="DejaVuSans-53"/>
      </defs>
      <g transform="translate(20.9 174.387737)scale(0.1 -0.1)">
       <use xlink:href="#DejaVuSans-48"/>
       <use x="63.623047" xlink:href="#DejaVuSans-46"/>
       <use x="95.410156" xlink:href="#DejaVuSans-53"/>
      </g>
     </g>
    </g>
    <g id="ytick_3">
     <g id="line2d_17">
      <path clip-path="url(#p23cadee88b)" d="M 43.803125 122.914895 
L 378.603125 122.914895 
" style="fill:none;stroke:#b0b0b0;stroke-linecap:square;stroke-width:0.8;"/>
     </g>
     <g id="line2d_18">
      <g>
       <use style="stroke:#000000;stroke-width:0.8;" x="43.803125" xlink:href="#mfc84b1aeb8" y="122.914895"/>
      </g>
     </g>
     <g id="text_10">
      <!-- 1.0 -->
      <g transform="translate(20.9 126.714114)scale(0.1 -0.1)">
       <use xlink:href="#DejaVuSans-49"/>
       <use x="63.623047" xlink:href="#DejaVuSans-46"/>
       <use x="95.410156" xlink:href="#DejaVuSans-48"/>
      </g>
     </g>
    </g>
    <g id="ytick_4">
     <g id="line2d_19">
      <path clip-path="url(#p23cadee88b)" d="M 43.803125 75.241272 
L 378.603125 75.241272 
" style="fill:none;stroke:#b0b0b0;stroke-linecap:square;stroke-width:0.8;"/>
     </g>
     <g id="line2d_20">
      <g>
       <use style="stroke:#000000;stroke-width:0.8;" x="43.803125" xlink:href="#mfc84b1aeb8" y="75.241272"/>
      </g>
     </g>
     <g id="text_11">
      <!-- 1.5 -->
      <g transform="translate(20.9 79.040491)scale(0.1 -0.1)">
       <use xlink:href="#DejaVuSans-49"/>
       <use x="63.623047" xlink:href="#DejaVuSans-46"/>
       <use x="95.410156" xlink:href="#DejaVuSans-53"/>
      </g>
     </g>
    </g>
    <g id="ytick_5">
     <g id="line2d_21">
      <path clip-path="url(#p23cadee88b)" d="M 43.803125 27.56765 
L 378.603125 27.56765 
" style="fill:none;stroke:#b0b0b0;stroke-linecap:square;stroke-width:0.8;"/>
     </g>
     <g id="line2d_22">
      <g>
       <use style="stroke:#000000;stroke-width:0.8;" x="43.803125" xlink:href="#mfc84b1aeb8" y="27.56765"/>
      </g>
     </g>
     <g id="text_12">
      <!-- 2.0 -->
      <g transform="translate(20.9 31.366868)scale(0.1 -0.1)">
       <use xlink:href="#DejaVuSans-50"/>
       <use x="63.623047" xlink:href="#DejaVuSans-46"/>
       <use x="95.410156" xlink:href="#DejaVuSans-48"/>
      </g>
     </g>
    </g>
    <g id="text_13">
     <!-- $p(x)$ -->
     <defs>
      <path d="M 49.609375 33.6875 
Q 49.609375 40.875 46.484375 44.671875 
Q 43.359375 48.484375 37.5 48.484375 
Q 33.5 48.484375 29.859375 46.4375 
Q 26.21875 44.390625 23.390625 40.484375 
Q 20.609375 36.625 18.9375 31.15625 
Q 17.28125 25.6875 17.28125 20.3125 
Q 17.28125 13.484375 20.40625 9.796875 
Q 23.53125 6.109375 29.296875 6.109375 
Q 33.546875 6.109375 37.1875 8.109375 
Q 40.828125 10.109375 43.40625 13.921875 
Q 46.1875 17.921875 47.890625 23.34375 
Q 49.609375 28.765625 49.609375 33.6875 
z
M 21.78125 46.390625 
Q 25.390625 51.125 30.296875 53.5625 
Q 35.203125 56 41.21875 56 
Q 49.609375 56 54.25 50.5 
Q 58.890625 45.015625 58.890625 35.109375 
Q 58.890625 27 56 19.65625 
Q 53.125 12.3125 47.703125 6.5 
Q 44.09375 2.640625 39.546875 0.609375 
Q 35.015625 -1.421875 29.984375 -1.421875 
Q 24.171875 -1.421875 20.21875 1 
Q 16.265625 3.421875 14.3125 8.203125 
L 8.6875 -20.796875 
L -0.296875 -20.796875 
L 14.40625 54.6875 
L 23.390625 54.6875 
z
" id="DejaVuSans-Oblique-112"/>
      <path d="M 31 75.875 
Q 24.46875 64.65625 21.28125 53.65625 
Q 18.109375 42.671875 18.109375 31.390625 
Q 18.109375 20.125 21.3125 9.0625 
Q 24.515625 -2 31 -13.1875 
L 23.1875 -13.1875 
Q 15.875 -1.703125 12.234375 9.375 
Q 8.59375 20.453125 8.59375 31.390625 
Q 8.59375 42.28125 12.203125 53.3125 
Q 15.828125 64.359375 23.1875 75.875 
z
" id="DejaVuSans-40"/>
      <path d="M 8.015625 75.875 
L 15.828125 75.875 
Q 23.140625 64.359375 26.78125 53.3125 
Q 30.421875 42.28125 30.421875 31.390625 
Q 30.421875 20.453125 26.78125 9.375 
Q 23.140625 -1.703125 15.828125 -13.1875 
L 8.015625 -13.1875 
Q 14.5 -2 17.703125 9.0625 
Q 20.90625 20.125 20.90625 31.390625 
Q 20.90625 42.671875 17.703125 53.65625 
Q 14.5 64.65625 8.015625 75.875 
z
" id="DejaVuSans-41"/>
     </defs>
     <g transform="translate(14.8 129.47)rotate(-90)scale(0.1 -0.1)">
      <use transform="translate(0 0.125)" xlink:href="#DejaVuSans-Oblique-112"/>
      <use transform="translate(63.476562 0.125)" xlink:href="#DejaVuSans-40"/>
      <use transform="translate(102.490234 0.125)" xlink:href="#DejaVuSans-Oblique-120"/>
      <use transform="translate(161.669922 0.125)" xlink:href="#DejaVuSans-41"/>
     </g>
    </g>
   </g>
   <g id="line2d_23">
    <path clip-path="url(#p23cadee88b)" d="M 59.021307 212.54189 
L 62.159076 206.938379 
L 65.296846 201.451607 
L 68.434615 196.081576 
L 71.572385 190.828284 
L 74.710154 185.691732 
L 77.847924 180.67192 
L 80.985693 175.768848 
L 84.123462 170.982515 
L 87.261232 166.312922 
L 90.399001 161.76007 
L 93.536771 157.323956 
L 96.67454 153.004583 
L 99.81231 148.80195 
L 102.950079 144.716056 
L 106.087849 140.746902 
L 109.225618 136.894488 
L 112.363387 133.158814 
L 115.501157 129.53988 
L 118.638926 126.037685 
L 121.776696 122.652231 
L 124.914465 119.383516 
L 128.052235 116.231541 
L 131.190004 113.196306 
L 134.327774 110.27781 
L 137.465543 107.476054 
L 140.603312 104.791039 
L 143.741082 102.222763 
L 146.878851 99.771227 
L 150.016621 97.43643 
L 153.15439 95.218374 
L 156.29216 93.117057 
L 159.429929 91.13248 
L 162.567699 89.264643 
L 165.705468 87.513546 
L 168.843237 85.879188 
L 171.981007 84.361571 
L 175.118776 82.960693 
L 178.256546 81.676555 
L 181.394315 80.509157 
L 184.532085 79.458498 
L 187.669854 78.52458 
L 190.807624 77.707401 
L 193.945393 77.006962 
L 197.083162 76.423263 
L 200.220932 75.956304 
L 203.358701 75.606084 
L 206.496471 75.372605 
L 209.63424 75.255865 
L 212.77201 75.255865 
L 215.909779 75.372605 
L 219.047549 75.606084 
L 222.185318 75.956304 
L 225.323088 76.423263 
L 228.460857 77.006962 
L 231.598626 77.707401 
L 234.736396 78.52458 
L 237.874165 79.458498 
L 241.011935 80.509157 
L 244.149704 81.676555 
L 247.287474 82.960693 
L 250.425243 84.361571 
L 253.563013 85.879188 
L 256.700782 87.513546 
L 259.838551 89.264643 
L 262.976321 91.13248 
L 266.11409 93.117057 
L 269.25186 95.218374 
L 272.389629 97.43643 
L 275.527399 99.771227 
L 278.665168 102.222763 
L 281.802938 104.791039 
L 284.940707 107.476054 
L 288.078476 110.27781 
L 291.216246 113.196306 
L 294.354015 116.231541 
L 297.491785 119.383516 
L 300.629554 122.652231 
L 303.767324 126.037685 
L 306.905093 129.53988 
L 310.042863 133.158814 
L 313.180632 136.894488 
L 316.318401 140.746902 
L 319.456171 144.716056 
L 322.59394 148.80195 
L 325.73171 153.004583 
L 328.869479 157.323956 
L 332.007249 161.76007 
L 335.145018 166.312922 
L 338.282788 170.982515 
L 341.420557 175.768848 
L 344.558326 180.67192 
L 347.696096 185.691732 
L 350.833865 190.828284 
L 353.971635 196.081576 
L 357.109404 201.451607 
L 360.247174 206.938379 
L 363.384943 212.54189 
" style="fill:none;stroke:#1f77b4;stroke-linecap:square;stroke-width:1.5;"/>
   </g>
   <g id="line2d_24">
    <path clip-path="url(#p23cadee88b)" d="M 59.021307 218.14658 
L 62.159076 217.804615 
L 65.296846 217.243321 
L 68.434615 216.469772 
L 71.572385 215.491044 
L 74.710154 214.314213 
L 77.847924 212.946352 
L 80.985693 211.394538 
L 84.123462 209.665845 
L 87.261232 207.767349 
L 90.399001 205.706125 
L 93.536771 203.489248 
L 96.67454 201.123793 
L 99.81231 198.616834 
L 102.950079 195.975449 
L 106.087849 193.20671 
L 109.225618 190.317695 
L 112.363387 187.315477 
L 115.501157 184.207132 
L 118.638926 180.999735 
L 121.776696 177.700361 
L 124.914465 174.316085 
L 128.052235 170.853983 
L 131.190004 167.32113 
L 134.327774 163.7246 
L 137.465543 160.071469 
L 140.603312 156.368813 
L 143.741082 152.623705 
L 146.878851 148.843221 
L 150.016621 145.034438 
L 153.15439 141.204428 
L 156.29216 137.360269 
L 159.429929 133.509034 
L 162.567699 129.657799 
L 165.705468 125.813639 
L 168.843237 121.98363 
L 171.981007 118.174846 
L 175.118776 114.394363 
L 178.256546 110.649255 
L 181.394315 106.946598 
L 184.532085 103.293467 
L 187.669854 99.696938 
L 190.807624 96.164084 
L 193.945393 92.701982 
L 197.083162 89.317707 
L 200.220932 86.018333 
L 203.358701 82.810936 
L 206.496471 79.702591 
L 209.63424 76.700373 
L 212.77201 73.811357 
L 215.909779 71.042619 
L 219.047549 68.401233 
L 222.185318 65.894275 
L 225.323088 63.52882 
L 228.460857 61.311942 
L 231.598626 59.250718 
L 234.736396 57.352222 
L 237.874165 55.623529 
L 241.011935 54.071715 
L 244.149704 52.703855 
L 247.287474 51.527023 
L 250.425243 50.548295 
L 253.563013 49.774747 
L 256.700782 49.213452 
L 259.838551 48.871487 
L 262.976321 48.755926 
L 266.11409 48.873845 
L 269.25186 49.232319 
L 272.389629 49.838423 
L 275.527399 50.699232 
L 278.665168 51.821821 
L 281.802938 53.213265 
L 284.940707 54.88064 
L 288.078476 56.83102 
L 291.216246 59.071481 
L 294.354015 61.609098 
L 297.491785 64.450946 
L 300.629554 67.604101 
L 303.767324 71.075636 
L 306.905093 74.872628 
L 310.042863 79.002152 
L 313.180632 83.471282 
L 316.318401 88.287094 
L 319.456171 93.456664 
L 322.59394 98.987065 
L 325.73171 104.885374 
L 328.869479 111.158665 
L 332.007249 117.814014 
L 335.145018 124.858495 
L 338.282788 132.299185 
L 341.420557 140.143157 
L 344.558326 148.397488 
L 347.696096 157.069251 
L 350.833865 166.165524 
L 353.971635 175.693379 
L 357.109404 185.659894 
L 360.247174 196.072142 
L 363.384943 206.9372 
" style="fill:none;stroke:#ff7f0e;stroke-linecap:square;stroke-width:1.5;"/>
   </g>
   <g id="line2d_25">
    <path clip-path="url(#p23cadee88b)" d="M 59.021307 218.256364 
L 62.159076 218.21686 
L 65.296846 218.112452 
L 68.434615 217.914676 
L 71.572385 217.597711 
L 74.710154 217.138305 
L 77.847924 216.515703 
L 80.985693 215.711577 
L 84.123462 214.709953 
L 87.261232 213.497135 
L 90.399001 212.061639 
L 93.536771 210.394117 
L 96.67454 208.487285 
L 99.81231 206.33585 
L 102.950079 203.936443 
L 106.087849 201.287541 
L 109.225618 198.389394 
L 112.363387 195.243961 
L 115.501157 191.854828 
L 118.638926 188.227144 
L 121.776696 184.367541 
L 124.914465 180.284068 
L 128.052235 175.986118 
L 131.190004 171.484353 
L 134.327774 166.790633 
L 137.465543 161.917944 
L 140.603312 156.880328 
L 143.741082 151.692806 
L 146.878851 146.37131 
L 150.016621 140.93261 
L 153.15439 135.39424 
L 156.29216 129.774428 
L 159.429929 124.092022 
L 162.567699 118.366418 
L 165.705468 112.617491 
L 168.843237 106.865517 
L 171.981007 101.131106 
L 175.118776 95.435128 
L 178.256546 89.798641 
L 181.394315 84.242816 
L 184.532085 78.78887 
L 187.669854 73.45799 
L 190.807624 68.271262 
L 193.945393 63.249599 
L 197.083162 58.413669 
L 200.220932 53.78382 
L 203.358701 49.380014 
L 206.496471 45.221748 
L 209.63424 41.327985 
L 212.77201 37.717084 
L 215.909779 34.406723 
L 219.047549 31.41383 
L 222.185318 28.75451 
L 225.323088 26.443974 
L 228.460857 24.496464 
L 231.598626 22.925182 
L 234.736396 21.742222 
L 237.874165 20.958489 
L 241.011935 20.583636 
L 244.149704 20.625987 
L 247.287474 21.092463 
L 250.425243 21.988515 
L 253.563013 23.318048 
L 256.700782 25.083352 
L 259.838551 27.285024 
L 262.976321 29.921903 
L 266.11409 32.990992 
L 269.25186 36.487391 
L 272.389629 40.40422 
L 275.527399 44.732549 
L 278.665168 49.461326 
L 281.802938 54.577305 
L 284.940707 60.064973 
L 288.078476 65.906476 
L 291.216246 72.081553 
L 294.354015 78.567457 
L 297.491785 85.338886 
L 300.629554 92.367911 
L 303.767324 99.623901 
L 306.905093 107.073456 
L 310.042863 114.680331 
L 313.180632 122.405363 
L 316.318401 130.206401 
L 319.456171 138.038235 
L 322.59394 145.852519 
L 325.73171 153.597706 
L 328.869479 161.218967 
L 332.007249 168.658128 
L 335.145018 175.853589 
L 338.282788 182.740258 
L 341.420557 189.249479 
L 344.558326 195.308954 
L 347.696096 200.842678 
L 350.833865 205.770859 
L 353.971635 210.009856 
L 357.109404 213.472096 
L 360.247174 216.066008 
L 363.384943 217.695952 
" style="fill:none;stroke:#2ca02c;stroke-linecap:square;stroke-width:1.5;"/>
   </g>
   <g id="patch_3">
    <path d="M 43.803125 228.14 
L 43.803125 10.7 
" style="fill:none;stroke:#000000;stroke-linecap:square;stroke-linejoin:miter;stroke-width:0.8;"/>
   </g>
   <g id="patch_4">
    <path d="M 378.603125 228.14 
L 378.603125 10.7 
" style="fill:none;stroke:#000000;stroke-linecap:square;stroke-linejoin:miter;stroke-width:0.8;"/>
   </g>
   <g id="patch_5">
    <path d="M 43.803125 228.14 
L 378.603125 228.14 
" style="fill:none;stroke:#000000;stroke-linecap:square;stroke-linejoin:miter;stroke-width:0.8;"/>
   </g>
   <g id="patch_6">
    <path d="M 43.803125 10.7 
L 378.603125 10.7 
" style="fill:none;stroke:#000000;stroke-linecap:square;stroke-linejoin:miter;stroke-width:0.8;"/>
   </g>
   <g id="legend_1">
    <g id="patch_7">
     <path d="M 50.803125 63.1 
L 138.203125 63.1 
Q 140.203125 63.1 140.203125 61.1 
L 140.203125 17.7 
Q 140.203125 15.7 138.203125 15.7 
L 50.803125 15.7 
Q 48.803125 15.7 48.803125 17.7 
L 48.803125 61.1 
Q 48.803125 63.1 50.803125 63.1 
z
" style="fill:#ffffff;opacity:0.8;stroke:#cccccc;stroke-linejoin:miter;"/>
    </g>
    <g id="line2d_26">
     <path d="M 52.803125 23.9 
L 72.803125 23.9 
" style="fill:none;stroke:#1f77b4;stroke-linecap:square;stroke-width:1.5;"/>
    </g>
    <g id="line2d_27"/>
    <g id="text_14">
     <!-- $\alpha=2, \beta=2$ -->
     <defs>
      <path d="M 40.921875 25.4375 
L 40.96875 36.71875 
Q 41.015625 48.25 32.328125 48.296875 
Q 25.828125 48.34375 21.78125 42.921875 
Q 16.703125 36.234375 14.984375 27.296875 
Q 12.890625 16.546875 15.53125 11.421875 
Q 18.265625 6.203125 24.171875 6.203125 
Q 30.71875 6.203125 36.234375 16.609375 
z
M 33.84375 55.90625 
Q 49.078125 56.15625 48.875 40.375 
Q 48.875 40.375 56.5 54.6875 
L 64.5 54.6875 
L 48.734375 25.046875 
L 48.578125 14.359375 
Q 48.578125 11.96875 49.90625 9.96875 
Q 51.421875 7.625 52.984375 7.625 
L 57.328125 7.625 
L 55.859375 0 
L 50.4375 0 
Q 45.84375 0 42.53125 4.109375 
Q 40.96875 6.15625 40.921875 10.453125 
Q 37.75 5.21875 32.28125 0.78125 
Q 29.6875 -1.265625 22.703125 -1.21875 
Q 11.28125 -1.125 7.125 6.203125 
Q 2.875 13.8125 5.515625 27.296875 
Q 8.34375 41.796875 15.765625 48.390625 
Q 24.125 55.765625 33.84375 55.90625 
z
" id="DejaVuSans-Oblique-945"/>
      <path d="M 10.59375 45.40625 
L 73.1875 45.40625 
L 73.1875 37.203125 
L 10.59375 37.203125 
z
M 10.59375 25.484375 
L 73.1875 25.484375 
L 73.1875 17.1875 
L 10.59375 17.1875 
z
" id="DejaVuSans-61"/>
      <path d="M 11.71875 12.40625 
L 22.015625 12.40625 
L 22.015625 4 
L 14.015625 -11.625 
L 7.71875 -11.625 
L 11.71875 4 
z
" id="DejaVuSans-44"/>
      <path d="M 13.625 3.375 
L 8.9375 -20.796875 
L -0.09375 -20.796875 
L 14.5 54.34375 
Q 18.84375 76.609375 39.65625 76.609375 
Q 60.75 76.609375 57.171875 57.8125 
Q 54.734375 44.4375 45.21875 39.546875 
Q 58.015625 35.15625 55.515625 22.125 
Q 51.125 -1.078125 27.484375 -1.03125 
Q 17.140625 -0.984375 13.625 3.375 
z
M 15.921875 15.09375 
Q 19.671875 6.59375 29.296875 6.640625 
Q 43.359375 6.640625 46.34375 21.96875 
Q 49.03125 35.75 26.171875 34.671875 
L 27.78125 42.96875 
Q 45.453125 42.671875 48.53125 58.59375 
Q 50.640625 69.34375 39.203125 69.28125 
Q 26.421875 69.28125 23.484375 54.046875 
z
" id="DejaVuSans-Oblique-946"/>
     </defs>
     <g transform="translate(80.803125 27.4)scale(0.1 -0.1)">
      <use transform="translate(0 0.390625)" xlink:href="#DejaVuSans-Oblique-945"/>
      <use transform="translate(85.400391 0.390625)" xlink:href="#DejaVuSans-61"/>
      <use transform="translate(188.671875 0.390625)" xlink:href="#DejaVuSans-50"/>
      <use transform="translate(252.294922 0.390625)" xlink:href="#DejaVuSans-44"/>
      <use transform="translate(303.564453 0.390625)" xlink:href="#DejaVuSans-Oblique-946"/>
      <use transform="translate(386.865234 0.390625)" xlink:href="#DejaVuSans-61"/>
      <use transform="translate(490.136719 0.390625)" xlink:href="#DejaVuSans-50"/>
     </g>
    </g>
    <g id="line2d_28">
     <path d="M 52.803125 38.7 
L 72.803125 38.7 
" style="fill:none;stroke:#ff7f0e;stroke-linecap:square;stroke-width:1.5;"/>
    </g>
    <g id="line2d_29"/>
    <g id="text_15">
     <!-- $\alpha=3, \beta=2$ -->
     <defs>
      <path d="M 40.578125 39.3125 
Q 47.65625 37.796875 51.625 33 
Q 55.609375 28.21875 55.609375 21.1875 
Q 55.609375 10.40625 48.1875 4.484375 
Q 40.765625 -1.421875 27.09375 -1.421875 
Q 22.515625 -1.421875 17.65625 -0.515625 
Q 12.796875 0.390625 7.625 2.203125 
L 7.625 11.71875 
Q 11.71875 9.328125 16.59375 8.109375 
Q 21.484375 6.890625 26.8125 6.890625 
Q 36.078125 6.890625 40.9375 10.546875 
Q 45.796875 14.203125 45.796875 21.1875 
Q 45.796875 27.640625 41.28125 31.265625 
Q 36.765625 34.90625 28.71875 34.90625 
L 20.21875 34.90625 
L 20.21875 43.015625 
L 29.109375 43.015625 
Q 36.375 43.015625 40.234375 45.921875 
Q 44.09375 48.828125 44.09375 54.296875 
Q 44.09375 59.90625 40.109375 62.90625 
Q 36.140625 65.921875 28.71875 65.921875 
Q 24.65625 65.921875 20.015625 65.03125 
Q 15.375 64.15625 9.8125 62.3125 
L 9.8125 71.09375 
Q 15.4375 72.65625 20.34375 73.4375 
Q 25.25 74.21875 29.59375 74.21875 
Q 40.828125 74.21875 47.359375 69.109375 
Q 53.90625 64.015625 53.90625 55.328125 
Q 53.90625 49.265625 50.4375 45.09375 
Q 46.96875 40.921875 40.578125 39.3125 
z
" id="DejaVuSans-51"/>
     </defs>
     <g transform="translate(80.803125 42.2)scale(0.1 -0.1)">
      <use transform="translate(0 0.390625)" xlink:href="#DejaVuSans-Oblique-945"/>
      <use transform="translate(85.400391 0.390625)" xlink:href="#DejaVuSans-61"/>
      <use transform="translate(188.671875 0.390625)" xlink:href="#DejaVuSans-51"/>
      <use transform="translate(252.294922 0.390625)" xlink:href="#DejaVuSans-44"/>
      <use transform="translate(303.564453 0.390625)" xlink:href="#DejaVuSans-Oblique-946"/>
      <use transform="translate(386.865234 0.390625)" xlink:href="#DejaVuSans-61"/>
      <use transform="translate(490.136719 0.390625)" xlink:href="#DejaVuSans-50"/>
     </g>
    </g>
    <g id="line2d_30">
     <path d="M 52.803125 53.5 
L 72.803125 53.5 
" style="fill:none;stroke:#2ca02c;stroke-linecap:square;stroke-width:1.5;"/>
    </g>
    <g id="line2d_31"/>
    <g id="text_16">
     <!-- $\alpha=4, \beta=3$ -->
     <g transform="translate(80.803125 57)scale(0.1 -0.1)">
      <use transform="translate(0 0.390625)" xlink:href="#DejaVuSans-Oblique-945"/>
      <use transform="translate(85.400391 0.390625)" xlink:href="#DejaVuSans-61"/>
      <use transform="translate(188.671875 0.390625)" xlink:href="#DejaVuSans-52"/>
      <use transform="translate(252.294922 0.390625)" xlink:href="#DejaVuSans-44"/>
      <use transform="translate(303.564453 0.390625)" xlink:href="#DejaVuSans-Oblique-946"/>
      <use transform="translate(386.865234 0.390625)" xlink:href="#DejaVuSans-61"/>
      <use transform="translate(490.136719 0.390625)" xlink:href="#DejaVuSans-51"/>
     </g>
    </g>
   </g>
  </g>
 </g>
 <defs>
  <clipPath id="p23cadee88b">
   <rect height="217.44" width="334.8" x="43.803125" y="10.7"/>
  </clipPath>
 </defs>
</svg>
