<?xml version="1.0" encoding="utf-8" standalone="no"?>
<!DOCTYPE svg PUBLIC "-//W3C//DTD SVG 1.1//EN"
  "http://www.w3.org/Graphics/SVG/1.1/DTD/svg11.dtd">
<!-- Created with matplotlib (http://matplotlib.org/) -->
<svg height="263.63625pt" version="1.1" viewBox="0 0 381.965625 263.63625" width="381.965625pt" xmlns="http://www.w3.org/2000/svg" xmlns:xlink="http://www.w3.org/1999/xlink">
 <defs>
  <style type="text/css">
*{stroke-linecap:butt;stroke-linejoin:round;}
  </style>
 </defs>
 <g id="figure_1">
  <g id="patch_1">
   <path d="M 0 263.63625 
L 381.965625 263.63625 
L 381.965625 0 
L 0 0 
z
" style="fill:none;"/>
  </g>
  <g id="axes_1">
   <g id="patch_2">
    <path d="M 36.465625 239.758125 
L 371.265625 239.758125 
L 371.265625 22.318125 
L 36.465625 22.318125 
z
" style="fill:#ffffff;"/>
   </g>
   <g id="matplotlib.axis_1">
    <g id="xtick_1">
     <g id="line2d_1">
      <path clip-path="url(#p5bbc09f6bd)" d="M 82.12017 239.758125 
L 82.12017 22.318125 
" style="fill:none;stroke:#b0b0b0;stroke-linecap:square;stroke-width:0.8;"/>
     </g>
     <g id="line2d_2">
      <defs>
       <path d="M 0 0 
L 0 3.5 
" id="mf4a244ceb6" style="stroke:#000000;stroke-width:0.8;"/>
      </defs>
      <g>
       <use style="stroke:#000000;stroke-width:0.8;" x="82.12017" xlink:href="#mf4a244ceb6" y="239.758125"/>
      </g>
     </g>
     <g id="text_1">
      <!-- −4 -->
      <defs>
       <path d="M 10.59375 35.5 
L 73.1875 35.5 
L 73.1875 27.203125 
L 10.59375 27.203125 
z
" id="DejaVuSans-2212"/>
       <path d="M 37.796875 64.3125 
L 12.890625 25.390625 
L 37.796875 25.390625 
z
M 35.203125 72.90625 
L 47.609375 72.90625 
L 47.609375 25.390625 
L 58.015625 25.390625 
L 58.015625 17.1875 
L 47.609375 17.1875 
L 47.609375 0 
L 37.796875 0 
L 37.796875 17.1875 
L 4.890625 17.1875 
L 4.890625 26.703125 
z
" id="DejaVuSans-34"/>
      </defs>
      <g transform="translate(74.749077 254.356563)scale(0.1 -0.1)">
       <use xlink:href="#DejaVuSans-2212"/>
       <use x="83.789062" xlink:href="#DejaVuSans-34"/>
      </g>
     </g>
    </g>
    <g id="xtick_2">
     <g id="line2d_3">
      <path clip-path="url(#p5bbc09f6bd)" d="M 142.992898 239.758125 
L 142.992898 22.318125 
" style="fill:none;stroke:#b0b0b0;stroke-linecap:square;stroke-width:0.8;"/>
     </g>
     <g id="line2d_4">
      <g>
       <use style="stroke:#000000;stroke-width:0.8;" x="142.992898" xlink:href="#mf4a244ceb6" y="239.758125"/>
      </g>
     </g>
     <g id="text_2">
      <!-- −2 -->
      <defs>
       <path d="M 19.1875 8.296875 
L 53.609375 8.296875 
L 53.609375 0 
L 7.328125 0 
L 7.328125 8.296875 
Q 12.9375 14.109375 22.625 23.890625 
Q 32.328125 33.6875 34.8125 36.53125 
Q 39.546875 41.84375 41.421875 45.53125 
Q 43.3125 49.21875 43.3125 52.78125 
Q 43.3125 58.59375 39.234375 62.25 
Q 35.15625 65.921875 28.609375 65.921875 
Q 23.96875 65.921875 18.8125 64.3125 
Q 13.671875 62.703125 7.8125 59.421875 
L 7.8125 69.390625 
Q 13.765625 71.78125 18.9375 73 
Q 24.125 74.21875 28.421875 74.21875 
Q 39.75 74.21875 46.484375 68.546875 
Q 53.21875 62.890625 53.21875 53.421875 
Q 53.21875 48.921875 51.53125 44.890625 
Q 49.859375 40.875 45.40625 35.40625 
Q 44.1875 33.984375 37.640625 27.21875 
Q 31.109375 20.453125 19.1875 8.296875 
z
" id="DejaVuSans-32"/>
      </defs>
      <g transform="translate(135.621804 254.356563)scale(0.1 -0.1)">
       <use xlink:href="#DejaVuSans-2212"/>
       <use x="83.789062" xlink:href="#DejaVuSans-32"/>
      </g>
     </g>
    </g>
    <g id="xtick_3">
     <g id="line2d_5">
      <path clip-path="url(#p5bbc09f6bd)" d="M 203.865625 239.758125 
L 203.865625 22.318125 
" style="fill:none;stroke:#b0b0b0;stroke-linecap:square;stroke-width:0.8;"/>
     </g>
     <g id="line2d_6">
      <g>
       <use style="stroke:#000000;stroke-width:0.8;" x="203.865625" xlink:href="#mf4a244ceb6" y="239.758125"/>
      </g>
     </g>
     <g id="text_3">
      <!-- 0 -->
      <defs>
       <path d="M 31.78125 66.40625 
Q 24.171875 66.40625 20.328125 58.90625 
Q 16.5 51.421875 16.5 36.375 
Q 16.5 21.390625 20.328125 13.890625 
Q 24.171875 6.390625 31.78125 6.390625 
Q 39.453125 6.390625 43.28125 13.890625 
Q 47.125 21.390625 47.125 36.375 
Q 47.125 51.421875 43.28125 58.90625 
Q 39.453125 66.40625 31.78125 66.40625 
z
M 31.78125 74.21875 
Q 44.046875 74.21875 50.515625 64.515625 
Q 56.984375 54.828125 56.984375 36.375 
Q 56.984375 17.96875 50.515625 8.265625 
Q 44.046875 -1.421875 31.78125 -1.421875 
Q 19.53125 -1.421875 13.0625 8.265625 
Q 6.59375 17.96875 6.59375 36.375 
Q 6.59375 54.828125 13.0625 64.515625 
Q 19.53125 74.21875 31.78125 74.21875 
z
" id="DejaVuSans-30"/>
      </defs>
      <g transform="translate(200.684375 254.356563)scale(0.1 -0.1)">
       <use xlink:href="#DejaVuSans-30"/>
      </g>
     </g>
    </g>
    <g id="xtick_4">
     <g id="line2d_7">
      <path clip-path="url(#p5bbc09f6bd)" d="M 264.738352 239.758125 
L 264.738352 22.318125 
" style="fill:none;stroke:#b0b0b0;stroke-linecap:square;stroke-width:0.8;"/>
     </g>
     <g id="line2d_8">
      <g>
       <use style="stroke:#000000;stroke-width:0.8;" x="264.738352" xlink:href="#mf4a244ceb6" y="239.758125"/>
      </g>
     </g>
     <g id="text_4">
      <!-- 2 -->
      <g transform="translate(261.557102 254.356563)scale(0.1 -0.1)">
       <use xlink:href="#DejaVuSans-32"/>
      </g>
     </g>
    </g>
    <g id="xtick_5">
     <g id="line2d_9">
      <path clip-path="url(#p5bbc09f6bd)" d="M 325.61108 239.758125 
L 325.61108 22.318125 
" style="fill:none;stroke:#b0b0b0;stroke-linecap:square;stroke-width:0.8;"/>
     </g>
     <g id="line2d_10">
      <g>
       <use style="stroke:#000000;stroke-width:0.8;" x="325.61108" xlink:href="#mf4a244ceb6" y="239.758125"/>
      </g>
     </g>
     <g id="text_5">
      <!-- 4 -->
      <g transform="translate(322.42983 254.356563)scale(0.1 -0.1)">
       <use xlink:href="#DejaVuSans-34"/>
      </g>
     </g>
    </g>
   </g>
   <g id="matplotlib.axis_2">
    <g id="ytick_1">
     <g id="line2d_11">
      <path clip-path="url(#p5bbc09f6bd)" d="M 36.465625 230.795311 
L 371.265625 230.795311 
" style="fill:none;stroke:#b0b0b0;stroke-linecap:square;stroke-width:0.8;"/>
     </g>
     <g id="line2d_12">
      <defs>
       <path d="M 0 0 
L -3.5 0 
" id="mf96c1edd77" style="stroke:#000000;stroke-width:0.8;"/>
      </defs>
      <g>
       <use style="stroke:#000000;stroke-width:0.8;" x="36.465625" xlink:href="#mf96c1edd77" y="230.795311"/>
      </g>
     </g>
     <g id="text_6">
      <!-- 0.00 -->
      <defs>
       <path d="M 10.6875 12.40625 
L 21 12.40625 
L 21 0 
L 10.6875 0 
z
" id="DejaVuSans-2e"/>
      </defs>
      <g transform="translate(7.2 234.59453)scale(0.1 -0.1)">
       <use xlink:href="#DejaVuSans-30"/>
       <use x="63.623047" xlink:href="#DejaVuSans-2e"/>
       <use x="95.410156" xlink:href="#DejaVuSans-30"/>
       <use x="159.033203" xlink:href="#DejaVuSans-30"/>
      </g>
     </g>
    </g>
    <g id="ytick_2">
     <g id="line2d_13">
      <path clip-path="url(#p5bbc09f6bd)" d="M 36.465625 204.597453 
L 371.265625 204.597453 
" style="fill:none;stroke:#b0b0b0;stroke-linecap:square;stroke-width:0.8;"/>
     </g>
     <g id="line2d_14">
      <g>
       <use style="stroke:#000000;stroke-width:0.8;" x="36.465625" xlink:href="#mf96c1edd77" y="204.597453"/>
      </g>
     </g>
     <g id="text_7">
      <!-- 0.05 -->
      <defs>
       <path d="M 10.796875 72.90625 
L 49.515625 72.90625 
L 49.515625 64.59375 
L 19.828125 64.59375 
L 19.828125 46.734375 
Q 21.96875 47.46875 24.109375 47.828125 
Q 26.265625 48.1875 28.421875 48.1875 
Q 40.625 48.1875 47.75 41.5 
Q 54.890625 34.8125 54.890625 23.390625 
Q 54.890625 11.625 47.5625 5.09375 
Q 40.234375 -1.421875 26.90625 -1.421875 
Q 22.3125 -1.421875 17.546875 -0.640625 
Q 12.796875 0.140625 7.71875 1.703125 
L 7.71875 11.625 
Q 12.109375 9.234375 16.796875 8.0625 
Q 21.484375 6.890625 26.703125 6.890625 
Q 35.15625 6.890625 40.078125 11.328125 
Q 45.015625 15.765625 45.015625 23.390625 
Q 45.015625 31 40.078125 35.4375 
Q 35.15625 39.890625 26.703125 39.890625 
Q 22.75 39.890625 18.8125 39.015625 
Q 14.890625 38.140625 10.796875 36.28125 
z
" id="DejaVuSans-35"/>
      </defs>
      <g transform="translate(7.2 208.396672)scale(0.1 -0.1)">
       <use xlink:href="#DejaVuSans-30"/>
       <use x="63.623047" xlink:href="#DejaVuSans-2e"/>
       <use x="95.410156" xlink:href="#DejaVuSans-30"/>
       <use x="159.033203" xlink:href="#DejaVuSans-35"/>
      </g>
     </g>
    </g>
    <g id="ytick_3">
     <g id="line2d_15">
      <path clip-path="url(#p5bbc09f6bd)" d="M 36.465625 178.399595 
L 371.265625 178.399595 
" style="fill:none;stroke:#b0b0b0;stroke-linecap:square;stroke-width:0.8;"/>
     </g>
     <g id="line2d_16">
      <g>
       <use style="stroke:#000000;stroke-width:0.8;" x="36.465625" xlink:href="#mf96c1edd77" y="178.399595"/>
      </g>
     </g>
     <g id="text_8">
      <!-- 0.10 -->
      <defs>
       <path d="M 12.40625 8.296875 
L 28.515625 8.296875 
L 28.515625 63.921875 
L 10.984375 60.40625 
L 10.984375 69.390625 
L 28.421875 72.90625 
L 38.28125 72.90625 
L 38.28125 8.296875 
L 54.390625 8.296875 
L 54.390625 0 
L 12.40625 0 
z
" id="DejaVuSans-31"/>
      </defs>
      <g transform="translate(7.2 182.198814)scale(0.1 -0.1)">
       <use xlink:href="#DejaVuSans-30"/>
       <use x="63.623047" xlink:href="#DejaVuSans-2e"/>
       <use x="95.410156" xlink:href="#DejaVuSans-31"/>
       <use x="159.033203" xlink:href="#DejaVuSans-30"/>
      </g>
     </g>
    </g>
    <g id="ytick_4">
     <g id="line2d_17">
      <path clip-path="url(#p5bbc09f6bd)" d="M 36.465625 152.201737 
L 371.265625 152.201737 
" style="fill:none;stroke:#b0b0b0;stroke-linecap:square;stroke-width:0.8;"/>
     </g>
     <g id="line2d_18">
      <g>
       <use style="stroke:#000000;stroke-width:0.8;" x="36.465625" xlink:href="#mf96c1edd77" y="152.201737"/>
      </g>
     </g>
     <g id="text_9">
      <!-- 0.15 -->
      <g transform="translate(7.2 156.000956)scale(0.1 -0.1)">
       <use xlink:href="#DejaVuSans-30"/>
       <use x="63.623047" xlink:href="#DejaVuSans-2e"/>
       <use x="95.410156" xlink:href="#DejaVuSans-31"/>
       <use x="159.033203" xlink:href="#DejaVuSans-35"/>
      </g>
     </g>
    </g>
    <g id="ytick_5">
     <g id="line2d_19">
      <path clip-path="url(#p5bbc09f6bd)" d="M 36.465625 126.003879 
L 371.265625 126.003879 
" style="fill:none;stroke:#b0b0b0;stroke-linecap:square;stroke-width:0.8;"/>
     </g>
     <g id="line2d_20">
      <g>
       <use style="stroke:#000000;stroke-width:0.8;" x="36.465625" xlink:href="#mf96c1edd77" y="126.003879"/>
      </g>
     </g>
     <g id="text_10">
      <!-- 0.20 -->
      <g transform="translate(7.2 129.803098)scale(0.1 -0.1)">
       <use xlink:href="#DejaVuSans-30"/>
       <use x="63.623047" xlink:href="#DejaVuSans-2e"/>
       <use x="95.410156" xlink:href="#DejaVuSans-32"/>
       <use x="159.033203" xlink:href="#DejaVuSans-30"/>
      </g>
     </g>
    </g>
    <g id="ytick_6">
     <g id="line2d_21">
      <path clip-path="url(#p5bbc09f6bd)" d="M 36.465625 99.806021 
L 371.265625 99.806021 
" style="fill:none;stroke:#b0b0b0;stroke-linecap:square;stroke-width:0.8;"/>
     </g>
     <g id="line2d_22">
      <g>
       <use style="stroke:#000000;stroke-width:0.8;" x="36.465625" xlink:href="#mf96c1edd77" y="99.806021"/>
      </g>
     </g>
     <g id="text_11">
      <!-- 0.25 -->
      <g transform="translate(7.2 103.60524)scale(0.1 -0.1)">
       <use xlink:href="#DejaVuSans-30"/>
       <use x="63.623047" xlink:href="#DejaVuSans-2e"/>
       <use x="95.410156" xlink:href="#DejaVuSans-32"/>
       <use x="159.033203" xlink:href="#DejaVuSans-35"/>
      </g>
     </g>
    </g>
    <g id="ytick_7">
     <g id="line2d_23">
      <path clip-path="url(#p5bbc09f6bd)" d="M 36.465625 73.608163 
L 371.265625 73.608163 
" style="fill:none;stroke:#b0b0b0;stroke-linecap:square;stroke-width:0.8;"/>
     </g>
     <g id="line2d_24">
      <g>
       <use style="stroke:#000000;stroke-width:0.8;" x="36.465625" xlink:href="#mf96c1edd77" y="73.608163"/>
      </g>
     </g>
     <g id="text_12">
      <!-- 0.30 -->
      <defs>
       <path d="M 40.578125 39.3125 
Q 47.65625 37.796875 51.625 33 
Q 55.609375 28.21875 55.609375 21.1875 
Q 55.609375 10.40625 48.1875 4.484375 
Q 40.765625 -1.421875 27.09375 -1.421875 
Q 22.515625 -1.421875 17.65625 -0.515625 
Q 12.796875 0.390625 7.625 2.203125 
L 7.625 11.71875 
Q 11.71875 9.328125 16.59375 8.109375 
Q 21.484375 6.890625 26.8125 6.890625 
Q 36.078125 6.890625 40.9375 10.546875 
Q 45.796875 14.203125 45.796875 21.1875 
Q 45.796875 27.640625 41.28125 31.265625 
Q 36.765625 34.90625 28.71875 34.90625 
L 20.21875 34.90625 
L 20.21875 43.015625 
L 29.109375 43.015625 
Q 36.375 43.015625 40.234375 45.921875 
Q 44.09375 48.828125 44.09375 54.296875 
Q 44.09375 59.90625 40.109375 62.90625 
Q 36.140625 65.921875 28.71875 65.921875 
Q 24.65625 65.921875 20.015625 65.03125 
Q 15.375 64.15625 9.8125 62.3125 
L 9.8125 71.09375 
Q 15.4375 72.65625 20.34375 73.4375 
Q 25.25 74.21875 29.59375 74.21875 
Q 40.828125 74.21875 47.359375 69.109375 
Q 53.90625 64.015625 53.90625 55.328125 
Q 53.90625 49.265625 50.4375 45.09375 
Q 46.96875 40.921875 40.578125 39.3125 
z
" id="DejaVuSans-33"/>
      </defs>
      <g transform="translate(7.2 77.407382)scale(0.1 -0.1)">
       <use xlink:href="#DejaVuSans-30"/>
       <use x="63.623047" xlink:href="#DejaVuSans-2e"/>
       <use x="95.410156" xlink:href="#DejaVuSans-33"/>
       <use x="159.033203" xlink:href="#DejaVuSans-30"/>
      </g>
     </g>
    </g>
    <g id="ytick_8">
     <g id="line2d_25">
      <path clip-path="url(#p5bbc09f6bd)" d="M 36.465625 47.410305 
L 371.265625 47.410305 
" style="fill:none;stroke:#b0b0b0;stroke-linecap:square;stroke-width:0.8;"/>
     </g>
     <g id="line2d_26">
      <g>
       <use style="stroke:#000000;stroke-width:0.8;" x="36.465625" xlink:href="#mf96c1edd77" y="47.410305"/>
      </g>
     </g>
     <g id="text_13">
      <!-- 0.35 -->
      <g transform="translate(7.2 51.209523)scale(0.1 -0.1)">
       <use xlink:href="#DejaVuSans-30"/>
       <use x="63.623047" xlink:href="#DejaVuSans-2e"/>
       <use x="95.410156" xlink:href="#DejaVuSans-33"/>
       <use x="159.033203" xlink:href="#DejaVuSans-35"/>
      </g>
     </g>
    </g>
   </g>
   <g id="line2d_27">
    <path clip-path="url(#p5bbc09f6bd)" d="M 51.683807 224.380667 
L 54.758187 224.124109 
L 57.832567 223.852076 
L 60.906947 223.56332 
L 63.981327 223.256464 
L 67.055708 222.929991 
L 70.130088 222.582223 
L 73.204468 222.211304 
L 76.278848 221.815176 
L 79.353228 221.391551 
L 82.427608 220.937882 
L 85.501989 220.451329 
L 88.576369 219.928718 
L 91.650749 219.366493 
L 94.725129 218.760663 
L 97.799509 218.106738 
L 100.873889 217.399657 
L 103.94827 216.6337 
L 107.02265 215.802391 
L 110.09703 214.898378 
L 113.17141 213.913295 
L 116.24579 212.837606 
L 119.32017 211.66041 
L 122.394551 210.369224 
L 125.468931 208.949722 
L 128.543311 207.385434 
L 131.617691 205.657396 
L 134.692071 203.743743 
L 137.766451 201.619249 
L 140.840832 199.254809 
L 143.915212 196.616871 
L 146.989592 193.66684 
L 150.063972 190.36049 
L 153.138352 186.647467 
L 156.212732 182.471002 
L 159.287113 177.768059 
L 162.361493 172.470253 
L 165.435873 166.506077 
L 168.510253 159.80521 
L 171.584633 152.306015 
L 174.659013 143.967622 
L 177.733394 134.788141 
L 180.807774 124.830182 
L 183.882154 114.253312 
L 186.956534 103.349648 
L 190.030914 92.572913 
L 193.105294 82.54408 
L 196.179675 74.012453 
L 199.254055 67.757402 
L 202.328435 64.438902 
L 205.402815 64.438902 
L 208.477195 67.757402 
L 211.551575 74.012453 
L 214.625956 82.54408 
L 217.700336 92.572913 
L 220.774716 103.349648 
L 223.849096 114.253312 
L 226.923476 124.830182 
L 229.997856 134.788141 
L 233.072237 143.967622 
L 236.146617 152.306015 
L 239.220997 159.80521 
L 242.295377 166.506077 
L 245.369757 172.470253 
L 248.444137 177.768059 
L 251.518518 182.471002 
L 254.592898 186.647467 
L 257.667278 190.36049 
L 260.741658 193.66684 
L 263.816038 196.616871 
L 266.890418 199.254809 
L 269.964799 201.619249 
L 273.039179 203.743743 
L 276.113559 205.657396 
L 279.187939 207.385434 
L 282.262319 208.949722 
L 285.336699 210.369224 
L 288.41108 211.66041 
L 291.48546 212.837606 
L 294.55984 213.913295 
L 297.63422 214.898378 
L 300.7086 215.802391 
L 303.78298 216.6337 
L 306.857361 217.399657 
L 309.931741 218.106738 
L 313.006121 218.760663 
L 316.080501 219.366493 
L 319.154881 219.928718 
L 322.229261 220.451329 
L 325.303642 220.937882 
L 328.378022 221.391551 
L 331.452402 221.815176 
L 334.526782 222.211304 
L 337.601162 222.582223 
L 340.675542 222.929991 
L 343.749923 223.256464 
L 346.824303 223.56332 
L 349.898683 223.852076 
L 352.973063 224.124109 
L 356.047443 224.380667 
" style="fill:none;stroke:#1f77b4;stroke-linecap:square;stroke-width:1.5;"/>
   </g>
   <g id="line2d_28">
    <path clip-path="url(#p5bbc09f6bd)" d="M 51.683807 228.58455 
L 54.758187 228.417776 
L 57.832567 228.235412 
L 60.906947 228.035732 
L 63.981327 227.81679 
L 67.055708 227.576387 
L 70.130088 227.312042 
L 73.204468 227.020944 
L 76.278848 226.699906 
L 79.353228 226.345312 
L 82.427608 225.953053 
L 85.501989 225.518449 
L 88.576369 225.036171 
L 91.650749 224.500134 
L 94.725129 223.903394 
L 97.799509 223.238007 
L 100.873889 222.494886 
L 103.94827 221.663627 
L 107.02265 220.73231 
L 110.09703 219.687281 
L 113.17141 218.512898 
L 116.24579 217.191254 
L 119.32017 215.701866 
L 122.394551 214.021346 
L 125.468931 212.123047 
L 128.543311 209.976711 
L 131.617691 207.548124 
L 134.692071 204.798826 
L 137.766451 201.685906 
L 140.840832 198.161967 
L 143.915212 194.175339 
L 146.989592 189.67068 
L 150.063972 184.590115 
L 153.138352 178.87514 
L 156.212732 172.469508 
L 159.287113 165.323391 
L 162.361493 157.399061 
L 165.435873 148.678278 
L 168.510253 139.171437 
L 171.584633 128.928186 
L 174.659013 118.048829 
L 177.733394 106.695205 
L 180.807774 95.09905 
L 183.882154 83.565252 
L 186.956534 72.467125 
L 190.030914 62.231215 
L 193.105294 53.310461 
L 196.179675 46.146826 
L 199.254055 41.127387 
L 202.328435 38.540565 
L 205.402815 38.540565 
L 208.477195 41.127387 
L 211.551575 46.146826 
L 214.625956 53.310461 
L 217.700336 62.231215 
L 220.774716 72.467125 
L 223.849096 83.565252 
L 226.923476 95.09905 
L 229.997856 106.695205 
L 233.072237 118.048829 
L 236.146617 128.928186 
L 239.220997 139.171437 
L 242.295377 148.678278 
L 245.369757 157.399061 
L 248.444137 165.323391 
L 251.518518 172.469508 
L 254.592898 178.87514 
L 257.667278 184.590115 
L 260.741658 189.67068 
L 263.816038 194.175339 
L 266.890418 198.161967 
L 269.964799 201.685906 
L 273.039179 204.798826 
L 276.113559 207.548124 
L 279.187939 209.976711 
L 282.262319 212.123047 
L 285.336699 214.021346 
L 288.41108 215.701866 
L 291.48546 217.191254 
L 294.55984 218.512898 
L 297.63422 219.687281 
L 300.7086 220.73231 
L 303.78298 221.663627 
L 306.857361 222.494886 
L 309.931741 223.238007 
L 313.006121 223.903394 
L 316.080501 224.500134 
L 319.154881 225.036171 
L 322.229261 225.518449 
L 325.303642 225.953053 
L 328.378022 226.345312 
L 331.452402 226.699906 
L 334.526782 227.020944 
L 337.601162 227.312042 
L 340.675542 227.576387 
L 343.749923 227.81679 
L 346.824303 228.035732 
L 349.898683 228.235412 
L 352.973063 228.417776 
L 356.047443 228.58455 
" style="fill:none;stroke:#ff7f0e;stroke-linecap:square;stroke-width:1.5;"/>
   </g>
   <g id="line2d_29">
    <path clip-path="url(#p5bbc09f6bd)" d="M 51.683807 229.874489 
L 54.758187 229.775919 
L 57.832567 229.665237 
L 60.906947 229.540776 
L 63.981327 229.400619 
L 67.055708 229.24256 
L 70.130088 229.064054 
L 73.204468 228.862164 
L 76.278848 228.633495 
L 79.353228 228.374123 
L 82.427608 228.079506 
L 85.501989 227.744384 
L 88.576369 227.36266 
L 91.650749 226.927269 
L 94.725129 226.430019 
L 97.799509 225.861411 
L 100.873889 225.210439 
L 103.94827 224.464351 
L 107.02265 223.608396 
L 110.09703 222.625527 
L 113.17141 221.496087 
L 116.24579 220.197463 
L 119.32017 218.703732 
L 122.394551 216.985295 
L 125.468931 215.008535 
L 128.543311 212.735517 
L 131.617691 210.123782 
L 134.692071 207.126283 
L 137.766451 203.691556 
L 140.840832 199.76421 
L 143.915212 195.285867 
L 146.989592 190.196704 
L 150.063972 184.43774 
L 153.138352 177.954064 
L 156.212732 170.699124 
L 159.287113 162.640199 
L 162.361493 153.76503 
L 165.435873 144.089471 
L 168.510253 133.665752 
L 171.584633 122.590695 
L 174.659013 111.012885 
L 177.733394 99.137519 
L 180.807774 87.227454 
L 183.882154 75.598991 
L 186.956534 64.61126 
L 190.030914 54.648773 
L 193.105294 46.097698 
L 196.179675 39.317703 
L 199.254055 34.612338 
L 202.328435 32.201761 
L 205.402815 32.201761 
L 208.477195 34.612338 
L 211.551575 39.317703 
L 214.625956 46.097698 
L 217.700336 54.648773 
L 220.774716 64.61126 
L 223.849096 75.598991 
L 226.923476 87.227454 
L 229.997856 99.137519 
L 233.072237 111.012885 
L 236.146617 122.590695 
L 239.220997 133.665752 
L 242.295377 144.089471 
L 245.369757 153.76503 
L 248.444137 162.640199 
L 251.518518 170.699124 
L 254.592898 177.954064 
L 257.667278 184.43774 
L 260.741658 190.196704 
L 263.816038 195.285867 
L 266.890418 199.76421 
L 269.964799 203.691556 
L 273.039179 207.126283 
L 276.113559 210.123782 
L 279.187939 212.735517 
L 282.262319 215.008535 
L 285.336699 216.985295 
L 288.41108 218.703732 
L 291.48546 220.197463 
L 294.55984 221.496087 
L 297.63422 222.625527 
L 300.7086 223.608396 
L 303.78298 224.464351 
L 306.857361 225.210439 
L 309.931741 225.861411 
L 313.006121 226.430019 
L 316.080501 226.927269 
L 319.154881 227.36266 
L 322.229261 227.744384 
L 325.303642 228.079506 
L 328.378022 228.374123 
L 331.452402 228.633495 
L 334.526782 228.862164 
L 337.601162 229.064054 
L 340.675542 229.24256 
L 343.749923 229.400619 
L 346.824303 229.540776 
L 349.898683 229.665237 
L 352.973063 229.775919 
L 356.047443 229.874489 
" style="fill:none;stroke:#2ca02c;stroke-linecap:square;stroke-width:1.5;"/>
   </g>
   <g id="patch_3">
    <path d="M 36.465625 239.758125 
L 36.465625 22.318125 
" style="fill:none;stroke:#000000;stroke-linecap:square;stroke-linejoin:miter;stroke-width:0.8;"/>
   </g>
   <g id="patch_4">
    <path d="M 371.265625 239.758125 
L 371.265625 22.318125 
" style="fill:none;stroke:#000000;stroke-linecap:square;stroke-linejoin:miter;stroke-width:0.8;"/>
   </g>
   <g id="patch_5">
    <path d="M 36.465625 239.758125 
L 371.265625 239.758125 
" style="fill:none;stroke:#000000;stroke-linecap:square;stroke-linejoin:miter;stroke-width:0.8;"/>
   </g>
   <g id="patch_6">
    <path d="M 36.465625 22.318125 
L 371.265625 22.318125 
" style="fill:none;stroke:#000000;stroke-linecap:square;stroke-linejoin:miter;stroke-width:0.8;"/>
   </g>
   <g id="text_14">
    <!-- t-distribution -->
    <defs>
     <path d="M 18.3125 70.21875 
L 18.3125 54.6875 
L 36.8125 54.6875 
L 36.8125 47.703125 
L 18.3125 47.703125 
L 18.3125 18.015625 
Q 18.3125 11.328125 20.140625 9.421875 
Q 21.96875 7.515625 27.59375 7.515625 
L 36.8125 7.515625 
L 36.8125 0 
L 27.59375 0 
Q 17.1875 0 13.234375 3.875 
Q 9.28125 7.765625 9.28125 18.015625 
L 9.28125 47.703125 
L 2.6875 47.703125 
L 2.6875 54.6875 
L 9.28125 54.6875 
L 9.28125 70.21875 
z
" id="DejaVuSans-74"/>
     <path d="M 4.890625 31.390625 
L 31.203125 31.390625 
L 31.203125 23.390625 
L 4.890625 23.390625 
z
" id="DejaVuSans-2d"/>
     <path d="M 45.40625 46.390625 
L 45.40625 75.984375 
L 54.390625 75.984375 
L 54.390625 0 
L 45.40625 0 
L 45.40625 8.203125 
Q 42.578125 3.328125 38.25 0.953125 
Q 33.9375 -1.421875 27.875 -1.421875 
Q 17.96875 -1.421875 11.734375 6.484375 
Q 5.515625 14.40625 5.515625 27.296875 
Q 5.515625 40.1875 11.734375 48.09375 
Q 17.96875 56 27.875 56 
Q 33.9375 56 38.25 53.625 
Q 42.578125 51.265625 45.40625 46.390625 
z
M 14.796875 27.296875 
Q 14.796875 17.390625 18.875 11.75 
Q 22.953125 6.109375 30.078125 6.109375 
Q 37.203125 6.109375 41.296875 11.75 
Q 45.40625 17.390625 45.40625 27.296875 
Q 45.40625 37.203125 41.296875 42.84375 
Q 37.203125 48.484375 30.078125 48.484375 
Q 22.953125 48.484375 18.875 42.84375 
Q 14.796875 37.203125 14.796875 27.296875 
z
" id="DejaVuSans-64"/>
     <path d="M 9.421875 54.6875 
L 18.40625 54.6875 
L 18.40625 0 
L 9.421875 0 
z
M 9.421875 75.984375 
L 18.40625 75.984375 
L 18.40625 64.59375 
L 9.421875 64.59375 
z
" id="DejaVuSans-69"/>
     <path d="M 44.28125 53.078125 
L 44.28125 44.578125 
Q 40.484375 46.53125 36.375 47.5 
Q 32.28125 48.484375 27.875 48.484375 
Q 21.1875 48.484375 17.84375 46.4375 
Q 14.5 44.390625 14.5 40.28125 
Q 14.5 37.15625 16.890625 35.375 
Q 19.28125 33.59375 26.515625 31.984375 
L 29.59375 31.296875 
Q 39.15625 29.25 43.1875 25.515625 
Q 47.21875 21.78125 47.21875 15.09375 
Q 47.21875 7.46875 41.1875 3.015625 
Q 35.15625 -1.421875 24.609375 -1.421875 
Q 20.21875 -1.421875 15.453125 -0.5625 
Q 10.6875 0.296875 5.421875 2 
L 5.421875 11.28125 
Q 10.40625 8.6875 15.234375 7.390625 
Q 20.0625 6.109375 24.8125 6.109375 
Q 31.15625 6.109375 34.5625 8.28125 
Q 37.984375 10.453125 37.984375 14.40625 
Q 37.984375 18.0625 35.515625 20.015625 
Q 33.0625 21.96875 24.703125 23.78125 
L 21.578125 24.515625 
Q 13.234375 26.265625 9.515625 29.90625 
Q 5.8125 33.546875 5.8125 39.890625 
Q 5.8125 47.609375 11.28125 51.796875 
Q 16.75 56 26.8125 56 
Q 31.78125 56 36.171875 55.265625 
Q 40.578125 54.546875 44.28125 53.078125 
z
" id="DejaVuSans-73"/>
     <path d="M 41.109375 46.296875 
Q 39.59375 47.171875 37.8125 47.578125 
Q 36.03125 48 33.890625 48 
Q 26.265625 48 22.1875 43.046875 
Q 18.109375 38.09375 18.109375 28.8125 
L 18.109375 0 
L 9.078125 0 
L 9.078125 54.6875 
L 18.109375 54.6875 
L 18.109375 46.1875 
Q 20.953125 51.171875 25.484375 53.578125 
Q 30.03125 56 36.53125 56 
Q 37.453125 56 38.578125 55.875 
Q 39.703125 55.765625 41.0625 55.515625 
z
" id="DejaVuSans-72"/>
     <path d="M 48.6875 27.296875 
Q 48.6875 37.203125 44.609375 42.84375 
Q 40.53125 48.484375 33.40625 48.484375 
Q 26.265625 48.484375 22.1875 42.84375 
Q 18.109375 37.203125 18.109375 27.296875 
Q 18.109375 17.390625 22.1875 11.75 
Q 26.265625 6.109375 33.40625 6.109375 
Q 40.53125 6.109375 44.609375 11.75 
Q 48.6875 17.390625 48.6875 27.296875 
z
M 18.109375 46.390625 
Q 20.953125 51.265625 25.265625 53.625 
Q 29.59375 56 35.59375 56 
Q 45.5625 56 51.78125 48.09375 
Q 58.015625 40.1875 58.015625 27.296875 
Q 58.015625 14.40625 51.78125 6.484375 
Q 45.5625 -1.421875 35.59375 -1.421875 
Q 29.59375 -1.421875 25.265625 0.953125 
Q 20.953125 3.328125 18.109375 8.203125 
L 18.109375 0 
L 9.078125 0 
L 9.078125 75.984375 
L 18.109375 75.984375 
z
" id="DejaVuSans-62"/>
     <path d="M 8.5 21.578125 
L 8.5 54.6875 
L 17.484375 54.6875 
L 17.484375 21.921875 
Q 17.484375 14.15625 20.5 10.265625 
Q 23.53125 6.390625 29.59375 6.390625 
Q 36.859375 6.390625 41.078125 11.03125 
Q 45.3125 15.671875 45.3125 23.6875 
L 45.3125 54.6875 
L 54.296875 54.6875 
L 54.296875 0 
L 45.3125 0 
L 45.3125 8.40625 
Q 42.046875 3.421875 37.71875 1 
Q 33.40625 -1.421875 27.6875 -1.421875 
Q 18.265625 -1.421875 13.375 4.4375 
Q 8.5 10.296875 8.5 21.578125 
z
M 31.109375 56 
z
" id="DejaVuSans-75"/>
     <path d="M 30.609375 48.390625 
Q 23.390625 48.390625 19.1875 42.75 
Q 14.984375 37.109375 14.984375 27.296875 
Q 14.984375 17.484375 19.15625 11.84375 
Q 23.34375 6.203125 30.609375 6.203125 
Q 37.796875 6.203125 41.984375 11.859375 
Q 46.1875 17.53125 46.1875 27.296875 
Q 46.1875 37.015625 41.984375 42.703125 
Q 37.796875 48.390625 30.609375 48.390625 
z
M 30.609375 56 
Q 42.328125 56 49.015625 48.375 
Q 55.71875 40.765625 55.71875 27.296875 
Q 55.71875 13.875 49.015625 6.21875 
Q 42.328125 -1.421875 30.609375 -1.421875 
Q 18.84375 -1.421875 12.171875 6.21875 
Q 5.515625 13.875 5.515625 27.296875 
Q 5.515625 40.765625 12.171875 48.375 
Q 18.84375 56 30.609375 56 
z
" id="DejaVuSans-6f"/>
     <path d="M 54.890625 33.015625 
L 54.890625 0 
L 45.90625 0 
L 45.90625 32.71875 
Q 45.90625 40.484375 42.875 44.328125 
Q 39.84375 48.1875 33.796875 48.1875 
Q 26.515625 48.1875 22.3125 43.546875 
Q 18.109375 38.921875 18.109375 30.90625 
L 18.109375 0 
L 9.078125 0 
L 9.078125 54.6875 
L 18.109375 54.6875 
L 18.109375 46.1875 
Q 21.34375 51.125 25.703125 53.5625 
Q 30.078125 56 35.796875 56 
Q 45.21875 56 50.046875 50.171875 
Q 54.890625 44.34375 54.890625 33.015625 
z
" id="DejaVuSans-6e"/>
    </defs>
    <g transform="translate(165.157188 16.318125)scale(0.12 -0.12)">
     <use xlink:href="#DejaVuSans-74"/>
     <use x="39.208984" xlink:href="#DejaVuSans-2d"/>
     <use x="75.292969" xlink:href="#DejaVuSans-64"/>
     <use x="138.769531" xlink:href="#DejaVuSans-69"/>
     <use x="166.552734" xlink:href="#DejaVuSans-73"/>
     <use x="218.652344" xlink:href="#DejaVuSans-74"/>
     <use x="257.861328" xlink:href="#DejaVuSans-72"/>
     <use x="298.974609" xlink:href="#DejaVuSans-69"/>
     <use x="326.757812" xlink:href="#DejaVuSans-62"/>
     <use x="390.234375" xlink:href="#DejaVuSans-75"/>
     <use x="453.613281" xlink:href="#DejaVuSans-74"/>
     <use x="492.822266" xlink:href="#DejaVuSans-69"/>
     <use x="520.605469" xlink:href="#DejaVuSans-6f"/>
     <use x="581.787109" xlink:href="#DejaVuSans-6e"/>
    </g>
   </g>
   <g id="legend_1">
    <g id="patch_7">
     <path d="M 307.965625 74.3525 
L 364.265625 74.3525 
Q 366.265625 74.3525 366.265625 72.3525 
L 366.265625 29.318125 
Q 366.265625 27.318125 364.265625 27.318125 
L 307.965625 27.318125 
Q 305.965625 27.318125 305.965625 29.318125 
L 305.965625 72.3525 
Q 305.965625 74.3525 307.965625 74.3525 
z
" style="fill:#ffffff;opacity:0.8;stroke:#cccccc;stroke-linejoin:miter;"/>
    </g>
    <g id="line2d_30">
     <path d="M 309.965625 35.416563 
L 329.965625 35.416563 
" style="fill:none;stroke:#1f77b4;stroke-linecap:square;stroke-width:1.5;"/>
    </g>
    <g id="line2d_31"/>
    <g id="text_15">
     <!-- $\nu = 1$ -->
     <defs>
      <path d="M 14.984375 0 
L 8.9375 54.6875 
L 18.609375 54.6875 
L 23.78125 8.796875 
Q 30.8125 14.84375 37.359375 23.25 
Q 42.28125 29.546875 43.5625 35.015625 
Q 44.140625 37.59375 43.890625 42.484375 
Q 43.65625 48.296875 39.75 54.6875 
L 48.828125 54.6875 
L 48.828125 54.6875 
Q 51.375 50.34375 52.390625 44.28125 
Q 53.375 38.71875 52.640625 34.90625 
Q 50.78125 25.34375 42.484375 16.796875 
Q 31.640625 5.671875 24.5625 0 
z
" id="DejaVuSans-Oblique-3bd"/>
      <path d="M 10.59375 45.40625 
L 73.1875 45.40625 
L 73.1875 37.203125 
L 10.59375 37.203125 
z
M 10.59375 25.484375 
L 73.1875 25.484375 
L 73.1875 17.1875 
L 10.59375 17.1875 
z
" id="DejaVuSans-3d"/>
     </defs>
     <g transform="translate(337.965625 38.916563)scale(0.1 -0.1)">
      <use transform="translate(0 0.09375)" xlink:href="#DejaVuSans-Oblique-3bd"/>
      <use transform="translate(75.341797 0.09375)" xlink:href="#DejaVuSans-3d"/>
      <use transform="translate(178.613281 0.09375)" xlink:href="#DejaVuSans-31"/>
     </g>
    </g>
    <g id="line2d_32">
     <path d="M 309.965625 50.094688 
L 329.965625 50.094688 
" style="fill:none;stroke:#ff7f0e;stroke-linecap:square;stroke-width:1.5;"/>
    </g>
    <g id="line2d_33"/>
    <g id="text_16">
     <!-- $\nu = 3$ -->
     <g transform="translate(337.965625 53.594688)scale(0.1 -0.1)">
      <use transform="translate(0 0.78125)" xlink:href="#DejaVuSans-Oblique-3bd"/>
      <use transform="translate(75.341797 0.78125)" xlink:href="#DejaVuSans-3d"/>
      <use transform="translate(178.613281 0.78125)" xlink:href="#DejaVuSans-33"/>
     </g>
    </g>
    <g id="line2d_34">
     <path d="M 309.965625 64.772813 
L 329.965625 64.772813 
" style="fill:none;stroke:#2ca02c;stroke-linecap:square;stroke-width:1.5;"/>
    </g>
    <g id="line2d_35"/>
    <g id="text_17">
     <!-- $\nu = 5$ -->
     <g transform="translate(337.965625 68.272813)scale(0.1 -0.1)">
      <use transform="translate(0 0.09375)" xlink:href="#DejaVuSans-Oblique-3bd"/>
      <use transform="translate(75.341797 0.09375)" xlink:href="#DejaVuSans-3d"/>
      <use transform="translate(178.613281 0.09375)" xlink:href="#DejaVuSans-35"/>
     </g>
    </g>
   </g>
  </g>
 </g>
 <defs>
  <clipPath id="p5bbc09f6bd">
   <rect height="217.44" width="334.8" x="36.465625" y="22.318125"/>
  </clipPath>
 </defs>
</svg>
