<?xml version="1.0" encoding="utf-8" standalone="no"?>
<!DOCTYPE svg PUBLIC "-//W3C//DTD SVG 1.1//EN"
  "http://www.w3.org/Graphics/SVG/1.1/DTD/svg11.dtd">
<!-- Created with matplotlib (https://matplotlib.org/) -->
<svg height="252.018125pt" version="1.1" viewBox="0 0 392.782813 252.018125" width="392.782813pt" xmlns="http://www.w3.org/2000/svg" xmlns:xlink="http://www.w3.org/1999/xlink">
 <defs>
  <style type="text/css">
*{stroke-linecap:butt;stroke-linejoin:round;}
  </style>
 </defs>
 <g id="figure_1">
  <g id="patch_1">
   <path d="M -0 252.018125 
L 392.782813 252.018125 
L 392.782813 0 
L -0 0 
z
" style="fill:none;"/>
  </g>
  <g id="axes_1">
   <g id="patch_2">
    <path d="M 39.65 228.14 
L 374.45 228.14 
L 374.45 10.7 
L 39.65 10.7 
z
" style="fill:#ffffff;"/>
   </g>
   <g id="patch_3">
    <path clip-path="url(#p779d840d76)" d="M -462.716081 228.14 
L -449.123023 228.14 
L -449.123023 228.066094 
L -462.716081 228.066094 
z
" style="fill:#1f77b4;"/>
   </g>
   <g id="patch_4">
    <path clip-path="url(#p779d840d76)" d="M -449.123023 228.14 
L -435.529966 228.14 
L -435.529966 228.14 
L -449.123023 228.14 
z
" style="fill:#1f77b4;"/>
   </g>
   <g id="patch_5">
    <path clip-path="url(#p779d840d76)" d="M -435.529966 228.14 
L -421.936908 228.14 
L -421.936908 228.14 
L -435.529966 228.14 
z
" style="fill:#1f77b4;"/>
   </g>
   <g id="patch_6">
    <path clip-path="url(#p779d840d76)" d="M -421.936908 228.14 
L -408.343851 228.14 
L -408.343851 228.14 
L -421.936908 228.14 
z
" style="fill:#1f77b4;"/>
   </g>
   <g id="patch_7">
    <path clip-path="url(#p779d840d76)" d="M -408.343851 228.14 
L -394.750794 228.14 
L -394.750794 228.066094 
L -408.343851 228.066094 
z
" style="fill:#1f77b4;"/>
   </g>
   <g id="patch_8">
    <path clip-path="url(#p779d840d76)" d="M -394.750794 228.14 
L -381.157736 228.14 
L -381.157736 228.14 
L -394.750794 228.14 
z
" style="fill:#1f77b4;"/>
   </g>
   <g id="patch_9">
    <path clip-path="url(#p779d840d76)" d="M -381.157736 228.14 
L -367.564679 228.14 
L -367.564679 228.14 
L -381.157736 228.14 
z
" style="fill:#1f77b4;"/>
   </g>
   <g id="patch_10">
    <path clip-path="url(#p779d840d76)" d="M -367.564679 228.14 
L -353.971621 228.14 
L -353.971621 228.14 
L -367.564679 228.14 
z
" style="fill:#1f77b4;"/>
   </g>
   <g id="patch_11">
    <path clip-path="url(#p779d840d76)" d="M -353.971621 228.14 
L -340.378564 228.14 
L -340.378564 228.14 
L -353.971621 228.14 
z
" style="fill:#1f77b4;"/>
   </g>
   <g id="patch_12">
    <path clip-path="url(#p779d840d76)" d="M -340.378564 228.14 
L -326.785506 228.14 
L -326.785506 228.14 
L -340.378564 228.14 
z
" style="fill:#1f77b4;"/>
   </g>
   <g id="patch_13">
    <path clip-path="url(#p779d840d76)" d="M -326.785506 228.14 
L -313.192449 228.14 
L -313.192449 228.14 
L -326.785506 228.14 
z
" style="fill:#1f77b4;"/>
   </g>
   <g id="patch_14">
    <path clip-path="url(#p779d840d76)" d="M -313.192449 228.14 
L -299.599392 228.14 
L -299.599392 228.14 
L -313.192449 228.14 
z
" style="fill:#1f77b4;"/>
   </g>
   <g id="patch_15">
    <path clip-path="url(#p779d840d76)" d="M -299.599392 228.14 
L -286.006334 228.14 
L -286.006334 228.14 
L -299.599392 228.14 
z
" style="fill:#1f77b4;"/>
   </g>
   <g id="patch_16">
    <path clip-path="url(#p779d840d76)" d="M -286.006334 228.14 
L -272.413277 228.14 
L -272.413277 228.14 
L -286.006334 228.14 
z
" style="fill:#1f77b4;"/>
   </g>
   <g id="patch_17">
    <path clip-path="url(#p779d840d76)" d="M -272.413277 228.14 
L -258.820219 228.14 
L -258.820219 228.14 
L -272.413277 228.14 
z
" style="fill:#1f77b4;"/>
   </g>
   <g id="patch_18">
    <path clip-path="url(#p779d840d76)" d="M -258.820219 228.14 
L -245.227162 228.14 
L -245.227162 228.14 
L -258.820219 228.14 
z
" style="fill:#1f77b4;"/>
   </g>
   <g id="patch_19">
    <path clip-path="url(#p779d840d76)" d="M -245.227162 228.14 
L -231.634105 228.14 
L -231.634105 228.14 
L -245.227162 228.14 
z
" style="fill:#1f77b4;"/>
   </g>
   <g id="patch_20">
    <path clip-path="url(#p779d840d76)" d="M -231.634105 228.14 
L -218.041047 228.14 
L -218.041047 228.14 
L -231.634105 228.14 
z
" style="fill:#1f77b4;"/>
   </g>
   <g id="patch_21">
    <path clip-path="url(#p779d840d76)" d="M -218.041047 228.14 
L -204.44799 228.14 
L -204.44799 228.14 
L -218.041047 228.14 
z
" style="fill:#1f77b4;"/>
   </g>
   <g id="patch_22">
    <path clip-path="url(#p779d840d76)" d="M -204.44799 228.14 
L -190.854932 228.14 
L -190.854932 228.14 
L -204.44799 228.14 
z
" style="fill:#1f77b4;"/>
   </g>
   <g id="patch_23">
    <path clip-path="url(#p779d840d76)" d="M -190.854932 228.14 
L -177.261875 228.14 
L -177.261875 228.066094 
L -190.854932 228.066094 
z
" style="fill:#1f77b4;"/>
   </g>
   <g id="patch_24">
    <path clip-path="url(#p779d840d76)" d="M -177.261875 228.14 
L -163.668817 228.14 
L -163.668817 228.14 
L -177.261875 228.14 
z
" style="fill:#1f77b4;"/>
   </g>
   <g id="patch_25">
    <path clip-path="url(#p779d840d76)" d="M -163.668817 228.14 
L -150.07576 228.14 
L -150.07576 228.14 
L -163.668817 228.14 
z
" style="fill:#1f77b4;"/>
   </g>
   <g id="patch_26">
    <path clip-path="url(#p779d840d76)" d="M -150.07576 228.14 
L -136.482703 228.14 
L -136.482703 228.14 
L -150.07576 228.14 
z
" style="fill:#1f77b4;"/>
   </g>
   <g id="patch_27">
    <path clip-path="url(#p779d840d76)" d="M -136.482703 228.14 
L -122.889645 228.14 
L -122.889645 228.14 
L -136.482703 228.14 
z
" style="fill:#1f77b4;"/>
   </g>
   <g id="patch_28">
    <path clip-path="url(#p779d840d76)" d="M -122.889645 228.14 
L -109.296588 228.14 
L -109.296588 228.14 
L -122.889645 228.14 
z
" style="fill:#1f77b4;"/>
   </g>
   <g id="patch_29">
    <path clip-path="url(#p779d840d76)" d="M -109.296588 228.14 
L -95.70353 228.14 
L -95.70353 228.14 
L -109.296588 228.14 
z
" style="fill:#1f77b4;"/>
   </g>
   <g id="patch_30">
    <path clip-path="url(#p779d840d76)" d="M -95.70353 228.14 
L -82.110473 228.14 
L -82.110473 228.066094 
L -95.70353 228.066094 
z
" style="fill:#1f77b4;"/>
   </g>
   <g id="patch_31">
    <path clip-path="url(#p779d840d76)" d="M -82.110473 228.14 
L -68.517416 228.14 
L -68.517416 228.14 
L -82.110473 228.14 
z
" style="fill:#1f77b4;"/>
   </g>
   <g id="patch_32">
    <path clip-path="url(#p779d840d76)" d="M -68.517416 228.14 
L -54.924358 228.14 
L -54.924358 228.14 
L -68.517416 228.14 
z
" style="fill:#1f77b4;"/>
   </g>
   <g id="patch_33">
    <path clip-path="url(#p779d840d76)" d="M -54.924358 228.14 
L -41.331301 228.14 
L -41.331301 228.14 
L -54.924358 228.14 
z
" style="fill:#1f77b4;"/>
   </g>
   <g id="patch_34">
    <path clip-path="url(#p779d840d76)" d="M -41.331301 228.14 
L -27.738243 228.14 
L -27.738243 228.14 
L -41.331301 228.14 
z
" style="fill:#1f77b4;"/>
   </g>
   <g id="patch_35">
    <path clip-path="url(#p779d840d76)" d="M -27.738243 228.14 
L -14.145186 228.14 
L -14.145186 227.992187 
L -27.738243 227.992187 
z
" style="fill:#1f77b4;"/>
   </g>
   <g id="patch_36">
    <path clip-path="url(#p779d840d76)" d="M -14.145186 228.14 
L -0.552128 228.14 
L -0.552128 228.14 
L -14.145186 228.14 
z
" style="fill:#1f77b4;"/>
   </g>
   <g id="patch_37">
    <path clip-path="url(#p779d840d76)" d="M -0.552128 228.14 
L 13.040929 228.14 
L 13.040929 228.066094 
L -0.552128 228.066094 
z
" style="fill:#1f77b4;"/>
   </g>
   <g id="patch_38">
    <path clip-path="url(#p779d840d76)" d="M 13.040929 228.14 
L 26.633986 228.14 
L 26.633986 227.992187 
L 13.040929 227.992187 
z
" style="fill:#1f77b4;"/>
   </g>
   <g id="patch_39">
    <path clip-path="url(#p779d840d76)" d="M 26.633986 228.14 
L 40.227044 228.14 
L 40.227044 228.066094 
L 26.633986 228.066094 
z
" style="fill:#1f77b4;"/>
   </g>
   <g id="patch_40">
    <path clip-path="url(#p779d840d76)" d="M 40.227044 228.14 
L 53.820101 228.14 
L 53.820101 228.14 
L 40.227044 228.14 
z
" style="fill:#1f77b4;"/>
   </g>
   <g id="patch_41">
    <path clip-path="url(#p779d840d76)" d="M 53.820101 228.14 
L 67.413159 228.14 
L 67.413159 227.844374 
L 53.820101 227.844374 
z
" style="fill:#1f77b4;"/>
   </g>
   <g id="patch_42">
    <path clip-path="url(#p779d840d76)" d="M 67.413159 228.14 
L 81.006216 228.14 
L 81.006216 227.918281 
L 67.413159 227.918281 
z
" style="fill:#1f77b4;"/>
   </g>
   <g id="patch_43">
    <path clip-path="url(#p779d840d76)" d="M 81.006216 228.14 
L 94.599273 228.14 
L 94.599273 227.400936 
L 81.006216 227.400936 
z
" style="fill:#1f77b4;"/>
   </g>
   <g id="patch_44">
    <path clip-path="url(#p779d840d76)" d="M 94.599273 228.14 
L 108.192331 228.14 
L 108.192331 226.809685 
L 94.599273 226.809685 
z
" style="fill:#1f77b4;"/>
   </g>
   <g id="patch_45">
    <path clip-path="url(#p779d840d76)" d="M 108.192331 228.14 
L 121.785388 228.14 
L 121.785388 226.661872 
L 108.192331 226.661872 
z
" style="fill:#1f77b4;"/>
   </g>
   <g id="patch_46">
    <path clip-path="url(#p779d840d76)" d="M 121.785388 228.14 
L 135.378446 228.14 
L 135.378446 224.518587 
L 121.785388 224.518587 
z
" style="fill:#1f77b4;"/>
   </g>
   <g id="patch_47">
    <path clip-path="url(#p779d840d76)" d="M 135.378446 228.14 
L 148.971503 228.14 
L 148.971503 222.079676 
L 135.378446 222.079676 
z
" style="fill:#1f77b4;"/>
   </g>
   <g id="patch_48">
    <path clip-path="url(#p779d840d76)" d="M 148.971503 228.14 
L 162.564561 228.14 
L 162.564561 214.836849 
L 148.971503 214.836849 
z
" style="fill:#1f77b4;"/>
   </g>
   <g id="patch_49">
    <path clip-path="url(#p779d840d76)" d="M 162.564561 228.14 
L 176.157618 228.14 
L 176.157618 197.247128 
L 162.564561 197.247128 
z
" style="fill:#1f77b4;"/>
   </g>
   <g id="patch_50">
    <path clip-path="url(#p779d840d76)" d="M 176.157618 228.14 
L 189.750675 228.14 
L 189.750675 150.833913 
L 176.157618 150.833913 
z
" style="fill:#1f77b4;"/>
   </g>
   <g id="patch_51">
    <path clip-path="url(#p779d840d76)" d="M 189.750675 228.14 
L 203.343733 228.14 
L 203.343733 55.568571 
L 189.750675 55.568571 
z
" style="fill:#1f77b4;"/>
   </g>
   <g id="patch_52">
    <path clip-path="url(#p779d840d76)" d="M 203.343733 228.14 
L 216.93679 228.14 
L 216.93679 21.054286 
L 203.343733 21.054286 
z
" style="fill:#1f77b4;"/>
   </g>
   <g id="patch_53">
    <path clip-path="url(#p779d840d76)" d="M 216.93679 228.14 
L 230.529848 228.14 
L 230.529848 96.438807 
L 216.93679 96.438807 
z
" style="fill:#1f77b4;"/>
   </g>
   <g id="patch_54">
    <path clip-path="url(#p779d840d76)" d="M 230.529848 228.14 
L 244.122905 228.14 
L 244.122905 177.366308 
L 230.529848 177.366308 
z
" style="fill:#1f77b4;"/>
   </g>
   <g id="patch_55">
    <path clip-path="url(#p779d840d76)" d="M 244.122905 228.14 
L 257.715962 228.14 
L 257.715962 206.559333 
L 244.122905 206.559333 
z
" style="fill:#1f77b4;"/>
   </g>
   <g id="patch_56">
    <path clip-path="url(#p779d840d76)" d="M 257.715962 228.14 
L 271.30902 228.14 
L 271.30902 220.010297 
L 257.715962 220.010297 
z
" style="fill:#1f77b4;"/>
   </g>
   <g id="patch_57">
    <path clip-path="url(#p779d840d76)" d="M 271.30902 228.14 
L 284.902077 228.14 
L 284.902077 223.779523 
L 271.30902 223.779523 
z
" style="fill:#1f77b4;"/>
   </g>
   <g id="patch_58">
    <path clip-path="url(#p779d840d76)" d="M 284.902077 228.14 
L 298.495135 228.14 
L 298.495135 225.331557 
L 284.902077 225.331557 
z
" style="fill:#1f77b4;"/>
   </g>
   <g id="patch_59">
    <path clip-path="url(#p779d840d76)" d="M 298.495135 228.14 
L 312.088192 228.14 
L 312.088192 226.957498 
L 298.495135 226.957498 
z
" style="fill:#1f77b4;"/>
   </g>
   <g id="patch_60">
    <path clip-path="url(#p779d840d76)" d="M 312.088192 228.14 
L 325.681249 228.14 
L 325.681249 227.474842 
L 312.088192 227.474842 
z
" style="fill:#1f77b4;"/>
   </g>
   <g id="patch_61">
    <path clip-path="url(#p779d840d76)" d="M 325.681249 228.14 
L 339.274307 228.14 
L 339.274307 227.474842 
L 325.681249 227.474842 
z
" style="fill:#1f77b4;"/>
   </g>
   <g id="patch_62">
    <path clip-path="url(#p779d840d76)" d="M 339.274307 228.14 
L 352.867364 228.14 
L 352.867364 227.770468 
L 339.274307 227.770468 
z
" style="fill:#1f77b4;"/>
   </g>
   <g id="patch_63">
    <path clip-path="url(#p779d840d76)" d="M 352.867364 228.14 
L 366.460422 228.14 
L 366.460422 227.696562 
L 352.867364 227.696562 
z
" style="fill:#1f77b4;"/>
   </g>
   <g id="patch_64">
    <path clip-path="url(#p779d840d76)" d="M 366.460422 228.14 
L 380.053479 228.14 
L 380.053479 227.992187 
L 366.460422 227.992187 
z
" style="fill:#1f77b4;"/>
   </g>
   <g id="patch_65">
    <path clip-path="url(#p779d840d76)" d="M 380.053479 228.14 
L 393.646537 228.14 
L 393.646537 227.992187 
L 380.053479 227.992187 
z
" style="fill:#1f77b4;"/>
   </g>
   <g id="patch_66">
    <path clip-path="url(#p779d840d76)" d="M 393.646537 228.14 
L 407.239594 228.14 
L 407.239594 228.066094 
L 393.646537 228.066094 
z
" style="fill:#1f77b4;"/>
   </g>
   <g id="patch_67">
    <path clip-path="url(#p779d840d76)" d="M 407.239594 228.14 
L 420.832651 228.14 
L 420.832651 228.066094 
L 407.239594 228.066094 
z
" style="fill:#1f77b4;"/>
   </g>
   <g id="patch_68">
    <path clip-path="url(#p779d840d76)" d="M 420.832651 228.14 
L 434.425709 228.14 
L 434.425709 228.066094 
L 420.832651 228.066094 
z
" style="fill:#1f77b4;"/>
   </g>
   <g id="patch_69">
    <path clip-path="url(#p779d840d76)" d="M 434.425709 228.14 
L 448.018766 228.14 
L 448.018766 228.14 
L 434.425709 228.14 
z
" style="fill:#1f77b4;"/>
   </g>
   <g id="patch_70">
    <path clip-path="url(#p779d840d76)" d="M 448.018766 228.14 
L 461.611824 228.14 
L 461.611824 228.14 
L 448.018766 228.14 
z
" style="fill:#1f77b4;"/>
   </g>
   <g id="patch_71">
    <path clip-path="url(#p779d840d76)" d="M 461.611824 228.14 
L 475.204881 228.14 
L 475.204881 228.14 
L 461.611824 228.14 
z
" style="fill:#1f77b4;"/>
   </g>
   <g id="patch_72">
    <path clip-path="url(#p779d840d76)" d="M 475.204881 228.14 
L 488.797938 228.14 
L 488.797938 228.14 
L 475.204881 228.14 
z
" style="fill:#1f77b4;"/>
   </g>
   <g id="patch_73">
    <path clip-path="url(#p779d840d76)" d="M 488.797938 228.14 
L 502.390996 228.14 
L 502.390996 228.14 
L 488.797938 228.14 
z
" style="fill:#1f77b4;"/>
   </g>
   <g id="patch_74">
    <path clip-path="url(#p779d840d76)" d="M 502.390996 228.14 
L 515.984053 228.14 
L 515.984053 228.14 
L 502.390996 228.14 
z
" style="fill:#1f77b4;"/>
   </g>
   <g id="patch_75">
    <path clip-path="url(#p779d840d76)" d="M 515.984053 228.14 
L 529.577111 228.14 
L 529.577111 228.14 
L 515.984053 228.14 
z
" style="fill:#1f77b4;"/>
   </g>
   <g id="patch_76">
    <path clip-path="url(#p779d840d76)" d="M 529.577111 228.14 
L 543.170168 228.14 
L 543.170168 228.14 
L 529.577111 228.14 
z
" style="fill:#1f77b4;"/>
   </g>
   <g id="patch_77">
    <path clip-path="url(#p779d840d76)" d="M 543.170168 228.14 
L 556.763226 228.14 
L 556.763226 228.14 
L 543.170168 228.14 
z
" style="fill:#1f77b4;"/>
   </g>
   <g id="patch_78">
    <path clip-path="url(#p779d840d76)" d="M 556.763226 228.14 
L 570.356283 228.14 
L 570.356283 228.14 
L 556.763226 228.14 
z
" style="fill:#1f77b4;"/>
   </g>
   <g id="patch_79">
    <path clip-path="url(#p779d840d76)" d="M 570.356283 228.14 
L 583.94934 228.14 
L 583.94934 228.066094 
L 570.356283 228.066094 
z
" style="fill:#1f77b4;"/>
   </g>
   <g id="patch_80">
    <path clip-path="url(#p779d840d76)" d="M 583.94934 228.14 
L 597.542398 228.14 
L 597.542398 228.14 
L 583.94934 228.14 
z
" style="fill:#1f77b4;"/>
   </g>
   <g id="patch_81">
    <path clip-path="url(#p779d840d76)" d="M 597.542398 228.14 
L 611.135455 228.14 
L 611.135455 228.066094 
L 597.542398 228.066094 
z
" style="fill:#1f77b4;"/>
   </g>
   <g id="patch_82">
    <path clip-path="url(#p779d840d76)" d="M 611.135455 228.14 
L 624.728513 228.14 
L 624.728513 228.066094 
L 611.135455 228.066094 
z
" style="fill:#1f77b4;"/>
   </g>
   <g id="matplotlib.axis_1">
    <g id="xtick_1">
     <g id="line2d_1">
      <path clip-path="url(#p779d840d76)" d="M 39.65 228.14 
L 39.65 10.7 
" style="fill:none;stroke:#b0b0b0;stroke-linecap:square;stroke-width:0.8;"/>
     </g>
     <g id="line2d_2">
      <defs>
       <path d="M 0 0 
L 0 3.5 
" id="m932005c47d" style="stroke:#000000;stroke-width:0.8;"/>
      </defs>
      <g>
       <use style="stroke:#000000;stroke-width:0.8;" x="39.65" xlink:href="#m932005c47d" y="228.14"/>
      </g>
     </g>
     <g id="text_1">
      <!-- −10.0 -->
      <defs>
       <path d="M 10.59375 35.5 
L 73.1875 35.5 
L 73.1875 27.203125 
L 10.59375 27.203125 
z
" id="DejaVuSans-8722"/>
       <path d="M 12.40625 8.296875 
L 28.515625 8.296875 
L 28.515625 63.921875 
L 10.984375 60.40625 
L 10.984375 69.390625 
L 28.421875 72.90625 
L 38.28125 72.90625 
L 38.28125 8.296875 
L 54.390625 8.296875 
L 54.390625 0 
L 12.40625 0 
z
" id="DejaVuSans-49"/>
       <path d="M 31.78125 66.40625 
Q 24.171875 66.40625 20.328125 58.90625 
Q 16.5 51.421875 16.5 36.375 
Q 16.5 21.390625 20.328125 13.890625 
Q 24.171875 6.390625 31.78125 6.390625 
Q 39.453125 6.390625 43.28125 13.890625 
Q 47.125 21.390625 47.125 36.375 
Q 47.125 51.421875 43.28125 58.90625 
Q 39.453125 66.40625 31.78125 66.40625 
z
M 31.78125 74.21875 
Q 44.046875 74.21875 50.515625 64.515625 
Q 56.984375 54.828125 56.984375 36.375 
Q 56.984375 17.96875 50.515625 8.265625 
Q 44.046875 -1.421875 31.78125 -1.421875 
Q 19.53125 -1.421875 13.0625 8.265625 
Q 6.59375 17.96875 6.59375 36.375 
Q 6.59375 54.828125 13.0625 64.515625 
Q 19.53125 74.21875 31.78125 74.21875 
z
" id="DejaVuSans-48"/>
       <path d="M 10.6875 12.40625 
L 21 12.40625 
L 21 0 
L 10.6875 0 
z
" id="DejaVuSans-46"/>
      </defs>
      <g transform="translate(24.327344 242.738437)scale(0.1 -0.1)">
       <use xlink:href="#DejaVuSans-8722"/>
       <use x="83.789062" xlink:href="#DejaVuSans-49"/>
       <use x="147.412109" xlink:href="#DejaVuSans-48"/>
       <use x="211.035156" xlink:href="#DejaVuSans-46"/>
       <use x="242.822266" xlink:href="#DejaVuSans-48"/>
      </g>
     </g>
    </g>
    <g id="xtick_2">
     <g id="line2d_3">
      <path clip-path="url(#p779d840d76)" d="M 81.5 228.14 
L 81.5 10.7 
" style="fill:none;stroke:#b0b0b0;stroke-linecap:square;stroke-width:0.8;"/>
     </g>
     <g id="line2d_4">
      <g>
       <use style="stroke:#000000;stroke-width:0.8;" x="81.5" xlink:href="#m932005c47d" y="228.14"/>
      </g>
     </g>
     <g id="text_2">
      <!-- −7.5 -->
      <defs>
       <path d="M 8.203125 72.90625 
L 55.078125 72.90625 
L 55.078125 68.703125 
L 28.609375 0 
L 18.3125 0 
L 43.21875 64.59375 
L 8.203125 64.59375 
z
" id="DejaVuSans-55"/>
       <path d="M 10.796875 72.90625 
L 49.515625 72.90625 
L 49.515625 64.59375 
L 19.828125 64.59375 
L 19.828125 46.734375 
Q 21.96875 47.46875 24.109375 47.828125 
Q 26.265625 48.1875 28.421875 48.1875 
Q 40.625 48.1875 47.75 41.5 
Q 54.890625 34.8125 54.890625 23.390625 
Q 54.890625 11.625 47.5625 5.09375 
Q 40.234375 -1.421875 26.90625 -1.421875 
Q 22.3125 -1.421875 17.546875 -0.640625 
Q 12.796875 0.140625 7.71875 1.703125 
L 7.71875 11.625 
Q 12.109375 9.234375 16.796875 8.0625 
Q 21.484375 6.890625 26.703125 6.890625 
Q 35.15625 6.890625 40.078125 11.328125 
Q 45.015625 15.765625 45.015625 23.390625 
Q 45.015625 31 40.078125 35.4375 
Q 35.15625 39.890625 26.703125 39.890625 
Q 22.75 39.890625 18.8125 39.015625 
Q 14.890625 38.140625 10.796875 36.28125 
z
" id="DejaVuSans-53"/>
      </defs>
      <g transform="translate(69.358594 242.738437)scale(0.1 -0.1)">
       <use xlink:href="#DejaVuSans-8722"/>
       <use x="83.789062" xlink:href="#DejaVuSans-55"/>
       <use x="147.412109" xlink:href="#DejaVuSans-46"/>
       <use x="179.199219" xlink:href="#DejaVuSans-53"/>
      </g>
     </g>
    </g>
    <g id="xtick_3">
     <g id="line2d_5">
      <path clip-path="url(#p779d840d76)" d="M 123.35 228.14 
L 123.35 10.7 
" style="fill:none;stroke:#b0b0b0;stroke-linecap:square;stroke-width:0.8;"/>
     </g>
     <g id="line2d_6">
      <g>
       <use style="stroke:#000000;stroke-width:0.8;" x="123.35" xlink:href="#m932005c47d" y="228.14"/>
      </g>
     </g>
     <g id="text_3">
      <!-- −5.0 -->
      <g transform="translate(111.208594 242.738437)scale(0.1 -0.1)">
       <use xlink:href="#DejaVuSans-8722"/>
       <use x="83.789062" xlink:href="#DejaVuSans-53"/>
       <use x="147.412109" xlink:href="#DejaVuSans-46"/>
       <use x="179.199219" xlink:href="#DejaVuSans-48"/>
      </g>
     </g>
    </g>
    <g id="xtick_4">
     <g id="line2d_7">
      <path clip-path="url(#p779d840d76)" d="M 165.2 228.14 
L 165.2 10.7 
" style="fill:none;stroke:#b0b0b0;stroke-linecap:square;stroke-width:0.8;"/>
     </g>
     <g id="line2d_8">
      <g>
       <use style="stroke:#000000;stroke-width:0.8;" x="165.2" xlink:href="#m932005c47d" y="228.14"/>
      </g>
     </g>
     <g id="text_4">
      <!-- −2.5 -->
      <defs>
       <path d="M 19.1875 8.296875 
L 53.609375 8.296875 
L 53.609375 0 
L 7.328125 0 
L 7.328125 8.296875 
Q 12.9375 14.109375 22.625 23.890625 
Q 32.328125 33.6875 34.8125 36.53125 
Q 39.546875 41.84375 41.421875 45.53125 
Q 43.3125 49.21875 43.3125 52.78125 
Q 43.3125 58.59375 39.234375 62.25 
Q 35.15625 65.921875 28.609375 65.921875 
Q 23.96875 65.921875 18.8125 64.3125 
Q 13.671875 62.703125 7.8125 59.421875 
L 7.8125 69.390625 
Q 13.765625 71.78125 18.9375 73 
Q 24.125 74.21875 28.421875 74.21875 
Q 39.75 74.21875 46.484375 68.546875 
Q 53.21875 62.890625 53.21875 53.421875 
Q 53.21875 48.921875 51.53125 44.890625 
Q 49.859375 40.875 45.40625 35.40625 
Q 44.1875 33.984375 37.640625 27.21875 
Q 31.109375 20.453125 19.1875 8.296875 
z
" id="DejaVuSans-50"/>
      </defs>
      <g transform="translate(153.058594 242.738437)scale(0.1 -0.1)">
       <use xlink:href="#DejaVuSans-8722"/>
       <use x="83.789062" xlink:href="#DejaVuSans-50"/>
       <use x="147.412109" xlink:href="#DejaVuSans-46"/>
       <use x="179.199219" xlink:href="#DejaVuSans-53"/>
      </g>
     </g>
    </g>
    <g id="xtick_5">
     <g id="line2d_9">
      <path clip-path="url(#p779d840d76)" d="M 207.05 228.14 
L 207.05 10.7 
" style="fill:none;stroke:#b0b0b0;stroke-linecap:square;stroke-width:0.8;"/>
     </g>
     <g id="line2d_10">
      <g>
       <use style="stroke:#000000;stroke-width:0.8;" x="207.05" xlink:href="#m932005c47d" y="228.14"/>
      </g>
     </g>
     <g id="text_5">
      <!-- 0.0 -->
      <g transform="translate(199.098438 242.738437)scale(0.1 -0.1)">
       <use xlink:href="#DejaVuSans-48"/>
       <use x="63.623047" xlink:href="#DejaVuSans-46"/>
       <use x="95.410156" xlink:href="#DejaVuSans-48"/>
      </g>
     </g>
    </g>
    <g id="xtick_6">
     <g id="line2d_11">
      <path clip-path="url(#p779d840d76)" d="M 248.9 228.14 
L 248.9 10.7 
" style="fill:none;stroke:#b0b0b0;stroke-linecap:square;stroke-width:0.8;"/>
     </g>
     <g id="line2d_12">
      <g>
       <use style="stroke:#000000;stroke-width:0.8;" x="248.9" xlink:href="#m932005c47d" y="228.14"/>
      </g>
     </g>
     <g id="text_6">
      <!-- 2.5 -->
      <g transform="translate(240.948438 242.738437)scale(0.1 -0.1)">
       <use xlink:href="#DejaVuSans-50"/>
       <use x="63.623047" xlink:href="#DejaVuSans-46"/>
       <use x="95.410156" xlink:href="#DejaVuSans-53"/>
      </g>
     </g>
    </g>
    <g id="xtick_7">
     <g id="line2d_13">
      <path clip-path="url(#p779d840d76)" d="M 290.75 228.14 
L 290.75 10.7 
" style="fill:none;stroke:#b0b0b0;stroke-linecap:square;stroke-width:0.8;"/>
     </g>
     <g id="line2d_14">
      <g>
       <use style="stroke:#000000;stroke-width:0.8;" x="290.75" xlink:href="#m932005c47d" y="228.14"/>
      </g>
     </g>
     <g id="text_7">
      <!-- 5.0 -->
      <g transform="translate(282.798438 242.738437)scale(0.1 -0.1)">
       <use xlink:href="#DejaVuSans-53"/>
       <use x="63.623047" xlink:href="#DejaVuSans-46"/>
       <use x="95.410156" xlink:href="#DejaVuSans-48"/>
      </g>
     </g>
    </g>
    <g id="xtick_8">
     <g id="line2d_15">
      <path clip-path="url(#p779d840d76)" d="M 332.6 228.14 
L 332.6 10.7 
" style="fill:none;stroke:#b0b0b0;stroke-linecap:square;stroke-width:0.8;"/>
     </g>
     <g id="line2d_16">
      <g>
       <use style="stroke:#000000;stroke-width:0.8;" x="332.6" xlink:href="#m932005c47d" y="228.14"/>
      </g>
     </g>
     <g id="text_8">
      <!-- 7.5 -->
      <g transform="translate(324.648438 242.738437)scale(0.1 -0.1)">
       <use xlink:href="#DejaVuSans-55"/>
       <use x="63.623047" xlink:href="#DejaVuSans-46"/>
       <use x="95.410156" xlink:href="#DejaVuSans-53"/>
      </g>
     </g>
    </g>
    <g id="xtick_9">
     <g id="line2d_17">
      <path clip-path="url(#p779d840d76)" d="M 374.45 228.14 
L 374.45 10.7 
" style="fill:none;stroke:#b0b0b0;stroke-linecap:square;stroke-width:0.8;"/>
     </g>
     <g id="line2d_18">
      <g>
       <use style="stroke:#000000;stroke-width:0.8;" x="374.45" xlink:href="#m932005c47d" y="228.14"/>
      </g>
     </g>
     <g id="text_9">
      <!-- 10.0 -->
      <g transform="translate(363.317188 242.738437)scale(0.1 -0.1)">
       <use xlink:href="#DejaVuSans-49"/>
       <use x="63.623047" xlink:href="#DejaVuSans-48"/>
       <use x="127.246094" xlink:href="#DejaVuSans-46"/>
       <use x="159.033203" xlink:href="#DejaVuSans-48"/>
      </g>
     </g>
    </g>
   </g>
   <g id="matplotlib.axis_2">
    <g id="ytick_1">
     <g id="line2d_19">
      <path clip-path="url(#p779d840d76)" d="M 39.65 228.14 
L 374.45 228.14 
" style="fill:none;stroke:#b0b0b0;stroke-linecap:square;stroke-width:0.8;"/>
     </g>
     <g id="line2d_20">
      <defs>
       <path d="M 0 0 
L -3.5 0 
" id="m8a45ee04a2" style="stroke:#000000;stroke-width:0.8;"/>
      </defs>
      <g>
       <use style="stroke:#000000;stroke-width:0.8;" x="39.65" xlink:href="#m8a45ee04a2" y="228.14"/>
      </g>
     </g>
     <g id="text_10">
      <!-- 0 -->
      <g transform="translate(26.2875 231.939219)scale(0.1 -0.1)">
       <use xlink:href="#DejaVuSans-48"/>
      </g>
     </g>
    </g>
    <g id="ytick_2">
     <g id="line2d_21">
      <path clip-path="url(#p779d840d76)" d="M 39.65 191.186803 
L 374.45 191.186803 
" style="fill:none;stroke:#b0b0b0;stroke-linecap:square;stroke-width:0.8;"/>
     </g>
     <g id="line2d_22">
      <g>
       <use style="stroke:#000000;stroke-width:0.8;" x="39.65" xlink:href="#m8a45ee04a2" y="191.186803"/>
      </g>
     </g>
     <g id="text_11">
      <!-- 500 -->
      <g transform="translate(13.5625 194.986022)scale(0.1 -0.1)">
       <use xlink:href="#DejaVuSans-53"/>
       <use x="63.623047" xlink:href="#DejaVuSans-48"/>
       <use x="127.246094" xlink:href="#DejaVuSans-48"/>
      </g>
     </g>
    </g>
    <g id="ytick_3">
     <g id="line2d_23">
      <path clip-path="url(#p779d840d76)" d="M 39.65 154.233607 
L 374.45 154.233607 
" style="fill:none;stroke:#b0b0b0;stroke-linecap:square;stroke-width:0.8;"/>
     </g>
     <g id="line2d_24">
      <g>
       <use style="stroke:#000000;stroke-width:0.8;" x="39.65" xlink:href="#m8a45ee04a2" y="154.233607"/>
      </g>
     </g>
     <g id="text_12">
      <!-- 1000 -->
      <g transform="translate(7.2 158.032825)scale(0.1 -0.1)">
       <use xlink:href="#DejaVuSans-49"/>
       <use x="63.623047" xlink:href="#DejaVuSans-48"/>
       <use x="127.246094" xlink:href="#DejaVuSans-48"/>
       <use x="190.869141" xlink:href="#DejaVuSans-48"/>
      </g>
     </g>
    </g>
    <g id="ytick_4">
     <g id="line2d_25">
      <path clip-path="url(#p779d840d76)" d="M 39.65 117.28041 
L 374.45 117.28041 
" style="fill:none;stroke:#b0b0b0;stroke-linecap:square;stroke-width:0.8;"/>
     </g>
     <g id="line2d_26">
      <g>
       <use style="stroke:#000000;stroke-width:0.8;" x="39.65" xlink:href="#m8a45ee04a2" y="117.28041"/>
      </g>
     </g>
     <g id="text_13">
      <!-- 1500 -->
      <g transform="translate(7.2 121.079629)scale(0.1 -0.1)">
       <use xlink:href="#DejaVuSans-49"/>
       <use x="63.623047" xlink:href="#DejaVuSans-53"/>
       <use x="127.246094" xlink:href="#DejaVuSans-48"/>
       <use x="190.869141" xlink:href="#DejaVuSans-48"/>
      </g>
     </g>
    </g>
    <g id="ytick_5">
     <g id="line2d_27">
      <path clip-path="url(#p779d840d76)" d="M 39.65 80.327213 
L 374.45 80.327213 
" style="fill:none;stroke:#b0b0b0;stroke-linecap:square;stroke-width:0.8;"/>
     </g>
     <g id="line2d_28">
      <g>
       <use style="stroke:#000000;stroke-width:0.8;" x="39.65" xlink:href="#m8a45ee04a2" y="80.327213"/>
      </g>
     </g>
     <g id="text_14">
      <!-- 2000 -->
      <g transform="translate(7.2 84.126432)scale(0.1 -0.1)">
       <use xlink:href="#DejaVuSans-50"/>
       <use x="63.623047" xlink:href="#DejaVuSans-48"/>
       <use x="127.246094" xlink:href="#DejaVuSans-48"/>
       <use x="190.869141" xlink:href="#DejaVuSans-48"/>
      </g>
     </g>
    </g>
    <g id="ytick_6">
     <g id="line2d_29">
      <path clip-path="url(#p779d840d76)" d="M 39.65 43.374017 
L 374.45 43.374017 
" style="fill:none;stroke:#b0b0b0;stroke-linecap:square;stroke-width:0.8;"/>
     </g>
     <g id="line2d_30">
      <g>
       <use style="stroke:#000000;stroke-width:0.8;" x="39.65" xlink:href="#m8a45ee04a2" y="43.374017"/>
      </g>
     </g>
     <g id="text_15">
      <!-- 2500 -->
      <g transform="translate(7.2 47.173235)scale(0.1 -0.1)">
       <use xlink:href="#DejaVuSans-50"/>
       <use x="63.623047" xlink:href="#DejaVuSans-53"/>
       <use x="127.246094" xlink:href="#DejaVuSans-48"/>
       <use x="190.869141" xlink:href="#DejaVuSans-48"/>
      </g>
     </g>
    </g>
   </g>
   <g id="patch_83">
    <path d="M 39.65 228.14 
L 39.65 10.7 
" style="fill:none;stroke:#000000;stroke-linecap:square;stroke-linejoin:miter;stroke-width:0.8;"/>
   </g>
   <g id="patch_84">
    <path d="M 374.45 228.14 
L 374.45 10.7 
" style="fill:none;stroke:#000000;stroke-linecap:square;stroke-linejoin:miter;stroke-width:0.8;"/>
   </g>
   <g id="patch_85">
    <path d="M 39.65 228.14 
L 374.45 228.14 
" style="fill:none;stroke:#000000;stroke-linecap:square;stroke-linejoin:miter;stroke-width:0.8;"/>
   </g>
   <g id="patch_86">
    <path d="M 39.65 10.7 
L 374.45 10.7 
" style="fill:none;stroke:#000000;stroke-linecap:square;stroke-linejoin:miter;stroke-width:0.8;"/>
   </g>
  </g>
 </g>
 <defs>
  <clipPath id="p779d840d76">
   <rect height="217.44" width="334.8" x="39.65" y="10.7"/>
  </clipPath>
 </defs>
</svg>
