<?xml version="1.0" encoding="utf-8" standalone="no"?>
<!DOCTYPE svg PUBLIC "-//W3C//DTD SVG 1.1//EN"
  "http://www.w3.org/Graphics/SVG/1.1/DTD/svg11.dtd">
<!-- Created with matplotlib (https://matplotlib.org/) -->
<svg height="252.018125pt" version="1.1" viewBox="0 0 381.965625 252.018125" width="381.965625pt" xmlns="http://www.w3.org/2000/svg" xmlns:xlink="http://www.w3.org/1999/xlink">
 <defs>
  <style type="text/css">
*{stroke-linecap:butt;stroke-linejoin:round;}
  </style>
 </defs>
 <g id="figure_1">
  <g id="patch_1">
   <path d="M 0 252.018125 
L 381.965625 252.018125 
L 381.965625 0 
L 0 0 
z
" style="fill:none;"/>
  </g>
  <g id="axes_1">
   <g id="patch_2">
    <path d="M 36.465625 228.14 
L 371.265625 228.14 
L 371.265625 10.7 
L 36.465625 10.7 
z
" style="fill:#ffffff;"/>
   </g>
   <g id="matplotlib.axis_1">
    <g id="xtick_1">
     <g id="line2d_1">
      <path clip-path="url(#p3ddd30354b)" d="M 51.683807 228.14 
L 51.683807 10.7 
" style="fill:none;stroke:#b0b0b0;stroke-linecap:square;stroke-width:0.8;"/>
     </g>
     <g id="line2d_2">
      <defs>
       <path d="M 0 0 
L 0 3.5 
" id="m9df4de2ece" style="stroke:#000000;stroke-width:0.8;"/>
      </defs>
      <g>
       <use style="stroke:#000000;stroke-width:0.8;" x="51.683807" xlink:href="#m9df4de2ece" y="228.14"/>
      </g>
     </g>
     <g id="text_1">
      <!-- 0.0 -->
      <defs>
       <path d="M 31.78125 66.40625 
Q 24.171875 66.40625 20.328125 58.90625 
Q 16.5 51.421875 16.5 36.375 
Q 16.5 21.390625 20.328125 13.890625 
Q 24.171875 6.390625 31.78125 6.390625 
Q 39.453125 6.390625 43.28125 13.890625 
Q 47.125 21.390625 47.125 36.375 
Q 47.125 51.421875 43.28125 58.90625 
Q 39.453125 66.40625 31.78125 66.40625 
z
M 31.78125 74.21875 
Q 44.046875 74.21875 50.515625 64.515625 
Q 56.984375 54.828125 56.984375 36.375 
Q 56.984375 17.96875 50.515625 8.265625 
Q 44.046875 -1.421875 31.78125 -1.421875 
Q 19.53125 -1.421875 13.0625 8.265625 
Q 6.59375 17.96875 6.59375 36.375 
Q 6.59375 54.828125 13.0625 64.515625 
Q 19.53125 74.21875 31.78125 74.21875 
z
" id="DejaVuSans-48"/>
       <path d="M 10.6875 12.40625 
L 21 12.40625 
L 21 0 
L 10.6875 0 
z
" id="DejaVuSans-46"/>
      </defs>
      <g transform="translate(43.732244 242.738437)scale(0.1 -0.1)">
       <use xlink:href="#DejaVuSans-48"/>
       <use x="63.623047" xlink:href="#DejaVuSans-46"/>
       <use x="95.410156" xlink:href="#DejaVuSans-48"/>
      </g>
     </g>
    </g>
    <g id="xtick_2">
     <g id="line2d_3">
      <path clip-path="url(#p3ddd30354b)" d="M 89.729261 228.14 
L 89.729261 10.7 
" style="fill:none;stroke:#b0b0b0;stroke-linecap:square;stroke-width:0.8;"/>
     </g>
     <g id="line2d_4">
      <g>
       <use style="stroke:#000000;stroke-width:0.8;" x="89.729261" xlink:href="#m9df4de2ece" y="228.14"/>
      </g>
     </g>
     <g id="text_2">
      <!-- 0.5 -->
      <defs>
       <path d="M 10.796875 72.90625 
L 49.515625 72.90625 
L 49.515625 64.59375 
L 19.828125 64.59375 
L 19.828125 46.734375 
Q 21.96875 47.46875 24.109375 47.828125 
Q 26.265625 48.1875 28.421875 48.1875 
Q 40.625 48.1875 47.75 41.5 
Q 54.890625 34.8125 54.890625 23.390625 
Q 54.890625 11.625 47.5625 5.09375 
Q 40.234375 -1.421875 26.90625 -1.421875 
Q 22.3125 -1.421875 17.546875 -0.640625 
Q 12.796875 0.140625 7.71875 1.703125 
L 7.71875 11.625 
Q 12.109375 9.234375 16.796875 8.0625 
Q 21.484375 6.890625 26.703125 6.890625 
Q 35.15625 6.890625 40.078125 11.328125 
Q 45.015625 15.765625 45.015625 23.390625 
Q 45.015625 31 40.078125 35.4375 
Q 35.15625 39.890625 26.703125 39.890625 
Q 22.75 39.890625 18.8125 39.015625 
Q 14.890625 38.140625 10.796875 36.28125 
z
" id="DejaVuSans-53"/>
      </defs>
      <g transform="translate(81.777699 242.738437)scale(0.1 -0.1)">
       <use xlink:href="#DejaVuSans-48"/>
       <use x="63.623047" xlink:href="#DejaVuSans-46"/>
       <use x="95.410156" xlink:href="#DejaVuSans-53"/>
      </g>
     </g>
    </g>
    <g id="xtick_3">
     <g id="line2d_5">
      <path clip-path="url(#p3ddd30354b)" d="M 127.774716 228.14 
L 127.774716 10.7 
" style="fill:none;stroke:#b0b0b0;stroke-linecap:square;stroke-width:0.8;"/>
     </g>
     <g id="line2d_6">
      <g>
       <use style="stroke:#000000;stroke-width:0.8;" x="127.774716" xlink:href="#m9df4de2ece" y="228.14"/>
      </g>
     </g>
     <g id="text_3">
      <!-- 1.0 -->
      <defs>
       <path d="M 12.40625 8.296875 
L 28.515625 8.296875 
L 28.515625 63.921875 
L 10.984375 60.40625 
L 10.984375 69.390625 
L 28.421875 72.90625 
L 38.28125 72.90625 
L 38.28125 8.296875 
L 54.390625 8.296875 
L 54.390625 0 
L 12.40625 0 
z
" id="DejaVuSans-49"/>
      </defs>
      <g transform="translate(119.823153 242.738437)scale(0.1 -0.1)">
       <use xlink:href="#DejaVuSans-49"/>
       <use x="63.623047" xlink:href="#DejaVuSans-46"/>
       <use x="95.410156" xlink:href="#DejaVuSans-48"/>
      </g>
     </g>
    </g>
    <g id="xtick_4">
     <g id="line2d_7">
      <path clip-path="url(#p3ddd30354b)" d="M 165.82017 228.14 
L 165.82017 10.7 
" style="fill:none;stroke:#b0b0b0;stroke-linecap:square;stroke-width:0.8;"/>
     </g>
     <g id="line2d_8">
      <g>
       <use style="stroke:#000000;stroke-width:0.8;" x="165.82017" xlink:href="#m9df4de2ece" y="228.14"/>
      </g>
     </g>
     <g id="text_4">
      <!-- 1.5 -->
      <g transform="translate(157.868608 242.738437)scale(0.1 -0.1)">
       <use xlink:href="#DejaVuSans-49"/>
       <use x="63.623047" xlink:href="#DejaVuSans-46"/>
       <use x="95.410156" xlink:href="#DejaVuSans-53"/>
      </g>
     </g>
    </g>
    <g id="xtick_5">
     <g id="line2d_9">
      <path clip-path="url(#p3ddd30354b)" d="M 203.865625 228.14 
L 203.865625 10.7 
" style="fill:none;stroke:#b0b0b0;stroke-linecap:square;stroke-width:0.8;"/>
     </g>
     <g id="line2d_10">
      <g>
       <use style="stroke:#000000;stroke-width:0.8;" x="203.865625" xlink:href="#m9df4de2ece" y="228.14"/>
      </g>
     </g>
     <g id="text_5">
      <!-- 2.0 -->
      <defs>
       <path d="M 19.1875 8.296875 
L 53.609375 8.296875 
L 53.609375 0 
L 7.328125 0 
L 7.328125 8.296875 
Q 12.9375 14.109375 22.625 23.890625 
Q 32.328125 33.6875 34.8125 36.53125 
Q 39.546875 41.84375 41.421875 45.53125 
Q 43.3125 49.21875 43.3125 52.78125 
Q 43.3125 58.59375 39.234375 62.25 
Q 35.15625 65.921875 28.609375 65.921875 
Q 23.96875 65.921875 18.8125 64.3125 
Q 13.671875 62.703125 7.8125 59.421875 
L 7.8125 69.390625 
Q 13.765625 71.78125 18.9375 73 
Q 24.125 74.21875 28.421875 74.21875 
Q 39.75 74.21875 46.484375 68.546875 
Q 53.21875 62.890625 53.21875 53.421875 
Q 53.21875 48.921875 51.53125 44.890625 
Q 49.859375 40.875 45.40625 35.40625 
Q 44.1875 33.984375 37.640625 27.21875 
Q 31.109375 20.453125 19.1875 8.296875 
z
" id="DejaVuSans-50"/>
      </defs>
      <g transform="translate(195.914063 242.738437)scale(0.1 -0.1)">
       <use xlink:href="#DejaVuSans-50"/>
       <use x="63.623047" xlink:href="#DejaVuSans-46"/>
       <use x="95.410156" xlink:href="#DejaVuSans-48"/>
      </g>
     </g>
    </g>
    <g id="xtick_6">
     <g id="line2d_11">
      <path clip-path="url(#p3ddd30354b)" d="M 241.91108 228.14 
L 241.91108 10.7 
" style="fill:none;stroke:#b0b0b0;stroke-linecap:square;stroke-width:0.8;"/>
     </g>
     <g id="line2d_12">
      <g>
       <use style="stroke:#000000;stroke-width:0.8;" x="241.91108" xlink:href="#m9df4de2ece" y="228.14"/>
      </g>
     </g>
     <g id="text_6">
      <!-- 2.5 -->
      <g transform="translate(233.959517 242.738437)scale(0.1 -0.1)">
       <use xlink:href="#DejaVuSans-50"/>
       <use x="63.623047" xlink:href="#DejaVuSans-46"/>
       <use x="95.410156" xlink:href="#DejaVuSans-53"/>
      </g>
     </g>
    </g>
    <g id="xtick_7">
     <g id="line2d_13">
      <path clip-path="url(#p3ddd30354b)" d="M 279.956534 228.14 
L 279.956534 10.7 
" style="fill:none;stroke:#b0b0b0;stroke-linecap:square;stroke-width:0.8;"/>
     </g>
     <g id="line2d_14">
      <g>
       <use style="stroke:#000000;stroke-width:0.8;" x="279.956534" xlink:href="#m9df4de2ece" y="228.14"/>
      </g>
     </g>
     <g id="text_7">
      <!-- 3.0 -->
      <defs>
       <path d="M 40.578125 39.3125 
Q 47.65625 37.796875 51.625 33 
Q 55.609375 28.21875 55.609375 21.1875 
Q 55.609375 10.40625 48.1875 4.484375 
Q 40.765625 -1.421875 27.09375 -1.421875 
Q 22.515625 -1.421875 17.65625 -0.515625 
Q 12.796875 0.390625 7.625 2.203125 
L 7.625 11.71875 
Q 11.71875 9.328125 16.59375 8.109375 
Q 21.484375 6.890625 26.8125 6.890625 
Q 36.078125 6.890625 40.9375 10.546875 
Q 45.796875 14.203125 45.796875 21.1875 
Q 45.796875 27.640625 41.28125 31.265625 
Q 36.765625 34.90625 28.71875 34.90625 
L 20.21875 34.90625 
L 20.21875 43.015625 
L 29.109375 43.015625 
Q 36.375 43.015625 40.234375 45.921875 
Q 44.09375 48.828125 44.09375 54.296875 
Q 44.09375 59.90625 40.109375 62.90625 
Q 36.140625 65.921875 28.71875 65.921875 
Q 24.65625 65.921875 20.015625 65.03125 
Q 15.375 64.15625 9.8125 62.3125 
L 9.8125 71.09375 
Q 15.4375 72.65625 20.34375 73.4375 
Q 25.25 74.21875 29.59375 74.21875 
Q 40.828125 74.21875 47.359375 69.109375 
Q 53.90625 64.015625 53.90625 55.328125 
Q 53.90625 49.265625 50.4375 45.09375 
Q 46.96875 40.921875 40.578125 39.3125 
z
" id="DejaVuSans-51"/>
      </defs>
      <g transform="translate(272.004972 242.738437)scale(0.1 -0.1)">
       <use xlink:href="#DejaVuSans-51"/>
       <use x="63.623047" xlink:href="#DejaVuSans-46"/>
       <use x="95.410156" xlink:href="#DejaVuSans-48"/>
      </g>
     </g>
    </g>
    <g id="xtick_8">
     <g id="line2d_15">
      <path clip-path="url(#p3ddd30354b)" d="M 318.001989 228.14 
L 318.001989 10.7 
" style="fill:none;stroke:#b0b0b0;stroke-linecap:square;stroke-width:0.8;"/>
     </g>
     <g id="line2d_16">
      <g>
       <use style="stroke:#000000;stroke-width:0.8;" x="318.001989" xlink:href="#m9df4de2ece" y="228.14"/>
      </g>
     </g>
     <g id="text_8">
      <!-- 3.5 -->
      <g transform="translate(310.050426 242.738437)scale(0.1 -0.1)">
       <use xlink:href="#DejaVuSans-51"/>
       <use x="63.623047" xlink:href="#DejaVuSans-46"/>
       <use x="95.410156" xlink:href="#DejaVuSans-53"/>
      </g>
     </g>
    </g>
    <g id="xtick_9">
     <g id="line2d_17">
      <path clip-path="url(#p3ddd30354b)" d="M 356.047443 228.14 
L 356.047443 10.7 
" style="fill:none;stroke:#b0b0b0;stroke-linecap:square;stroke-width:0.8;"/>
     </g>
     <g id="line2d_18">
      <g>
       <use style="stroke:#000000;stroke-width:0.8;" x="356.047443" xlink:href="#m9df4de2ece" y="228.14"/>
      </g>
     </g>
     <g id="text_9">
      <!-- 4.0 -->
      <defs>
       <path d="M 37.796875 64.3125 
L 12.890625 25.390625 
L 37.796875 25.390625 
z
M 35.203125 72.90625 
L 47.609375 72.90625 
L 47.609375 25.390625 
L 58.015625 25.390625 
L 58.015625 17.1875 
L 47.609375 17.1875 
L 47.609375 0 
L 37.796875 0 
L 37.796875 17.1875 
L 4.890625 17.1875 
L 4.890625 26.703125 
z
" id="DejaVuSans-52"/>
      </defs>
      <g transform="translate(348.095881 242.738437)scale(0.1 -0.1)">
       <use xlink:href="#DejaVuSans-52"/>
       <use x="63.623047" xlink:href="#DejaVuSans-46"/>
       <use x="95.410156" xlink:href="#DejaVuSans-48"/>
      </g>
     </g>
    </g>
   </g>
   <g id="matplotlib.axis_2">
    <g id="ytick_1">
     <g id="line2d_19">
      <path clip-path="url(#p3ddd30354b)" d="M 36.465625 218.256364 
L 371.265625 218.256364 
" style="fill:none;stroke:#b0b0b0;stroke-linecap:square;stroke-width:0.8;"/>
     </g>
     <g id="line2d_20">
      <defs>
       <path d="M 0 0 
L -3.5 0 
" id="mfa8bb33892" style="stroke:#000000;stroke-width:0.8;"/>
      </defs>
      <g>
       <use style="stroke:#000000;stroke-width:0.8;" x="36.465625" xlink:href="#mfa8bb33892" y="218.256364"/>
      </g>
     </g>
     <g id="text_10">
      <!-- 0.00 -->
      <g transform="translate(7.2 222.055582)scale(0.1 -0.1)">
       <use xlink:href="#DejaVuSans-48"/>
       <use x="63.623047" xlink:href="#DejaVuSans-46"/>
       <use x="95.410156" xlink:href="#DejaVuSans-48"/>
       <use x="159.033203" xlink:href="#DejaVuSans-48"/>
      </g>
     </g>
    </g>
    <g id="ytick_2">
     <g id="line2d_21">
      <path clip-path="url(#p3ddd30354b)" d="M 36.465625 193.547273 
L 371.265625 193.547273 
" style="fill:none;stroke:#b0b0b0;stroke-linecap:square;stroke-width:0.8;"/>
     </g>
     <g id="line2d_22">
      <g>
       <use style="stroke:#000000;stroke-width:0.8;" x="36.465625" xlink:href="#mfa8bb33892" y="193.547273"/>
      </g>
     </g>
     <g id="text_11">
      <!-- 0.25 -->
      <g transform="translate(7.2 197.346491)scale(0.1 -0.1)">
       <use xlink:href="#DejaVuSans-48"/>
       <use x="63.623047" xlink:href="#DejaVuSans-46"/>
       <use x="95.410156" xlink:href="#DejaVuSans-50"/>
       <use x="159.033203" xlink:href="#DejaVuSans-53"/>
      </g>
     </g>
    </g>
    <g id="ytick_3">
     <g id="line2d_23">
      <path clip-path="url(#p3ddd30354b)" d="M 36.465625 168.838182 
L 371.265625 168.838182 
" style="fill:none;stroke:#b0b0b0;stroke-linecap:square;stroke-width:0.8;"/>
     </g>
     <g id="line2d_24">
      <g>
       <use style="stroke:#000000;stroke-width:0.8;" x="36.465625" xlink:href="#mfa8bb33892" y="168.838182"/>
      </g>
     </g>
     <g id="text_12">
      <!-- 0.50 -->
      <g transform="translate(7.2 172.637401)scale(0.1 -0.1)">
       <use xlink:href="#DejaVuSans-48"/>
       <use x="63.623047" xlink:href="#DejaVuSans-46"/>
       <use x="95.410156" xlink:href="#DejaVuSans-53"/>
       <use x="159.033203" xlink:href="#DejaVuSans-48"/>
      </g>
     </g>
    </g>
    <g id="ytick_4">
     <g id="line2d_25">
      <path clip-path="url(#p3ddd30354b)" d="M 36.465625 144.129091 
L 371.265625 144.129091 
" style="fill:none;stroke:#b0b0b0;stroke-linecap:square;stroke-width:0.8;"/>
     </g>
     <g id="line2d_26">
      <g>
       <use style="stroke:#000000;stroke-width:0.8;" x="36.465625" xlink:href="#mfa8bb33892" y="144.129091"/>
      </g>
     </g>
     <g id="text_13">
      <!-- 0.75 -->
      <defs>
       <path d="M 8.203125 72.90625 
L 55.078125 72.90625 
L 55.078125 68.703125 
L 28.609375 0 
L 18.3125 0 
L 43.21875 64.59375 
L 8.203125 64.59375 
z
" id="DejaVuSans-55"/>
      </defs>
      <g transform="translate(7.2 147.92831)scale(0.1 -0.1)">
       <use xlink:href="#DejaVuSans-48"/>
       <use x="63.623047" xlink:href="#DejaVuSans-46"/>
       <use x="95.410156" xlink:href="#DejaVuSans-55"/>
       <use x="159.033203" xlink:href="#DejaVuSans-53"/>
      </g>
     </g>
    </g>
    <g id="ytick_5">
     <g id="line2d_27">
      <path clip-path="url(#p3ddd30354b)" d="M 36.465625 119.42 
L 371.265625 119.42 
" style="fill:none;stroke:#b0b0b0;stroke-linecap:square;stroke-width:0.8;"/>
     </g>
     <g id="line2d_28">
      <g>
       <use style="stroke:#000000;stroke-width:0.8;" x="36.465625" xlink:href="#mfa8bb33892" y="119.42"/>
      </g>
     </g>
     <g id="text_14">
      <!-- 1.00 -->
      <g transform="translate(7.2 123.219219)scale(0.1 -0.1)">
       <use xlink:href="#DejaVuSans-49"/>
       <use x="63.623047" xlink:href="#DejaVuSans-46"/>
       <use x="95.410156" xlink:href="#DejaVuSans-48"/>
       <use x="159.033203" xlink:href="#DejaVuSans-48"/>
      </g>
     </g>
    </g>
    <g id="ytick_6">
     <g id="line2d_29">
      <path clip-path="url(#p3ddd30354b)" d="M 36.465625 94.710909 
L 371.265625 94.710909 
" style="fill:none;stroke:#b0b0b0;stroke-linecap:square;stroke-width:0.8;"/>
     </g>
     <g id="line2d_30">
      <g>
       <use style="stroke:#000000;stroke-width:0.8;" x="36.465625" xlink:href="#mfa8bb33892" y="94.710909"/>
      </g>
     </g>
     <g id="text_15">
      <!-- 1.25 -->
      <g transform="translate(7.2 98.510128)scale(0.1 -0.1)">
       <use xlink:href="#DejaVuSans-49"/>
       <use x="63.623047" xlink:href="#DejaVuSans-46"/>
       <use x="95.410156" xlink:href="#DejaVuSans-50"/>
       <use x="159.033203" xlink:href="#DejaVuSans-53"/>
      </g>
     </g>
    </g>
    <g id="ytick_7">
     <g id="line2d_31">
      <path clip-path="url(#p3ddd30354b)" d="M 36.465625 70.001818 
L 371.265625 70.001818 
" style="fill:none;stroke:#b0b0b0;stroke-linecap:square;stroke-width:0.8;"/>
     </g>
     <g id="line2d_32">
      <g>
       <use style="stroke:#000000;stroke-width:0.8;" x="36.465625" xlink:href="#mfa8bb33892" y="70.001818"/>
      </g>
     </g>
     <g id="text_16">
      <!-- 1.50 -->
      <g transform="translate(7.2 73.801037)scale(0.1 -0.1)">
       <use xlink:href="#DejaVuSans-49"/>
       <use x="63.623047" xlink:href="#DejaVuSans-46"/>
       <use x="95.410156" xlink:href="#DejaVuSans-53"/>
       <use x="159.033203" xlink:href="#DejaVuSans-48"/>
      </g>
     </g>
    </g>
    <g id="ytick_8">
     <g id="line2d_33">
      <path clip-path="url(#p3ddd30354b)" d="M 36.465625 45.292727 
L 371.265625 45.292727 
" style="fill:none;stroke:#b0b0b0;stroke-linecap:square;stroke-width:0.8;"/>
     </g>
     <g id="line2d_34">
      <g>
       <use style="stroke:#000000;stroke-width:0.8;" x="36.465625" xlink:href="#mfa8bb33892" y="45.292727"/>
      </g>
     </g>
     <g id="text_17">
      <!-- 1.75 -->
      <g transform="translate(7.2 49.091946)scale(0.1 -0.1)">
       <use xlink:href="#DejaVuSans-49"/>
       <use x="63.623047" xlink:href="#DejaVuSans-46"/>
       <use x="95.410156" xlink:href="#DejaVuSans-55"/>
       <use x="159.033203" xlink:href="#DejaVuSans-53"/>
      </g>
     </g>
    </g>
    <g id="ytick_9">
     <g id="line2d_35">
      <path clip-path="url(#p3ddd30354b)" d="M 36.465625 20.583636 
L 371.265625 20.583636 
" style="fill:none;stroke:#b0b0b0;stroke-linecap:square;stroke-width:0.8;"/>
     </g>
     <g id="line2d_36">
      <g>
       <use style="stroke:#000000;stroke-width:0.8;" x="36.465625" xlink:href="#mfa8bb33892" y="20.583636"/>
      </g>
     </g>
     <g id="text_18">
      <!-- 2.00 -->
      <g transform="translate(7.2 24.382855)scale(0.1 -0.1)">
       <use xlink:href="#DejaVuSans-50"/>
       <use x="63.623047" xlink:href="#DejaVuSans-46"/>
       <use x="95.410156" xlink:href="#DejaVuSans-48"/>
       <use x="159.033203" xlink:href="#DejaVuSans-48"/>
      </g>
     </g>
    </g>
   </g>
   <g id="line2d_37">
    <path clip-path="url(#p3ddd30354b)" d="M 51.683807 20.583636 
L 54.758187 35.928833 
L 57.832567 50.082792 
L 60.906947 63.13799 
L 63.981327 75.179721 
L 67.055708 86.286662 
L 70.130088 96.531378 
L 73.204468 105.980804 
L 76.278848 114.696678 
L 79.353228 122.735944 
L 82.427608 130.151128 
L 85.501989 136.990676 
L 88.576369 143.299275 
L 91.650749 149.118142 
L 94.725129 154.485294 
L 97.799509 159.435797 
L 100.873889 164.001997 
L 103.94827 168.213726 
L 107.02265 172.098501 
L 110.09703 175.681704 
L 113.17141 178.986745 
L 116.24579 182.035218 
L 119.32017 184.847041 
L 122.394551 187.440583 
L 125.468931 189.832791 
L 128.543311 192.039293 
L 131.617691 194.074506 
L 134.692071 195.951727 
L 137.766451 197.68322 
L 140.840832 199.280299 
L 143.915212 200.753398 
L 146.989592 202.112141 
L 150.063972 203.365406 
L 153.138352 204.52138 
L 156.212732 205.587618 
L 159.287113 206.571083 
L 162.361493 207.478204 
L 165.435873 208.314905 
L 168.510253 209.086653 
L 171.584633 209.798492 
L 174.659013 210.45507 
L 177.733394 211.060679 
L 180.807774 211.619275 
L 183.882154 212.134508 
L 186.956534 212.609743 
L 190.030914 213.048086 
L 193.105294 213.452401 
L 196.179675 213.82533 
L 199.254055 214.169308 
L 202.328435 214.486583 
L 205.402815 214.779228 
L 208.477195 215.049156 
L 211.551575 215.298129 
L 214.625956 215.527775 
L 217.700336 215.739593 
L 220.774716 215.934969 
L 223.849096 216.115177 
L 226.923476 216.281396 
L 229.997856 216.434711 
L 233.072237 216.576125 
L 236.146617 216.70656 
L 239.220997 216.826871 
L 242.295377 216.937841 
L 245.369757 217.040197 
L 248.444137 217.134607 
L 251.518518 217.221688 
L 254.592898 217.30201 
L 257.667278 217.376095 
L 260.741658 217.44443 
L 263.816038 217.50746 
L 266.890418 217.565597 
L 269.964799 217.619221 
L 273.039179 217.668681 
L 276.113559 217.714303 
L 279.187939 217.756383 
L 282.262319 217.795196 
L 285.336699 217.830996 
L 288.41108 217.864017 
L 291.48546 217.894475 
L 294.55984 217.922568 
L 297.63422 217.94848 
L 300.7086 217.972381 
L 303.78298 217.994426 
L 306.857361 218.01476 
L 309.931741 218.033516 
L 313.006121 218.050815 
L 316.080501 218.066772 
L 319.154881 218.08149 
L 322.229261 218.095065 
L 325.303642 218.107587 
L 328.378022 218.119136 
L 331.452402 218.129789 
L 334.526782 218.139615 
L 337.601162 218.148678 
L 340.675542 218.157038 
L 343.749923 218.164748 
L 346.824303 218.17186 
L 349.898683 218.17842 
L 352.973063 218.184471 
L 356.047443 218.190052 
" style="fill:none;stroke:#1f77b4;stroke-linecap:square;stroke-width:1.5;"/>
   </g>
   <g id="line2d_38">
    <path clip-path="url(#p3ddd30354b)" d="M 51.683807 218.256364 
L 54.758187 195.695618 
L 57.832567 177.46997 
L 60.906947 162.954669 
L 63.981327 151.604999 
L 67.055708 142.946662 
L 70.130088 136.567276 
L 73.204468 132.108858 
L 76.278848 129.261176 
L 79.353228 127.755877 
L 82.427608 127.361304 
L 85.501989 127.877925 
L 88.576369 129.134294 
L 91.650749 130.983497 
L 94.725129 133.300023 
L 97.799509 135.977007 
L 100.873889 138.923801 
L 103.94827 142.063852 
L 107.02265 145.332823 
L 110.09703 148.676958 
L 113.17141 152.05164 
L 116.24579 155.42013 
L 119.32017 158.752467 
L 122.394551 162.024506 
L 125.468931 165.217073 
L 128.543311 168.315236 
L 131.617691 171.307666 
L 134.692071 174.186081 
L 137.766451 176.944767 
L 140.840832 179.580162 
L 143.915212 182.090491 
L 146.989592 184.475461 
L 150.063972 186.735986 
L 153.138352 188.873965 
L 156.212732 190.89208 
L 159.287113 192.793627 
L 162.361493 194.582376 
L 165.435873 196.26245 
L 168.510253 197.83822 
L 171.584633 199.31422 
L 174.659013 200.695075 
L 177.733394 201.985443 
L 180.807774 203.189966 
L 183.882154 204.313228 
L 186.956534 205.359724 
L 190.030914 206.333838 
L 193.105294 207.239818 
L 196.179675 208.081764 
L 199.254055 208.863617 
L 202.328435 209.589154 
L 205.402815 210.261978 
L 208.477195 210.885521 
L 211.551575 211.463042 
L 214.625956 211.997628 
L 217.700336 212.492199 
L 220.774716 212.94951 
L 223.849096 213.372153 
L 226.923476 213.762571 
L 229.997856 214.123053 
L 233.072237 214.455748 
L 236.146617 214.762668 
L 239.220997 215.045695 
L 242.295377 215.306586 
L 245.369757 215.546983 
L 248.444137 215.768416 
L 251.518518 215.972309 
L 254.592898 216.159989 
L 257.667278 216.332689 
L 260.741658 216.491555 
L 263.816038 216.637651 
L 266.890418 216.771965 
L 269.964799 216.895412 
L 273.039179 217.00884 
L 276.113559 217.113035 
L 279.187939 217.208725 
L 282.262319 217.29658 
L 285.336699 217.377225 
L 288.41108 217.451233 
L 291.48546 217.519135 
L 294.55984 217.581422 
L 297.63422 217.638545 
L 300.7086 217.690922 
L 303.78298 217.738937 
L 306.857361 217.782945 
L 309.931741 217.823274 
L 313.006121 217.860223 
L 316.080501 217.89407 
L 319.154881 217.92507 
L 322.229261 217.953457 
L 325.303642 217.979448 
L 328.378022 218.00324 
L 331.452402 218.025017 
L 334.526782 218.044946 
L 337.601162 218.063181 
L 340.675542 218.079863 
L 343.749923 218.095124 
L 346.824303 218.109081 
L 349.898683 218.121844 
L 352.973063 218.133515 
L 356.047443 218.144185 
" style="fill:none;stroke:#ff7f0e;stroke-linecap:square;stroke-width:1.5;"/>
   </g>
   <g id="line2d_39">
    <path clip-path="url(#p3ddd30354b)" d="M 51.683807 218.256364 
L 54.758187 212.127058 
L 57.832567 197.815058 
L 60.906947 179.909618 
L 63.981327 161.417767 
L 67.055708 144.210511 
L 70.130088 129.356601 
L 73.204468 117.370214 
L 76.278848 108.393021 
L 79.353228 102.326528 
L 82.427608 98.926933 
L 85.501989 97.871938 
L 88.576369 98.806738 
L 91.650749 101.374703 
L 94.725129 105.236935 
L 97.799509 110.08385 
L 100.873889 115.641155 
L 103.94827 121.671965 
L 107.02265 127.976372 
L 110.09703 134.389371 
L 113.17141 140.777859 
L 116.24579 147.037147 
L 119.32017 153.087322 
L 122.394551 158.869689 
L 125.468931 164.343402 
L 128.543311 169.482396 
L 131.617691 174.272626 
L 134.692071 178.709656 
L 137.766451 182.796568 
L 140.840832 186.54218 
L 143.915212 189.959558 
L 146.989592 193.064769 
L 150.063972 195.875873 
L 153.138352 198.412105 
L 156.212732 200.693222 
L 159.287113 202.739004 
L 162.361493 204.568864 
L 165.435873 206.201566 
L 168.510253 207.655017 
L 171.584633 208.946133 
L 174.659013 210.090755 
L 177.733394 211.103604 
L 180.807774 211.998272 
L 183.882154 212.787242 
L 186.956534 213.481913 
L 190.030914 214.092654 
L 193.105294 214.628855 
L 196.179675 215.098991 
L 199.254055 215.510683 
L 202.328435 215.870767 
L 205.402815 216.185353 
L 208.477195 216.459894 
L 211.551575 216.699238 
L 214.625956 216.907692 
L 217.700336 217.089072 
L 220.774716 217.246752 
L 223.849096 217.383709 
L 226.923476 217.502568 
L 229.997856 217.605639 
L 233.072237 217.694951 
L 236.146617 217.772282 
L 239.220997 217.839194 
L 242.295377 217.89705 
L 245.369757 217.947043 
L 248.444137 217.990214 
L 251.518518 218.027472 
L 254.592898 218.059608 
L 257.667278 218.087309 
L 260.741658 218.111175 
L 263.816038 218.131726 
L 266.890418 218.149412 
L 269.964799 218.164627 
L 273.039179 218.177708 
L 276.113559 218.18895 
L 279.187939 218.198607 
L 282.262319 218.206899 
L 285.336699 218.214015 
L 288.41108 218.22012 
L 291.48546 218.225355 
L 294.55984 218.229843 
L 297.63422 218.233689 
L 300.7086 218.236983 
L 303.78298 218.239803 
L 306.857361 218.242218 
L 309.931741 218.244284 
L 313.006121 218.246051 
L 316.080501 218.247562 
L 319.154881 218.248853 
L 322.229261 218.249957 
L 325.303642 218.2509 
L 328.378022 218.251705 
L 331.452402 218.252393 
L 334.526782 218.25298 
L 337.601162 218.253481 
L 340.675542 218.253908 
L 343.749923 218.254273 
L 346.824303 218.254583 
L 349.898683 218.254848 
L 352.973063 218.255074 
L 356.047443 218.255266 
" style="fill:none;stroke:#2ca02c;stroke-linecap:square;stroke-width:1.5;"/>
   </g>
   <g id="line2d_40">
    <path clip-path="url(#p3ddd30354b)" d="M 51.683807 218.256364 
L 54.758187 218.256364 
L 57.832567 218.256358 
L 60.906947 218.256242 
L 63.981327 218.25537 
L 67.055708 218.251526 
L 70.130088 218.239369 
L 73.204468 218.208704 
L 76.278848 218.143031 
L 79.353228 218.018768 
L 82.427608 217.805379 
L 85.501989 217.466472 
L 88.576369 216.961752 
L 91.650749 216.249582 
L 94.725129 215.289884 
L 97.799509 214.047054 
L 100.873889 212.492624 
L 103.94827 210.607452 
L 107.02265 208.383298 
L 110.09703 205.82369 
L 113.17141 202.944099 
L 116.24579 199.771444 
L 119.32017 196.343033 
L 122.394551 192.705041 
L 125.468931 188.910671 
L 128.543311 185.018107 
L 131.617691 181.088406 
L 134.692071 177.183426 
L 137.766451 173.363878 
L 140.840832 169.687592 
L 143.915212 166.20802 
L 146.989592 162.973037 
L 150.063972 160.024031 
L 153.138352 157.395288 
L 156.212732 155.113659 
L 159.287113 153.198479 
L 162.361493 151.661715 
L 165.435873 150.508304 
L 168.510253 149.736644 
L 171.584633 149.339199 
L 174.659013 149.303196 
L 177.733394 149.611368 
L 180.807774 150.242712 
L 183.882154 151.173259 
L 186.956534 152.376807 
L 190.030914 153.825626 
L 193.105294 155.491095 
L 196.179675 157.344296 
L 199.254055 159.356523 
L 202.328435 161.499734 
L 205.402815 163.746922 
L 208.477195 166.072426 
L 211.551575 168.452168 
L 214.625956 170.863835 
L 217.700336 173.287 
L 220.774716 175.703193 
L 223.849096 178.095933 
L 226.923476 180.450712 
L 229.997856 182.754956 
L 233.072237 184.997955 
L 236.146617 187.170774 
L 239.220997 189.266142 
L 242.295377 191.278341 
L 245.369757 193.203076 
L 248.444137 195.037345 
L 251.518518 196.779312 
L 254.592898 198.428175 
L 257.667278 199.984043 
L 260.741658 201.44781 
L 263.816038 202.821048 
L 266.890418 204.105894 
L 269.964799 205.304954 
L 273.039179 206.421208 
L 276.113559 207.457933 
L 279.187939 208.418626 
L 282.262319 209.306935 
L 285.336699 210.126604 
L 288.41108 210.881423 
L 291.48546 211.575182 
L 294.55984 212.211633 
L 297.63422 212.794463 
L 300.7086 213.327261 
L 303.78298 213.813508 
L 306.857361 214.256549 
L 309.931741 214.659589 
L 313.006121 215.025683 
L 316.080501 215.357726 
L 319.154881 215.658453 
L 322.229261 215.930441 
L 325.303642 216.176103 
L 328.378022 216.397697 
L 331.452402 216.597326 
L 334.526782 216.776944 
L 337.601162 216.938361 
L 340.675542 217.083253 
L 343.749923 217.21316 
L 346.824303 217.329505 
L 349.898683 217.433588 
L 352.973063 217.526604 
L 356.047443 217.609643 
" style="fill:none;stroke:#d62728;stroke-linecap:square;stroke-width:1.5;"/>
   </g>
   <g id="patch_3">
    <path d="M 36.465625 228.14 
L 36.465625 10.7 
" style="fill:none;stroke:#000000;stroke-linecap:square;stroke-linejoin:miter;stroke-width:0.8;"/>
   </g>
   <g id="patch_4">
    <path d="M 371.265625 228.14 
L 371.265625 10.7 
" style="fill:none;stroke:#000000;stroke-linecap:square;stroke-linejoin:miter;stroke-width:0.8;"/>
   </g>
   <g id="patch_5">
    <path d="M 36.465625 228.14 
L 371.265625 228.14 
" style="fill:none;stroke:#000000;stroke-linecap:square;stroke-linejoin:miter;stroke-width:0.8;"/>
   </g>
   <g id="patch_6">
    <path d="M 36.465625 10.7 
L 371.265625 10.7 
" style="fill:none;stroke:#000000;stroke-linecap:square;stroke-linejoin:miter;stroke-width:0.8;"/>
   </g>
   <g id="legend_1">
    <g id="patch_7">
     <path d="M 257.765625 77.9 
L 364.265625 77.9 
Q 366.265625 77.9 366.265625 75.9 
L 366.265625 17.7 
Q 366.265625 15.7 364.265625 15.7 
L 257.765625 15.7 
Q 255.765625 15.7 255.765625 17.7 
L 255.765625 75.9 
Q 255.765625 77.9 257.765625 77.9 
z
" style="fill:#ffffff;opacity:0.8;stroke:#cccccc;stroke-linejoin:miter;"/>
    </g>
    <g id="line2d_41">
     <path d="M 259.765625 23.9 
L 279.765625 23.9 
" style="fill:none;stroke:#1f77b4;stroke-linecap:square;stroke-width:1.5;"/>
    </g>
    <g id="line2d_42"/>
    <g id="text_19">
     <!-- $\alpha = 1.0, \beta = 2.0$ -->
     <defs>
      <path d="M 40.921875 25.4375 
L 40.96875 36.71875 
Q 41.015625 48.25 32.328125 48.296875 
Q 25.828125 48.34375 21.78125 42.921875 
Q 16.703125 36.234375 14.984375 27.296875 
Q 12.890625 16.546875 15.53125 11.421875 
Q 18.265625 6.203125 24.171875 6.203125 
Q 30.71875 6.203125 36.234375 16.609375 
z
M 33.84375 55.90625 
Q 49.078125 56.15625 48.875 40.375 
Q 48.875 40.375 56.5 54.6875 
L 64.5 54.6875 
L 48.734375 25.046875 
L 48.578125 14.359375 
Q 48.578125 11.96875 49.90625 9.96875 
Q 51.421875 7.625 52.984375 7.625 
L 57.328125 7.625 
L 55.859375 0 
L 50.4375 0 
Q 45.84375 0 42.53125 4.109375 
Q 40.96875 6.15625 40.921875 10.453125 
Q 37.75 5.21875 32.28125 0.78125 
Q 29.6875 -1.265625 22.703125 -1.21875 
Q 11.28125 -1.125 7.125 6.203125 
Q 2.875 13.8125 5.515625 27.296875 
Q 8.34375 41.796875 15.765625 48.390625 
Q 24.125 55.765625 33.84375 55.90625 
z
" id="DejaVuSans-Oblique-945"/>
      <path d="M 10.59375 45.40625 
L 73.1875 45.40625 
L 73.1875 37.203125 
L 10.59375 37.203125 
z
M 10.59375 25.484375 
L 73.1875 25.484375 
L 73.1875 17.1875 
L 10.59375 17.1875 
z
" id="DejaVuSans-61"/>
      <path d="M 11.71875 12.40625 
L 22.015625 12.40625 
L 22.015625 4 
L 14.015625 -11.625 
L 7.71875 -11.625 
L 11.71875 4 
z
" id="DejaVuSans-44"/>
      <path d="M 13.625 3.375 
L 8.9375 -20.796875 
L -0.09375 -20.796875 
L 14.5 54.34375 
Q 18.84375 76.609375 39.65625 76.609375 
Q 60.75 76.609375 57.171875 57.8125 
Q 54.734375 44.4375 45.21875 39.546875 
Q 58.015625 35.15625 55.515625 22.125 
Q 51.125 -1.078125 27.484375 -1.03125 
Q 17.140625 -0.984375 13.625 3.375 
z
M 15.921875 15.09375 
Q 19.671875 6.59375 29.296875 6.640625 
Q 43.359375 6.640625 46.34375 21.96875 
Q 49.03125 35.75 26.171875 34.671875 
L 27.78125 42.96875 
Q 45.453125 42.671875 48.53125 58.59375 
Q 50.640625 69.34375 39.203125 69.28125 
Q 26.421875 69.28125 23.484375 54.046875 
z
" id="DejaVuSans-Oblique-946"/>
     </defs>
     <g transform="translate(287.765625 27.4)scale(0.1 -0.1)">
      <use transform="translate(0 0.390625)" xlink:href="#DejaVuSans-Oblique-945"/>
      <use transform="translate(85.400391 0.390625)" xlink:href="#DejaVuSans-61"/>
      <use transform="translate(188.671875 0.390625)" xlink:href="#DejaVuSans-49"/>
      <use transform="translate(252.294922 0.390625)" xlink:href="#DejaVuSans-46"/>
      <use transform="translate(284.082031 0.390625)" xlink:href="#DejaVuSans-48"/>
      <use transform="translate(347.705078 0.390625)" xlink:href="#DejaVuSans-44"/>
      <use transform="translate(398.974609 0.390625)" xlink:href="#DejaVuSans-Oblique-946"/>
      <use transform="translate(482.275391 0.390625)" xlink:href="#DejaVuSans-61"/>
      <use transform="translate(585.546875 0.390625)" xlink:href="#DejaVuSans-50"/>
      <use transform="translate(649.169922 0.390625)" xlink:href="#DejaVuSans-46"/>
      <use transform="translate(680.957031 0.390625)" xlink:href="#DejaVuSans-48"/>
     </g>
    </g>
    <g id="line2d_43">
     <path d="M 259.765625 38.7 
L 279.765625 38.7 
" style="fill:none;stroke:#ff7f0e;stroke-linecap:square;stroke-width:1.5;"/>
    </g>
    <g id="line2d_44"/>
    <g id="text_20">
     <!-- $\alpha = 2.0, \beta = 2.5$ -->
     <g transform="translate(287.765625 42.2)scale(0.1 -0.1)">
      <use transform="translate(0 0.390625)" xlink:href="#DejaVuSans-Oblique-945"/>
      <use transform="translate(85.400391 0.390625)" xlink:href="#DejaVuSans-61"/>
      <use transform="translate(188.671875 0.390625)" xlink:href="#DejaVuSans-50"/>
      <use transform="translate(252.294922 0.390625)" xlink:href="#DejaVuSans-46"/>
      <use transform="translate(284.082031 0.390625)" xlink:href="#DejaVuSans-48"/>
      <use transform="translate(347.705078 0.390625)" xlink:href="#DejaVuSans-44"/>
      <use transform="translate(398.974609 0.390625)" xlink:href="#DejaVuSans-Oblique-946"/>
      <use transform="translate(482.275391 0.390625)" xlink:href="#DejaVuSans-61"/>
      <use transform="translate(585.546875 0.390625)" xlink:href="#DejaVuSans-50"/>
      <use transform="translate(649.169922 0.390625)" xlink:href="#DejaVuSans-46"/>
      <use transform="translate(680.957031 0.390625)" xlink:href="#DejaVuSans-53"/>
     </g>
    </g>
    <g id="line2d_45">
     <path d="M 259.765625 53.5 
L 279.765625 53.5 
" style="fill:none;stroke:#2ca02c;stroke-linecap:square;stroke-width:1.5;"/>
    </g>
    <g id="line2d_46"/>
    <g id="text_21">
     <!-- $\alpha = 3.0, \beta = 4.5$ -->
     <g transform="translate(287.765625 57)scale(0.1 -0.1)">
      <use transform="translate(0 0.390625)" xlink:href="#DejaVuSans-Oblique-945"/>
      <use transform="translate(85.400391 0.390625)" xlink:href="#DejaVuSans-61"/>
      <use transform="translate(188.671875 0.390625)" xlink:href="#DejaVuSans-51"/>
      <use transform="translate(252.294922 0.390625)" xlink:href="#DejaVuSans-46"/>
      <use transform="translate(284.082031 0.390625)" xlink:href="#DejaVuSans-48"/>
      <use transform="translate(347.705078 0.390625)" xlink:href="#DejaVuSans-44"/>
      <use transform="translate(398.974609 0.390625)" xlink:href="#DejaVuSans-Oblique-946"/>
      <use transform="translate(482.275391 0.390625)" xlink:href="#DejaVuSans-61"/>
      <use transform="translate(585.546875 0.390625)" xlink:href="#DejaVuSans-52"/>
      <use transform="translate(649.169922 0.390625)" xlink:href="#DejaVuSans-46"/>
      <use transform="translate(680.957031 0.390625)" xlink:href="#DejaVuSans-53"/>
     </g>
    </g>
    <g id="line2d_47">
     <path d="M 259.765625 68.3 
L 279.765625 68.3 
" style="fill:none;stroke:#d62728;stroke-linecap:square;stroke-width:1.5;"/>
    </g>
    <g id="line2d_48"/>
    <g id="text_22">
     <!-- $\alpha = 9.0, \beta = 5$ -->
     <defs>
      <path d="M 10.984375 1.515625 
L 10.984375 10.5 
Q 14.703125 8.734375 18.5 7.8125 
Q 22.3125 6.890625 25.984375 6.890625 
Q 35.75 6.890625 40.890625 13.453125 
Q 46.046875 20.015625 46.78125 33.40625 
Q 43.953125 29.203125 39.59375 26.953125 
Q 35.25 24.703125 29.984375 24.703125 
Q 19.046875 24.703125 12.671875 31.3125 
Q 6.296875 37.9375 6.296875 49.421875 
Q 6.296875 60.640625 12.9375 67.421875 
Q 19.578125 74.21875 30.609375 74.21875 
Q 43.265625 74.21875 49.921875 64.515625 
Q 56.59375 54.828125 56.59375 36.375 
Q 56.59375 19.140625 48.40625 8.859375 
Q 40.234375 -1.421875 26.421875 -1.421875 
Q 22.703125 -1.421875 18.890625 -0.6875 
Q 15.09375 0.046875 10.984375 1.515625 
z
M 30.609375 32.421875 
Q 37.25 32.421875 41.125 36.953125 
Q 45.015625 41.5 45.015625 49.421875 
Q 45.015625 57.28125 41.125 61.84375 
Q 37.25 66.40625 30.609375 66.40625 
Q 23.96875 66.40625 20.09375 61.84375 
Q 16.21875 57.28125 16.21875 49.421875 
Q 16.21875 41.5 20.09375 36.953125 
Q 23.96875 32.421875 30.609375 32.421875 
z
" id="DejaVuSans-57"/>
     </defs>
     <g transform="translate(287.765625 71.8)scale(0.1 -0.1)">
      <use transform="translate(0 0.390625)" xlink:href="#DejaVuSans-Oblique-945"/>
      <use transform="translate(85.400391 0.390625)" xlink:href="#DejaVuSans-61"/>
      <use transform="translate(188.671875 0.390625)" xlink:href="#DejaVuSans-57"/>
      <use transform="translate(252.294922 0.390625)" xlink:href="#DejaVuSans-46"/>
      <use transform="translate(284.082031 0.390625)" xlink:href="#DejaVuSans-48"/>
      <use transform="translate(347.705078 0.390625)" xlink:href="#DejaVuSans-44"/>
      <use transform="translate(398.974609 0.390625)" xlink:href="#DejaVuSans-Oblique-946"/>
      <use transform="translate(482.275391 0.390625)" xlink:href="#DejaVuSans-61"/>
      <use transform="translate(585.546875 0.390625)" xlink:href="#DejaVuSans-53"/>
     </g>
    </g>
   </g>
  </g>
 </g>
 <defs>
  <clipPath id="p3ddd30354b">
   <rect height="217.44" width="334.8" x="36.465625" y="10.7"/>
  </clipPath>
 </defs>
</svg>
