<?xml version="1.0" encoding="utf-8" standalone="no"?>
<!DOCTYPE svg PUBLIC "-//W3C//DTD SVG 1.1//EN"
  "http://www.w3.org/Graphics/SVG/1.1/DTD/svg11.dtd">
<!-- Created with matplotlib (https://matplotlib.org/) -->
<svg height="252.018125pt" version="1.1" viewBox="0 0 392.782813 252.018125" width="392.782813pt" xmlns="http://www.w3.org/2000/svg" xmlns:xlink="http://www.w3.org/1999/xlink">
 <defs>
  <style type="text/css">
*{stroke-linecap:butt;stroke-linejoin:round;}
  </style>
 </defs>
 <g id="figure_1">
  <g id="patch_1">
   <path d="M -0 252.018125 
L 392.782813 252.018125 
L 392.782813 0 
L -0 0 
z
" style="fill:none;"/>
  </g>
  <g id="axes_1">
   <g id="patch_2">
    <path d="M 39.65 228.14 
L 374.45 228.14 
L 374.45 10.7 
L 39.65 10.7 
z
" style="fill:#ffffff;"/>
   </g>
   <g id="patch_3">
    <path clip-path="url(#pa24b24250d)" d="M -289.475198 228.14 
L -278.294309 228.14 
L -278.294309 228.05357 
L -289.475198 228.05357 
z
" style="fill:#1f77b4;"/>
   </g>
   <g id="patch_4">
    <path clip-path="url(#pa24b24250d)" d="M -278.294309 228.14 
L -267.11342 228.14 
L -267.11342 228.14 
L -278.294309 228.14 
z
" style="fill:#1f77b4;"/>
   </g>
   <g id="patch_5">
    <path clip-path="url(#pa24b24250d)" d="M -267.11342 228.14 
L -255.932531 228.14 
L -255.932531 228.14 
L -267.11342 228.14 
z
" style="fill:#1f77b4;"/>
   </g>
   <g id="patch_6">
    <path clip-path="url(#pa24b24250d)" d="M -255.932531 228.14 
L -244.751641 228.14 
L -244.751641 228.14 
L -255.932531 228.14 
z
" style="fill:#1f77b4;"/>
   </g>
   <g id="patch_7">
    <path clip-path="url(#pa24b24250d)" d="M -244.751641 228.14 
L -233.570752 228.14 
L -233.570752 228.14 
L -244.751641 228.14 
z
" style="fill:#1f77b4;"/>
   </g>
   <g id="patch_8">
    <path clip-path="url(#pa24b24250d)" d="M -233.570752 228.14 
L -222.389863 228.14 
L -222.389863 228.14 
L -233.570752 228.14 
z
" style="fill:#1f77b4;"/>
   </g>
   <g id="patch_9">
    <path clip-path="url(#pa24b24250d)" d="M -222.389863 228.14 
L -211.208974 228.14 
L -211.208974 228.14 
L -222.389863 228.14 
z
" style="fill:#1f77b4;"/>
   </g>
   <g id="patch_10">
    <path clip-path="url(#pa24b24250d)" d="M -211.208974 228.14 
L -200.028085 228.14 
L -200.028085 228.14 
L -211.208974 228.14 
z
" style="fill:#1f77b4;"/>
   </g>
   <g id="patch_11">
    <path clip-path="url(#pa24b24250d)" d="M -200.028085 228.14 
L -188.847196 228.14 
L -188.847196 228.14 
L -200.028085 228.14 
z
" style="fill:#1f77b4;"/>
   </g>
   <g id="patch_12">
    <path clip-path="url(#pa24b24250d)" d="M -188.847196 228.14 
L -177.666307 228.14 
L -177.666307 228.14 
L -188.847196 228.14 
z
" style="fill:#1f77b4;"/>
   </g>
   <g id="patch_13">
    <path clip-path="url(#pa24b24250d)" d="M -177.666307 228.14 
L -166.485418 228.14 
L -166.485418 228.05357 
L -177.666307 228.05357 
z
" style="fill:#1f77b4;"/>
   </g>
   <g id="patch_14">
    <path clip-path="url(#pa24b24250d)" d="M -166.485418 228.14 
L -155.304529 228.14 
L -155.304529 228.14 
L -166.485418 228.14 
z
" style="fill:#1f77b4;"/>
   </g>
   <g id="patch_15">
    <path clip-path="url(#pa24b24250d)" d="M -155.304529 228.14 
L -144.12364 228.14 
L -144.12364 228.14 
L -155.304529 228.14 
z
" style="fill:#1f77b4;"/>
   </g>
   <g id="patch_16">
    <path clip-path="url(#pa24b24250d)" d="M -144.12364 228.14 
L -132.942751 228.14 
L -132.942751 228.14 
L -144.12364 228.14 
z
" style="fill:#1f77b4;"/>
   </g>
   <g id="patch_17">
    <path clip-path="url(#pa24b24250d)" d="M -132.942751 228.14 
L -121.761862 228.14 
L -121.761862 228.14 
L -132.942751 228.14 
z
" style="fill:#1f77b4;"/>
   </g>
   <g id="patch_18">
    <path clip-path="url(#pa24b24250d)" d="M -121.761862 228.14 
L -110.580973 228.14 
L -110.580973 228.05357 
L -121.761862 228.05357 
z
" style="fill:#1f77b4;"/>
   </g>
   <g id="patch_19">
    <path clip-path="url(#pa24b24250d)" d="M -110.580973 228.14 
L -99.400084 228.14 
L -99.400084 228.14 
L -110.580973 228.14 
z
" style="fill:#1f77b4;"/>
   </g>
   <g id="patch_20">
    <path clip-path="url(#pa24b24250d)" d="M -99.400084 228.14 
L -88.219195 228.14 
L -88.219195 228.14 
L -99.400084 228.14 
z
" style="fill:#1f77b4;"/>
   </g>
   <g id="patch_21">
    <path clip-path="url(#pa24b24250d)" d="M -88.219195 228.14 
L -77.038306 228.14 
L -77.038306 228.14 
L -88.219195 228.14 
z
" style="fill:#1f77b4;"/>
   </g>
   <g id="patch_22">
    <path clip-path="url(#pa24b24250d)" d="M -77.038306 228.14 
L -65.857417 228.14 
L -65.857417 228.14 
L -77.038306 228.14 
z
" style="fill:#1f77b4;"/>
   </g>
   <g id="patch_23">
    <path clip-path="url(#pa24b24250d)" d="M -65.857417 228.14 
L -54.676528 228.14 
L -54.676528 228.14 
L -65.857417 228.14 
z
" style="fill:#1f77b4;"/>
   </g>
   <g id="patch_24">
    <path clip-path="url(#pa24b24250d)" d="M -54.676528 228.14 
L -43.495639 228.14 
L -43.495639 228.05357 
L -54.676528 228.05357 
z
" style="fill:#1f77b4;"/>
   </g>
   <g id="patch_25">
    <path clip-path="url(#pa24b24250d)" d="M -43.495639 228.14 
L -32.31475 228.14 
L -32.31475 228.14 
L -43.495639 228.14 
z
" style="fill:#1f77b4;"/>
   </g>
   <g id="patch_26">
    <path clip-path="url(#pa24b24250d)" d="M -32.31475 228.14 
L -21.133861 228.14 
L -21.133861 228.05357 
L -32.31475 228.05357 
z
" style="fill:#1f77b4;"/>
   </g>
   <g id="patch_27">
    <path clip-path="url(#pa24b24250d)" d="M -21.133861 228.14 
L -9.952972 228.14 
L -9.952972 228.14 
L -21.133861 228.14 
z
" style="fill:#1f77b4;"/>
   </g>
   <g id="patch_28">
    <path clip-path="url(#pa24b24250d)" d="M -9.952972 228.14 
L 1.227917 228.14 
L 1.227917 228.14 
L -9.952972 228.14 
z
" style="fill:#1f77b4;"/>
   </g>
   <g id="patch_29">
    <path clip-path="url(#pa24b24250d)" d="M 1.227917 228.14 
L 12.408806 228.14 
L 12.408806 228.14 
L 1.227917 228.14 
z
" style="fill:#1f77b4;"/>
   </g>
   <g id="patch_30">
    <path clip-path="url(#pa24b24250d)" d="M 12.408806 228.14 
L 23.589695 228.14 
L 23.589695 228.05357 
L 12.408806 228.05357 
z
" style="fill:#1f77b4;"/>
   </g>
   <g id="patch_31">
    <path clip-path="url(#pa24b24250d)" d="M 23.589695 228.14 
L 34.770584 228.14 
L 34.770584 228.05357 
L 23.589695 228.05357 
z
" style="fill:#1f77b4;"/>
   </g>
   <g id="patch_32">
    <path clip-path="url(#pa24b24250d)" d="M 34.770584 228.14 
L 45.951473 228.14 
L 45.951473 227.794281 
L 34.770584 227.794281 
z
" style="fill:#1f77b4;"/>
   </g>
   <g id="patch_33">
    <path clip-path="url(#pa24b24250d)" d="M 45.951473 228.14 
L 57.132362 228.14 
L 57.132362 227.96714 
L 45.951473 227.96714 
z
" style="fill:#1f77b4;"/>
   </g>
   <g id="patch_34">
    <path clip-path="url(#pa24b24250d)" d="M 57.132362 228.14 
L 68.313251 228.14 
L 68.313251 228.05357 
L 57.132362 228.05357 
z
" style="fill:#1f77b4;"/>
   </g>
   <g id="patch_35">
    <path clip-path="url(#pa24b24250d)" d="M 68.313251 228.14 
L 79.494141 228.14 
L 79.494141 227.621421 
L 68.313251 227.621421 
z
" style="fill:#1f77b4;"/>
   </g>
   <g id="patch_36">
    <path clip-path="url(#pa24b24250d)" d="M 79.494141 228.14 
L 90.67503 228.14 
L 90.67503 227.448562 
L 79.494141 227.448562 
z
" style="fill:#1f77b4;"/>
   </g>
   <g id="patch_37">
    <path clip-path="url(#pa24b24250d)" d="M 90.67503 228.14 
L 101.855919 228.14 
L 101.855919 227.448562 
L 90.67503 227.448562 
z
" style="fill:#1f77b4;"/>
   </g>
   <g id="patch_38">
    <path clip-path="url(#pa24b24250d)" d="M 101.855919 228.14 
L 113.036808 228.14 
L 113.036808 227.362132 
L 101.855919 227.362132 
z
" style="fill:#1f77b4;"/>
   </g>
   <g id="patch_39">
    <path clip-path="url(#pa24b24250d)" d="M 113.036808 228.14 
L 124.217697 228.14 
L 124.217697 226.584264 
L 113.036808 226.584264 
z
" style="fill:#1f77b4;"/>
   </g>
   <g id="patch_40">
    <path clip-path="url(#pa24b24250d)" d="M 124.217697 228.14 
L 135.398586 228.14 
L 135.398586 225.114958 
L 124.217697 225.114958 
z
" style="fill:#1f77b4;"/>
   </g>
   <g id="patch_41">
    <path clip-path="url(#pa24b24250d)" d="M 135.398586 228.14 
L 146.579475 228.14 
L 146.579475 223.299933 
L 135.398586 223.299933 
z
" style="fill:#1f77b4;"/>
   </g>
   <g id="patch_42">
    <path clip-path="url(#pa24b24250d)" d="M 146.579475 228.14 
L 157.760364 228.14 
L 157.760364 218.459866 
L 146.579475 218.459866 
z
" style="fill:#1f77b4;"/>
   </g>
   <g id="patch_43">
    <path clip-path="url(#pa24b24250d)" d="M 157.760364 228.14 
L 168.941253 228.14 
L 168.941253 207.569716 
L 157.760364 207.569716 
z
" style="fill:#1f77b4;"/>
   </g>
   <g id="patch_44">
    <path clip-path="url(#pa24b24250d)" d="M 168.941253 228.14 
L 180.122142 228.14 
L 180.122142 182.332225 
L 168.941253 182.332225 
z
" style="fill:#1f77b4;"/>
   </g>
   <g id="patch_45">
    <path clip-path="url(#pa24b24250d)" d="M 180.122142 228.14 
L 191.303031 228.14 
L 191.303031 142.228815 
L 180.122142 142.228815 
z
" style="fill:#1f77b4;"/>
   </g>
   <g id="patch_46">
    <path clip-path="url(#pa24b24250d)" d="M 191.303031 228.14 
L 202.48392 228.14 
L 202.48392 62.281283 
L 191.303031 62.281283 
z
" style="fill:#1f77b4;"/>
   </g>
   <g id="patch_47">
    <path clip-path="url(#pa24b24250d)" d="M 202.48392 228.14 
L 213.664809 228.14 
L 213.664809 21.054286 
L 202.48392 21.054286 
z
" style="fill:#1f77b4;"/>
   </g>
   <g id="patch_48">
    <path clip-path="url(#pa24b24250d)" d="M 213.664809 228.14 
L 224.845698 228.14 
L 224.845698 73.776442 
L 213.664809 73.776442 
z
" style="fill:#1f77b4;"/>
   </g>
   <g id="patch_49">
    <path clip-path="url(#pa24b24250d)" d="M 224.845698 228.14 
L 236.026587 228.14 
L 236.026587 142.401674 
L 224.845698 142.401674 
z
" style="fill:#1f77b4;"/>
   </g>
   <g id="patch_50">
    <path clip-path="url(#pa24b24250d)" d="M 236.026587 228.14 
L 247.207476 228.14 
L 247.207476 193.654524 
L 236.026587 193.654524 
z
" style="fill:#1f77b4;"/>
   </g>
   <g id="patch_51">
    <path clip-path="url(#pa24b24250d)" d="M 247.207476 228.14 
L 258.388365 228.14 
L 258.388365 209.81689 
L 247.207476 209.81689 
z
" style="fill:#1f77b4;"/>
   </g>
   <g id="patch_52">
    <path clip-path="url(#pa24b24250d)" d="M 258.388365 228.14 
L 269.569254 228.14 
L 269.569254 219.410594 
L 258.388365 219.410594 
z
" style="fill:#1f77b4;"/>
   </g>
   <g id="patch_53">
    <path clip-path="url(#pa24b24250d)" d="M 269.569254 228.14 
L 280.750143 228.14 
L 280.750143 223.904942 
L 269.569254 223.904942 
z
" style="fill:#1f77b4;"/>
   </g>
   <g id="patch_54">
    <path clip-path="url(#pa24b24250d)" d="M 280.750143 228.14 
L 291.931032 228.14 
L 291.931032 224.42352 
L 280.750143 224.42352 
z
" style="fill:#1f77b4;"/>
   </g>
   <g id="patch_55">
    <path clip-path="url(#pa24b24250d)" d="M 291.931032 228.14 
L 303.111921 228.14 
L 303.111921 226.670694 
L 291.931032 226.670694 
z
" style="fill:#1f77b4;"/>
   </g>
   <g id="patch_56">
    <path clip-path="url(#pa24b24250d)" d="M 303.111921 228.14 
L 314.29281 228.14 
L 314.29281 226.929983 
L 303.111921 226.929983 
z
" style="fill:#1f77b4;"/>
   </g>
   <g id="patch_57">
    <path clip-path="url(#pa24b24250d)" d="M 314.29281 228.14 
L 325.473699 228.14 
L 325.473699 227.102843 
L 314.29281 227.102843 
z
" style="fill:#1f77b4;"/>
   </g>
   <g id="patch_58">
    <path clip-path="url(#pa24b24250d)" d="M 325.473699 228.14 
L 336.654588 228.14 
L 336.654588 227.362132 
L 325.473699 227.362132 
z
" style="fill:#1f77b4;"/>
   </g>
   <g id="patch_59">
    <path clip-path="url(#pa24b24250d)" d="M 336.654588 228.14 
L 347.835477 228.14 
L 347.835477 228.05357 
L 336.654588 228.05357 
z
" style="fill:#1f77b4;"/>
   </g>
   <g id="patch_60">
    <path clip-path="url(#pa24b24250d)" d="M 347.835477 228.14 
L 359.016366 228.14 
L 359.016366 227.534992 
L 347.835477 227.534992 
z
" style="fill:#1f77b4;"/>
   </g>
   <g id="patch_61">
    <path clip-path="url(#pa24b24250d)" d="M 359.016366 228.14 
L 370.197255 228.14 
L 370.197255 228.14 
L 359.016366 228.14 
z
" style="fill:#1f77b4;"/>
   </g>
   <g id="patch_62">
    <path clip-path="url(#pa24b24250d)" d="M 370.197255 228.14 
L 381.378144 228.14 
L 381.378144 227.96714 
L 370.197255 227.96714 
z
" style="fill:#1f77b4;"/>
   </g>
   <g id="patch_63">
    <path clip-path="url(#pa24b24250d)" d="M 381.378144 228.14 
L 392.559033 228.14 
L 392.559033 228.05357 
L 381.378144 228.05357 
z
" style="fill:#1f77b4;"/>
   </g>
   <g id="patch_64">
    <path clip-path="url(#pa24b24250d)" d="M 392.559033 228.14 
L 403.739923 228.14 
L 403.739923 227.96714 
L 392.559033 227.96714 
z
" style="fill:#1f77b4;"/>
   </g>
   <g id="patch_65">
    <path clip-path="url(#pa24b24250d)" d="M 403.739923 228.14 
L 414.920812 228.14 
L 414.920812 228.14 
L 403.739923 228.14 
z
" style="fill:#1f77b4;"/>
   </g>
   <g id="patch_66">
    <path clip-path="url(#pa24b24250d)" d="M 414.920812 228.14 
L 426.101701 228.14 
L 426.101701 228.14 
L 414.920812 228.14 
z
" style="fill:#1f77b4;"/>
   </g>
   <g id="patch_67">
    <path clip-path="url(#pa24b24250d)" d="M 426.101701 228.14 
L 437.28259 228.14 
L 437.28259 227.96714 
L 426.101701 227.96714 
z
" style="fill:#1f77b4;"/>
   </g>
   <g id="patch_68">
    <path clip-path="url(#pa24b24250d)" d="M 437.28259 228.14 
L 448.463479 228.14 
L 448.463479 227.96714 
L 437.28259 227.96714 
z
" style="fill:#1f77b4;"/>
   </g>
   <g id="patch_69">
    <path clip-path="url(#pa24b24250d)" d="M 448.463479 228.14 
L 459.644368 228.14 
L 459.644368 228.14 
L 448.463479 228.14 
z
" style="fill:#1f77b4;"/>
   </g>
   <g id="patch_70">
    <path clip-path="url(#pa24b24250d)" d="M 459.644368 228.14 
L 470.825257 228.14 
L 470.825257 228.05357 
L 459.644368 228.05357 
z
" style="fill:#1f77b4;"/>
   </g>
   <g id="patch_71">
    <path clip-path="url(#pa24b24250d)" d="M 470.825257 228.14 
L 482.006146 228.14 
L 482.006146 228.14 
L 470.825257 228.14 
z
" style="fill:#1f77b4;"/>
   </g>
   <g id="patch_72">
    <path clip-path="url(#pa24b24250d)" d="M 482.006146 228.14 
L 493.187035 228.14 
L 493.187035 228.05357 
L 482.006146 228.05357 
z
" style="fill:#1f77b4;"/>
   </g>
   <g id="patch_73">
    <path clip-path="url(#pa24b24250d)" d="M 493.187035 228.14 
L 504.367924 228.14 
L 504.367924 228.14 
L 493.187035 228.14 
z
" style="fill:#1f77b4;"/>
   </g>
   <g id="patch_74">
    <path clip-path="url(#pa24b24250d)" d="M 504.367924 228.14 
L 515.548813 228.14 
L 515.548813 228.14 
L 504.367924 228.14 
z
" style="fill:#1f77b4;"/>
   </g>
   <g id="patch_75">
    <path clip-path="url(#pa24b24250d)" d="M 515.548813 228.14 
L 526.729702 228.14 
L 526.729702 228.14 
L 515.548813 228.14 
z
" style="fill:#1f77b4;"/>
   </g>
   <g id="patch_76">
    <path clip-path="url(#pa24b24250d)" d="M 526.729702 228.14 
L 537.910591 228.14 
L 537.910591 228.05357 
L 526.729702 228.05357 
z
" style="fill:#1f77b4;"/>
   </g>
   <g id="patch_77">
    <path clip-path="url(#pa24b24250d)" d="M 537.910591 228.14 
L 549.09148 228.14 
L 549.09148 228.05357 
L 537.910591 228.05357 
z
" style="fill:#1f77b4;"/>
   </g>
   <g id="patch_78">
    <path clip-path="url(#pa24b24250d)" d="M 549.09148 228.14 
L 560.272369 228.14 
L 560.272369 228.14 
L 549.09148 228.14 
z
" style="fill:#1f77b4;"/>
   </g>
   <g id="patch_79">
    <path clip-path="url(#pa24b24250d)" d="M 560.272369 228.14 
L 571.453258 228.14 
L 571.453258 228.14 
L 560.272369 228.14 
z
" style="fill:#1f77b4;"/>
   </g>
   <g id="patch_80">
    <path clip-path="url(#pa24b24250d)" d="M 571.453258 228.14 
L 582.634147 228.14 
L 582.634147 228.14 
L 571.453258 228.14 
z
" style="fill:#1f77b4;"/>
   </g>
   <g id="patch_81">
    <path clip-path="url(#pa24b24250d)" d="M 582.634147 228.14 
L 593.815036 228.14 
L 593.815036 228.05357 
L 582.634147 228.05357 
z
" style="fill:#1f77b4;"/>
   </g>
   <g id="patch_82">
    <path clip-path="url(#pa24b24250d)" d="M 593.815036 228.14 
L 604.995925 228.14 
L 604.995925 228.05357 
L 593.815036 228.05357 
z
" style="fill:#1f77b4;"/>
   </g>
   <g id="matplotlib.axis_1">
    <g id="xtick_1">
     <g id="line2d_1">
      <path clip-path="url(#pa24b24250d)" d="M 39.65 228.14 
L 39.65 10.7 
" style="fill:none;stroke:#b0b0b0;stroke-linecap:square;stroke-width:0.8;"/>
     </g>
     <g id="line2d_2">
      <defs>
       <path d="M 0 0 
L 0 3.5 
" id="mf3c98fb2e1" style="stroke:#000000;stroke-width:0.8;"/>
      </defs>
      <g>
       <use style="stroke:#000000;stroke-width:0.8;" x="39.65" xlink:href="#mf3c98fb2e1" y="228.14"/>
      </g>
     </g>
     <g id="text_1">
      <!-- −10.0 -->
      <defs>
       <path d="M 10.59375 35.5 
L 73.1875 35.5 
L 73.1875 27.203125 
L 10.59375 27.203125 
z
" id="DejaVuSans-8722"/>
       <path d="M 12.40625 8.296875 
L 28.515625 8.296875 
L 28.515625 63.921875 
L 10.984375 60.40625 
L 10.984375 69.390625 
L 28.421875 72.90625 
L 38.28125 72.90625 
L 38.28125 8.296875 
L 54.390625 8.296875 
L 54.390625 0 
L 12.40625 0 
z
" id="DejaVuSans-49"/>
       <path d="M 31.78125 66.40625 
Q 24.171875 66.40625 20.328125 58.90625 
Q 16.5 51.421875 16.5 36.375 
Q 16.5 21.390625 20.328125 13.890625 
Q 24.171875 6.390625 31.78125 6.390625 
Q 39.453125 6.390625 43.28125 13.890625 
Q 47.125 21.390625 47.125 36.375 
Q 47.125 51.421875 43.28125 58.90625 
Q 39.453125 66.40625 31.78125 66.40625 
z
M 31.78125 74.21875 
Q 44.046875 74.21875 50.515625 64.515625 
Q 56.984375 54.828125 56.984375 36.375 
Q 56.984375 17.96875 50.515625 8.265625 
Q 44.046875 -1.421875 31.78125 -1.421875 
Q 19.53125 -1.421875 13.0625 8.265625 
Q 6.59375 17.96875 6.59375 36.375 
Q 6.59375 54.828125 13.0625 64.515625 
Q 19.53125 74.21875 31.78125 74.21875 
z
" id="DejaVuSans-48"/>
       <path d="M 10.6875 12.40625 
L 21 12.40625 
L 21 0 
L 10.6875 0 
z
" id="DejaVuSans-46"/>
      </defs>
      <g transform="translate(24.327344 242.738437)scale(0.1 -0.1)">
       <use xlink:href="#DejaVuSans-8722"/>
       <use x="83.789062" xlink:href="#DejaVuSans-49"/>
       <use x="147.412109" xlink:href="#DejaVuSans-48"/>
       <use x="211.035156" xlink:href="#DejaVuSans-46"/>
       <use x="242.822266" xlink:href="#DejaVuSans-48"/>
      </g>
     </g>
    </g>
    <g id="xtick_2">
     <g id="line2d_3">
      <path clip-path="url(#pa24b24250d)" d="M 81.5 228.14 
L 81.5 10.7 
" style="fill:none;stroke:#b0b0b0;stroke-linecap:square;stroke-width:0.8;"/>
     </g>
     <g id="line2d_4">
      <g>
       <use style="stroke:#000000;stroke-width:0.8;" x="81.5" xlink:href="#mf3c98fb2e1" y="228.14"/>
      </g>
     </g>
     <g id="text_2">
      <!-- −7.5 -->
      <defs>
       <path d="M 8.203125 72.90625 
L 55.078125 72.90625 
L 55.078125 68.703125 
L 28.609375 0 
L 18.3125 0 
L 43.21875 64.59375 
L 8.203125 64.59375 
z
" id="DejaVuSans-55"/>
       <path d="M 10.796875 72.90625 
L 49.515625 72.90625 
L 49.515625 64.59375 
L 19.828125 64.59375 
L 19.828125 46.734375 
Q 21.96875 47.46875 24.109375 47.828125 
Q 26.265625 48.1875 28.421875 48.1875 
Q 40.625 48.1875 47.75 41.5 
Q 54.890625 34.8125 54.890625 23.390625 
Q 54.890625 11.625 47.5625 5.09375 
Q 40.234375 -1.421875 26.90625 -1.421875 
Q 22.3125 -1.421875 17.546875 -0.640625 
Q 12.796875 0.140625 7.71875 1.703125 
L 7.71875 11.625 
Q 12.109375 9.234375 16.796875 8.0625 
Q 21.484375 6.890625 26.703125 6.890625 
Q 35.15625 6.890625 40.078125 11.328125 
Q 45.015625 15.765625 45.015625 23.390625 
Q 45.015625 31 40.078125 35.4375 
Q 35.15625 39.890625 26.703125 39.890625 
Q 22.75 39.890625 18.8125 39.015625 
Q 14.890625 38.140625 10.796875 36.28125 
z
" id="DejaVuSans-53"/>
      </defs>
      <g transform="translate(69.358594 242.738437)scale(0.1 -0.1)">
       <use xlink:href="#DejaVuSans-8722"/>
       <use x="83.789062" xlink:href="#DejaVuSans-55"/>
       <use x="147.412109" xlink:href="#DejaVuSans-46"/>
       <use x="179.199219" xlink:href="#DejaVuSans-53"/>
      </g>
     </g>
    </g>
    <g id="xtick_3">
     <g id="line2d_5">
      <path clip-path="url(#pa24b24250d)" d="M 123.35 228.14 
L 123.35 10.7 
" style="fill:none;stroke:#b0b0b0;stroke-linecap:square;stroke-width:0.8;"/>
     </g>
     <g id="line2d_6">
      <g>
       <use style="stroke:#000000;stroke-width:0.8;" x="123.35" xlink:href="#mf3c98fb2e1" y="228.14"/>
      </g>
     </g>
     <g id="text_3">
      <!-- −5.0 -->
      <g transform="translate(111.208594 242.738437)scale(0.1 -0.1)">
       <use xlink:href="#DejaVuSans-8722"/>
       <use x="83.789062" xlink:href="#DejaVuSans-53"/>
       <use x="147.412109" xlink:href="#DejaVuSans-46"/>
       <use x="179.199219" xlink:href="#DejaVuSans-48"/>
      </g>
     </g>
    </g>
    <g id="xtick_4">
     <g id="line2d_7">
      <path clip-path="url(#pa24b24250d)" d="M 165.2 228.14 
L 165.2 10.7 
" style="fill:none;stroke:#b0b0b0;stroke-linecap:square;stroke-width:0.8;"/>
     </g>
     <g id="line2d_8">
      <g>
       <use style="stroke:#000000;stroke-width:0.8;" x="165.2" xlink:href="#mf3c98fb2e1" y="228.14"/>
      </g>
     </g>
     <g id="text_4">
      <!-- −2.5 -->
      <defs>
       <path d="M 19.1875 8.296875 
L 53.609375 8.296875 
L 53.609375 0 
L 7.328125 0 
L 7.328125 8.296875 
Q 12.9375 14.109375 22.625 23.890625 
Q 32.328125 33.6875 34.8125 36.53125 
Q 39.546875 41.84375 41.421875 45.53125 
Q 43.3125 49.21875 43.3125 52.78125 
Q 43.3125 58.59375 39.234375 62.25 
Q 35.15625 65.921875 28.609375 65.921875 
Q 23.96875 65.921875 18.8125 64.3125 
Q 13.671875 62.703125 7.8125 59.421875 
L 7.8125 69.390625 
Q 13.765625 71.78125 18.9375 73 
Q 24.125 74.21875 28.421875 74.21875 
Q 39.75 74.21875 46.484375 68.546875 
Q 53.21875 62.890625 53.21875 53.421875 
Q 53.21875 48.921875 51.53125 44.890625 
Q 49.859375 40.875 45.40625 35.40625 
Q 44.1875 33.984375 37.640625 27.21875 
Q 31.109375 20.453125 19.1875 8.296875 
z
" id="DejaVuSans-50"/>
      </defs>
      <g transform="translate(153.058594 242.738437)scale(0.1 -0.1)">
       <use xlink:href="#DejaVuSans-8722"/>
       <use x="83.789062" xlink:href="#DejaVuSans-50"/>
       <use x="147.412109" xlink:href="#DejaVuSans-46"/>
       <use x="179.199219" xlink:href="#DejaVuSans-53"/>
      </g>
     </g>
    </g>
    <g id="xtick_5">
     <g id="line2d_9">
      <path clip-path="url(#pa24b24250d)" d="M 207.05 228.14 
L 207.05 10.7 
" style="fill:none;stroke:#b0b0b0;stroke-linecap:square;stroke-width:0.8;"/>
     </g>
     <g id="line2d_10">
      <g>
       <use style="stroke:#000000;stroke-width:0.8;" x="207.05" xlink:href="#mf3c98fb2e1" y="228.14"/>
      </g>
     </g>
     <g id="text_5">
      <!-- 0.0 -->
      <g transform="translate(199.098438 242.738437)scale(0.1 -0.1)">
       <use xlink:href="#DejaVuSans-48"/>
       <use x="63.623047" xlink:href="#DejaVuSans-46"/>
       <use x="95.410156" xlink:href="#DejaVuSans-48"/>
      </g>
     </g>
    </g>
    <g id="xtick_6">
     <g id="line2d_11">
      <path clip-path="url(#pa24b24250d)" d="M 248.9 228.14 
L 248.9 10.7 
" style="fill:none;stroke:#b0b0b0;stroke-linecap:square;stroke-width:0.8;"/>
     </g>
     <g id="line2d_12">
      <g>
       <use style="stroke:#000000;stroke-width:0.8;" x="248.9" xlink:href="#mf3c98fb2e1" y="228.14"/>
      </g>
     </g>
     <g id="text_6">
      <!-- 2.5 -->
      <g transform="translate(240.948438 242.738437)scale(0.1 -0.1)">
       <use xlink:href="#DejaVuSans-50"/>
       <use x="63.623047" xlink:href="#DejaVuSans-46"/>
       <use x="95.410156" xlink:href="#DejaVuSans-53"/>
      </g>
     </g>
    </g>
    <g id="xtick_7">
     <g id="line2d_13">
      <path clip-path="url(#pa24b24250d)" d="M 290.75 228.14 
L 290.75 10.7 
" style="fill:none;stroke:#b0b0b0;stroke-linecap:square;stroke-width:0.8;"/>
     </g>
     <g id="line2d_14">
      <g>
       <use style="stroke:#000000;stroke-width:0.8;" x="290.75" xlink:href="#mf3c98fb2e1" y="228.14"/>
      </g>
     </g>
     <g id="text_7">
      <!-- 5.0 -->
      <g transform="translate(282.798438 242.738437)scale(0.1 -0.1)">
       <use xlink:href="#DejaVuSans-53"/>
       <use x="63.623047" xlink:href="#DejaVuSans-46"/>
       <use x="95.410156" xlink:href="#DejaVuSans-48"/>
      </g>
     </g>
    </g>
    <g id="xtick_8">
     <g id="line2d_15">
      <path clip-path="url(#pa24b24250d)" d="M 332.6 228.14 
L 332.6 10.7 
" style="fill:none;stroke:#b0b0b0;stroke-linecap:square;stroke-width:0.8;"/>
     </g>
     <g id="line2d_16">
      <g>
       <use style="stroke:#000000;stroke-width:0.8;" x="332.6" xlink:href="#mf3c98fb2e1" y="228.14"/>
      </g>
     </g>
     <g id="text_8">
      <!-- 7.5 -->
      <g transform="translate(324.648438 242.738437)scale(0.1 -0.1)">
       <use xlink:href="#DejaVuSans-55"/>
       <use x="63.623047" xlink:href="#DejaVuSans-46"/>
       <use x="95.410156" xlink:href="#DejaVuSans-53"/>
      </g>
     </g>
    </g>
    <g id="xtick_9">
     <g id="line2d_17">
      <path clip-path="url(#pa24b24250d)" d="M 374.45 228.14 
L 374.45 10.7 
" style="fill:none;stroke:#b0b0b0;stroke-linecap:square;stroke-width:0.8;"/>
     </g>
     <g id="line2d_18">
      <g>
       <use style="stroke:#000000;stroke-width:0.8;" x="374.45" xlink:href="#mf3c98fb2e1" y="228.14"/>
      </g>
     </g>
     <g id="text_9">
      <!-- 10.0 -->
      <g transform="translate(363.317188 242.738437)scale(0.1 -0.1)">
       <use xlink:href="#DejaVuSans-49"/>
       <use x="63.623047" xlink:href="#DejaVuSans-48"/>
       <use x="127.246094" xlink:href="#DejaVuSans-46"/>
       <use x="159.033203" xlink:href="#DejaVuSans-48"/>
      </g>
     </g>
    </g>
   </g>
   <g id="matplotlib.axis_2">
    <g id="ytick_1">
     <g id="line2d_19">
      <path clip-path="url(#pa24b24250d)" d="M 39.65 228.14 
L 374.45 228.14 
" style="fill:none;stroke:#b0b0b0;stroke-linecap:square;stroke-width:0.8;"/>
     </g>
     <g id="line2d_20">
      <defs>
       <path d="M 0 0 
L -3.5 0 
" id="me18eb336db" style="stroke:#000000;stroke-width:0.8;"/>
      </defs>
      <g>
       <use style="stroke:#000000;stroke-width:0.8;" x="39.65" xlink:href="#me18eb336db" y="228.14"/>
      </g>
     </g>
     <g id="text_10">
      <!-- 0 -->
      <g transform="translate(26.2875 231.939219)scale(0.1 -0.1)">
       <use xlink:href="#DejaVuSans-48"/>
      </g>
     </g>
    </g>
    <g id="ytick_2">
     <g id="line2d_21">
      <path clip-path="url(#pa24b24250d)" d="M 39.65 184.925118 
L 374.45 184.925118 
" style="fill:none;stroke:#b0b0b0;stroke-linecap:square;stroke-width:0.8;"/>
     </g>
     <g id="line2d_22">
      <g>
       <use style="stroke:#000000;stroke-width:0.8;" x="39.65" xlink:href="#me18eb336db" y="184.925118"/>
      </g>
     </g>
     <g id="text_11">
      <!-- 500 -->
      <g transform="translate(13.5625 188.724337)scale(0.1 -0.1)">
       <use xlink:href="#DejaVuSans-53"/>
       <use x="63.623047" xlink:href="#DejaVuSans-48"/>
       <use x="127.246094" xlink:href="#DejaVuSans-48"/>
      </g>
     </g>
    </g>
    <g id="ytick_3">
     <g id="line2d_23">
      <path clip-path="url(#pa24b24250d)" d="M 39.65 141.710236 
L 374.45 141.710236 
" style="fill:none;stroke:#b0b0b0;stroke-linecap:square;stroke-width:0.8;"/>
     </g>
     <g id="line2d_24">
      <g>
       <use style="stroke:#000000;stroke-width:0.8;" x="39.65" xlink:href="#me18eb336db" y="141.710236"/>
      </g>
     </g>
     <g id="text_12">
      <!-- 1000 -->
      <g transform="translate(7.2 145.509455)scale(0.1 -0.1)">
       <use xlink:href="#DejaVuSans-49"/>
       <use x="63.623047" xlink:href="#DejaVuSans-48"/>
       <use x="127.246094" xlink:href="#DejaVuSans-48"/>
       <use x="190.869141" xlink:href="#DejaVuSans-48"/>
      </g>
     </g>
    </g>
    <g id="ytick_4">
     <g id="line2d_25">
      <path clip-path="url(#pa24b24250d)" d="M 39.65 98.495354 
L 374.45 98.495354 
" style="fill:none;stroke:#b0b0b0;stroke-linecap:square;stroke-width:0.8;"/>
     </g>
     <g id="line2d_26">
      <g>
       <use style="stroke:#000000;stroke-width:0.8;" x="39.65" xlink:href="#me18eb336db" y="98.495354"/>
      </g>
     </g>
     <g id="text_13">
      <!-- 1500 -->
      <g transform="translate(7.2 102.294573)scale(0.1 -0.1)">
       <use xlink:href="#DejaVuSans-49"/>
       <use x="63.623047" xlink:href="#DejaVuSans-53"/>
       <use x="127.246094" xlink:href="#DejaVuSans-48"/>
       <use x="190.869141" xlink:href="#DejaVuSans-48"/>
      </g>
     </g>
    </g>
    <g id="ytick_5">
     <g id="line2d_27">
      <path clip-path="url(#pa24b24250d)" d="M 39.65 55.280472 
L 374.45 55.280472 
" style="fill:none;stroke:#b0b0b0;stroke-linecap:square;stroke-width:0.8;"/>
     </g>
     <g id="line2d_28">
      <g>
       <use style="stroke:#000000;stroke-width:0.8;" x="39.65" xlink:href="#me18eb336db" y="55.280472"/>
      </g>
     </g>
     <g id="text_14">
      <!-- 2000 -->
      <g transform="translate(7.2 59.079691)scale(0.1 -0.1)">
       <use xlink:href="#DejaVuSans-50"/>
       <use x="63.623047" xlink:href="#DejaVuSans-48"/>
       <use x="127.246094" xlink:href="#DejaVuSans-48"/>
       <use x="190.869141" xlink:href="#DejaVuSans-48"/>
      </g>
     </g>
    </g>
    <g id="ytick_6">
     <g id="line2d_29">
      <path clip-path="url(#pa24b24250d)" d="M 39.65 12.06559 
L 374.45 12.06559 
" style="fill:none;stroke:#b0b0b0;stroke-linecap:square;stroke-width:0.8;"/>
     </g>
     <g id="line2d_30">
      <g>
       <use style="stroke:#000000;stroke-width:0.8;" x="39.65" xlink:href="#me18eb336db" y="12.06559"/>
      </g>
     </g>
     <g id="text_15">
      <!-- 2500 -->
      <g transform="translate(7.2 15.864809)scale(0.1 -0.1)">
       <use xlink:href="#DejaVuSans-50"/>
       <use x="63.623047" xlink:href="#DejaVuSans-53"/>
       <use x="127.246094" xlink:href="#DejaVuSans-48"/>
       <use x="190.869141" xlink:href="#DejaVuSans-48"/>
      </g>
     </g>
    </g>
   </g>
   <g id="patch_83">
    <path d="M 39.65 228.14 
L 39.65 10.7 
" style="fill:none;stroke:#000000;stroke-linecap:square;stroke-linejoin:miter;stroke-width:0.8;"/>
   </g>
   <g id="patch_84">
    <path d="M 374.45 228.14 
L 374.45 10.7 
" style="fill:none;stroke:#000000;stroke-linecap:square;stroke-linejoin:miter;stroke-width:0.8;"/>
   </g>
   <g id="patch_85">
    <path d="M 39.65 228.14 
L 374.45 228.14 
" style="fill:none;stroke:#000000;stroke-linecap:square;stroke-linejoin:miter;stroke-width:0.8;"/>
   </g>
   <g id="patch_86">
    <path d="M 39.65 10.7 
L 374.45 10.7 
" style="fill:none;stroke:#000000;stroke-linecap:square;stroke-linejoin:miter;stroke-width:0.8;"/>
   </g>
  </g>
 </g>
 <defs>
  <clipPath id="pa24b24250d">
   <rect height="217.44" width="334.8" x="39.65" y="10.7"/>
  </clipPath>
 </defs>
</svg>
