<?xml version="1.0" encoding="utf-8" standalone="no"?>
<!DOCTYPE svg PUBLIC "-//W3C//DTD SVG 1.1//EN"
  "http://www.w3.org/Graphics/SVG/1.1/DTD/svg11.dtd">
<!-- Created with matplotlib (https://matplotlib.org/) -->
<svg height="252.018125pt" version="1.1" viewBox="0 0 392.782813 252.018125" width="392.782813pt" xmlns="http://www.w3.org/2000/svg" xmlns:xlink="http://www.w3.org/1999/xlink">
 <defs>
  <style type="text/css">
*{stroke-linecap:butt;stroke-linejoin:round;}
  </style>
 </defs>
 <g id="figure_1">
  <g id="patch_1">
   <path d="M -0 252.018125 
L 392.782813 252.018125 
L 392.782813 0 
L -0 0 
z
" style="fill:none;"/>
  </g>
  <g id="axes_1">
   <g id="patch_2">
    <path d="M 39.65 228.14 
L 374.45 228.14 
L 374.45 10.7 
L 39.65 10.7 
z
" style="fill:#ffffff;"/>
   </g>
   <g id="patch_3">
    <path clip-path="url(#p4b6a414009)" d="M -78.272265 228.14 
L -67.776735 228.14 
L -67.776735 228.045267 
L -78.272265 228.045267 
z
" style="fill:#1f77b4;"/>
   </g>
   <g id="patch_4">
    <path clip-path="url(#p4b6a414009)" d="M -67.776735 228.14 
L -57.281204 228.14 
L -57.281204 228.14 
L -67.776735 228.14 
z
" style="fill:#1f77b4;"/>
   </g>
   <g id="patch_5">
    <path clip-path="url(#p4b6a414009)" d="M -57.281204 228.14 
L -46.785674 228.14 
L -46.785674 228.14 
L -57.281204 228.14 
z
" style="fill:#1f77b4;"/>
   </g>
   <g id="patch_6">
    <path clip-path="url(#p4b6a414009)" d="M -46.785674 228.14 
L -36.290143 228.14 
L -36.290143 228.045267 
L -46.785674 228.045267 
z
" style="fill:#1f77b4;"/>
   </g>
   <g id="patch_7">
    <path clip-path="url(#p4b6a414009)" d="M -36.290143 228.14 
L -25.794612 228.14 
L -25.794612 228.14 
L -36.290143 228.14 
z
" style="fill:#1f77b4;"/>
   </g>
   <g id="patch_8">
    <path clip-path="url(#p4b6a414009)" d="M -25.794612 228.14 
L -15.299082 228.14 
L -15.299082 228.14 
L -25.794612 228.14 
z
" style="fill:#1f77b4;"/>
   </g>
   <g id="patch_9">
    <path clip-path="url(#p4b6a414009)" d="M -15.299082 228.14 
L -4.803551 228.14 
L -4.803551 228.045267 
L -15.299082 228.045267 
z
" style="fill:#1f77b4;"/>
   </g>
   <g id="patch_10">
    <path clip-path="url(#p4b6a414009)" d="M -4.803551 228.14 
L 5.691979 228.14 
L 5.691979 228.14 
L -4.803551 228.14 
z
" style="fill:#1f77b4;"/>
   </g>
   <g id="patch_11">
    <path clip-path="url(#p4b6a414009)" d="M 5.691979 228.14 
L 16.18751 228.14 
L 16.18751 228.14 
L 5.691979 228.14 
z
" style="fill:#1f77b4;"/>
   </g>
   <g id="patch_12">
    <path clip-path="url(#p4b6a414009)" d="M 16.18751 228.14 
L 26.683041 228.14 
L 26.683041 228.14 
L 16.18751 228.14 
z
" style="fill:#1f77b4;"/>
   </g>
   <g id="patch_13">
    <path clip-path="url(#p4b6a414009)" d="M 26.683041 228.14 
L 37.178571 228.14 
L 37.178571 228.14 
L 26.683041 228.14 
z
" style="fill:#1f77b4;"/>
   </g>
   <g id="patch_14">
    <path clip-path="url(#p4b6a414009)" d="M 37.178571 228.14 
L 47.674102 228.14 
L 47.674102 228.045267 
L 37.178571 228.045267 
z
" style="fill:#1f77b4;"/>
   </g>
   <g id="patch_15">
    <path clip-path="url(#p4b6a414009)" d="M 47.674102 228.14 
L 58.169632 228.14 
L 58.169632 228.045267 
L 47.674102 228.045267 
z
" style="fill:#1f77b4;"/>
   </g>
   <g id="patch_16">
    <path clip-path="url(#p4b6a414009)" d="M 58.169632 228.14 
L 68.665163 228.14 
L 68.665163 227.476871 
L 58.169632 227.476871 
z
" style="fill:#1f77b4;"/>
   </g>
   <g id="patch_17">
    <path clip-path="url(#p4b6a414009)" d="M 68.665163 228.14 
L 79.160694 228.14 
L 79.160694 227.950535 
L 68.665163 227.950535 
z
" style="fill:#1f77b4;"/>
   </g>
   <g id="patch_18">
    <path clip-path="url(#p4b6a414009)" d="M 79.160694 228.14 
L 89.656224 228.14 
L 89.656224 227.571604 
L 79.160694 227.571604 
z
" style="fill:#1f77b4;"/>
   </g>
   <g id="patch_19">
    <path clip-path="url(#p4b6a414009)" d="M 89.656224 228.14 
L 100.151755 228.14 
L 100.151755 227.287406 
L 89.656224 227.287406 
z
" style="fill:#1f77b4;"/>
   </g>
   <g id="patch_20">
    <path clip-path="url(#p4b6a414009)" d="M 100.151755 228.14 
L 110.647285 228.14 
L 110.647285 227.382138 
L 100.151755 227.382138 
z
" style="fill:#1f77b4;"/>
   </g>
   <g id="patch_21">
    <path clip-path="url(#p4b6a414009)" d="M 110.647285 228.14 
L 121.142816 228.14 
L 121.142816 227.003207 
L 110.647285 227.003207 
z
" style="fill:#1f77b4;"/>
   </g>
   <g id="patch_22">
    <path clip-path="url(#p4b6a414009)" d="M 121.142816 228.14 
L 131.638347 228.14 
L 131.638347 225.203286 
L 121.142816 225.203286 
z
" style="fill:#1f77b4;"/>
   </g>
   <g id="patch_23">
    <path clip-path="url(#p4b6a414009)" d="M 131.638347 228.14 
L 142.133877 228.14 
L 142.133877 223.687562 
L 131.638347 223.687562 
z
" style="fill:#1f77b4;"/>
   </g>
   <g id="patch_24">
    <path clip-path="url(#p4b6a414009)" d="M 142.133877 228.14 
L 152.629408 228.14 
L 152.629408 219.42459 
L 142.133877 219.42459 
z
" style="fill:#1f77b4;"/>
   </g>
   <g id="patch_25">
    <path clip-path="url(#p4b6a414009)" d="M 152.629408 228.14 
L 163.124938 228.14 
L 163.124938 212.035439 
L 152.629408 212.035439 
z
" style="fill:#1f77b4;"/>
   </g>
   <g id="patch_26">
    <path clip-path="url(#p4b6a414009)" d="M 163.124938 228.14 
L 173.620469 228.14 
L 173.620469 197.825531 
L 163.124938 197.825531 
z
" style="fill:#1f77b4;"/>
   </g>
   <g id="patch_27">
    <path clip-path="url(#p4b6a414009)" d="M 173.620469 228.14 
L 184.116 228.14 
L 184.116 173.195025 
L 173.620469 173.195025 
z
" style="fill:#1f77b4;"/>
   </g>
   <g id="patch_28">
    <path clip-path="url(#p4b6a414009)" d="M 184.116 228.14 
L 194.61153 228.14 
L 194.61153 111.145097 
L 184.116 111.145097 
z
" style="fill:#1f77b4;"/>
   </g>
   <g id="patch_29">
    <path clip-path="url(#p4b6a414009)" d="M 194.61153 228.14 
L 205.107061 228.14 
L 205.107061 38.579838 
L 194.61153 38.579838 
z
" style="fill:#1f77b4;"/>
   </g>
   <g id="patch_30">
    <path clip-path="url(#p4b6a414009)" d="M 205.107061 228.14 
L 215.602591 228.14 
L 215.602591 21.054286 
L 205.107061 21.054286 
z
" style="fill:#1f77b4;"/>
   </g>
   <g id="patch_31">
    <path clip-path="url(#p4b6a414009)" d="M 215.602591 228.14 
L 226.098122 228.14 
L 226.098122 79.883302 
L 215.602591 79.883302 
z
" style="fill:#1f77b4;"/>
   </g>
   <g id="patch_32">
    <path clip-path="url(#p4b6a414009)" d="M 226.098122 228.14 
L 236.593653 228.14 
L 236.593653 150.932838 
L 226.098122 150.932838 
z
" style="fill:#1f77b4;"/>
   </g>
   <g id="patch_33">
    <path clip-path="url(#p4b6a414009)" d="M 236.593653 228.14 
L 247.089183 228.14 
L 247.089183 187.026002 
L 236.593653 187.026002 
z
" style="fill:#1f77b4;"/>
   </g>
   <g id="patch_34">
    <path clip-path="url(#p4b6a414009)" d="M 247.089183 228.14 
L 257.584714 228.14 
L 257.584714 208.340863 
L 247.089183 208.340863 
z
" style="fill:#1f77b4;"/>
   </g>
   <g id="patch_35">
    <path clip-path="url(#p4b6a414009)" d="M 257.584714 228.14 
L 268.080244 228.14 
L 268.080244 218.193065 
L 257.584714 218.193065 
z
" style="fill:#1f77b4;"/>
   </g>
   <g id="patch_36">
    <path clip-path="url(#p4b6a414009)" d="M 268.080244 228.14 
L 278.575775 228.14 
L 278.575775 223.687562 
L 268.080244 223.687562 
z
" style="fill:#1f77b4;"/>
   </g>
   <g id="patch_37">
    <path clip-path="url(#p4b6a414009)" d="M 278.575775 228.14 
L 289.071306 228.14 
L 289.071306 224.350691 
L 278.575775 224.350691 
z
" style="fill:#1f77b4;"/>
   </g>
   <g id="patch_38">
    <path clip-path="url(#p4b6a414009)" d="M 289.071306 228.14 
L 299.566836 228.14 
L 299.566836 226.245346 
L 289.071306 226.245346 
z
" style="fill:#1f77b4;"/>
   </g>
   <g id="patch_39">
    <path clip-path="url(#p4b6a414009)" d="M 299.566836 228.14 
L 310.062367 228.14 
L 310.062367 227.382138 
L 299.566836 227.382138 
z
" style="fill:#1f77b4;"/>
   </g>
   <g id="patch_40">
    <path clip-path="url(#p4b6a414009)" d="M 310.062367 228.14 
L 320.557897 228.14 
L 320.557897 226.813742 
L 310.062367 226.813742 
z
" style="fill:#1f77b4;"/>
   </g>
   <g id="patch_41">
    <path clip-path="url(#p4b6a414009)" d="M 320.557897 228.14 
L 331.053428 228.14 
L 331.053428 227.571604 
L 320.557897 227.571604 
z
" style="fill:#1f77b4;"/>
   </g>
   <g id="patch_42">
    <path clip-path="url(#p4b6a414009)" d="M 331.053428 228.14 
L 341.548959 228.14 
L 341.548959 227.855802 
L 331.053428 227.855802 
z
" style="fill:#1f77b4;"/>
   </g>
   <g id="patch_43">
    <path clip-path="url(#p4b6a414009)" d="M 341.548959 228.14 
L 352.044489 228.14 
L 352.044489 227.761069 
L 341.548959 227.761069 
z
" style="fill:#1f77b4;"/>
   </g>
   <g id="patch_44">
    <path clip-path="url(#p4b6a414009)" d="M 352.044489 228.14 
L 362.54002 228.14 
L 362.54002 227.287406 
L 352.044489 227.287406 
z
" style="fill:#1f77b4;"/>
   </g>
   <g id="patch_45">
    <path clip-path="url(#p4b6a414009)" d="M 362.54002 228.14 
L 373.03555 228.14 
L 373.03555 228.045267 
L 362.54002 228.045267 
z
" style="fill:#1f77b4;"/>
   </g>
   <g id="patch_46">
    <path clip-path="url(#p4b6a414009)" d="M 373.03555 228.14 
L 383.531081 228.14 
L 383.531081 228.045267 
L 373.03555 228.045267 
z
" style="fill:#1f77b4;"/>
   </g>
   <g id="patch_47">
    <path clip-path="url(#p4b6a414009)" d="M 383.531081 228.14 
L 394.026612 228.14 
L 394.026612 228.045267 
L 383.531081 228.045267 
z
" style="fill:#1f77b4;"/>
   </g>
   <g id="patch_48">
    <path clip-path="url(#p4b6a414009)" d="M 394.026612 228.14 
L 404.522142 228.14 
L 404.522142 228.14 
L 394.026612 228.14 
z
" style="fill:#1f77b4;"/>
   </g>
   <g id="patch_49">
    <path clip-path="url(#p4b6a414009)" d="M 404.522142 228.14 
L 415.017673 228.14 
L 415.017673 227.950535 
L 404.522142 227.950535 
z
" style="fill:#1f77b4;"/>
   </g>
   <g id="patch_50">
    <path clip-path="url(#p4b6a414009)" d="M 415.017673 228.14 
L 425.513203 228.14 
L 425.513203 227.950535 
L 415.017673 227.950535 
z
" style="fill:#1f77b4;"/>
   </g>
   <g id="patch_51">
    <path clip-path="url(#p4b6a414009)" d="M 425.513203 228.14 
L 436.008734 228.14 
L 436.008734 228.14 
L 425.513203 228.14 
z
" style="fill:#1f77b4;"/>
   </g>
   <g id="patch_52">
    <path clip-path="url(#p4b6a414009)" d="M 436.008734 228.14 
L 446.504265 228.14 
L 446.504265 228.14 
L 436.008734 228.14 
z
" style="fill:#1f77b4;"/>
   </g>
   <g id="patch_53">
    <path clip-path="url(#p4b6a414009)" d="M 446.504265 228.14 
L 456.999795 228.14 
L 456.999795 228.045267 
L 446.504265 228.045267 
z
" style="fill:#1f77b4;"/>
   </g>
   <g id="patch_54">
    <path clip-path="url(#p4b6a414009)" d="M 456.999795 228.14 
L 467.495326 228.14 
L 467.495326 228.14 
L 456.999795 228.14 
z
" style="fill:#1f77b4;"/>
   </g>
   <g id="patch_55">
    <path clip-path="url(#p4b6a414009)" d="M 467.495326 228.14 
L 477.990856 228.14 
L 477.990856 228.14 
L 467.495326 228.14 
z
" style="fill:#1f77b4;"/>
   </g>
   <g id="patch_56">
    <path clip-path="url(#p4b6a414009)" d="M 477.990856 228.14 
L 488.486387 228.14 
L 488.486387 228.14 
L 477.990856 228.14 
z
" style="fill:#1f77b4;"/>
   </g>
   <g id="patch_57">
    <path clip-path="url(#p4b6a414009)" d="M 488.486387 228.14 
L 498.981918 228.14 
L 498.981918 228.14 
L 488.486387 228.14 
z
" style="fill:#1f77b4;"/>
   </g>
   <g id="patch_58">
    <path clip-path="url(#p4b6a414009)" d="M 498.981918 228.14 
L 509.477448 228.14 
L 509.477448 228.14 
L 498.981918 228.14 
z
" style="fill:#1f77b4;"/>
   </g>
   <g id="patch_59">
    <path clip-path="url(#p4b6a414009)" d="M 509.477448 228.14 
L 519.972979 228.14 
L 519.972979 228.045267 
L 509.477448 228.045267 
z
" style="fill:#1f77b4;"/>
   </g>
   <g id="patch_60">
    <path clip-path="url(#p4b6a414009)" d="M 519.972979 228.14 
L 530.468509 228.14 
L 530.468509 228.14 
L 519.972979 228.14 
z
" style="fill:#1f77b4;"/>
   </g>
   <g id="patch_61">
    <path clip-path="url(#p4b6a414009)" d="M 530.468509 228.14 
L 540.96404 228.14 
L 540.96404 228.14 
L 530.468509 228.14 
z
" style="fill:#1f77b4;"/>
   </g>
   <g id="patch_62">
    <path clip-path="url(#p4b6a414009)" d="M 540.96404 228.14 
L 551.459571 228.14 
L 551.459571 228.14 
L 540.96404 228.14 
z
" style="fill:#1f77b4;"/>
   </g>
   <g id="patch_63">
    <path clip-path="url(#p4b6a414009)" d="M 551.459571 228.14 
L 561.955101 228.14 
L 561.955101 228.14 
L 551.459571 228.14 
z
" style="fill:#1f77b4;"/>
   </g>
   <g id="patch_64">
    <path clip-path="url(#p4b6a414009)" d="M 561.955101 228.14 
L 572.450632 228.14 
L 572.450632 228.14 
L 561.955101 228.14 
z
" style="fill:#1f77b4;"/>
   </g>
   <g id="patch_65">
    <path clip-path="url(#p4b6a414009)" d="M 572.450632 228.14 
L 582.946162 228.14 
L 582.946162 228.14 
L 572.450632 228.14 
z
" style="fill:#1f77b4;"/>
   </g>
   <g id="patch_66">
    <path clip-path="url(#p4b6a414009)" d="M 582.946162 228.14 
L 593.441693 228.14 
L 593.441693 228.14 
L 582.946162 228.14 
z
" style="fill:#1f77b4;"/>
   </g>
   <g id="patch_67">
    <path clip-path="url(#p4b6a414009)" d="M 593.441693 228.14 
L 603.937224 228.14 
L 603.937224 228.14 
L 593.441693 228.14 
z
" style="fill:#1f77b4;"/>
   </g>
   <g id="patch_68">
    <path clip-path="url(#p4b6a414009)" d="M 603.937224 228.14 
L 614.432754 228.14 
L 614.432754 228.14 
L 603.937224 228.14 
z
" style="fill:#1f77b4;"/>
   </g>
   <g id="patch_69">
    <path clip-path="url(#p4b6a414009)" d="M 614.432754 228.14 
L 624.928285 228.14 
L 624.928285 228.14 
L 614.432754 228.14 
z
" style="fill:#1f77b4;"/>
   </g>
   <g id="patch_70">
    <path clip-path="url(#p4b6a414009)" d="M 624.928285 228.14 
L 635.423815 228.14 
L 635.423815 228.14 
L 624.928285 228.14 
z
" style="fill:#1f77b4;"/>
   </g>
   <g id="patch_71">
    <path clip-path="url(#p4b6a414009)" d="M 635.423815 228.14 
L 645.919346 228.14 
L 645.919346 228.14 
L 635.423815 228.14 
z
" style="fill:#1f77b4;"/>
   </g>
   <g id="patch_72">
    <path clip-path="url(#p4b6a414009)" d="M 645.919346 228.14 
L 656.414877 228.14 
L 656.414877 228.14 
L 645.919346 228.14 
z
" style="fill:#1f77b4;"/>
   </g>
   <g id="patch_73">
    <path clip-path="url(#p4b6a414009)" d="M 656.414877 228.14 
L 666.910407 228.14 
L 666.910407 228.14 
L 656.414877 228.14 
z
" style="fill:#1f77b4;"/>
   </g>
   <g id="patch_74">
    <path clip-path="url(#p4b6a414009)" d="M 666.910407 228.14 
L 677.405938 228.14 
L 677.405938 228.14 
L 666.910407 228.14 
z
" style="fill:#1f77b4;"/>
   </g>
   <g id="patch_75">
    <path clip-path="url(#p4b6a414009)" d="M 677.405938 228.14 
L 687.901468 228.14 
L 687.901468 228.14 
L 677.405938 228.14 
z
" style="fill:#1f77b4;"/>
   </g>
   <g id="patch_76">
    <path clip-path="url(#p4b6a414009)" d="M 687.901468 228.14 
L 698.396999 228.14 
L 698.396999 228.14 
L 687.901468 228.14 
z
" style="fill:#1f77b4;"/>
   </g>
   <g id="patch_77">
    <path clip-path="url(#p4b6a414009)" d="M 698.396999 228.14 
L 708.89253 228.14 
L 708.89253 228.14 
L 698.396999 228.14 
z
" style="fill:#1f77b4;"/>
   </g>
   <g id="patch_78">
    <path clip-path="url(#p4b6a414009)" d="M 708.89253 228.14 
L 719.38806 228.14 
L 719.38806 228.14 
L 708.89253 228.14 
z
" style="fill:#1f77b4;"/>
   </g>
   <g id="patch_79">
    <path clip-path="url(#p4b6a414009)" d="M 719.38806 228.14 
L 729.883591 228.14 
L 729.883591 228.14 
L 719.38806 228.14 
z
" style="fill:#1f77b4;"/>
   </g>
   <g id="patch_80">
    <path clip-path="url(#p4b6a414009)" d="M 729.883591 228.14 
L 740.379121 228.14 
L 740.379121 228.14 
L 729.883591 228.14 
z
" style="fill:#1f77b4;"/>
   </g>
   <g id="patch_81">
    <path clip-path="url(#p4b6a414009)" d="M 740.379121 228.14 
L 750.874652 228.14 
L 750.874652 228.14 
L 740.379121 228.14 
z
" style="fill:#1f77b4;"/>
   </g>
   <g id="patch_82">
    <path clip-path="url(#p4b6a414009)" d="M 750.874652 228.14 
L 761.370183 228.14 
L 761.370183 228.045267 
L 750.874652 228.045267 
z
" style="fill:#1f77b4;"/>
   </g>
   <g id="matplotlib.axis_1">
    <g id="xtick_1">
     <g id="line2d_1">
      <path clip-path="url(#p4b6a414009)" d="M 39.65 228.14 
L 39.65 10.7 
" style="fill:none;stroke:#b0b0b0;stroke-linecap:square;stroke-width:0.8;"/>
     </g>
     <g id="line2d_2">
      <defs>
       <path d="M 0 0 
L 0 3.5 
" id="m950360f0cf" style="stroke:#000000;stroke-width:0.8;"/>
      </defs>
      <g>
       <use style="stroke:#000000;stroke-width:0.8;" x="39.65" xlink:href="#m950360f0cf" y="228.14"/>
      </g>
     </g>
     <g id="text_1">
      <!-- −10.0 -->
      <defs>
       <path d="M 10.59375 35.5 
L 73.1875 35.5 
L 73.1875 27.203125 
L 10.59375 27.203125 
z
" id="DejaVuSans-8722"/>
       <path d="M 12.40625 8.296875 
L 28.515625 8.296875 
L 28.515625 63.921875 
L 10.984375 60.40625 
L 10.984375 69.390625 
L 28.421875 72.90625 
L 38.28125 72.90625 
L 38.28125 8.296875 
L 54.390625 8.296875 
L 54.390625 0 
L 12.40625 0 
z
" id="DejaVuSans-49"/>
       <path d="M 31.78125 66.40625 
Q 24.171875 66.40625 20.328125 58.90625 
Q 16.5 51.421875 16.5 36.375 
Q 16.5 21.390625 20.328125 13.890625 
Q 24.171875 6.390625 31.78125 6.390625 
Q 39.453125 6.390625 43.28125 13.890625 
Q 47.125 21.390625 47.125 36.375 
Q 47.125 51.421875 43.28125 58.90625 
Q 39.453125 66.40625 31.78125 66.40625 
z
M 31.78125 74.21875 
Q 44.046875 74.21875 50.515625 64.515625 
Q 56.984375 54.828125 56.984375 36.375 
Q 56.984375 17.96875 50.515625 8.265625 
Q 44.046875 -1.421875 31.78125 -1.421875 
Q 19.53125 -1.421875 13.0625 8.265625 
Q 6.59375 17.96875 6.59375 36.375 
Q 6.59375 54.828125 13.0625 64.515625 
Q 19.53125 74.21875 31.78125 74.21875 
z
" id="DejaVuSans-48"/>
       <path d="M 10.6875 12.40625 
L 21 12.40625 
L 21 0 
L 10.6875 0 
z
" id="DejaVuSans-46"/>
      </defs>
      <g transform="translate(24.327344 242.738437)scale(0.1 -0.1)">
       <use xlink:href="#DejaVuSans-8722"/>
       <use x="83.789062" xlink:href="#DejaVuSans-49"/>
       <use x="147.412109" xlink:href="#DejaVuSans-48"/>
       <use x="211.035156" xlink:href="#DejaVuSans-46"/>
       <use x="242.822266" xlink:href="#DejaVuSans-48"/>
      </g>
     </g>
    </g>
    <g id="xtick_2">
     <g id="line2d_3">
      <path clip-path="url(#p4b6a414009)" d="M 81.5 228.14 
L 81.5 10.7 
" style="fill:none;stroke:#b0b0b0;stroke-linecap:square;stroke-width:0.8;"/>
     </g>
     <g id="line2d_4">
      <g>
       <use style="stroke:#000000;stroke-width:0.8;" x="81.5" xlink:href="#m950360f0cf" y="228.14"/>
      </g>
     </g>
     <g id="text_2">
      <!-- −7.5 -->
      <defs>
       <path d="M 8.203125 72.90625 
L 55.078125 72.90625 
L 55.078125 68.703125 
L 28.609375 0 
L 18.3125 0 
L 43.21875 64.59375 
L 8.203125 64.59375 
z
" id="DejaVuSans-55"/>
       <path d="M 10.796875 72.90625 
L 49.515625 72.90625 
L 49.515625 64.59375 
L 19.828125 64.59375 
L 19.828125 46.734375 
Q 21.96875 47.46875 24.109375 47.828125 
Q 26.265625 48.1875 28.421875 48.1875 
Q 40.625 48.1875 47.75 41.5 
Q 54.890625 34.8125 54.890625 23.390625 
Q 54.890625 11.625 47.5625 5.09375 
Q 40.234375 -1.421875 26.90625 -1.421875 
Q 22.3125 -1.421875 17.546875 -0.640625 
Q 12.796875 0.140625 7.71875 1.703125 
L 7.71875 11.625 
Q 12.109375 9.234375 16.796875 8.0625 
Q 21.484375 6.890625 26.703125 6.890625 
Q 35.15625 6.890625 40.078125 11.328125 
Q 45.015625 15.765625 45.015625 23.390625 
Q 45.015625 31 40.078125 35.4375 
Q 35.15625 39.890625 26.703125 39.890625 
Q 22.75 39.890625 18.8125 39.015625 
Q 14.890625 38.140625 10.796875 36.28125 
z
" id="DejaVuSans-53"/>
      </defs>
      <g transform="translate(69.358594 242.738437)scale(0.1 -0.1)">
       <use xlink:href="#DejaVuSans-8722"/>
       <use x="83.789062" xlink:href="#DejaVuSans-55"/>
       <use x="147.412109" xlink:href="#DejaVuSans-46"/>
       <use x="179.199219" xlink:href="#DejaVuSans-53"/>
      </g>
     </g>
    </g>
    <g id="xtick_3">
     <g id="line2d_5">
      <path clip-path="url(#p4b6a414009)" d="M 123.35 228.14 
L 123.35 10.7 
" style="fill:none;stroke:#b0b0b0;stroke-linecap:square;stroke-width:0.8;"/>
     </g>
     <g id="line2d_6">
      <g>
       <use style="stroke:#000000;stroke-width:0.8;" x="123.35" xlink:href="#m950360f0cf" y="228.14"/>
      </g>
     </g>
     <g id="text_3">
      <!-- −5.0 -->
      <g transform="translate(111.208594 242.738437)scale(0.1 -0.1)">
       <use xlink:href="#DejaVuSans-8722"/>
       <use x="83.789062" xlink:href="#DejaVuSans-53"/>
       <use x="147.412109" xlink:href="#DejaVuSans-46"/>
       <use x="179.199219" xlink:href="#DejaVuSans-48"/>
      </g>
     </g>
    </g>
    <g id="xtick_4">
     <g id="line2d_7">
      <path clip-path="url(#p4b6a414009)" d="M 165.2 228.14 
L 165.2 10.7 
" style="fill:none;stroke:#b0b0b0;stroke-linecap:square;stroke-width:0.8;"/>
     </g>
     <g id="line2d_8">
      <g>
       <use style="stroke:#000000;stroke-width:0.8;" x="165.2" xlink:href="#m950360f0cf" y="228.14"/>
      </g>
     </g>
     <g id="text_4">
      <!-- −2.5 -->
      <defs>
       <path d="M 19.1875 8.296875 
L 53.609375 8.296875 
L 53.609375 0 
L 7.328125 0 
L 7.328125 8.296875 
Q 12.9375 14.109375 22.625 23.890625 
Q 32.328125 33.6875 34.8125 36.53125 
Q 39.546875 41.84375 41.421875 45.53125 
Q 43.3125 49.21875 43.3125 52.78125 
Q 43.3125 58.59375 39.234375 62.25 
Q 35.15625 65.921875 28.609375 65.921875 
Q 23.96875 65.921875 18.8125 64.3125 
Q 13.671875 62.703125 7.8125 59.421875 
L 7.8125 69.390625 
Q 13.765625 71.78125 18.9375 73 
Q 24.125 74.21875 28.421875 74.21875 
Q 39.75 74.21875 46.484375 68.546875 
Q 53.21875 62.890625 53.21875 53.421875 
Q 53.21875 48.921875 51.53125 44.890625 
Q 49.859375 40.875 45.40625 35.40625 
Q 44.1875 33.984375 37.640625 27.21875 
Q 31.109375 20.453125 19.1875 8.296875 
z
" id="DejaVuSans-50"/>
      </defs>
      <g transform="translate(153.058594 242.738437)scale(0.1 -0.1)">
       <use xlink:href="#DejaVuSans-8722"/>
       <use x="83.789062" xlink:href="#DejaVuSans-50"/>
       <use x="147.412109" xlink:href="#DejaVuSans-46"/>
       <use x="179.199219" xlink:href="#DejaVuSans-53"/>
      </g>
     </g>
    </g>
    <g id="xtick_5">
     <g id="line2d_9">
      <path clip-path="url(#p4b6a414009)" d="M 207.05 228.14 
L 207.05 10.7 
" style="fill:none;stroke:#b0b0b0;stroke-linecap:square;stroke-width:0.8;"/>
     </g>
     <g id="line2d_10">
      <g>
       <use style="stroke:#000000;stroke-width:0.8;" x="207.05" xlink:href="#m950360f0cf" y="228.14"/>
      </g>
     </g>
     <g id="text_5">
      <!-- 0.0 -->
      <g transform="translate(199.098438 242.738437)scale(0.1 -0.1)">
       <use xlink:href="#DejaVuSans-48"/>
       <use x="63.623047" xlink:href="#DejaVuSans-46"/>
       <use x="95.410156" xlink:href="#DejaVuSans-48"/>
      </g>
     </g>
    </g>
    <g id="xtick_6">
     <g id="line2d_11">
      <path clip-path="url(#p4b6a414009)" d="M 248.9 228.14 
L 248.9 10.7 
" style="fill:none;stroke:#b0b0b0;stroke-linecap:square;stroke-width:0.8;"/>
     </g>
     <g id="line2d_12">
      <g>
       <use style="stroke:#000000;stroke-width:0.8;" x="248.9" xlink:href="#m950360f0cf" y="228.14"/>
      </g>
     </g>
     <g id="text_6">
      <!-- 2.5 -->
      <g transform="translate(240.948438 242.738437)scale(0.1 -0.1)">
       <use xlink:href="#DejaVuSans-50"/>
       <use x="63.623047" xlink:href="#DejaVuSans-46"/>
       <use x="95.410156" xlink:href="#DejaVuSans-53"/>
      </g>
     </g>
    </g>
    <g id="xtick_7">
     <g id="line2d_13">
      <path clip-path="url(#p4b6a414009)" d="M 290.75 228.14 
L 290.75 10.7 
" style="fill:none;stroke:#b0b0b0;stroke-linecap:square;stroke-width:0.8;"/>
     </g>
     <g id="line2d_14">
      <g>
       <use style="stroke:#000000;stroke-width:0.8;" x="290.75" xlink:href="#m950360f0cf" y="228.14"/>
      </g>
     </g>
     <g id="text_7">
      <!-- 5.0 -->
      <g transform="translate(282.798438 242.738437)scale(0.1 -0.1)">
       <use xlink:href="#DejaVuSans-53"/>
       <use x="63.623047" xlink:href="#DejaVuSans-46"/>
       <use x="95.410156" xlink:href="#DejaVuSans-48"/>
      </g>
     </g>
    </g>
    <g id="xtick_8">
     <g id="line2d_15">
      <path clip-path="url(#p4b6a414009)" d="M 332.6 228.14 
L 332.6 10.7 
" style="fill:none;stroke:#b0b0b0;stroke-linecap:square;stroke-width:0.8;"/>
     </g>
     <g id="line2d_16">
      <g>
       <use style="stroke:#000000;stroke-width:0.8;" x="332.6" xlink:href="#m950360f0cf" y="228.14"/>
      </g>
     </g>
     <g id="text_8">
      <!-- 7.5 -->
      <g transform="translate(324.648438 242.738437)scale(0.1 -0.1)">
       <use xlink:href="#DejaVuSans-55"/>
       <use x="63.623047" xlink:href="#DejaVuSans-46"/>
       <use x="95.410156" xlink:href="#DejaVuSans-53"/>
      </g>
     </g>
    </g>
    <g id="xtick_9">
     <g id="line2d_17">
      <path clip-path="url(#p4b6a414009)" d="M 374.45 228.14 
L 374.45 10.7 
" style="fill:none;stroke:#b0b0b0;stroke-linecap:square;stroke-width:0.8;"/>
     </g>
     <g id="line2d_18">
      <g>
       <use style="stroke:#000000;stroke-width:0.8;" x="374.45" xlink:href="#m950360f0cf" y="228.14"/>
      </g>
     </g>
     <g id="text_9">
      <!-- 10.0 -->
      <g transform="translate(363.317188 242.738437)scale(0.1 -0.1)">
       <use xlink:href="#DejaVuSans-49"/>
       <use x="63.623047" xlink:href="#DejaVuSans-48"/>
       <use x="127.246094" xlink:href="#DejaVuSans-46"/>
       <use x="159.033203" xlink:href="#DejaVuSans-48"/>
      </g>
     </g>
    </g>
   </g>
   <g id="matplotlib.axis_2">
    <g id="ytick_1">
     <g id="line2d_19">
      <path clip-path="url(#p4b6a414009)" d="M 39.65 228.14 
L 374.45 228.14 
" style="fill:none;stroke:#b0b0b0;stroke-linecap:square;stroke-width:0.8;"/>
     </g>
     <g id="line2d_20">
      <defs>
       <path d="M 0 0 
L -3.5 0 
" id="mc3a8f241e9" style="stroke:#000000;stroke-width:0.8;"/>
      </defs>
      <g>
       <use style="stroke:#000000;stroke-width:0.8;" x="39.65" xlink:href="#mc3a8f241e9" y="228.14"/>
      </g>
     </g>
     <g id="text_10">
      <!-- 0 -->
      <g transform="translate(26.2875 231.939219)scale(0.1 -0.1)">
       <use xlink:href="#DejaVuSans-48"/>
      </g>
     </g>
    </g>
    <g id="ytick_2">
     <g id="line2d_21">
      <path clip-path="url(#p4b6a414009)" d="M 39.65 180.773643 
L 374.45 180.773643 
" style="fill:none;stroke:#b0b0b0;stroke-linecap:square;stroke-width:0.8;"/>
     </g>
     <g id="line2d_22">
      <g>
       <use style="stroke:#000000;stroke-width:0.8;" x="39.65" xlink:href="#mc3a8f241e9" y="180.773643"/>
      </g>
     </g>
     <g id="text_11">
      <!-- 500 -->
      <g transform="translate(13.5625 184.572861)scale(0.1 -0.1)">
       <use xlink:href="#DejaVuSans-53"/>
       <use x="63.623047" xlink:href="#DejaVuSans-48"/>
       <use x="127.246094" xlink:href="#DejaVuSans-48"/>
      </g>
     </g>
    </g>
    <g id="ytick_3">
     <g id="line2d_23">
      <path clip-path="url(#p4b6a414009)" d="M 39.65 133.407285 
L 374.45 133.407285 
" style="fill:none;stroke:#b0b0b0;stroke-linecap:square;stroke-width:0.8;"/>
     </g>
     <g id="line2d_24">
      <g>
       <use style="stroke:#000000;stroke-width:0.8;" x="39.65" xlink:href="#mc3a8f241e9" y="133.407285"/>
      </g>
     </g>
     <g id="text_12">
      <!-- 1000 -->
      <g transform="translate(7.2 137.206504)scale(0.1 -0.1)">
       <use xlink:href="#DejaVuSans-49"/>
       <use x="63.623047" xlink:href="#DejaVuSans-48"/>
       <use x="127.246094" xlink:href="#DejaVuSans-48"/>
       <use x="190.869141" xlink:href="#DejaVuSans-48"/>
      </g>
     </g>
    </g>
    <g id="ytick_4">
     <g id="line2d_25">
      <path clip-path="url(#p4b6a414009)" d="M 39.65 86.040928 
L 374.45 86.040928 
" style="fill:none;stroke:#b0b0b0;stroke-linecap:square;stroke-width:0.8;"/>
     </g>
     <g id="line2d_26">
      <g>
       <use style="stroke:#000000;stroke-width:0.8;" x="39.65" xlink:href="#mc3a8f241e9" y="86.040928"/>
      </g>
     </g>
     <g id="text_13">
      <!-- 1500 -->
      <g transform="translate(7.2 89.840147)scale(0.1 -0.1)">
       <use xlink:href="#DejaVuSans-49"/>
       <use x="63.623047" xlink:href="#DejaVuSans-53"/>
       <use x="127.246094" xlink:href="#DejaVuSans-48"/>
       <use x="190.869141" xlink:href="#DejaVuSans-48"/>
      </g>
     </g>
    </g>
    <g id="ytick_5">
     <g id="line2d_27">
      <path clip-path="url(#p4b6a414009)" d="M 39.65 38.674571 
L 374.45 38.674571 
" style="fill:none;stroke:#b0b0b0;stroke-linecap:square;stroke-width:0.8;"/>
     </g>
     <g id="line2d_28">
      <g>
       <use style="stroke:#000000;stroke-width:0.8;" x="39.65" xlink:href="#mc3a8f241e9" y="38.674571"/>
      </g>
     </g>
     <g id="text_14">
      <!-- 2000 -->
      <g transform="translate(7.2 42.473789)scale(0.1 -0.1)">
       <use xlink:href="#DejaVuSans-50"/>
       <use x="63.623047" xlink:href="#DejaVuSans-48"/>
       <use x="127.246094" xlink:href="#DejaVuSans-48"/>
       <use x="190.869141" xlink:href="#DejaVuSans-48"/>
      </g>
     </g>
    </g>
   </g>
   <g id="patch_83">
    <path d="M 39.65 228.14 
L 39.65 10.7 
" style="fill:none;stroke:#000000;stroke-linecap:square;stroke-linejoin:miter;stroke-width:0.8;"/>
   </g>
   <g id="patch_84">
    <path d="M 374.45 228.14 
L 374.45 10.7 
" style="fill:none;stroke:#000000;stroke-linecap:square;stroke-linejoin:miter;stroke-width:0.8;"/>
   </g>
   <g id="patch_85">
    <path d="M 39.65 228.14 
L 374.45 228.14 
" style="fill:none;stroke:#000000;stroke-linecap:square;stroke-linejoin:miter;stroke-width:0.8;"/>
   </g>
   <g id="patch_86">
    <path d="M 39.65 10.7 
L 374.45 10.7 
" style="fill:none;stroke:#000000;stroke-linecap:square;stroke-linejoin:miter;stroke-width:0.8;"/>
   </g>
  </g>
 </g>
 <defs>
  <clipPath id="p4b6a414009">
   <rect height="217.44" width="334.8" x="39.65" y="10.7"/>
  </clipPath>
 </defs>
</svg>
