<?xml version="1.0" encoding="utf-8" standalone="no"?>
<!DOCTYPE svg PUBLIC "-//W3C//DTD SVG 1.1//EN"
  "http://www.w3.org/Graphics/SVG/1.1/DTD/svg11.dtd">
<!-- Created with matplotlib (http://matplotlib.org/) -->
<svg height="277.314375pt" version="1.1" viewBox="0 0 395.665625 277.314375" width="395.665625pt" xmlns="http://www.w3.org/2000/svg" xmlns:xlink="http://www.w3.org/1999/xlink">
 <defs>
  <style type="text/css">
*{stroke-linecap:butt;stroke-linejoin:round;}
  </style>
 </defs>
 <g id="figure_1">
  <g id="patch_1">
   <path d="M 0 277.314375 
L 395.665625 277.314375 
L 395.665625 0 
L 0 0 
z
" style="fill:none;"/>
  </g>
  <g id="axes_1">
   <g id="patch_2">
    <path d="M 50.165625 239.758125 
L 384.965625 239.758125 
L 384.965625 22.318125 
L 50.165625 22.318125 
z
" style="fill:#ffffff;"/>
   </g>
   <g id="PathCollection_1">
    <defs>
     <path d="M 0 3 
C 0.795609 3 1.55874 2.683901 2.12132 2.12132 
C 2.683901 1.55874 3 0.795609 3 0 
C 3 -0.795609 2.683901 -1.55874 2.12132 -2.12132 
C 1.55874 -2.683901 0.795609 -3 0 -3 
C -0.795609 -3 -1.55874 -2.683901 -2.12132 -2.12132 
C -2.683901 -1.55874 -3 -0.795609 -3 0 
C -3 0.795609 -2.683901 1.55874 -2.12132 2.12132 
C -1.55874 2.683901 -0.795609 3 0 3 
z
" id="mf15a5a1316" style="stroke:#1f77b4;"/>
    </defs>
    <g clip-path="url(#p079c73383a)">
     <use style="fill:#1f77b4;stroke:#1f77b4;" x="65.41135" xlink:href="#mf15a5a1316" y="206.030041"/>
     <use style="fill:#1f77b4;stroke:#1f77b4;" x="68.485174" xlink:href="#mf15a5a1316" y="206.030041"/>
     <use style="fill:#1f77b4;stroke:#1f77b4;" x="71.558998" xlink:href="#mf15a5a1316" y="206.030041"/>
     <use style="fill:#1f77b4;stroke:#1f77b4;" x="74.632821" xlink:href="#mf15a5a1316" y="206.030041"/>
     <use style="fill:#1f77b4;stroke:#1f77b4;" x="77.706645" xlink:href="#mf15a5a1316" y="206.030041"/>
     <use style="fill:#1f77b4;stroke:#1f77b4;" x="80.780469" xlink:href="#mf15a5a1316" y="206.03004"/>
     <use style="fill:#1f77b4;stroke:#1f77b4;" x="83.854292" xlink:href="#mf15a5a1316" y="206.030037"/>
     <use style="fill:#1f77b4;stroke:#1f77b4;" x="86.928116" xlink:href="#mf15a5a1316" y="206.030017"/>
     <use style="fill:#1f77b4;stroke:#1f77b4;" x="90.00194" xlink:href="#mf15a5a1316" y="206.029922"/>
     <use style="fill:#1f77b4;stroke:#1f77b4;" x="93.075764" xlink:href="#mf15a5a1316" y="206.029522"/>
     <use style="fill:#1f77b4;stroke:#1f77b4;" x="96.149587" xlink:href="#mf15a5a1316" y="206.028018"/>
     <use style="fill:#1f77b4;stroke:#1f77b4;" x="99.223411" xlink:href="#mf15a5a1316" y="206.022948"/>
     <use style="fill:#1f77b4;stroke:#1f77b4;" x="102.297235" xlink:href="#mf15a5a1316" y="206.007496"/>
     <use style="fill:#1f77b4;stroke:#1f77b4;" x="105.371059" xlink:href="#mf15a5a1316" y="205.964635"/>
     <use style="fill:#1f77b4;stroke:#1f77b4;" x="108.444882" xlink:href="#mf15a5a1316" y="205.855849"/>
     <use style="fill:#1f77b4;stroke:#1f77b4;" x="111.518706" xlink:href="#mf15a5a1316" y="205.602026"/>
     <use style="fill:#1f77b4;stroke:#1f77b4;" x="114.59253" xlink:href="#mf15a5a1316" y="205.055543"/>
     <use style="fill:#1f77b4;stroke:#1f77b4;" x="117.666354" xlink:href="#mf15a5a1316" y="203.966398"/>
     <use style="fill:#1f77b4;stroke:#1f77b4;" x="120.740177" xlink:href="#mf15a5a1316" y="201.951889"/>
     <use style="fill:#1f77b4;stroke:#1f77b4;" x="123.814001" xlink:href="#mf15a5a1316" y="198.486993"/>
     <use style="fill:#1f77b4;stroke:#1f77b4;" x="126.887825" xlink:href="#mf15a5a1316" y="192.937466"/>
     <use style="fill:#1f77b4;stroke:#1f77b4;" x="129.961649" xlink:href="#mf15a5a1316" y="184.654408"/>
     <use style="fill:#1f77b4;stroke:#1f77b4;" x="133.035472" xlink:href="#mf15a5a1316" y="173.133775"/>
     <use style="fill:#1f77b4;stroke:#1f77b4;" x="136.109296" xlink:href="#mf15a5a1316" y="158.218077"/>
     <use style="fill:#1f77b4;stroke:#1f77b4;" x="139.18312" xlink:href="#mf15a5a1316" y="140.288591"/>
     <use style="fill:#1f77b4;stroke:#1f77b4;" x="142.256943" xlink:href="#mf15a5a1316" y="120.378323"/>
     <use style="fill:#1f77b4;stroke:#1f77b4;" x="145.330767" xlink:href="#mf15a5a1316" y="100.141928"/>
     <use style="fill:#1f77b4;stroke:#1f77b4;" x="148.404591" xlink:href="#mf15a5a1316" y="81.653527"/>
     <use style="fill:#1f77b4;stroke:#1f77b4;" x="151.478415" xlink:href="#mf15a5a1316" y="67.058324"/>
     <use style="fill:#1f77b4;stroke:#1f77b4;" x="154.552238" xlink:href="#mf15a5a1316" y="58.158658"/>
     <use style="fill:#1f77b4;stroke:#1f77b4;" x="157.626062" xlink:href="#mf15a5a1316" y="56.046209"/>
     <use style="fill:#1f77b4;stroke:#1f77b4;" x="160.699886" xlink:href="#mf15a5a1316" y="60.884397"/>
     <use style="fill:#1f77b4;stroke:#1f77b4;" x="163.77371" xlink:href="#mf15a5a1316" y="71.899915"/>
     <use style="fill:#1f77b4;stroke:#1f77b4;" x="166.847533" xlink:href="#mf15a5a1316" y="87.577462"/>
     <use style="fill:#1f77b4;stroke:#1f77b4;" x="169.921357" xlink:href="#mf15a5a1316" y="105.992359"/>
     <use style="fill:#1f77b4;stroke:#1f77b4;" x="172.995181" xlink:href="#mf15a5a1316" y="125.183261"/>
     <use style="fill:#1f77b4;stroke:#1f77b4;" x="176.069005" xlink:href="#mf15a5a1316" y="143.470033"/>
     <use style="fill:#1f77b4;stroke:#1f77b4;" x="179.142828" xlink:href="#mf15a5a1316" y="159.65351"/>
     <use style="fill:#1f77b4;stroke:#1f77b4;" x="182.216652" xlink:href="#mf15a5a1316" y="173.078295"/>
     <use style="fill:#1f77b4;stroke:#1f77b4;" x="185.290476" xlink:href="#mf15a5a1316" y="183.579401"/>
     <use style="fill:#1f77b4;stroke:#1f77b4;" x="188.3643" xlink:href="#mf15a5a1316" y="191.356944"/>
     <use style="fill:#1f77b4;stroke:#1f77b4;" x="191.438123" xlink:href="#mf15a5a1316" y="196.827402"/>
     <use style="fill:#1f77b4;stroke:#1f77b4;" x="194.511947" xlink:href="#mf15a5a1316" y="200.489676"/>
     <use style="fill:#1f77b4;stroke:#1f77b4;" x="197.585771" xlink:href="#mf15a5a1316" y="202.827305"/>
     <use style="fill:#1f77b4;stroke:#1f77b4;" x="200.659594" xlink:href="#mf15a5a1316" y="204.251899"/>
     <use style="fill:#1f77b4;stroke:#1f77b4;" x="203.733418" xlink:href="#mf15a5a1316" y="205.081698"/>
     <use style="fill:#1f77b4;stroke:#1f77b4;" x="206.807242" xlink:href="#mf15a5a1316" y="205.544089"/>
     <use style="fill:#1f77b4;stroke:#1f77b4;" x="209.881066" xlink:href="#mf15a5a1316" y="205.790757"/>
     <use style="fill:#1f77b4;stroke:#1f77b4;" x="212.954889" xlink:href="#mf15a5a1316" y="205.916808"/>
     <use style="fill:#1f77b4;stroke:#1f77b4;" x="216.028713" xlink:href="#mf15a5a1316" y="205.978541"/>
     <use style="fill:#1f77b4;stroke:#1f77b4;" x="219.102537" xlink:href="#mf15a5a1316" y="206.007528"/>
     <use style="fill:#1f77b4;stroke:#1f77b4;" x="222.176361" xlink:href="#mf15a5a1316" y="206.020582"/>
     <use style="fill:#1f77b4;stroke:#1f77b4;" x="225.250184" xlink:href="#mf15a5a1316" y="206.026221"/>
     <use style="fill:#1f77b4;stroke:#1f77b4;" x="228.324008" xlink:href="#mf15a5a1316" y="206.028558"/>
     <use style="fill:#1f77b4;stroke:#1f77b4;" x="231.397832" xlink:href="#mf15a5a1316" y="206.029488"/>
     <use style="fill:#1f77b4;stroke:#1f77b4;" x="234.471656" xlink:href="#mf15a5a1316" y="206.029842"/>
     <use style="fill:#1f77b4;stroke:#1f77b4;" x="237.545479" xlink:href="#mf15a5a1316" y="206.029972"/>
     <use style="fill:#1f77b4;stroke:#1f77b4;" x="240.619303" xlink:href="#mf15a5a1316" y="206.030018"/>
     <use style="fill:#1f77b4;stroke:#1f77b4;" x="243.693127" xlink:href="#mf15a5a1316" y="206.030034"/>
     <use style="fill:#1f77b4;stroke:#1f77b4;" x="246.76695" xlink:href="#mf15a5a1316" y="206.030038"/>
     <use style="fill:#1f77b4;stroke:#1f77b4;" x="249.840774" xlink:href="#mf15a5a1316" y="206.03004"/>
     <use style="fill:#1f77b4;stroke:#1f77b4;" x="252.914598" xlink:href="#mf15a5a1316" y="206.03004"/>
     <use style="fill:#1f77b4;stroke:#1f77b4;" x="255.988422" xlink:href="#mf15a5a1316" y="206.030041"/>
     <use style="fill:#1f77b4;stroke:#1f77b4;" x="259.062245" xlink:href="#mf15a5a1316" y="206.030041"/>
     <use style="fill:#1f77b4;stroke:#1f77b4;" x="262.136069" xlink:href="#mf15a5a1316" y="206.030041"/>
     <use style="fill:#1f77b4;stroke:#1f77b4;" x="265.209893" xlink:href="#mf15a5a1316" y="206.030041"/>
     <use style="fill:#1f77b4;stroke:#1f77b4;" x="268.283717" xlink:href="#mf15a5a1316" y="206.030041"/>
     <use style="fill:#1f77b4;stroke:#1f77b4;" x="271.35754" xlink:href="#mf15a5a1316" y="206.030041"/>
     <use style="fill:#1f77b4;stroke:#1f77b4;" x="274.431364" xlink:href="#mf15a5a1316" y="206.030041"/>
     <use style="fill:#1f77b4;stroke:#1f77b4;" x="277.505188" xlink:href="#mf15a5a1316" y="206.030041"/>
     <use style="fill:#1f77b4;stroke:#1f77b4;" x="280.579012" xlink:href="#mf15a5a1316" y="206.030041"/>
     <use style="fill:#1f77b4;stroke:#1f77b4;" x="283.652835" xlink:href="#mf15a5a1316" y="206.030041"/>
     <use style="fill:#1f77b4;stroke:#1f77b4;" x="286.726659" xlink:href="#mf15a5a1316" y="206.030041"/>
     <use style="fill:#1f77b4;stroke:#1f77b4;" x="289.800483" xlink:href="#mf15a5a1316" y="206.030041"/>
     <use style="fill:#1f77b4;stroke:#1f77b4;" x="292.874307" xlink:href="#mf15a5a1316" y="206.030041"/>
     <use style="fill:#1f77b4;stroke:#1f77b4;" x="295.94813" xlink:href="#mf15a5a1316" y="206.030041"/>
     <use style="fill:#1f77b4;stroke:#1f77b4;" x="299.021954" xlink:href="#mf15a5a1316" y="206.030041"/>
     <use style="fill:#1f77b4;stroke:#1f77b4;" x="302.095778" xlink:href="#mf15a5a1316" y="206.030041"/>
     <use style="fill:#1f77b4;stroke:#1f77b4;" x="305.169601" xlink:href="#mf15a5a1316" y="206.030041"/>
     <use style="fill:#1f77b4;stroke:#1f77b4;" x="308.243425" xlink:href="#mf15a5a1316" y="206.030041"/>
     <use style="fill:#1f77b4;stroke:#1f77b4;" x="311.317249" xlink:href="#mf15a5a1316" y="206.030041"/>
     <use style="fill:#1f77b4;stroke:#1f77b4;" x="314.391073" xlink:href="#mf15a5a1316" y="206.030041"/>
     <use style="fill:#1f77b4;stroke:#1f77b4;" x="317.464896" xlink:href="#mf15a5a1316" y="206.030041"/>
     <use style="fill:#1f77b4;stroke:#1f77b4;" x="320.53872" xlink:href="#mf15a5a1316" y="206.030041"/>
     <use style="fill:#1f77b4;stroke:#1f77b4;" x="323.612544" xlink:href="#mf15a5a1316" y="206.030041"/>
     <use style="fill:#1f77b4;stroke:#1f77b4;" x="326.686368" xlink:href="#mf15a5a1316" y="206.030041"/>
     <use style="fill:#1f77b4;stroke:#1f77b4;" x="329.760191" xlink:href="#mf15a5a1316" y="206.030041"/>
     <use style="fill:#1f77b4;stroke:#1f77b4;" x="332.834015" xlink:href="#mf15a5a1316" y="206.030041"/>
     <use style="fill:#1f77b4;stroke:#1f77b4;" x="335.907839" xlink:href="#mf15a5a1316" y="206.030041"/>
     <use style="fill:#1f77b4;stroke:#1f77b4;" x="338.981663" xlink:href="#mf15a5a1316" y="206.030041"/>
     <use style="fill:#1f77b4;stroke:#1f77b4;" x="342.055486" xlink:href="#mf15a5a1316" y="206.030041"/>
     <use style="fill:#1f77b4;stroke:#1f77b4;" x="345.12931" xlink:href="#mf15a5a1316" y="206.030041"/>
     <use style="fill:#1f77b4;stroke:#1f77b4;" x="348.203134" xlink:href="#mf15a5a1316" y="206.030041"/>
     <use style="fill:#1f77b4;stroke:#1f77b4;" x="351.276958" xlink:href="#mf15a5a1316" y="206.030041"/>
     <use style="fill:#1f77b4;stroke:#1f77b4;" x="354.350781" xlink:href="#mf15a5a1316" y="206.030041"/>
     <use style="fill:#1f77b4;stroke:#1f77b4;" x="357.424605" xlink:href="#mf15a5a1316" y="206.030041"/>
     <use style="fill:#1f77b4;stroke:#1f77b4;" x="360.498429" xlink:href="#mf15a5a1316" y="206.030041"/>
     <use style="fill:#1f77b4;stroke:#1f77b4;" x="363.572252" xlink:href="#mf15a5a1316" y="206.030041"/>
     <use style="fill:#1f77b4;stroke:#1f77b4;" x="366.646076" xlink:href="#mf15a5a1316" y="206.030041"/>
     <use style="fill:#1f77b4;stroke:#1f77b4;" x="369.7199" xlink:href="#mf15a5a1316" y="206.030041"/>
    </g>
   </g>
   <g id="matplotlib.axis_1">
    <g id="xtick_1">
     <g id="line2d_1">
      <path clip-path="url(#p079c73383a)" d="M 65.41135 239.758125 
L 65.41135 22.318125 
" style="fill:none;stroke:#b0b0b0;stroke-linecap:square;stroke-width:0.8;"/>
     </g>
     <g id="line2d_2">
      <defs>
       <path d="M 0 0 
L 0 3.5 
" id="md238fd892e" style="stroke:#000000;stroke-width:0.8;"/>
      </defs>
      <g>
       <use style="stroke:#000000;stroke-width:0.8;" x="65.41135" xlink:href="#md238fd892e" y="239.758125"/>
      </g>
     </g>
     <g id="text_1">
      <!-- 0 -->
      <defs>
       <path d="M 31.78125 66.40625 
Q 24.171875 66.40625 20.328125 58.90625 
Q 16.5 51.421875 16.5 36.375 
Q 16.5 21.390625 20.328125 13.890625 
Q 24.171875 6.390625 31.78125 6.390625 
Q 39.453125 6.390625 43.28125 13.890625 
Q 47.125 21.390625 47.125 36.375 
Q 47.125 51.421875 43.28125 58.90625 
Q 39.453125 66.40625 31.78125 66.40625 
z
M 31.78125 74.21875 
Q 44.046875 74.21875 50.515625 64.515625 
Q 56.984375 54.828125 56.984375 36.375 
Q 56.984375 17.96875 50.515625 8.265625 
Q 44.046875 -1.421875 31.78125 -1.421875 
Q 19.53125 -1.421875 13.0625 8.265625 
Q 6.59375 17.96875 6.59375 36.375 
Q 6.59375 54.828125 13.0625 64.515625 
Q 19.53125 74.21875 31.78125 74.21875 
z
" id="DejaVuSans-30"/>
      </defs>
      <g transform="translate(62.2301 254.356562)scale(0.1 -0.1)">
       <use xlink:href="#DejaVuSans-30"/>
      </g>
     </g>
    </g>
    <g id="xtick_2">
     <g id="line2d_3">
      <path clip-path="url(#p079c73383a)" d="M 126.887825 239.758125 
L 126.887825 22.318125 
" style="fill:none;stroke:#b0b0b0;stroke-linecap:square;stroke-width:0.8;"/>
     </g>
     <g id="line2d_4">
      <g>
       <use style="stroke:#000000;stroke-width:0.8;" x="126.887825" xlink:href="#md238fd892e" y="239.758125"/>
      </g>
     </g>
     <g id="text_2">
      <!-- 20 -->
      <defs>
       <path d="M 19.1875 8.296875 
L 53.609375 8.296875 
L 53.609375 0 
L 7.328125 0 
L 7.328125 8.296875 
Q 12.9375 14.109375 22.625 23.890625 
Q 32.328125 33.6875 34.8125 36.53125 
Q 39.546875 41.84375 41.421875 45.53125 
Q 43.3125 49.21875 43.3125 52.78125 
Q 43.3125 58.59375 39.234375 62.25 
Q 35.15625 65.921875 28.609375 65.921875 
Q 23.96875 65.921875 18.8125 64.3125 
Q 13.671875 62.703125 7.8125 59.421875 
L 7.8125 69.390625 
Q 13.765625 71.78125 18.9375 73 
Q 24.125 74.21875 28.421875 74.21875 
Q 39.75 74.21875 46.484375 68.546875 
Q 53.21875 62.890625 53.21875 53.421875 
Q 53.21875 48.921875 51.53125 44.890625 
Q 49.859375 40.875 45.40625 35.40625 
Q 44.1875 33.984375 37.640625 27.21875 
Q 31.109375 20.453125 19.1875 8.296875 
z
" id="DejaVuSans-32"/>
      </defs>
      <g transform="translate(120.525325 254.356562)scale(0.1 -0.1)">
       <use xlink:href="#DejaVuSans-32"/>
       <use x="63.623047" xlink:href="#DejaVuSans-30"/>
      </g>
     </g>
    </g>
    <g id="xtick_3">
     <g id="line2d_5">
      <path clip-path="url(#p079c73383a)" d="M 188.3643 239.758125 
L 188.3643 22.318125 
" style="fill:none;stroke:#b0b0b0;stroke-linecap:square;stroke-width:0.8;"/>
     </g>
     <g id="line2d_6">
      <g>
       <use style="stroke:#000000;stroke-width:0.8;" x="188.3643" xlink:href="#md238fd892e" y="239.758125"/>
      </g>
     </g>
     <g id="text_3">
      <!-- 40 -->
      <defs>
       <path d="M 37.796875 64.3125 
L 12.890625 25.390625 
L 37.796875 25.390625 
z
M 35.203125 72.90625 
L 47.609375 72.90625 
L 47.609375 25.390625 
L 58.015625 25.390625 
L 58.015625 17.1875 
L 47.609375 17.1875 
L 47.609375 0 
L 37.796875 0 
L 37.796875 17.1875 
L 4.890625 17.1875 
L 4.890625 26.703125 
z
" id="DejaVuSans-34"/>
      </defs>
      <g transform="translate(182.0018 254.356562)scale(0.1 -0.1)">
       <use xlink:href="#DejaVuSans-34"/>
       <use x="63.623047" xlink:href="#DejaVuSans-30"/>
      </g>
     </g>
    </g>
    <g id="xtick_4">
     <g id="line2d_7">
      <path clip-path="url(#p079c73383a)" d="M 249.840774 239.758125 
L 249.840774 22.318125 
" style="fill:none;stroke:#b0b0b0;stroke-linecap:square;stroke-width:0.8;"/>
     </g>
     <g id="line2d_8">
      <g>
       <use style="stroke:#000000;stroke-width:0.8;" x="249.840774" xlink:href="#md238fd892e" y="239.758125"/>
      </g>
     </g>
     <g id="text_4">
      <!-- 60 -->
      <defs>
       <path d="M 33.015625 40.375 
Q 26.375 40.375 22.484375 35.828125 
Q 18.609375 31.296875 18.609375 23.390625 
Q 18.609375 15.53125 22.484375 10.953125 
Q 26.375 6.390625 33.015625 6.390625 
Q 39.65625 6.390625 43.53125 10.953125 
Q 47.40625 15.53125 47.40625 23.390625 
Q 47.40625 31.296875 43.53125 35.828125 
Q 39.65625 40.375 33.015625 40.375 
z
M 52.59375 71.296875 
L 52.59375 62.3125 
Q 48.875 64.0625 45.09375 64.984375 
Q 41.3125 65.921875 37.59375 65.921875 
Q 27.828125 65.921875 22.671875 59.328125 
Q 17.53125 52.734375 16.796875 39.40625 
Q 19.671875 43.65625 24.015625 45.921875 
Q 28.375 48.1875 33.59375 48.1875 
Q 44.578125 48.1875 50.953125 41.515625 
Q 57.328125 34.859375 57.328125 23.390625 
Q 57.328125 12.15625 50.6875 5.359375 
Q 44.046875 -1.421875 33.015625 -1.421875 
Q 20.359375 -1.421875 13.671875 8.265625 
Q 6.984375 17.96875 6.984375 36.375 
Q 6.984375 53.65625 15.1875 63.9375 
Q 23.390625 74.21875 37.203125 74.21875 
Q 40.921875 74.21875 44.703125 73.484375 
Q 48.484375 72.75 52.59375 71.296875 
z
" id="DejaVuSans-36"/>
      </defs>
      <g transform="translate(243.478274 254.356562)scale(0.1 -0.1)">
       <use xlink:href="#DejaVuSans-36"/>
       <use x="63.623047" xlink:href="#DejaVuSans-30"/>
      </g>
     </g>
    </g>
    <g id="xtick_5">
     <g id="line2d_9">
      <path clip-path="url(#p079c73383a)" d="M 311.317249 239.758125 
L 311.317249 22.318125 
" style="fill:none;stroke:#b0b0b0;stroke-linecap:square;stroke-width:0.8;"/>
     </g>
     <g id="line2d_10">
      <g>
       <use style="stroke:#000000;stroke-width:0.8;" x="311.317249" xlink:href="#md238fd892e" y="239.758125"/>
      </g>
     </g>
     <g id="text_5">
      <!-- 80 -->
      <defs>
       <path d="M 31.78125 34.625 
Q 24.75 34.625 20.71875 30.859375 
Q 16.703125 27.09375 16.703125 20.515625 
Q 16.703125 13.921875 20.71875 10.15625 
Q 24.75 6.390625 31.78125 6.390625 
Q 38.8125 6.390625 42.859375 10.171875 
Q 46.921875 13.96875 46.921875 20.515625 
Q 46.921875 27.09375 42.890625 30.859375 
Q 38.875 34.625 31.78125 34.625 
z
M 21.921875 38.8125 
Q 15.578125 40.375 12.03125 44.71875 
Q 8.5 49.078125 8.5 55.328125 
Q 8.5 64.0625 14.71875 69.140625 
Q 20.953125 74.21875 31.78125 74.21875 
Q 42.671875 74.21875 48.875 69.140625 
Q 55.078125 64.0625 55.078125 55.328125 
Q 55.078125 49.078125 51.53125 44.71875 
Q 48 40.375 41.703125 38.8125 
Q 48.828125 37.15625 52.796875 32.3125 
Q 56.78125 27.484375 56.78125 20.515625 
Q 56.78125 9.90625 50.3125 4.234375 
Q 43.84375 -1.421875 31.78125 -1.421875 
Q 19.734375 -1.421875 13.25 4.234375 
Q 6.78125 9.90625 6.78125 20.515625 
Q 6.78125 27.484375 10.78125 32.3125 
Q 14.796875 37.15625 21.921875 38.8125 
z
M 18.3125 54.390625 
Q 18.3125 48.734375 21.84375 45.5625 
Q 25.390625 42.390625 31.78125 42.390625 
Q 38.140625 42.390625 41.71875 45.5625 
Q 45.3125 48.734375 45.3125 54.390625 
Q 45.3125 60.0625 41.71875 63.234375 
Q 38.140625 66.40625 31.78125 66.40625 
Q 25.390625 66.40625 21.84375 63.234375 
Q 18.3125 60.0625 18.3125 54.390625 
z
" id="DejaVuSans-38"/>
      </defs>
      <g transform="translate(304.954749 254.356562)scale(0.1 -0.1)">
       <use xlink:href="#DejaVuSans-38"/>
       <use x="63.623047" xlink:href="#DejaVuSans-30"/>
      </g>
     </g>
    </g>
    <g id="xtick_6">
     <g id="line2d_11">
      <path clip-path="url(#p079c73383a)" d="M 372.793724 239.758125 
L 372.793724 22.318125 
" style="fill:none;stroke:#b0b0b0;stroke-linecap:square;stroke-width:0.8;"/>
     </g>
     <g id="line2d_12">
      <g>
       <use style="stroke:#000000;stroke-width:0.8;" x="372.793724" xlink:href="#md238fd892e" y="239.758125"/>
      </g>
     </g>
     <g id="text_6">
      <!-- 100 -->
      <defs>
       <path d="M 12.40625 8.296875 
L 28.515625 8.296875 
L 28.515625 63.921875 
L 10.984375 60.40625 
L 10.984375 69.390625 
L 28.421875 72.90625 
L 38.28125 72.90625 
L 38.28125 8.296875 
L 54.390625 8.296875 
L 54.390625 0 
L 12.40625 0 
z
" id="DejaVuSans-31"/>
      </defs>
      <g transform="translate(363.249974 254.356562)scale(0.1 -0.1)">
       <use xlink:href="#DejaVuSans-31"/>
       <use x="63.623047" xlink:href="#DejaVuSans-30"/>
       <use x="127.246094" xlink:href="#DejaVuSans-30"/>
      </g>
     </g>
    </g>
    <g id="text_7">
     <!-- $r$ -->
     <defs>
      <path d="M 44.578125 46.390625 
Q 43.21875 47.125 41.453125 47.515625 
Q 39.703125 47.90625 37.703125 47.90625 
Q 30.515625 47.90625 25.140625 42.453125 
Q 19.78125 37.015625 18.015625 27.875 
L 12.5 0 
L 3.515625 0 
L 14.203125 54.6875 
L 23.1875 54.6875 
L 21.484375 46.1875 
Q 25.046875 50.921875 30 53.453125 
Q 34.96875 56 40.578125 56 
Q 42.046875 56 43.453125 55.828125 
Q 44.875 55.671875 46.296875 55.28125 
z
" id="DejaVuSans-Oblique-72"/>
     </defs>
     <g transform="translate(215.465625 268.034687)scale(0.1 -0.1)">
      <use xlink:href="#DejaVuSans-Oblique-72"/>
     </g>
    </g>
   </g>
   <g id="matplotlib.axis_2">
    <g id="ytick_1">
     <g id="line2d_13">
      <path clip-path="url(#p079c73383a)" d="M 50.165625 206.030041 
L 384.965625 206.030041 
" style="fill:none;stroke:#b0b0b0;stroke-linecap:square;stroke-width:0.8;"/>
     </g>
     <g id="line2d_14">
      <defs>
       <path d="M 0 0 
L -3.5 0 
" id="mf978f981b1" style="stroke:#000000;stroke-width:0.8;"/>
      </defs>
      <g>
       <use style="stroke:#000000;stroke-width:0.8;" x="50.165625" xlink:href="#mf978f981b1" y="206.030041"/>
      </g>
     </g>
     <g id="text_8">
      <!-- 0.00 -->
      <defs>
       <path d="M 10.6875 12.40625 
L 21 12.40625 
L 21 0 
L 10.6875 0 
z
" id="DejaVuSans-2e"/>
      </defs>
      <g transform="translate(20.9 209.829259)scale(0.1 -0.1)">
       <use xlink:href="#DejaVuSans-30"/>
       <use x="63.623047" xlink:href="#DejaVuSans-2e"/>
       <use x="95.410156" xlink:href="#DejaVuSans-30"/>
       <use x="159.033203" xlink:href="#DejaVuSans-30"/>
      </g>
     </g>
    </g>
    <g id="ytick_2">
     <g id="line2d_15">
      <path clip-path="url(#p079c73383a)" d="M 50.165625 171.465129 
L 384.965625 171.465129 
" style="fill:none;stroke:#b0b0b0;stroke-linecap:square;stroke-width:0.8;"/>
     </g>
     <g id="line2d_16">
      <g>
       <use style="stroke:#000000;stroke-width:0.8;" x="50.165625" xlink:href="#mf978f981b1" y="171.465129"/>
      </g>
     </g>
     <g id="text_9">
      <!-- 0.02 -->
      <g transform="translate(20.9 175.264348)scale(0.1 -0.1)">
       <use xlink:href="#DejaVuSans-30"/>
       <use x="63.623047" xlink:href="#DejaVuSans-2e"/>
       <use x="95.410156" xlink:href="#DejaVuSans-30"/>
       <use x="159.033203" xlink:href="#DejaVuSans-32"/>
      </g>
     </g>
    </g>
    <g id="ytick_3">
     <g id="line2d_17">
      <path clip-path="url(#p079c73383a)" d="M 50.165625 136.900217 
L 384.965625 136.900217 
" style="fill:none;stroke:#b0b0b0;stroke-linecap:square;stroke-width:0.8;"/>
     </g>
     <g id="line2d_18">
      <g>
       <use style="stroke:#000000;stroke-width:0.8;" x="50.165625" xlink:href="#mf978f981b1" y="136.900217"/>
      </g>
     </g>
     <g id="text_10">
      <!-- 0.04 -->
      <g transform="translate(20.9 140.699436)scale(0.1 -0.1)">
       <use xlink:href="#DejaVuSans-30"/>
       <use x="63.623047" xlink:href="#DejaVuSans-2e"/>
       <use x="95.410156" xlink:href="#DejaVuSans-30"/>
       <use x="159.033203" xlink:href="#DejaVuSans-34"/>
      </g>
     </g>
    </g>
    <g id="ytick_4">
     <g id="line2d_19">
      <path clip-path="url(#p079c73383a)" d="M 50.165625 102.335305 
L 384.965625 102.335305 
" style="fill:none;stroke:#b0b0b0;stroke-linecap:square;stroke-width:0.8;"/>
     </g>
     <g id="line2d_20">
      <g>
       <use style="stroke:#000000;stroke-width:0.8;" x="50.165625" xlink:href="#mf978f981b1" y="102.335305"/>
      </g>
     </g>
     <g id="text_11">
      <!-- 0.06 -->
      <g transform="translate(20.9 106.134524)scale(0.1 -0.1)">
       <use xlink:href="#DejaVuSans-30"/>
       <use x="63.623047" xlink:href="#DejaVuSans-2e"/>
       <use x="95.410156" xlink:href="#DejaVuSans-30"/>
       <use x="159.033203" xlink:href="#DejaVuSans-36"/>
      </g>
     </g>
    </g>
    <g id="ytick_5">
     <g id="line2d_21">
      <path clip-path="url(#p079c73383a)" d="M 50.165625 67.770394 
L 384.965625 67.770394 
" style="fill:none;stroke:#b0b0b0;stroke-linecap:square;stroke-width:0.8;"/>
     </g>
     <g id="line2d_22">
      <g>
       <use style="stroke:#000000;stroke-width:0.8;" x="50.165625" xlink:href="#mf978f981b1" y="67.770394"/>
      </g>
     </g>
     <g id="text_12">
      <!-- 0.08 -->
      <g transform="translate(20.9 71.569612)scale(0.1 -0.1)">
       <use xlink:href="#DejaVuSans-30"/>
       <use x="63.623047" xlink:href="#DejaVuSans-2e"/>
       <use x="95.410156" xlink:href="#DejaVuSans-30"/>
       <use x="159.033203" xlink:href="#DejaVuSans-38"/>
      </g>
     </g>
    </g>
    <g id="ytick_6">
     <g id="line2d_23">
      <path clip-path="url(#p079c73383a)" d="M 50.165625 33.205482 
L 384.965625 33.205482 
" style="fill:none;stroke:#b0b0b0;stroke-linecap:square;stroke-width:0.8;"/>
     </g>
     <g id="line2d_24">
      <g>
       <use style="stroke:#000000;stroke-width:0.8;" x="50.165625" xlink:href="#mf978f981b1" y="33.205482"/>
      </g>
     </g>
     <g id="text_13">
      <!-- 0.10 -->
      <g transform="translate(20.9 37.004701)scale(0.1 -0.1)">
       <use xlink:href="#DejaVuSans-30"/>
       <use x="63.623047" xlink:href="#DejaVuSans-2e"/>
       <use x="95.410156" xlink:href="#DejaVuSans-31"/>
       <use x="159.033203" xlink:href="#DejaVuSans-30"/>
      </g>
     </g>
    </g>
    <g id="text_14">
     <!-- $B(n,p)$ -->
     <defs>
      <path d="M 16.890625 72.90625 
L 42.09375 72.90625 
Q 52.34375 72.90625 57.421875 69.09375 
Q 62.5 65.28125 62.5 57.625 
Q 62.5 50.59375 58.125 45.484375 
Q 53.765625 40.375 46.6875 39.3125 
Q 52.734375 37.9375 55.765625 34.078125 
Q 58.796875 30.21875 58.796875 23.78125 
Q 58.796875 12.796875 50.65625 6.390625 
Q 42.53125 0 28.421875 0 
L 2.6875 0 
z
M 19.28125 34.8125 
L 14.109375 8.109375 
L 29.984375 8.109375 
Q 38.921875 8.109375 43.75 12.203125 
Q 48.578125 16.3125 48.578125 23.78125 
Q 48.578125 29.546875 45.375 32.171875 
Q 42.1875 34.8125 35.109375 34.8125 
z
M 25.09375 64.796875 
L 20.796875 42.828125 
L 35.5 42.828125 
Q 43.359375 42.828125 47.78125 46.234375 
Q 52.203125 49.65625 52.203125 55.71875 
Q 52.203125 60.453125 49.21875 62.625 
Q 46.234375 64.796875 39.703125 64.796875 
z
" id="DejaVuSans-Oblique-42"/>
      <path d="M 31 75.875 
Q 24.46875 64.65625 21.28125 53.65625 
Q 18.109375 42.671875 18.109375 31.390625 
Q 18.109375 20.125 21.3125 9.0625 
Q 24.515625 -2 31 -13.1875 
L 23.1875 -13.1875 
Q 15.875 -1.703125 12.234375 9.375 
Q 8.59375 20.453125 8.59375 31.390625 
Q 8.59375 42.28125 12.203125 53.3125 
Q 15.828125 64.359375 23.1875 75.875 
z
" id="DejaVuSans-28"/>
      <path d="M 55.71875 33.015625 
L 49.3125 0 
L 40.28125 0 
L 46.6875 32.671875 
Q 47.125 34.96875 47.359375 36.71875 
Q 47.609375 38.484375 47.609375 39.5 
Q 47.609375 43.609375 45.015625 45.890625 
Q 42.4375 48.1875 37.796875 48.1875 
Q 30.5625 48.1875 25.34375 43.375 
Q 20.125 38.578125 18.5 30.328125 
L 12.5 0 
L 3.515625 0 
L 14.109375 54.6875 
L 23.09375 54.6875 
L 21.296875 46.09375 
Q 25.046875 50.828125 30.3125 53.40625 
Q 35.59375 56 41.40625 56 
Q 48.640625 56 52.609375 52.09375 
Q 56.59375 48.1875 56.59375 41.109375 
Q 56.59375 39.359375 56.375 37.359375 
Q 56.15625 35.359375 55.71875 33.015625 
z
" id="DejaVuSans-Oblique-6e"/>
      <path d="M 11.71875 12.40625 
L 22.015625 12.40625 
L 22.015625 4 
L 14.015625 -11.625 
L 7.71875 -11.625 
L 11.71875 4 
z
" id="DejaVuSans-2c"/>
      <path d="M 49.609375 33.6875 
Q 49.609375 40.875 46.484375 44.671875 
Q 43.359375 48.484375 37.5 48.484375 
Q 33.5 48.484375 29.859375 46.4375 
Q 26.21875 44.390625 23.390625 40.484375 
Q 20.609375 36.625 18.9375 31.15625 
Q 17.28125 25.6875 17.28125 20.3125 
Q 17.28125 13.484375 20.40625 9.796875 
Q 23.53125 6.109375 29.296875 6.109375 
Q 33.546875 6.109375 37.1875 8.109375 
Q 40.828125 10.109375 43.40625 13.921875 
Q 46.1875 17.921875 47.890625 23.34375 
Q 49.609375 28.765625 49.609375 33.6875 
z
M 21.78125 46.390625 
Q 25.390625 51.125 30.296875 53.5625 
Q 35.203125 56 41.21875 56 
Q 49.609375 56 54.25 50.5 
Q 58.890625 45.015625 58.890625 35.109375 
Q 58.890625 27 56 19.65625 
Q 53.125 12.3125 47.703125 6.5 
Q 44.09375 2.640625 39.546875 0.609375 
Q 35.015625 -1.421875 29.984375 -1.421875 
Q 24.171875 -1.421875 20.21875 1 
Q 16.265625 3.421875 14.3125 8.203125 
L 8.6875 -20.796875 
L -0.296875 -20.796875 
L 14.40625 54.6875 
L 23.390625 54.6875 
z
" id="DejaVuSans-Oblique-70"/>
      <path d="M 8.015625 75.875 
L 15.828125 75.875 
Q 23.140625 64.359375 26.78125 53.3125 
Q 30.421875 42.28125 30.421875 31.390625 
Q 30.421875 20.453125 26.78125 9.375 
Q 23.140625 -1.703125 15.828125 -13.1875 
L 8.015625 -13.1875 
Q 14.5 -2 17.703125 9.0625 
Q 20.90625 20.125 20.90625 31.390625 
Q 20.90625 42.671875 17.703125 53.65625 
Q 14.5 64.65625 8.015625 75.875 
z
" id="DejaVuSans-29"/>
     </defs>
     <g transform="translate(14.8 147.288125)rotate(-90)scale(0.1 -0.1)">
      <use transform="translate(0 0.125)" xlink:href="#DejaVuSans-Oblique-42"/>
      <use transform="translate(68.603516 0.125)" xlink:href="#DejaVuSans-28"/>
      <use transform="translate(107.617188 0.125)" xlink:href="#DejaVuSans-Oblique-6e"/>
      <use transform="translate(170.996094 0.125)" xlink:href="#DejaVuSans-2c"/>
      <use transform="translate(222.265625 0.125)" xlink:href="#DejaVuSans-Oblique-70"/>
      <use transform="translate(285.742188 0.125)" xlink:href="#DejaVuSans-29"/>
     </g>
    </g>
   </g>
   <g id="patch_3">
    <path d="M 50.165625 239.758125 
L 50.165625 22.318125 
" style="fill:none;stroke:#000000;stroke-linecap:square;stroke-linejoin:miter;stroke-width:0.8;"/>
   </g>
   <g id="patch_4">
    <path d="M 384.965625 239.758125 
L 384.965625 22.318125 
" style="fill:none;stroke:#000000;stroke-linecap:square;stroke-linejoin:miter;stroke-width:0.8;"/>
   </g>
   <g id="patch_5">
    <path d="M 50.165625 239.758125 
L 384.965625 239.758125 
" style="fill:none;stroke:#000000;stroke-linecap:square;stroke-linejoin:miter;stroke-width:0.8;"/>
   </g>
   <g id="patch_6">
    <path d="M 50.165625 22.318125 
L 384.965625 22.318125 
" style="fill:none;stroke:#000000;stroke-linecap:square;stroke-linejoin:miter;stroke-width:0.8;"/>
   </g>
   <g id="text_15">
    <!-- binomial distribution n=100, p=0.3 -->
    <defs>
     <path d="M 48.6875 27.296875 
Q 48.6875 37.203125 44.609375 42.84375 
Q 40.53125 48.484375 33.40625 48.484375 
Q 26.265625 48.484375 22.1875 42.84375 
Q 18.109375 37.203125 18.109375 27.296875 
Q 18.109375 17.390625 22.1875 11.75 
Q 26.265625 6.109375 33.40625 6.109375 
Q 40.53125 6.109375 44.609375 11.75 
Q 48.6875 17.390625 48.6875 27.296875 
z
M 18.109375 46.390625 
Q 20.953125 51.265625 25.265625 53.625 
Q 29.59375 56 35.59375 56 
Q 45.5625 56 51.78125 48.09375 
Q 58.015625 40.1875 58.015625 27.296875 
Q 58.015625 14.40625 51.78125 6.484375 
Q 45.5625 -1.421875 35.59375 -1.421875 
Q 29.59375 -1.421875 25.265625 0.953125 
Q 20.953125 3.328125 18.109375 8.203125 
L 18.109375 0 
L 9.078125 0 
L 9.078125 75.984375 
L 18.109375 75.984375 
z
" id="DejaVuSans-62"/>
     <path d="M 9.421875 54.6875 
L 18.40625 54.6875 
L 18.40625 0 
L 9.421875 0 
z
M 9.421875 75.984375 
L 18.40625 75.984375 
L 18.40625 64.59375 
L 9.421875 64.59375 
z
" id="DejaVuSans-69"/>
     <path d="M 54.890625 33.015625 
L 54.890625 0 
L 45.90625 0 
L 45.90625 32.71875 
Q 45.90625 40.484375 42.875 44.328125 
Q 39.84375 48.1875 33.796875 48.1875 
Q 26.515625 48.1875 22.3125 43.546875 
Q 18.109375 38.921875 18.109375 30.90625 
L 18.109375 0 
L 9.078125 0 
L 9.078125 54.6875 
L 18.109375 54.6875 
L 18.109375 46.1875 
Q 21.34375 51.125 25.703125 53.5625 
Q 30.078125 56 35.796875 56 
Q 45.21875 56 50.046875 50.171875 
Q 54.890625 44.34375 54.890625 33.015625 
z
" id="DejaVuSans-6e"/>
     <path d="M 30.609375 48.390625 
Q 23.390625 48.390625 19.1875 42.75 
Q 14.984375 37.109375 14.984375 27.296875 
Q 14.984375 17.484375 19.15625 11.84375 
Q 23.34375 6.203125 30.609375 6.203125 
Q 37.796875 6.203125 41.984375 11.859375 
Q 46.1875 17.53125 46.1875 27.296875 
Q 46.1875 37.015625 41.984375 42.703125 
Q 37.796875 48.390625 30.609375 48.390625 
z
M 30.609375 56 
Q 42.328125 56 49.015625 48.375 
Q 55.71875 40.765625 55.71875 27.296875 
Q 55.71875 13.875 49.015625 6.21875 
Q 42.328125 -1.421875 30.609375 -1.421875 
Q 18.84375 -1.421875 12.171875 6.21875 
Q 5.515625 13.875 5.515625 27.296875 
Q 5.515625 40.765625 12.171875 48.375 
Q 18.84375 56 30.609375 56 
z
" id="DejaVuSans-6f"/>
     <path d="M 52 44.1875 
Q 55.375 50.25 60.0625 53.125 
Q 64.75 56 71.09375 56 
Q 79.640625 56 84.28125 50.015625 
Q 88.921875 44.046875 88.921875 33.015625 
L 88.921875 0 
L 79.890625 0 
L 79.890625 32.71875 
Q 79.890625 40.578125 77.09375 44.375 
Q 74.3125 48.1875 68.609375 48.1875 
Q 61.625 48.1875 57.5625 43.546875 
Q 53.515625 38.921875 53.515625 30.90625 
L 53.515625 0 
L 44.484375 0 
L 44.484375 32.71875 
Q 44.484375 40.625 41.703125 44.40625 
Q 38.921875 48.1875 33.109375 48.1875 
Q 26.21875 48.1875 22.15625 43.53125 
Q 18.109375 38.875 18.109375 30.90625 
L 18.109375 0 
L 9.078125 0 
L 9.078125 54.6875 
L 18.109375 54.6875 
L 18.109375 46.1875 
Q 21.1875 51.21875 25.484375 53.609375 
Q 29.78125 56 35.6875 56 
Q 41.65625 56 45.828125 52.96875 
Q 50 49.953125 52 44.1875 
z
" id="DejaVuSans-6d"/>
     <path d="M 34.28125 27.484375 
Q 23.390625 27.484375 19.1875 25 
Q 14.984375 22.515625 14.984375 16.5 
Q 14.984375 11.71875 18.140625 8.90625 
Q 21.296875 6.109375 26.703125 6.109375 
Q 34.1875 6.109375 38.703125 11.40625 
Q 43.21875 16.703125 43.21875 25.484375 
L 43.21875 27.484375 
z
M 52.203125 31.203125 
L 52.203125 0 
L 43.21875 0 
L 43.21875 8.296875 
Q 40.140625 3.328125 35.546875 0.953125 
Q 30.953125 -1.421875 24.3125 -1.421875 
Q 15.921875 -1.421875 10.953125 3.296875 
Q 6 8.015625 6 15.921875 
Q 6 25.140625 12.171875 29.828125 
Q 18.359375 34.515625 30.609375 34.515625 
L 43.21875 34.515625 
L 43.21875 35.40625 
Q 43.21875 41.609375 39.140625 45 
Q 35.0625 48.390625 27.6875 48.390625 
Q 23 48.390625 18.546875 47.265625 
Q 14.109375 46.140625 10.015625 43.890625 
L 10.015625 52.203125 
Q 14.9375 54.109375 19.578125 55.046875 
Q 24.21875 56 28.609375 56 
Q 40.484375 56 46.34375 49.84375 
Q 52.203125 43.703125 52.203125 31.203125 
z
" id="DejaVuSans-61"/>
     <path d="M 9.421875 75.984375 
L 18.40625 75.984375 
L 18.40625 0 
L 9.421875 0 
z
" id="DejaVuSans-6c"/>
     <path id="DejaVuSans-20"/>
     <path d="M 45.40625 46.390625 
L 45.40625 75.984375 
L 54.390625 75.984375 
L 54.390625 0 
L 45.40625 0 
L 45.40625 8.203125 
Q 42.578125 3.328125 38.25 0.953125 
Q 33.9375 -1.421875 27.875 -1.421875 
Q 17.96875 -1.421875 11.734375 6.484375 
Q 5.515625 14.40625 5.515625 27.296875 
Q 5.515625 40.1875 11.734375 48.09375 
Q 17.96875 56 27.875 56 
Q 33.9375 56 38.25 53.625 
Q 42.578125 51.265625 45.40625 46.390625 
z
M 14.796875 27.296875 
Q 14.796875 17.390625 18.875 11.75 
Q 22.953125 6.109375 30.078125 6.109375 
Q 37.203125 6.109375 41.296875 11.75 
Q 45.40625 17.390625 45.40625 27.296875 
Q 45.40625 37.203125 41.296875 42.84375 
Q 37.203125 48.484375 30.078125 48.484375 
Q 22.953125 48.484375 18.875 42.84375 
Q 14.796875 37.203125 14.796875 27.296875 
z
" id="DejaVuSans-64"/>
     <path d="M 44.28125 53.078125 
L 44.28125 44.578125 
Q 40.484375 46.53125 36.375 47.5 
Q 32.28125 48.484375 27.875 48.484375 
Q 21.1875 48.484375 17.84375 46.4375 
Q 14.5 44.390625 14.5 40.28125 
Q 14.5 37.15625 16.890625 35.375 
Q 19.28125 33.59375 26.515625 31.984375 
L 29.59375 31.296875 
Q 39.15625 29.25 43.1875 25.515625 
Q 47.21875 21.78125 47.21875 15.09375 
Q 47.21875 7.46875 41.1875 3.015625 
Q 35.15625 -1.421875 24.609375 -1.421875 
Q 20.21875 -1.421875 15.453125 -0.5625 
Q 10.6875 0.296875 5.421875 2 
L 5.421875 11.28125 
Q 10.40625 8.6875 15.234375 7.390625 
Q 20.0625 6.109375 24.8125 6.109375 
Q 31.15625 6.109375 34.5625 8.28125 
Q 37.984375 10.453125 37.984375 14.40625 
Q 37.984375 18.0625 35.515625 20.015625 
Q 33.0625 21.96875 24.703125 23.78125 
L 21.578125 24.515625 
Q 13.234375 26.265625 9.515625 29.90625 
Q 5.8125 33.546875 5.8125 39.890625 
Q 5.8125 47.609375 11.28125 51.796875 
Q 16.75 56 26.8125 56 
Q 31.78125 56 36.171875 55.265625 
Q 40.578125 54.546875 44.28125 53.078125 
z
" id="DejaVuSans-73"/>
     <path d="M 18.3125 70.21875 
L 18.3125 54.6875 
L 36.8125 54.6875 
L 36.8125 47.703125 
L 18.3125 47.703125 
L 18.3125 18.015625 
Q 18.3125 11.328125 20.140625 9.421875 
Q 21.96875 7.515625 27.59375 7.515625 
L 36.8125 7.515625 
L 36.8125 0 
L 27.59375 0 
Q 17.1875 0 13.234375 3.875 
Q 9.28125 7.765625 9.28125 18.015625 
L 9.28125 47.703125 
L 2.6875 47.703125 
L 2.6875 54.6875 
L 9.28125 54.6875 
L 9.28125 70.21875 
z
" id="DejaVuSans-74"/>
     <path d="M 41.109375 46.296875 
Q 39.59375 47.171875 37.8125 47.578125 
Q 36.03125 48 33.890625 48 
Q 26.265625 48 22.1875 43.046875 
Q 18.109375 38.09375 18.109375 28.8125 
L 18.109375 0 
L 9.078125 0 
L 9.078125 54.6875 
L 18.109375 54.6875 
L 18.109375 46.1875 
Q 20.953125 51.171875 25.484375 53.578125 
Q 30.03125 56 36.53125 56 
Q 37.453125 56 38.578125 55.875 
Q 39.703125 55.765625 41.0625 55.515625 
z
" id="DejaVuSans-72"/>
     <path d="M 8.5 21.578125 
L 8.5 54.6875 
L 17.484375 54.6875 
L 17.484375 21.921875 
Q 17.484375 14.15625 20.5 10.265625 
Q 23.53125 6.390625 29.59375 6.390625 
Q 36.859375 6.390625 41.078125 11.03125 
Q 45.3125 15.671875 45.3125 23.6875 
L 45.3125 54.6875 
L 54.296875 54.6875 
L 54.296875 0 
L 45.3125 0 
L 45.3125 8.40625 
Q 42.046875 3.421875 37.71875 1 
Q 33.40625 -1.421875 27.6875 -1.421875 
Q 18.265625 -1.421875 13.375 4.4375 
Q 8.5 10.296875 8.5 21.578125 
z
M 31.109375 56 
z
" id="DejaVuSans-75"/>
     <path d="M 10.59375 45.40625 
L 73.1875 45.40625 
L 73.1875 37.203125 
L 10.59375 37.203125 
z
M 10.59375 25.484375 
L 73.1875 25.484375 
L 73.1875 17.1875 
L 10.59375 17.1875 
z
" id="DejaVuSans-3d"/>
     <path d="M 18.109375 8.203125 
L 18.109375 -20.796875 
L 9.078125 -20.796875 
L 9.078125 54.6875 
L 18.109375 54.6875 
L 18.109375 46.390625 
Q 20.953125 51.265625 25.265625 53.625 
Q 29.59375 56 35.59375 56 
Q 45.5625 56 51.78125 48.09375 
Q 58.015625 40.1875 58.015625 27.296875 
Q 58.015625 14.40625 51.78125 6.484375 
Q 45.5625 -1.421875 35.59375 -1.421875 
Q 29.59375 -1.421875 25.265625 0.953125 
Q 20.953125 3.328125 18.109375 8.203125 
z
M 48.6875 27.296875 
Q 48.6875 37.203125 44.609375 42.84375 
Q 40.53125 48.484375 33.40625 48.484375 
Q 26.265625 48.484375 22.1875 42.84375 
Q 18.109375 37.203125 18.109375 27.296875 
Q 18.109375 17.390625 22.1875 11.75 
Q 26.265625 6.109375 33.40625 6.109375 
Q 40.53125 6.109375 44.609375 11.75 
Q 48.6875 17.390625 48.6875 27.296875 
z
" id="DejaVuSans-70"/>
     <path d="M 40.578125 39.3125 
Q 47.65625 37.796875 51.625 33 
Q 55.609375 28.21875 55.609375 21.1875 
Q 55.609375 10.40625 48.1875 4.484375 
Q 40.765625 -1.421875 27.09375 -1.421875 
Q 22.515625 -1.421875 17.65625 -0.515625 
Q 12.796875 0.390625 7.625 2.203125 
L 7.625 11.71875 
Q 11.71875 9.328125 16.59375 8.109375 
Q 21.484375 6.890625 26.8125 6.890625 
Q 36.078125 6.890625 40.9375 10.546875 
Q 45.796875 14.203125 45.796875 21.1875 
Q 45.796875 27.640625 41.28125 31.265625 
Q 36.765625 34.90625 28.71875 34.90625 
L 20.21875 34.90625 
L 20.21875 43.015625 
L 29.109375 43.015625 
Q 36.375 43.015625 40.234375 45.921875 
Q 44.09375 48.828125 44.09375 54.296875 
Q 44.09375 59.90625 40.109375 62.90625 
Q 36.140625 65.921875 28.71875 65.921875 
Q 24.65625 65.921875 20.015625 65.03125 
Q 15.375 64.15625 9.8125 62.3125 
L 9.8125 71.09375 
Q 15.4375 72.65625 20.34375 73.4375 
Q 25.25 74.21875 29.59375 74.21875 
Q 40.828125 74.21875 47.359375 69.109375 
Q 53.90625 64.015625 53.90625 55.328125 
Q 53.90625 49.265625 50.4375 45.09375 
Q 46.96875 40.921875 40.578125 39.3125 
z
" id="DejaVuSans-33"/>
    </defs>
    <g transform="translate(111.280312 16.318125)scale(0.12 -0.12)">
     <use xlink:href="#DejaVuSans-62"/>
     <use x="63.476562" xlink:href="#DejaVuSans-69"/>
     <use x="91.259766" xlink:href="#DejaVuSans-6e"/>
     <use x="154.638672" xlink:href="#DejaVuSans-6f"/>
     <use x="215.820312" xlink:href="#DejaVuSans-6d"/>
     <use x="313.232422" xlink:href="#DejaVuSans-69"/>
     <use x="341.015625" xlink:href="#DejaVuSans-61"/>
     <use x="402.294922" xlink:href="#DejaVuSans-6c"/>
     <use x="430.078125" xlink:href="#DejaVuSans-20"/>
     <use x="461.865234" xlink:href="#DejaVuSans-64"/>
     <use x="525.341797" xlink:href="#DejaVuSans-69"/>
     <use x="553.125" xlink:href="#DejaVuSans-73"/>
     <use x="605.224609" xlink:href="#DejaVuSans-74"/>
     <use x="644.433594" xlink:href="#DejaVuSans-72"/>
     <use x="685.546875" xlink:href="#DejaVuSans-69"/>
     <use x="713.330078" xlink:href="#DejaVuSans-62"/>
     <use x="776.806641" xlink:href="#DejaVuSans-75"/>
     <use x="840.185547" xlink:href="#DejaVuSans-74"/>
     <use x="879.394531" xlink:href="#DejaVuSans-69"/>
     <use x="907.177734" xlink:href="#DejaVuSans-6f"/>
     <use x="968.359375" xlink:href="#DejaVuSans-6e"/>
     <use x="1031.738281" xlink:href="#DejaVuSans-20"/>
     <use x="1063.525391" xlink:href="#DejaVuSans-6e"/>
     <use x="1126.904297" xlink:href="#DejaVuSans-3d"/>
     <use x="1210.693359" xlink:href="#DejaVuSans-31"/>
     <use x="1274.316406" xlink:href="#DejaVuSans-30"/>
     <use x="1337.939453" xlink:href="#DejaVuSans-30"/>
     <use x="1401.5625" xlink:href="#DejaVuSans-2c"/>
     <use x="1433.349609" xlink:href="#DejaVuSans-20"/>
     <use x="1465.136719" xlink:href="#DejaVuSans-70"/>
     <use x="1528.613281" xlink:href="#DejaVuSans-3d"/>
     <use x="1612.402344" xlink:href="#DejaVuSans-30"/>
     <use x="1676.025391" xlink:href="#DejaVuSans-2e"/>
     <use x="1707.8125" xlink:href="#DejaVuSans-33"/>
    </g>
   </g>
  </g>
 </g>
 <defs>
  <clipPath id="p079c73383a">
   <rect height="217.44" width="334.8" x="50.165625" y="22.318125"/>
  </clipPath>
 </defs>
</svg>
