<?xml version="1.0" encoding="utf-8" standalone="no"?>
<!DOCTYPE svg PUBLIC "-//W3C//DTD SVG 1.1//EN"
  "http://www.w3.org/Graphics/SVG/1.1/DTD/svg11.dtd">
<!-- Created with matplotlib (https://matplotlib.org/) -->
<svg height="302.4pt" version="1.1" viewBox="0 0 446.4 302.4" width="446.4pt" xmlns="http://www.w3.org/2000/svg" xmlns:xlink="http://www.w3.org/1999/xlink">
 <defs>
  <style type="text/css">
*{stroke-linecap:butt;stroke-linejoin:round;}
  </style>
 </defs>
 <g id="figure_1">
  <g id="patch_1">
   <path d="M 0 302.4 
L 446.4 302.4 
L 446.4 0 
L 0 0 
z
" style="fill:none;"/>
  </g>
  <g id="patch_2">
   <path d="M 7.2 295.2 
L 439.2 295.2 
L 439.2 7.2 
L 7.2 7.2 
z
" style="fill:#ffffff;"/>
  </g>
  <g id="pane3d_1">
   <g id="patch_3">
    <path d="M 64.468276 231.56215 
L 188.108936 160.951075 
L 186.05045 26.024902 
L 55.516013 89.4675 
" style="fill:#f2f2f2;opacity:0.5;stroke:#f2f2f2;stroke-linejoin:miter;"/>
   </g>
  </g>
  <g id="pane3d_2">
   <g id="patch_4">
    <path d="M 188.108936 160.951075 
L 388.395181 200.427223 
L 396.774918 61.432405 
L 186.05045 26.024902 
" style="fill:#e6e6e6;opacity:0.5;stroke:#e6e6e6;stroke-linejoin:miter;"/>
   </g>
  </g>
  <g id="pane3d_3">
   <g id="patch_5">
    <path d="M 64.468276 231.56215 
L 275.196469 277.538555 
L 388.395181 200.427223 
L 188.108936 160.951075 
" style="fill:#ececec;opacity:0.5;stroke:#ececec;stroke-linejoin:miter;"/>
   </g>
  </g>
  <g id="axis3d_1">
   <g id="line2d_1">
    <path d="M 64.468276 231.56215 
L 275.196469 277.538555 
" style="fill:none;stroke:#000000;stroke-linecap:square;stroke-width:0.8;"/>
   </g>
   <g id="text_1">
    <!-- $x_1$ -->
    <defs>
     <path d="M 60.015625 54.6875 
L 34.90625 27.875 
L 50.296875 0 
L 39.984375 0 
L 28.421875 21.6875 
L 8.296875 0 
L -2.59375 0 
L 24.3125 28.8125 
L 10.015625 54.6875 
L 20.3125 54.6875 
L 30.8125 34.90625 
L 49.125 54.6875 
z
" id="DejaVuSans-Oblique-120"/>
     <path d="M 12.40625 8.296875 
L 28.515625 8.296875 
L 28.515625 63.921875 
L 10.984375 60.40625 
L 10.984375 69.390625 
L 28.421875 72.90625 
L 38.28125 72.90625 
L 38.28125 8.296875 
L 54.390625 8.296875 
L 54.390625 0 
L 12.40625 0 
z
" id="DejaVuSans-49"/>
    </defs>
    <g transform="translate(144.903858 284.515675)rotate(-347.692154)scale(0.1 -0.1)">
     <use transform="translate(0 0.3125)" xlink:href="#DejaVuSans-Oblique-120"/>
     <use transform="translate(59.179688 -16.09375)scale(0.7)" xlink:href="#DejaVuSans-49"/>
    </g>
   </g>
   <g id="Line3DCollection_1">
    <path d="M 77.315627 234.365168 
L 200.358191 163.365387 
L 198.911762 28.185955 
" style="fill:none;stroke:#b0b0b0;stroke-width:0.8;"/>
    <path d="M 106.957924 240.832486 
L 228.601386 168.932082 
L 228.579233 33.170906 
" style="fill:none;stroke:#b0b0b0;stroke-width:0.8;"/>
    <path d="M 136.991704 247.385218 
L 257.190394 174.566937 
L 258.628513 38.220011 
" style="fill:none;stroke:#b0b0b0;stroke-width:0.8;"/>
    <path d="M 167.424774 254.025066 
L 286.131606 180.271211 
L 289.067019 43.334517 
" style="fill:none;stroke:#b0b0b0;stroke-width:0.8;"/>
    <path d="M 198.26515 260.753779 
L 315.431571 186.046194 
L 319.902363 48.515702 
" style="fill:none;stroke:#b0b0b0;stroke-width:0.8;"/>
    <path d="M 229.521064 267.573154 
L 345.097 191.89321 
L 351.142357 53.76488 
" style="fill:none;stroke:#b0b0b0;stroke-width:0.8;"/>
    <path d="M 261.200972 274.485036 
L 375.134774 197.813614 
L 382.795018 59.083397 
" style="fill:none;stroke:#b0b0b0;stroke-width:0.8;"/>
   </g>
   <g id="xtick_1">
    <g id="line2d_2">
     <path d="M 78.375702 233.753469 
L 75.191523 235.590849 
" style="fill:none;stroke:#000000;stroke-linecap:square;stroke-width:0.8;"/>
    </g>
    <g id="text_2">
     <!-- −3 -->
     <defs>
      <path d="M 10.59375 35.5 
L 73.1875 35.5 
L 73.1875 27.203125 
L 10.59375 27.203125 
z
" id="DejaVuSans-8722"/>
      <path d="M 40.578125 39.3125 
Q 47.65625 37.796875 51.625 33 
Q 55.609375 28.21875 55.609375 21.1875 
Q 55.609375 10.40625 48.1875 4.484375 
Q 40.765625 -1.421875 27.09375 -1.421875 
Q 22.515625 -1.421875 17.65625 -0.515625 
Q 12.796875 0.390625 7.625 2.203125 
L 7.625 11.71875 
Q 11.71875 9.328125 16.59375 8.109375 
Q 21.484375 6.890625 26.8125 6.890625 
Q 36.078125 6.890625 40.9375 10.546875 
Q 45.796875 14.203125 45.796875 21.1875 
Q 45.796875 27.640625 41.28125 31.265625 
Q 36.765625 34.90625 28.71875 34.90625 
L 20.21875 34.90625 
L 20.21875 43.015625 
L 29.109375 43.015625 
Q 36.375 43.015625 40.234375 45.921875 
Q 44.09375 48.828125 44.09375 54.296875 
Q 44.09375 59.90625 40.109375 62.90625 
Q 36.140625 65.921875 28.71875 65.921875 
Q 24.65625 65.921875 20.015625 65.03125 
Q 15.375 64.15625 9.8125 62.3125 
L 9.8125 71.09375 
Q 15.4375 72.65625 20.34375 73.4375 
Q 25.25 74.21875 29.59375 74.21875 
Q 40.828125 74.21875 47.359375 69.109375 
Q 53.90625 64.015625 53.90625 55.328125 
Q 53.90625 49.265625 50.4375 45.09375 
Q 46.96875 40.921875 40.578125 39.3125 
z
" id="DejaVuSans-51"/>
     </defs>
     <g transform="translate(62.281548 254.957015)scale(0.1 -0.1)">
      <use xlink:href="#DejaVuSans-8722"/>
      <use x="83.789062" xlink:href="#DejaVuSans-51"/>
     </g>
    </g>
   </g>
   <g id="xtick_2">
    <g id="line2d_3">
     <path d="M 108.006436 240.212737 
L 104.856963 242.074311 
" style="fill:none;stroke:#000000;stroke-linecap:square;stroke-width:0.8;"/>
    </g>
    <g id="text_3">
     <!-- −2 -->
     <defs>
      <path d="M 19.1875 8.296875 
L 53.609375 8.296875 
L 53.609375 0 
L 7.328125 0 
L 7.328125 8.296875 
Q 12.9375 14.109375 22.625 23.890625 
Q 32.328125 33.6875 34.8125 36.53125 
Q 39.546875 41.84375 41.421875 45.53125 
Q 43.3125 49.21875 43.3125 52.78125 
Q 43.3125 58.59375 39.234375 62.25 
Q 35.15625 65.921875 28.609375 65.921875 
Q 23.96875 65.921875 18.8125 64.3125 
Q 13.671875 62.703125 7.8125 59.421875 
L 7.8125 69.390625 
Q 13.765625 71.78125 18.9375 73 
Q 24.125 74.21875 28.421875 74.21875 
Q 39.75 74.21875 46.484375 68.546875 
Q 53.21875 62.890625 53.21875 53.421875 
Q 53.21875 48.921875 51.53125 44.890625 
Q 49.859375 40.875 45.40625 35.40625 
Q 44.1875 33.984375 37.640625 27.21875 
Q 31.109375 20.453125 19.1875 8.296875 
z
" id="DejaVuSans-50"/>
     </defs>
     <g transform="translate(91.92091 261.520053)scale(0.1 -0.1)">
      <use xlink:href="#DejaVuSans-8722"/>
      <use x="83.789062" xlink:href="#DejaVuSans-50"/>
     </g>
    </g>
   </g>
   <g id="xtick_3">
    <g id="line2d_4">
     <path d="M 138.028254 246.757259 
L 134.914686 248.643508 
" style="fill:none;stroke:#000000;stroke-linecap:square;stroke-width:0.8;"/>
    </g>
    <g id="text_4">
     <!-- −1 -->
     <g transform="translate(121.952347 268.169908)scale(0.1 -0.1)">
      <use xlink:href="#DejaVuSans-8722"/>
      <use x="83.789062" xlink:href="#DejaVuSans-49"/>
     </g>
    </g>
   </g>
   <g id="xtick_4">
    <g id="line2d_5">
     <path d="M 168.44895 253.388734 
L 165.372524 255.300151 
" style="fill:none;stroke:#000000;stroke-linecap:square;stroke-width:0.8;"/>
    </g>
    <g id="text_5">
     <!-- 0 -->
     <defs>
      <path d="M 31.78125 66.40625 
Q 24.171875 66.40625 20.328125 58.90625 
Q 16.5 51.421875 16.5 36.375 
Q 16.5 21.390625 20.328125 13.890625 
Q 24.171875 6.390625 31.78125 6.390625 
Q 39.453125 6.390625 43.28125 13.890625 
Q 47.125 21.390625 47.125 36.375 
Q 47.125 51.421875 43.28125 58.90625 
Q 39.453125 66.40625 31.78125 66.40625 
z
M 31.78125 74.21875 
Q 44.046875 74.21875 50.515625 64.515625 
Q 56.984375 54.828125 56.984375 36.375 
Q 56.984375 17.96875 50.515625 8.265625 
Q 44.046875 -1.421875 31.78125 -1.421875 
Q 19.53125 -1.421875 13.0625 8.265625 
Q 6.59375 17.96875 6.59375 36.375 
Q 6.59375 54.828125 13.0625 64.515625 
Q 19.53125 74.21875 31.78125 74.21875 
z
" id="DejaVuSans-48"/>
     </defs>
     <g transform="translate(156.573534 274.908315)scale(0.1 -0.1)">
      <use xlink:href="#DejaVuSans-48"/>
     </g>
    </g>
   </g>
   <g id="xtick_5">
    <g id="line2d_6">
     <path d="M 199.276528 260.108905 
L 196.23852 262.045998 
" style="fill:none;stroke:#000000;stroke-linecap:square;stroke-width:0.8;"/>
    </g>
    <g id="text_6">
     <!-- 1 -->
     <g transform="translate(187.412825 281.737053)scale(0.1 -0.1)">
      <use xlink:href="#DejaVuSans-49"/>
     </g>
    </g>
   </g>
   <g id="xtick_6">
    <g id="line2d_7">
     <path d="M 230.519205 266.919565 
L 227.520934 268.882854 
" style="fill:none;stroke:#000000;stroke-linecap:square;stroke-width:0.8;"/>
    </g>
    <g id="text_7">
     <!-- 2 -->
     <g transform="translate(218.668322 288.657952)scale(0.1 -0.1)">
      <use xlink:href="#DejaVuSans-50"/>
     </g>
    </g>
   </g>
   <g id="xtick_7">
    <g id="line2d_8">
     <path d="M 262.185423 273.822553 
L 259.22825 275.812574 
" style="fill:none;stroke:#000000;stroke-linecap:square;stroke-width:0.8;"/>
    </g>
    <g id="text_8">
     <!-- 3 -->
     <g transform="translate(250.348508 295.672889)scale(0.1 -0.1)">
      <use xlink:href="#DejaVuSans-51"/>
     </g>
    </g>
   </g>
  </g>
  <g id="axis3d_2">
   <g id="line2d_9">
    <path d="M 388.395181 200.427223 
L 275.196469 277.538555 
" style="fill:none;stroke:#000000;stroke-linecap:square;stroke-width:0.8;"/>
   </g>
   <g id="text_9">
    <!-- $x_2$ -->
    <g transform="translate(358.997475 266.715146)rotate(-34.262819)scale(0.1 -0.1)">
     <use transform="translate(0 0.3125)" xlink:href="#DejaVuSans-Oblique-120"/>
     <use transform="translate(59.179688 -16.09375)scale(0.7)" xlink:href="#DejaVuSans-50"/>
    </g>
   </g>
   <g id="Line3DCollection_2">
    <path d="M 64.454143 85.123372 
L 72.903663 226.744707 
L 282.943623 272.261169 
" style="fill:none;stroke:#b0b0b0;stroke-width:0.8;"/>
    <path d="M 79.563699 77.779797 
L 87.173583 218.595168 
L 296.041197 263.339059 
" style="fill:none;stroke:#b0b0b0;stroke-width:0.8;"/>
    <path d="M 94.410305 70.564021 
L 101.207705 210.580293 
L 308.912448 254.57112 
" style="fill:none;stroke:#b0b0b0;stroke-width:0.8;"/>
    <path d="M 109.000767 63.472736 
L 115.011825 202.696772 
L 321.563193 245.953391 
" style="fill:none;stroke:#b0b0b0;stroke-width:0.8;"/>
    <path d="M 123.341658 56.502749 
L 128.591552 194.941402 
L 333.99905 237.482045 
" style="fill:none;stroke:#b0b0b0;stroke-width:0.8;"/>
    <path d="M 137.439326 49.650973 
L 141.952313 187.311083 
L 346.225449 229.153382 
" style="fill:none;stroke:#b0b0b0;stroke-width:0.8;"/>
    <path d="M 151.299907 42.914427 
L 155.099362 179.802815 
L 358.247636 220.963829 
" style="fill:none;stroke:#b0b0b0;stroke-width:0.8;"/>
    <path d="M 164.929332 36.290228 
L 168.037786 172.413692 
L 370.070686 212.909929 
" style="fill:none;stroke:#b0b0b0;stroke-width:0.8;"/>
    <path d="M 178.333335 29.775588 
L 180.772511 165.140901 
L 381.699505 204.988339 
" style="fill:none;stroke:#b0b0b0;stroke-width:0.8;"/>
   </g>
   <g id="xtick_8">
    <g id="line2d_10">
     <path d="M 281.185773 271.880236 
L 286.463251 273.023885 
" style="fill:none;stroke:#000000;stroke-linecap:square;stroke-width:0.8;"/>
    </g>
    <g id="text_10">
     <!-- 1.0 -->
     <defs>
      <path d="M 10.6875 12.40625 
L 21 12.40625 
L 21 0 
L 10.6875 0 
z
" id="DejaVuSans-46"/>
     </defs>
     <g transform="translate(288.290418 291.249744)scale(0.1 -0.1)">
      <use xlink:href="#DejaVuSans-49"/>
      <use x="63.623047" xlink:href="#DejaVuSans-46"/>
      <use x="95.410156" xlink:href="#DejaVuSans-48"/>
     </g>
    </g>
   </g>
   <g id="xtick_9">
    <g id="line2d_11">
     <path d="M 294.29383 262.964735 
L 299.539801 264.088534 
" style="fill:none;stroke:#000000;stroke-linecap:square;stroke-width:0.8;"/>
    </g>
    <g id="text_11">
     <!-- 1.5 -->
     <defs>
      <path d="M 10.796875 72.90625 
L 49.515625 72.90625 
L 49.515625 64.59375 
L 19.828125 64.59375 
L 19.828125 46.734375 
Q 21.96875 47.46875 24.109375 47.828125 
Q 26.265625 48.1875 28.421875 48.1875 
Q 40.625 48.1875 47.75 41.5 
Q 54.890625 34.8125 54.890625 23.390625 
Q 54.890625 11.625 47.5625 5.09375 
Q 40.234375 -1.421875 26.90625 -1.421875 
Q 22.3125 -1.421875 17.546875 -0.640625 
Q 12.796875 0.140625 7.71875 1.703125 
L 7.71875 11.625 
Q 12.109375 9.234375 16.796875 8.0625 
Q 21.484375 6.890625 26.703125 6.890625 
Q 35.15625 6.890625 40.078125 11.328125 
Q 45.015625 15.765625 45.015625 23.390625 
Q 45.015625 31 40.078125 35.4375 
Q 35.15625 39.890625 26.703125 39.890625 
Q 22.75 39.890625 18.8125 39.015625 
Q 14.890625 38.140625 10.796875 36.28125 
z
" id="DejaVuSans-53"/>
     </defs>
     <g transform="translate(301.266415 282.232313)scale(0.1 -0.1)">
      <use xlink:href="#DejaVuSans-49"/>
      <use x="63.623047" xlink:href="#DejaVuSans-46"/>
      <use x="95.410156" xlink:href="#DejaVuSans-53"/>
     </g>
    </g>
   </g>
   <g id="xtick_10">
    <g id="line2d_12">
     <path d="M 307.175466 254.203236 
L 312.390226 255.307696 
" style="fill:none;stroke:#000000;stroke-linecap:square;stroke-width:0.8;"/>
    </g>
    <g id="text_12">
     <!-- 2.0 -->
     <g transform="translate(314.018289 273.370634)scale(0.1 -0.1)">
      <use xlink:href="#DejaVuSans-50"/>
      <use x="63.623047" xlink:href="#DejaVuSans-46"/>
      <use x="95.410156" xlink:href="#DejaVuSans-48"/>
     </g>
    </g>
   </g>
   <g id="xtick_11">
    <g id="line2d_13">
     <path d="M 319.836499 245.591781 
L 325.020342 246.677398 
" style="fill:none;stroke:#000000;stroke-linecap:square;stroke-width:0.8;"/>
    </g>
    <g id="text_13">
     <!-- 2.5 -->
     <g transform="translate(326.551795 264.660705)scale(0.1 -0.1)">
      <use xlink:href="#DejaVuSans-50"/>
      <use x="63.623047" xlink:href="#DejaVuSans-46"/>
      <use x="95.410156" xlink:href="#DejaVuSans-53"/>
     </g>
    </g>
   </g>
   <g id="xtick_12">
    <g id="line2d_14">
     <path d="M 332.282545 237.12655 
L 337.435767 238.193801 
" style="fill:none;stroke:#000000;stroke-linecap:square;stroke-width:0.8;"/>
    </g>
    <g id="text_14">
     <!-- 3.0 -->
     <g transform="translate(338.872496 256.098661)scale(0.1 -0.1)">
      <use xlink:href="#DejaVuSans-51"/>
      <use x="63.623047" xlink:href="#DejaVuSans-46"/>
      <use x="95.410156" xlink:href="#DejaVuSans-48"/>
     </g>
    </g>
   </g>
   <g id="xtick_13">
    <g id="line2d_15">
     <path d="M 344.519036 228.803849 
L 349.641927 229.853197 
" style="fill:none;stroke:#000000;stroke-linecap:square;stroke-width:0.8;"/>
    </g>
    <g id="text_15">
     <!-- 3.5 -->
     <g transform="translate(350.985765 247.680768)scale(0.1 -0.1)">
      <use xlink:href="#DejaVuSans-51"/>
      <use x="63.623047" xlink:href="#DejaVuSans-46"/>
      <use x="95.410156" xlink:href="#DejaVuSans-53"/>
     </g>
    </g>
   </g>
   <g id="xtick_14">
    <g id="line2d_16">
     <path d="M 356.55122 220.620109 
L 361.64407 221.652 
" style="fill:none;stroke:#000000;stroke-linecap:square;stroke-width:0.8;"/>
    </g>
    <g id="text_16">
     <!-- 4.0 -->
     <defs>
      <path d="M 37.796875 64.3125 
L 12.890625 25.390625 
L 37.796875 25.390625 
z
M 35.203125 72.90625 
L 47.609375 72.90625 
L 47.609375 25.390625 
L 58.015625 25.390625 
L 58.015625 17.1875 
L 47.609375 17.1875 
L 47.609375 0 
L 37.796875 0 
L 37.796875 17.1875 
L 4.890625 17.1875 
L 4.890625 26.703125 
z
" id="DejaVuSans-52"/>
     </defs>
     <g transform="translate(362.896797 239.403416)scale(0.1 -0.1)">
      <use xlink:href="#DejaVuSans-52"/>
      <use x="63.623047" xlink:href="#DejaVuSans-46"/>
      <use x="95.410156" xlink:href="#DejaVuSans-48"/>
     </g>
    </g>
   </g>
   <g id="xtick_15">
    <g id="line2d_17">
     <path d="M 368.38417 212.571877 
L 373.447268 213.586744 
" style="fill:none;stroke:#000000;stroke-linecap:square;stroke-width:0.8;"/>
    </g>
    <g id="text_17">
     <!-- 4.5 -->
     <g transform="translate(374.610615 231.263114)scale(0.1 -0.1)">
      <use xlink:href="#DejaVuSans-52"/>
      <use x="63.623047" xlink:href="#DejaVuSans-46"/>
      <use x="95.410156" xlink:href="#DejaVuSans-53"/>
     </g>
    </g>
   </g>
   <g id="xtick_16">
    <g id="line2d_18">
     <path d="M 380.022795 204.655817 
L 385.056427 205.654077 
" style="fill:none;stroke:#000000;stroke-linecap:square;stroke-width:0.8;"/>
    </g>
    <g id="text_18">
     <!-- 5.0 -->
     <g transform="translate(386.132076 223.256487)scale(0.1 -0.1)">
      <use xlink:href="#DejaVuSans-53"/>
      <use x="63.623047" xlink:href="#DejaVuSans-46"/>
      <use x="95.410156" xlink:href="#DejaVuSans-48"/>
     </g>
    </g>
   </g>
  </g>
  <g id="axis3d_3">
   <g id="line2d_19">
    <path d="M 388.395181 200.427223 
L 396.774918 61.432405 
" style="fill:none;stroke:#000000;stroke-linecap:square;stroke-width:0.8;"/>
   </g>
   <g id="text_19">
    <!-- $f(x_1, x_2)$ -->
    <defs>
     <path d="M 47.796875 75.984375 
L 46.390625 68.5 
L 37.796875 68.5 
Q 32.90625 68.5 30.6875 66.578125 
Q 28.46875 64.65625 27.390625 59.515625 
L 26.421875 54.6875 
L 41.21875 54.6875 
L 39.890625 47.703125 
L 25.09375 47.703125 
L 15.828125 0 
L 6.78125 0 
L 16.109375 47.703125 
L 7.515625 47.703125 
L 8.796875 54.6875 
L 17.390625 54.6875 
L 18.109375 58.5 
Q 19.96875 68.171875 24.625 72.078125 
Q 29.296875 75.984375 39.3125 75.984375 
z
" id="DejaVuSans-Oblique-102"/>
     <path d="M 31 75.875 
Q 24.46875 64.65625 21.28125 53.65625 
Q 18.109375 42.671875 18.109375 31.390625 
Q 18.109375 20.125 21.3125 9.0625 
Q 24.515625 -2 31 -13.1875 
L 23.1875 -13.1875 
Q 15.875 -1.703125 12.234375 9.375 
Q 8.59375 20.453125 8.59375 31.390625 
Q 8.59375 42.28125 12.203125 53.3125 
Q 15.828125 64.359375 23.1875 75.875 
z
" id="DejaVuSans-40"/>
     <path d="M 11.71875 12.40625 
L 22.015625 12.40625 
L 22.015625 4 
L 14.015625 -11.625 
L 7.71875 -11.625 
L 11.71875 4 
z
" id="DejaVuSans-44"/>
     <path d="M 8.015625 75.875 
L 15.828125 75.875 
Q 23.140625 64.359375 26.78125 53.3125 
Q 30.421875 42.28125 30.421875 31.390625 
Q 30.421875 20.453125 26.78125 9.375 
Q 23.140625 -1.703125 15.828125 -13.1875 
L 8.015625 -13.1875 
Q 14.5 -2 17.703125 9.0625 
Q 20.90625 20.125 20.90625 31.390625 
Q 20.90625 42.671875 17.703125 53.65625 
Q 14.5 64.65625 8.015625 75.875 
z
" id="DejaVuSans-41"/>
    </defs>
    <g transform="translate(436.785896 147.929026)rotate(-86.549921)scale(0.1 -0.1)">
     <use transform="translate(0 0.015625)" xlink:href="#DejaVuSans-Oblique-102"/>
     <use transform="translate(35.205078 0.015625)" xlink:href="#DejaVuSans-40"/>
     <use transform="translate(74.21875 0.015625)" xlink:href="#DejaVuSans-Oblique-120"/>
     <use transform="translate(133.398438 -16.390625)scale(0.7)" xlink:href="#DejaVuSans-49"/>
     <use transform="translate(180.668945 0.015625)" xlink:href="#DejaVuSans-44"/>
     <use transform="translate(231.938477 0.015625)" xlink:href="#DejaVuSans-Oblique-120"/>
     <use transform="translate(291.118164 -16.390625)scale(0.7)" xlink:href="#DejaVuSans-50"/>
     <use transform="translate(338.388672 0.015625)" xlink:href="#DejaVuSans-41"/>
    </g>
   </g>
   <g id="Line3DCollection_3">
    <path d="M 388.871674 192.523625 
L 187.991644 153.263053 
L 63.960053 223.495395 
" style="fill:none;stroke:#b0b0b0;stroke-width:0.8;"/>
    <path d="M 389.759902 177.790568 
L 187.77308 138.936939 
L 63.012412 208.453986 
" style="fill:none;stroke:#b0b0b0;stroke-width:0.8;"/>
    <path d="M 390.658058 162.892848 
L 187.552175 124.457439 
L 62.053829 193.238888 
" style="fill:none;stroke:#b0b0b0;stroke-width:0.8;"/>
    <path d="M 391.566308 147.827687 
L 187.328892 109.822076 
L 61.084112 177.847074 
" style="fill:none;stroke:#b0b0b0;stroke-width:0.8;"/>
    <path d="M 392.484824 132.592247 
L 187.103193 95.028321 
L 60.103067 162.275448 
" style="fill:none;stroke:#b0b0b0;stroke-width:0.8;"/>
    <path d="M 393.413781 117.183625 
L 186.875038 80.073589 
L 59.110494 146.52084 
" style="fill:none;stroke:#b0b0b0;stroke-width:0.8;"/>
    <path d="M 394.353358 101.598851 
L 186.644386 64.955237 
L 58.106187 130.580006 
" style="fill:none;stroke:#b0b0b0;stroke-width:0.8;"/>
    <path d="M 395.303738 85.834887 
L 186.411197 49.670565 
L 57.089939 114.449625 
" style="fill:none;stroke:#b0b0b0;stroke-width:0.8;"/>
    <path d="M 396.265108 69.888624 
L 186.175429 34.216814 
L 56.061535 98.126295 
" style="fill:none;stroke:#b0b0b0;stroke-width:0.8;"/>
   </g>
   <g id="xtick_17">
    <g id="line2d_20">
     <path d="M 387.19548 192.196024 
L 392.227556 193.179508 
" style="fill:none;stroke:#000000;stroke-linecap:square;stroke-width:0.8;"/>
    </g>
    <g id="text_20">
     <!-- 0 -->
     <g transform="translate(404.947776 198.28638)scale(0.1 -0.1)">
      <use xlink:href="#DejaVuSans-48"/>
     </g>
    </g>
   </g>
   <g id="xtick_18">
    <g id="line2d_21">
     <path d="M 388.074087 177.466289 
L 393.135067 178.439806 
" style="fill:none;stroke:#000000;stroke-linecap:square;stroke-width:0.8;"/>
    </g>
    <g id="text_21">
     <!-- 2 -->
     <g transform="translate(405.941075 183.571951)scale(0.1 -0.1)">
      <use xlink:href="#DejaVuSans-50"/>
     </g>
    </g>
   </g>
   <g id="xtick_19">
    <g id="line2d_22">
     <path d="M 388.96251 162.571985 
L 394.052728 163.535249 
" style="fill:none;stroke:#000000;stroke-linecap:square;stroke-width:0.8;"/>
    </g>
    <g id="text_22">
     <!-- 4 -->
     <g transform="translate(406.945454 168.693389)scale(0.1 -0.1)">
      <use xlink:href="#DejaVuSans-52"/>
     </g>
    </g>
   </g>
   <g id="xtick_20">
    <g id="line2d_23">
     <path d="M 389.860914 147.510338 
L 394.980711 148.463058 
" style="fill:none;stroke:#000000;stroke-linecap:square;stroke-width:0.8;"/>
    </g>
    <g id="text_23">
     <!-- 6 -->
     <defs>
      <path d="M 33.015625 40.375 
Q 26.375 40.375 22.484375 35.828125 
Q 18.609375 31.296875 18.609375 23.390625 
Q 18.609375 15.53125 22.484375 10.953125 
Q 26.375 6.390625 33.015625 6.390625 
Q 39.65625 6.390625 43.53125 10.953125 
Q 47.40625 15.53125 47.40625 23.390625 
Q 47.40625 31.296875 43.53125 35.828125 
Q 39.65625 40.375 33.015625 40.375 
z
M 52.59375 71.296875 
L 52.59375 62.3125 
Q 48.875 64.0625 45.09375 64.984375 
Q 41.3125 65.921875 37.59375 65.921875 
Q 27.828125 65.921875 22.671875 59.328125 
Q 17.53125 52.734375 16.796875 39.40625 
Q 19.671875 43.65625 24.015625 45.921875 
Q 28.375 48.1875 33.59375 48.1875 
Q 44.578125 48.1875 50.953125 41.515625 
Q 57.328125 34.859375 57.328125 23.390625 
Q 57.328125 12.15625 50.6875 5.359375 
Q 44.046875 -1.421875 33.015625 -1.421875 
Q 20.359375 -1.421875 13.671875 8.265625 
Q 6.984375 17.96875 6.984375 36.375 
Q 6.984375 53.65625 15.1875 63.9375 
Q 23.390625 74.21875 37.203125 74.21875 
Q 40.921875 74.21875 44.703125 73.484375 
Q 48.484375 72.75 52.59375 71.296875 
z
" id="DejaVuSans-54"/>
     </defs>
     <g transform="translate(407.9611 153.647933)scale(0.1 -0.1)">
      <use xlink:href="#DejaVuSans-54"/>
     </g>
    </g>
   </g>
   <g id="xtick_21">
    <g id="line2d_24">
     <path d="M 390.76947 132.278512 
L 395.919189 133.220386 
" style="fill:none;stroke:#000000;stroke-linecap:square;stroke-width:0.8;"/>
    </g>
    <g id="text_24">
     <!-- 8 -->
     <defs>
      <path d="M 31.78125 34.625 
Q 24.75 34.625 20.71875 30.859375 
Q 16.703125 27.09375 16.703125 20.515625 
Q 16.703125 13.921875 20.71875 10.15625 
Q 24.75 6.390625 31.78125 6.390625 
Q 38.8125 6.390625 42.859375 10.171875 
Q 46.921875 13.96875 46.921875 20.515625 
Q 46.921875 27.09375 42.890625 30.859375 
Q 38.875 34.625 31.78125 34.625 
z
M 21.921875 38.8125 
Q 15.578125 40.375 12.03125 44.71875 
Q 8.5 49.078125 8.5 55.328125 
Q 8.5 64.0625 14.71875 69.140625 
Q 20.953125 74.21875 31.78125 74.21875 
Q 42.671875 74.21875 48.875 69.140625 
Q 55.078125 64.0625 55.078125 55.328125 
Q 55.078125 49.078125 51.53125 44.71875 
Q 48 40.375 41.703125 38.8125 
Q 48.828125 37.15625 52.796875 32.3125 
Q 56.78125 27.484375 56.78125 20.515625 
Q 56.78125 9.90625 50.3125 4.234375 
Q 43.84375 -1.421875 31.78125 -1.421875 
Q 19.734375 -1.421875 13.25 4.234375 
Q 6.78125 9.90625 6.78125 20.515625 
Q 6.78125 27.484375 10.78125 32.3125 
Q 14.796875 37.15625 21.921875 38.8125 
z
M 18.3125 54.390625 
Q 18.3125 48.734375 21.84375 45.5625 
Q 25.390625 42.390625 31.78125 42.390625 
Q 38.140625 42.390625 41.71875 45.5625 
Q 45.3125 48.734375 45.3125 54.390625 
Q 45.3125 60.0625 41.71875 63.234375 
Q 38.140625 66.40625 31.78125 66.40625 
Q 25.390625 66.40625 21.84375 63.234375 
Q 18.3125 60.0625 18.3125 54.390625 
z
" id="DejaVuSans-56"/>
     </defs>
     <g transform="translate(408.988202 138.432758)scale(0.1 -0.1)">
      <use xlink:href="#DejaVuSans-56"/>
     </g>
    </g>
   </g>
   <g id="xtick_22">
    <g id="line2d_25">
     <path d="M 391.68835 116.873607 
L 396.868343 117.804327 
" style="fill:none;stroke:#000000;stroke-linecap:square;stroke-width:0.8;"/>
    </g>
    <g id="text_25">
     <!-- 10 -->
     <g transform="translate(406.845705 123.044978)scale(0.1 -0.1)">
      <use xlink:href="#DejaVuSans-49"/>
      <use x="63.623047" xlink:href="#DejaVuSans-48"/>
     </g>
    </g>
   </g>
   <g id="xtick_23">
    <g id="line2d_26">
     <path d="M 392.61773 101.292655 
L 397.828356 102.211904 
" style="fill:none;stroke:#000000;stroke-linecap:square;stroke-width:0.8;"/>
    </g>
    <g id="text_26">
     <!-- 12 -->
     <g transform="translate(407.89631 107.481637)scale(0.1 -0.1)">
      <use xlink:href="#DejaVuSans-49"/>
      <use x="63.623047" xlink:href="#DejaVuSans-50"/>
     </g>
    </g>
   </g>
   <g id="xtick_24">
    <g id="line2d_27">
     <path d="M 393.557792 85.532622 
L 398.799414 86.440073 
" style="fill:none;stroke:#000000;stroke-linecap:square;stroke-width:0.8;"/>
    </g>
    <g id="text_27">
     <!-- 14 -->
     <g transform="translate(408.958971 91.739715)scale(0.1 -0.1)">
      <use xlink:href="#DejaVuSans-49"/>
      <use x="63.623047" xlink:href="#DejaVuSans-52"/>
     </g>
    </g>
   </g>
   <g id="xtick_25">
    <g id="line2d_28">
     <path d="M 394.508722 69.590402 
L 399.78171 70.48572 
" style="fill:none;stroke:#000000;stroke-linecap:square;stroke-width:0.8;"/>
    </g>
    <g id="text_28">
     <!-- 16 -->
     <g transform="translate(410.033895 75.816119)scale(0.1 -0.1)">
      <use xlink:href="#DejaVuSans-49"/>
      <use x="63.623047" xlink:href="#DejaVuSans-54"/>
     </g>
    </g>
   </g>
  </g>
  <g id="axes_1">
   <g id="line2d_29">
    <defs>
     <path d="M 0 2 
C 0.530406 2 1.03916 1.789267 1.414214 1.414214 
C 1.789267 1.03916 2 0.530406 2 0 
C 2 -0.530406 1.789267 -1.03916 1.414214 -1.414214 
C 1.03916 -1.789267 0.530406 -2 0 -2 
C -0.530406 -2 -1.03916 -1.789267 -1.414214 -1.414214 
C -1.789267 -1.03916 -2 -0.530406 -2 0 
C -2 0.530406 -1.789267 1.03916 -1.414214 1.414214 
C -1.03916 1.789267 -0.530406 2 0 2 
z
" id="madacf13adf" style="stroke:#ff0000;stroke-width:0.5;"/>
    </defs>
    <g clip-path="url(#pb12025656f)">
     <use style="fill:#ff0000;stroke:#ff0000;stroke-width:0.5;" x="85.564078" xlink:href="#madacf13adf" y="226.825728"/>
     <use style="fill:#ff0000;stroke:#ff0000;stroke-width:0.5;" x="104.621003" xlink:href="#madacf13adf" y="217.986794"/>
     <use style="fill:#ff0000;stroke:#ff0000;stroke-width:0.5;" x="123.765892" xlink:href="#madacf13adf" y="202.132459"/>
     <use style="fill:#ff0000;stroke:#ff0000;stroke-width:0.5;" x="143.822855" xlink:href="#madacf13adf" y="199.647917"/>
     <use style="fill:#ff0000;stroke:#ff0000;stroke-width:0.5;" x="164.163581" xlink:href="#madacf13adf" y="197.16803"/>
     <use style="fill:#ff0000;stroke:#ff0000;stroke-width:0.5;" x="184.636027" xlink:href="#madacf13adf" y="185.284118"/>
     <use style="fill:#ff0000;stroke:#ff0000;stroke-width:0.5;" x="205.771388" xlink:href="#madacf13adf" y="198.420925"/>
     <use style="fill:#ff0000;stroke:#ff0000;stroke-width:0.5;" x="226.938678" xlink:href="#madacf13adf" y="188.058184"/>
     <use style="fill:#ff0000;stroke:#ff0000;stroke-width:0.5;" x="248.612053" xlink:href="#madacf13adf" y="167.618771"/>
     <use style="fill:#ff0000;stroke:#ff0000;stroke-width:0.5;" x="270.693454" xlink:href="#madacf13adf" y="159.929199"/>
     <use style="fill:#ff0000;stroke:#ff0000;stroke-width:0.5;" x="97.501805" xlink:href="#madacf13adf" y="205.245068"/>
     <use style="fill:#ff0000;stroke:#ff0000;stroke-width:0.5;" x="117.374116" xlink:href="#madacf13adf" y="213.715198"/>
     <use style="fill:#ff0000;stroke:#ff0000;stroke-width:0.5;" x="137.139125" xlink:href="#madacf13adf" y="216.096729"/>
     <use style="fill:#ff0000;stroke:#ff0000;stroke-width:0.5;" x="156.585291" xlink:href="#madacf13adf" y="199.551891"/>
     <use style="fill:#ff0000;stroke:#ff0000;stroke-width:0.5;" x="176.591639" xlink:href="#madacf13adf" y="186.385588"/>
     <use style="fill:#ff0000;stroke:#ff0000;stroke-width:0.5;" x="197.218774" xlink:href="#madacf13adf" y="187.471437"/>
     <use style="fill:#ff0000;stroke:#ff0000;stroke-width:0.5;" x="217.960427" xlink:href="#madacf13adf" y="159.489966"/>
     <use style="fill:#ff0000;stroke:#ff0000;stroke-width:0.5;" x="239.211789" xlink:href="#madacf13adf" y="181.531679"/>
     <use style="fill:#ff0000;stroke:#ff0000;stroke-width:0.5;" x="260.800357" xlink:href="#madacf13adf" y="167.478804"/>
     <use style="fill:#ff0000;stroke:#ff0000;stroke-width:0.5;" x="282.889483" xlink:href="#madacf13adf" y="153.159607"/>
     <use style="fill:#ff0000;stroke:#ff0000;stroke-width:0.5;" x="110.097522" xlink:href="#madacf13adf" y="199.456027"/>
     <use style="fill:#ff0000;stroke:#ff0000;stroke-width:0.5;" x="129.292177" xlink:href="#madacf13adf" y="193.13542"/>
     <use style="fill:#ff0000;stroke:#ff0000;stroke-width:0.5;" x="149.10974" xlink:href="#madacf13adf" y="196.743617"/>
     <use style="fill:#ff0000;stroke:#ff0000;stroke-width:0.5;" x="168.704346" xlink:href="#madacf13adf" y="182.603703"/>
     <use style="fill:#ff0000;stroke:#ff0000;stroke-width:0.5;" x="189.021225" xlink:href="#madacf13adf" y="186.351592"/>
     <use style="fill:#ff0000;stroke:#ff0000;stroke-width:0.5;" x="209.309721" xlink:href="#madacf13adf" y="161.02836"/>
     <use style="fill:#ff0000;stroke:#ff0000;stroke-width:0.5;" x="230.232922" xlink:href="#madacf13adf" y="152.487704"/>
     <use style="fill:#ff0000;stroke:#ff0000;stroke-width:0.5;" x="251.431318" xlink:href="#madacf13adf" y="157.590351"/>
     <use style="fill:#ff0000;stroke:#ff0000;stroke-width:0.5;" x="272.986554" xlink:href="#madacf13adf" y="151.742882"/>
     <use style="fill:#ff0000;stroke:#ff0000;stroke-width:0.5;" x="295.184718" xlink:href="#madacf13adf" y="134.24375"/>
     <use style="fill:#ff0000;stroke:#ff0000;stroke-width:0.5;" x="122.783577" xlink:href="#madacf13adf" y="200.927644"/>
     <use style="fill:#ff0000;stroke:#ff0000;stroke-width:0.5;" x="141.737859" xlink:href="#madacf13adf" y="190.427826"/>
     <use style="fill:#ff0000;stroke:#ff0000;stroke-width:0.5;" x="160.961053" xlink:href="#madacf13adf" y="175.559165"/>
     <use style="fill:#ff0000;stroke:#ff0000;stroke-width:0.5;" x="180.991619" xlink:href="#madacf13adf" y="180.367945"/>
     <use style="fill:#ff0000;stroke:#ff0000;stroke-width:0.5;" x="200.99868" xlink:href="#madacf13adf" y="167.397932"/>
     <use style="fill:#ff0000;stroke:#ff0000;stroke-width:0.5;" x="221.459908" xlink:href="#madacf13adf" y="160.230934"/>
     <use style="fill:#ff0000;stroke:#ff0000;stroke-width:0.5;" x="242.30631" xlink:href="#madacf13adf" y="147.082942"/>
     <use style="fill:#ff0000;stroke:#ff0000;stroke-width:0.5;" x="263.551369" xlink:href="#madacf13adf" y="138.422808"/>
     <use style="fill:#ff0000;stroke:#ff0000;stroke-width:0.5;" x="285.229711" xlink:href="#madacf13adf" y="127.814931"/>
     <use style="fill:#ff0000;stroke:#ff0000;stroke-width:0.5;" x="306.942079" xlink:href="#madacf13adf" y="131.044882"/>
     <use style="fill:#ff0000;stroke:#ff0000;stroke-width:0.5;" x="134.139925" xlink:href="#madacf13adf" y="172.388367"/>
     <use style="fill:#ff0000;stroke:#ff0000;stroke-width:0.5;" x="153.553925" xlink:href="#madacf13adf" y="173.38172"/>
     <use style="fill:#ff0000;stroke:#ff0000;stroke-width:0.5;" x="172.8665" xlink:href="#madacf13adf" y="159.522541"/>
     <use style="fill:#ff0000;stroke:#ff0000;stroke-width:0.5;" x="193.015211" xlink:href="#madacf13adf" y="175.476482"/>
     <use style="fill:#ff0000;stroke:#ff0000;stroke-width:0.5;" x="212.990291" xlink:href="#madacf13adf" y="163.556501"/>
     <use style="fill:#ff0000;stroke:#ff0000;stroke-width:0.5;" x="233.392298" xlink:href="#madacf13adf" y="145.428369"/>
     <use style="fill:#ff0000;stroke:#ff0000;stroke-width:0.5;" x="254.214059" xlink:href="#madacf13adf" y="138.052376"/>
     <use style="fill:#ff0000;stroke:#ff0000;stroke-width:0.5;" x="275.209632" xlink:href="#madacf13adf" y="141.672656"/>
     <use style="fill:#ff0000;stroke:#ff0000;stroke-width:0.5;" x="296.878377" xlink:href="#madacf13adf" y="126.138223"/>
     <use style="fill:#ff0000;stroke:#ff0000;stroke-width:0.5;" x="318.679754" xlink:href="#madacf13adf" y="121.875906"/>
     <use style="fill:#ff0000;stroke:#ff0000;stroke-width:0.5;" x="145.998904" xlink:href="#madacf13adf" y="159.462437"/>
     <use style="fill:#ff0000;stroke:#ff0000;stroke-width:0.5;" x="165.435606" xlink:href="#madacf13adf" y="162.78404"/>
     <use style="fill:#ff0000;stroke:#ff0000;stroke-width:0.5;" x="185.044693" xlink:href="#madacf13adf" y="166.069442"/>
     <use style="fill:#ff0000;stroke:#ff0000;stroke-width:0.5;" x="204.673476" xlink:href="#madacf13adf" y="152.031895"/>
     <use style="fill:#ff0000;stroke:#ff0000;stroke-width:0.5;" x="224.746599" xlink:href="#madacf13adf" y="141.896651"/>
     <use style="fill:#ff0000;stroke:#ff0000;stroke-width:0.5;" x="245.155373" xlink:href="#madacf13adf" y="140.351187"/>
     <use style="fill:#ff0000;stroke:#ff0000;stroke-width:0.5;" x="265.934988" xlink:href="#madacf13adf" y="130.834607"/>
     <use style="fill:#ff0000;stroke:#ff0000;stroke-width:0.5;" x="286.712634" xlink:href="#madacf13adf" y="139.707772"/>
     <use style="fill:#ff0000;stroke:#ff0000;stroke-width:0.5;" x="308.740307" xlink:href="#madacf13adf" y="109.457482"/>
     <use style="fill:#ff0000;stroke:#ff0000;stroke-width:0.5;" x="330.316825" xlink:href="#madacf13adf" y="111.095913"/>
     <use style="fill:#ff0000;stroke:#ff0000;stroke-width:0.5;" x="157.732497" xlink:href="#madacf13adf" y="146.388537"/>
     <use style="fill:#ff0000;stroke:#ff0000;stroke-width:0.5;" x="177.168804" xlink:href="#madacf13adf" y="151.863896"/>
     <use style="fill:#ff0000;stroke:#ff0000;stroke-width:0.5;" x="196.63272" xlink:href="#madacf13adf" y="148.024111"/>
     <use style="fill:#ff0000;stroke:#ff0000;stroke-width:0.5;" x="216.387109" xlink:href="#madacf13adf" y="146.727818"/>
     <use style="fill:#ff0000;stroke:#ff0000;stroke-width:0.5;" x="236.425191" xlink:href="#madacf13adf" y="131.450119"/>
     <use style="fill:#ff0000;stroke:#ff0000;stroke-width:0.5;" x="256.808179" xlink:href="#madacf13adf" y="127.388413"/>
     <use style="fill:#ff0000;stroke:#ff0000;stroke-width:0.5;" x="277.48331" xlink:href="#madacf13adf" y="123.620532"/>
     <use style="fill:#ff0000;stroke:#ff0000;stroke-width:0.5;" x="298.829201" xlink:href="#madacf13adf" y="105.228961"/>
     <use style="fill:#ff0000;stroke:#ff0000;stroke-width:0.5;" x="319.938291" xlink:href="#madacf13adf" y="109.91114"/>
     <use style="fill:#ff0000;stroke:#ff0000;stroke-width:0.5;" x="342.019193" xlink:href="#madacf13adf" y="95.264111"/>
     <use style="fill:#ff0000;stroke:#ff0000;stroke-width:0.5;" x="169.52285" xlink:href="#madacf13adf" y="141.189786"/>
     <use style="fill:#ff0000;stroke:#ff0000;stroke-width:0.5;" x="188.661071" xlink:href="#madacf13adf" y="133.856338"/>
     <use style="fill:#ff0000;stroke:#ff0000;stroke-width:0.5;" x="208.227819" xlink:href="#madacf13adf" y="140.422459"/>
     <use style="fill:#ff0000;stroke:#ff0000;stroke-width:0.5;" x="227.913186" xlink:href="#madacf13adf" y="132.815303"/>
     <use style="fill:#ff0000;stroke:#ff0000;stroke-width:0.5;" x="247.877749" xlink:href="#madacf13adf" y="133.296202"/>
     <use style="fill:#ff0000;stroke:#ff0000;stroke-width:0.5;" x="268.33602" xlink:href="#madacf13adf" y="114.815516"/>
     <use style="fill:#ff0000;stroke:#ff0000;stroke-width:0.5;" x="288.976082" xlink:href="#madacf13adf" y="111.306213"/>
     <use style="fill:#ff0000;stroke:#ff0000;stroke-width:0.5;" x="309.855305" xlink:href="#madacf13adf" y="109.544139"/>
     <use style="fill:#ff0000;stroke:#ff0000;stroke-width:0.5;" x="331.036895" xlink:href="#madacf13adf" y="106.884713"/>
     <use style="fill:#ff0000;stroke:#ff0000;stroke-width:0.5;" x="353.651914" xlink:href="#madacf13adf" y="78.802837"/>
     <use style="fill:#ff0000;stroke:#ff0000;stroke-width:0.5;" x="181.213586" xlink:href="#madacf13adf" y="140.620797"/>
     <use style="fill:#ff0000;stroke:#ff0000;stroke-width:0.5;" x="200.40083" xlink:href="#madacf13adf" y="145.825322"/>
     <use style="fill:#ff0000;stroke:#ff0000;stroke-width:0.5;" x="219.629976" xlink:href="#madacf13adf" y="123.228406"/>
     <use style="fill:#ff0000;stroke:#ff0000;stroke-width:0.5;" x="239.359525" xlink:href="#madacf13adf" y="111.832565"/>
     <use style="fill:#ff0000;stroke:#ff0000;stroke-width:0.5;" x="259.248233" xlink:href="#madacf13adf" y="121.054715"/>
     <use style="fill:#ff0000;stroke:#ff0000;stroke-width:0.5;" x="279.501736" xlink:href="#madacf13adf" y="115.384907"/>
     <use style="fill:#ff0000;stroke:#ff0000;stroke-width:0.5;" x="299.992012" xlink:href="#madacf13adf" y="112.679352"/>
     <use style="fill:#ff0000;stroke:#ff0000;stroke-width:0.5;" x="321.82782" xlink:href="#madacf13adf" y="78.044905"/>
     <use style="fill:#ff0000;stroke:#ff0000;stroke-width:0.5;" x="342.708566" xlink:href="#madacf13adf" y="85.223621"/>
     <use style="fill:#ff0000;stroke:#ff0000;stroke-width:0.5;" x="364.238882" xlink:href="#madacf13adf" y="81.861538"/>
     <use style="fill:#ff0000;stroke:#ff0000;stroke-width:0.5;" x="192.849821" xlink:href="#madacf13adf" y="152.044031"/>
     <use style="fill:#ff0000;stroke:#ff0000;stroke-width:0.5;" x="211.566149" xlink:href="#madacf13adf" y="118.218914"/>
     <use style="fill:#ff0000;stroke:#ff0000;stroke-width:0.5;" x="230.951502" xlink:href="#madacf13adf" y="113.48075"/>
     <use style="fill:#ff0000;stroke:#ff0000;stroke-width:0.5;" x="250.579206" xlink:href="#madacf13adf" y="113.840593"/>
     <use style="fill:#ff0000;stroke:#ff0000;stroke-width:0.5;" x="270.640639" xlink:href="#madacf13adf" y="99.652587"/>
     <use style="fill:#ff0000;stroke:#ff0000;stroke-width:0.5;" x="291.029598" xlink:href="#madacf13adf" y="90.044826"/>
     <use style="fill:#ff0000;stroke:#ff0000;stroke-width:0.5;" x="311.147279" xlink:href="#madacf13adf" y="101.844587"/>
     <use style="fill:#ff0000;stroke:#ff0000;stroke-width:0.5;" x="332.029537" xlink:href="#madacf13adf" y="94.682982"/>
     <use style="fill:#ff0000;stroke:#ff0000;stroke-width:0.5;" x="354.322331" xlink:href="#madacf13adf" y="63.845029"/>
     <use style="fill:#ff0000;stroke:#ff0000;stroke-width:0.5;" x="375.080144" xlink:href="#madacf13adf" y="75.625394"/>
    </g>
   </g>
  </g>
 </g>
 <defs>
  <clipPath id="pb12025656f">
   <rect height="288" width="432" x="7.2" y="7.2"/>
  </clipPath>
 </defs>
</svg>
