<?xml version="1.0" encoding="utf-8" standalone="no"?>
<!DOCTYPE svg PUBLIC "-//W3C//DTD SVG 1.1//EN"
  "http://www.w3.org/Graphics/SVG/1.1/DTD/svg11.dtd">
<!-- Created with matplotlib (https://matplotlib.org/) -->
<svg height="302.4pt" version="1.1" viewBox="0 0 446.4 302.4" width="446.4pt" xmlns="http://www.w3.org/2000/svg" xmlns:xlink="http://www.w3.org/1999/xlink">
 <defs>
  <style type="text/css">
*{stroke-linecap:butt;stroke-linejoin:round;}
  </style>
 </defs>
 <g id="figure_1">
  <g id="patch_1">
   <path d="M 0 302.4 
L 446.4 302.4 
L 446.4 0 
L 0 0 
z
" style="fill:none;"/>
  </g>
  <g id="patch_2">
   <path d="M 7.2 295.2 
L 439.2 295.2 
L 439.2 7.2 
L 7.2 7.2 
z
" style="fill:#ffffff;"/>
  </g>
  <g id="pane3d_1">
   <g id="patch_3">
    <path d="M 64.468276 231.56215 
L 188.108936 160.951075 
L 186.05045 26.024902 
L 55.516013 89.4675 
" style="fill:#f2f2f2;opacity:0.5;stroke:#f2f2f2;stroke-linejoin:miter;"/>
   </g>
  </g>
  <g id="pane3d_2">
   <g id="patch_4">
    <path d="M 188.108936 160.951075 
L 388.395181 200.427223 
L 396.774918 61.432405 
L 186.05045 26.024902 
" style="fill:#e6e6e6;opacity:0.5;stroke:#e6e6e6;stroke-linejoin:miter;"/>
   </g>
  </g>
  <g id="pane3d_3">
   <g id="patch_5">
    <path d="M 64.468276 231.56215 
L 275.196469 277.538555 
L 388.395181 200.427223 
L 188.108936 160.951075 
" style="fill:#ececec;opacity:0.5;stroke:#ececec;stroke-linejoin:miter;"/>
   </g>
  </g>
  <g id="axis3d_1">
   <g id="line2d_1">
    <path d="M 64.468276 231.56215 
L 275.196469 277.538555 
" style="fill:none;stroke:#000000;stroke-linecap:square;stroke-width:0.8;"/>
   </g>
   <g id="text_1">
    <!-- $x_1$ -->
    <defs>
     <path d="M 60.015625 54.6875 
L 34.90625 27.875 
L 50.296875 0 
L 39.984375 0 
L 28.421875 21.6875 
L 8.296875 0 
L -2.59375 0 
L 24.3125 28.8125 
L 10.015625 54.6875 
L 20.3125 54.6875 
L 30.8125 34.90625 
L 49.125 54.6875 
z
" id="DejaVuSans-Oblique-120"/>
     <path d="M 12.40625 8.296875 
L 28.515625 8.296875 
L 28.515625 63.921875 
L 10.984375 60.40625 
L 10.984375 69.390625 
L 28.421875 72.90625 
L 38.28125 72.90625 
L 38.28125 8.296875 
L 54.390625 8.296875 
L 54.390625 0 
L 12.40625 0 
z
" id="DejaVuSans-49"/>
    </defs>
    <g transform="translate(144.903858 284.515675)rotate(-347.692154)scale(0.1 -0.1)">
     <use transform="translate(0 0.3125)" xlink:href="#DejaVuSans-Oblique-120"/>
     <use transform="translate(59.179688 -16.09375)scale(0.7)" xlink:href="#DejaVuSans-49"/>
    </g>
   </g>
   <g id="Line3DCollection_1">
    <path d="M 77.315627 234.365168 
L 200.358191 163.365387 
L 198.911762 28.185955 
" style="fill:none;stroke:#b0b0b0;stroke-width:0.8;"/>
    <path d="M 106.957924 240.832486 
L 228.601386 168.932082 
L 228.579233 33.170906 
" style="fill:none;stroke:#b0b0b0;stroke-width:0.8;"/>
    <path d="M 136.991704 247.385218 
L 257.190394 174.566937 
L 258.628513 38.220011 
" style="fill:none;stroke:#b0b0b0;stroke-width:0.8;"/>
    <path d="M 167.424774 254.025066 
L 286.131606 180.271211 
L 289.067019 43.334517 
" style="fill:none;stroke:#b0b0b0;stroke-width:0.8;"/>
    <path d="M 198.26515 260.753779 
L 315.431571 186.046194 
L 319.902363 48.515702 
" style="fill:none;stroke:#b0b0b0;stroke-width:0.8;"/>
    <path d="M 229.521064 267.573154 
L 345.097 191.89321 
L 351.142357 53.76488 
" style="fill:none;stroke:#b0b0b0;stroke-width:0.8;"/>
    <path d="M 261.200972 274.485036 
L 375.134774 197.813614 
L 382.795018 59.083397 
" style="fill:none;stroke:#b0b0b0;stroke-width:0.8;"/>
   </g>
   <g id="xtick_1">
    <g id="line2d_2">
     <path d="M 78.375702 233.753469 
L 75.191523 235.590849 
" style="fill:none;stroke:#000000;stroke-linecap:square;stroke-width:0.8;"/>
    </g>
    <g id="text_2">
     <!-- −3 -->
     <defs>
      <path d="M 10.59375 35.5 
L 73.1875 35.5 
L 73.1875 27.203125 
L 10.59375 27.203125 
z
" id="DejaVuSans-8722"/>
      <path d="M 40.578125 39.3125 
Q 47.65625 37.796875 51.625 33 
Q 55.609375 28.21875 55.609375 21.1875 
Q 55.609375 10.40625 48.1875 4.484375 
Q 40.765625 -1.421875 27.09375 -1.421875 
Q 22.515625 -1.421875 17.65625 -0.515625 
Q 12.796875 0.390625 7.625 2.203125 
L 7.625 11.71875 
Q 11.71875 9.328125 16.59375 8.109375 
Q 21.484375 6.890625 26.8125 6.890625 
Q 36.078125 6.890625 40.9375 10.546875 
Q 45.796875 14.203125 45.796875 21.1875 
Q 45.796875 27.640625 41.28125 31.265625 
Q 36.765625 34.90625 28.71875 34.90625 
L 20.21875 34.90625 
L 20.21875 43.015625 
L 29.109375 43.015625 
Q 36.375 43.015625 40.234375 45.921875 
Q 44.09375 48.828125 44.09375 54.296875 
Q 44.09375 59.90625 40.109375 62.90625 
Q 36.140625 65.921875 28.71875 65.921875 
Q 24.65625 65.921875 20.015625 65.03125 
Q 15.375 64.15625 9.8125 62.3125 
L 9.8125 71.09375 
Q 15.4375 72.65625 20.34375 73.4375 
Q 25.25 74.21875 29.59375 74.21875 
Q 40.828125 74.21875 47.359375 69.109375 
Q 53.90625 64.015625 53.90625 55.328125 
Q 53.90625 49.265625 50.4375 45.09375 
Q 46.96875 40.921875 40.578125 39.3125 
z
" id="DejaVuSans-51"/>
     </defs>
     <g transform="translate(62.281548 254.957015)scale(0.1 -0.1)">
      <use xlink:href="#DejaVuSans-8722"/>
      <use x="83.789062" xlink:href="#DejaVuSans-51"/>
     </g>
    </g>
   </g>
   <g id="xtick_2">
    <g id="line2d_3">
     <path d="M 108.006436 240.212737 
L 104.856963 242.074311 
" style="fill:none;stroke:#000000;stroke-linecap:square;stroke-width:0.8;"/>
    </g>
    <g id="text_3">
     <!-- −2 -->
     <defs>
      <path d="M 19.1875 8.296875 
L 53.609375 8.296875 
L 53.609375 0 
L 7.328125 0 
L 7.328125 8.296875 
Q 12.9375 14.109375 22.625 23.890625 
Q 32.328125 33.6875 34.8125 36.53125 
Q 39.546875 41.84375 41.421875 45.53125 
Q 43.3125 49.21875 43.3125 52.78125 
Q 43.3125 58.59375 39.234375 62.25 
Q 35.15625 65.921875 28.609375 65.921875 
Q 23.96875 65.921875 18.8125 64.3125 
Q 13.671875 62.703125 7.8125 59.421875 
L 7.8125 69.390625 
Q 13.765625 71.78125 18.9375 73 
Q 24.125 74.21875 28.421875 74.21875 
Q 39.75 74.21875 46.484375 68.546875 
Q 53.21875 62.890625 53.21875 53.421875 
Q 53.21875 48.921875 51.53125 44.890625 
Q 49.859375 40.875 45.40625 35.40625 
Q 44.1875 33.984375 37.640625 27.21875 
Q 31.109375 20.453125 19.1875 8.296875 
z
" id="DejaVuSans-50"/>
     </defs>
     <g transform="translate(91.92091 261.520053)scale(0.1 -0.1)">
      <use xlink:href="#DejaVuSans-8722"/>
      <use x="83.789062" xlink:href="#DejaVuSans-50"/>
     </g>
    </g>
   </g>
   <g id="xtick_3">
    <g id="line2d_4">
     <path d="M 138.028254 246.757259 
L 134.914686 248.643508 
" style="fill:none;stroke:#000000;stroke-linecap:square;stroke-width:0.8;"/>
    </g>
    <g id="text_4">
     <!-- −1 -->
     <g transform="translate(121.952347 268.169908)scale(0.1 -0.1)">
      <use xlink:href="#DejaVuSans-8722"/>
      <use x="83.789062" xlink:href="#DejaVuSans-49"/>
     </g>
    </g>
   </g>
   <g id="xtick_4">
    <g id="line2d_5">
     <path d="M 168.44895 253.388734 
L 165.372524 255.300151 
" style="fill:none;stroke:#000000;stroke-linecap:square;stroke-width:0.8;"/>
    </g>
    <g id="text_5">
     <!-- 0 -->
     <defs>
      <path d="M 31.78125 66.40625 
Q 24.171875 66.40625 20.328125 58.90625 
Q 16.5 51.421875 16.5 36.375 
Q 16.5 21.390625 20.328125 13.890625 
Q 24.171875 6.390625 31.78125 6.390625 
Q 39.453125 6.390625 43.28125 13.890625 
Q 47.125 21.390625 47.125 36.375 
Q 47.125 51.421875 43.28125 58.90625 
Q 39.453125 66.40625 31.78125 66.40625 
z
M 31.78125 74.21875 
Q 44.046875 74.21875 50.515625 64.515625 
Q 56.984375 54.828125 56.984375 36.375 
Q 56.984375 17.96875 50.515625 8.265625 
Q 44.046875 -1.421875 31.78125 -1.421875 
Q 19.53125 -1.421875 13.0625 8.265625 
Q 6.59375 17.96875 6.59375 36.375 
Q 6.59375 54.828125 13.0625 64.515625 
Q 19.53125 74.21875 31.78125 74.21875 
z
" id="DejaVuSans-48"/>
     </defs>
     <g transform="translate(156.573534 274.908315)scale(0.1 -0.1)">
      <use xlink:href="#DejaVuSans-48"/>
     </g>
    </g>
   </g>
   <g id="xtick_5">
    <g id="line2d_6">
     <path d="M 199.276528 260.108905 
L 196.23852 262.045998 
" style="fill:none;stroke:#000000;stroke-linecap:square;stroke-width:0.8;"/>
    </g>
    <g id="text_6">
     <!-- 1 -->
     <g transform="translate(187.412825 281.737053)scale(0.1 -0.1)">
      <use xlink:href="#DejaVuSans-49"/>
     </g>
    </g>
   </g>
   <g id="xtick_6">
    <g id="line2d_7">
     <path d="M 230.519205 266.919565 
L 227.520934 268.882854 
" style="fill:none;stroke:#000000;stroke-linecap:square;stroke-width:0.8;"/>
    </g>
    <g id="text_7">
     <!-- 2 -->
     <g transform="translate(218.668322 288.657952)scale(0.1 -0.1)">
      <use xlink:href="#DejaVuSans-50"/>
     </g>
    </g>
   </g>
   <g id="xtick_7">
    <g id="line2d_8">
     <path d="M 262.185423 273.822553 
L 259.22825 275.812574 
" style="fill:none;stroke:#000000;stroke-linecap:square;stroke-width:0.8;"/>
    </g>
    <g id="text_8">
     <!-- 3 -->
     <g transform="translate(250.348508 295.672889)scale(0.1 -0.1)">
      <use xlink:href="#DejaVuSans-51"/>
     </g>
    </g>
   </g>
  </g>
  <g id="axis3d_2">
   <g id="line2d_9">
    <path d="M 388.395181 200.427223 
L 275.196469 277.538555 
" style="fill:none;stroke:#000000;stroke-linecap:square;stroke-width:0.8;"/>
   </g>
   <g id="text_9">
    <!-- $x_2$ -->
    <g transform="translate(358.997475 266.715146)rotate(-34.262819)scale(0.1 -0.1)">
     <use transform="translate(0 0.3125)" xlink:href="#DejaVuSans-Oblique-120"/>
     <use transform="translate(59.179688 -16.09375)scale(0.7)" xlink:href="#DejaVuSans-50"/>
    </g>
   </g>
   <g id="Line3DCollection_2">
    <path d="M 64.454143 85.123372 
L 72.903663 226.744707 
L 282.943623 272.261169 
" style="fill:none;stroke:#b0b0b0;stroke-width:0.8;"/>
    <path d="M 79.563699 77.779797 
L 87.173583 218.595168 
L 296.041197 263.339059 
" style="fill:none;stroke:#b0b0b0;stroke-width:0.8;"/>
    <path d="M 94.410305 70.564021 
L 101.207705 210.580293 
L 308.912448 254.57112 
" style="fill:none;stroke:#b0b0b0;stroke-width:0.8;"/>
    <path d="M 109.000767 63.472736 
L 115.011825 202.696772 
L 321.563193 245.953391 
" style="fill:none;stroke:#b0b0b0;stroke-width:0.8;"/>
    <path d="M 123.341658 56.502749 
L 128.591552 194.941402 
L 333.99905 237.482045 
" style="fill:none;stroke:#b0b0b0;stroke-width:0.8;"/>
    <path d="M 137.439326 49.650973 
L 141.952313 187.311083 
L 346.225449 229.153382 
" style="fill:none;stroke:#b0b0b0;stroke-width:0.8;"/>
    <path d="M 151.299907 42.914427 
L 155.099362 179.802815 
L 358.247636 220.963829 
" style="fill:none;stroke:#b0b0b0;stroke-width:0.8;"/>
    <path d="M 164.929332 36.290228 
L 168.037786 172.413692 
L 370.070686 212.909929 
" style="fill:none;stroke:#b0b0b0;stroke-width:0.8;"/>
    <path d="M 178.333335 29.775588 
L 180.772511 165.140901 
L 381.699505 204.988339 
" style="fill:none;stroke:#b0b0b0;stroke-width:0.8;"/>
   </g>
   <g id="xtick_8">
    <g id="line2d_10">
     <path d="M 281.185773 271.880236 
L 286.463251 273.023885 
" style="fill:none;stroke:#000000;stroke-linecap:square;stroke-width:0.8;"/>
    </g>
    <g id="text_10">
     <!-- 1.0 -->
     <defs>
      <path d="M 10.6875 12.40625 
L 21 12.40625 
L 21 0 
L 10.6875 0 
z
" id="DejaVuSans-46"/>
     </defs>
     <g transform="translate(288.290418 291.249744)scale(0.1 -0.1)">
      <use xlink:href="#DejaVuSans-49"/>
      <use x="63.623047" xlink:href="#DejaVuSans-46"/>
      <use x="95.410156" xlink:href="#DejaVuSans-48"/>
     </g>
    </g>
   </g>
   <g id="xtick_9">
    <g id="line2d_11">
     <path d="M 294.29383 262.964735 
L 299.539801 264.088534 
" style="fill:none;stroke:#000000;stroke-linecap:square;stroke-width:0.8;"/>
    </g>
    <g id="text_11">
     <!-- 1.5 -->
     <defs>
      <path d="M 10.796875 72.90625 
L 49.515625 72.90625 
L 49.515625 64.59375 
L 19.828125 64.59375 
L 19.828125 46.734375 
Q 21.96875 47.46875 24.109375 47.828125 
Q 26.265625 48.1875 28.421875 48.1875 
Q 40.625 48.1875 47.75 41.5 
Q 54.890625 34.8125 54.890625 23.390625 
Q 54.890625 11.625 47.5625 5.09375 
Q 40.234375 -1.421875 26.90625 -1.421875 
Q 22.3125 -1.421875 17.546875 -0.640625 
Q 12.796875 0.140625 7.71875 1.703125 
L 7.71875 11.625 
Q 12.109375 9.234375 16.796875 8.0625 
Q 21.484375 6.890625 26.703125 6.890625 
Q 35.15625 6.890625 40.078125 11.328125 
Q 45.015625 15.765625 45.015625 23.390625 
Q 45.015625 31 40.078125 35.4375 
Q 35.15625 39.890625 26.703125 39.890625 
Q 22.75 39.890625 18.8125 39.015625 
Q 14.890625 38.140625 10.796875 36.28125 
z
" id="DejaVuSans-53"/>
     </defs>
     <g transform="translate(301.266415 282.232313)scale(0.1 -0.1)">
      <use xlink:href="#DejaVuSans-49"/>
      <use x="63.623047" xlink:href="#DejaVuSans-46"/>
      <use x="95.410156" xlink:href="#DejaVuSans-53"/>
     </g>
    </g>
   </g>
   <g id="xtick_10">
    <g id="line2d_12">
     <path d="M 307.175466 254.203236 
L 312.390226 255.307696 
" style="fill:none;stroke:#000000;stroke-linecap:square;stroke-width:0.8;"/>
    </g>
    <g id="text_12">
     <!-- 2.0 -->
     <g transform="translate(314.018289 273.370634)scale(0.1 -0.1)">
      <use xlink:href="#DejaVuSans-50"/>
      <use x="63.623047" xlink:href="#DejaVuSans-46"/>
      <use x="95.410156" xlink:href="#DejaVuSans-48"/>
     </g>
    </g>
   </g>
   <g id="xtick_11">
    <g id="line2d_13">
     <path d="M 319.836499 245.591781 
L 325.020342 246.677398 
" style="fill:none;stroke:#000000;stroke-linecap:square;stroke-width:0.8;"/>
    </g>
    <g id="text_13">
     <!-- 2.5 -->
     <g transform="translate(326.551795 264.660705)scale(0.1 -0.1)">
      <use xlink:href="#DejaVuSans-50"/>
      <use x="63.623047" xlink:href="#DejaVuSans-46"/>
      <use x="95.410156" xlink:href="#DejaVuSans-53"/>
     </g>
    </g>
   </g>
   <g id="xtick_12">
    <g id="line2d_14">
     <path d="M 332.282545 237.12655 
L 337.435767 238.193801 
" style="fill:none;stroke:#000000;stroke-linecap:square;stroke-width:0.8;"/>
    </g>
    <g id="text_14">
     <!-- 3.0 -->
     <g transform="translate(338.872496 256.098661)scale(0.1 -0.1)">
      <use xlink:href="#DejaVuSans-51"/>
      <use x="63.623047" xlink:href="#DejaVuSans-46"/>
      <use x="95.410156" xlink:href="#DejaVuSans-48"/>
     </g>
    </g>
   </g>
   <g id="xtick_13">
    <g id="line2d_15">
     <path d="M 344.519036 228.803849 
L 349.641927 229.853197 
" style="fill:none;stroke:#000000;stroke-linecap:square;stroke-width:0.8;"/>
    </g>
    <g id="text_15">
     <!-- 3.5 -->
     <g transform="translate(350.985765 247.680768)scale(0.1 -0.1)">
      <use xlink:href="#DejaVuSans-51"/>
      <use x="63.623047" xlink:href="#DejaVuSans-46"/>
      <use x="95.410156" xlink:href="#DejaVuSans-53"/>
     </g>
    </g>
   </g>
   <g id="xtick_14">
    <g id="line2d_16">
     <path d="M 356.55122 220.620109 
L 361.64407 221.652 
" style="fill:none;stroke:#000000;stroke-linecap:square;stroke-width:0.8;"/>
    </g>
    <g id="text_16">
     <!-- 4.0 -->
     <defs>
      <path d="M 37.796875 64.3125 
L 12.890625 25.390625 
L 37.796875 25.390625 
z
M 35.203125 72.90625 
L 47.609375 72.90625 
L 47.609375 25.390625 
L 58.015625 25.390625 
L 58.015625 17.1875 
L 47.609375 17.1875 
L 47.609375 0 
L 37.796875 0 
L 37.796875 17.1875 
L 4.890625 17.1875 
L 4.890625 26.703125 
z
" id="DejaVuSans-52"/>
     </defs>
     <g transform="translate(362.896797 239.403416)scale(0.1 -0.1)">
      <use xlink:href="#DejaVuSans-52"/>
      <use x="63.623047" xlink:href="#DejaVuSans-46"/>
      <use x="95.410156" xlink:href="#DejaVuSans-48"/>
     </g>
    </g>
   </g>
   <g id="xtick_15">
    <g id="line2d_17">
     <path d="M 368.38417 212.571877 
L 373.447268 213.586744 
" style="fill:none;stroke:#000000;stroke-linecap:square;stroke-width:0.8;"/>
    </g>
    <g id="text_17">
     <!-- 4.5 -->
     <g transform="translate(374.610615 231.263114)scale(0.1 -0.1)">
      <use xlink:href="#DejaVuSans-52"/>
      <use x="63.623047" xlink:href="#DejaVuSans-46"/>
      <use x="95.410156" xlink:href="#DejaVuSans-53"/>
     </g>
    </g>
   </g>
   <g id="xtick_16">
    <g id="line2d_18">
     <path d="M 380.022795 204.655817 
L 385.056427 205.654077 
" style="fill:none;stroke:#000000;stroke-linecap:square;stroke-width:0.8;"/>
    </g>
    <g id="text_18">
     <!-- 5.0 -->
     <g transform="translate(386.132076 223.256487)scale(0.1 -0.1)">
      <use xlink:href="#DejaVuSans-53"/>
      <use x="63.623047" xlink:href="#DejaVuSans-46"/>
      <use x="95.410156" xlink:href="#DejaVuSans-48"/>
     </g>
    </g>
   </g>
  </g>
  <g id="axis3d_3">
   <g id="line2d_19">
    <path d="M 388.395181 200.427223 
L 396.774918 61.432405 
" style="fill:none;stroke:#000000;stroke-linecap:square;stroke-width:0.8;"/>
   </g>
   <g id="text_19">
    <!-- $f(x_1, x_2)$ -->
    <defs>
     <path d="M 47.796875 75.984375 
L 46.390625 68.5 
L 37.796875 68.5 
Q 32.90625 68.5 30.6875 66.578125 
Q 28.46875 64.65625 27.390625 59.515625 
L 26.421875 54.6875 
L 41.21875 54.6875 
L 39.890625 47.703125 
L 25.09375 47.703125 
L 15.828125 0 
L 6.78125 0 
L 16.109375 47.703125 
L 7.515625 47.703125 
L 8.796875 54.6875 
L 17.390625 54.6875 
L 18.109375 58.5 
Q 19.96875 68.171875 24.625 72.078125 
Q 29.296875 75.984375 39.3125 75.984375 
z
" id="DejaVuSans-Oblique-102"/>
     <path d="M 31 75.875 
Q 24.46875 64.65625 21.28125 53.65625 
Q 18.109375 42.671875 18.109375 31.390625 
Q 18.109375 20.125 21.3125 9.0625 
Q 24.515625 -2 31 -13.1875 
L 23.1875 -13.1875 
Q 15.875 -1.703125 12.234375 9.375 
Q 8.59375 20.453125 8.59375 31.390625 
Q 8.59375 42.28125 12.203125 53.3125 
Q 15.828125 64.359375 23.1875 75.875 
z
" id="DejaVuSans-40"/>
     <path d="M 11.71875 12.40625 
L 22.015625 12.40625 
L 22.015625 4 
L 14.015625 -11.625 
L 7.71875 -11.625 
L 11.71875 4 
z
" id="DejaVuSans-44"/>
     <path d="M 8.015625 75.875 
L 15.828125 75.875 
Q 23.140625 64.359375 26.78125 53.3125 
Q 30.421875 42.28125 30.421875 31.390625 
Q 30.421875 20.453125 26.78125 9.375 
Q 23.140625 -1.703125 15.828125 -13.1875 
L 8.015625 -13.1875 
Q 14.5 -2 17.703125 9.0625 
Q 20.90625 20.125 20.90625 31.390625 
Q 20.90625 42.671875 17.703125 53.65625 
Q 14.5 64.65625 8.015625 75.875 
z
" id="DejaVuSans-41"/>
    </defs>
    <g transform="translate(436.785896 147.929026)rotate(-86.549921)scale(0.1 -0.1)">
     <use transform="translate(0 0.015625)" xlink:href="#DejaVuSans-Oblique-102"/>
     <use transform="translate(35.205078 0.015625)" xlink:href="#DejaVuSans-40"/>
     <use transform="translate(74.21875 0.015625)" xlink:href="#DejaVuSans-Oblique-120"/>
     <use transform="translate(133.398438 -16.390625)scale(0.7)" xlink:href="#DejaVuSans-49"/>
     <use transform="translate(180.668945 0.015625)" xlink:href="#DejaVuSans-44"/>
     <use transform="translate(231.938477 0.015625)" xlink:href="#DejaVuSans-Oblique-120"/>
     <use transform="translate(291.118164 -16.390625)scale(0.7)" xlink:href="#DejaVuSans-50"/>
     <use transform="translate(338.388672 0.015625)" xlink:href="#DejaVuSans-41"/>
    </g>
   </g>
   <g id="Line3DCollection_3">
    <path d="M 389.092878 188.854519 
L 187.937204 149.694673 
L 63.724086 219.75001 
" style="fill:none;stroke:#b0b0b0;stroke-width:0.8;"/>
    <path d="M 390.141844 171.455293 
L 187.679127 132.778685 
L 62.604817 201.984432 
" style="fill:none;stroke:#b0b0b0;stroke-width:0.8;"/>
    <path d="M 391.204651 153.826501 
L 187.417789 115.64892 
L 61.470288 183.976647 
" style="fill:none;stroke:#b0b0b0;stroke-width:0.8;"/>
    <path d="M 392.281574 135.963569 
L 187.153127 98.301298 
L 60.320186 165.721668 
" style="fill:none;stroke:#b0b0b0;stroke-width:0.8;"/>
    <path d="M 393.372895 117.861802 
L 186.885077 80.731637 
L 59.154187 147.214371 
" style="fill:none;stroke:#b0b0b0;stroke-width:0.8;"/>
    <path d="M 394.478906 99.516378 
L 186.613574 62.935647 
L 57.97196 128.449489 
" style="fill:none;stroke:#b0b0b0;stroke-width:0.8;"/>
    <path d="M 395.599906 80.922342 
L 186.338552 44.908925 
L 56.773163 109.421604 
" style="fill:none;stroke:#b0b0b0;stroke-width:0.8;"/>
   </g>
   <g id="xtick_17">
    <g id="line2d_20">
     <path d="M 387.414288 188.52774 
L 392.453561 189.508757 
" style="fill:none;stroke:#000000;stroke-linecap:square;stroke-width:0.8;"/>
    </g>
    <g id="text_20">
     <!-- 0.0 -->
     <g transform="translate(400.424836 194.621884)scale(0.1 -0.1)">
      <use xlink:href="#DejaVuSans-48"/>
      <use x="63.623047" xlink:href="#DejaVuSans-46"/>
      <use x="95.410156" xlink:href="#DejaVuSans-48"/>
     </g>
    </g>
   </g>
   <g id="xtick_18">
    <g id="line2d_21">
     <path d="M 388.45189 171.13246 
L 393.525303 172.101638 
" style="fill:none;stroke:#000000;stroke-linecap:square;stroke-width:0.8;"/>
    </g>
    <g id="text_21">
     <!-- 2.5 -->
     <g transform="translate(401.597879 177.244783)scale(0.1 -0.1)">
      <use xlink:href="#DejaVuSans-50"/>
      <use x="63.623047" xlink:href="#DejaVuSans-46"/>
      <use x="95.410156" xlink:href="#DejaVuSans-53"/>
     </g>
    </g>
   </g>
   <g id="xtick_19">
    <g id="line2d_22">
     <path d="M 389.503178 153.507746 
L 394.611195 154.464686 
" style="fill:none;stroke:#000000;stroke-linecap:square;stroke-width:0.8;"/>
    </g>
    <g id="text_22">
     <!-- 5.0 -->
     <g transform="translate(402.786369 159.638861)scale(0.1 -0.1)">
      <use xlink:href="#DejaVuSans-53"/>
      <use x="63.623047" xlink:href="#DejaVuSans-46"/>
      <use x="95.410156" xlink:href="#DejaVuSans-48"/>
     </g>
    </g>
   </g>
   <g id="xtick_20">
    <g id="line2d_23">
     <path d="M 390.568424 135.649029 
L 395.711521 136.593319 
" style="fill:none;stroke:#000000;stroke-linecap:square;stroke-width:0.8;"/>
    </g>
    <g id="text_23">
     <!-- 7.5 -->
     <defs>
      <path d="M 8.203125 72.90625 
L 55.078125 72.90625 
L 55.078125 68.703125 
L 28.609375 0 
L 18.3125 0 
L 43.21875 64.59375 
L 8.203125 64.59375 
z
" id="DejaVuSans-55"/>
     </defs>
     <g transform="translate(403.990612 141.799567)scale(0.1 -0.1)">
      <use xlink:href="#DejaVuSans-55"/>
      <use x="63.623047" xlink:href="#DejaVuSans-46"/>
      <use x="95.410156" xlink:href="#DejaVuSans-53"/>
     </g>
    </g>
   </g>
   <g id="xtick_21">
    <g id="line2d_24">
     <path d="M 391.647907 117.551619 
L 396.826568 118.482834 
" style="fill:none;stroke:#000000;stroke-linecap:square;stroke-width:0.8;"/>
    </g>
    <g id="text_24">
     <!-- 10.0 -->
     <g transform="translate(402.029675 123.72223)scale(0.1 -0.1)">
      <use xlink:href="#DejaVuSans-49"/>
      <use x="63.623047" xlink:href="#DejaVuSans-48"/>
      <use x="127.246094" xlink:href="#DejaVuSans-46"/>
      <use x="159.033203" xlink:href="#DejaVuSans-48"/>
     </g>
    </g>
   </g>
   <g id="xtick_22">
    <g id="line2d_25">
     <path d="M 392.741916 99.210697 
L 397.956635 100.128398 
" style="fill:none;stroke:#000000;stroke-linecap:square;stroke-width:0.8;"/>
    </g>
    <g id="text_25">
     <!-- 12.5 -->
     <g transform="translate(403.26638 105.402054)scale(0.1 -0.1)">
      <use xlink:href="#DejaVuSans-49"/>
      <use x="63.623047" xlink:href="#DejaVuSans-50"/>
      <use x="127.246094" xlink:href="#DejaVuSans-46"/>
      <use x="159.033203" xlink:href="#DejaVuSans-53"/>
     </g>
    </g>
   </g>
   <g id="xtick_23">
    <g id="line2d_26">
     <path d="M 393.850745 80.621315 
L 399.102028 81.525049 
" style="fill:none;stroke:#000000;stroke-linecap:square;stroke-width:0.8;"/>
    </g>
    <g id="text_26">
     <!-- 15.0 -->
     <g transform="translate(404.519811 86.834113)scale(0.1 -0.1)">
      <use xlink:href="#DejaVuSans-49"/>
      <use x="63.623047" xlink:href="#DejaVuSans-53"/>
      <use x="127.246094" xlink:href="#DejaVuSans-46"/>
      <use x="159.033203" xlink:href="#DejaVuSans-48"/>
     </g>
    </g>
   </g>
  </g>
  <g id="axes_1">
   <g id="line2d_27">
    <defs>
     <path d="M 0 2 
C 0.530406 2 1.03916 1.789267 1.414214 1.414214 
C 1.789267 1.03916 2 0.530406 2 0 
C 2 -0.530406 1.789267 -1.03916 1.414214 -1.414214 
C 1.03916 -1.789267 0.530406 -2 0 -2 
C -0.530406 -2 -1.03916 -1.789267 -1.414214 -1.414214 
C -1.789267 -1.03916 -2 -0.530406 -2 0 
C -2 0.530406 -1.789267 1.03916 -1.414214 1.414214 
C -1.03916 1.789267 -0.530406 2 0 2 
z
" id="m08f0e53089" style="stroke:#ff0000;stroke-width:0.5;"/>
    </defs>
    <g clip-path="url(#p2bf55b6d43)">
     <use style="fill:#ff0000;stroke:#ff0000;stroke-width:0.5;" x="85.172636" xlink:href="#m08f0e53089" y="219.686088"/>
     <use style="fill:#ff0000;stroke:#ff0000;stroke-width:0.5;" x="104.698495" xlink:href="#m08f0e53089" y="219.62221"/>
     <use style="fill:#ff0000;stroke:#ff0000;stroke-width:0.5;" x="123.946204" xlink:href="#m08f0e53089" y="206.656979"/>
     <use style="fill:#ff0000;stroke:#ff0000;stroke-width:0.5;" x="143.992068" xlink:href="#m08f0e53089" y="204.898241"/>
     <use style="fill:#ff0000;stroke:#ff0000;stroke-width:0.5;" x="164.197445" xlink:href="#m08f0e53089" y="198.549494"/>
     <use style="fill:#ff0000;stroke:#ff0000;stroke-width:0.5;" x="184.854644" xlink:href="#m08f0e53089" y="198.373091"/>
     <use style="fill:#ff0000;stroke:#ff0000;stroke-width:0.5;" x="205.669043" xlink:href="#m08f0e53089" y="186.784915"/>
     <use style="fill:#ff0000;stroke:#ff0000;stroke-width:0.5;" x="226.934547" xlink:href="#m08f0e53089" y="182.831891"/>
     <use style="fill:#ff0000;stroke:#ff0000;stroke-width:0.5;" x="248.580613" xlink:href="#m08f0e53089" y="171.917011"/>
     <use style="fill:#ff0000;stroke:#ff0000;stroke-width:0.5;" x="270.897505" xlink:href="#m08f0e53089" y="146.782713"/>
     <use style="fill:#ff0000;stroke:#ff0000;stroke-width:0.5;" x="98.214784" xlink:href="#m08f0e53089" y="219.54652"/>
     <use style="fill:#ff0000;stroke:#ff0000;stroke-width:0.5;" x="117.485778" xlink:href="#m08f0e53089" y="216.34513"/>
     <use style="fill:#ff0000;stroke:#ff0000;stroke-width:0.5;" x="136.559313" xlink:href="#m08f0e53089" y="199.518602"/>
     <use style="fill:#ff0000;stroke:#ff0000;stroke-width:0.5;" x="156.336355" xlink:href="#m08f0e53089" y="190.467031"/>
     <use style="fill:#ff0000;stroke:#ff0000;stroke-width:0.5;" x="176.791381" xlink:href="#m08f0e53089" y="196.505999"/>
     <use style="fill:#ff0000;stroke:#ff0000;stroke-width:0.5;" x="197.028031" xlink:href="#m08f0e53089" y="171.548466"/>
     <use style="fill:#ff0000;stroke:#ff0000;stroke-width:0.5;" x="217.950358" xlink:href="#m08f0e53089" y="157.050145"/>
     <use style="fill:#ff0000;stroke:#ff0000;stroke-width:0.5;" x="239.255973" xlink:href="#m08f0e53089" y="169.970459"/>
     <use style="fill:#ff0000;stroke:#ff0000;stroke-width:0.5;" x="260.957332" xlink:href="#m08f0e53089" y="154.25255"/>
     <use style="fill:#ff0000;stroke:#ff0000;stroke-width:0.5;" x="282.571109" xlink:href="#m08f0e53089" y="169.066187"/>
     <use style="fill:#ff0000;stroke:#ff0000;stroke-width:0.5;" x="109.904878" xlink:href="#m08f0e53089" y="195.173241"/>
     <use style="fill:#ff0000;stroke:#ff0000;stroke-width:0.5;" x="129.354851" xlink:href="#m08f0e53089" y="194.800855"/>
     <use style="fill:#ff0000;stroke:#ff0000;stroke-width:0.5;" x="148.719617" xlink:href="#m08f0e53089" y="183.824075"/>
     <use style="fill:#ff0000;stroke:#ff0000;stroke-width:0.5;" x="168.63183" xlink:href="#m08f0e53089" y="179.405286"/>
     <use style="fill:#ff0000;stroke:#ff0000;stroke-width:0.5;" x="188.881393" xlink:href="#m08f0e53089" y="177.065978"/>
     <use style="fill:#ff0000;stroke:#ff0000;stroke-width:0.5;" x="209.385127" xlink:href="#m08f0e53089" y="171.282111"/>
     <use style="fill:#ff0000;stroke:#ff0000;stroke-width:0.5;" x="230.231065" xlink:href="#m08f0e53089" y="156.669727"/>
     <use style="fill:#ff0000;stroke:#ff0000;stroke-width:0.5;" x="251.460727" xlink:href="#m08f0e53089" y="154.06276"/>
     <use style="fill:#ff0000;stroke:#ff0000;stroke-width:0.5;" x="273.02937" xlink:href="#m08f0e53089" y="149.120325"/>
     <use style="fill:#ff0000;stroke:#ff0000;stroke-width:0.5;" x="295.176402" xlink:href="#m08f0e53089" y="134.584361"/>
     <use style="fill:#ff0000;stroke:#ff0000;stroke-width:0.5;" x="122.277126" xlink:href="#m08f0e53089" y="188.331163"/>
     <use style="fill:#ff0000;stroke:#ff0000;stroke-width:0.5;" x="141.099667" xlink:href="#m08f0e53089" y="171.031581"/>
     <use style="fill:#ff0000;stroke:#ff0000;stroke-width:0.5;" x="161.195439" xlink:href="#m08f0e53089" y="184.745449"/>
     <use style="fill:#ff0000;stroke:#ff0000;stroke-width:0.5;" x="180.855047" xlink:href="#m08f0e53089" y="172.797394"/>
     <use style="fill:#ff0000;stroke:#ff0000;stroke-width:0.5;" x="200.982069" xlink:href="#m08f0e53089" y="165.812482"/>
     <use style="fill:#ff0000;stroke:#ff0000;stroke-width:0.5;" x="221.460484" xlink:href="#m08f0e53089" y="160.435071"/>
     <use style="fill:#ff0000;stroke:#ff0000;stroke-width:0.5;" x="242.239664" xlink:href="#m08f0e53089" y="160.627762"/>
     <use style="fill:#ff0000;stroke:#ff0000;stroke-width:0.5;" x="263.426266" xlink:href="#m08f0e53089" y="148.228749"/>
     <use style="fill:#ff0000;stroke:#ff0000;stroke-width:0.5;" x="285.067704" xlink:href="#m08f0e53089" y="135.64507"/>
     <use style="fill:#ff0000;stroke:#ff0000;stroke-width:0.5;" x="306.970552" xlink:href="#m08f0e53089" y="130.053431"/>
     <use style="fill:#ff0000;stroke:#ff0000;stroke-width:0.5;" x="134.498787" xlink:href="#m08f0e53089" y="182.490044"/>
     <use style="fill:#ff0000;stroke:#ff0000;stroke-width:0.5;" x="153.751333" xlink:href="#m08f0e53089" y="180.365177"/>
     <use style="fill:#ff0000;stroke:#ff0000;stroke-width:0.5;" x="172.976948" xlink:href="#m08f0e53089" y="164.800317"/>
     <use style="fill:#ff0000;stroke:#ff0000;stroke-width:0.5;" x="192.768219" xlink:href="#m08f0e53089" y="157.181665"/>
     <use style="fill:#ff0000;stroke:#ff0000;stroke-width:0.5;" x="212.906049" xlink:href="#m08f0e53089" y="149.487167"/>
     <use style="fill:#ff0000;stroke:#ff0000;stroke-width:0.5;" x="233.388613" xlink:href="#m08f0e53089" y="147.712003"/>
     <use style="fill:#ff0000;stroke:#ff0000;stroke-width:0.5;" x="254.062719" xlink:href="#m08f0e53089" y="154.316567"/>
     <use style="fill:#ff0000;stroke:#ff0000;stroke-width:0.5;" x="275.265858" xlink:href="#m08f0e53089" y="138.382241"/>
     <use style="fill:#ff0000;stroke:#ff0000;stroke-width:0.5;" x="296.827846" xlink:href="#m08f0e53089" y="128.162384"/>
     <use style="fill:#ff0000;stroke:#ff0000;stroke-width:0.5;" x="318.121742" xlink:href="#m08f0e53089" y="138.818936"/>
     <use style="fill:#ff0000;stroke:#ff0000;stroke-width:0.5;" x="146.109816" xlink:href="#m08f0e53089" y="163.047667"/>
     <use style="fill:#ff0000;stroke:#ff0000;stroke-width:0.5;" x="165.478106" xlink:href="#m08f0e53089" y="164.575445"/>
     <use style="fill:#ff0000;stroke:#ff0000;stroke-width:0.5;" x="184.998819" xlink:href="#m08f0e53089" y="163.277357"/>
     <use style="fill:#ff0000;stroke:#ff0000;stroke-width:0.5;" x="204.698232" xlink:href="#m08f0e53089" y="154.766819"/>
     <use style="fill:#ff0000;stroke:#ff0000;stroke-width:0.5;" x="224.746722" xlink:href="#m08f0e53089" y="141.974527"/>
     <use style="fill:#ff0000;stroke:#ff0000;stroke-width:0.5;" x="245.147866" xlink:href="#m08f0e53089" y="141.610331"/>
     <use style="fill:#ff0000;stroke:#ff0000;stroke-width:0.5;" x="265.986662" xlink:href="#m08f0e53089" y="127.035295"/>
     <use style="fill:#ff0000;stroke:#ff0000;stroke-width:0.5;" x="286.971583" xlink:href="#m08f0e53089" y="127.567387"/>
     <use style="fill:#ff0000;stroke:#ff0000;stroke-width:0.5;" x="308.453474" xlink:href="#m08f0e53089" y="119.297412"/>
     <use style="fill:#ff0000;stroke:#ff0000;stroke-width:0.5;" x="330.36325" xlink:href="#m08f0e53089" y="109.843327"/>
     <use style="fill:#ff0000;stroke:#ff0000;stroke-width:0.5;" x="157.898833" xlink:href="#m08f0e53089" y="152.680619"/>
     <use style="fill:#ff0000;stroke:#ff0000;stroke-width:0.5;" x="177.303658" xlink:href="#m08f0e53089" y="158.862344"/>
     <use style="fill:#ff0000;stroke:#ff0000;stroke-width:0.5;" x="196.62569" xlink:href="#m08f0e53089" y="147.439271"/>
     <use style="fill:#ff0000;stroke:#ff0000;stroke-width:0.5;" x="216.440613" xlink:href="#m08f0e53089" y="158.134074"/>
     <use style="fill:#ff0000;stroke:#ff0000;stroke-width:0.5;" x="236.396004" xlink:href="#m08f0e53089" y="142.165897"/>
     <use style="fill:#ff0000;stroke:#ff0000;stroke-width:0.5;" x="256.734143" xlink:href="#m08f0e53089" y="134.630069"/>
     <use style="fill:#ff0000;stroke:#ff0000;stroke-width:0.5;" x="277.410874" xlink:href="#m08f0e53089" y="127.687568"/>
     <use style="fill:#ff0000;stroke:#ff0000;stroke-width:0.5;" x="298.610597" xlink:href="#m08f0e53089" y="113.80652"/>
     <use style="fill:#ff0000;stroke:#ff0000;stroke-width:0.5;" x="319.692376" xlink:href="#m08f0e53089" y="117.306893"/>
     <use style="fill:#ff0000;stroke:#ff0000;stroke-width:0.5;" x="340.929393" xlink:href="#m08f0e53089" y="121.77498"/>
     <use style="fill:#ff0000;stroke:#ff0000;stroke-width:0.5;" x="169.494629" xlink:href="#m08f0e53089" y="139.908272"/>
     <use style="fill:#ff0000;stroke:#ff0000;stroke-width:0.5;" x="188.792747" xlink:href="#m08f0e53089" y="142.693629"/>
     <use style="fill:#ff0000;stroke:#ff0000;stroke-width:0.5;" x="208.300142" xlink:href="#m08f0e53089" y="149.817421"/>
     <use style="fill:#ff0000;stroke:#ff0000;stroke-width:0.5;" x="227.911217" xlink:href="#m08f0e53089" y="128.06805"/>
     <use style="fill:#ff0000;stroke:#ff0000;stroke-width:0.5;" x="247.92967" xlink:href="#m08f0e53089" y="125.82664"/>
     <use style="fill:#ff0000;stroke:#ff0000;stroke-width:0.5;" x="268.236803" xlink:href="#m08f0e53089" y="121.705196"/>
     <use style="fill:#ff0000;stroke:#ff0000;stroke-width:0.5;" x="288.741738" xlink:href="#m08f0e53089" y="121.98916"/>
     <use style="fill:#ff0000;stroke:#ff0000;stroke-width:0.5;" x="309.595094" xlink:href="#m08f0e53089" y="118.347363"/>
     <use style="fill:#ff0000;stroke:#ff0000;stroke-width:0.5;" x="330.927542" xlink:href="#m08f0e53089" y="109.818827"/>
     <use style="fill:#ff0000;stroke:#ff0000;stroke-width:0.5;" x="352.726017" xlink:href="#m08f0e53089" y="99.34627"/>
     <use style="fill:#ff0000;stroke:#ff0000;stroke-width:0.5;" x="180.953494" xlink:href="#m08f0e53089" y="125.920163"/>
     <use style="fill:#ff0000;stroke:#ff0000;stroke-width:0.5;" x="200.254986" xlink:href="#m08f0e53089" y="132.085438"/>
     <use style="fill:#ff0000;stroke:#ff0000;stroke-width:0.5;" x="219.664385" xlink:href="#m08f0e53089" y="133.178583"/>
     <use style="fill:#ff0000;stroke:#ff0000;stroke-width:0.5;" x="239.348896" xlink:href="#m08f0e53089" y="114.645686"/>
     <use style="fill:#ff0000;stroke:#ff0000;stroke-width:0.5;" x="259.256325" xlink:href="#m08f0e53089" y="120.325415"/>
     <use style="fill:#ff0000;stroke:#ff0000;stroke-width:0.5;" x="279.609073" xlink:href="#m08f0e53089" y="109.581781"/>
     <use style="fill:#ff0000;stroke:#ff0000;stroke-width:0.5;" x="300.566557" xlink:href="#m08f0e53089" y="90.565239"/>
     <use style="fill:#ff0000;stroke:#ff0000;stroke-width:0.5;" x="321.305142" xlink:href="#m08f0e53089" y="93.623541"/>
     <use style="fill:#ff0000;stroke:#ff0000;stroke-width:0.5;" x="342.118486" xlink:href="#m08f0e53089" y="99.543207"/>
     <use style="fill:#ff0000;stroke:#ff0000;stroke-width:0.5;" x="363.930967" xlink:href="#m08f0e53089" y="88.151498"/>
     <use style="fill:#ff0000;stroke:#ff0000;stroke-width:0.5;" x="192.619096" xlink:href="#m08f0e53089" y="134.882824"/>
     <use style="fill:#ff0000;stroke:#ff0000;stroke-width:0.5;" x="211.684018" xlink:href="#m08f0e53089" y="136.605756"/>
     <use style="fill:#ff0000;stroke:#ff0000;stroke-width:0.5;" x="230.950237" xlink:href="#m08f0e53089" y="115.286304"/>
     <use style="fill:#ff0000;stroke:#ff0000;stroke-width:0.5;" x="250.686602" xlink:href="#m08f0e53089" y="100.230674"/>
     <use style="fill:#ff0000;stroke:#ff0000;stroke-width:0.5;" x="270.414812" xlink:href="#m08f0e53089" y="114.547683"/>
     <use style="fill:#ff0000;stroke:#ff0000;stroke-width:0.5;" x="290.75896" xlink:href="#m08f0e53089" y="102.066462"/>
     <use style="fill:#ff0000;stroke:#ff0000;stroke-width:0.5;" x="311.1382" xlink:href="#m08f0e53089" y="102.147752"/>
     <use style="fill:#ff0000;stroke:#ff0000;stroke-width:0.5;" x="332.711919" xlink:href="#m08f0e53089" y="76.469145"/>
     <use style="fill:#ff0000;stroke:#ff0000;stroke-width:0.5;" x="353.699805" xlink:href="#m08f0e53089" y="77.657809"/>
     <use style="fill:#ff0000;stroke:#ff0000;stroke-width:0.5;" x="375.583332" xlink:href="#m08f0e53089" y="66.088037"/>
    </g>
   </g>
  </g>
 </g>
 <defs>
  <clipPath id="p2bf55b6d43">
   <rect height="288" width="432" x="7.2" y="7.2"/>
  </clipPath>
 </defs>
</svg>
