<?xml version="1.0" encoding="utf-8" standalone="no"?>
<!DOCTYPE svg PUBLIC "-//W3C//DTD SVG 1.1//EN"
  "http://www.w3.org/Graphics/SVG/1.1/DTD/svg11.dtd">
<!-- Created with matplotlib (http://matplotlib.org/) -->
<svg height="309.4pt" version="1.1" viewBox="0 0 453.4 309.4" width="453.4pt" xmlns="http://www.w3.org/2000/svg" xmlns:xlink="http://www.w3.org/1999/xlink">
 <defs>
  <style type="text/css">
*{stroke-linecap:butt;stroke-linejoin:round;}
  </style>
 </defs>
 <g id="figure_1">
  <g id="patch_1">
   <path d="M 0 309.4 
L 453.4 309.4 
L 453.4 0 
L 0 0 
z
" style="fill:none;"/>
  </g>
  <g id="patch_2">
   <path d="M 10.7 298.7 
L 442.7 298.7 
L 442.7 10.7 
L 10.7 10.7 
z
" style="fill:#ffffff;"/>
  </g>
  <g id="pane3d_1">
   <g id="patch_3">
    <path d="M 67.968276 235.06215 
L 191.608936 164.451075 
L 189.55045 29.524902 
L 59.016013 92.9675 
" style="fill:#f2f2f2;opacity:0.5;stroke:#f2f2f2;stroke-linejoin:miter;"/>
   </g>
  </g>
  <g id="pane3d_2">
   <g id="patch_4">
    <path d="M 191.608936 164.451075 
L 391.895181 203.927223 
L 400.274918 64.932405 
L 189.55045 29.524902 
" style="fill:#e6e6e6;opacity:0.5;stroke:#e6e6e6;stroke-linejoin:miter;"/>
   </g>
  </g>
  <g id="pane3d_3">
   <g id="patch_5">
    <path d="M 67.968276 235.06215 
L 278.696469 281.038555 
L 391.895181 203.927223 
L 191.608936 164.451075 
" style="fill:#ececec;opacity:0.5;stroke:#ececec;stroke-linejoin:miter;"/>
   </g>
  </g>
  <g id="axis3d_1">
   <g id="line2d_1">
    <path d="M 67.968276 235.06215 
L 278.696469 281.038555 
" style="fill:none;stroke:#000000;stroke-linecap:square;stroke-width:0.8;"/>
   </g>
   <g id="text_1">
    <!-- $x_1$ -->
    <defs>
     <path d="M 60.015625 54.6875 
L 34.90625 27.875 
L 50.296875 0 
L 39.984375 0 
L 28.421875 21.6875 
L 8.296875 0 
L -2.59375 0 
L 24.3125 28.8125 
L 10.015625 54.6875 
L 20.3125 54.6875 
L 30.8125 34.90625 
L 49.125 54.6875 
z
" id="DejaVuSans-Oblique-78"/>
     <path d="M 12.40625 8.296875 
L 28.515625 8.296875 
L 28.515625 63.921875 
L 10.984375 60.40625 
L 10.984375 69.390625 
L 28.421875 72.90625 
L 38.28125 72.90625 
L 38.28125 8.296875 
L 54.390625 8.296875 
L 54.390625 0 
L 12.40625 0 
z
" id="DejaVuSans-31"/>
    </defs>
    <g transform="translate(148.403858 288.015675)rotate(-347.692154)scale(0.1 -0.1)">
     <use transform="translate(0 0.3125)" xlink:href="#DejaVuSans-Oblique-78"/>
     <use transform="translate(59.179688 -16.09375)scale(0.7)" xlink:href="#DejaVuSans-31"/>
    </g>
   </g>
   <g id="Line3DCollection_1">
    <path d="M 80.815627 237.865168 
L 203.858191 166.865387 
L 202.411762 31.685955 
" style="fill:none;stroke:#b0b0b0;stroke-width:0.8;"/>
    <path d="M 110.457924 244.332486 
L 232.101386 172.432082 
L 232.079233 36.670906 
" style="fill:none;stroke:#b0b0b0;stroke-width:0.8;"/>
    <path d="M 140.491704 250.885218 
L 260.690394 178.066937 
L 262.128513 41.720011 
" style="fill:none;stroke:#b0b0b0;stroke-width:0.8;"/>
    <path d="M 170.924774 257.525066 
L 289.631606 183.771211 
L 292.567019 46.834517 
" style="fill:none;stroke:#b0b0b0;stroke-width:0.8;"/>
    <path d="M 201.76515 264.253779 
L 318.931571 189.546194 
L 323.402363 52.015702 
" style="fill:none;stroke:#b0b0b0;stroke-width:0.8;"/>
    <path d="M 233.021064 271.073154 
L 348.597 195.39321 
L 354.642357 57.26488 
" style="fill:none;stroke:#b0b0b0;stroke-width:0.8;"/>
    <path d="M 264.700972 277.985036 
L 378.634774 201.313614 
L 386.295018 62.583397 
" style="fill:none;stroke:#b0b0b0;stroke-width:0.8;"/>
   </g>
   <g id="xtick_1">
    <g id="line2d_2">
     <path d="M 81.875702 237.253469 
L 78.691523 239.090849 
" style="fill:none;stroke:#000000;stroke-linecap:square;stroke-width:0.8;"/>
    </g>
    <g id="text_2">
     <!-- −3 -->
     <defs>
      <path d="M 10.59375 35.5 
L 73.1875 35.5 
L 73.1875 27.203125 
L 10.59375 27.203125 
z
" id="DejaVuSans-2212"/>
      <path d="M 40.578125 39.3125 
Q 47.65625 37.796875 51.625 33 
Q 55.609375 28.21875 55.609375 21.1875 
Q 55.609375 10.40625 48.1875 4.484375 
Q 40.765625 -1.421875 27.09375 -1.421875 
Q 22.515625 -1.421875 17.65625 -0.515625 
Q 12.796875 0.390625 7.625 2.203125 
L 7.625 11.71875 
Q 11.71875 9.328125 16.59375 8.109375 
Q 21.484375 6.890625 26.8125 6.890625 
Q 36.078125 6.890625 40.9375 10.546875 
Q 45.796875 14.203125 45.796875 21.1875 
Q 45.796875 27.640625 41.28125 31.265625 
Q 36.765625 34.90625 28.71875 34.90625 
L 20.21875 34.90625 
L 20.21875 43.015625 
L 29.109375 43.015625 
Q 36.375 43.015625 40.234375 45.921875 
Q 44.09375 48.828125 44.09375 54.296875 
Q 44.09375 59.90625 40.109375 62.90625 
Q 36.140625 65.921875 28.71875 65.921875 
Q 24.65625 65.921875 20.015625 65.03125 
Q 15.375 64.15625 9.8125 62.3125 
L 9.8125 71.09375 
Q 15.4375 72.65625 20.34375 73.4375 
Q 25.25 74.21875 29.59375 74.21875 
Q 40.828125 74.21875 47.359375 69.109375 
Q 53.90625 64.015625 53.90625 55.328125 
Q 53.90625 49.265625 50.4375 45.09375 
Q 46.96875 40.921875 40.578125 39.3125 
z
" id="DejaVuSans-33"/>
     </defs>
     <g transform="translate(65.781548 258.457015)scale(0.1 -0.1)">
      <use xlink:href="#DejaVuSans-2212"/>
      <use x="83.789062" xlink:href="#DejaVuSans-33"/>
     </g>
    </g>
   </g>
   <g id="xtick_2">
    <g id="line2d_3">
     <path d="M 111.506436 243.712737 
L 108.356963 245.574311 
" style="fill:none;stroke:#000000;stroke-linecap:square;stroke-width:0.8;"/>
    </g>
    <g id="text_3">
     <!-- −2 -->
     <defs>
      <path d="M 19.1875 8.296875 
L 53.609375 8.296875 
L 53.609375 0 
L 7.328125 0 
L 7.328125 8.296875 
Q 12.9375 14.109375 22.625 23.890625 
Q 32.328125 33.6875 34.8125 36.53125 
Q 39.546875 41.84375 41.421875 45.53125 
Q 43.3125 49.21875 43.3125 52.78125 
Q 43.3125 58.59375 39.234375 62.25 
Q 35.15625 65.921875 28.609375 65.921875 
Q 23.96875 65.921875 18.8125 64.3125 
Q 13.671875 62.703125 7.8125 59.421875 
L 7.8125 69.390625 
Q 13.765625 71.78125 18.9375 73 
Q 24.125 74.21875 28.421875 74.21875 
Q 39.75 74.21875 46.484375 68.546875 
Q 53.21875 62.890625 53.21875 53.421875 
Q 53.21875 48.921875 51.53125 44.890625 
Q 49.859375 40.875 45.40625 35.40625 
Q 44.1875 33.984375 37.640625 27.21875 
Q 31.109375 20.453125 19.1875 8.296875 
z
" id="DejaVuSans-32"/>
     </defs>
     <g transform="translate(95.42091 265.020053)scale(0.1 -0.1)">
      <use xlink:href="#DejaVuSans-2212"/>
      <use x="83.789062" xlink:href="#DejaVuSans-32"/>
     </g>
    </g>
   </g>
   <g id="xtick_3">
    <g id="line2d_4">
     <path d="M 141.528254 250.257259 
L 138.414686 252.143508 
" style="fill:none;stroke:#000000;stroke-linecap:square;stroke-width:0.8;"/>
    </g>
    <g id="text_4">
     <!-- −1 -->
     <g transform="translate(125.452347 271.669908)scale(0.1 -0.1)">
      <use xlink:href="#DejaVuSans-2212"/>
      <use x="83.789062" xlink:href="#DejaVuSans-31"/>
     </g>
    </g>
   </g>
   <g id="xtick_4">
    <g id="line2d_5">
     <path d="M 171.94895 256.888734 
L 168.872524 258.800151 
" style="fill:none;stroke:#000000;stroke-linecap:square;stroke-width:0.8;"/>
    </g>
    <g id="text_5">
     <!-- 0 -->
     <defs>
      <path d="M 31.78125 66.40625 
Q 24.171875 66.40625 20.328125 58.90625 
Q 16.5 51.421875 16.5 36.375 
Q 16.5 21.390625 20.328125 13.890625 
Q 24.171875 6.390625 31.78125 6.390625 
Q 39.453125 6.390625 43.28125 13.890625 
Q 47.125 21.390625 47.125 36.375 
Q 47.125 51.421875 43.28125 58.90625 
Q 39.453125 66.40625 31.78125 66.40625 
z
M 31.78125 74.21875 
Q 44.046875 74.21875 50.515625 64.515625 
Q 56.984375 54.828125 56.984375 36.375 
Q 56.984375 17.96875 50.515625 8.265625 
Q 44.046875 -1.421875 31.78125 -1.421875 
Q 19.53125 -1.421875 13.0625 8.265625 
Q 6.59375 17.96875 6.59375 36.375 
Q 6.59375 54.828125 13.0625 64.515625 
Q 19.53125 74.21875 31.78125 74.21875 
z
" id="DejaVuSans-30"/>
     </defs>
     <g transform="translate(160.073534 278.408315)scale(0.1 -0.1)">
      <use xlink:href="#DejaVuSans-30"/>
     </g>
    </g>
   </g>
   <g id="xtick_5">
    <g id="line2d_6">
     <path d="M 202.776528 263.608905 
L 199.73852 265.545998 
" style="fill:none;stroke:#000000;stroke-linecap:square;stroke-width:0.8;"/>
    </g>
    <g id="text_6">
     <!-- 1 -->
     <g transform="translate(190.912825 285.237053)scale(0.1 -0.1)">
      <use xlink:href="#DejaVuSans-31"/>
     </g>
    </g>
   </g>
   <g id="xtick_6">
    <g id="line2d_7">
     <path d="M 234.019205 270.419565 
L 231.020934 272.382854 
" style="fill:none;stroke:#000000;stroke-linecap:square;stroke-width:0.8;"/>
    </g>
    <g id="text_7">
     <!-- 2 -->
     <g transform="translate(222.168322 292.157952)scale(0.1 -0.1)">
      <use xlink:href="#DejaVuSans-32"/>
     </g>
    </g>
   </g>
   <g id="xtick_7">
    <g id="line2d_8">
     <path d="M 265.685423 277.322553 
L 262.72825 279.312574 
" style="fill:none;stroke:#000000;stroke-linecap:square;stroke-width:0.8;"/>
    </g>
    <g id="text_8">
     <!-- 3 -->
     <g transform="translate(253.848508 299.172889)scale(0.1 -0.1)">
      <use xlink:href="#DejaVuSans-33"/>
     </g>
    </g>
   </g>
  </g>
  <g id="axis3d_2">
   <g id="line2d_9">
    <path d="M 391.895181 203.927223 
L 278.696469 281.038555 
" style="fill:none;stroke:#000000;stroke-linecap:square;stroke-width:0.8;"/>
   </g>
   <g id="text_9">
    <!-- $x_2$ -->
    <g transform="translate(362.497475 270.215146)rotate(-34.262819)scale(0.1 -0.1)">
     <use transform="translate(0 0.3125)" xlink:href="#DejaVuSans-Oblique-78"/>
     <use transform="translate(59.179688 -16.09375)scale(0.7)" xlink:href="#DejaVuSans-32"/>
    </g>
   </g>
   <g id="Line3DCollection_2">
    <path d="M 67.954143 88.623372 
L 76.403663 230.244707 
L 286.443623 275.761169 
" style="fill:none;stroke:#b0b0b0;stroke-width:0.8;"/>
    <path d="M 83.063699 81.279797 
L 90.673583 222.095168 
L 299.541197 266.839059 
" style="fill:none;stroke:#b0b0b0;stroke-width:0.8;"/>
    <path d="M 97.910305 74.064021 
L 104.707705 214.080293 
L 312.412448 258.07112 
" style="fill:none;stroke:#b0b0b0;stroke-width:0.8;"/>
    <path d="M 112.500767 66.972736 
L 118.511825 206.196772 
L 325.063193 249.453391 
" style="fill:none;stroke:#b0b0b0;stroke-width:0.8;"/>
    <path d="M 126.841658 60.002749 
L 132.091552 198.441402 
L 337.49905 240.982045 
" style="fill:none;stroke:#b0b0b0;stroke-width:0.8;"/>
    <path d="M 140.939326 53.150973 
L 145.452313 190.811083 
L 349.725449 232.653382 
" style="fill:none;stroke:#b0b0b0;stroke-width:0.8;"/>
    <path d="M 154.799907 46.414427 
L 158.599362 183.302815 
L 361.747636 224.463829 
" style="fill:none;stroke:#b0b0b0;stroke-width:0.8;"/>
    <path d="M 168.429332 39.790228 
L 171.537786 175.913692 
L 373.570686 216.409929 
" style="fill:none;stroke:#b0b0b0;stroke-width:0.8;"/>
    <path d="M 181.833335 33.275588 
L 184.272511 168.640901 
L 385.199505 208.488339 
" style="fill:none;stroke:#b0b0b0;stroke-width:0.8;"/>
   </g>
   <g id="xtick_8">
    <g id="line2d_10">
     <path d="M 284.685773 275.380236 
L 289.963251 276.523885 
" style="fill:none;stroke:#000000;stroke-linecap:square;stroke-width:0.8;"/>
    </g>
    <g id="text_10">
     <!-- 1.0 -->
     <defs>
      <path d="M 10.6875 12.40625 
L 21 12.40625 
L 21 0 
L 10.6875 0 
z
" id="DejaVuSans-2e"/>
     </defs>
     <g transform="translate(291.790418 294.749744)scale(0.1 -0.1)">
      <use xlink:href="#DejaVuSans-31"/>
      <use x="63.623047" xlink:href="#DejaVuSans-2e"/>
      <use x="95.410156" xlink:href="#DejaVuSans-30"/>
     </g>
    </g>
   </g>
   <g id="xtick_9">
    <g id="line2d_11">
     <path d="M 297.79383 266.464735 
L 303.039801 267.588534 
" style="fill:none;stroke:#000000;stroke-linecap:square;stroke-width:0.8;"/>
    </g>
    <g id="text_11">
     <!-- 1.5 -->
     <defs>
      <path d="M 10.796875 72.90625 
L 49.515625 72.90625 
L 49.515625 64.59375 
L 19.828125 64.59375 
L 19.828125 46.734375 
Q 21.96875 47.46875 24.109375 47.828125 
Q 26.265625 48.1875 28.421875 48.1875 
Q 40.625 48.1875 47.75 41.5 
Q 54.890625 34.8125 54.890625 23.390625 
Q 54.890625 11.625 47.5625 5.09375 
Q 40.234375 -1.421875 26.90625 -1.421875 
Q 22.3125 -1.421875 17.546875 -0.640625 
Q 12.796875 0.140625 7.71875 1.703125 
L 7.71875 11.625 
Q 12.109375 9.234375 16.796875 8.0625 
Q 21.484375 6.890625 26.703125 6.890625 
Q 35.15625 6.890625 40.078125 11.328125 
Q 45.015625 15.765625 45.015625 23.390625 
Q 45.015625 31 40.078125 35.4375 
Q 35.15625 39.890625 26.703125 39.890625 
Q 22.75 39.890625 18.8125 39.015625 
Q 14.890625 38.140625 10.796875 36.28125 
z
" id="DejaVuSans-35"/>
     </defs>
     <g transform="translate(304.766415 285.732313)scale(0.1 -0.1)">
      <use xlink:href="#DejaVuSans-31"/>
      <use x="63.623047" xlink:href="#DejaVuSans-2e"/>
      <use x="95.410156" xlink:href="#DejaVuSans-35"/>
     </g>
    </g>
   </g>
   <g id="xtick_10">
    <g id="line2d_12">
     <path d="M 310.675466 257.703236 
L 315.890226 258.807696 
" style="fill:none;stroke:#000000;stroke-linecap:square;stroke-width:0.8;"/>
    </g>
    <g id="text_12">
     <!-- 2.0 -->
     <g transform="translate(317.518289 276.870634)scale(0.1 -0.1)">
      <use xlink:href="#DejaVuSans-32"/>
      <use x="63.623047" xlink:href="#DejaVuSans-2e"/>
      <use x="95.410156" xlink:href="#DejaVuSans-30"/>
     </g>
    </g>
   </g>
   <g id="xtick_11">
    <g id="line2d_13">
     <path d="M 323.336499 249.091781 
L 328.520342 250.177398 
" style="fill:none;stroke:#000000;stroke-linecap:square;stroke-width:0.8;"/>
    </g>
    <g id="text_13">
     <!-- 2.5 -->
     <g transform="translate(330.051795 268.160705)scale(0.1 -0.1)">
      <use xlink:href="#DejaVuSans-32"/>
      <use x="63.623047" xlink:href="#DejaVuSans-2e"/>
      <use x="95.410156" xlink:href="#DejaVuSans-35"/>
     </g>
    </g>
   </g>
   <g id="xtick_12">
    <g id="line2d_14">
     <path d="M 335.782545 240.62655 
L 340.935767 241.693801 
" style="fill:none;stroke:#000000;stroke-linecap:square;stroke-width:0.8;"/>
    </g>
    <g id="text_14">
     <!-- 3.0 -->
     <g transform="translate(342.372496 259.598661)scale(0.1 -0.1)">
      <use xlink:href="#DejaVuSans-33"/>
      <use x="63.623047" xlink:href="#DejaVuSans-2e"/>
      <use x="95.410156" xlink:href="#DejaVuSans-30"/>
     </g>
    </g>
   </g>
   <g id="xtick_13">
    <g id="line2d_15">
     <path d="M 348.019036 232.303849 
L 353.141927 233.353197 
" style="fill:none;stroke:#000000;stroke-linecap:square;stroke-width:0.8;"/>
    </g>
    <g id="text_15">
     <!-- 3.5 -->
     <g transform="translate(354.485765 251.180768)scale(0.1 -0.1)">
      <use xlink:href="#DejaVuSans-33"/>
      <use x="63.623047" xlink:href="#DejaVuSans-2e"/>
      <use x="95.410156" xlink:href="#DejaVuSans-35"/>
     </g>
    </g>
   </g>
   <g id="xtick_14">
    <g id="line2d_16">
     <path d="M 360.05122 224.120109 
L 365.14407 225.152 
" style="fill:none;stroke:#000000;stroke-linecap:square;stroke-width:0.8;"/>
    </g>
    <g id="text_16">
     <!-- 4.0 -->
     <defs>
      <path d="M 37.796875 64.3125 
L 12.890625 25.390625 
L 37.796875 25.390625 
z
M 35.203125 72.90625 
L 47.609375 72.90625 
L 47.609375 25.390625 
L 58.015625 25.390625 
L 58.015625 17.1875 
L 47.609375 17.1875 
L 47.609375 0 
L 37.796875 0 
L 37.796875 17.1875 
L 4.890625 17.1875 
L 4.890625 26.703125 
z
" id="DejaVuSans-34"/>
     </defs>
     <g transform="translate(366.396797 242.903416)scale(0.1 -0.1)">
      <use xlink:href="#DejaVuSans-34"/>
      <use x="63.623047" xlink:href="#DejaVuSans-2e"/>
      <use x="95.410156" xlink:href="#DejaVuSans-30"/>
     </g>
    </g>
   </g>
   <g id="xtick_15">
    <g id="line2d_17">
     <path d="M 371.88417 216.071877 
L 376.947268 217.086744 
" style="fill:none;stroke:#000000;stroke-linecap:square;stroke-width:0.8;"/>
    </g>
    <g id="text_17">
     <!-- 4.5 -->
     <g transform="translate(378.110615 234.763114)scale(0.1 -0.1)">
      <use xlink:href="#DejaVuSans-34"/>
      <use x="63.623047" xlink:href="#DejaVuSans-2e"/>
      <use x="95.410156" xlink:href="#DejaVuSans-35"/>
     </g>
    </g>
   </g>
   <g id="xtick_16">
    <g id="line2d_18">
     <path d="M 383.522795 208.155817 
L 388.556427 209.154077 
" style="fill:none;stroke:#000000;stroke-linecap:square;stroke-width:0.8;"/>
    </g>
    <g id="text_18">
     <!-- 5.0 -->
     <g transform="translate(389.632076 226.756487)scale(0.1 -0.1)">
      <use xlink:href="#DejaVuSans-35"/>
      <use x="63.623047" xlink:href="#DejaVuSans-2e"/>
      <use x="95.410156" xlink:href="#DejaVuSans-30"/>
     </g>
    </g>
   </g>
  </g>
  <g id="axis3d_3">
   <g id="line2d_19">
    <path d="M 391.895181 203.927223 
L 400.274918 64.932405 
" style="fill:none;stroke:#000000;stroke-linecap:square;stroke-width:0.8;"/>
   </g>
   <g id="text_19">
    <!-- $f(x_1, x_2)$ -->
    <defs>
     <path d="M 47.796875 75.984375 
L 46.390625 68.5 
L 37.796875 68.5 
Q 32.90625 68.5 30.6875 66.578125 
Q 28.46875 64.65625 27.390625 59.515625 
L 26.421875 54.6875 
L 41.21875 54.6875 
L 39.890625 47.703125 
L 25.09375 47.703125 
L 15.828125 0 
L 6.78125 0 
L 16.109375 47.703125 
L 7.515625 47.703125 
L 8.796875 54.6875 
L 17.390625 54.6875 
L 18.109375 58.5 
Q 19.96875 68.171875 24.625 72.078125 
Q 29.296875 75.984375 39.3125 75.984375 
z
" id="DejaVuSans-Oblique-66"/>
     <path d="M 31 75.875 
Q 24.46875 64.65625 21.28125 53.65625 
Q 18.109375 42.671875 18.109375 31.390625 
Q 18.109375 20.125 21.3125 9.0625 
Q 24.515625 -2 31 -13.1875 
L 23.1875 -13.1875 
Q 15.875 -1.703125 12.234375 9.375 
Q 8.59375 20.453125 8.59375 31.390625 
Q 8.59375 42.28125 12.203125 53.3125 
Q 15.828125 64.359375 23.1875 75.875 
z
" id="DejaVuSans-28"/>
     <path d="M 11.71875 12.40625 
L 22.015625 12.40625 
L 22.015625 4 
L 14.015625 -11.625 
L 7.71875 -11.625 
L 11.71875 4 
z
" id="DejaVuSans-2c"/>
     <path d="M 8.015625 75.875 
L 15.828125 75.875 
Q 23.140625 64.359375 26.78125 53.3125 
Q 30.421875 42.28125 30.421875 31.390625 
Q 30.421875 20.453125 26.78125 9.375 
Q 23.140625 -1.703125 15.828125 -13.1875 
L 8.015625 -13.1875 
Q 14.5 -2 17.703125 9.0625 
Q 20.90625 20.125 20.90625 31.390625 
Q 20.90625 42.671875 17.703125 53.65625 
Q 14.5 64.65625 8.015625 75.875 
z
" id="DejaVuSans-29"/>
    </defs>
    <g transform="translate(440.285896 151.429026)rotate(-86.549921)scale(0.1 -0.1)">
     <use transform="translate(0 0.015625)" xlink:href="#DejaVuSans-Oblique-66"/>
     <use transform="translate(35.205078 0.015625)" xlink:href="#DejaVuSans-28"/>
     <use transform="translate(74.21875 0.015625)" xlink:href="#DejaVuSans-Oblique-78"/>
     <use transform="translate(133.398438 -16.390625)scale(0.7)" xlink:href="#DejaVuSans-31"/>
     <use transform="translate(180.668945 0.015625)" xlink:href="#DejaVuSans-2c"/>
     <use transform="translate(231.938477 0.015625)" xlink:href="#DejaVuSans-Oblique-78"/>
     <use transform="translate(291.118164 -16.390625)scale(0.7)" xlink:href="#DejaVuSans-32"/>
     <use transform="translate(338.388672 0.015625)" xlink:href="#DejaVuSans-29"/>
    </g>
   </g>
   <g id="Line3DCollection_3">
    <path d="M 392.270919 197.694846 
L 191.516443 158.388532 
L 67.567525 228.701248 
" style="fill:none;stroke:#b0b0b0;stroke-width:0.8;"/>
    <path d="M 393.298853 180.644491 
L 191.263497 141.808859 
L 66.470848 211.294262 
" style="fill:none;stroke:#b0b0b0;stroke-width:0.8;"/>
    <path d="M 394.340103 163.373267 
L 191.007413 125.02345 
L 65.359493 193.654294 
" style="fill:none;stroke:#b0b0b0;stroke-width:0.8;"/>
    <path d="M 395.394929 145.876851 
L 190.74813 108.028452 
L 64.233163 175.776635 
" style="fill:none;stroke:#b0b0b0;stroke-width:0.8;"/>
    <path d="M 396.463599 128.150813 
L 190.48559 90.819915 
L 63.091553 157.656447 
" style="fill:none;stroke:#b0b0b0;stroke-width:0.8;"/>
    <path d="M 397.546386 110.190601 
L 190.219731 73.393789 
L 61.93435 139.288763 
" style="fill:none;stroke:#b0b0b0;stroke-width:0.8;"/>
    <path d="M 398.643573 91.991545 
L 189.950488 55.745921 
L 60.761233 120.668475 
" style="fill:none;stroke:#b0b0b0;stroke-width:0.8;"/>
    <path d="M 399.755448 73.548848 
L 189.677797 37.87205 
L 59.57187 101.790338 
" style="fill:none;stroke:#b0b0b0;stroke-width:0.8;"/>
   </g>
   <g id="xtick_17">
    <g id="line2d_20">
     <path d="M 390.595817 197.366873 
L 395.624614 198.351476 
" style="fill:none;stroke:#000000;stroke-linecap:square;stroke-width:0.8;"/>
    </g>
    <g id="text_20">
     <!-- −2.5 -->
     <g transform="translate(399.374945 203.455509)scale(0.1 -0.1)">
      <use xlink:href="#DejaVuSans-2212"/>
      <use x="83.789062" xlink:href="#DejaVuSans-32"/>
      <use x="147.412109" xlink:href="#DejaVuSans-2e"/>
      <use x="179.199219" xlink:href="#DejaVuSans-35"/>
     </g>
    </g>
   </g>
   <g id="xtick_18">
    <g id="line2d_21">
     <path d="M 391.612616 180.32036 
L 396.674864 181.293435 
" style="fill:none;stroke:#000000;stroke-linecap:square;stroke-width:0.8;"/>
    </g>
    <g id="text_21">
     <!-- 0.0 -->
     <g transform="translate(404.714321 186.426698)scale(0.1 -0.1)">
      <use xlink:href="#DejaVuSans-30"/>
      <use x="63.623047" xlink:href="#DejaVuSans-2e"/>
      <use x="95.410156" xlink:href="#DejaVuSans-30"/>
     </g>
    </g>
   </g>
   <g id="xtick_19">
    <g id="line2d_22">
     <path d="M 392.642581 163.053103 
L 397.738728 164.014268 
" style="fill:none;stroke:#000000;stroke-linecap:square;stroke-width:0.8;"/>
    </g>
    <g id="text_22">
     <!-- 2.5 -->
     <g transform="translate(405.878714 169.177731)scale(0.1 -0.1)">
      <use xlink:href="#DejaVuSans-32"/>
      <use x="63.623047" xlink:href="#DejaVuSans-2e"/>
      <use x="95.410156" xlink:href="#DejaVuSans-35"/>
     </g>
    </g>
   </g>
   <g id="xtick_20">
    <g id="line2d_23">
     <path d="M 393.685972 145.560788 
L 398.816473 146.509649 
" style="fill:none;stroke:#000000;stroke-linecap:square;stroke-width:0.8;"/>
    </g>
    <g id="text_23">
     <!-- 5.0 -->
     <g transform="translate(407.05826 151.704308)scale(0.1 -0.1)">
      <use xlink:href="#DejaVuSans-35"/>
      <use x="63.623047" xlink:href="#DejaVuSans-2e"/>
      <use x="95.410156" xlink:href="#DejaVuSans-30"/>
     </g>
    </g>
   </g>
   <g id="xtick_21">
    <g id="line2d_24">
     <path d="M 394.743051 127.838986 
L 399.908372 128.775135 
" style="fill:none;stroke:#000000;stroke-linecap:square;stroke-width:0.8;"/>
    </g>
    <g id="text_24">
     <!-- 7.5 -->
     <defs>
      <path d="M 8.203125 72.90625 
L 55.078125 72.90625 
L 55.078125 68.703125 
L 28.609375 0 
L 18.3125 0 
L 43.21875 64.59375 
L 8.203125 64.59375 
z
" id="DejaVuSans-37"/>
     </defs>
     <g transform="translate(408.253254 134.002022)scale(0.1 -0.1)">
      <use xlink:href="#DejaVuSans-37"/>
      <use x="63.623047" xlink:href="#DejaVuSans-2e"/>
      <use x="95.410156" xlink:href="#DejaVuSans-35"/>
     </g>
    </g>
   </g>
   <g id="xtick_22">
    <g id="line2d_25">
     <path d="M 395.81409 109.88315 
L 401.014706 110.806167 
" style="fill:none;stroke:#000000;stroke-linecap:square;stroke-width:0.8;"/>
    </g>
    <g id="text_25">
     <!-- 10.0 -->
     <g transform="translate(406.282754 116.066346)scale(0.1 -0.1)">
      <use xlink:href="#DejaVuSans-31"/>
      <use x="63.623047" xlink:href="#DejaVuSans-30"/>
      <use x="127.246094" xlink:href="#DejaVuSans-2e"/>
      <use x="159.033203" xlink:href="#DejaVuSans-30"/>
     </g>
    </g>
   </g>
   <g id="xtick_23">
    <g id="line2d_26">
     <path d="M 396.899367 91.688613 
L 402.135764 92.598066 
" style="fill:none;stroke:#000000;stroke-linecap:square;stroke-width:0.8;"/>
    </g>
    <g id="text_26">
     <!-- 12.5 -->
     <g transform="translate(407.509573 97.892633)scale(0.1 -0.1)">
      <use xlink:href="#DejaVuSans-31"/>
      <use x="63.623047" xlink:href="#DejaVuSans-32"/>
      <use x="127.246094" xlink:href="#DejaVuSans-2e"/>
      <use x="159.033203" xlink:href="#DejaVuSans-35"/>
     </g>
    </g>
   </g>
   <g id="xtick_24">
    <g id="line2d_27">
     <path d="M 397.999167 73.250584 
L 403.271841 74.146025 
" style="fill:none;stroke:#000000;stroke-linecap:square;stroke-width:0.8;"/>
    </g>
    <g id="text_27">
     <!-- 15.0 -->
     <g transform="translate(408.752782 79.476113)scale(0.1 -0.1)">
      <use xlink:href="#DejaVuSans-31"/>
      <use x="63.623047" xlink:href="#DejaVuSans-35"/>
      <use x="127.246094" xlink:href="#DejaVuSans-2e"/>
      <use x="159.033203" xlink:href="#DejaVuSans-30"/>
     </g>
    </g>
   </g>
  </g>
  <g id="axes_1">
   <g id="line2d_28">
    <defs>
     <path d="M 0 2 
C 0.530406 2 1.03916 1.789267 1.414214 1.414214 
C 1.789267 1.03916 2 0.530406 2 0 
C 2 -0.530406 1.789267 -1.03916 1.414214 -1.414214 
C 1.03916 -1.789267 0.530406 -2 0 -2 
C -0.530406 -2 -1.03916 -1.789267 -1.414214 -1.414214 
C -1.789267 -1.03916 -2 -0.530406 -2 0 
C -2 0.530406 -1.789267 1.03916 -1.414214 1.414214 
C -1.03916 1.789267 -0.530406 2 0 2 
z
" id="m6ddd73a89b" style="stroke:#ff0000;stroke-width:0.5;"/>
    </defs>
    <g clip-path="url(#p0d9f114633)">
     <use style="fill:#ff0000;stroke:#ff0000;stroke-width:0.5;" x="88.219561" xlink:href="#m6ddd73a89b" y="214.922305"/>
     <use style="fill:#ff0000;stroke:#ff0000;stroke-width:0.5;" x="107.315879" xlink:href="#m6ddd73a89b" y="204.495398"/>
     <use style="fill:#ff0000;stroke:#ff0000;stroke-width:0.5;" x="126.697739" xlink:href="#m6ddd73a89b" y="191.375984"/>
     <use style="fill:#ff0000;stroke:#ff0000;stroke-width:0.5;" x="146.884568" xlink:href="#m6ddd73a89b" y="189.548775"/>
     <use style="fill:#ff0000;stroke:#ff0000;stroke-width:0.5;" x="167.192712" xlink:href="#m6ddd73a89b" y="181.459078"/>
     <use style="fill:#ff0000;stroke:#ff0000;stroke-width:0.5;" x="187.994121" xlink:href="#m6ddd73a89b" y="180.28801"/>
     <use style="fill:#ff0000;stroke:#ff0000;stroke-width:0.5;" x="209.060924" xlink:href="#m6ddd73a89b" y="177.992347"/>
     <use style="fill:#ff0000;stroke:#ff0000;stroke-width:0.5;" x="230.415778" xlink:href="#m6ddd73a89b" y="162.587041"/>
     <use style="fill:#ff0000;stroke:#ff0000;stroke-width:0.5;" x="252.127435" xlink:href="#m6ddd73a89b" y="169.015715"/>
     <use style="fill:#ff0000;stroke:#ff0000;stroke-width:0.5;" x="274.345235" xlink:href="#m6ddd73a89b" y="153.650315"/>
     <use style="fill:#ff0000;stroke:#ff0000;stroke-width:0.5;" x="100.547981" xlink:href="#m6ddd73a89b" y="199.64194"/>
     <use style="fill:#ff0000;stroke:#ff0000;stroke-width:0.5;" x="119.876566" xlink:href="#m6ddd73a89b" y="193.720265"/>
     <use style="fill:#ff0000;stroke:#ff0000;stroke-width:0.5;" x="139.487093" xlink:href="#m6ddd73a89b" y="186.657519"/>
     <use style="fill:#ff0000;stroke:#ff0000;stroke-width:0.5;" x="159.655573" xlink:href="#m6ddd73a89b" y="187.369454"/>
     <use style="fill:#ff0000;stroke:#ff0000;stroke-width:0.5;" x="179.69841" xlink:href="#m6ddd73a89b" y="169.961763"/>
     <use style="fill:#ff0000;stroke:#ff0000;stroke-width:0.5;" x="200.538376" xlink:href="#m6ddd73a89b" y="175.91207"/>
     <use style="fill:#ff0000;stroke:#ff0000;stroke-width:0.5;" x="221.522887" xlink:href="#m6ddd73a89b" y="178.124926"/>
     <use style="fill:#ff0000;stroke:#ff0000;stroke-width:0.5;" x="242.823591" xlink:href="#m6ddd73a89b" y="155.777278"/>
     <use style="fill:#ff0000;stroke:#ff0000;stroke-width:0.5;" x="264.401838" xlink:href="#m6ddd73a89b" y="162.42832"/>
     <use style="fill:#ff0000;stroke:#ff0000;stroke-width:0.5;" x="286.611144" xlink:href="#m6ddd73a89b" y="145.585028"/>
     <use style="fill:#ff0000;stroke:#ff0000;stroke-width:0.5;" x="114.178623" xlink:href="#m6ddd73a89b" y="215.874835"/>
     <use style="fill:#ff0000;stroke:#ff0000;stroke-width:0.5;" x="132.747225" xlink:href="#m6ddd73a89b" y="195.440913"/>
     <use style="fill:#ff0000;stroke:#ff0000;stroke-width:0.5;" x="151.938835" xlink:href="#m6ddd73a89b" y="178.025512"/>
     <use style="fill:#ff0000;stroke:#ff0000;stroke-width:0.5;" x="171.973664" xlink:href="#m6ddd73a89b" y="175.929176"/>
     <use style="fill:#ff0000;stroke:#ff0000;stroke-width:0.5;" x="192.327778" xlink:href="#m6ddd73a89b" y="177.00562"/>
     <use style="fill:#ff0000;stroke:#ff0000;stroke-width:0.5;" x="212.78314" xlink:href="#m6ddd73a89b" y="160.913818"/>
     <use style="fill:#ff0000;stroke:#ff0000;stroke-width:0.5;" x="233.735966" xlink:href="#m6ddd73a89b" y="149.132183"/>
     <use style="fill:#ff0000;stroke:#ff0000;stroke-width:0.5;" x="254.96966" xlink:href="#m6ddd73a89b" y="156.49124"/>
     <use style="fill:#ff0000;stroke:#ff0000;stroke-width:0.5;" x="276.562195" xlink:href="#m6ddd73a89b" y="150.609696"/>
     <use style="fill:#ff0000;stroke:#ff0000;stroke-width:0.5;" x="298.363057" xlink:href="#m6ddd73a89b" y="150.919323"/>
     <use style="fill:#ff0000;stroke:#ff0000;stroke-width:0.5;" x="125.17741" xlink:href="#m6ddd73a89b" y="176.914995"/>
     <use style="fill:#ff0000;stroke:#ff0000;stroke-width:0.5;" x="144.364794" xlink:href="#m6ddd73a89b" y="167.393205"/>
     <use style="fill:#ff0000;stroke:#ff0000;stroke-width:0.5;" x="164.333114" xlink:href="#m6ddd73a89b" y="174.044872"/>
     <use style="fill:#ff0000;stroke:#ff0000;stroke-width:0.5;" x="184.108184" xlink:href="#m6ddd73a89b" y="162.613173"/>
     <use style="fill:#ff0000;stroke:#ff0000;stroke-width:0.5;" x="204.300864" xlink:href="#m6ddd73a89b" y="152.016697"/>
     <use style="fill:#ff0000;stroke:#ff0000;stroke-width:0.5;" x="224.915977" xlink:href="#m6ddd73a89b" y="148.174206"/>
     <use style="fill:#ff0000;stroke:#ff0000;stroke-width:0.5;" x="245.864654" xlink:href="#m6ddd73a89b" y="138.725493"/>
     <use style="fill:#ff0000;stroke:#ff0000;stroke-width:0.5;" x="267.016615" xlink:href="#m6ddd73a89b" y="144.646901"/>
     <use style="fill:#ff0000;stroke:#ff0000;stroke-width:0.5;" x="288.476413" xlink:href="#m6ddd73a89b" y="143.5574"/>
     <use style="fill:#ff0000;stroke:#ff0000;stroke-width:0.5;" x="311.161468" xlink:href="#m6ddd73a89b" y="109.495563"/>
     <use style="fill:#ff0000;stroke:#ff0000;stroke-width:0.5;" x="137.517736" xlink:href="#m6ddd73a89b" y="172.448854"/>
     <use style="fill:#ff0000;stroke:#ff0000;stroke-width:0.5;" x="156.666878" xlink:href="#m6ddd73a89b" y="163.189587"/>
     <use style="fill:#ff0000;stroke:#ff0000;stroke-width:0.5;" x="176.442156" xlink:href="#m6ddd73a89b" y="166.637795"/>
     <use style="fill:#ff0000;stroke:#ff0000;stroke-width:0.5;" x="196.127625" xlink:href="#m6ddd73a89b" y="150.267799"/>
     <use style="fill:#ff0000;stroke:#ff0000;stroke-width:0.5;" x="216.370324" xlink:href="#m6ddd73a89b" y="147.020717"/>
     <use style="fill:#ff0000;stroke:#ff0000;stroke-width:0.5;" x="236.893427" xlink:href="#m6ddd73a89b" y="148.228998"/>
     <use style="fill:#ff0000;stroke:#ff0000;stroke-width:0.5;" x="257.683615" xlink:href="#m6ddd73a89b" y="144.824083"/>
     <use style="fill:#ff0000;stroke:#ff0000;stroke-width:0.5;" x="278.991804" xlink:href="#m6ddd73a89b" y="128.659653"/>
     <use style="fill:#ff0000;stroke:#ff0000;stroke-width:0.5;" x="300.709997" xlink:href="#m6ddd73a89b" y="116.35423"/>
     <use style="fill:#ff0000;stroke:#ff0000;stroke-width:0.5;" x="322.287433" xlink:href="#m6ddd73a89b" y="122.106425"/>
     <use style="fill:#ff0000;stroke:#ff0000;stroke-width:0.5;" x="149.471403" xlink:href="#m6ddd73a89b" y="162.073472"/>
     <use style="fill:#ff0000;stroke:#ff0000;stroke-width:0.5;" x="168.462898" xlink:href="#m6ddd73a89b" y="146.358881"/>
     <use style="fill:#ff0000;stroke:#ff0000;stroke-width:0.5;" x="188.427724" xlink:href="#m6ddd73a89b" y="162.450159"/>
     <use style="fill:#ff0000;stroke:#ff0000;stroke-width:0.5;" x="208.045757" xlink:href="#m6ddd73a89b" y="141.422164"/>
     <use style="fill:#ff0000;stroke:#ff0000;stroke-width:0.5;" x="228.22685" xlink:href="#m6ddd73a89b" y="132.962486"/>
     <use style="fill:#ff0000;stroke:#ff0000;stroke-width:0.5;" x="248.749464" xlink:href="#m6ddd73a89b" y="128.069578"/>
     <use style="fill:#ff0000;stroke:#ff0000;stroke-width:0.5;" x="269.475626" xlink:href="#m6ddd73a89b" y="131.346709"/>
     <use style="fill:#ff0000;stroke:#ff0000;stroke-width:0.5;" x="290.821672" xlink:href="#m6ddd73a89b" y="114.654088"/>
     <use style="fill:#ff0000;stroke:#ff0000;stroke-width:0.5;" x="312.491803" xlink:href="#m6ddd73a89b" y="104.32979"/>
     <use style="fill:#ff0000;stroke:#ff0000;stroke-width:0.5;" x="333.89598" xlink:href="#m6ddd73a89b" y="112.460233"/>
     <use style="fill:#ff0000;stroke:#ff0000;stroke-width:0.5;" x="161.127097" xlink:href="#m6ddd73a89b" y="145.90153"/>
     <use style="fill:#ff0000;stroke:#ff0000;stroke-width:0.5;" x="180.440927" xlink:href="#m6ddd73a89b" y="143.537876"/>
     <use style="fill:#ff0000;stroke:#ff0000;stroke-width:0.5;" x="200.018341" xlink:href="#m6ddd73a89b" y="142.009313"/>
     <use style="fill:#ff0000;stroke:#ff0000;stroke-width:0.5;" x="219.80842" xlink:href="#m6ddd73a89b" y="133.452339"/>
     <use style="fill:#ff0000;stroke:#ff0000;stroke-width:0.5;" x="239.938608" xlink:href="#m6ddd73a89b" y="130.023917"/>
     <use style="fill:#ff0000;stroke:#ff0000;stroke-width:0.5;" x="260.392513" xlink:href="#m6ddd73a89b" y="122.639431"/>
     <use style="fill:#ff0000;stroke:#ff0000;stroke-width:0.5;" x="281.195598" xlink:href="#m6ddd73a89b" y="115.201196"/>
     <use style="fill:#ff0000;stroke:#ff0000;stroke-width:0.5;" x="302.305187" xlink:href="#m6ddd73a89b" y="109.671195"/>
     <use style="fill:#ff0000;stroke:#ff0000;stroke-width:0.5;" x="323.479655" xlink:href="#m6ddd73a89b" y="112.16714"/>
     <use style="fill:#ff0000;stroke:#ff0000;stroke-width:0.5;" x="345.654115" xlink:href="#m6ddd73a89b" y="95.481926"/>
     <use style="fill:#ff0000;stroke:#ff0000;stroke-width:0.5;" x="173.193926" xlink:href="#m6ddd73a89b" y="152.458096"/>
     <use style="fill:#ff0000;stroke:#ff0000;stroke-width:0.5;" x="192.109148" xlink:href="#m6ddd73a89b" y="133.871571"/>
     <use style="fill:#ff0000;stroke:#ff0000;stroke-width:0.5;" x="211.574508" xlink:href="#m6ddd73a89b" y="124.007044"/>
     <use style="fill:#ff0000;stroke:#ff0000;stroke-width:0.5;" x="231.403808" xlink:href="#m6ddd73a89b" y="113.708256"/>
     <use style="fill:#ff0000;stroke:#ff0000;stroke-width:0.5;" x="251.477666" xlink:href="#m6ddd73a89b" y="122.421651"/>
     <use style="fill:#ff0000;stroke:#ff0000;stroke-width:0.5;" x="271.865289" xlink:href="#m6ddd73a89b" y="116.283059"/>
     <use style="fill:#ff0000;stroke:#ff0000;stroke-width:0.5;" x="292.904739" xlink:href="#m6ddd73a89b" y="95.265193"/>
     <use style="fill:#ff0000;stroke:#ff0000;stroke-width:0.5;" x="313.687357" xlink:href="#m6ddd73a89b" y="101.810433"/>
     <use style="fill:#ff0000;stroke:#ff0000;stroke-width:0.5;" x="334.784405" xlink:href="#m6ddd73a89b" y="103.743601"/>
     <use style="fill:#ff0000;stroke:#ff0000;stroke-width:0.5;" x="356.945395" xlink:href="#m6ddd73a89b" y="86.885009"/>
     <use style="fill:#ff0000;stroke:#ff0000;stroke-width:0.5;" x="184.242429" xlink:href="#m6ddd73a89b" y="117.490551"/>
     <use style="fill:#ff0000;stroke:#ff0000;stroke-width:0.5;" x="203.629806" xlink:href="#m6ddd73a89b" y="123.792394"/>
     <use style="fill:#ff0000;stroke:#ff0000;stroke-width:0.5;" x="223.096667" xlink:href="#m6ddd73a89b" y="117.096477"/>
     <use style="fill:#ff0000;stroke:#ff0000;stroke-width:0.5;" x="242.91646" xlink:href="#m6ddd73a89b" y="100.263375"/>
     <use style="fill:#ff0000;stroke:#ff0000;stroke-width:0.5;" x="262.997816" xlink:href="#m6ddd73a89b" y="102.061642"/>
     <use style="fill:#ff0000;stroke:#ff0000;stroke-width:0.5;" x="283.19679" xlink:href="#m6ddd73a89b" y="108.339425"/>
     <use style="fill:#ff0000;stroke:#ff0000;stroke-width:0.5;" x="303.966662" xlink:href="#m6ddd73a89b" y="97.910209"/>
     <use style="fill:#ff0000;stroke:#ff0000;stroke-width:0.5;" x="325.165379" xlink:href="#m6ddd73a89b" y="86.386528"/>
     <use style="fill:#ff0000;stroke:#ff0000;stroke-width:0.5;" x="346.067545" xlink:href="#m6ddd73a89b" y="92.145819"/>
     <use style="fill:#ff0000;stroke:#ff0000;stroke-width:0.5;" x="368.202234" xlink:href="#m6ddd73a89b" y="75.896384"/>
     <use style="fill:#ff0000;stroke:#ff0000;stroke-width:0.5;" x="195.963099" xlink:href="#m6ddd73a89b" y="126.779852"/>
     <use style="fill:#ff0000;stroke:#ff0000;stroke-width:0.5;" x="215.031833" xlink:href="#m6ddd73a89b" y="116.365971"/>
     <use style="fill:#ff0000;stroke:#ff0000;stroke-width:0.5;" x="234.455562" xlink:href="#m6ddd73a89b" y="111.188683"/>
     <use style="fill:#ff0000;stroke:#ff0000;stroke-width:0.5;" x="254.240879" xlink:href="#m6ddd73a89b" y="96.852416"/>
     <use style="fill:#ff0000;stroke:#ff0000;stroke-width:0.5;" x="274.255815" xlink:href="#m6ddd73a89b" y="95.555794"/>
     <use style="fill:#ff0000;stroke:#ff0000;stroke-width:0.5;" x="294.708712" xlink:href="#m6ddd73a89b" y="85.588685"/>
     <use style="fill:#ff0000;stroke:#ff0000;stroke-width:0.5;" x="315.335615" xlink:href="#m6ddd73a89b" y="82.359283"/>
     <use style="fill:#ff0000;stroke:#ff0000;stroke-width:0.5;" x="335.754381" xlink:href="#m6ddd73a89b" y="92.181539"/>
     <use style="fill:#ff0000;stroke:#ff0000;stroke-width:0.5;" x="357.853133" xlink:href="#m6ddd73a89b" y="66.661596"/>
     <use style="fill:#ff0000;stroke:#ff0000;stroke-width:0.5;" x="378.884938" xlink:href="#m6ddd73a89b" y="73.348375"/>
    </g>
   </g>
  </g>
 </g>
 <defs>
  <clipPath id="p0d9f114633">
   <rect height="288" width="432" x="10.7" y="10.7"/>
  </clipPath>
 </defs>
</svg>
