<?xml version="1.0" encoding="utf-8" standalone="no"?>
<!DOCTYPE svg PUBLIC "-//W3C//DTD SVG 1.1//EN"
  "http://www.w3.org/Graphics/SVG/1.1/DTD/svg11.dtd">
<!-- Created with matplotlib (https://matplotlib.org/) -->
<svg height="168.9334pt" version="1.1" viewBox="0 0 498.530644 168.9334" width="498.530644pt" xmlns="http://www.w3.org/2000/svg" xmlns:xlink="http://www.w3.org/1999/xlink">
 <defs>
  <style type="text/css">
*{stroke-linecap:butt;stroke-linejoin:round;}
  </style>
 </defs>
 <g id="figure_1">
  <g id="patch_1">
   <path d="M 0 168.9334 
L 498.530644 168.9334 
L 498.530644 0 
L 0 0 
z
" style="fill:#ffffff;"/>
  </g>
  <g id="axes_1">
   <g id="patch_2">
    <path clip-path="url(#pa9cdb72420)" d="M 409.973354 124.122698 
L 421.790614 124.122698 
L 415.881984 132.64476 
z
" style="fill:#778899;"/>
   </g>
   <g id="patch_3">
    <path clip-path="url(#pa9cdb72420)" d="M 455.424354 124.122698 
L 467.241614 124.122698 
L 461.332984 132.64476 
z
" style="fill:#778899;"/>
   </g>
   <g id="line2d_1">
    <path clip-path="url(#pa9cdb72420)" d="M 73.181444 43.5608 
L 486.785544 43.5608 
" style="fill:none;stroke:#000000;stroke-linecap:square;stroke-width:2;"/>
   </g>
   <g id="line2d_2">
    <path clip-path="url(#pa9cdb72420)" d="M 73.181444 89.0118 
L 486.785544 89.0118 
" style="fill:none;stroke:#000000;stroke-linecap:square;stroke-width:2;"/>
   </g>
   <g id="line2d_3">
    <path clip-path="url(#pa9cdb72420)" d="M 73.181444 132.985643 
L 486.785544 132.985643 
" style="fill:none;stroke:#778899;stroke-linecap:square;stroke-width:2;"/>
   </g>
   <g id="line2d_4">
    <path clip-path="url(#pa9cdb72420)" d="M 73.181444 135.939958 
L 486.785544 135.939958 
" style="fill:none;stroke:#778899;stroke-linecap:square;stroke-width:2;"/>
   </g>
   <g id="line2d_5">
    <path clip-path="url(#pa9cdb72420)" d="M 417.359141 43.5608 
L 417.359141 124.122698 
" style="fill:none;stroke:#778899;stroke-linecap:square;stroke-width:2;"/>
   </g>
   <g id="line2d_6">
    <path clip-path="url(#pa9cdb72420)" d="M 414.404826 43.5608 
L 414.404826 124.122698 
" style="fill:none;stroke:#778899;stroke-linecap:square;stroke-width:2;"/>
   </g>
   <g id="line2d_7">
    <path clip-path="url(#pa9cdb72420)" d="M 462.810141 89.0118 
L 462.810141 124.122698 
" style="fill:none;stroke:#778899;stroke-linecap:square;stroke-width:2;"/>
   </g>
   <g id="line2d_8">
    <path clip-path="url(#pa9cdb72420)" d="M 459.855826 89.0118 
L 459.855826 124.122698 
" style="fill:none;stroke:#778899;stroke-linecap:square;stroke-width:2;"/>
   </g>
   <g id="line2d_9">
    <path clip-path="url(#pa9cdb72420)" d="M 82.271644 139.0079 
L 86.816744 129.9177 
" style="fill:none;stroke:#778899;stroke-linecap:square;stroke-width:1.5;"/>
   </g>
   <g id="line2d_10">
    <path clip-path="url(#pa9cdb72420)" d="M 143.175984 89.0118 
L 143.175984 43.5608 
" style="fill:none;stroke:#6fa4ff;stroke-linecap:square;stroke-width:2;"/>
   </g>
   <g id="line2d_11">
    <path clip-path="url(#pa9cdb72420)" d="M 279.528984 89.0118 
L 279.528984 43.5608 
" style="fill:none;stroke:#6fa4ff;stroke-linecap:square;stroke-width:2;"/>
   </g>
   <g id="patch_4">
    <path clip-path="url(#pa9cdb72420)" d="M 82.953409 58.332375 
L 112.496559 58.332375 
L 112.496559 28.789225 
L 82.953409 28.789225 
z
" style="fill:#6fa4ff;stroke:#6fa4ff;stroke-linejoin:miter;stroke-width:1.5;"/>
   </g>
   <g id="patch_5">
    <path clip-path="url(#pa9cdb72420)" d="M 82.953409 103.783375 
L 112.496559 103.783375 
L 112.496559 74.240225 
L 82.953409 74.240225 
z
" style="fill:#6fa4ff;stroke:#6fa4ff;stroke-linejoin:miter;stroke-width:1.5;"/>
   </g>
   <g id="patch_6">
    <path clip-path="url(#pa9cdb72420)" d="M 143.175984 47.992273 
C 144.351224 47.992273 145.478488 47.525345 146.309508 46.694324 
C 147.140529 45.863304 147.607456 44.73604 147.607456 43.5608 
C 147.607456 42.38556 147.140529 41.258296 146.309508 40.427276 
C 145.478488 39.596255 144.351224 39.129328 143.175984 39.129328 
C 142.000744 39.129328 140.87348 39.596255 140.04246 40.427276 
C 139.211439 41.258296 138.744511 42.38556 138.744511 43.5608 
C 138.744511 44.73604 139.211439 45.863304 140.04246 46.694324 
C 140.87348 47.525345 142.000744 47.992273 143.175984 47.992273 
z
" style="fill:#6fa4ff;stroke:#6fa4ff;stroke-linejoin:miter;stroke-width:1.5;"/>
   </g>
   <g id="patch_7">
    <path clip-path="url(#pa9cdb72420)" d="M 143.175984 93.443273 
C 144.351224 93.443273 145.478488 92.976345 146.309508 92.145324 
C 147.140529 91.314304 147.607456 90.18704 147.607456 89.0118 
C 147.607456 87.83656 147.140529 86.709296 146.309508 85.878276 
C 145.478488 85.047255 144.351224 84.580328 143.175984 84.580328 
C 142.000744 84.580328 140.87348 85.047255 140.04246 85.878276 
C 139.211439 86.709296 138.744511 87.83656 138.744511 89.0118 
C 138.744511 90.18704 139.211439 91.314304 140.04246 92.145324 
C 140.87348 92.976345 142.000744 93.443273 143.175984 93.443273 
z
" style="fill:#6fa4ff;stroke:#6fa4ff;stroke-linejoin:miter;stroke-width:1.5;"/>
   </g>
   <g id="patch_8">
    <path clip-path="url(#pa9cdb72420)" d="M 173.855409 58.332375 
L 203.398559 58.332375 
L 203.398559 28.789225 
L 173.855409 28.789225 
z
" style="fill:#6fa4ff;stroke:#6fa4ff;stroke-linejoin:miter;stroke-width:1.5;"/>
   </g>
   <g id="patch_9">
    <path clip-path="url(#pa9cdb72420)" d="M 173.855409 103.783375 
L 203.398559 103.783375 
L 203.398559 74.240225 
L 173.855409 74.240225 
z
" style="fill:#6fa4ff;stroke:#6fa4ff;stroke-linejoin:miter;stroke-width:1.5;"/>
   </g>
   <g id="patch_10">
    <path clip-path="url(#pa9cdb72420)" d="M 219.306409 58.332375 
L 248.849559 58.332375 
L 248.849559 28.789225 
L 219.306409 28.789225 
z
" style="fill:#05bab6;stroke:#05bab6;stroke-linejoin:miter;stroke-width:1.5;"/>
   </g>
   <g id="patch_11">
    <path clip-path="url(#pa9cdb72420)" d="M 219.306409 103.783375 
L 248.849559 103.783375 
L 248.849559 74.240225 
L 219.306409 74.240225 
z
" style="fill:#05bab6;stroke:#05bab6;stroke-linejoin:miter;stroke-width:1.5;"/>
   </g>
   <g id="patch_12">
    <path clip-path="url(#pa9cdb72420)" d="M 279.528984 47.992273 
C 280.704224 47.992273 281.831488 47.525345 282.662508 46.694324 
C 283.493529 45.863304 283.960456 44.73604 283.960456 43.5608 
C 283.960456 42.38556 283.493529 41.258296 282.662508 40.427276 
C 281.831488 39.596255 280.704224 39.129328 279.528984 39.129328 
C 278.353744 39.129328 277.22648 39.596255 276.39546 40.427276 
C 275.564439 41.258296 275.097511 42.38556 275.097511 43.5608 
C 275.097511 44.73604 275.564439 45.863304 276.39546 46.694324 
C 277.22648 47.525345 278.353744 47.992273 279.528984 47.992273 
z
" style="fill:#6fa4ff;stroke:#6fa4ff;stroke-linejoin:miter;stroke-width:1.5;"/>
   </g>
   <g id="patch_13">
    <path clip-path="url(#pa9cdb72420)" d="M 279.528984 93.443273 
C 280.704224 93.443273 281.831488 92.976345 282.662508 92.145324 
C 283.493529 91.314304 283.960456 90.18704 283.960456 89.0118 
C 283.960456 87.83656 283.493529 86.709296 282.662508 85.878276 
C 281.831488 85.047255 280.704224 84.580328 279.528984 84.580328 
C 278.353744 84.580328 277.22648 85.047255 276.39546 85.878276 
C 275.564439 86.709296 275.097511 87.83656 275.097511 89.0118 
C 275.097511 90.18704 275.564439 91.314304 276.39546 92.145324 
C 277.22648 92.976345 278.353744 93.443273 279.528984 93.443273 
z
" style="fill:#6fa4ff;stroke:#6fa4ff;stroke-linejoin:miter;stroke-width:1.5;"/>
   </g>
   <g id="patch_14">
    <path clip-path="url(#pa9cdb72420)" d="M 310.208409 58.332375 
L 339.751559 58.332375 
L 339.751559 28.789225 
L 310.208409 28.789225 
z
" style="fill:#05bab6;stroke:#05bab6;stroke-linejoin:miter;stroke-width:1.5;"/>
   </g>
   <g id="patch_15">
    <path clip-path="url(#pa9cdb72420)" d="M 310.208409 103.783375 
L 339.751559 103.783375 
L 339.751559 74.240225 
L 310.208409 74.240225 
z
" style="fill:#05bab6;stroke:#05bab6;stroke-linejoin:miter;stroke-width:1.5;"/>
   </g>
   <g id="patch_16">
    <path clip-path="url(#pa9cdb72420)" d="M 355.659409 58.332375 
L 385.202559 58.332375 
L 385.202559 28.789225 
L 355.659409 28.789225 
z
" style="fill:#6fa4ff;stroke:#6fa4ff;stroke-linejoin:miter;stroke-width:1.5;"/>
   </g>
   <g id="patch_17">
    <path clip-path="url(#pa9cdb72420)" d="M 355.659409 103.783375 
L 385.202559 103.783375 
L 385.202559 74.240225 
L 355.659409 74.240225 
z
" style="fill:#6fa4ff;stroke:#6fa4ff;stroke-linejoin:miter;stroke-width:1.5;"/>
   </g>
   <g id="patch_18">
    <path clip-path="url(#pa9cdb72420)" d="M 401.110409 58.332375 
L 430.653559 58.332375 
L 430.653559 28.789225 
L 401.110409 28.789225 
z
" style="stroke:#000000;stroke-linejoin:miter;stroke-width:1.5;"/>
   </g>
   <g id="patch_19">
    <path clip-path="url(#pa9cdb72420)" d="M 426.222086 47.992273 
C 426.222086 45.250959 425.131942 42.619118 423.193541 40.680716 
C 421.255139 38.742314 418.623298 37.65217 415.881984 37.65217 
C 413.14067 37.65217 410.508829 38.742314 408.570427 40.680716 
C 406.632026 42.619118 405.541881 45.250959 405.541881 47.992273 
" style="fill:none;stroke:#ffffff;stroke-linejoin:miter;stroke-width:2;"/>
   </g>
   <g id="patch_20">
    <path clip-path="url(#pa9cdb72420)" d="M 446.561409 103.783375 
L 476.104559 103.783375 
L 476.104559 74.240225 
L 446.561409 74.240225 
z
" style="stroke:#000000;stroke-linejoin:miter;stroke-width:1.5;"/>
   </g>
   <g id="patch_21">
    <path clip-path="url(#pa9cdb72420)" d="M 471.673086 93.443273 
C 471.673086 90.701959 470.582942 88.070118 468.644541 86.131716 
C 466.706139 84.193314 464.074298 83.10317 461.332984 83.10317 
C 458.59167 83.10317 455.959829 84.193314 454.021427 86.131716 
C 452.083026 88.070118 450.992881 90.701959 450.992881 93.443273 
" style="fill:none;stroke:#ffffff;stroke-linejoin:miter;stroke-width:2;"/>
   </g>
   <g id="line2d_12">
    <path clip-path="url(#pa9cdb72420)" d="M 415.881984 47.992273 
L 426.222086 37.65217 
" style="fill:none;stroke:#ffffff;stroke-linecap:square;stroke-width:2;"/>
   </g>
   <g id="line2d_13">
    <path clip-path="url(#pa9cdb72420)" d="M 461.332984 93.443273 
L 471.673086 83.10317 
" style="fill:none;stroke:#ffffff;stroke-linecap:square;stroke-width:2;"/>
   </g>
   <g id="text_1">
    <g clip-path="url(#pa9cdb72420)">
     <!-- H -->
     <defs>
      <path d="M 9.8125 72.90625 
L 19.671875 72.90625 
L 19.671875 43.015625 
L 55.515625 43.015625 
L 55.515625 72.90625 
L 65.375 72.90625 
L 65.375 0 
L 55.515625 0 
L 55.515625 34.71875 
L 19.671875 34.71875 
L 19.671875 0 
L 9.8125 0 
z
" id="DejaVuSans-72"/>
     </defs>
     <g transform="translate(92.836781 47.147988)scale(0.13 -0.13)">
      <use xlink:href="#DejaVuSans-72"/>
     </g>
    </g>
   </g>
   <g id="text_2">
    <g clip-path="url(#pa9cdb72420)">
     <!-- H -->
     <g transform="translate(92.836781 92.598988)scale(0.13 -0.13)">
      <use xlink:href="#DejaVuSans-72"/>
     </g>
    </g>
   </g>
   <g id="text_3">
    <g clip-path="url(#pa9cdb72420)">
     <!-- H -->
     <g transform="translate(183.738781 47.147988)scale(0.13 -0.13)">
      <use xlink:href="#DejaVuSans-72"/>
     </g>
    </g>
   </g>
   <g id="text_4">
    <g clip-path="url(#pa9cdb72420)">
     <!-- H -->
     <g transform="translate(183.738781 92.598988)scale(0.13 -0.13)">
      <use xlink:href="#DejaVuSans-72"/>
     </g>
    </g>
   </g>
   <g id="text_5">
    <g clip-path="url(#pa9cdb72420)">
     <!-- X -->
     <defs>
      <path d="M 6.296875 72.90625 
L 16.890625 72.90625 
L 35.015625 45.796875 
L 53.21875 72.90625 
L 63.8125 72.90625 
L 40.375 37.890625 
L 65.375 0 
L 54.78125 0 
L 34.28125 31 
L 13.625 0 
L 2.984375 0 
L 29 38.921875 
z
" id="DejaVuSans-88"/>
     </defs>
     <g transform="translate(229.625484 47.147988)scale(0.13 -0.13)">
      <use xlink:href="#DejaVuSans-88"/>
     </g>
    </g>
   </g>
   <g id="text_6">
    <g clip-path="url(#pa9cdb72420)">
     <!-- X -->
     <g transform="translate(229.625484 92.598988)scale(0.13 -0.13)">
      <use xlink:href="#DejaVuSans-88"/>
     </g>
    </g>
   </g>
   <g id="text_7">
    <g clip-path="url(#pa9cdb72420)">
     <!-- X -->
     <g transform="translate(320.527484 47.147988)scale(0.13 -0.13)">
      <use xlink:href="#DejaVuSans-88"/>
     </g>
    </g>
   </g>
   <g id="text_8">
    <g clip-path="url(#pa9cdb72420)">
     <!-- X -->
     <g transform="translate(320.527484 92.598988)scale(0.13 -0.13)">
      <use xlink:href="#DejaVuSans-88"/>
     </g>
    </g>
   </g>
   <g id="text_9">
    <g clip-path="url(#pa9cdb72420)">
     <!-- H -->
     <g transform="translate(365.542781 47.147988)scale(0.13 -0.13)">
      <use xlink:href="#DejaVuSans-72"/>
     </g>
    </g>
   </g>
   <g id="text_10">
    <g clip-path="url(#pa9cdb72420)">
     <!-- H -->
     <g transform="translate(365.542781 92.598988)scale(0.13 -0.13)">
      <use xlink:href="#DejaVuSans-72"/>
     </g>
    </g>
   </g>
   <g id="text_11">
    <g clip-path="url(#pa9cdb72420)">
     <!-- 0 -->
     <defs>
      <path d="M 31.78125 66.40625 
Q 24.171875 66.40625 20.328125 58.90625 
Q 16.5 51.421875 16.5 36.375 
Q 16.5 21.390625 20.328125 13.890625 
Q 24.171875 6.390625 31.78125 6.390625 
Q 39.453125 6.390625 43.28125 13.890625 
Q 47.125 21.390625 47.125 36.375 
Q 47.125 51.421875 43.28125 58.90625 
Q 39.453125 66.40625 31.78125 66.40625 
z
M 31.78125 74.21875 
Q 44.046875 74.21875 50.515625 64.515625 
Q 56.984375 54.828125 56.984375 36.375 
Q 56.984375 17.96875 50.515625 8.265625 
Q 44.046875 -1.421875 31.78125 -1.421875 
Q 19.53125 -1.421875 13.0625 8.265625 
Q 6.59375 17.96875 6.59375 36.375 
Q 6.59375 54.828125 13.0625 64.515625 
Q 19.53125 74.21875 31.78125 74.21875 
z
" id="DejaVuSans-48"/>
     </defs>
     <g transform="translate(427.244734 127.754825)scale(0.104 -0.104)">
      <use xlink:href="#DejaVuSans-48"/>
     </g>
    </g>
   </g>
   <g id="text_12">
    <g clip-path="url(#pa9cdb72420)">
     <!-- 1 -->
     <defs>
      <path d="M 12.40625 8.296875 
L 28.515625 8.296875 
L 28.515625 63.921875 
L 10.984375 60.40625 
L 10.984375 69.390625 
L 28.421875 72.90625 
L 38.28125 72.90625 
L 38.28125 8.296875 
L 54.390625 8.296875 
L 54.390625 0 
L 12.40625 0 
z
" id="DejaVuSans-49"/>
     </defs>
     <g transform="translate(472.695734 127.754825)scale(0.104 -0.104)">
      <use xlink:href="#DejaVuSans-49"/>
     </g>
    </g>
   </g>
   <g id="text_13">
    <g clip-path="url(#pa9cdb72420)">
     <!-- ${q0}_{0}$ -->
     <defs>
      <path d="M 41.703125 8.203125 
Q 38.09375 3.46875 33.171875 1.015625 
Q 28.265625 -1.421875 22.3125 -1.421875 
Q 14.015625 -1.421875 9.296875 4.171875 
Q 4.59375 9.765625 4.59375 19.578125 
Q 4.59375 27.484375 7.5 34.859375 
Q 10.40625 42.234375 15.828125 48.09375 
Q 19.34375 51.90625 23.90625 53.953125 
Q 28.46875 56 33.5 56 
Q 39.546875 56 43.453125 53.609375 
Q 47.359375 51.21875 49.125 46.390625 
L 50.6875 54.59375 
L 59.71875 54.59375 
L 45.125 -20.609375 
L 36.078125 -20.609375 
z
M 13.921875 20.90625 
Q 13.921875 13.671875 16.9375 9.890625 
Q 19.96875 6.109375 25.6875 6.109375 
Q 34.1875 6.109375 40.1875 14.234375 
Q 46.1875 22.359375 46.1875 33.984375 
Q 46.1875 41.015625 43.078125 44.75 
Q 39.984375 48.484375 34.1875 48.484375 
Q 29.9375 48.484375 26.3125 46.5 
Q 22.703125 44.53125 20.015625 40.71875 
Q 17.1875 36.71875 15.546875 31.34375 
Q 13.921875 25.984375 13.921875 20.90625 
z
" id="DejaVuSans-Oblique-113"/>
     </defs>
     <g transform="translate(35.491244 48.011777)scale(0.1625 -0.1625)">
      <use transform="translate(0 0.78125)" xlink:href="#DejaVuSans-Oblique-113"/>
      <use transform="translate(63.476562 0.78125)" xlink:href="#DejaVuSans-48"/>
      <use transform="translate(128.056641 -15.625)scale(0.7)" xlink:href="#DejaVuSans-48"/>
     </g>
    </g>
   </g>
   <g id="text_14">
    <g clip-path="url(#pa9cdb72420)">
     <!-- ${q0}_{1}$ -->
     <g transform="translate(35.491244 93.462777)scale(0.1625 -0.1625)">
      <use transform="translate(0 0.78125)" xlink:href="#DejaVuSans-Oblique-113"/>
      <use transform="translate(63.476562 0.78125)" xlink:href="#DejaVuSans-48"/>
      <use transform="translate(128.056641 -15.625)scale(0.7)" xlink:href="#DejaVuSans-49"/>
     </g>
    </g>
   </g>
   <g id="text_15">
    <g clip-path="url(#pa9cdb72420)">
     <!-- 2 -->
     <defs>
      <path d="M 19.1875 8.296875 
L 53.609375 8.296875 
L 53.609375 0 
L 7.328125 0 
L 7.328125 8.296875 
Q 12.9375 14.109375 22.625 23.890625 
Q 32.328125 33.6875 34.8125 36.53125 
Q 39.546875 41.84375 41.421875 45.53125 
Q 43.3125 49.21875 43.3125 52.78125 
Q 43.3125 58.59375 39.234375 62.25 
Q 35.15625 65.921875 28.609375 65.921875 
Q 23.96875 65.921875 18.8125 64.3125 
Q 13.671875 62.703125 7.8125 59.421875 
L 7.8125 69.390625 
Q 13.765625 71.78125 18.9375 73 
Q 24.125 74.21875 28.421875 74.21875 
Q 39.75 74.21875 46.484375 68.546875 
Q 53.21875 62.890625 53.21875 53.421875 
Q 53.21875 48.921875 51.53125 44.890625 
Q 49.859375 40.875 45.40625 35.40625 
Q 44.1875 33.984375 37.640625 27.21875 
Q 31.109375 20.453125 19.1875 8.296875 
z
" id="DejaVuSans-50"/>
     </defs>
     <g transform="translate(77.726544 127.754825)scale(0.104 -0.104)">
      <use xlink:href="#DejaVuSans-50"/>
     </g>
    </g>
   </g>
   <g id="text_16">
    <g clip-path="url(#pa9cdb72420)">
     <!-- c0 -->
     <defs>
      <path d="M 48.78125 52.59375 
L 48.78125 44.1875 
Q 44.96875 46.296875 41.140625 47.34375 
Q 37.3125 48.390625 33.40625 48.390625 
Q 24.65625 48.390625 19.8125 42.84375 
Q 14.984375 37.3125 14.984375 27.296875 
Q 14.984375 17.28125 19.8125 11.734375 
Q 24.65625 6.203125 33.40625 6.203125 
Q 37.3125 6.203125 41.140625 7.25 
Q 44.96875 8.296875 48.78125 10.40625 
L 48.78125 2.09375 
Q 45.015625 0.34375 40.984375 -0.53125 
Q 36.96875 -1.421875 32.421875 -1.421875 
Q 20.0625 -1.421875 12.78125 6.34375 
Q 5.515625 14.109375 5.515625 27.296875 
Q 5.515625 40.671875 12.859375 48.328125 
Q 20.21875 56 33.015625 56 
Q 37.15625 56 41.109375 55.140625 
Q 45.0625 54.296875 48.78125 52.59375 
z
" id="DejaVuSans-99"/>
     </defs>
     <g transform="translate(44.817221 138.946784)scale(0.1625 -0.1625)">
      <use xlink:href="#DejaVuSans-99"/>
      <use x="54.980469" xlink:href="#DejaVuSans-48"/>
     </g>
    </g>
   </g>
  </g>
 </g>
 <defs>
  <clipPath id="pa9cdb72420">
   <rect height="154.5334" width="484.130644" x="7.2" y="7.2"/>
  </clipPath>
 </defs>
</svg>
