<?xml version="1.0" encoding="utf-8" standalone="no"?>
<!DOCTYPE svg PUBLIC "-//W3C//DTD SVG 1.1//EN"
  "http://www.w3.org/Graphics/SVG/1.1/DTD/svg11.dtd">
<svg xmlns:xlink="http://www.w3.org/1999/xlink" width="397.6075pt" height="297.190125pt" viewBox="0 0 397.6075 297.190125" xmlns="http://www.w3.org/2000/svg" version="1.1">
 <metadata>
  <rdf:RDF xmlns:dc="http://purl.org/dc/elements/1.1/" xmlns:cc="http://creativecommons.org/ns#" xmlns:rdf="http://www.w3.org/1999/02/22-rdf-syntax-ns#">
   <cc:Work>
    <dc:type rdf:resource="http://purl.org/dc/dcmitype/StillImage"/>
    <dc:date>2023-12-24T21:22:35.363031</dc:date>
    <dc:format>image/svg+xml</dc:format>
    <dc:creator>
     <cc:Agent>
      <dc:title>Matplotlib v3.7.1, https://matplotlib.org/</dc:title>
     </cc:Agent>
    </dc:creator>
   </cc:Work>
  </rdf:RDF>
 </metadata>
 <defs>
  <style type="text/css">*{stroke-linejoin: round; stroke-linecap: butt}</style>
 </defs>
 <g id="figure_1">
  <g id="patch_1">
   <path d="M 0 297.190125 
L 397.6075 297.190125 
L 397.6075 0 
L 0 0 
z
" style="fill: #ffffff"/>
  </g>
  <g id="axes_1">
   <g id="patch_2">
    <path d="M 33.2875 273.312 
L 390.4075 273.312 
L 390.4075 7.2 
L 33.2875 7.2 
z
" style="fill: #ffffff"/>
   </g>
   <g id="matplotlib.axis_1">
    <g id="xtick_1">
     <g id="line2d_1">
      <defs>
       <path id="m4fd5293bcf" d="M 0 0 
L 0 3.5 
" style="stroke: #000000; stroke-width: 0.8"/>
      </defs>
      <g>
       <use xlink:href="#m4fd5293bcf" x="49.520227" y="273.312" style="stroke: #000000; stroke-width: 0.8"/>
      </g>
     </g>
     <g id="text_1">
      <!-- 0 -->
      <g transform="translate(46.338977 287.910437) scale(0.1 -0.1)">
       <defs>
        <path id="DejaVuSans-30" d="M 2034 4250 
Q 1547 4250 1301 3770 
Q 1056 3291 1056 2328 
Q 1056 1369 1301 889 
Q 1547 409 2034 409 
Q 2525 409 2770 889 
Q 3016 1369 3016 2328 
Q 3016 3291 2770 3770 
Q 2525 4250 2034 4250 
z
M 2034 4750 
Q 2819 4750 3233 4129 
Q 3647 3509 3647 2328 
Q 3647 1150 3233 529 
Q 2819 -91 2034 -91 
Q 1250 -91 836 529 
Q 422 1150 422 2328 
Q 422 3509 836 4129 
Q 1250 4750 2034 4750 
z
" transform="scale(0.015625)"/>
       </defs>
       <use xlink:href="#DejaVuSans-30"/>
      </g>
     </g>
    </g>
    <g id="xtick_2">
     <g id="line2d_2">
      <g>
       <use xlink:href="#m4fd5293bcf" x="118.449006" y="273.312" style="stroke: #000000; stroke-width: 0.8"/>
      </g>
     </g>
     <g id="text_2">
      <!-- 200 -->
      <g transform="translate(108.905256 287.910437) scale(0.1 -0.1)">
       <defs>
        <path id="DejaVuSans-32" d="M 1228 531 
L 3431 531 
L 3431 0 
L 469 0 
L 469 531 
Q 828 903 1448 1529 
Q 2069 2156 2228 2338 
Q 2531 2678 2651 2914 
Q 2772 3150 2772 3378 
Q 2772 3750 2511 3984 
Q 2250 4219 1831 4219 
Q 1534 4219 1204 4116 
Q 875 4013 500 3803 
L 500 4441 
Q 881 4594 1212 4672 
Q 1544 4750 1819 4750 
Q 2544 4750 2975 4387 
Q 3406 4025 3406 3419 
Q 3406 3131 3298 2873 
Q 3191 2616 2906 2266 
Q 2828 2175 2409 1742 
Q 1991 1309 1228 531 
z
" transform="scale(0.015625)"/>
       </defs>
       <use xlink:href="#DejaVuSans-32"/>
       <use xlink:href="#DejaVuSans-30" x="63.623047"/>
       <use xlink:href="#DejaVuSans-30" x="127.246094"/>
      </g>
     </g>
    </g>
    <g id="xtick_3">
     <g id="line2d_3">
      <g>
       <use xlink:href="#m4fd5293bcf" x="187.377784" y="273.312" style="stroke: #000000; stroke-width: 0.8"/>
      </g>
     </g>
     <g id="text_3">
      <!-- 400 -->
      <g transform="translate(177.834034 287.910437) scale(0.1 -0.1)">
       <defs>
        <path id="DejaVuSans-34" d="M 2419 4116 
L 825 1625 
L 2419 1625 
L 2419 4116 
z
M 2253 4666 
L 3047 4666 
L 3047 1625 
L 3713 1625 
L 3713 1100 
L 3047 1100 
L 3047 0 
L 2419 0 
L 2419 1100 
L 313 1100 
L 313 1709 
L 2253 4666 
z
" transform="scale(0.015625)"/>
       </defs>
       <use xlink:href="#DejaVuSans-34"/>
       <use xlink:href="#DejaVuSans-30" x="63.623047"/>
       <use xlink:href="#DejaVuSans-30" x="127.246094"/>
      </g>
     </g>
    </g>
    <g id="xtick_4">
     <g id="line2d_4">
      <g>
       <use xlink:href="#m4fd5293bcf" x="256.306562" y="273.312" style="stroke: #000000; stroke-width: 0.8"/>
      </g>
     </g>
     <g id="text_4">
      <!-- 600 -->
      <g transform="translate(246.762812 287.910437) scale(0.1 -0.1)">
       <defs>
        <path id="DejaVuSans-36" d="M 2113 2584 
Q 1688 2584 1439 2293 
Q 1191 2003 1191 1497 
Q 1191 994 1439 701 
Q 1688 409 2113 409 
Q 2538 409 2786 701 
Q 3034 994 3034 1497 
Q 3034 2003 2786 2293 
Q 2538 2584 2113 2584 
z
M 3366 4563 
L 3366 3988 
Q 3128 4100 2886 4159 
Q 2644 4219 2406 4219 
Q 1781 4219 1451 3797 
Q 1122 3375 1075 2522 
Q 1259 2794 1537 2939 
Q 1816 3084 2150 3084 
Q 2853 3084 3261 2657 
Q 3669 2231 3669 1497 
Q 3669 778 3244 343 
Q 2819 -91 2113 -91 
Q 1303 -91 875 529 
Q 447 1150 447 2328 
Q 447 3434 972 4092 
Q 1497 4750 2381 4750 
Q 2619 4750 2861 4703 
Q 3103 4656 3366 4563 
z
" transform="scale(0.015625)"/>
       </defs>
       <use xlink:href="#DejaVuSans-36"/>
       <use xlink:href="#DejaVuSans-30" x="63.623047"/>
       <use xlink:href="#DejaVuSans-30" x="127.246094"/>
      </g>
     </g>
    </g>
    <g id="xtick_5">
     <g id="line2d_5">
      <g>
       <use xlink:href="#m4fd5293bcf" x="325.23534" y="273.312" style="stroke: #000000; stroke-width: 0.8"/>
      </g>
     </g>
     <g id="text_5">
      <!-- 800 -->
      <g transform="translate(315.69159 287.910437) scale(0.1 -0.1)">
       <defs>
        <path id="DejaVuSans-38" d="M 2034 2216 
Q 1584 2216 1326 1975 
Q 1069 1734 1069 1313 
Q 1069 891 1326 650 
Q 1584 409 2034 409 
Q 2484 409 2743 651 
Q 3003 894 3003 1313 
Q 3003 1734 2745 1975 
Q 2488 2216 2034 2216 
z
M 1403 2484 
Q 997 2584 770 2862 
Q 544 3141 544 3541 
Q 544 4100 942 4425 
Q 1341 4750 2034 4750 
Q 2731 4750 3128 4425 
Q 3525 4100 3525 3541 
Q 3525 3141 3298 2862 
Q 3072 2584 2669 2484 
Q 3125 2378 3379 2068 
Q 3634 1759 3634 1313 
Q 3634 634 3220 271 
Q 2806 -91 2034 -91 
Q 1263 -91 848 271 
Q 434 634 434 1313 
Q 434 1759 690 2068 
Q 947 2378 1403 2484 
z
M 1172 3481 
Q 1172 3119 1398 2916 
Q 1625 2713 2034 2713 
Q 2441 2713 2670 2916 
Q 2900 3119 2900 3481 
Q 2900 3844 2670 4047 
Q 2441 4250 2034 4250 
Q 1625 4250 1398 4047 
Q 1172 3844 1172 3481 
z
" transform="scale(0.015625)"/>
       </defs>
       <use xlink:href="#DejaVuSans-38"/>
       <use xlink:href="#DejaVuSans-30" x="63.623047"/>
       <use xlink:href="#DejaVuSans-30" x="127.246094"/>
      </g>
     </g>
    </g>
   </g>
   <g id="matplotlib.axis_2">
    <g id="ytick_1">
     <g id="line2d_6">
      <defs>
       <path id="m77bfb06595" d="M 0 0 
L -3.5 0 
" style="stroke: #000000; stroke-width: 0.8"/>
      </defs>
      <g>
       <use xlink:href="#m77bfb06595" x="33.2875" y="267.964117" style="stroke: #000000; stroke-width: 0.8"/>
      </g>
     </g>
     <g id="text_6">
      <!-- 0 -->
      <g transform="translate(19.925 271.763336) scale(0.1 -0.1)">
       <use xlink:href="#DejaVuSans-30"/>
      </g>
     </g>
    </g>
    <g id="ytick_2">
     <g id="line2d_7">
      <g>
       <use xlink:href="#m77bfb06595" x="33.2875" y="234.223531" style="stroke: #000000; stroke-width: 0.8"/>
      </g>
     </g>
     <g id="text_7">
      <!-- 100 -->
      <g transform="translate(7.2 238.02275) scale(0.1 -0.1)">
       <defs>
        <path id="DejaVuSans-31" d="M 794 531 
L 1825 531 
L 1825 4091 
L 703 3866 
L 703 4441 
L 1819 4666 
L 2450 4666 
L 2450 531 
L 3481 531 
L 3481 0 
L 794 0 
L 794 531 
z
" transform="scale(0.015625)"/>
       </defs>
       <use xlink:href="#DejaVuSans-31"/>
       <use xlink:href="#DejaVuSans-30" x="63.623047"/>
       <use xlink:href="#DejaVuSans-30" x="127.246094"/>
      </g>
     </g>
    </g>
    <g id="ytick_3">
     <g id="line2d_8">
      <g>
       <use xlink:href="#m77bfb06595" x="33.2875" y="200.482946" style="stroke: #000000; stroke-width: 0.8"/>
      </g>
     </g>
     <g id="text_8">
      <!-- 200 -->
      <g transform="translate(7.2 204.282164) scale(0.1 -0.1)">
       <use xlink:href="#DejaVuSans-32"/>
       <use xlink:href="#DejaVuSans-30" x="63.623047"/>
       <use xlink:href="#DejaVuSans-30" x="127.246094"/>
      </g>
     </g>
    </g>
    <g id="ytick_4">
     <g id="line2d_9">
      <g>
       <use xlink:href="#m77bfb06595" x="33.2875" y="166.74236" style="stroke: #000000; stroke-width: 0.8"/>
      </g>
     </g>
     <g id="text_9">
      <!-- 300 -->
      <g transform="translate(7.2 170.541579) scale(0.1 -0.1)">
       <defs>
        <path id="DejaVuSans-33" d="M 2597 2516 
Q 3050 2419 3304 2112 
Q 3559 1806 3559 1356 
Q 3559 666 3084 287 
Q 2609 -91 1734 -91 
Q 1441 -91 1130 -33 
Q 819 25 488 141 
L 488 750 
Q 750 597 1062 519 
Q 1375 441 1716 441 
Q 2309 441 2620 675 
Q 2931 909 2931 1356 
Q 2931 1769 2642 2001 
Q 2353 2234 1838 2234 
L 1294 2234 
L 1294 2753 
L 1863 2753 
Q 2328 2753 2575 2939 
Q 2822 3125 2822 3475 
Q 2822 3834 2567 4026 
Q 2313 4219 1838 4219 
Q 1578 4219 1281 4162 
Q 984 4106 628 3988 
L 628 4550 
Q 988 4650 1302 4700 
Q 1616 4750 1894 4750 
Q 2613 4750 3031 4423 
Q 3450 4097 3450 3541 
Q 3450 3153 3228 2886 
Q 3006 2619 2597 2516 
z
" transform="scale(0.015625)"/>
       </defs>
       <use xlink:href="#DejaVuSans-33"/>
       <use xlink:href="#DejaVuSans-30" x="63.623047"/>
       <use xlink:href="#DejaVuSans-30" x="127.246094"/>
      </g>
     </g>
    </g>
    <g id="ytick_5">
     <g id="line2d_10">
      <g>
       <use xlink:href="#m77bfb06595" x="33.2875" y="133.001774" style="stroke: #000000; stroke-width: 0.8"/>
      </g>
     </g>
     <g id="text_10">
      <!-- 400 -->
      <g transform="translate(7.2 136.800993) scale(0.1 -0.1)">
       <use xlink:href="#DejaVuSans-34"/>
       <use xlink:href="#DejaVuSans-30" x="63.623047"/>
       <use xlink:href="#DejaVuSans-30" x="127.246094"/>
      </g>
     </g>
    </g>
    <g id="ytick_6">
     <g id="line2d_11">
      <g>
       <use xlink:href="#m77bfb06595" x="33.2875" y="99.261188" style="stroke: #000000; stroke-width: 0.8"/>
      </g>
     </g>
     <g id="text_11">
      <!-- 500 -->
      <g transform="translate(7.2 103.060407) scale(0.1 -0.1)">
       <defs>
        <path id="DejaVuSans-35" d="M 691 4666 
L 3169 4666 
L 3169 4134 
L 1269 4134 
L 1269 2991 
Q 1406 3038 1543 3061 
Q 1681 3084 1819 3084 
Q 2600 3084 3056 2656 
Q 3513 2228 3513 1497 
Q 3513 744 3044 326 
Q 2575 -91 1722 -91 
Q 1428 -91 1123 -41 
Q 819 9 494 109 
L 494 744 
Q 775 591 1075 516 
Q 1375 441 1709 441 
Q 2250 441 2565 725 
Q 2881 1009 2881 1497 
Q 2881 1984 2565 2268 
Q 2250 2553 1709 2553 
Q 1456 2553 1204 2497 
Q 953 2441 691 2322 
L 691 4666 
z
" transform="scale(0.015625)"/>
       </defs>
       <use xlink:href="#DejaVuSans-35"/>
       <use xlink:href="#DejaVuSans-30" x="63.623047"/>
       <use xlink:href="#DejaVuSans-30" x="127.246094"/>
      </g>
     </g>
    </g>
    <g id="ytick_7">
     <g id="line2d_12">
      <g>
       <use xlink:href="#m77bfb06595" x="33.2875" y="65.520603" style="stroke: #000000; stroke-width: 0.8"/>
      </g>
     </g>
     <g id="text_12">
      <!-- 600 -->
      <g transform="translate(7.2 69.319821) scale(0.1 -0.1)">
       <use xlink:href="#DejaVuSans-36"/>
       <use xlink:href="#DejaVuSans-30" x="63.623047"/>
       <use xlink:href="#DejaVuSans-30" x="127.246094"/>
      </g>
     </g>
    </g>
    <g id="ytick_8">
     <g id="line2d_13">
      <g>
       <use xlink:href="#m77bfb06595" x="33.2875" y="31.780017" style="stroke: #000000; stroke-width: 0.8"/>
      </g>
     </g>
     <g id="text_13">
      <!-- 700 -->
      <g transform="translate(7.2 35.579235) scale(0.1 -0.1)">
       <defs>
        <path id="DejaVuSans-37" d="M 525 4666 
L 3525 4666 
L 3525 4397 
L 1831 0 
L 1172 0 
L 2766 4134 
L 525 4134 
L 525 4666 
z
" transform="scale(0.015625)"/>
       </defs>
       <use xlink:href="#DejaVuSans-37"/>
       <use xlink:href="#DejaVuSans-30" x="63.623047"/>
       <use xlink:href="#DejaVuSans-30" x="127.246094"/>
      </g>
     </g>
    </g>
   </g>
   <g id="line2d_14">
    <path d="M 49.520227 19.296 
L 50.209515 53.373992 
L 50.554159 85.764954 
L 51.243447 101.623029 
L 51.588091 102.635247 
L 51.932735 104.659682 
L 52.277378 106.009305 
L 52.622022 116.806293 
L 52.966666 121.192569 
L 53.31131 121.529975 
L 53.655954 128.278092 
L 54.000598 131.314745 
L 54.345242 131.989556 
L 54.689886 133.001774 
L 55.03453 133.33918 
L 55.379173 134.013992 
L 55.723817 137.050644 
L 56.068461 137.050644 
L 56.757749 137.725456 
L 57.791681 141.436921 
L 58.136325 143.798762 
L 59.170256 146.498008 
L 59.5149 147.17282 
L 59.859544 147.510226 
L 60.204188 147.510226 
L 60.548832 148.859849 
L 61.23812 155.270561 
L 61.927407 155.945372 
L 62.272051 157.294996 
L 62.961339 157.969808 
L 63.305983 158.982025 
L 63.650627 159.319431 
L 63.995271 160.331649 
L 65.029202 161.343866 
L 65.373846 163.030895 
L 65.71849 163.030895 
L 66.063134 164.380519 
L 66.752422 165.055331 
L 67.097066 165.055331 
L 67.44171 165.392736 
L 68.130997 167.754577 
L 68.475641 168.091983 
L 68.820285 168.766795 
L 69.164929 168.766795 
L 69.509573 169.104201 
L 69.854217 170.79123 
L 70.198861 170.79123 
L 70.543505 172.140854 
L 70.888149 172.478259 
L 71.232792 172.478259 
L 71.577436 173.153071 
L 72.611368 174.165289 
L 72.956012 174.165289 
L 73.300656 174.502695 
L 73.6453 174.502695 
L 73.989944 175.177506 
L 74.334587 175.514912 
L 74.679231 175.514912 
L 75.023875 175.852318 
L 75.368519 175.852318 
L 76.057807 176.52713 
L 76.402451 177.201941 
L 76.747095 177.201941 
L 77.436382 177.876753 
L 77.781026 179.226377 
L 78.12567 179.226377 
L 78.470314 179.563782 
L 78.814958 180.238594 
L 79.504246 180.913406 
L 80.193534 183.275247 
L 80.538177 183.275247 
L 80.882821 183.950059 
L 81.227465 185.299682 
L 81.916753 185.299682 
L 82.261397 186.3119 
L 84.32926 188.336335 
L 85.018548 188.336335 
L 85.363192 189.011146 
L 85.707836 189.348552 
L 86.05248 189.348552 
L 86.397124 189.685958 
L 87.086411 189.685958 
L 87.431055 190.023364 
L 87.775699 190.023364 
L 88.120343 190.36077 
L 88.809631 191.710393 
L 89.154275 191.710393 
L 89.498919 192.047799 
L 89.843563 192.047799 
L 90.188206 192.385205 
L 90.53285 192.385205 
L 91.566782 193.397423 
L 91.911426 193.397423 
L 92.25607 194.40964 
L 92.600714 194.747046 
L 93.290001 194.747046 
L 93.634645 195.084452 
L 94.323933 195.084452 
L 94.668577 195.421858 
L 95.357865 196.771481 
L 95.702509 196.771481 
L 96.047153 197.446293 
L 96.391796 197.783699 
L 96.73644 197.783699 
L 97.425728 198.45851 
L 98.115016 198.45851 
L 98.45966 199.133322 
L 99.148948 199.133322 
L 100.872167 200.820351 
L 101.216811 201.495163 
L 101.561455 201.495163 
L 101.906099 201.832569 
L 102.250743 201.832569 
L 104.66325 204.19441 
L 105.007894 204.19441 
L 105.697182 204.869222 
L 106.386469 204.869222 
L 106.731113 205.544033 
L 107.420401 205.544033 
L 107.765045 205.881439 
L 108.454333 205.881439 
L 108.798977 206.218845 
L 109.832908 206.218845 
L 110.522196 206.893657 
L 111.556128 206.893657 
L 112.590059 208.918092 
L 112.934703 208.918092 
L 113.279347 209.255498 
L 113.623991 209.255498 
L 114.657923 210.267715 
L 115.002567 210.267715 
L 115.34721 211.279933 
L 116.381142 211.279933 
L 117.07043 211.954745 
L 117.759718 211.954745 
L 118.104362 212.292151 
L 118.449006 212.966962 
L 118.793649 212.966962 
L 119.138293 213.304368 
L 119.827581 213.304368 
L 120.172225 213.641774 
L 120.516869 213.641774 
L 120.861513 213.97918 
L 121.206157 213.97918 
L 121.550801 214.316586 
L 122.240088 214.316586 
L 123.27402 215.328803 
L 123.618664 215.328803 
L 123.963308 215.666209 
L 124.652596 215.666209 
L 124.997239 216.003615 
L 126.031171 216.003615 
L 126.375815 216.341021 
L 126.720459 217.015833 
L 127.065103 217.015833 
L 127.409747 217.353238 
L 128.443678 217.353238 
L 128.788322 217.690644 
L 129.822254 217.690644 
L 130.166898 218.02805 
L 130.856186 218.02805 
L 131.200829 218.365456 
L 132.234761 218.365456 
L 132.579405 218.702862 
L 132.924049 218.702862 
L 133.268693 219.040268 
L 133.613337 219.040268 
L 133.957981 219.715079 
L 134.647268 219.715079 
L 134.991912 220.052485 
L 135.6812 220.052485 
L 136.025844 220.389891 
L 136.370488 220.389891 
L 136.715132 220.727297 
L 137.059776 220.727297 
L 137.40442 221.064703 
L 137.749063 221.064703 
L 138.093707 221.402109 
L 138.438351 221.402109 
L 138.782995 221.739515 
L 139.472283 221.739515 
L 139.816927 222.076921 
L 140.161571 222.076921 
L 140.506215 222.414326 
L 141.88479 222.414326 
L 142.574078 223.089138 
L 143.60801 223.089138 
L 143.952653 223.426544 
L 144.297297 223.426544 
L 144.641941 223.76395 
L 144.986585 223.76395 
L 145.675873 224.438762 
L 146.020517 224.438762 
L 146.365161 224.776167 
L 146.709805 224.776167 
L 147.054448 225.113573 
L 148.08838 225.113573 
L 149.122312 226.125791 
L 150.156243 226.125791 
L 150.845531 226.800603 
L 151.190175 226.800603 
L 151.534819 227.138008 
L 153.258039 227.138008 
L 153.602682 227.475414 
L 154.29197 227.475414 
L 154.981258 228.150226 
L 155.670546 228.150226 
L 156.01519 228.487632 
L 156.359834 229.162444 
L 157.393765 229.162444 
L 157.738409 229.499849 
L 158.083053 229.499849 
L 158.772341 230.174661 
L 159.461629 230.174661 
L 159.806272 230.512067 
L 160.150916 230.512067 
L 160.49556 230.849473 
L 161.184848 230.849473 
L 161.529492 231.186879 
L 162.563424 231.186879 
L 162.908067 231.524285 
L 163.941999 231.524285 
L 164.286643 231.86169 
L 166.009862 231.86169 
L 166.354506 232.199096 
L 167.388438 232.199096 
L 167.733082 232.536502 
L 168.767014 232.536502 
L 169.111657 232.873908 
L 170.145589 232.873908 
L 170.490233 233.211314 
L 170.834877 233.211314 
L 171.179521 233.54872 
L 172.558096 233.54872 
L 172.90274 233.886126 
L 173.592028 233.886126 
L 173.936672 234.223531 
L 174.62596 234.223531 
L 174.970604 234.898343 
L 176.349179 234.898343 
L 176.693823 235.235749 
L 177.038467 235.235749 
L 177.383111 235.573155 
L 177.727755 235.573155 
L 178.072399 235.910561 
L 178.417043 235.910561 
L 179.10633 236.585372 
L 180.484906 236.585372 
L 180.82955 236.922778 
L 181.174194 236.922778 
L 181.518838 237.59759 
L 181.863481 237.59759 
L 182.208125 237.934996 
L 183.242057 237.934996 
L 183.586701 238.609808 
L 183.931345 238.609808 
L 184.275989 238.947213 
L 184.965276 238.947213 
L 185.654564 239.622025 
L 185.999208 239.622025 
L 186.343852 239.959431 
L 187.03314 239.959431 
L 187.377784 240.296837 
L 187.722428 240.296837 
L 188.067072 240.634243 
L 189.445647 240.634243 
L 189.790291 240.971649 
L 190.824223 240.971649 
L 191.168867 241.309054 
L 191.858154 241.309054 
L 192.547442 241.983866 
L 192.892086 241.983866 
L 193.23673 242.321272 
L 194.270662 242.321272 
L 194.615305 242.658678 
L 197.027813 242.658678 
L 197.372457 242.996084 
L 198.406388 242.996084 
L 198.751032 243.33349 
L 199.784964 243.33349 
L 200.129608 243.670895 
L 200.474252 243.670895 
L 200.818895 244.008301 
L 202.886759 244.008301 
L 203.231403 244.345707 
L 203.920691 244.345707 
L 204.265334 244.683113 
L 204.609978 244.683113 
L 204.954622 245.020519 
L 206.333198 245.020519 
L 206.677842 245.357925 
L 207.711773 245.357925 
L 208.056417 245.695331 
L 209.779637 245.695331 
L 210.124281 246.032736 
L 211.8475 246.032736 
L 212.192144 246.370142 
L 214.260007 246.370142 
L 214.604651 246.707548 
L 216.327871 246.707548 
L 216.672514 247.044954 
L 218.740378 247.044954 
L 219.085022 247.38236 
L 219.429666 247.38236 
L 219.774309 247.719766 
L 220.463597 247.719766 
L 220.808241 248.057172 
L 222.531461 248.057172 
L 222.876105 248.394577 
L 225.9779 248.394577 
L 226.322543 248.731983 
L 228.735051 248.731983 
L 229.079695 249.069389 
L 230.802914 249.069389 
L 231.147558 249.406795 
L 232.870777 249.406795 
L 233.215421 249.744201 
L 234.938641 249.744201 
L 235.283285 250.081607 
L 238.040436 250.081607 
L 238.38508 250.419013 
L 239.074367 250.419013 
L 239.419011 250.756418 
L 243.210094 250.756418 
L 243.554738 251.093824 
L 244.933314 251.093824 
L 245.277957 251.43123 
L 247.001177 251.43123 
L 247.345821 251.768636 
L 249.06904 251.768636 
L 249.413684 252.106042 
L 253.204767 252.106042 
L 253.549411 252.443448 
L 255.617274 252.443448 
L 255.961918 252.780854 
L 257.340494 252.780854 
L 257.685138 253.118259 
L 260.097645 253.118259 
L 260.442289 253.455665 
L 263.544084 253.455665 
L 263.888728 253.793071 
L 266.301235 253.793071 
L 266.645879 254.130477 
L 269.058386 254.130477 
L 269.40303 254.467883 
L 271.470893 254.467883 
L 271.815537 254.805289 
L 274.228044 254.805289 
L 274.572688 255.142695 
L 277.329839 255.142695 
L 277.674483 255.4801 
L 280.08699 255.4801 
L 280.431634 255.817506 
L 282.844142 255.817506 
L 283.188785 256.154912 
L 286.635224 256.154912 
L 286.979868 256.492318 
L 289.392376 256.492318 
L 289.737019 256.829724 
L 294.906678 256.829724 
L 295.251322 257.16713 
L 298.008473 257.16713 
L 298.353117 257.504536 
L 300.765624 257.504536 
L 301.110268 257.841941 
L 305.590638 257.841941 
L 305.935282 258.179347 
L 309.726365 258.179347 
L 310.071009 258.516753 
L 314.896023 258.516753 
L 315.240667 258.854159 
L 320.410326 258.854159 
L 320.75497 259.191565 
L 326.95856 259.191565 
L 327.303204 259.528971 
L 332.472862 259.528971 
L 332.817506 259.866377 
L 339.710384 259.866377 
L 340.055028 260.203782 
L 346.947905 260.203782 
L 347.292549 260.541188 
L 354.874715 260.541188 
L 355.219359 260.878594 
L 363.146168 260.878594 
L 363.490812 261.216 
L 374.174773 261.216 
L 374.174773 261.216 
" clip-path="url(#p8b1f8f2e22)" style="fill: none; stroke: #1f77b4; stroke-width: 1.5; stroke-linecap: square"/>
   </g>
   <g id="patch_3">
    <path d="M 33.2875 273.312 
L 33.2875 7.2 
" style="fill: none; stroke: #000000; stroke-width: 0.8; stroke-linejoin: miter; stroke-linecap: square"/>
   </g>
   <g id="patch_4">
    <path d="M 390.4075 273.312 
L 390.4075 7.2 
" style="fill: none; stroke: #000000; stroke-width: 0.8; stroke-linejoin: miter; stroke-linecap: square"/>
   </g>
   <g id="patch_5">
    <path d="M 33.2875 273.312 
L 390.4075 273.312 
" style="fill: none; stroke: #000000; stroke-width: 0.8; stroke-linejoin: miter; stroke-linecap: square"/>
   </g>
   <g id="patch_6">
    <path d="M 33.2875 7.2 
L 390.4075 7.2 
" style="fill: none; stroke: #000000; stroke-width: 0.8; stroke-linejoin: miter; stroke-linecap: square"/>
   </g>
  </g>
 </g>
 <defs>
  <clipPath id="p8b1f8f2e22">
   <rect x="33.2875" y="7.2" width="357.12" height="266.112"/>
  </clipPath>
 </defs>
</svg>
