<?xml version="1.0" encoding="utf-8" standalone="no"?>
<!DOCTYPE svg PUBLIC "-//W3C//DTD SVG 1.1//EN"
  "http://www.w3.org/Graphics/SVG/1.1/DTD/svg11.dtd">
<svg xmlns:xlink="http://www.w3.org/1999/xlink" width="375.2875pt" height="248.518125pt" viewBox="0 0 375.2875 248.518125" xmlns="http://www.w3.org/2000/svg" version="1.1">
 <metadata>
  <rdf:RDF xmlns:dc="http://purl.org/dc/elements/1.1/" xmlns:cc="http://creativecommons.org/ns#" xmlns:rdf="http://www.w3.org/1999/02/22-rdf-syntax-ns#">
   <cc:Work>
    <dc:type rdf:resource="http://purl.org/dc/dcmitype/StillImage"/>
    <dc:date>2022-06-15T02:01:39.693612</dc:date>
    <dc:format>image/svg+xml</dc:format>
    <dc:creator>
     <cc:Agent>
      <dc:title>Matplotlib v3.5.2, https://matplotlib.org/</dc:title>
     </cc:Agent>
    </dc:creator>
   </cc:Work>
  </rdf:RDF>
 </metadata>
 <defs>
  <style type="text/css">*{stroke-linejoin: round; stroke-linecap: butt}</style>
 </defs>
 <g id="figure_1">
  <g id="patch_1">
   <path d="M 0 248.518125 
L 375.2875 248.518125 
L 375.2875 0 
L 0 0 
z
" style="fill: #ffffff"/>
  </g>
  <g id="axes_1">
   <g id="patch_2">
    <path d="M 33.2875 224.64 
L 368.0875 224.64 
L 368.0875 7.2 
L 33.2875 7.2 
z
" style="fill: #e5e5e5"/>
   </g>
   <g id="matplotlib.axis_1">
    <g id="xtick_1">
     <g id="line2d_1">
      <path d="M 48.505682 224.64 
L 48.505682 7.2 
" clip-path="url(#p907e7521bf)" style="fill: none; stroke: #ffffff; stroke-width: 0.8; stroke-linecap: square"/>
     </g>
     <g id="line2d_2">
      <defs>
       <path id="m183c25bb99" d="M 0 0 
L 0 3.5 
" style="stroke: #555555; stroke-width: 0.8"/>
      </defs>
      <g>
       <use xlink:href="#m183c25bb99" x="48.505682" y="224.64" style="fill: #555555; stroke: #555555; stroke-width: 0.8"/>
      </g>
     </g>
     <g id="text_1">
      <!-- 0 -->
      <g style="fill: #555555" transform="translate(45.324432 239.238437)scale(0.1 -0.1)">
       <defs>
        <path id="DejaVuSans-30" d="M 2034 4250 
Q 1547 4250 1301 3770 
Q 1056 3291 1056 2328 
Q 1056 1369 1301 889 
Q 1547 409 2034 409 
Q 2525 409 2770 889 
Q 3016 1369 3016 2328 
Q 3016 3291 2770 3770 
Q 2525 4250 2034 4250 
z
M 2034 4750 
Q 2819 4750 3233 4129 
Q 3647 3509 3647 2328 
Q 3647 1150 3233 529 
Q 2819 -91 2034 -91 
Q 1250 -91 836 529 
Q 422 1150 422 2328 
Q 422 3509 836 4129 
Q 1250 4750 2034 4750 
z
" transform="scale(0.015625)"/>
       </defs>
       <use xlink:href="#DejaVuSans-30"/>
      </g>
     </g>
    </g>
    <g id="xtick_2">
     <g id="line2d_3">
      <path d="M 113.126411 224.64 
L 113.126411 7.2 
" clip-path="url(#p907e7521bf)" style="fill: none; stroke: #ffffff; stroke-width: 0.8; stroke-linecap: square"/>
     </g>
     <g id="line2d_4">
      <g>
       <use xlink:href="#m183c25bb99" x="113.126411" y="224.64" style="fill: #555555; stroke: #555555; stroke-width: 0.8"/>
      </g>
     </g>
     <g id="text_2">
      <!-- 200 -->
      <g style="fill: #555555" transform="translate(103.582661 239.238437)scale(0.1 -0.1)">
       <defs>
        <path id="DejaVuSans-32" d="M 1228 531 
L 3431 531 
L 3431 0 
L 469 0 
L 469 531 
Q 828 903 1448 1529 
Q 2069 2156 2228 2338 
Q 2531 2678 2651 2914 
Q 2772 3150 2772 3378 
Q 2772 3750 2511 3984 
Q 2250 4219 1831 4219 
Q 1534 4219 1204 4116 
Q 875 4013 500 3803 
L 500 4441 
Q 881 4594 1212 4672 
Q 1544 4750 1819 4750 
Q 2544 4750 2975 4387 
Q 3406 4025 3406 3419 
Q 3406 3131 3298 2873 
Q 3191 2616 2906 2266 
Q 2828 2175 2409 1742 
Q 1991 1309 1228 531 
z
" transform="scale(0.015625)"/>
       </defs>
       <use xlink:href="#DejaVuSans-32"/>
       <use xlink:href="#DejaVuSans-30" x="63.623047"/>
       <use xlink:href="#DejaVuSans-30" x="127.246094"/>
      </g>
     </g>
    </g>
    <g id="xtick_3">
     <g id="line2d_5">
      <path d="M 177.747141 224.64 
L 177.747141 7.2 
" clip-path="url(#p907e7521bf)" style="fill: none; stroke: #ffffff; stroke-width: 0.8; stroke-linecap: square"/>
     </g>
     <g id="line2d_6">
      <g>
       <use xlink:href="#m183c25bb99" x="177.747141" y="224.64" style="fill: #555555; stroke: #555555; stroke-width: 0.8"/>
      </g>
     </g>
     <g id="text_3">
      <!-- 400 -->
      <g style="fill: #555555" transform="translate(168.203391 239.238437)scale(0.1 -0.1)">
       <defs>
        <path id="DejaVuSans-34" d="M 2419 4116 
L 825 1625 
L 2419 1625 
L 2419 4116 
z
M 2253 4666 
L 3047 4666 
L 3047 1625 
L 3713 1625 
L 3713 1100 
L 3047 1100 
L 3047 0 
L 2419 0 
L 2419 1100 
L 313 1100 
L 313 1709 
L 2253 4666 
z
" transform="scale(0.015625)"/>
       </defs>
       <use xlink:href="#DejaVuSans-34"/>
       <use xlink:href="#DejaVuSans-30" x="63.623047"/>
       <use xlink:href="#DejaVuSans-30" x="127.246094"/>
      </g>
     </g>
    </g>
    <g id="xtick_4">
     <g id="line2d_7">
      <path d="M 242.367871 224.64 
L 242.367871 7.2 
" clip-path="url(#p907e7521bf)" style="fill: none; stroke: #ffffff; stroke-width: 0.8; stroke-linecap: square"/>
     </g>
     <g id="line2d_8">
      <g>
       <use xlink:href="#m183c25bb99" x="242.367871" y="224.64" style="fill: #555555; stroke: #555555; stroke-width: 0.8"/>
      </g>
     </g>
     <g id="text_4">
      <!-- 600 -->
      <g style="fill: #555555" transform="translate(232.824121 239.238437)scale(0.1 -0.1)">
       <defs>
        <path id="DejaVuSans-36" d="M 2113 2584 
Q 1688 2584 1439 2293 
Q 1191 2003 1191 1497 
Q 1191 994 1439 701 
Q 1688 409 2113 409 
Q 2538 409 2786 701 
Q 3034 994 3034 1497 
Q 3034 2003 2786 2293 
Q 2538 2584 2113 2584 
z
M 3366 4563 
L 3366 3988 
Q 3128 4100 2886 4159 
Q 2644 4219 2406 4219 
Q 1781 4219 1451 3797 
Q 1122 3375 1075 2522 
Q 1259 2794 1537 2939 
Q 1816 3084 2150 3084 
Q 2853 3084 3261 2657 
Q 3669 2231 3669 1497 
Q 3669 778 3244 343 
Q 2819 -91 2113 -91 
Q 1303 -91 875 529 
Q 447 1150 447 2328 
Q 447 3434 972 4092 
Q 1497 4750 2381 4750 
Q 2619 4750 2861 4703 
Q 3103 4656 3366 4563 
z
" transform="scale(0.015625)"/>
       </defs>
       <use xlink:href="#DejaVuSans-36"/>
       <use xlink:href="#DejaVuSans-30" x="63.623047"/>
       <use xlink:href="#DejaVuSans-30" x="127.246094"/>
      </g>
     </g>
    </g>
    <g id="xtick_5">
     <g id="line2d_9">
      <path d="M 306.9886 224.64 
L 306.9886 7.2 
" clip-path="url(#p907e7521bf)" style="fill: none; stroke: #ffffff; stroke-width: 0.8; stroke-linecap: square"/>
     </g>
     <g id="line2d_10">
      <g>
       <use xlink:href="#m183c25bb99" x="306.9886" y="224.64" style="fill: #555555; stroke: #555555; stroke-width: 0.8"/>
      </g>
     </g>
     <g id="text_5">
      <!-- 800 -->
      <g style="fill: #555555" transform="translate(297.44485 239.238437)scale(0.1 -0.1)">
       <defs>
        <path id="DejaVuSans-38" d="M 2034 2216 
Q 1584 2216 1326 1975 
Q 1069 1734 1069 1313 
Q 1069 891 1326 650 
Q 1584 409 2034 409 
Q 2484 409 2743 651 
Q 3003 894 3003 1313 
Q 3003 1734 2745 1975 
Q 2488 2216 2034 2216 
z
M 1403 2484 
Q 997 2584 770 2862 
Q 544 3141 544 3541 
Q 544 4100 942 4425 
Q 1341 4750 2034 4750 
Q 2731 4750 3128 4425 
Q 3525 4100 3525 3541 
Q 3525 3141 3298 2862 
Q 3072 2584 2669 2484 
Q 3125 2378 3379 2068 
Q 3634 1759 3634 1313 
Q 3634 634 3220 271 
Q 2806 -91 2034 -91 
Q 1263 -91 848 271 
Q 434 634 434 1313 
Q 434 1759 690 2068 
Q 947 2378 1403 2484 
z
M 1172 3481 
Q 1172 3119 1398 2916 
Q 1625 2713 2034 2713 
Q 2441 2713 2670 2916 
Q 2900 3119 2900 3481 
Q 2900 3844 2670 4047 
Q 2441 4250 2034 4250 
Q 1625 4250 1398 4047 
Q 1172 3844 1172 3481 
z
" transform="scale(0.015625)"/>
       </defs>
       <use xlink:href="#DejaVuSans-38"/>
       <use xlink:href="#DejaVuSans-30" x="63.623047"/>
       <use xlink:href="#DejaVuSans-30" x="127.246094"/>
      </g>
     </g>
    </g>
   </g>
   <g id="matplotlib.axis_2">
    <g id="ytick_1">
     <g id="line2d_11">
      <path d="M 33.2875 220.270247 
L 368.0875 220.270247 
" clip-path="url(#p907e7521bf)" style="fill: none; stroke: #ffffff; stroke-width: 0.8; stroke-linecap: square"/>
     </g>
     <g id="line2d_12">
      <defs>
       <path id="m2c576052c2" d="M 0 0 
L -3.5 0 
" style="stroke: #555555; stroke-width: 0.8"/>
      </defs>
      <g>
       <use xlink:href="#m2c576052c2" x="33.2875" y="220.270247" style="fill: #555555; stroke: #555555; stroke-width: 0.8"/>
      </g>
     </g>
     <g id="text_6">
      <!-- 0 -->
      <g style="fill: #555555" transform="translate(19.925 224.069466)scale(0.1 -0.1)">
       <use xlink:href="#DejaVuSans-30"/>
      </g>
     </g>
    </g>
    <g id="ytick_2">
     <g id="line2d_13">
      <path d="M 33.2875 192.700829 
L 368.0875 192.700829 
" clip-path="url(#p907e7521bf)" style="fill: none; stroke: #ffffff; stroke-width: 0.8; stroke-linecap: square"/>
     </g>
     <g id="line2d_14">
      <g>
       <use xlink:href="#m2c576052c2" x="33.2875" y="192.700829" style="fill: #555555; stroke: #555555; stroke-width: 0.8"/>
      </g>
     </g>
     <g id="text_7">
      <!-- 100 -->
      <g style="fill: #555555" transform="translate(7.2 196.500048)scale(0.1 -0.1)">
       <defs>
        <path id="DejaVuSans-31" d="M 794 531 
L 1825 531 
L 1825 4091 
L 703 3866 
L 703 4441 
L 1819 4666 
L 2450 4666 
L 2450 531 
L 3481 531 
L 3481 0 
L 794 0 
L 794 531 
z
" transform="scale(0.015625)"/>
       </defs>
       <use xlink:href="#DejaVuSans-31"/>
       <use xlink:href="#DejaVuSans-30" x="63.623047"/>
       <use xlink:href="#DejaVuSans-30" x="127.246094"/>
      </g>
     </g>
    </g>
    <g id="ytick_3">
     <g id="line2d_15">
      <path d="M 33.2875 165.131411 
L 368.0875 165.131411 
" clip-path="url(#p907e7521bf)" style="fill: none; stroke: #ffffff; stroke-width: 0.8; stroke-linecap: square"/>
     </g>
     <g id="line2d_16">
      <g>
       <use xlink:href="#m2c576052c2" x="33.2875" y="165.131411" style="fill: #555555; stroke: #555555; stroke-width: 0.8"/>
      </g>
     </g>
     <g id="text_8">
      <!-- 200 -->
      <g style="fill: #555555" transform="translate(7.2 168.93063)scale(0.1 -0.1)">
       <use xlink:href="#DejaVuSans-32"/>
       <use xlink:href="#DejaVuSans-30" x="63.623047"/>
       <use xlink:href="#DejaVuSans-30" x="127.246094"/>
      </g>
     </g>
    </g>
    <g id="ytick_4">
     <g id="line2d_17">
      <path d="M 33.2875 137.561993 
L 368.0875 137.561993 
" clip-path="url(#p907e7521bf)" style="fill: none; stroke: #ffffff; stroke-width: 0.8; stroke-linecap: square"/>
     </g>
     <g id="line2d_18">
      <g>
       <use xlink:href="#m2c576052c2" x="33.2875" y="137.561993" style="fill: #555555; stroke: #555555; stroke-width: 0.8"/>
      </g>
     </g>
     <g id="text_9">
      <!-- 300 -->
      <g style="fill: #555555" transform="translate(7.2 141.361212)scale(0.1 -0.1)">
       <defs>
        <path id="DejaVuSans-33" d="M 2597 2516 
Q 3050 2419 3304 2112 
Q 3559 1806 3559 1356 
Q 3559 666 3084 287 
Q 2609 -91 1734 -91 
Q 1441 -91 1130 -33 
Q 819 25 488 141 
L 488 750 
Q 750 597 1062 519 
Q 1375 441 1716 441 
Q 2309 441 2620 675 
Q 2931 909 2931 1356 
Q 2931 1769 2642 2001 
Q 2353 2234 1838 2234 
L 1294 2234 
L 1294 2753 
L 1863 2753 
Q 2328 2753 2575 2939 
Q 2822 3125 2822 3475 
Q 2822 3834 2567 4026 
Q 2313 4219 1838 4219 
Q 1578 4219 1281 4162 
Q 984 4106 628 3988 
L 628 4550 
Q 988 4650 1302 4700 
Q 1616 4750 1894 4750 
Q 2613 4750 3031 4423 
Q 3450 4097 3450 3541 
Q 3450 3153 3228 2886 
Q 3006 2619 2597 2516 
z
" transform="scale(0.015625)"/>
       </defs>
       <use xlink:href="#DejaVuSans-33"/>
       <use xlink:href="#DejaVuSans-30" x="63.623047"/>
       <use xlink:href="#DejaVuSans-30" x="127.246094"/>
      </g>
     </g>
    </g>
    <g id="ytick_5">
     <g id="line2d_19">
      <path d="M 33.2875 109.992575 
L 368.0875 109.992575 
" clip-path="url(#p907e7521bf)" style="fill: none; stroke: #ffffff; stroke-width: 0.8; stroke-linecap: square"/>
     </g>
     <g id="line2d_20">
      <g>
       <use xlink:href="#m2c576052c2" x="33.2875" y="109.992575" style="fill: #555555; stroke: #555555; stroke-width: 0.8"/>
      </g>
     </g>
     <g id="text_10">
      <!-- 400 -->
      <g style="fill: #555555" transform="translate(7.2 113.791794)scale(0.1 -0.1)">
       <use xlink:href="#DejaVuSans-34"/>
       <use xlink:href="#DejaVuSans-30" x="63.623047"/>
       <use xlink:href="#DejaVuSans-30" x="127.246094"/>
      </g>
     </g>
    </g>
    <g id="ytick_6">
     <g id="line2d_21">
      <path d="M 33.2875 82.423157 
L 368.0875 82.423157 
" clip-path="url(#p907e7521bf)" style="fill: none; stroke: #ffffff; stroke-width: 0.8; stroke-linecap: square"/>
     </g>
     <g id="line2d_22">
      <g>
       <use xlink:href="#m2c576052c2" x="33.2875" y="82.423157" style="fill: #555555; stroke: #555555; stroke-width: 0.8"/>
      </g>
     </g>
     <g id="text_11">
      <!-- 500 -->
      <g style="fill: #555555" transform="translate(7.2 86.222376)scale(0.1 -0.1)">
       <defs>
        <path id="DejaVuSans-35" d="M 691 4666 
L 3169 4666 
L 3169 4134 
L 1269 4134 
L 1269 2991 
Q 1406 3038 1543 3061 
Q 1681 3084 1819 3084 
Q 2600 3084 3056 2656 
Q 3513 2228 3513 1497 
Q 3513 744 3044 326 
Q 2575 -91 1722 -91 
Q 1428 -91 1123 -41 
Q 819 9 494 109 
L 494 744 
Q 775 591 1075 516 
Q 1375 441 1709 441 
Q 2250 441 2565 725 
Q 2881 1009 2881 1497 
Q 2881 1984 2565 2268 
Q 2250 2553 1709 2553 
Q 1456 2553 1204 2497 
Q 953 2441 691 2322 
L 691 4666 
z
" transform="scale(0.015625)"/>
       </defs>
       <use xlink:href="#DejaVuSans-35"/>
       <use xlink:href="#DejaVuSans-30" x="63.623047"/>
       <use xlink:href="#DejaVuSans-30" x="127.246094"/>
      </g>
     </g>
    </g>
    <g id="ytick_7">
     <g id="line2d_23">
      <path d="M 33.2875 54.853739 
L 368.0875 54.853739 
" clip-path="url(#p907e7521bf)" style="fill: none; stroke: #ffffff; stroke-width: 0.8; stroke-linecap: square"/>
     </g>
     <g id="line2d_24">
      <g>
       <use xlink:href="#m2c576052c2" x="33.2875" y="54.853739" style="fill: #555555; stroke: #555555; stroke-width: 0.8"/>
      </g>
     </g>
     <g id="text_12">
      <!-- 600 -->
      <g style="fill: #555555" transform="translate(7.2 58.652958)scale(0.1 -0.1)">
       <use xlink:href="#DejaVuSans-36"/>
       <use xlink:href="#DejaVuSans-30" x="63.623047"/>
       <use xlink:href="#DejaVuSans-30" x="127.246094"/>
      </g>
     </g>
    </g>
    <g id="ytick_8">
     <g id="line2d_25">
      <path d="M 33.2875 27.284321 
L 368.0875 27.284321 
" clip-path="url(#p907e7521bf)" style="fill: none; stroke: #ffffff; stroke-width: 0.8; stroke-linecap: square"/>
     </g>
     <g id="line2d_26">
      <g>
       <use xlink:href="#m2c576052c2" x="33.2875" y="27.284321" style="fill: #555555; stroke: #555555; stroke-width: 0.8"/>
      </g>
     </g>
     <g id="text_13">
      <!-- 700 -->
      <g style="fill: #555555" transform="translate(7.2 31.08354)scale(0.1 -0.1)">
       <defs>
        <path id="DejaVuSans-37" d="M 525 4666 
L 3525 4666 
L 3525 4397 
L 1831 0 
L 1172 0 
L 2766 4134 
L 525 4134 
L 525 4666 
z
" transform="scale(0.015625)"/>
       </defs>
       <use xlink:href="#DejaVuSans-37"/>
       <use xlink:href="#DejaVuSans-30" x="63.623047"/>
       <use xlink:href="#DejaVuSans-30" x="127.246094"/>
      </g>
     </g>
    </g>
   </g>
   <g id="line2d_27">
    <path d="M 48.505682 17.083636 
L 49.151889 44.928749 
L 49.474993 71.39539 
L 50.1212 84.353016 
L 50.444304 85.180099 
L 51.090511 87.937041 
L 51.413615 96.759254 
L 51.736718 100.343279 
L 52.059822 100.618973 
L 52.382926 106.132857 
L 52.706029 108.614104 
L 53.029133 109.165493 
L 53.352237 109.992575 
L 53.67534 110.268269 
L 53.998444 110.819658 
L 54.321547 113.300905 
L 54.644651 113.300905 
L 55.290858 113.852294 
L 56.260169 116.88493 
L 56.583273 118.814789 
L 57.552584 121.020342 
L 57.875688 121.571731 
L 58.198791 121.847425 
L 58.521895 121.847425 
L 58.844999 122.950202 
L 59.491206 128.188391 
L 60.137413 128.739779 
L 60.460517 129.842556 
L 61.106724 130.393944 
L 61.429828 131.221027 
L 61.752931 131.496721 
L 62.076035 132.323804 
L 63.045346 133.150886 
L 63.36845 134.529357 
L 63.691553 134.529357 
L 64.014657 135.632134 
L 64.660864 136.183522 
L 64.983968 136.183522 
L 65.307072 136.459216 
L 65.953279 138.389076 
L 66.276382 138.66477 
L 66.599486 139.216158 
L 66.92259 139.216158 
L 67.245693 139.491852 
L 67.568797 140.870323 
L 67.891901 140.870323 
L 68.215004 141.9731 
L 68.538108 142.248794 
L 68.861212 142.248794 
L 69.184315 142.800183 
L 70.153626 143.627265 
L 70.47673 143.627265 
L 70.799834 143.902959 
L 71.122937 143.902959 
L 71.446041 144.454348 
L 71.769144 144.730042 
L 72.092248 144.730042 
L 72.415352 145.005736 
L 72.738455 145.005736 
L 73.384663 145.557124 
L 73.707766 146.108513 
L 74.03087 146.108513 
L 74.677077 146.659901 
L 75.000181 147.762678 
L 75.323285 147.762678 
L 75.646388 148.038372 
L 75.969492 148.58976 
L 76.615699 149.141149 
L 77.261906 151.071008 
L 77.58501 151.071008 
L 77.908114 151.622396 
L 78.231217 152.725173 
L 78.877425 152.725173 
L 79.200528 153.552256 
L 81.13915 155.206421 
L 81.785358 155.206421 
L 82.108461 155.757809 
L 82.431565 156.033503 
L 82.754669 156.033503 
L 83.077772 156.309197 
L 83.723979 156.309197 
L 84.047083 156.584892 
L 84.370187 156.584892 
L 84.69329 156.860586 
L 85.339498 157.963362 
L 85.662601 157.963362 
L 85.985705 158.239057 
L 86.308809 158.239057 
L 86.631912 158.514751 
L 86.955016 158.514751 
L 87.924327 159.341833 
L 88.247431 159.341833 
L 88.570534 160.168916 
L 88.893638 160.44461 
L 89.539845 160.44461 
L 89.862949 160.720304 
L 90.509156 160.720304 
L 90.83226 160.995998 
L 91.478467 162.098775 
L 91.801571 162.098775 
L 92.124674 162.650164 
L 92.447778 162.925858 
L 92.770882 162.925858 
L 93.417089 163.477246 
L 94.063296 163.477246 
L 94.3864 164.028634 
L 95.032607 164.028634 
L 96.648125 165.407105 
L 96.971229 165.958494 
L 97.294333 165.958494 
L 97.617436 166.234188 
L 97.94054 166.234188 
L 100.202265 168.164047 
L 100.525369 168.164047 
L 101.171576 168.715436 
L 101.817784 168.715436 
L 102.140887 169.266824 
L 102.787095 169.266824 
L 103.110198 169.542518 
L 103.756406 169.542518 
L 104.079509 169.818212 
L 105.04882 169.818212 
L 105.695028 170.369601 
L 106.664338 170.369601 
L 107.633649 172.023766 
L 107.956753 172.023766 
L 108.279857 172.29946 
L 108.60296 172.29946 
L 109.572271 173.126542 
L 109.895375 173.126542 
L 110.218479 173.953625 
L 111.18779 173.953625 
L 111.833997 174.505013 
L 112.480204 174.505013 
L 112.803308 174.780707 
L 113.126411 175.332096 
L 113.449515 175.332096 
L 113.772619 175.60779 
L 114.418826 175.60779 
L 114.74193 175.883484 
L 115.065033 175.883484 
L 115.388137 176.159178 
L 115.711241 176.159178 
L 116.034344 176.434873 
L 116.680552 176.434873 
L 117.649862 177.261955 
L 117.972966 177.261955 
L 118.29607 177.537649 
L 118.942277 177.537649 
L 119.265381 177.813343 
L 120.234692 177.813343 
L 120.557795 178.089038 
L 120.880899 178.640426 
L 121.204003 178.640426 
L 121.527106 178.91612 
L 122.496417 178.91612 
L 122.819521 179.191814 
L 123.788832 179.191814 
L 124.111935 179.467509 
L 124.758143 179.467509 
L 125.081246 179.743203 
L 126.050557 179.743203 
L 126.373661 180.018897 
L 126.696765 180.018897 
L 127.019868 180.294591 
L 127.342972 180.294591 
L 127.666076 180.845979 
L 128.312283 180.845979 
L 128.635387 181.121674 
L 129.281594 181.121674 
L 129.604697 181.397368 
L 129.927801 181.397368 
L 130.250905 181.673062 
L 130.574008 181.673062 
L 130.897112 181.948756 
L 131.220216 181.948756 
L 131.543319 182.22445 
L 131.866423 182.22445 
L 132.189527 182.500145 
L 132.835734 182.500145 
L 133.158838 182.775839 
L 133.481941 182.775839 
L 133.805045 183.051533 
L 135.097459 183.051533 
L 135.743667 183.602921 
L 136.712978 183.602921 
L 137.036081 183.878615 
L 137.359185 183.878615 
L 137.682289 184.15431 
L 138.005392 184.15431 
L 138.6516 184.705698 
L 138.974703 184.705698 
L 139.297807 184.981392 
L 139.620911 184.981392 
L 139.944014 185.257086 
L 140.913325 185.257086 
L 141.882636 186.084169 
L 142.851947 186.084169 
L 143.498154 186.635557 
L 143.821258 186.635557 
L 144.144362 186.911251 
L 145.75988 186.911251 
L 146.082983 187.186946 
L 146.729191 187.186946 
L 147.375398 187.738334 
L 148.021605 187.738334 
L 148.344709 188.014028 
L 148.667813 188.565417 
L 149.637124 188.565417 
L 149.960227 188.841111 
L 150.283331 188.841111 
L 150.929538 189.392499 
L 151.575746 189.392499 
L 151.898849 189.668193 
L 152.221953 189.668193 
L 152.545056 189.943887 
L 153.191264 189.943887 
L 153.514367 190.219582 
L 154.483678 190.219582 
L 154.806782 190.495276 
L 155.776093 190.495276 
L 156.099197 190.77097 
L 157.714715 190.77097 
L 158.037818 191.046664 
L 159.007129 191.046664 
L 159.330233 191.322358 
L 160.299544 191.322358 
L 160.622648 191.598052 
L 161.591959 191.598052 
L 161.915062 191.873747 
L 162.238166 191.873747 
L 162.56127 192.149441 
L 163.853684 192.149441 
L 164.176788 192.425135 
L 164.822995 192.425135 
L 165.146099 192.700829 
L 165.792306 192.700829 
L 166.11541 193.252218 
L 167.407824 193.252218 
L 167.730928 193.527912 
L 168.054032 193.527912 
L 168.377135 193.803606 
L 168.700239 193.803606 
L 169.023343 194.0793 
L 169.346446 194.0793 
L 169.992653 194.630688 
L 171.285068 194.630688 
L 171.608172 194.906383 
L 171.931275 194.906383 
L 172.254379 195.457771 
L 172.577483 195.457771 
L 172.900586 195.733465 
L 173.869897 195.733465 
L 174.193001 196.284854 
L 174.516105 196.284854 
L 174.839208 196.560548 
L 175.485415 196.560548 
L 176.131623 197.111936 
L 176.454726 197.111936 
L 176.77783 197.38763 
L 177.424037 197.38763 
L 177.747141 197.663324 
L 178.070245 197.663324 
L 178.393348 197.939019 
L 179.685763 197.939019 
L 180.008867 198.214713 
L 180.978177 198.214713 
L 181.301281 198.490407 
L 181.947488 198.490407 
L 182.593696 199.041795 
L 182.916799 199.041795 
L 183.239903 199.31749 
L 184.209214 199.31749 
L 184.532318 199.593184 
L 186.794043 199.593184 
L 187.117147 199.868878 
L 188.086458 199.868878 
L 188.409561 200.144572 
L 189.378872 200.144572 
L 189.701976 200.420266 
L 190.02508 200.420266 
L 190.348183 200.69596 
L 192.286805 200.69596 
L 192.609909 200.971655 
L 193.256116 200.971655 
L 193.57922 201.247349 
L 193.902323 201.247349 
L 194.225427 201.523043 
L 195.517842 201.523043 
L 195.840945 201.798737 
L 196.810256 201.798737 
L 197.13336 202.074431 
L 198.748878 202.074431 
L 199.071982 202.350126 
L 200.6875 202.350126 
L 201.010604 202.62582 
L 202.949226 202.62582 
L 203.272329 202.901514 
L 204.887847 202.901514 
L 205.210951 203.177208 
L 207.149573 203.177208 
L 207.472677 203.452902 
L 207.79578 203.452902 
L 208.118884 203.728596 
L 208.765091 203.728596 
L 209.088195 204.004291 
L 210.703713 204.004291 
L 211.026817 204.279985 
L 213.93475 204.279985 
L 214.257853 204.555679 
L 216.519579 204.555679 
L 216.842682 204.831373 
L 218.458201 204.831373 
L 218.781304 205.107067 
L 220.396823 205.107067 
L 220.719926 205.382762 
L 222.335444 205.382762 
L 222.658548 205.658456 
L 225.243377 205.658456 
L 225.566481 205.93415 
L 226.212688 205.93415 
L 226.535792 206.209844 
L 230.089932 206.209844 
L 230.413036 206.485538 
L 231.70545 206.485538 
L 232.028554 206.761232 
L 233.644072 206.761232 
L 233.967176 207.036927 
L 235.582694 207.036927 
L 235.905798 207.312621 
L 239.459938 207.312621 
L 239.783041 207.588315 
L 241.721663 207.588315 
L 242.044767 207.864009 
L 243.337182 207.864009 
L 243.660285 208.139703 
L 245.922011 208.139703 
L 246.245114 208.415397 
L 249.153047 208.415397 
L 249.476151 208.691092 
L 251.737876 208.691092 
L 252.06098 208.966786 
L 254.322706 208.966786 
L 254.645809 209.24248 
L 256.584431 209.24248 
L 256.907535 209.518174 
L 259.16926 209.518174 
L 259.492364 209.793868 
L 262.077193 209.793868 
L 262.400297 210.069563 
L 264.662022 210.069563 
L 264.985126 210.345257 
L 267.246851 210.345257 
L 267.569955 210.620951 
L 270.800992 210.620951 
L 271.124095 210.896645 
L 273.385821 210.896645 
L 273.708924 211.172339 
L 278.555479 211.172339 
L 278.878583 211.448033 
L 281.463412 211.448033 
L 281.786516 211.723728 
L 284.048241 211.723728 
L 284.371345 211.999422 
L 288.571692 211.999422 
L 288.894796 212.275116 
L 292.448936 212.275116 
L 292.77204 212.55081 
L 297.295491 212.55081 
L 297.618594 212.826504 
L 302.465149 212.826504 
L 302.788253 213.102199 
L 308.604118 213.102199 
L 308.927222 213.377893 
L 313.773777 213.377893 
L 314.09688 213.653587 
L 320.558953 213.653587 
L 320.882057 213.929281 
L 327.34413 213.929281 
L 327.667234 214.204975 
L 334.775514 214.204975 
L 335.098618 214.480669 
L 342.530001 214.480669 
L 342.853105 214.756364 
L 352.869318 214.756364 
L 352.869318 214.756364 
" clip-path="url(#p907e7521bf)" style="fill: none; stroke: #e24a33; stroke-width: 1.5; stroke-linecap: square"/>
   </g>
   <g id="patch_3">
    <path d="M 33.2875 224.64 
L 33.2875 7.2 
" style="fill: none; stroke: #ffffff; stroke-linejoin: miter; stroke-linecap: square"/>
   </g>
   <g id="patch_4">
    <path d="M 368.0875 224.64 
L 368.0875 7.2 
" style="fill: none; stroke: #ffffff; stroke-linejoin: miter; stroke-linecap: square"/>
   </g>
   <g id="patch_5">
    <path d="M 33.2875 224.64 
L 368.0875 224.64 
" style="fill: none; stroke: #ffffff; stroke-linejoin: miter; stroke-linecap: square"/>
   </g>
   <g id="patch_6">
    <path d="M 33.2875 7.2 
L 368.0875 7.2 
" style="fill: none; stroke: #ffffff; stroke-linejoin: miter; stroke-linecap: square"/>
   </g>
  </g>
 </g>
 <defs>
  <clipPath id="p907e7521bf">
   <rect x="33.2875" y="7.2" width="334.8" height="217.44"/>
  </clipPath>
 </defs>
</svg>
