<?xml version="1.0" encoding="utf-8" standalone="no"?>
<!DOCTYPE svg PUBLIC "-//W3C//DTD SVG 1.1//EN"
  "http://www.w3.org/Graphics/SVG/1.1/DTD/svg11.dtd">
<!-- Created with matplotlib (https://matplotlib.org/) -->
<svg height="302.4pt" version="1.1" viewBox="0 0 446.4 302.4" width="446.4pt" xmlns="http://www.w3.org/2000/svg" xmlns:xlink="http://www.w3.org/1999/xlink">
 <metadata>
  <rdf:RDF xmlns:cc="http://creativecommons.org/ns#" xmlns:dc="http://purl.org/dc/elements/1.1/" xmlns:rdf="http://www.w3.org/1999/02/22-rdf-syntax-ns#">
   <cc:Work>
    <dc:type rdf:resource="http://purl.org/dc/dcmitype/StillImage"/>
    <dc:date>2022-01-17T22:28:27.251175</dc:date>
    <dc:format>image/svg+xml</dc:format>
    <dc:creator>
     <cc:Agent>
      <dc:title>Matplotlib v3.3.2, https://matplotlib.org/</dc:title>
     </cc:Agent>
    </dc:creator>
   </cc:Work>
  </rdf:RDF>
 </metadata>
 <defs>
  <style type="text/css">*{stroke-linecap:butt;stroke-linejoin:round;}</style>
 </defs>
 <g id="figure_1">
  <g id="patch_1">
   <path d="M 0 302.4 
L 446.4 302.4 
L 446.4 0 
L 0 0 
z
" style="fill:#ffffff;"/>
  </g>
  <g id="axes_1">
   <g id="LineCollection_1">
    <path clip-path="url(#pb45bf4bac6)" d="M 26.836364 20.290909 
L 419.563636 20.290909 
" style="fill:none;stroke:#000000;"/>
    <path clip-path="url(#pb45bf4bac6)" d="M 26.836364 20.290909 
L 419.563636 282.109091 
" style="fill:none;stroke:#000000;"/>
    <path clip-path="url(#pb45bf4bac6)" d="M 26.836364 107.563636 
L 419.563636 20.290909 
" style="fill:none;stroke:#000000;"/>
    <path clip-path="url(#pb45bf4bac6)" d="M 26.836364 107.563636 
L 419.563636 107.563636 
" style="fill:none;stroke:#000000;"/>
    <path clip-path="url(#pb45bf4bac6)" d="M 26.836364 107.563636 
L 419.563636 282.109091 
" style="fill:none;stroke:#000000;"/>
    <path clip-path="url(#pb45bf4bac6)" d="M 26.836364 194.836364 
L 419.563636 20.290909 
" style="fill:none;stroke:#000000;"/>
    <path clip-path="url(#pb45bf4bac6)" d="M 26.836364 194.836364 
L 419.563636 282.109091 
" style="fill:none;stroke:#000000;"/>
   </g>
   <g id="PathCollection_1">
    <path clip-path="url(#pb45bf4bac6)" d="M 26.836364 32.538358 
C 30.084425 32.538358 33.199891 31.247889 35.496618 28.951163 
C 37.793344 26.654437 39.083812 23.53897 39.083812 20.290909 
C 39.083812 17.042848 37.793344 13.927381 35.496618 11.630655 
C 33.199891 9.333929 30.084425 8.04346 26.836364 8.04346 
C 23.588302 8.04346 20.472836 9.333929 18.17611 11.630655 
C 15.879383 13.927381 14.588915 17.042848 14.588915 20.290909 
C 14.588915 23.53897 15.879383 26.654437 18.17611 28.951163 
C 20.472836 31.247889 23.588302 32.538358 26.836364 32.538358 
z
" style="fill:#ff0000;stroke:#ff0000;"/>
    <path clip-path="url(#pb45bf4bac6)" d="M 26.836364 119.811085 
C 30.084425 119.811085 33.199891 118.520617 35.496618 116.22389 
C 37.793344 113.927164 39.083812 110.811698 39.083812 107.563636 
C 39.083812 104.315575 37.793344 101.200109 35.496618 98.903382 
C 33.199891 96.606656 30.084425 95.316188 26.836364 95.316188 
C 23.588302 95.316188 20.472836 96.606656 18.17611 98.903382 
C 15.879383 101.200109 14.588915 104.315575 14.588915 107.563636 
C 14.588915 110.811698 15.879383 113.927164 18.17611 116.22389 
C 20.472836 118.520617 23.588302 119.811085 26.836364 119.811085 
z
" style="fill:#ff0000;stroke:#ff0000;"/>
    <path clip-path="url(#pb45bf4bac6)" d="M 26.836364 207.083812 
C 30.084425 207.083812 33.199891 205.793344 35.496618 203.496618 
C 37.793344 201.199891 39.083812 198.084425 39.083812 194.836364 
C 39.083812 191.588302 37.793344 188.472836 35.496618 186.17611 
C 33.199891 183.879383 30.084425 182.588915 26.836364 182.588915 
C 23.588302 182.588915 20.472836 183.879383 18.17611 186.17611 
C 15.879383 188.472836 14.588915 191.588302 14.588915 194.836364 
C 14.588915 198.084425 15.879383 201.199891 18.17611 203.496618 
C 20.472836 205.793344 23.588302 207.083812 26.836364 207.083812 
z
" style="fill:#ff0000;stroke:#ff0000;"/>
    <path clip-path="url(#pb45bf4bac6)" d="M 419.563636 32.538358 
C 422.811698 32.538358 425.927164 31.247889 428.22389 28.951163 
C 430.520617 26.654437 431.811085 23.53897 431.811085 20.290909 
C 431.811085 17.042848 430.520617 13.927381 428.22389 11.630655 
C 425.927164 9.333929 422.811698 8.04346 419.563636 8.04346 
C 416.315575 8.04346 413.200109 9.333929 410.903382 11.630655 
C 408.606656 13.927381 407.316188 17.042848 407.316188 20.290909 
C 407.316188 23.53897 408.606656 26.654437 410.903382 28.951163 
C 413.200109 31.247889 416.315575 32.538358 419.563636 32.538358 
z
" style="fill:#add8e6;stroke:#add8e6;"/>
    <path clip-path="url(#pb45bf4bac6)" d="M 419.563636 119.811085 
C 422.811698 119.811085 425.927164 118.520617 428.22389 116.22389 
C 430.520617 113.927164 431.811085 110.811698 431.811085 107.563636 
C 431.811085 104.315575 430.520617 101.200109 428.22389 98.903382 
C 425.927164 96.606656 422.811698 95.316188 419.563636 95.316188 
C 416.315575 95.316188 413.200109 96.606656 410.903382 98.903382 
C 408.606656 101.200109 407.316188 104.315575 407.316188 107.563636 
C 407.316188 110.811698 408.606656 113.927164 410.903382 116.22389 
C 413.200109 118.520617 416.315575 119.811085 419.563636 119.811085 
z
" style="fill:#add8e6;stroke:#add8e6;"/>
    <path clip-path="url(#pb45bf4bac6)" d="M 419.563636 207.083812 
C 422.811698 207.083812 425.927164 205.793344 428.22389 203.496618 
C 430.520617 201.199891 431.811085 198.084425 431.811085 194.836364 
C 431.811085 191.588302 430.520617 188.472836 428.22389 186.17611 
C 425.927164 183.879383 422.811698 182.588915 419.563636 182.588915 
C 416.315575 182.588915 413.200109 183.879383 410.903382 186.17611 
C 408.606656 188.472836 407.316188 191.588302 407.316188 194.836364 
C 407.316188 198.084425 408.606656 201.199891 410.903382 203.496618 
C 413.200109 205.793344 416.315575 207.083812 419.563636 207.083812 
z
" style="fill:#add8e6;stroke:#add8e6;"/>
    <path clip-path="url(#pb45bf4bac6)" d="M 419.563636 294.35654 
C 422.811698 294.35654 425.927164 293.066071 428.22389 290.769345 
C 430.520617 288.472619 431.811085 285.357152 431.811085 282.109091 
C 431.811085 278.86103 430.520617 275.745563 428.22389 273.448837 
C 425.927164 271.152111 422.811698 269.861642 419.563636 269.861642 
C 416.315575 269.861642 413.200109 271.152111 410.903382 273.448837 
C 408.606656 275.745563 407.316188 278.86103 407.316188 282.109091 
C 407.316188 285.357152 408.606656 288.472619 410.903382 290.769345 
C 413.200109 293.066071 416.315575 294.35654 419.563636 294.35654 
z
" style="fill:#add8e6;stroke:#add8e6;"/>
   </g>
   <g id="text_1">
    <g clip-path="url(#pb45bf4bac6)">
     <!-- 0 -->
     <g transform="translate(23.018864 23.602159)scale(0.12 -0.12)">
      <defs>
       <path d="M 31.78125 66.40625 
Q 24.171875 66.40625 20.328125 58.90625 
Q 16.5 51.421875 16.5 36.375 
Q 16.5 21.390625 20.328125 13.890625 
Q 24.171875 6.390625 31.78125 6.390625 
Q 39.453125 6.390625 43.28125 13.890625 
Q 47.125 21.390625 47.125 36.375 
Q 47.125 51.421875 43.28125 58.90625 
Q 39.453125 66.40625 31.78125 66.40625 
z
M 31.78125 74.21875 
Q 44.046875 74.21875 50.515625 64.515625 
Q 56.984375 54.828125 56.984375 36.375 
Q 56.984375 17.96875 50.515625 8.265625 
Q 44.046875 -1.421875 31.78125 -1.421875 
Q 19.53125 -1.421875 13.0625 8.265625 
Q 6.59375 17.96875 6.59375 36.375 
Q 6.59375 54.828125 13.0625 64.515625 
Q 19.53125 74.21875 31.78125 74.21875 
z
" id="DejaVuSans-48"/>
      </defs>
      <use xlink:href="#DejaVuSans-48"/>
     </g>
    </g>
   </g>
   <g id="text_2">
    <g clip-path="url(#pb45bf4bac6)">
     <!-- 1 -->
     <g transform="translate(23.018864 110.874886)scale(0.12 -0.12)">
      <defs>
       <path d="M 12.40625 8.296875 
L 28.515625 8.296875 
L 28.515625 63.921875 
L 10.984375 60.40625 
L 10.984375 69.390625 
L 28.421875 72.90625 
L 38.28125 72.90625 
L 38.28125 8.296875 
L 54.390625 8.296875 
L 54.390625 0 
L 12.40625 0 
z
" id="DejaVuSans-49"/>
      </defs>
      <use xlink:href="#DejaVuSans-49"/>
     </g>
    </g>
   </g>
   <g id="text_3">
    <g clip-path="url(#pb45bf4bac6)">
     <!-- 2 -->
     <g transform="translate(23.018864 198.147614)scale(0.12 -0.12)">
      <defs>
       <path d="M 19.1875 8.296875 
L 53.609375 8.296875 
L 53.609375 0 
L 7.328125 0 
L 7.328125 8.296875 
Q 12.9375 14.109375 22.625 23.890625 
Q 32.328125 33.6875 34.8125 36.53125 
Q 39.546875 41.84375 41.421875 45.53125 
Q 43.3125 49.21875 43.3125 52.78125 
Q 43.3125 58.59375 39.234375 62.25 
Q 35.15625 65.921875 28.609375 65.921875 
Q 23.96875 65.921875 18.8125 64.3125 
Q 13.671875 62.703125 7.8125 59.421875 
L 7.8125 69.390625 
Q 13.765625 71.78125 18.9375 73 
Q 24.125 74.21875 28.421875 74.21875 
Q 39.75 74.21875 46.484375 68.546875 
Q 53.21875 62.890625 53.21875 53.421875 
Q 53.21875 48.921875 51.53125 44.890625 
Q 49.859375 40.875 45.40625 35.40625 
Q 44.1875 33.984375 37.640625 27.21875 
Q 31.109375 20.453125 19.1875 8.296875 
z
" id="DejaVuSans-50"/>
      </defs>
      <use xlink:href="#DejaVuSans-50"/>
     </g>
    </g>
   </g>
   <g id="text_4">
    <g clip-path="url(#pb45bf4bac6)">
     <!-- 100 -->
     <g transform="translate(408.111136 23.602159)scale(0.12 -0.12)">
      <use xlink:href="#DejaVuSans-49"/>
      <use x="63.623047" xlink:href="#DejaVuSans-48"/>
      <use x="127.246094" xlink:href="#DejaVuSans-48"/>
     </g>
    </g>
   </g>
   <g id="text_5">
    <g clip-path="url(#pb45bf4bac6)">
     <!-- 101 -->
     <g transform="translate(408.111136 110.874886)scale(0.12 -0.12)">
      <use xlink:href="#DejaVuSans-49"/>
      <use x="63.623047" xlink:href="#DejaVuSans-48"/>
      <use x="127.246094" xlink:href="#DejaVuSans-49"/>
     </g>
    </g>
   </g>
   <g id="text_6">
    <g clip-path="url(#pb45bf4bac6)">
     <!-- 102 -->
     <g transform="translate(408.111136 198.147614)scale(0.12 -0.12)">
      <use xlink:href="#DejaVuSans-49"/>
      <use x="63.623047" xlink:href="#DejaVuSans-48"/>
      <use x="127.246094" xlink:href="#DejaVuSans-50"/>
     </g>
    </g>
   </g>
   <g id="text_7">
    <g clip-path="url(#pb45bf4bac6)">
     <!-- 103 -->
     <g transform="translate(408.111136 285.420341)scale(0.12 -0.12)">
      <defs>
       <path d="M 40.578125 39.3125 
Q 47.65625 37.796875 51.625 33 
Q 55.609375 28.21875 55.609375 21.1875 
Q 55.609375 10.40625 48.1875 4.484375 
Q 40.765625 -1.421875 27.09375 -1.421875 
Q 22.515625 -1.421875 17.65625 -0.515625 
Q 12.796875 0.390625 7.625 2.203125 
L 7.625 11.71875 
Q 11.71875 9.328125 16.59375 8.109375 
Q 21.484375 6.890625 26.8125 6.890625 
Q 36.078125 6.890625 40.9375 10.546875 
Q 45.796875 14.203125 45.796875 21.1875 
Q 45.796875 27.640625 41.28125 31.265625 
Q 36.765625 34.90625 28.71875 34.90625 
L 20.21875 34.90625 
L 20.21875 43.015625 
L 29.109375 43.015625 
Q 36.375 43.015625 40.234375 45.921875 
Q 44.09375 48.828125 44.09375 54.296875 
Q 44.09375 59.90625 40.109375 62.90625 
Q 36.140625 65.921875 28.71875 65.921875 
Q 24.65625 65.921875 20.015625 65.03125 
Q 15.375 64.15625 9.8125 62.3125 
L 9.8125 71.09375 
Q 15.4375 72.65625 20.34375 73.4375 
Q 25.25 74.21875 29.59375 74.21875 
Q 40.828125 74.21875 47.359375 69.109375 
Q 53.90625 64.015625 53.90625 55.328125 
Q 53.90625 49.265625 50.4375 45.09375 
Q 46.96875 40.921875 40.578125 39.3125 
z
" id="DejaVuSans-51"/>
      </defs>
      <use xlink:href="#DejaVuSans-49"/>
      <use x="63.623047" xlink:href="#DejaVuSans-48"/>
      <use x="127.246094" xlink:href="#DejaVuSans-51"/>
     </g>
    </g>
   </g>
  </g>
 </g>
 <defs>
  <clipPath id="pb45bf4bac6">
   <rect height="288" width="432" x="7.2" y="7.2"/>
  </clipPath>
 </defs>
</svg>
